<?xml version="1.0" encoding="utf-8"?>
<!-- Generator: Adobe Illustrator 16.0.0, SVG Export Plug-In . SVG Version: 6.00 Build 0)  -->
<!DOCTYPE svg PUBLIC "-//W3C//DTD SVG 1.1//EN" "http://www.w3.org/Graphics/SVG/1.1/DTD/svg11.dtd">
<svg version="1.1" id="Layer_1" xmlns="http://www.w3.org/2000/svg" xmlns:xlink="http://www.w3.org/1999/xlink" x="0px" y="0px"
	 width="398.667px" height="246.181px" viewBox="0 0 398.667 246.181" enable-background="new 0 0 398.667 246.181"
	 xml:space="preserve">
<g>
	<path fill-rule="evenodd" clip-rule="evenodd" d="M398.667,240.843c-2.803,1.738-5.756,4.996-8.363,4.738
		c-2.119-0.208-4.468-4.375-5.598-7.229c-4.285-10.831-8.066-21.859-12.158-32.769c-0.777-2.072-2.109-3.937-3.91-7.221
		c-1.7,3.152-2.977,4.981-3.73,7.005c-4.241,11.386-8.38,22.81-12.502,34.239c-1.301,3.605-2.807,7.229-7.505,6.226
		c-5.101-1.09-6.394-4.74-4.938-10.552c4.763-19.02,9.596-38.029,13.838-57.168c1.008-4.547,0.213-9.643-0.52-14.367
		c-0.4-2.589-1.824-5.64-3.793-7.252c-6.391-5.235-13.246-9.901-21.203-15.726c0.59,10.404,1.04,19.258,1.605,28.104
		c1.486,23.274,3.023,46.546,4.537,69.819c0.055,0.831,0.291,1.727,0.07,2.483c-0.434,1.489-1.131,2.901-1.719,4.346
		c-0.645-1.335-1.752-2.633-1.857-4.009c-0.768-9.965-1.341-19.945-1.962-29.922c-1.44-23.11-2.069-46.317-4.796-69.275
		c-0.819-6.898-0.201-13.551-0.741-20.286c-0.528-6.586-0.944-13.182-1.451-20.372c-82.121,11.958-163.737,11.637-246.795-0.11
		c0.303,10.876,0.584,20.989,0.869,31.103c0.018,0.648,0.313,1.412,0.068,1.927c-5.054,10.631-3.179,22.171-4.102,33.276
		c-1.974,23.735-3.085,47.542-4.549,71.319c-0.031,0.498,0.067,1.049-0.111,1.487c-0.665,1.636-1.419,3.235-2.141,4.848
		c-0.504-1.694-1.536-3.42-1.436-5.078c1.871-31.095,3.881-62.181,5.841-93.271c0.102-1.626,0.013-3.264,0.013-6.458
		c-8.058,6.053-15.445,11.297-22.407,17.056c-1.646,1.362-2.252,4.383-2.675,6.759c-2.501,14.057,1.301,27.479,4.7,40.856
		c2.581,10.155,6.024,20.091,8.65,30.236c0.622,2.4,0.43,6.008-0.992,7.749c-3.947,4.832-8.856,3.239-11.147-3.071
		c-4.258-11.732-8.518-23.464-12.865-35.164c-0.708-1.905-1.867-3.644-3.509-6.783c-1.751,3.185-3.062,5.02-3.831,7.059
		c-4.283,11.369-8.51,22.762-12.589,34.205c-1.321,3.707-2.928,7.125-7.482,6.208c-5.09-1.023-6.407-4.719-4.89-10.525
		c4.58-17.537,9.21-35.066,13.382-52.703c1.125-4.757,0.693-9.882,0.976-14.837c-0.441-0.098-0.881-0.194-1.322-0.291
		c-0.332,1.028-0.833,2.035-0.967,3.088c-0.753,5.948-1.352,11.915-2.138,17.858c-0.409,3.091-1.173,6.233-5.349,5.715
		c-3.961-0.491-3.923-3.743-3.611-6.54c1.311-11.746,2.708-23.486,4.335-35.193c0.636-4.577,3.887-6.908,8.406-7.063
		c3.988-0.138,7.995,0,11.983,0.216c9.262,0.499,17.789-1.669,25.791-6.372c4.875-2.865,9.885-5.556,15.038-7.873
		c2.637-1.186,3.708-2.546,3.879-5.456c1.506-25.611,3.167-51.213,4.795-76.816C76.825,32.74,77.883,16.467,78.943,0
		c79.969,13.071,159.653,12.521,240.158,0.047c0.437,5.796,0.951,11.821,1.334,17.854c2.255,35.579,4.542,71.157,6.628,106.746
		c0.227,3.861,1.473,5.919,5.143,7.288c3.709,1.383,7.24,3.424,10.576,5.596c10.688,6.957,22.387,9.04,34.879,7.852
		c1.982-0.188,4.002-0.221,5.988-0.093c4.5,0.29,7.725,2.464,8.369,7.098c1.648,11.871,3.158,23.764,4.517,35.671
		c0.333,2.918-0.273,5.901-4.206,6.085c-3.545,0.167-4.416-2.336-4.77-5.198c-0.654-5.29-1.27-10.585-1.957-15.87
		c-0.249-1.917-0.659-3.812-0.996-5.717c-0.6,0.064-1.201,0.13-1.801,0.194c0.595,6.496,0.383,13.192,1.939,19.449
		c4.241,17.047,9.229,33.907,13.922,50.842C398.667,238.843,398.667,239.843,398.667,240.843z M320.708,100.567
		c-16.214-31.943-11.466-64.629-6.3-98.441C237.498,13.4,160.719,13.972,83.527,2.082c5.316,33.999,10.019,66.839-6.289,98.498
		C158.635,111.989,239.407,112.331,320.708,100.567z M321.811,97.341c-1.914-30.119-3.828-60.239-5.742-90.358
		C310.35,37.62,306.25,68.151,321.811,97.341z M76.428,96.782C91.56,67.762,87.635,37.716,82.031,7.58
		C80.163,37.314,78.295,67.049,76.428,96.782z"/>
	<path fill-rule="evenodd" clip-rule="evenodd" d="M29.783,118.719c6.747,0.045,12.028,5.443,11.902,12.167
		c-0.122,6.469-5.405,11.754-11.824,11.828c-6.681,0.077-12.095-5.286-12.119-12.004C17.718,123.951,23.016,118.675,29.783,118.719z
		"/>
	<path fill-rule="evenodd" clip-rule="evenodd" d="M356.293,130.54c0.053-6.739,5.425-11.932,12.231-11.822
		c6.499,0.104,11.716,5.344,11.776,11.832c0.062,6.599-5.426,12.147-12.037,12.169C361.663,142.74,356.241,137.225,356.293,130.54z"
		/>
</g>
</svg>
