<svg xmlns="http://www.w3.org/2000/svg">
<defs>
<font id="AraHamah1982-Regular" horiz-adv-x="567" >
  <font-face 
    font-family="Ara Hamah 1982"
    font-weight="400"
    font-stretch="normal"
    units-per-em="1500"
    panose-1="0 0 5 0 0 0 0 0 0 0"
    ascent="1200"
    descent="-300"
    x-height="681"
    cap-height="911"
    bbox="-173 -368 1516 997"
    underline-thickness="50"
    underline-position="-50"
    unicode-range="U+000D-FEFC"
  />
<missing-glyph horiz-adv-x="897" 
d="M448 997h9q7 -1 12 -1h1q154 0 274 -126q113 -119 113 -282v-3q0 -11 -1 -16v-11q-1 -5 -1 -8q-1 -2 -1.5 -6.5t-0.5 -6.5v-5l-2 -15q0 -1 -1 -2q-20 -106 -88 -188l-39 40q79 97 79 222q0 147 -104 251t-251 104t-251 -104t-104 -251q0 -126 80 -224l-38 -38
q-67 82 -87 187q0 2 -1 3l-2 15q0 2 -1 5q-1 5 -1 13q0 5 -1 8q0 9 -1 11v19q0 169 120 289t288 120zM447 936q143 0 245 -102q101 -101 101 -245q0 -122 -76 -216l-42 42q59 77 59 174q0 119 -84 203q-84 85 -203 85t-203 -85q-84 -84 -84 -203q0 -98 60 -176l-41 -42
q-78 96 -78 218q0 144 101 245q102 102 245 102zM447 868q115 0 197 -82q82 -81 82 -197q0 -95 -57 -168l-45 45q40 55 40 125q0 90 -64 154q-64 63 -154 63t-153 -63q-64 -64 -64 -154q0 -71 42 -128l-45 -44q-58 74 -58 170q0 116 82 197q82 82 197 82zM446 692
q40 0 68 -28t28 -68q0 -38 -27 -67l245 -263h-623l242 260q-30 28 -30 70q0 39 29 68q28 28 68 28zM187 164h22v3q0 17 12 29t29 12t29 -12t12 -29v-3h68l-42 23q1 2 4.5 8.5t6.5 11.5v-1l18 -10l17 -9l22 -13h1v-32h-104q-12 -16 -32 -16t-33 16h-52v82h22v-60zM460 224
v-20q7 4 18 4h61v-66h-112v22h11v60h22zM654 224v-20q8 4 18 4h62v-44h70q-7 5 -21 11l-21 12q1 4 6 10l5 9l25 -12q5 -4 10 -7l11 -7l12 -6v-1v-31h-227q-12 -23 -38 -23h-3v22h3q6 0 11 3q-13 4 -20 17q-5 8 -3 17q3 26 30 30h26v-44h22v60h22zM810 207h-16v17h16v-17z
M111 207q18 0 30 -12q13 -13 13 -31q0 -13 -8 -24h-70q-8 11 -8 24q0 18 13 31q12 12 30 12zM111 185q-20 0 -20 -21v-1h40l1 1q0 21 -21 21zM250 185q-18 0 -18 -18t18 -18t18 18t-18 18zM517 185h-38q-18 0 -18 -18v-3h56v21zM589 164v21q-14 -2 -14 -10q0 -9 14 -11z

<glyph glyph-name="lam_alefMaddaar" unicode="&#xfedf;&#xfe82;" horiz-adv-x="423" arabic-form="isolated" 
d="M383 911v-639q0 -113 -79 -192q-80 -80 -194 -80h-17v76h17q84 0 142 58q57 57 57 138v639h74zM68 892l55 -28q8 -2 11 -1l31 14v-31l-36 -15l-56 27q-4 3 -12 1l-36 -13v31zM223 126h-76l-88 661h75z" />
    <glyph glyph-name="lam_alefMaddaar.fina" unicode="&#xfee0;&#xfe82;" horiz-adv-x="503" arabic-form="final" 
d="M383 911v-728q0 -45 31 -76q32 -31 76 -31h33v-76h-33q-76 0 -130 54q-24 30 -30 56q-10 -14 -26 -30q-80 -80 -194 -80h-17v76h17q84 0 142 58q57 57 57 138v639h74zM68 892l55 -28q8 -2 11 -1l31 14v-31l-36 -15l-56 27q-4 3 -12 1l-36 -13v31zM223 126h-76l-88 661h75
z" />
    <glyph glyph-name="lam_alefHamzaabovear" unicode="&#xfedf;&#xfe84;" horiz-adv-x="423" arabic-form="isolated" 
d="M383 911v-639q0 -112 -78 -192q-80 -80 -194 -80h-18v76h18q83 0 141 58q58 57 58 138v639h73zM130 903l2 -35q-25 6 -42 -1q-14 -7 -16 -21q-2 -38 69 -43v-36h-111v36h17q-25 43 -4 74q23 32 85 26zM223 126h-76l-81 587h75z" />
    <glyph glyph-name="lam_alefHamzaabovear.fina" unicode="&#xfee0;&#xfe84;" horiz-adv-x="503" arabic-form="final" 
d="M128 909l2 -35q-25 6 -42 -1q-14 -7 -16 -21q-2 -38 69 -43v-36h-111v36h17q-25 43 -4 74q23 32 85 26zM383 911v-728q0 -45 31 -76q32 -31 76 -31h34l-1 -76h-32q-80 0 -130 54q-25 26 -30 56q-6 -8 -26 -30q-80 -80 -194 -80h-18v76h18q83 0 141 58q58 57 58 138v639
h73zM223 126h-76l-83 593h75z" />
    <glyph glyph-name="lam_alefHamzabelowar" unicode="&#xfedf;&#xfe88;" horiz-adv-x="423" arabic-form="isolated" 
d="M223 126h-77l-106 785h75zM383 911v-639q0 -113 -79 -192q-80 -80 -194 -80h-17v76h17q83 0 141 58q58 57 58 138v639h74zM223 -38l1 -35q-25 6 -41 -1q-16 -8 -17 -21q-2 -38 69 -43v-36h-111v36h17q-25 43 -3 74q21 32 85 26z" />
    <glyph glyph-name="lam_alefHamzabelowar.fina" unicode="&#xfee0;&#xfe88;" horiz-adv-x="503" arabic-form="final" 
d="M223 126h-77l-106 785h75zM383 911v-728q0 -47 30 -76q31 -31 77 -31h33v-76h-33q-76 0 -130 54q-24 30 -30 56q-6 -8 -26 -30q-80 -80 -194 -80h-17v76h17q83 0 141 58q58 57 58 138v639h74zM223 -38l1 -35q-25 6 -41 -1q-16 -8 -17 -21q-2 -38 69 -43v-36h-111v36h17
q-25 43 -3 74q21 32 85 26z" />
    <glyph glyph-name="lam_alefar" unicode="&#xfedf;&#xfe8e;" horiz-adv-x="423" arabic-form="isolated" 
d="M223 126h-77l-106 785h75zM383 911v-639q0 -113 -79 -192q-80 -80 -194 -80h-17v76h17q83 0 141 58q58 57 58 138v639h74z" />
    <glyph glyph-name="lam_alefar.fina" unicode="&#xfee0;&#xfe8e;" horiz-adv-x="503" arabic-form="final" 
d="M223 126h-77l-106 785h75zM383 911v-728q0 -47 30 -76q31 -31 77 -31h33v-76h-33q-76 0 -130 54q-24 30 -30 56q-6 -8 -26 -30q-80 -80 -194 -80h-17v76h17q83 0 141 58q58 57 58 138v639h74z" />
    <glyph glyph-name="uniFBE8" unicode="&#x649;" horiz-adv-x="236" arabic-form="initial" 
d="M196 476v-293q0 -75 -54 -129t-129 -54h-33v76h33q44 0 75 31t31 76v293h77z" />
    <glyph glyph-name="uniFBE9" unicode="&#x649;" horiz-adv-x="316" arabic-form="medial" 
d="M196 476v-293q0 -45 31 -76q32 -31 76 -31h33v-76h-33q-79 0 -130 54l-15 16l-15 -16q-51 -54 -129 -54h-34v76h34q44 0 75 31t31 76v293h76z" />
    <glyph glyph-name="uniFC63" unicode="&#xfc63;" horiz-adv-x="0" arabic-form="isolated" 
d="M15 197h-29v99h29v-99zM173 189v-95q0 -39 -27 -66q-28 -28 -67 -28q-51 0 -79 43q-27 -43 -79 -43q-42 0 -67 28l-7 8q-20 24 -20 57v40h30v-47q3 -20 18 -37q19 -19 46 -19q26 0 45 19t19 45v71h30v-71q0 -26 19 -45t45 -19q27 0 46 19t19 45v95h29z" />
    <glyph glyph-name="alefMaddaar.fina" unicode="&#x622;" horiz-adv-x="212" arabic-form="final" 
d="M48 910l55 -28q8 -2 11 -1l31 14v-31l-36 -15l-56 27q-4 3 -12 1l-36 -13v31zM117 780v-689q0 -15 15 -15h100v-76h-191v780h76z" />
    <glyph glyph-name="alefHamzaabovear.fina" unicode="&#x623;" horiz-adv-x="212" arabic-form="final" 
d="M124 909v-35q-24 6 -40 -1q-14 -7 -16 -21q-2 -38 69 -43v-36h-113v36h19q-25 43 -5 74q21 32 86 26zM117 711v-620q0 -15 15 -15h100v-76h-191v711h76z" />
    <glyph glyph-name="wawHamzaabovear.fina" unicode="&#x624;" horiz-adv-x="620" arabic-form="final" 
d="M350 771v-44q-82 13 -103 -32q-13 -26 2 -54t50 -37h59v-43h-175v43h31q-26 48 -22 88t46.5 63t111.5 16zM271 461q94 0 162 -68q69 -69 69 -157v-160h139v-76h-139q-18 -35 -49 -66q-80 -80 -194 -80q-23 0 -44 3v77q17 -4 44 -4q84 0 142 58l6 6l1 2l4 4h-141
q-97 0 -164 67t-67 164q0 95 67.5 162.5t163.5 67.5zM271 387q-65 0 -110 -47q-45 -44 -45 -109q0 -66 45 -111q44 -44 110 -44h155v155q0 63 -46.5 109.5t-108.5 46.5z" />
    <glyph glyph-name="alefHamzabelowar.fina" unicode="&#x625;" horiz-adv-x="212" arabic-form="final" 
d="M117 911v-820q0 -15 15 -15h100v-76h-191v911h76zM148 -87v-35q-24 6 -40 -1q-14 -7 -16 -23q-2 -36 69 -41v-36h-113v36h19q-25 43 -5 74q21 32 86 26z" />
    <glyph glyph-name="yehHamzaabovear.fina" unicode="&#x626;" horiz-adv-x="1099" arabic-form="final" 
d="M228 430v-44q-82 13 -103 -32q-12 -25 2 -53q14 -29 50 -38h59v-43h-175v43h31q-43 70 -8 124q37 54 144 43zM218 146l-3 -84q-59 -26 -68 -32q-43 -28 -28 -77t67 -49h663q22 5 36 19q17 17 20 41q4 29 -19 50t-72 32l-115 27l42 63q63 -13 131 -32q41 -13 62 -28h185
v-76h-140q9 -62 -30 -115q-42 -57 -113 -57h-651q-48 0 -90 33q-55 46 -55 111q0 69 58 112q22 17 120 62z" />
    <glyph glyph-name="yehHamzaabovear.init" unicode="&#x626;" horiz-adv-x="336" arabic-form="initial" 
d="M280 771v-44q-82 13 -103 -32q-12 -25 2 -53q14 -29 50 -38h59v-43h-175v43h31q-43 70 -8 124q37 54 144 43zM296 476v-293q0 -75 -54 -129t-129 -54h-133v76h133q44 0 75 31t31 76v293h77z" />
    <glyph glyph-name="yehHamzaabovear.medi" unicode="&#x626;" horiz-adv-x="316" arabic-form="medial" 
d="M222 771v-44q-82 13 -103 -32q-12 -25 2 -53q14 -29 50 -38h59v-43h-175v43h31q-43 70 -8 124q37 54 144 43zM196 476v-293q0 -45 31 -76q32 -31 76 -31h33v-76h-33q-79 0 -130 54l-15 16l-15 -16q-51 -54 -129 -54h-34v76h34q44 0 75 31t31 76v293h76z" />
    <glyph glyph-name="uniFE8E" unicode="&#x627;" horiz-adv-x="212" arabic-form="final" 
d="M117 911v-820q0 -15 15 -15h100v-76h-191v911h76z" />
    <glyph glyph-name="behar.fina" unicode="&#x628;" horiz-adv-x="1080" arabic-form="final" 
d="M965 476v-293q0 -45 31 -76t74 -31h31v-76h-31q-76 0 -128 54l-8 8l-8 8q-5 -5 -7 -8l-9 -8q-52 -54 -128 -54h-573q-74 0 -126.5 52.5t-52.5 126.5h75q0 -44 31 -73q29 -31 73 -31l573 1q43 0 74 31t31 76v293h78zM505 -81q24 0 41 -17t17 -40q0 -24 -17 -41t-41 -17
q-23 0 -40 17t-17 41q0 23 17 40t40 17z" />
    <glyph glyph-name="behar.init" unicode="&#x628;" horiz-adv-x="236" arabic-form="initial" 
d="M196 476v-293q0 -75 -54 -129t-129 -54h-33v76h33q44 0 75 31t31 76v293h77zM78 -59q24 0 41 -17t17 -40q0 -24 -17 -41t-41 -17q-23 0 -40 17t-17 41q0 23 17 40t40 17z" />
    <glyph glyph-name="behar.medi" unicode="&#x628;" horiz-adv-x="316" arabic-form="medial" 
d="M196 476v-293q0 -45 31 -76q32 -31 76 -31h33v-76h-33q-79 0 -130 54l-15 16l-15 -16q-51 -54 -129 -54h-34v76h34q44 0 75 31t31 76v293h76zM158 -59q24 0 41 -17t17 -40q0 -24 -17 -41t-41 -17q-23 0 -40 17t-17 41q0 23 17 40t40 17z" />
    <glyph glyph-name="tehMarbutaar.fina" unicode="&#x629;" horiz-adv-x="658" arabic-form="final" 
d="M182 662q24 0 41 -17t17 -40q0 -24 -17 -41t-41 -17q-23 0 -40 17t-17 41q0 23 17 40t40 17zM340 662q24 0 41 -17t17 -40q0 -24 -17 -41t-41 -17q-23 0 -40 17t-17 41q0 23 17 40t40 17zM271 442q94 0 162 -68t68 -162v-103q0 -33 36 -33h141v-76h-154q-44 0 -72 28.5
t-28 83.5v100q0 65 -45 110.5t-108 45.5q-65 0 -110 -47q-45 -43 -45 -109t45 -111t110 -45q40 0 73 18l34 -66q-48 -27 -107 -27q-97 0 -164 67t-67 164q0 95 67.5 162.5t163.5 67.5z" />
    <glyph glyph-name="tehar.fina" unicode="&#x62a;" horiz-adv-x="1080" arabic-form="final" 
d="M414 623q24 0 41 -17t17 -40q0 -24 -17 -41t-41 -17q-23 0 -40 17t-17 41q0 23 17 40t40 17zM572 623q24 0 41 -17t17 -40q0 -24 -17 -41t-41 -17q-23 0 -40 17t-17 41q0 23 17 40t40 17zM965 476v-293q0 -45 31 -76t74 -31h31v-76h-31q-76 0 -128 54l-8 8l-8 8
q-5 -5 -7 -8l-9 -8q-52 -54 -128 -54h-573q-74 0 -126.5 52.5t-52.5 126.5h75q0 -44 31 -73q29 -31 73 -31l573 1q43 0 74 31t31 76v293h78z" />
    <glyph glyph-name="tehar.init" unicode="&#x62a;" horiz-adv-x="373" arabic-form="initial" 
d="M117 662q24 0 41 -17t17 -40q0 -24 -17 -41t-41 -17q-23 0 -40 17t-17 41q0 23 17 40t40 17zM275 662q24 0 41 -17t17 -40q0 -24 -17 -41t-41 -17q-23 0 -40 17t-17 41q0 23 17 40t40 17zM316 476v-293q0 -75 -54 -129t-129 -54h-153v76h153q44 0 75 31t31 76v293h77z
" />
    <glyph glyph-name="tehar.medi" unicode="&#x62a;" horiz-adv-x="380" arabic-form="medial" 
d="M142 662q24 0 41 -17t17 -40q0 -24 -17 -41t-41 -17q-23 0 -40 17t-17 41q0 23 17 40t40 17zM300 662q24 0 41 -17t17 -40q0 -24 -17 -41t-41 -17q-23 0 -40 17t-17 41q0 23 17 40t40 17zM260 476v-293q0 -45 31 -76q32 -31 76 -31h33v-76h-33q-79 0 -130 54l-15 16
l-15 -16q-51 -54 -129 -54h-98v76h98q44 0 75 31t31 76v293h76z" />
    <glyph glyph-name="thehar.fina" unicode="&#x62b;" horiz-adv-x="1080" arabic-form="final" 
d="M487 770q24 0 41 -17t17 -40q0 -24 -17 -41t-41 -17q-23 0 -40 17t-17 41q0 23 17 40t40 17zM414 623q24 0 41 -17t17 -40q0 -24 -17 -41t-41 -17q-23 0 -40 17t-17 41q0 23 17 40t40 17zM572 623q24 0 41 -17t17 -40q0 -24 -17 -41t-41 -17q-23 0 -40 17t-17 41
q0 23 17 40t40 17zM965 476v-293q0 -45 31 -76t74 -31h31v-76h-31q-76 0 -128 54l-8 8l-8 8q-5 -5 -7 -8l-9 -8q-52 -54 -128 -54h-573q-74 0 -126.5 52.5t-52.5 126.5h75q0 -44 31 -73q29 -31 73 -31l573 1q43 0 74 31t31 76v293h78z" />
    <glyph glyph-name="thehar.init" unicode="&#x62b;" horiz-adv-x="362" arabic-form="initial" 
d="M181 790q24 0 41 -17t17 -40q0 -24 -17 -41t-41 -17q-23 0 -40 17t-17 41q0 23 17 40t40 17zM106 656q24 0 41 -17t17 -40q0 -24 -17 -41t-41 -17q-23 0 -40 17t-17 41q0 23 17 40t40 17zM264 656q24 0 41 -17t17 -40q0 -24 -17 -41t-41 -17q-23 0 -40 17t-17 41
q0 23 17 40t40 17zM316 476v-293q0 -75 -54 -129t-129 -54h-153v76h153q44 0 75 31t31 76v293h77z" />
    <glyph glyph-name="thehar.medi" unicode="&#x62b;" horiz-adv-x="380" arabic-form="medial" 
d="M217 796q24 0 41 -17t17 -40q0 -24 -17 -41t-41 -17q-23 0 -40 17t-17 41q0 23 17 40t40 17zM142 662q24 0 41 -17t17 -40q0 -24 -17 -41t-41 -17q-23 0 -40 17t-17 41q0 23 17 40t40 17zM300 662q24 0 41 -17t17 -40q0 -24 -17 -41t-41 -17q-23 0 -40 17t-17 41
q0 23 17 40t40 17zM260 476v-293q0 -45 31 -76q32 -31 76 -31h33v-76h-33q-79 0 -130 54l-15 16l-15 -16q-51 -54 -129 -54h-98v76h98q44 0 75 31t31 76v293h76z" />
    <glyph glyph-name="jeemar.fina" unicode="&#x62c;" horiz-adv-x="879" arabic-form="final" 
d="M189 479l547 -255q87 -41 82 -148h82v-76h-783q-8 -28 0 -48q9 -25 37 -30l113 -21l-17 -76l-128 28q-46 11 -66 57q-16 40 -16 90v76h701q18 53 -37 78l-532 248zM510 -105q24 0 40 -16q17 -19 17 -41q0 -24 -17 -41t-40 -17q-24 0 -41 17t-17 41q0 22 17 41
q16 16 41 16z" />
    <glyph glyph-name="jeemar.init" unicode="&#x62c;" horiz-adv-x="805" arabic-form="initial" 
d="M137 479l547 -255q82 -38 82 -148v-76h-786v76h709q18 53 -37 78l-532 248zM357 -105q24 0 40 -16q17 -19 17 -41q0 -24 -17 -41t-40 -17q-24 0 -41 17t-17 41q0 22 17 41q16 16 41 16z" />
    <glyph glyph-name="jeemar.medi" unicode="&#x62c;" horiz-adv-x="828" arabic-form="medial" 
d="M137 479l547 -255q87 -41 82 -148h82v-76h-868v76h709q18 53 -37 78l-532 248zM357 -105q24 0 40 -16q17 -19 17 -41q0 -24 -17 -41t-40 -17q-24 0 -41 17t-17 41q0 22 17 41q16 16 41 16z" />
    <glyph glyph-name="hahar.fina" unicode="&#x62d;" horiz-adv-x="879" arabic-form="final" 
d="M189 479l547 -255q87 -41 82 -148h82v-76h-783q-8 -28 0 -48q9 -25 37 -30l113 -21l-17 -76l-128 28q-46 11 -66 57q-16 40 -16 90v76h701q18 53 -37 78l-532 248z" />
    <glyph glyph-name="hahar.init" unicode="&#x62d;" horiz-adv-x="805" arabic-form="initial" 
d="M137 479l547 -255q82 -38 82 -148v-76h-786v76h709q18 53 -37 78l-532 248z" />
    <glyph glyph-name="hahar.medi" unicode="&#x62d;" horiz-adv-x="828" arabic-form="medial" 
d="M137 479l547 -255q87 -41 82 -148h82v-76h-868v76h709q18 53 -37 78l-532 248z" />
    <glyph glyph-name="khahar.fina" unicode="&#x62e;" horiz-adv-x="879" arabic-form="final" 
d="M343 637q24 0 41 -17q16 -16 16 -41q0 -24 -16 -40q-18 -18 -41 -18q-25 0 -41 18q-17 17 -17 40q0 22 17 41q17 17 41 17zM189 479l547 -255q87 -41 82 -148h82v-76h-783q-8 -28 0 -48q9 -25 37 -30l113 -21l-17 -76l-128 28q-46 11 -66 57q-16 40 -16 90v76h701
q18 53 -37 78l-532 248z" />
    <glyph glyph-name="khahar.init" unicode="&#x62e;" horiz-adv-x="805" arabic-form="initial" 
d="M249 637q24 0 41 -17q16 -16 16 -41q0 -24 -16 -40q-18 -18 -41 -18q-25 0 -41 18q-17 17 -17 40q0 22 17 41q17 17 41 17zM137 479l547 -255q82 -38 82 -148v-76h-786v76h709q18 53 -37 78l-532 248z" />
    <glyph glyph-name="khahar.medi" unicode="&#x62e;" horiz-adv-x="828" arabic-form="medial" 
d="M285 637q24 0 41 -17q16 -16 16 -41q0 -24 -16 -40q-18 -18 -41 -18q-25 0 -41 18q-17 17 -17 40q0 22 17 41q17 17 41 17zM137 479l547 -255q87 -41 82 -148h82v-76h-868v76h709q18 53 -37 78l-532 248z" />
    <glyph glyph-name="dalar.fina" unicode="&#x62f;" horiz-adv-x="664" arabic-form="final" 
d="M154 475l371 -200q55 -30 72 -90q17 -57 -7 -109h94v-76h-644v76h425q57 0 66 53q10 51 -38 78l-339 187v81z" />
    <glyph glyph-name="thalar.fina" unicode="&#x630;" horiz-adv-x="664" arabic-form="final" 
d="M198 679q24 0 41 -17q16 -16 16 -41q0 -24 -16 -40q-18 -18 -41 -18q-24 0 -41 18q-17 17 -17 40q0 22 17 41q17 17 41 17zM154 475l371 -200q55 -30 72 -90q17 -57 -7 -109h94v-76h-644v76h425q57 0 66 53q10 51 -38 78l-339 187v81z" />
    <glyph glyph-name="rehar.fina" unicode="&#x631;" horiz-adv-x="315" arabic-form="final" 
d="M255 473v-371q0 -8 -2 -26h82v-76h-99q-21 -51 -62 -92q-67 -67 -154 -77v77q58 10 100 54q59 59 59 140v371h76z" />
    <glyph glyph-name="zainar.fina" unicode="&#x632;" horiz-adv-x="315" arabic-form="final" 
d="M217 659q24 0 41 -17q16 -16 16 -41q0 -24 -16 -40q-18 -18 -41 -18q-25 0 -41 18q-17 17 -17 40q0 22 17 41q17 17 41 17zM255 473v-371q0 -8 -2 -26h82v-76h-99q-21 -51 -62 -92q-67 -67 -154 -77v77q58 10 100 54q59 59 59 140v371h76z" />
    <glyph glyph-name="seenar.fina" unicode="&#x633;" horiz-adv-x="1496" arabic-form="final" 
d="M1378 471v-290q0 -44 31 -75q31 -30 74 -30h33v-76h-33q-75 0 -128 53q-15 15 -28 36q-8 -12 -18 -20q-71 -69 -167 -69q-127 0 -198 107q-69 -107 -197 -107q-95 0 -163 65q-10 -89 -78 -157q-79 -79 -194 -79q-113 0 -192 79q-80 80 -80 194v228h75v-228q0 -82 58 -140
q57 -58 139 -58q84 0 141 58q58 58 58 140v228h75v-95q0 -66 47 -113q48 -48 114 -48q67 0 114 48q46 46 46 113v175h75v-175q0 -66 47 -113q47 -48 113 -48t114 48q40 40 46 92v257h76z" />
    <glyph glyph-name="seenar.init" unicode="&#x633;" horiz-adv-x="1024" arabic-form="initial" 
d="M984 472v-237q0 -99 -69 -166q-69 -69 -167 -69q-126 0 -197 107q-69 -107 -197 -107q-98 0 -167 69q-7 6 -19 20q-9 -17 -28 -36q-53 -53 -127 -53h-33v76h33q43 0 73 30q32 32 32 75v149h76v-116q6 -53 45 -92q48 -48 115 -48q66 0 113 48q47 47 47 113v175h74v-175
q0 -66 47 -113q48 -48 113 -48q67 0 115 48q47 47 47 113v237h74z" />
    <glyph glyph-name="seenar.medi" unicode="&#x633;" horiz-adv-x="1104" arabic-form="medial" 
d="M986 471v-290q0 -45 30 -75t74 -30h34v-76h-34q-74 0 -127 53q-16 16 -29 37l-19 -21q-63 -69 -167 -69q-126 0 -197 107q-69 -107 -197 -107q-98 0 -167 69q-7 6 -19 20q-9 -17 -28 -36q-53 -53 -127 -53h-33v76h33q43 0 73 30q32 32 32 75v149h76v-116q6 -53 45 -92
q48 -48 115 -48q66 0 113 48q47 47 47 113v175h75v-175q0 -67 46 -113q48 -48 113 -48q67 0 115 48q47 47 47 113v237z" />
    <glyph glyph-name="sheenar.fina" unicode="&#x634;" horiz-adv-x="1496" arabic-form="final" 
d="M938 796q24 0 41 -17t17 -40q0 -24 -17 -41t-41 -17q-23 0 -40 17t-17 41q0 23 17 40t40 17zM863 662q24 0 41 -17t17 -40q0 -24 -17 -41t-41 -17q-23 0 -40 17t-17 41q0 23 17 40t40 17zM1021 662q24 0 41 -17t17 -40q0 -24 -17 -41t-41 -17q-23 0 -40 17t-17 41
q0 23 17 40t40 17zM1378 471v-290q0 -44 31 -75q31 -30 74 -30h33v-76h-33q-75 0 -128 53q-15 15 -28 36q-8 -12 -18 -20q-71 -69 -167 -69q-127 0 -198 107q-69 -107 -197 -107q-95 0 -163 65q-10 -89 -78 -157q-79 -79 -194 -79q-113 0 -192 79q-80 80 -80 194v228h75
v-228q0 -82 58 -140q57 -58 139 -58q84 0 141 58q58 58 58 140v228h75v-95q0 -66 47 -113q48 -48 114 -48q67 0 114 48q46 46 46 113v175h75v-175q0 -66 47 -113q47 -48 113 -48t114 48q40 40 46 92v257h76z" />
    <glyph glyph-name="sheenar.init" unicode="&#x634;" horiz-adv-x="1024" arabic-form="initial" 
d="M552 796q24 0 41 -17t17 -40q0 -24 -17 -41t-41 -17q-23 0 -40 17t-17 41q0 23 17 40t40 17zM477 662q24 0 41 -17t17 -40q0 -24 -17 -41t-41 -17q-23 0 -40 17t-17 41q0 23 17 40t40 17zM635 662q24 0 41 -17t17 -40q0 -24 -17 -41t-41 -17q-23 0 -40 17t-17 41
q0 23 17 40t40 17zM984 472v-237q0 -99 -69 -166q-69 -69 -167 -69q-126 0 -197 107q-69 -107 -197 -107q-98 0 -167 69q-7 6 -19 20q-9 -17 -28 -36q-53 -53 -127 -53h-33v76h33q43 0 73 30q32 32 32 75v149h76v-116q6 -53 45 -92q48 -48 115 -48q66 0 113 48q47 47 47 113
v175h74v-175q0 -66 47 -113q48 -48 113 -48q67 0 115 48q47 47 47 113v237h74z" />
    <glyph glyph-name="sheenar.medi" unicode="&#x634;" horiz-adv-x="1104" arabic-form="medial" 
d="M552 796q24 0 41 -17t17 -40q0 -24 -17 -41t-41 -17q-23 0 -40 17t-17 41q0 23 17 40t40 17zM477 662q24 0 41 -17t17 -40q0 -24 -17 -41t-41 -17q-23 0 -40 17t-17 41q0 23 17 40t40 17zM635 662q24 0 41 -17t17 -40q0 -24 -17 -41t-41 -17q-23 0 -40 17t-17 41
q0 23 17 40t40 17zM986 471v-290q0 -45 30 -75t74 -30h34v-76h-34q-74 0 -127 53q-16 16 -29 37l-19 -21q-63 -69 -167 -69q-126 0 -197 107q-69 -107 -197 -107q-98 0 -167 69q-7 6 -19 20q-9 -17 -28 -36q-53 -53 -127 -53h-33v76h33q43 0 73 30q32 32 32 75v149h76v-116
q6 -53 45 -92q48 -48 115 -48q66 0 113 48q47 47 47 113v175h75v-175q0 -67 46 -113q48 -48 113 -48q67 0 115 48q47 47 47 113v237z" />
    <glyph glyph-name="sadar.fina" unicode="&#x635;" horiz-adv-x="1448" arabic-form="final" 
d="M1252 446q68 -30 105 -94q38 -66 30 -143q-7 -76 -61 -133h143v-76h-739q-83 0 -151 65q-10 -88 -77 -156q-79 -79 -192 -79q-112 0 -191 79t-79 192v227h74v-227q0 -81 57 -138q58 -58 139 -58q83 0 140 58q57 57 57 138v227h75v-95q0 -66 46 -112q38 -39 90 -45h7
q-19 57 3 132q45 146 215 223q169 77 309 15zM1192 389q-96 34 -228 -22q-122 -52 -164 -174q-21 -62 -2 -117h328q111 0 161 68q44 62 17 137q-29 80 -112 108z" />
    <glyph glyph-name="sadar.init" unicode="&#x635;" horiz-adv-x="996" arabic-form="initial" 
d="M817 446q68 -30 105 -94q66 -112 4 -228q-64 -124 -235 -124h-395q-73 0 -126 53q-6 5 -16 17l-15 -17q-47 -53 -126 -53h-33v76h33q41 0 73 30q31 30 31 74v227h75v-227q0 -44 30 -74q28 -28 68 -30q-20 57 3 132q45 147 216 223q169 76 308 15zM757 389
q-96 34 -228 -22q-124 -53 -164 -174q-21 -61 -1 -117h327q111 0 161 68q44 62 17 137q-29 80 -112 108z" />
    <glyph glyph-name="sadar.medi" unicode="&#x635;" horiz-adv-x="1014" arabic-form="medial" 
d="M818 446q67 -30 104 -94q38 -68 31 -143q-7 -77 -62 -133h142v-76h-317v1q-9 -1 -25 -1h-395q-73 0 -126 53q-6 5 -16 17l-15 -17q-47 -53 -126 -53h-33v76h33q41 0 73 30q31 30 31 74v227h75v-227q0 -44 30 -74q28 -28 68 -30q-20 57 3 132q45 147 216 223
q169 77 309 15zM757 389q-96 34 -228 -22q-124 -53 -164 -174q-21 -61 -1 -117h327q111 0 161 68q44 62 17 137q-29 80 -112 108z" />
    <glyph glyph-name="dadar.fina" unicode="&#x636;" horiz-adv-x="1448" arabic-form="final" 
d="M1097 692q23 0 40 -17q16 -16 16 -39q0 -24 -16 -40q-17 -17 -40 -17t-40 17q-16 16 -16 40q0 23 16 39q17 17 40 17zM1252 446q68 -30 105 -94q38 -66 30 -143q-7 -76 -61 -133h143v-76h-739q-83 0 -151 65q-10 -88 -77 -156q-79 -79 -192 -79q-112 0 -191 79t-79 192
v227h74v-227q0 -81 57 -138q58 -58 139 -58q83 0 140 58q57 57 57 138v227h75v-95q0 -66 46 -112q38 -39 90 -45h7q-19 57 3 132q45 146 215 223q169 77 309 15zM1192 389q-96 34 -228 -22q-122 -52 -164 -174q-21 -62 -2 -117h328q111 0 161 68q44 62 17 137
q-29 80 -112 108z" />
    <glyph glyph-name="dadar.init" unicode="&#x636;" horiz-adv-x="996" arabic-form="initial" 
d="M684 692q23 0 40 -17q16 -16 16 -39q0 -24 -16 -40q-17 -17 -40 -17t-40 17q-16 16 -16 40q0 23 16 39q17 17 40 17zM817 446q68 -30 105 -94q66 -112 4 -228q-64 -124 -235 -124h-395q-73 0 -126 53q-6 5 -16 17l-15 -17q-47 -53 -126 -53h-33v76h33q41 0 73 30
q31 30 31 74v227h75v-227q0 -44 30 -74q28 -28 68 -30q-20 57 3 132q45 147 216 223q169 76 308 15zM757 389q-96 34 -228 -22q-124 -53 -164 -174q-21 -61 -1 -117h327q111 0 161 68q44 62 17 137q-29 80 -112 108z" />
    <glyph glyph-name="dadar.medi" unicode="&#x636;" horiz-adv-x="1014" arabic-form="medial" 
d="M684 692q23 0 40 -17q16 -16 16 -39q0 -24 -16 -40q-17 -17 -40 -17t-40 17q-16 16 -16 40q0 23 16 39q17 17 40 17zM818 446q67 -30 104 -94q38 -68 31 -143q-7 -77 -62 -133h142v-76h-317v1q-9 -1 -25 -1h-395q-73 0 -126 53q-6 5 -16 17l-15 -17q-47 -53 -126 -53h-33
v76h33q41 0 73 30q31 30 31 74v227h75v-227q0 -44 30 -74q28 -28 68 -30q-20 57 3 132q45 147 216 223q169 77 309 15zM757 389q-96 34 -228 -22q-124 -53 -164 -174q-21 -61 -1 -117h327q111 0 161 68q44 62 17 137q-29 80 -112 108z" />
    <glyph glyph-name="tahar.fina" unicode="&#x637;" horiz-adv-x="838" arabic-form="final" 
d="M166 926v-602q85 98 222 139q139 40 250 -8q70 -30 108 -96q38 -67 31 -146q-9 -80 -63 -137h144v-76h-818v76h49v850h77zM577 396q-101 35 -233 -22q-123 -52 -167 -177q-11 -33 -11 -52v-23q0 -21 10 -46h334q111 0 163 70q46 64 18 140q-29 80 -114 110z" />
    <glyph glyph-name="tahar.init" unicode="&#x637;" horiz-adv-x="792" arabic-form="initial" 
d="M137 926v-602q83 98 221 139q139 40 251 -8q69 -29 107 -96q67 -115 5 -233q-67 -126 -240 -126h-501v76h80v850h77zM548 396q-101 35 -234 -22q-126 -53 -167 -177q-10 -30 -10 -52v-23q0 -19 9 -46h335q111 0 163 70q46 64 18 140q-29 80 -114 110z" />
    <glyph glyph-name="tahar.medi" unicode="&#x637;" horiz-adv-x="808" arabic-form="medial" 
d="M137 926v-602q83 98 221 139q139 40 251 -8q70 -30 107 -96q38 -67 31 -146q-8 -80 -63 -137h144v-76h-848v76h80v850h77zM547 396q-101 35 -233 -22q-124 -52 -167 -177q-10 -30 -10 -52v-23q0 -19 9 -46h335q111 0 163 70q46 64 18 140q-29 80 -115 110z" />
    <glyph glyph-name="zahar.fina" unicode="&#x638;" horiz-adv-x="838" arabic-form="final" 
d="M166 926v-602q85 98 222 139q139 40 250 -8q70 -30 108 -96q38 -67 31 -146q-9 -80 -63 -137h144v-76h-818v76h49v850h77zM483 692q23 0 40 -17q16 -16 16 -39q0 -24 -16 -40q-17 -17 -40 -17t-40 17q-16 16 -16 40q0 23 16 39q17 17 40 17zM577 396q-101 35 -233 -22
q-123 -52 -167 -177q-11 -33 -11 -52v-23q0 -21 10 -46h334q111 0 163 70q46 64 18 140q-29 80 -114 110z" />
    <glyph glyph-name="zahar.init" unicode="&#x638;" horiz-adv-x="792" arabic-form="initial" 
d="M137 926v-602q83 98 221 139q139 40 251 -8q69 -29 107 -96q67 -115 5 -233q-67 -126 -240 -126h-501v76h80v850h77zM483 692q23 0 40 -17q16 -16 16 -39q0 -24 -16 -40q-17 -17 -40 -17t-40 17q-16 16 -16 40q0 23 16 39q17 17 40 17zM548 396q-101 35 -234 -22
q-126 -53 -167 -177q-10 -30 -10 -52v-23q0 -19 9 -46h335q111 0 163 70q46 64 18 140q-29 80 -114 110z" />
    <glyph glyph-name="zahar.medi" unicode="&#x638;" horiz-adv-x="808" arabic-form="medial" 
d="M137 926v-602q83 98 221 139q139 40 251 -8q70 -30 107 -96q38 -67 31 -146q-8 -80 -63 -137h144v-76h-848v76h80v850h77zM483 692q23 0 40 -17q16 -16 16 -39q0 -24 -16 -40q-17 -17 -40 -17t-40 17q-16 16 -16 40q0 23 16 39q17 17 40 17zM547 396q-101 35 -233 -22
q-124 -52 -167 -177q-10 -30 -10 -52v-23q0 -19 9 -46h335q111 0 163 70q46 64 18 140q-29 80 -115 110z" />
    <glyph glyph-name="ainar.fina" unicode="&#x639;" horiz-adv-x="724" arabic-form="final" 
d="M418 468h22q151 0 224 -112h-102q-50 38 -122 38h-22q-81 0 -136 -50q-48 -44 -53 -109t42 -110q50 -49 147 -49h325v-76h-628q-7 -22 0 -45q9 -27 36 -31l110 -20l-17 -74l-124 27q-44 9 -65 56q-15 34 -15 87l-1 76h174q-45 47 -56 116q-9 68 18 129q28 64 89 104
q66 43 154 43z" />
    <glyph glyph-name="ainar.init" unicode="&#x639;" horiz-adv-x="608" arabic-form="initial" 
d="M348 469q153 -8 221 -113h-101q-64 49 -163 37q-98 -12 -142 -77q-54 -78 -14 -156q43 -84 174 -84h245v-76h-588v76h138q-58 61 -58 149q0 86 56 154q81 97 232 90z" />
    <glyph glyph-name="ainar.medi" unicode="&#x639;" horiz-adv-x="629" arabic-form="medial" 
d="M324 468h21q151 0 224 -112h-101q-52 38 -123 38h-21q-83 0 -136 -50q-48 -44 -53 -109q-5 -66 41 -110q52 -49 147 -49h326v-76h-669v76h139q-46 48 -57 116q-9 66 19 129q30 66 88 104q68 43 155 43z" />
    <glyph glyph-name="ghainar.fina" unicode="&#x63a;" horiz-adv-x="724" arabic-form="final" 
d="M422 678q23 0 39 -16q17 -17 17 -40t-17 -40q-16 -16 -39 -16q-24 0 -40 16q-17 17 -17 40t17 40q16 16 40 16zM418 468h22q151 0 224 -112h-102q-50 38 -122 38h-22q-81 0 -136 -50q-48 -44 -53 -109t42 -110q50 -49 147 -49h325v-76h-628q-7 -22 0 -45q9 -27 36 -31
l110 -20l-17 -74l-124 27q-44 9 -65 56q-15 34 -15 87l-1 76h174q-45 47 -56 116q-9 68 18 129q28 64 89 104q66 43 154 43z" />
    <glyph glyph-name="ghainar.init" unicode="&#x63a;" horiz-adv-x="608" arabic-form="initial" 
d="M325 678q23 0 39 -16q17 -17 17 -40t-17 -40q-16 -16 -39 -16q-24 0 -40 16q-17 17 -17 40t17 40q16 16 40 16zM348 469q153 -8 221 -113h-101q-64 49 -163 37q-98 -12 -142 -77q-54 -78 -14 -156q43 -84 174 -84h245v-76h-588v76h138q-58 61 -58 149q0 86 56 154
q81 97 232 90z" />
    <glyph glyph-name="ghainar.medi" unicode="&#x63a;" horiz-adv-x="629" arabic-form="medial" 
d="M325 678q23 0 39 -16q17 -17 17 -40t-17 -40q-16 -16 -39 -16q-24 0 -40 16q-17 17 -17 40t17 40q16 16 40 16zM324 468h21q151 0 224 -112h-101q-52 38 -123 38h-21q-83 0 -136 -50q-48 -44 -53 -109q-5 -66 41 -110q52 -49 147 -49h326v-76h-669v76h139q-46 48 -57 116
q-9 66 19 129q30 66 88 104q68 43 155 43z" />
    <glyph glyph-name="fehar.fina" unicode="&#x641;" horiz-adv-x="1257" arabic-form="final" 
d="M923 678q23 0 39.5 -16.5t16.5 -39.5t-17 -40q-16 -16 -39 -16q-24 0 -40.5 16.5t-16.5 39.5t16.5 39.5t40.5 16.5zM886 472q86 8 153 -18q38 -15 70 -41q30 -24 49 -54q45 -63 39.5 -145t-59.5 -138h139v-76h-1058q-74 0 -126.5 52.5t-52.5 126.5h75q0 -44 31 -73
q29 -31 73 -31l483 1q-54 55 -59 136t39 147q20 32 49 55q61 52 155 58zM930 398h-21q-81 0 -133.5 -46.5t-57.5 -114.5q-5 -69 46 -115t145 -46h22q93 0 144.5 46.5t46.5 114.5t-58 114.5t-134 46.5z" />
    <glyph glyph-name="fehar.init" unicode="&#x641;" horiz-adv-x="654" arabic-form="initial" 
d="M332 678q23 0 39 -16q17 -17 17 -40t-17 -40q-16 -16 -39 -16q-24 0 -40 16q-17 17 -17 40t17 40q16 16 40 16zM372 472q90 -6 155 -59q28 -23 48 -54q43 -70 39 -146q-4 -80 -58 -137q-70 -76 -202 -76h-374v76h140q-55 56 -59 137q-4 79 39 146q25 37 48 55
q60 52 156 58q30 2 68 0zM348 398h-21q-83 0 -138 -51q-48 -44 -53 -110q-4 -64 42 -110q54 -51 149 -51h21q96 0 149 51q47 44 43 110q-5 65 -54 110q-54 51 -138 51z" />
    <glyph glyph-name="fehar.medi" unicode="&#x641;" horiz-adv-x="673" arabic-form="medial" 
d="M332 678q23 0 39 -16q17 -17 17 -40t-17 -40q-16 -16 -39 -16q-24 0 -40 16q-17 17 -17 40t17 40q16 16 40 16zM370 472q88 -6 155 -59q29 -23 49 -54q44 -64 39 -146q-4 -81 -59 -137h139v-76h-713v76h138q-55 56 -59 137q-4 79 39 146q20 32 49 55q62 52 155 58
q34 3 68 0zM346 398h-21q-83 0 -137 -51q-49 -45 -54 -110q-5 -66 42 -110q52 -51 149 -51h22q97 0 149 51q47 44 42 110q-5 65 -54 110q-54 51 -138 51z" />
    <glyph glyph-name="qafar.fina" unicode="&#x642;" horiz-adv-x="995" arabic-form="final" 
d="M597 662q24 0 41 -17t17 -40q0 -24 -17 -41t-41 -17q-23 0 -40 17t-17 41q0 23 17 40t40 17zM755 662q24 0 41 -17t17 -40q0 -24 -17 -41t-41 -17q-23 0 -40 17t-17 41q0 23 17 40t40 17zM626 472q90 6 153 -16q37 -14 69 -42l20 -18q16 -17 29 -37q31 -51 38 -100v-183
h80v-76h-80q-5 -70 -57 -120t-124 -50h-535q-74 0 -126.5 52.5t-52.5 126.5h75q0 -44 31 -73q29 -31 73 -31l535 1q41 0 71 28t33 66h-220q-119 0 -196 76q-54 54 -59 138q-4 78 39 145q3 3 4 5q2 4 3 5q0 1 4 5.5t6 7.5q1 2 13 14l19 18q53 51 155 58zM671 399h-22
q-81 0 -134 -48t-57 -114q-5 -69 46 -115t145 -46h212v161q0 61 -53 111q-54 51 -137 51z" />
    <glyph glyph-name="qafar.init" unicode="&#x642;" horiz-adv-x="654" arabic-form="initial" 
d="M252 662q24 0 41 -17t17 -40q0 -24 -17 -41t-41 -17q-23 0 -40 17t-17 41q0 23 17 40t40 17zM410 662q24 0 41 -17t17 -40q0 -24 -17 -41t-41 -17q-23 0 -40 17t-17 41q0 23 17 40t40 17zM372 472q90 -6 155 -59q28 -23 48 -54q43 -70 39 -146q-4 -80 -58 -137
q-70 -76 -202 -76h-374v76h140q-55 56 -59 137q-4 79 39 146q25 37 48 55q60 52 156 58q30 2 68 0zM348 398h-21q-83 0 -138 -51q-48 -44 -53 -110q-4 -64 42 -110q54 -51 149 -51h21q96 0 149 51q47 44 43 110q-5 65 -54 110q-54 51 -138 51z" />
    <glyph glyph-name="qafar.medi" unicode="&#x642;" horiz-adv-x="673" arabic-form="medial" 
d="M252 662q24 0 41 -17t17 -40q0 -24 -17 -41t-41 -17q-23 0 -40 17t-17 41q0 23 17 40t40 17zM410 662q24 0 41 -17t17 -40q0 -24 -17 -41t-41 -17q-23 0 -40 17t-17 41q0 23 17 40t40 17zM370 472q88 -6 155 -59q29 -23 49 -54q44 -64 39 -146q-4 -81 -59 -137h139v-76
h-713v76h138q-55 56 -59 137q-4 79 39 146q20 32 49 55q62 52 155 58q34 3 68 0zM346 398h-21q-83 0 -137 -51q-49 -45 -54 -110q-5 -66 42 -110q52 -51 149 -51h22q97 0 149 51q47 44 42 110q-5 65 -54 110q-54 51 -138 51z" />
    <glyph glyph-name="kafar.fina" unicode="&#x643;" horiz-adv-x="998" arabic-form="final" 
d="M938 917v-736q0 -62 -34 -105h114v-76h-799q-74 0 -126.5 52.5t-52.5 126.5h75q0 -44 31 -73q29 -31 73 -31l538 1q43 0 74 30.5t31 74.5v736h76zM553 566v-44q-82 13 -103 -32q-13 -26 2 -54t50 -37h59v-43h-175v43h31q-26 48 -22 88t46.5 63t111.5 16z" />
    <glyph glyph-name="kafar.init" unicode="&#x643;" horiz-adv-x="1195" arabic-form="initial" 
d="M633 841l-381 -288h629q114 0 194 -80q80 -82 80 -194q0 -114 -81 -196q-81 -83 -193 -83h-901v76h901q81 0 139 61q59 62 59 142q0 83 -58 141q-59 59 -140 59h-762v74l10 6l507 359z" />
    <glyph glyph-name="kafar.medi" unicode="&#x643;" horiz-adv-x="1212" arabic-form="medial" 
d="M633 841l-381 -288h626q114 0 194 -80q80 -82 80 -194q0 -119 -89 -203h169v-76h-1252v76h898q81 0 139 61q59 62 59 142q0 83 -58 141q-59 59 -140 59h-759v74l10 6l507 359z" />
    <glyph glyph-name="lamar.fina" unicode="&#x644;" horiz-adv-x="644" arabic-form="final" 
d="M584 911v-809q0 -17 -1 -26h81v-76h-99q-20 -50 -62 -91q-79 -79 -192 -79t-192 79t-79 193v90h74v-90q0 -81 58 -139q59 -59 139 -59q83 0 140 59q58 58 58 139v809h75z" />
    <glyph glyph-name="lamar.init" unicode="&#x644;" horiz-adv-x="233" arabic-form="initial" 
d="M194 911v-731q0 -74 -53 -127q-55 -53 -127 -53h-34v76h34q42 0 73 30q31 31 31 74v731h76z" />
    <glyph glyph-name="lamar.medi" unicode="&#x644;" horiz-adv-x="310" arabic-form="medial" 
d="M193 911v-731q0 -43 31 -74q32 -30 74 -30h32v-76h-32q-81 0 -128 53l-15 17l-16 -17q-50 -53 -126 -53h-33v76h33q43 0 73 30q32 32 32 74v731h75z" />
    <glyph glyph-name="meemar.fina" unicode="&#x645;" horiz-adv-x="712" arabic-form="final" 
d="M423 461q96 0 163.5 -67.5t67.5 -162.5h-1v-155h79v-76h-309q-90 0 -158 64q-10 -100 -100 -192q-20 -19 -51 -40l-74 43q36 17 67 47q80 77 86 187v122q0 94 68 162t162 68zM423 387q-62 0 -108.5 -46.5t-46.5 -109.5v-1q0 -64 45 -110q48 -47 110 -42h155v153
q0 65 -45 109q-45 47 -110 47z" />
    <glyph glyph-name="meemar.init" unicode="&#x645;" horiz-adv-x="573" arabic-form="initial" 
d="M463 405q71 -69 71 -165v-240h-239q-84 0 -150 55l-7 6v-61h-158v76h143q-44 47 -58 115q-19 155 94 237q61 45 138 45q96 0 166 -68zM459 78v161q0 64 -49 111q-46 46 -114 46q-69 0 -115 -46q-48 -46 -48 -113q0 -65 47 -112q49 -47 115 -47h164z" />
    <glyph glyph-name="meemar.medi" unicode="&#x645;" horiz-adv-x="592" arabic-form="medial" 
d="M612 76v-76h-317q-84 0 -150 55l-7 6v-61h-158v76h143q-44 47 -58 115q-19 155 94 237q61 45 138 45q96 0 166 -68q71 -69 71 -165v-164h78zM459 78v161q0 64 -49 111q-46 46 -114 46q-69 0 -115 -46q-48 -46 -48 -113q0 -65 47 -112q49 -47 115 -47h164z" />
    <glyph glyph-name="noonar.fina" unicode="&#x646;" horiz-adv-x="707" arabic-form="final" 
d="M331 630q23 0 40 -17q16 -16 16 -40t-16 -40q-17 -17 -40 -17q-24 0 -41 17q-16 16 -16 40t16 40q17 17 41 17zM588 474v-371q0 -18 -1 -27h140v-76h-158q-20 -51 -61 -92q-79 -80 -195 -80q-113 0 -193 80t-80 195v229h75v-229q0 -83 58 -141t140 -58q84 0 142 58
t58 141v371h75z" />
    <glyph glyph-name="noonar.init" unicode="&#x646;" horiz-adv-x="254" arabic-form="initial" 
d="M156 677q23 0 40 -17q18 -16 18 -41q0 -23 -18 -40q-17 -17 -40 -17q-22 0 -41 17q-16 16 -16 40q0 25 16 41q19 17 41 17zM196 476v-293q0 -75 -54 -129t-129 -54h-33v76h33q44 0 75 31t31 76v293h77z" />
    <glyph glyph-name="noonar.medi" unicode="&#x646;" horiz-adv-x="316" arabic-form="medial" 
d="M154 669q24 0 41 -17q16 -16 16 -41q0 -24 -16 -40q-17 -17 -41 -17q-23 0 -40 17t-17 40q0 24 17 41t40 17zM196 476v-293q0 -45 31 -76q32 -31 76 -31h33v-76h-33q-79 0 -130 54l-15 16l-15 -16q-51 -54 -129 -54h-34v76h34q44 0 75 31t31 76v293h76z" />
    <glyph glyph-name="hehar.fina" unicode="&#x647;" horiz-adv-x="658" arabic-form="final" 
d="M271 442q94 0 162 -68t68 -162v-103q0 -33 36 -33h141v-76h-154q-44 0 -72 28.5t-28 83.5v100q0 65 -45 110.5t-108 45.5q-65 0 -110 -47q-45 -43 -45 -109t45 -111t110 -45q40 0 73 18l34 -66q-48 -27 -107 -27q-97 0 -164 67t-67 164q0 95 67.5 162.5t163.5 67.5z" />
    <glyph glyph-name="hehar.init" unicode="&#x647;" horiz-adv-x="735" arabic-form="initial" 
d="M200 475h230q119 0 195 -74q67 -67 70 -163q3 -99 -62 -164q-71 -74 -203 -74h-450v76h139v133q0 69 48 125q47 54 115 66h-82v75zM430 400h-79q70 -12 116 -67q47 -56 47 -127q0 -72 -46 -127q78 11 120 63q37 48 33 109q-5 62 -52 103q-52 46 -139 46zM318 340
q-56 0 -96 -39q-40 -37 -40 -93v-132h161q48 9 79 46q32 38 32 85q0 55 -40 94t-96 39z" />
    <glyph glyph-name="hehar.medi" unicode="&#x647;" horiz-adv-x="815" arabic-form="medial" 
d="M200 475h230q89 0 155 -42q59 -38 89 -103q28 -60 20 -128q-7 -67 -52 -118q18 -8 42 -8h151v-76h-151q-56 0 -88 21l-18 12q-63 -33 -148 -33h-450v76h139v133q0 69 48 125q47 54 115 66h-82v75zM430 400h-78q70 -12 116 -67t46 -127q0 -73 -47 -129q78 11 120 63
q39 47 34 110q-4 61 -52 104q-52 46 -139 46zM318 339q-55 0 -96 -38q-40 -39 -40 -93v-132h154q51 8 84 42q34 37 34 89q0 53 -40 92q-40 40 -96 40z" />
    <glyph glyph-name="wawar.fina" unicode="&#x648;" horiz-adv-x="620" arabic-form="final" 
d="M271 461q94 0 162 -68q69 -69 69 -157v-160h139v-76h-139q-18 -35 -49 -66q-80 -80 -194 -80q-23 0 -44 3v77q17 -4 44 -4q84 0 142 58l6 6l1 2l4 4h-141q-97 0 -164 67t-67 164q0 95 67.5 162.5t163.5 67.5zM271 387q-65 0 -110 -47q-45 -44 -45 -109q0 -66 45 -111
q44 -44 110 -44h155v155q0 63 -46.5 109.5t-108.5 46.5z" />
    <glyph glyph-name="alefMaksuraar.fina" unicode="&#x649;" horiz-adv-x="1099" arabic-form="final" 
d="M218 146l-3 -84q-59 -26 -68 -32q-43 -28 -28 -77t67 -49h663q22 5 36 19q17 17 20 41q4 29 -19 50t-72 32l-115 27l42 63q63 -13 131 -32q41 -13 62 -28h185v-76h-140q9 -62 -30 -115q-42 -57 -113 -57h-651q-48 0 -90 33q-55 46 -55 111q0 69 58 112q22 17 120 62z" />
    <glyph glyph-name="yehar.fina" unicode="&#x64a;" horiz-adv-x="1099" arabic-form="final" 
d="M218 146l-3 -84q-59 -26 -68 -32q-43 -28 -28 -77t67 -49h663q22 5 36 19q17 17 20 41q4 29 -19 50t-72 32l-115 27l42 63q63 -13 131 -32q41 -13 62 -28h185v-76h-140q9 -62 -30 -115q-42 -57 -113 -57h-651q-48 0 -90 33q-55 46 -55 111q0 69 58 112q22 17 120 62z
M431 -253q24 0 41 -17t17 -40q0 -24 -17 -41t-41 -17q-23 0 -40 17t-17 41q0 23 17 40t40 17zM589 -253q24 0 41 -17t17 -40q0 -24 -17 -41t-41 -17q-23 0 -40 17t-17 41q0 23 17 40t40 17z" />
    <glyph glyph-name="yehar.init" unicode="&#x64a;" horiz-adv-x="356" arabic-form="initial" 
d="M316 476v-293q0 -75 -54 -129t-129 -54h-153v76h153q44 0 75 31t31 76v293h77zM75 -110q24 0 41 -17t17 -40q0 -24 -17 -41t-41 -17q-23 0 -40 17t-17 41q0 23 17 40t40 17zM233 -110q24 0 41 -17t17 -40q0 -24 -17 -41t-41 -17q-23 0 -40 17t-17 41q0 23 17 40t40 17z
" />
    <glyph glyph-name="yehar.medi" unicode="&#x64a;" horiz-adv-x="380" arabic-form="medial" 
d="M260 476v-293q0 -45 31 -76q32 -31 76 -31h33v-76h-33q-79 0 -130 54l-15 16l-15 -16q-51 -54 -129 -54h-98v76h98q44 0 75 31t31 76v293h76zM143 -110q24 0 41 -17t17 -40q0 -24 -17 -41t-41 -17q-23 0 -40 17t-17 41q0 23 17 40t40 17zM301 -110q24 0 41 -17t17 -40
q0 -24 -17 -41t-41 -17q-23 0 -40 17t-17 41q0 23 17 40t40 17z" />
    <glyph glyph-name=".notdef" horiz-adv-x="897" 
d="M448 997h9q7 -1 12 -1h1q154 0 274 -126q113 -119 113 -282v-3q0 -11 -1 -16v-11q-1 -5 -1 -8q-1 -2 -1.5 -6.5t-0.5 -6.5v-5l-2 -15q0 -1 -1 -2q-20 -106 -88 -188l-39 40q79 97 79 222q0 147 -104 251t-251 104t-251 -104t-104 -251q0 -126 80 -224l-38 -38
q-67 82 -87 187q0 2 -1 3l-2 15q0 2 -1 5q-1 5 -1 13q0 5 -1 8q0 9 -1 11v19q0 169 120 289t288 120zM447 936q143 0 245 -102q101 -101 101 -245q0 -122 -76 -216l-42 42q59 77 59 174q0 119 -84 203q-84 85 -203 85t-203 -85q-84 -84 -84 -203q0 -98 60 -176l-41 -42
q-78 96 -78 218q0 144 101 245q102 102 245 102zM447 868q115 0 197 -82q82 -81 82 -197q0 -95 -57 -168l-45 45q40 55 40 125q0 90 -64 154q-64 63 -154 63t-153 -63q-64 -64 -64 -154q0 -71 42 -128l-45 -44q-58 74 -58 170q0 116 82 197q82 82 197 82zM446 692
q40 0 68 -28t28 -68q0 -38 -27 -67l245 -263h-623l242 260q-30 28 -30 70q0 39 29 68q28 28 68 28zM187 164h22v3q0 17 12 29t29 12t29 -12t12 -29v-3h68l-42 23q1 2 4.5 8.5t6.5 11.5v-1l18 -10l17 -9l22 -13h1v-32h-104q-12 -16 -32 -16t-33 16h-52v82h22v-60zM460 224
v-20q7 4 18 4h61v-66h-112v22h11v60h22zM654 224v-20q8 4 18 4h62v-44h70q-7 5 -21 11l-21 12q1 4 6 10l5 9l25 -12q5 -4 10 -7l11 -7l12 -6v-1v-31h-227q-12 -23 -38 -23h-3v22h3q6 0 11 3q-13 4 -20 17q-5 8 -3 17q3 26 30 30h26v-44h22v60h22zM810 207h-16v17h16v-17z
M111 207q18 0 30 -12q13 -13 13 -31q0 -13 -8 -24h-70q-8 11 -8 24q0 18 13 31q12 12 30 12zM111 185q-20 0 -20 -21v-1h40l1 1q0 21 -21 21zM250 185q-18 0 -18 -18t18 -18t18 18t-18 18zM517 185h-38q-18 0 -18 -18v-3h56v21zM589 164v21q-14 -2 -14 -10q0 -9 14 -11z
M711 185h-38q-18 0 -18 -18q0 -2 1 -3h55v21zM566 109v-16q-6 0 -6 -4v-16h6v-15h-6v-40h6v-15h-27v55h-6v15h6v26q0 17 27 10zM87 110q10 -3 10 -11v-34q7 9 22 9q25 0 25 -25v-31h7v-15h-27v43q0 12 -13 12q-14 -2 -14 -12v-28h7v-15h-27v86q0 5 -7 4v16q7 3 17 1z
M444 110q10 -3 10 -11v-34q8 9 22 9q25 0 25 -25v-31h7v-15h-27v43q0 12 -14 12q-13 -1 -13 -12v-28h7v-15h-27v86q0 5 -7 4v16q7 3 17 1zM749 73h13v-15h-13v-36q0 -5 7 -4v-15q-6 -4 -17 -2q-10 3 -10 11v71h-7v15h27v-25zM321 74q26 0 26 -25v-31h6v-15h-26v43
q0 12 -14 12q-13 -1 -13 -11v-29h7v-15h-27v43q0 14 -14 12q-13 -1 -13 -12v-28h6v-15h-27v51q0 4 -6 4v15q25 7 25 -10q6 11 23 11q15 0 23 -11q8 12 24 11zM690 74q25 0 25 -25v-31h7v-15h-27v43q0 12 -13 12q-13 -1 -13 -12v-28h6v-15h-27v50q0 5 -6 5v15q25 7 25 -10
q6 11 23 11zM177 74q14 0 22 -8v7h25v-15h-6v-36q0 -5 6 -5v-14q-6 -4 -15 -2q-10 3 -10 11q0 -11 -22 -11q-26 2 -26 26v22q0 25 26 25zM379 74q14 0 22 -8v7h25v-15h-6v-36q0 -5 6 -5v-14q-6 -4 -15 -2q-10 3 -10 11q0 -11 -22 -11q-26 2 -26 26v22q0 25 26 25zM605 74
q37 0 37 -36q-1 -36 -37 -37q-19 -1 -28 8.5t-9 28.5q0 36 37 36zM794 74q27 0 27 -15v-8h-17q0 8 -9 8q-5 0 -7.5 -1.5t-1.5 -3.5q0 -5 19 -12t19 -20q0 -21 -31 -21q-28 0 -30 17v7h17q0 -10 13 -10q11 0 11 7q0 5 -19 12t-19 20q0 20 28 20zM186 58q-14 0 -14 -13v-15
q0 -13 13 -12q14 0 14 12v15q0 12 -13 13zM388 58q-14 0 -14 -13v-15q0 -14 14 -12q13 0 13 12v15q0 12 -13 13zM605 58q-17 0 -17 -20q0 -21 17 -21t17 21q0 20 -17 20z" />
    <glyph glyph-name=".null" horiz-adv-x="0" 
 />
    <glyph glyph-name="nonmarkingreturn" horiz-adv-x="500" 
 />
    <glyph glyph-name="CR" unicode="&#xd;" horiz-adv-x="500" 
 />
    <glyph glyph-name="space" unicode=" " horiz-adv-x="226" 
 />
    <glyph glyph-name="exclam" unicode="!" horiz-adv-x="173" 
d="M124 230h-75v681h75v-681zM124 0h-75v113h75v-113z" />
    <glyph glyph-name="quotedbl" unicode="&#x22;" horiz-adv-x="289" 
d="M123 681h-74v230h74v-230zM241 681h-74v230h74v-230z" />
    <glyph glyph-name="numbersign" unicode="#" horiz-adv-x="511" 
d="M409 911l-28 -327q-3 -15 12 -15h69l-6 -74h-69q-15 0 -16 -15l-4 -48q-1 -15 12 -15h70l-6 -75h-70q-13 0 -15 -14l-28 -328h-76l29 328q0 14 -13 14h-49q-13 0 -15 -14l-30 -328h-74l28 328q2 14 -12 14h-69l6 75h69q14 0 16 15l3 48q3 15 -12 15h-69l6 74h69
q15 0 16 15l28 327h76l-30 -327q0 -15 14 -15h48q15 0 16 15l29 327h75zM283 495h-48q-15 0 -16 -15l-5 -48q0 -15 13 -15h49q14 0 16 15l5 48q0 15 -14 15z" />
    <glyph glyph-name="dollar" unicode="$" 
d="M320 985v-54q0 -14 13 -17q79 -16 133 -81q52 -64 52 -147v-56h-75v56q0 51 -30.5 92.5t-79.5 58.5q-13 5 -13 -10v-333q0 -14 13 -20l34 -16q69 -32 110 -95t41 -138q0 -85 -52 -147q-55 -66 -133 -82q-13 -2 -13 -17v-53h-76v55q0 13 -13 17q-79 18 -130 81
q-52 64 -52 146v56h75v-56q0 -51 30 -92.5t77 -57.5q13 -4 13 10v332q0 16 -12 21l-33 14q-68 30 -109 94t-41 140q0 81 52 145q54 64 130 82q13 4 13 17v55h76zM231 835q-47 -15 -77 -56.5t-30 -92.5q0 -54 29.5 -98.5t77.5 -67.5q13 -9 13 8v298q0 15 -13 9zM337 390l-4 2
q-13 3 -13 -9v-299q0 -15 13 -10q48 16 79 58t31 93q0 54 -29 98.5t-77 66.5z" />
    <glyph glyph-name="percent" unicode="%" horiz-adv-x="539" 
d="M168 919q50 0 85.5 -35.5t35.5 -85.5t-35.5 -85.5t-85.5 -35.5q-49 0 -85 36t-36 85q0 50 35.5 85.5t85.5 35.5zM123 0h-74l367 911h75zM168 844q-19 0 -32 -13.5t-13 -32.5t13 -32t32 -13t32.5 13t13.5 32t-13.5 32.5t-32.5 13.5zM371 232q50 0 85 -35t35 -85t-35 -86
t-85 -36t-86 36t-36 86t36 85t86 35zM371 157q-19 0 -32.5 -13t-13.5 -32q0 -20 13.5 -33t32.5 -13q18 0 31.5 13.5t13.5 32.5t-13.5 32t-31.5 13z" />
    <glyph glyph-name="ampersand" unicode="&#x26;" horiz-adv-x="692" 
d="M283 919q95 0 166 -69q69 -69 69 -164q0 -75 -41 -138.5t-110 -95.5l-45 -20q-12 -6 -2 -15l153 -125q10 -9 16 5l28 61q13 31 13 59v75h74v-75q0 -51 -19 -92l-35 -78q-6 -13 4 -22l20 -16q69 -57 69 -145v-64h-75v64q0 55 -41 87l-4 3q-9 9 -16 -4l-10 -20
q-31 -63 -88.5 -101t-125.5 -38q-98 0 -166 69q-68 68 -68 165q0 132 112 208q12 9 0 18q-112 90 -112 235q0 96 68 164q69 69 166 69zM283 845q-64 0 -113 -47q-46 -48 -46 -112q0 -110 84 -178l25 -20q14 -9 25 -4l79 36q48 23 77 67.5t29 98.5q0 64 -48 112
q-47 47 -112 47zM220 384q-96 -50 -96 -159q0 -67 46 -113t113 -46q48 0 87.5 26t58.5 70q2 5 5.5 12.5t6 13.5t5.5 11q6 14 -5 22l-198 162q-11 9 -23 1z" />
    <glyph glyph-name="quotesingle" unicode="'" horiz-adv-x="173" 
d="M124 681h-75v230h75v-230z" />
    <glyph glyph-name="parenleft" unicode="(" horiz-adv-x="331" 
d="M282 921v-76q-64 0 -113 -46q-46 -46 -46 -113v-461q0 -68 46 -113q46 -46 113 -46v-76q-97 0 -165 68q-68 69 -68 167v461q0 97 68 165q68 70 165 70z" />
    <glyph glyph-name="parenright" unicode=")" horiz-adv-x="331" 
d="M49 845v76q97 0 165 -70q68 -68 68 -165v-461q0 -97 -69 -167q-68 -68 -164 -68v76q66 0 112 46q47 47 47 113v461q0 68 -47 113q-48 46 -112 46z" />
    <glyph glyph-name="asterisk" unicode="*" horiz-adv-x="491" 
d="M377 608l-60 -102q-4 -12 8 -12h118v-76h-118q-13 0 -8 -12l60 -102l-66 -38l-58 102q-1 5 -7 5t-8 -5l-58 -102l-66 38l60 102q7 12 -7 12h-118v76h118q12 0 7 12l-60 102l66 36l58 -100q2 -5 8 -5t7 5l58 100z" />
    <glyph glyph-name="plus" unicode="+" horiz-adv-x="491" 
d="M283 653v-146q0 -13 14 -13h146v-76h-146q-14 0 -14 -14v-145h-75v145q0 14 -13 14h-146v76h146q13 0 13 13v146h75z" />
    <glyph glyph-name="comma" unicode="," horiz-adv-x="173" 
d="M124 0l-38 -74h-37l31 61q3 6 0.5 9.5t-8.5 3.5h-23v113h75v-113z" />
    <glyph glyph-name="hyphen" unicode="-" horiz-adv-x="490" 
d="M441 416h-392v75h392v-75z" />
    <glyph glyph-name="period" unicode="." horiz-adv-x="173" 
d="M124 0h-75v113h75v-113z" />
    <glyph glyph-name="slash" unicode="/" horiz-adv-x="440" 
d="M124 0h-75l267 911h76z" />
    <glyph glyph-name="zero" unicode="0" 
d="M283 921q94 0 166 -70q69 -69 69 -165v-465q0 -97 -69 -166q-68 -68 -166 -68t-166 68t-68 166v465q0 97 68 165q70 70 166 70zM283 845q-64 0 -113 -46q-46 -46 -46 -113v-465q0 -65 46 -113q49 -46 113 -46q66 0 112 46q48 46 48 113v465q0 68 -48 113q-46 46 -112 46z
" />
    <glyph glyph-name="one" unicode="1" 
d="M185 911h89q44 0 76 -32t32 -76v-803h-76v803q0 34 -32 34h-89v74z" />
    <glyph glyph-name="two" unicode="2" 
d="M285 921q95 0 164 -69q68 -68 68 -160q0 -79 -49 -140l-338 -427q-13 -17 -4 -33q11 -17 28 -17h364v-75h-364q-68 0 -94 60q-11 21 -11 46q0 38 23 65l337 427q32 43 32 95q0 62 -46 107q-44 45 -110 45q-65 0 -114 -46q-46 -46 -46 -113v-56h-75v56q0 97 68 165
q70 70 167 70z" />
    <glyph glyph-name="three" unicode="3" 
d="M283 921q94 0 166 -70q69 -69 69 -165v-35q0 -128 -108 -197q108 -70 108 -197v-36q0 -96 -69 -165q-67 -69 -166 -69q-96 0 -165 69t-69 165v60h75v-60q0 -66 46 -113q47 -46 113 -46t112 46q48 48 48 113v36q0 65 -48 111q-47 48 -112 48h-68v75h68q66 0 112 46
q48 48 48 114v35q0 68 -48 113q-46 46 -112 46q-64 0 -113 -46q-46 -46 -46 -113v-56h-75v56q0 97 68 165q70 70 166 70z" />
    <glyph glyph-name="four" unicode="4" 
d="M356 921q40 0 67.5 -27.5t27.5 -67.5v-532q0 -13 15 -13h51v-75h-51q-15 0 -15 -15v-191h-75v191q0 15 -14 15h-198q-62 0 -96 51q-18 27 -18 62q0 25 8 45l212 498q24 59 86 59zM361 844q-16 3 -22 -11l-211 -499q-8 -19 3.5 -36t32.5 -17h198q14 0 14 13v532
q0 16 -15 18z" />
    <glyph glyph-name="five" unicode="5" 
d="M480 835h-323q-33 0 -33 -32v-179q0 -34 33 -34h126q96 0 166 -70q69 -69 69 -164v-135q0 -96 -69 -165q-67 -69 -166 -69q-96 0 -165 69t-69 165v59h75v-59q0 -66 46 -113q47 -46 113 -46t112 46q48 48 48 113v135q0 66 -48 112q-47 48 -112 48h-126q-45 0 -76.5 31.5
t-31.5 76.5v179q0 44 31.5 76t76.5 32h323v-76z" />
    <glyph glyph-name="six" unicode="6" 
d="M480 835h-195q-68 0 -115 -47q-46 -46 -46 -113v-134q0 -14 11 -5q67 55 151 54q95 -1 164 -70q68 -68 68 -164v-135q0 -96 -69 -165q-67 -69 -166 -69q-96 0 -165 69t-69 165v454q0 97 69 166q69 70 167 70h195v-76zM286 516q-67 1 -115 -47q-47 -47 -47 -113v-135
q0 -66 46 -113q47 -46 113 -46t112 46q48 48 48 113v135q0 65 -47 112q-45 48 -110 48z" />
    <glyph glyph-name="seven" unicode="7" 
d="M157 911h253q44 0 76 -32t32 -76v-94q0 -83 -23 -158l-161 -551h-77l166 572q20 64 20 137v94q0 32 -33 32h-253q-33 0 -33 -32v-173h-75v173q0 44 31.5 76t76.5 32z" />
    <glyph glyph-name="eight" unicode="8" 
d="M283 921q94 0 166 -70q69 -69 69 -165v-35q0 -128 -108 -197q108 -70 108 -197v-36q0 -96 -69 -165q-67 -69 -166 -69q-96 0 -165 69t-69 165v36q0 127 108 197q-108 69 -108 197v35q0 97 68 165q70 70 166 70zM283 845q-64 0 -113 -46q-46 -46 -46 -113v-35
q0 -67 46 -114q47 -46 113 -46t112 46q48 48 48 114v35q0 68 -48 113q-46 46 -112 46zM283 416q-65 0 -113 -48q-46 -46 -46 -111v-36q0 -66 46 -113q47 -46 113 -46t112 46q48 48 48 113v36q0 65 -48 111q-47 48 -112 48z" />
    <glyph glyph-name="nine" unicode="9" 
d="M283 921q94 0 166 -70q69 -69 69 -165v-450q0 -96 -69 -167q-71 -69 -167 -69h-196v75h196q68 0 113 47q48 46 48 114v134q0 4 -4 6q-3 1 -7 -1q-67 -55 -151 -55q-96 1 -164 69q-68 70 -68 165v132q0 97 68 165q70 70 166 70zM283 845q-64 0 -113 -46q-46 -46 -46 -113
v-132q0 -65 46 -111q46 -47 111 -48q66 -1 114 45q48 48 48 114v132q0 68 -48 113q-46 46 -112 46z" />
    <glyph glyph-name="colon" unicode=":" horiz-adv-x="221" 
d="M148 289h-75v114h75v-114zM148 0h-75v113h75v-113z" />
    <glyph glyph-name="semicolon" unicode=";" horiz-adv-x="221" 
d="M148 309h-75v114h75v-114zM148 74l-37 -73h-38l32 61q5 12 -9 12h-23v113h75v-113z" />
    <glyph glyph-name="less" unicode="&#x3c;" horiz-adv-x="305" 
d="M257 911l-131 -445q-1 -4 -1 -10t1 -10l131 -446h-75l-133 456l133 455h75z" />
    <glyph glyph-name="equal" unicode="=" horiz-adv-x="491" 
d="M443 495h-394v74h394v-74zM443 342h-394v75h394v-75z" />
    <glyph glyph-name="greater" unicode="&#x3e;" horiz-adv-x="305" 
d="M257 456l-134 -456h-74l130 446q2 8 2 10t-2 10l-130 445h74z" />
    <glyph glyph-name="question" unicode="?" 
d="M283 921q94 0 166 -70q69 -69 69 -165v-71q0 -70 -39.5 -129t-105.5 -87q-52 -22 -52 -79v-87h-75v87q0 48 27 88.5t71 58.5q45 19 72 59.5t27 88.5v71q0 68 -48 113q-46 46 -112 46q-64 0 -113 -46q-46 -46 -46 -113v-56h-75v56q0 97 68 165q70 70 166 70zM321 0h-75
v113h75v-113z" />
    <glyph glyph-name="at" unicode="@" horiz-adv-x="1028" 
d="M514 921q192 0 329 -137q136 -136 136 -328v-103q0 -62 -46 -110q-47 -45 -110 -45q-95 0 -140 89q-1 8 -11 2q-69 -64 -158 -64q-97 0 -164 67t-67 164q0 95 67 162q68 68 164 68q94 0 162 -68t68 -162v-103q0 -33 23 -57t56 -24t56.5 24t23.5 57v103q0 162 -114 275
q-114 114 -275 114q-160 0 -276 -114q-114 -114 -114 -275q0 -160 114 -276q114 -114 276 -114h229v-75h-229q-193 0 -329 137q-136 136 -136 328t136 328q136 137 329 137zM514 612q-65 0 -110 -47q-45 -44 -45 -109q0 -66 45 -111t110 -45q64 0 110 45q45 47 45 110v1
q0 63 -46 109q-47 47 -109 47z" />
    <glyph glyph-name="A" unicode="A" horiz-adv-x="711" 
d="M356 921q37 0 65.5 -22.5t36.5 -58.5l205 -840h-77l-66 266q-2 15 -17 15h-295q-16 0 -17 -15l-66 -266h-76l204 840q8 36 36.5 58.5t66.5 22.5zM356 845q-24 0 -30 -23l-111 -452q-3 -15 11 -15h259q15 0 11 15l-111 452q-4 23 -29 23z" />
    <glyph glyph-name="B" unicode="B" horiz-adv-x="604" 
d="M49 911h260q99 0 174 -73q73 -75 73 -174q0 -137 -118 -209q118 -72 118 -208q0 -102 -73 -175q-72 -72 -174 -72h-260v911zM309 835h-170q-15 0 -15 -14v-314q0 -15 15 -15h170q71 0 121 50q50 52 50 122q0 72 -50 122q-49 49 -121 49zM309 418h-170q-15 0 -15 -14v-315
q0 -14 15 -14h170q73 0 121 50q50 52 50 122q0 69 -51 120t-120 51z" />
    <glyph glyph-name="C" unicode="C" horiz-adv-x="992" 
d="M513 919q146 0 263 -80q114 -79 168 -209h-83q-51 99 -142 156q-91 59 -206 59q-161 0 -276 -114q-113 -116 -113 -276q0 -159 113 -275q114 -114 276 -114q114 0 206 58q93 60 142 157h83q-55 -132 -168 -209q-118 -82 -263 -82q-192 0 -328 136q-136 137 -136 329
t136 328t328 136z" />
    <glyph glyph-name="D" unicode="D" horiz-adv-x="805" 
d="M49 911h253q187 0 321 -134q133 -135 133 -322q0 -186 -133 -321q-134 -134 -321 -134h-253v911zM302 835h-165q-14 0 -14 -14v-732q0 -14 14 -14h165q157 0 268 111q112 112 112 269q0 155 -112 269q-111 111 -268 111z" />
    <glyph glyph-name="E" unicode="E" 
d="M518 835h-289q-44 0 -74.5 -30.5t-30.5 -73.5v-224q0 -15 15 -15h379v-75h-379q-15 0 -15 -13v-225q0 -43 30.5 -73.5t74.5 -30.5h289v-75h-289q-76 0 -128 52q-52 53 -52 127v552q0 75 52 127q52 53 128 53h289v-76z" />
    <glyph glyph-name="F" unicode="F" 
d="M518 835h-289q-44 0 -74.5 -30.5t-30.5 -73.5v-224q0 -15 15 -15h379v-75h-379q-15 0 -15 -13v-404h-75v731q0 74 52 126q53 54 128 54h289v-76z" />
    <glyph glyph-name="G" unicode="G" horiz-adv-x="1026" 
d="M513 919q142 0 260 -80q116 -78 171 -209h-82q-51 99 -144 157t-205 58q-161 0 -276 -114q-113 -116 -113 -276q0 -159 113 -275q114 -114 276 -114q150 0 256 96q108 96 128 242q3 13 -12 13h-371v75h464v-37q0 -192 -137 -329q-136 -136 -328 -136t-328 136
q-136 137 -136 329t136 328t328 136z" />
    <glyph glyph-name="H" unicode="H" horiz-adv-x="604" 
d="M556 0h-76v404q0 13 -14 13h-327q-15 0 -15 -13v-404h-75v911h75v-404q0 -15 15 -15h327q14 0 14 15v404h76v-911z" />
    <glyph glyph-name="I" unicode="I" horiz-adv-x="197" 
d="M136 0h-75v911h75v-911z" />
    <glyph glyph-name="J" unicode="J" horiz-adv-x="641" 
d="M592 911v-647q0 -113 -80 -193q-78 -80 -192 -80q-113 0 -192 80q-79 78 -79 193v17h74v-17q0 -83 57 -140t140 -57t140 57q58 58 58 140v647h74z" />
    <glyph glyph-name="K" unicode="K" horiz-adv-x="595" 
d="M124 0h-75v911h75v-911zM545 911l-296 -420q-11 -17 -11 -36t11 -35l297 -420h-92l-266 376q-25 34 -25 80q0 45 25 79l266 376h91z" />
    <glyph glyph-name="L" unicode="L" 
d="M124 911v-731q0 -44 30.5 -74.5t74.5 -30.5h289v-75h-289q-76 0 -128 52q-52 53 -52 128v731h75z" />
    <glyph glyph-name="M" unicode="M" horiz-adv-x="929" 
d="M770 919q48 -4 79 -38.5t31 -82.5v-798h-75v798q0 39 -43 47q-42 8 -51 -38l-150 -736q-8 -34 -34.5 -57t-61.5 -23q-36 0 -63.5 22t-34.5 58l-149 736q-9 46 -51 38q-43 -8 -43 -47v-798h-75v798q0 48 31 82.5t79 38.5q49 5 86 -22t47 -75l148 -737q4 -19 25 -19
q19 0 23 19l149 737q10 48 47 75t86 22z" />
    <glyph glyph-name="N" unicode="N" horiz-adv-x="781" 
d="M151 921q60 0 89 -58l369 -783q8 -18 28 -13q20 3 20 23v822h75v-822q0 -43 -29 -71.5t-72 -28.5q-60 0 -89 57l-371 785q-6 18 -28 13q-19 -3 -19 -24v-821h-75v821q0 43 29.5 71.5t72.5 28.5z" />
    <glyph glyph-name="O" unicode="O" horiz-adv-x="1026" 
d="M513 919q192 0 328 -136q137 -136 137 -328t-137 -329q-136 -136 -328 -136t-328 136q-136 137 -136 329t136 328t328 136zM513 845q-161 0 -276 -114q-113 -116 -113 -276q0 -159 113 -275q114 -114 276 -114q164 0 275 114q114 114 114 275q0 162 -114 276
q-112 114 -275 114z" />
    <glyph glyph-name="P" unicode="P" horiz-adv-x="602" 
d="M49 911h259q101 0 174 -73q71 -73 71 -174q0 -103 -71 -174q-74 -72 -174 -72h-171q-14 0 -14 -14v-404h-74v911zM308 835h-171q-14 0 -14 -14v-314q0 -15 14 -15h171q69 0 121 50q50 52 50 122q0 72 -50 122q-51 49 -121 49z" />
    <glyph glyph-name="Q" unicode="Q" horiz-adv-x="1026" 
d="M513 919q192 0 328 -136q137 -136 137 -328q0 -206 -156 -347q-11 -9 1 -18q33 -24 77 -24h78v-76h-78q-80 0 -141 56q-8 8 -22 3q-109 -59 -224 -59q-192 0 -328 136q-136 137 -136 329t136 328t328 136zM513 845q-161 0 -276 -114q-113 -116 -113 -276q0 -128 73 -228
q9 -11 19 -2q74 56 173 56h119q122 0 208 -86l32 -32q10 -10 21 -1q133 115 133 293q0 162 -114 276q-112 114 -275 114zM508 206h-119q-64 0 -119 -36q-13 -9 -1 -18q107 -86 244 -86q93 0 168 37q15 8 4 17l-22 21q-68 65 -155 65z" />
    <glyph glyph-name="R" unicode="R" horiz-adv-x="602" 
d="M49 911h259q101 0 174 -73q71 -73 71 -174q0 -82 -48 -146q-50 -65 -124 -89q-13 -3 -8 -17l180 -412h-81l-178 405q-5 13 -19 13h-138q-14 0 -14 -14v-404h-74v911zM308 835h-171q-14 0 -14 -14v-314q0 -15 14 -15h171q69 0 121 50q50 52 50 122q0 72 -50 122
q-51 49 -121 49z" />
    <glyph glyph-name="S" unicode="S" 
d="M283 919q95 0 166 -69q69 -69 69 -164v-56h-75v56q0 64 -48 112q-47 47 -112 47q-64 0 -113 -47q-46 -48 -46 -112q0 -54 29.5 -98.5t77.5 -67.5l136 -62q69 -31 110 -94.5t41 -138.5q0 -96 -69 -165t-166 -69q-98 0 -166 69q-68 68 -68 165v56h75v-56q0 -67 46 -113
t113 -46t112 46q48 46 48 113q0 54 -29 98.5t-77 66.5l-138 62q-68 32 -109 95t-41 139q0 96 68 164q69 69 166 69z" />
    <glyph glyph-name="T" unicode="T" horiz-adv-x="491" 
d="M443 835h-146q-14 0 -14 -13v-822h-75v822q0 13 -13 13h-146v76h394v-76z" />
    <glyph glyph-name="U" unicode="U" horiz-adv-x="641" 
d="M592 911v-647q0 -113 -80 -193q-78 -80 -192 -80q-113 0 -192 80q-79 78 -79 193v647h74v-647q0 -83 57 -140t140 -57t140 57q58 58 58 140v647h74z" />
    <glyph glyph-name="V" unicode="V" horiz-adv-x="619" 
d="M570 911l-138 -819q-7 -43 -43 -72.5t-80 -29.5q-45 0 -80 29t-42 73l-138 819h76l136 -805q7 -42 48 -42t49 42l136 805h76z" />
    <glyph glyph-name="W" unicode="W" horiz-adv-x="1159" 
d="M580 919q37 0 65 -24t35 -61l123 -728q6 -40 48 -40q41 0 48 40l136 805h75l-14 -91l-123 -726q-7 -45 -42 -74.5t-80 -29.5q-46 0 -80.5 29.5t-42.5 74.5l-122 728q-4 22 -27 22q-22 0 -26 -22l-123 -728q-7 -45 -41.5 -74.5t-79.5 -29.5t-80 29.5t-42 74.5l-138 817h75
l136 -805q7 -40 49 -40q40 0 47 40l123 729q7 37 35.5 60.5t65.5 23.5z" />
    <glyph glyph-name="X" unicode="X" horiz-adv-x="654" 
d="M130 912l162 -377q17 -39 17 -80q0 -40 -17 -79l-162 -376h-81l174 405q9 24 9 50q0 27 -9 51l-174 406h81zM606 912l-174 -406q-10 -27 -10 -51q0 -23 10 -50l174 -405h-82l-162 376q-17 39 -17 79q0 41 17 80l162 377h82z" />
    <glyph glyph-name="Y" unicode="Y" horiz-adv-x="687" 
d="M638 912l-253 -494q-3 -8 -3 -16v-402h-74v399q0 6 -5 16l-254 497h85l203 -399q9 -10 13 0l203 399h85z" />
    <glyph glyph-name="Z" unicode="Z" horiz-adv-x="582" 
d="M56 911h345q88 0 123 -83q11 -28 11 -56q0 -50 -29 -90l-369 -495q-14 -20 -14 -45q0 -29 16.5 -48t44.5 -19h341v-75h-341q-89 0 -124 83q-13 26 -13 58q0 53 31 91l367 495q15 21 15 46q0 26 -17 44t-42 18h-345v76z" />
    <glyph glyph-name="bracketleft" unicode="[" horiz-adv-x="331" 
d="M282 835h-145q-14 0 -14 -14v-732q0 -14 14 -14h145v-75h-233v911h233v-76z" />
    <glyph glyph-name="backslash" unicode="\" horiz-adv-x="439" 
d="M392 0h-76l-269 911h76z" />
    <glyph glyph-name="bracketright" unicode="]" horiz-adv-x="331" 
d="M282 0h-233v75h144q15 0 15 14v732q0 14 -15 14h-144v76h233v-911z" />
    <glyph glyph-name="asciicircum" unicode="^" horiz-adv-x="381" 
d="M190 921q38 0 66.5 -22.5t36.5 -58.5l39 -159h-78l-34 141q-6 23 -30 23q-25 0 -29 -23l-35 -141h-77l39 159q7 36 36 58.5t66 22.5z" />
    <glyph glyph-name="underscore" unicode="_" horiz-adv-x="491" 
d="M443 0h-394v75h394v-75z" />
    <glyph glyph-name="a" unicode="a" horiz-adv-x="803" 
d="M401 696q146 0 250 -104q103 -102 103 -249v-343h-75v111q0 1 -4 5q-4 1 -6 -2q-109 -124 -268 -124q-146 0 -249 104q-103 103 -103 249t103 249q103 104 249 104zM401 621q-116 0 -197 -81q-81 -82 -81 -197q0 -113 81 -196q81 -81 197 -81q118 0 196 81q82 82 82 196
q0 115 -82 197q-81 81 -196 81z" />
    <glyph glyph-name="b" unicode="b" horiz-adv-x="803" 
d="M123 911v-336q0 -2 3 -5q6 -2 8 2q106 124 267 124q146 0 250 -104q103 -103 103 -249t-103 -249q-104 -104 -250 -104q-145 0 -249 102q-103 103 -103 246v573h74zM401 621q-116 0 -197 -81q-81 -82 -81 -197q0 -113 81 -196q81 -81 197 -81q117 0 197 81q82 82 82 196
q0 115 -82 197q-80 81 -197 81z" />
    <glyph glyph-name="c" unicode="c" horiz-adv-x="786" 
d="M401 696q114 0 208 -69q94 -68 128 -173h-80q-33 75 -102.5 121t-153.5 46q-115 0 -195 -81q-82 -82 -82 -197q0 -114 82 -196q80 -81 195 -81q84 0 153.5 46t102.5 121h80q-35 -107 -128 -175q-92 -68 -208 -68q-146 0 -249 104q-103 103 -103 249t103 249
q103 104 249 104z" />
    <glyph glyph-name="d" unicode="d" horiz-adv-x="803" 
d="M754 911v-573q0 -142 -105 -246q-103 -102 -248 -102q-146 0 -249 104q-103 103 -103 249t103 249q103 104 249 104q161 0 268 -124q2 -3 7 -2q4 3 4 5v336h74zM401 621q-116 0 -197 -81q-81 -82 -81 -197q0 -113 81 -196q81 -81 197 -81q117 0 197 81q82 82 82 196
q0 115 -82 197q-80 81 -197 81z" />
    <glyph glyph-name="e" unicode="e" horiz-adv-x="803" 
d="M401 696q146 0 250 -104q103 -103 103 -249v-38h-613q-14 0 -12 -13q18 -97 95 -162q78 -64 177 -64q84 0 153.5 45.5t102.5 121.5h80q-35 -108 -129 -176q-92 -67 -207 -67q-146 0 -249 104q-103 103 -103 249t103 249q103 104 249 104zM401 621q-98 0 -177 -64
q-77 -65 -95 -162q-1 -14 12 -14h521q13 0 12 14q-18 97 -96 162q-78 64 -177 64z" />
    <glyph glyph-name="f" unicode="f" horiz-adv-x="299" 
d="M250 835h-21q-44 0 -74.5 -30.5t-30.5 -73.5v-35q0 -15 15 -15h111v-74h-111q-15 0 -15 -15v-592h-75v731q0 74 52 126q53 54 128 54h21v-76z" />
    <glyph glyph-name="g" unicode="g" horiz-adv-x="803" 
d="M401 696q146 0 250 -104q103 -103 103 -249v-221q0 -146 -103 -250q-104 -103 -250 -103h-68v75h68q113 0 192 78q80 76 86 187q1 4 -4 7q-5 2 -6 -2q-109 -124 -268 -124q-146 0 -249 104q-103 103 -103 249t103 249q103 104 249 104zM401 621q-116 0 -197 -81
q-81 -82 -81 -197q0 -113 81 -196q81 -81 197 -81q117 0 197 81q82 82 82 196q0 115 -82 197q-80 81 -197 81z" />
    <glyph glyph-name="h" unicode="h" horiz-adv-x="641" 
d="M123 911v-286q0 -12 11 -4q78 75 187 75q110 0 191 -81q80 -80 80 -191v-424h-74v424q0 81 -58 139t-139 58q-82 0 -140 -58q-58 -57 -58 -139v-424h-74v911h74z" />
    <glyph glyph-name="i" unicode="i" horiz-adv-x="197" 
d="M136 798h-75v113h75v-113zM136 0h-75v681h75v-681z" />
    <glyph glyph-name="j" unicode="j" horiz-adv-x="300" 
d="M240 798h-75v113h75v-113zM240 681v-733q0 -74 -53 -127q-52 -52 -126 -52v75q43 0 73.5 30.5t30.5 73.5v733h75z" />
    <glyph glyph-name="k" unicode="k" horiz-adv-x="512" 
d="M123 0h-76v911h76v-911zM462 681l-214 -303q-11 -17 -11 -35q0 -20 11 -37l217 -306h-93l-186 263q-25 34 -25 80q0 45 25 79l184 259h92z" />
    <glyph glyph-name="l" unicode="l" horiz-adv-x="197" 
d="M136 0h-75v911h75v-911z" />
    <glyph glyph-name="m" unicode="m" horiz-adv-x="959" 
d="M676 696q96 0 165 -69q70 -67 70 -165v-462h-74v462q0 64 -48 112q-46 47 -113 47q-66 0 -113 -47q-46 -46 -46 -112v-462h-74v462q0 64 -48 112q-46 47 -112 47q-67 0 -114 -47q-46 -46 -46 -112v-462h-74v462q0 97 68 165q71 69 166 69q128 0 196 -107q72 107 197 107z
" />
    <glyph glyph-name="n" unicode="n" horiz-adv-x="641" 
d="M321 696q110 0 191 -81q80 -80 80 -191v-424h-74v424q0 81 -58 139t-139 58q-82 0 -140 -58q-58 -57 -58 -139v-424h-74v424q0 113 79 191q80 81 193 81z" />
    <glyph glyph-name="o" unicode="o" horiz-adv-x="803" 
d="M401 696q146 0 250 -104q103 -103 103 -249t-103 -249q-104 -104 -250 -104t-249 104q-103 103 -103 249t103 249q103 104 249 104zM401 621q-116 0 -197 -81q-81 -82 -81 -197q0 -113 81 -196q81 -81 197 -81q117 0 197 81q82 82 82 196q0 115 -82 197q-80 81 -197 81z
" />
    <glyph glyph-name="p" unicode="p" horiz-adv-x="803" 
d="M401 696q146 0 250 -104q103 -103 103 -249t-103 -249q-104 -104 -250 -104q-158 0 -267 124q-2 4 -8 2q-3 -3 -3 -5v-342h-74v579q0 143 103 245q103 103 249 103zM401 621q-116 0 -197 -81q-81 -82 -81 -197q0 -113 81 -196q81 -81 197 -81q117 0 197 81q82 82 82 196
q0 115 -82 197q-80 81 -197 81z" />
    <glyph glyph-name="q" unicode="q" horiz-adv-x="803" 
d="M401 696q145 0 248 -103q105 -102 105 -245v-579h-74v342q0 2 -4 5q-5 1 -7 -2q-109 -124 -268 -124q-146 0 -249 104q-103 103 -103 249t103 249q103 104 249 104zM401 621q-116 0 -197 -81q-81 -82 -81 -197q0 -113 81 -196q81 -81 197 -81q117 0 197 81q82 82 82 196
q0 115 -82 197q-80 81 -197 81z" />
    <glyph glyph-name="r" unicode="r" horiz-adv-x="381" 
d="M332 621h-49q-66 0 -113 -47q-46 -46 -46 -112v-462h-75v462q0 96 68 164q70 70 166 70h49v-75z" />
    <glyph glyph-name="s" unicode="s" horiz-adv-x="485" 
d="M242 696q81 0 137 -58q58 -56 58 -136v-48h-76v48q0 49 -34.5 84t-83.5 35q-48 0 -83.5 -34t-35.5 -81q0 -76 72 -104l121 -47q54 -21 86 -68.5t32 -105.5q0 -51 -25 -95q-57 -95 -167 -95q-81 0 -137 56q-57 57 -57 138v48h75v-48q0 -49 35 -84t83 -35t83.5 34t35.5 81
q0 74 -72 104l-121 48q-55 22 -86.5 68.5t-31.5 104.5q0 52 25 95q57 95 167 95z" />
    <glyph glyph-name="t" unicode="t" horiz-adv-x="299" 
d="M124 911v-215q0 -15 15 -15h111v-75h-111q-15 0 -15 -14v-413q0 -43 31 -73.5t74 -30.5h21v-75h-21q-76 0 -128 52q-52 53 -52 127v732h75z" />
    <glyph glyph-name="u" unicode="u" horiz-adv-x="641" 
d="M592 681v-417q0 -113 -80 -193q-78 -80 -192 -80q-113 0 -192 80q-79 78 -79 193v417h74v-417q0 -83 57 -140t140 -57t140 57q58 58 58 140v417h74z" />
    <glyph glyph-name="v" unicode="v" horiz-adv-x="631" 
d="M582 681l-128 -578q-11 -48 -50.5 -80t-89.5 -32t-89.5 32t-50.5 80l-125 578h76l122 -562q10 -52 67 -52q53 0 67 53l125 561h76z" />
    <glyph glyph-name="w" unicode="w" horiz-adv-x="984" 
d="M491 689q34 0 59.5 -21t30.5 -54l85 -507q7 -40 49 -40q41 0 47 40l98 574h76l-99 -586q-7 -45 -42 -74.5t-80 -29.5t-80 29.5t-42 74.5l-86 506q-2 14 -16 14q-13 0 -16 -14l-85 -506q-7 -45 -41 -74.5t-80 -29.5q-45 0 -80 29.5t-42 74.5l-100 586h77l97 -574
q7 -40 48 -40q42 0 48 40l84 507q6 33 31 54t59 21z" />
    <glyph glyph-name="x" unicode="x" horiz-adv-x="557" 
d="M131 681l112 -261q17 -40 17 -81q0 -40 -17 -80l-112 -260h-81l124 290q10 27 10 50t-10 50l-124 292h81zM507 681l-124 -292q-10 -27 -10 -50t10 -50l124 -290h-81l-112 260q-17 40 -17 80q0 41 17 81l112 261h81z" />
    <glyph glyph-name="y" unicode="y" horiz-adv-x="634" 
d="M379 -231h-76l47 214q1 5 -2 8.5t-8 2.5q-2 0 -11.5 -1.5t-13.5 -1.5q-50 0 -89.5 32t-50.5 80l-125 578h76l122 -562q10 -52 67 -52q53 0 67 53l125 561h77z" />
    <glyph glyph-name="z" unicode="z" horiz-adv-x="576" 
d="M54 681h373q66 0 91 -60q9 -19 9 -41q0 -37 -27 -67l-369 -397q-8 -10 -5 -27q10 -15 24 -15h373v-75h-373q-67 0 -92 59q-8 19 -8 42q0 39 27 67l368 397q8 8 5 27q-8 15 -23 15h-373v75z" />
    <glyph glyph-name="braceleft" unicode="{" horiz-adv-x="439" 
d="M390 921v-76q-64 0 -113 -46q-46 -46 -46 -113v-461q0 -67 46 -113t113 -46v-76q-96 0 -165 70q-69 69 -69 165v179q0 14 -14 14h-93v74h93q14 0 14 15v179q0 97 68 165q70 70 166 70z" />
    <glyph glyph-name="bar" unicode="|" horiz-adv-x="221" 
d="M148 0h-75v911h75v-911z" />
    <glyph glyph-name="braceright" unicode="}" horiz-adv-x="439" 
d="M49 845v76q95 0 165 -70q69 -69 69 -165v-179q0 -15 14 -15h93v-74h-93q-14 0 -14 -14v-179q0 -96 -69 -165q-67 -70 -165 -70v76q66 0 112 46q47 47 47 113v461q0 68 -47 113q-48 46 -112 46z" />
    <glyph glyph-name="asciitilde" unicode="~" horiz-adv-x="491" 
d="M173 815l132 -68q13 -6 27 -3l111 33v-74l-124 -38l-133 68q-12 6 -27 3l-110 -33v74z" />
    <glyph glyph-name="uni00A0" unicode="&#xa0;" horiz-adv-x="218" 
 />
    <glyph glyph-name="exclamdown" unicode="&#xa1;" horiz-adv-x="197" 
d="M136 798h-75v113h75v-113zM136 0h-75v681h75v-681z" />
    <glyph glyph-name="yen" unicode="&#xa5;" horiz-adv-x="686" 
d="M637 912l-207 -406q-4 -12 8 -12h152v-76h-200q-8 0 -8 -11v-49q0 -15 13 -15h195v-74h-195q-13 0 -13 -15v-254h-76v254q0 15 -14 15h-196v74h196q14 0 14 15v46q0 14 -13 14h-197v76h152q13 0 9 12l-208 406h84l204 -399q1 -3 6 -3t6 3l204 399h84z" />
    <glyph glyph-name="copyright" unicode="&#xa9;" horiz-adv-x="1026" 
d="M513 919q192 0 328 -136q137 -136 137 -328t-137 -329q-136 -136 -328 -136t-328 136q-136 137 -136 329t136 328t328 136zM513 845q-161 0 -276 -114q-113 -116 -113 -276q0 -159 113 -275q114 -114 276 -114q164 0 275 114q114 114 114 275q0 162 -114 276
q-112 114 -275 114zM513 745q95 0 173 -57q74 -55 103 -144h-80q-26 57 -79 91.5t-117 34.5q-87 0 -152 -63q-63 -65 -63 -152q0 -89 63 -152q63 -62 152 -62q64 0 117 34.5t79 91.5h80q-29 -89 -103 -144q-79 -58 -173 -58q-119 0 -204 85q-85 86 -85 205q0 120 85 205
t204 85z" />
    <glyph glyph-name="guillemotleft" unicode="&#xab;" horiz-adv-x="433" 
d="M258 911l-132 -445q-1 -4 -1 -10t1 -10l132 -446h-76l-133 456l133 455h76zM384 911l-131 -445q-2 -10 0 -20l131 -446h-74l-135 456l135 455h74z" />
    <glyph glyph-name="softhyphen" unicode="&#xad;" horiz-adv-x="439" 
d="M416 416h-393v75h393v-75z" />
    <glyph glyph-name="registered" unicode="&#xae;" horiz-adv-x="1026" 
d="M513 919q192 0 328 -136q137 -136 137 -328t-137 -329q-136 -136 -328 -136t-328 136q-136 137 -136 329t136 328t328 136zM513 845q-161 0 -276 -114q-113 -116 -113 -276q0 -159 113 -275q114 -114 276 -114q164 0 275 114q114 114 114 275q0 162 -114 276
q-112 114 -275 114zM351 731h197q77 0 133 -56t56 -133q0 -112 -99 -164q-12 -9 -7 -20l67 -178h-80l-61 162q-7 13 -20 13h-97q-13 0 -13 -15v-160h-76v551zM548 655h-108q-13 0 -13 -14v-197q0 -15 13 -15h108q47 0 80.5 33.5t33.5 79.5t-33.5 79.5t-80.5 33.5z" />
    <glyph glyph-name="degree" unicode="&#xb0;" horiz-adv-x="1026" 
d="M513 919q192 0 328 -136q137 -136 137 -328t-137 -329q-136 -136 -328 -136t-328 136q-136 137 -136 329t136 328t328 136zM513 845q-161 0 -276 -114q-113 -116 -113 -276q0 -159 113 -275q114 -114 276 -114q164 0 275 114q114 114 114 275q0 162 -114 276
q-112 114 -275 114z" />
    <glyph glyph-name="periodcentered" unicode="&#xb7;" horiz-adv-x="173" 
d="M124 378h-75v113h75v-113z" />
    <glyph glyph-name="guillemotright" unicode="&#xbb;" horiz-adv-x="433" 
d="M258 456l-135 -456h-74l131 446q2 10 0 20l-131 445h74zM384 456l-134 -456h-75l131 446q3 6 3 10t-3 10l-131 445h75z" />
    <glyph glyph-name="questiondown" unicode="&#xbf;" 
d="M321 807h-75v114h75v-114zM321 687v-86q0 -48 -27.5 -88.5t-72.5 -60.5q-44 -18 -70.5 -58t-26.5 -89v-70q0 -67 46 -113q49 -47 113 -47q67 0 112 47q48 45 48 113v56h75v-56q0 -98 -69 -167q-68 -68 -166 -68t-166 68t-68 167v70q0 70 39.5 129t104.5 88q53 21 53 79
v86h75z" />
    <glyph glyph-name="divide" unicode="&#xf7;" horiz-adv-x="491" 
d="M283 607h-75v112h75v-112zM443 416h-394v75h394v-75zM283 188h-75v112h75v-112z" />
    <glyph glyph-name="pi" unicode="&#x3c0;" horiz-adv-x="1025" 
d="M513 919q192 0 328 -136q137 -136 137 -328t-137 -329q-136 -136 -328 -136q-193 0 -329 136q-137 137 -137 329t137 328q136 136 329 136zM513 845q-161 0 -276 -114q-114 -115 -114 -276q0 -159 114 -275q114 -114 276 -114q161 0 275 114t114 275q0 162 -114 276
q-116 114 -275 114zM356 731h197q77 0 133 -56t56 -133q0 -79 -56 -132q-55 -55 -133 -55h-108q-13 0 -13 -15v-160h-76v551zM553 655h-108q-13 0 -13 -14v-197q0 -15 13 -15h108q48 0 80.5 33t32.5 80t-32.5 80t-80.5 33z" />
    <glyph glyph-name="uni060C" unicode="&#x60c;" horiz-adv-x="173" 
d="M124 187l-31 -61q-3 -6 -0.5 -9.5t8.5 -3.5h23v-113h-75v113l38 74h37z" />
    <glyph glyph-name="uni061B" unicode="&#x61b;" horiz-adv-x="221" 
d="M148 419l-32 -61q-5 -12 9 -12h23v-113h-75v113l37 73h38zM148 0h-75v114h75v-114z" />
    <glyph glyph-name="uni061F" unicode="&#x61f;" 
d="M284 921q96 0 166 -70q68 -68 68 -165v-56h-75v56q0 67 -46 113q-49 46 -113 46q-66 0 -112 -46q-48 -45 -48 -113v-71q0 -48 27 -88.5t72 -59.5q44 -18 71 -58.5t27 -88.5v-87h-75v87q0 57 -52 79q-66 28 -105.5 87t-39.5 129v71q0 96 69 165q72 70 166 70zM321 0h-75
v113h75v-113z" />
    <glyph glyph-name="uni0621" unicode="&#x621;" horiz-adv-x="384" 
d="M330 365v-76q-140 24 -178 -56q-20 -45 4 -91q24 -49 86 -66h102v-76h-302v76h53q-74 124 -14 214q63 95 249 75z" />
    <glyph glyph-name="uni0622" unicode="&#x622;" horiz-adv-x="155" 
d="M48 907l55 -28q8 -2 11 -1l31 14v-31l-36 -15l-56 27q-4 3 -12 1l-36 -13v31zM116 0h-75v786h75v-786z" />
    <glyph glyph-name="uni0623" unicode="&#x623;" horiz-adv-x="157" 
d="M124 912v-35q-24 6 -40 -1q-14 -7 -16 -21q-2 -38 69 -43v-36h-113v36h19q-25 43 -5 74q21 32 86 26zM117 0h-76v718h76v-718z" />
    <glyph glyph-name="uni0624" unicode="&#x624;" horiz-adv-x="541" 
d="M360 771v-44q-82 13 -103 -32q-13 -26 2 -54t50 -37h59v-43h-175v43h31q-26 48 -22 88t46.5 63t111.5 16zM271 461q94 0 162 -68t68 -162v-103q-11 -120 -89 -197t-191 -77q-23 0 -44 3v77q17 -4 44 -4q84 0 142 58q26 26 41 65q-48 -53 -133 -53q-97 0 -164 67t-67 164
q0 95 67.5 162.5t163.5 67.5zM271 387q-65 0 -110 -47q-45 -44 -45 -109q0 -66 45 -111t110 -45q63 0 110 45q45 46 45 110v1q0 63 -46.5 109.5t-108.5 46.5z" />
    <glyph glyph-name="uni0625" unicode="&#x625;" horiz-adv-x="155" 
d="M116 0h-75v911h75v-911zM119 -87v-35q-24 6 -40 -1q-14 -7 -16 -23q-2 -36 69 -41v-36h-113v36h19q-25 43 -5 74q21 32 86 26z" />
    <glyph glyph-name="uni0626" unicode="&#x626;" horiz-adv-x="1026" 
d="M833 646l-3 -75q-1 -1 -30 -7q-109 -19 -124 -30q-24 -17 -30 -50q-8 -40 21 -63q19 -15 76 -29q93 -21 112 -27q77 -27 110 -89q30 -55 16 -121q-13 -63 -61 -108q-52 -46 -121 -46h-614q-49 0 -90 33q-55 43 -55 111q0 69 58 112q22 17 120 62l-3 -84q-59 -26 -68 -32
q-43 -28 -28 -77t67 -49h562q65 0 109 29q39 26 47 68t-21 77q-34 40 -99 56q-119 30 -120 31q-65 24 -84 79q-11 30 -11 65q2 54 35 87q24 25 174 63zM228 603v-44q-82 13 -103 -32q-12 -25 2 -53q14 -29 50 -38h59v-43h-175v43h31q-43 70 -8 124q37 54 144 43z" />
    <glyph glyph-name="uni0627" unicode="&#x627;" horiz-adv-x="157" 
d="M117 0h-76v911h76v-911z" />
    <glyph glyph-name="uni0628" unicode="&#x628;" horiz-adv-x="1004" 
d="M964 476v-293q0 -77 -53.5 -130t-129.5 -53h-572q-74 0 -126.5 52.5t-52.5 126.5h75q0 -44 31 -73q29 -31 73 -31l572 1q43 0 74.5 31.5t31.5 75.5v293h77zM503 -59q24 0 41 -17t17 -40q0 -24 -17 -41t-41 -17q-23 0 -40 17t-17 41q0 23 17 40t40 17z" />
    <glyph glyph-name="uni0629" unicode="&#x629;" horiz-adv-x="541" 
d="M182 662q24 0 41 -17t17 -40q0 -24 -17 -41t-41 -17q-23 0 -40 17t-17 41q0 23 17 40t40 17zM340 662q24 0 41 -17t17 -40q0 -24 -17 -41t-41 -17q-23 0 -40 17t-17 41q0 23 17 40t40 17zM271 442q94 0 162 -68t68 -162v-212l-77 3v209q0 65 -45 110.5t-108 45.5
q-65 0 -110 -47q-45 -43 -45 -109t45 -111t110 -45q40 0 73 18l34 -66q-48 -27 -107 -27q-97 0 -164 67t-67 164q0 95 67.5 162.5t163.5 67.5z" />
    <glyph glyph-name="uni062A" unicode="&#x62a;" horiz-adv-x="1004" 
d="M414 623q24 0 41 -17t17 -40q0 -24 -17 -41t-41 -17q-23 0 -40 17t-17 41q0 23 17 40t40 17zM572 623q24 0 41 -17t17 -40q0 -24 -17 -41t-41 -17q-23 0 -40 17t-17 41q0 23 17 40t40 17zM964 476v-293q0 -77 -53.5 -130t-129.5 -53h-572q-74 0 -126.5 52.5t-52.5 126.5
h75q0 -44 31 -73q29 -31 73 -31l572 1q43 0 74.5 31.5t31.5 75.5v293h77z" />
    <glyph glyph-name="uni062B" unicode="&#x62b;" horiz-adv-x="1004" 
d="M487 770q24 0 41 -17t17 -40q0 -24 -17 -41t-41 -17q-23 0 -40 17t-17 41q0 23 17 40t40 17zM414 623q24 0 41 -17t17 -40q0 -24 -17 -41t-41 -17q-23 0 -40 17t-17 41q0 23 17 40t40 17zM572 623q24 0 41 -17t17 -40q0 -24 -17 -41t-41 -17q-23 0 -40 17t-17 41
q0 23 17 40t40 17zM964 476v-293q0 -77 -53.5 -130t-129.5 -53h-572q-74 0 -126.5 52.5t-52.5 126.5h75q0 -44 31 -73q29 -31 73 -31l572 1q43 0 74.5 31.5t31.5 75.5v293h77z" />
    <glyph glyph-name="uni062C" unicode="&#x62c;" horiz-adv-x="858" 
d="M190 479l547 -255q81 -38 81 -148v-76h-700q-8 -28 0 -48q9 -25 37 -30l113 -21l-17 -76l-128 28q-45 11 -67 57q-16 36 -16 90v76h702q18 52 -38 78l-531 248zM510 -105q24 0 40 -16q17 -19 17 -41q0 -24 -17 -41t-40 -17q-24 0 -41 17t-17 41q0 22 17 41q16 16 41 16z
" />
    <glyph glyph-name="uni062D" unicode="&#x62d;" horiz-adv-x="858" 
d="M190 479l547 -255q81 -38 81 -148v-76h-700q-8 -28 0 -48q9 -25 37 -30l113 -21l-17 -76l-128 28q-45 11 -67 57q-16 36 -16 90v76h702q18 52 -38 78l-531 248z" />
    <glyph glyph-name="uni062E" unicode="&#x62e;" horiz-adv-x="858" 
d="M301 637q24 0 41 -17q16 -16 16 -41q0 -24 -16 -40q-18 -18 -41 -18q-25 0 -41 18q-17 17 -17 40q0 22 17 41q17 17 41 17zM190 479l547 -255q81 -38 81 -148v-76h-700q-8 -28 0 -48q9 -25 37 -30l113 -21l-17 -76l-128 28q-45 11 -67 57q-16 36 -16 90v76h702
q18 52 -38 78l-531 248z" />
    <glyph glyph-name="uni062F" unicode="&#x62f;" horiz-adv-x="644" 
d="M154 475l371 -200q45 -25 66 -72q19 -45 10 -91q-7 -47 -42 -79q-37 -33 -94 -33h-425v76h425q57 0 66 53q10 51 -38 78l-338 187z" />
    <glyph glyph-name="uni0630" unicode="&#x630;" horiz-adv-x="644" 
d="M198 679q24 0 41 -17q16 -16 16 -41q0 -24 -16 -40q-18 -18 -41 -18q-24 0 -41 18q-17 17 -17 40q0 22 17 41q17 17 41 17zM154 475l371 -200q45 -25 66 -72q19 -45 10 -91q-7 -47 -42 -79q-37 -33 -94 -33h-425v76h425q57 0 66 53q10 51 -38 78l-338 187z" />
    <glyph glyph-name="uni0631" unicode="&#x631;" horiz-adv-x="294" 
d="M254 473v-371q0 -113 -81 -194q-67 -67 -153 -77v77q58 10 100 54q59 59 59 140v371h75z" />
    <glyph glyph-name="uni0632" unicode="&#x632;" horiz-adv-x="294" 
d="M216 659q24 0 41 -17q16 -16 16 -41q0 -24 -16 -40q-18 -18 -41 -18q-24 0 -41 18q-17 17 -17 40q0 22 17 41q17 17 41 17zM254 473v-371q0 -113 -81 -194q-67 -67 -153 -77v77q58 10 100 54q59 59 59 140v371h75z" />
    <glyph glyph-name="uni0633" unicode="&#x633;" horiz-adv-x="1419" 
d="M1379 472v-237q0 -97 -70 -166q-71 -69 -167 -69q-126 0 -197 107q-69 -107 -197 -107q-96 0 -164 65q-10 -89 -77 -157q-79 -79 -194 -79q-114 0 -193 79q-80 80 -80 194v228h75v-228q0 -82 58 -140t140 -58q83 0 141 58t58 140v228h75v-95q0 -67 46 -113
q48 -48 115 -48q66 0 113 48q47 47 47 113v175h75v-175q0 -67 46 -113q47 -48 113 -48q67 0 115 48q47 47 47 113v237h75z" />
    <glyph glyph-name="uni0634" unicode="&#x634;" horiz-adv-x="1419" 
d="M938 796q24 0 41 -17t17 -40q0 -24 -17 -41t-41 -17q-23 0 -40 17t-17 41q0 23 17 40t40 17zM863 662q24 0 41 -17t17 -40q0 -24 -17 -41t-41 -17q-23 0 -40 17t-17 41q0 23 17 40t40 17zM1021 662q24 0 41 -17t17 -40q0 -24 -17 -41t-41 -17q-23 0 -40 17t-17 41
q0 23 17 40t40 17zM1379 472v-237q0 -97 -70 -166q-71 -69 -167 -69q-126 0 -197 107q-69 -107 -197 -107q-96 0 -164 65q-10 -89 -77 -157q-79 -79 -194 -79q-114 0 -193 79q-80 80 -80 194v228h75v-228q0 -82 58 -140t140 -58q83 0 141 58t58 140v228h75v-95
q0 -67 46 -113q48 -48 115 -48q66 0 113 48q47 47 47 113v175h75v-175q0 -67 46 -113q47 -48 113 -48q67 0 115 48q47 47 47 113v237h75z" />
    <glyph glyph-name="uni0635" unicode="&#x635;" horiz-adv-x="1431" 
d="M1252 446q68 -30 105 -94q66 -114 5 -228q-66 -124 -236 -124h-396q-84 0 -151 65q-10 -88 -77 -156q-79 -79 -192 -79q-112 0 -191 79t-79 192v227h74v-227q0 -81 57 -138q58 -58 139 -58q82 0 140 58q57 57 57 138v227h74v-95q0 -65 47 -112q38 -39 90 -45h6
q-20 59 3 132q45 146 216 223q169 77 309 15zM1191 389q-96 34 -228 -22q-122 -53 -164 -174q-21 -61 -1 -117h328q110 0 160 68q45 61 18 137q-28 79 -113 108z" />
    <glyph glyph-name="uni0636" unicode="&#x636;" horiz-adv-x="1431" 
d="M1097 692q23 0 40 -17q16 -16 16 -39q0 -24 -16 -40q-17 -17 -40 -17t-40 17q-16 16 -16 40q0 23 16 39q17 17 40 17zM1252 446q68 -30 105 -94q66 -114 5 -228q-66 -124 -236 -124h-396q-84 0 -151 65q-10 -88 -77 -156q-79 -79 -192 -79q-112 0 -191 79t-79 192v227h74
v-227q0 -81 57 -138q58 -58 139 -58q82 0 140 58q57 57 57 138v227h74v-95q0 -65 47 -112q38 -39 90 -45h6q-20 59 3 132q45 146 216 223q169 77 309 15zM1191 389q-96 34 -228 -22q-122 -53 -164 -174q-21 -61 -1 -117h328q110 0 160 68q45 61 18 137q-28 79 -113 108z" />
    <glyph glyph-name="uni0637" unicode="&#x637;" horiz-adv-x="820" 
d="M166 926v-600q60 69 158 113q172 78 315 16q69 -29 107 -96q67 -115 5 -233q-67 -126 -240 -126h-201q-24 0 -36 1v-1h-234v76h50v850h76zM578 396q-101 35 -234 -22q-124 -52 -167 -177q-11 -29 -11 -47v-32q0 -14 10 -42h335q111 0 163 70q46 64 18 140
q-29 80 -114 110z" />
    <glyph glyph-name="uni0638" unicode="&#x638;" horiz-adv-x="820" 
d="M166 926v-600q60 69 158 113q172 78 315 16q69 -29 107 -96q67 -115 5 -233q-67 -126 -240 -126h-201q-24 0 -36 1v-1h-234v76h50v850h76zM483 692q23 0 40 -17q16 -16 16 -39q0 -24 -16 -40q-17 -17 -40 -17t-40 17q-16 16 -16 40q0 23 16 39q17 17 40 17zM578 396
q-101 35 -234 -22q-124 -52 -167 -177q-11 -29 -11 -47v-32q0 -14 10 -42h335q111 0 163 70q46 64 18 140q-29 80 -114 110z" />
    <glyph glyph-name="uni0639" unicode="&#x639;" horiz-adv-x="703" 
d="M418 468h22q151 0 224 -112h-102q-50 38 -122 38h-22q-81 0 -136 -50q-48 -44 -53 -109t42 -110q50 -49 147 -49h245v-76h-548q-7 -22 0 -45q9 -27 37 -31l109 -20l-17 -74l-124 27q-43 9 -64 56q-16 36 -16 87v76h173q-45 47 -56 116q-9 66 19 129q30 66 88 104
q66 43 154 43z" />
    <glyph glyph-name="uni063A" unicode="&#x63a;" horiz-adv-x="703" 
d="M422 678q23 0 39 -16q17 -17 17 -40t-17 -40q-16 -16 -39 -16q-24 0 -40 16q-17 17 -17 40t17 40q16 16 40 16zM418 468h22q151 0 224 -112h-102q-50 38 -122 38h-22q-81 0 -136 -50q-48 -44 -53 -109t42 -110q50 -49 147 -49h245v-76h-548q-7 -22 0 -45q9 -27 37 -31
l109 -20l-17 -74l-124 27q-43 9 -64 56q-16 36 -16 87v76h173q-45 47 -56 116q-9 66 19 129q30 66 88 104q66 43 154 43z" />
    <glyph glyph-name="uni0640" unicode="&#x640;" horiz-adv-x="115" 
d="M135 0h-155v76h155v-76z" />
    <glyph glyph-name="uni0641" unicode="&#x641;" horiz-adv-x="1237" 
d="M923 678q23 0 39.5 -16.5t16.5 -39.5t-17 -40q-16 -16 -39 -16q-24 0 -40.5 16.5t-16.5 39.5t16.5 39.5t40.5 16.5zM886 472q86 8 153 -18q38 -15 70 -41q30 -24 49 -54q43 -64 39 -146q-4 -76 -59 -137q-73 -76 -201 -76h-718q-74 0 -126.5 52.5t-52.5 126.5h75
q0 -44 31 -73q29 -31 73 -31l484 1q-54 54 -59.5 134t39.5 149q20 32 48 55q64 52 155 58zM931 398h-22q-81 0 -133 -46.5t-57 -114.5q-5 -69 45.5 -115t144.5 -46h22q93 0 144.5 46.5t46.5 114.5t-57.5 114.5t-133.5 46.5z" />
    <glyph glyph-name="uni0642" unicode="&#x642;" horiz-adv-x="975" 
d="M597 662q24 0 41 -17t17 -40q0 -24 -17 -41t-41 -17q-23 0 -40 17t-17 41q0 23 17 40t40 17zM755 662q24 0 41 -17t17 -40q0 -24 -17 -41t-41 -17q-23 0 -40 17t-17 41q0 23 17 40t40 17zM626 472q90 6 153 -16q37 -14 69 -42l20 -18q16 -17 29 -37q31 -51 38 -100v-248
q0 -74 -54 -127.5t-127 -53.5h-535q-74 0 -126.5 52.5t-52.5 126.5h75q0 -44 31 -73q29 -31 73 -31l535 1q43 0 74 30.5t31 74.5v47l-1 -1q-57 -57 -182 -57h-38q-119 0 -196 76q-54 54 -59 138q-4 78 39 145q3 3 4 5q2 4 3 5q0 1 4 5.5t6 7.5q1 2 13 14l19 18q53 51 155 58
zM671 399h-22q-81 0 -134 -48t-57 -114q-5 -69 46 -115t145 -46h22q93 0 144 46t46 115q-5 68 -57 115t-133 47z" />
    <glyph glyph-name="uni0643" unicode="&#x643;" horiz-adv-x="978" 
d="M938 917v-736q0 -73 -54 -127t-127 -54h-538q-74 0 -126.5 52.5t-52.5 126.5h75q0 -44 31 -73q29 -31 73 -31l538 1q43 0 74 30.5t31 74.5v736h76zM553 566v-44q-82 13 -103 -32q-13 -26 2 -54t50 -37h59v-43h-175v43h31q-26 48 -22 88t46.5 63t111.5 16z" />
    <glyph glyph-name="uni0644" unicode="&#x644;" horiz-adv-x="623" 
d="M584 911v-809q0 -113 -80 -193q-79 -79 -193 -79q-112 0 -191 79q-80 80 -80 193v90h75v-90q0 -80 57 -139q59 -59 139 -59q82 0 141 59q58 58 58 139v809h74z" />
    <glyph glyph-name="uni0645" unicode="&#x645;" horiz-adv-x="695" 
d="M423 461q96 0 163.5 -67.5t67.5 -162.5q0 -97 -67 -164t-164 -67q-90 0 -158 64q-10 -100 -100 -192q-20 -19 -51 -40l-74 43q36 17 67 47q80 77 86 187v122q0 94 68 162t162 68zM423 387q-62 0 -108.5 -46.5t-46.5 -109.5v-1q0 -64 45.5 -109.5t109.5 -45.5q65 0 110 45
t45 111q0 65 -45 109q-45 47 -110 47z" />
    <glyph glyph-name="uni0646" unicode="&#x646;" horiz-adv-x="628" 
d="M317 630q23 0 40 -17q16 -16 16 -40t-16 -40q-17 -17 -40 -17q-24 0 -41 17q-16 16 -16 40t16 40q17 17 41 17zM588 474v-371q0 -116 -80 -195q-79 -80 -195 -80q-113 0 -193 80t-80 195v229h75v-229q0 -83 58 -141t140 -58q84 0 142 58t58 141v371h75z" />
    <glyph glyph-name="uni0647" unicode="&#x647;" horiz-adv-x="541" 
d="M271 442q94 0 162 -68t68 -162v-212l-77 3v209q0 65 -45 110.5t-108 45.5q-65 0 -110 -47q-45 -43 -45 -109t45 -111t110 -45q40 0 73 18l34 -66q-48 -27 -107 -27q-97 0 -164 67t-67 164q0 95 67.5 162.5t163.5 67.5z" />
    <glyph glyph-name="uni0648" unicode="&#x648;" horiz-adv-x="541" 
d="M271 461q94 0 162 -68t68 -162v-103q-11 -120 -89 -197t-191 -77q-23 0 -44 3v77q17 -4 44 -4q84 0 142 58q26 26 41 65q-48 -53 -133 -53q-97 0 -164 67t-67 164q0 95 67.5 162.5t163.5 67.5zM271 387q-65 0 -110 -47q-45 -44 -45 -109q0 -66 45 -111t110 -45
q63 0 110 45q45 46 45 110v1q0 63 -46.5 109.5t-108.5 46.5z" />
    <glyph glyph-name="uni0649" unicode="&#x649;" horiz-adv-x="1026" 
d="M833 646l-3 -75q-1 -1 -30 -7q-109 -19 -124 -30q-24 -17 -30 -50q-8 -40 21 -63q19 -15 76 -29q93 -21 112 -27q77 -27 110 -89q30 -55 16 -121q-13 -63 -61 -108q-52 -46 -121 -46h-614q-49 0 -90 33q-55 43 -55 111q0 69 58 112q22 17 120 62l-3 -84q-59 -26 -68 -32
q-43 -28 -28 -77t67 -49h562q65 0 109 29q39 26 47 68t-21 77q-34 40 -99 56q-119 30 -120 31q-65 24 -84 79q-11 30 -11 65q2 54 35 87q24 25 174 63z" />
    <glyph glyph-name="uni064A" unicode="&#x64a;" horiz-adv-x="1026" 
d="M833 644l-3 -75q-1 -1 -30 -7q-109 -19 -124 -30q-24 -17 -30 -50q-8 -40 21 -63q19 -15 76 -29q93 -21 112 -27q77 -27 110 -89q30 -55 16 -121q-13 -63 -61 -108q-52 -46 -121 -46h-614q-49 0 -90 33q-55 43 -55 111q0 69 58 112q22 17 120 62l-3 -84q-59 -26 -68 -32
q-43 -28 -28 -77t67 -49h562q65 0 109 29q39 26 47 68t-21 77q-34 40 -99 56q-119 30 -120 31q-65 24 -84 79q-11 30 -11 65q2 54 35 87q24 25 174 63zM431 -82q24 0 41 -17t17 -40q0 -24 -17 -41t-41 -17q-23 0 -40 17t-17 41q0 23 17 40t40 17zM589 -82q24 0 41 -17
t17 -40q0 -24 -17 -41t-41 -17q-23 0 -40 17t-17 41q0 23 17 40t40 17z" />
    <glyph glyph-name="uni064B" unicode="&#x64b;" horiz-adv-x="0" 
d="M98 70h-198v31h198v-31zM98 0h-198v31h198v-31z" />
    <glyph glyph-name="uni064C" unicode="&#x64c;" horiz-adv-x="0" 
d="M72 288l-128 -74q-28 -16 -37 -48q-6 -25 1 -46l-26 -15q-13 32 -4 68q12 44 51 67l128 75zM76 221q37 -10 57 -44q19 -35 9 -72q-11 -38 -44 -57l-45 -26q-44 -20 -85 -9q-46 11 -66 51l-8 16l27 15q5 -13 7 -16q17 -29 49 -38q15 -4 38 1q-29 12 -45 39l-48 83l83 48
q34 19 71 9zM68 191q-27 8 -48 -5l-56 -32l33 -57q13 -23 39 -30t48 6t30 39q6 27 -7 49q-13 23 -39 30z" />
    <glyph glyph-name="uni064D" unicode="&#x64d;" horiz-adv-x="0" 
d="M98 -31h-198v31h198v-31zM98 -101h-198v31h198v-31z" />
    <glyph glyph-name="uni064E" unicode="&#x64e;" horiz-adv-x="0" 
d="M98 0h-198v31h198v-31z" />
    <glyph glyph-name="uni064F" unicode="&#x64f;" horiz-adv-x="0" 
d="M76 221q37 -10 57 -44q19 -35 9 -72q-11 -38 -44 -57l-45 -26q-44 -20 -85 -9q-46 11 -66 51l-8 16l27 15q1 -7 7 -16q17 -29 49 -38q15 -4 38 1q-29 12 -45 39l-48 83l83 48q34 19 71 9zM68 191q-27 8 -48 -5l-56 -32l33 -57q13 -23 39 -30t48 6t30 39q6 27 -7 49
q-13 23 -39 30z" />
    <glyph glyph-name="uni0650" unicode="&#x650;" horiz-adv-x="0" 
d="M98 -31h-198v31h198v-31z" />
    <glyph glyph-name="uni0651" unicode="&#x651;" horiz-adv-x="0" 
d="M173 189v-95q0 -39 -27 -66q-28 -28 -67 -28q-51 0 -79 43q-27 -43 -79 -43q-42 0 -67 28l-7 8q-20 24 -20 57v40h30v-47q3 -20 18 -37q19 -19 46 -19q26 0 45 19t19 45v71h30v-71q0 -26 19 -45t45 -19q27 0 46 19t19 45v95h29z" />
    <glyph glyph-name="uni0652" unicode="&#x652;" horiz-adv-x="0" 
d="M0 190q39 0 67 -28t28 -68q0 -38 -28 -66q-27 -28 -66 -28h-96v96q0 38 28 66t67 28zM1 159q-27 0 -46 -19q-20 -20 -20 -44v-65h66q27 0 46 19t19 45q0 27 -19 45q-19 19 -46 19z" />
    <glyph glyph-name="uni0653" unicode="&#x653;" horiz-adv-x="0" 
d="M-27 61l55 -28q8 -2 11 -1l31 14v-31l-36 -15l-56 27q-4 3 -12 1l-36 -13v31z" />
    <glyph glyph-name="uni0654" unicode="&#x654;" horiz-adv-x="0" 
d="M60 162v-34q-63 10 -79 -25q-9 -21 1 -40q10 -23 39 -30h46v-33h-135v33h23q-31 55 -5 95q28 41 110 34z" />
    <glyph glyph-name="uni0656" unicode="&#x656;" horiz-adv-x="0" 
d="M15 -99h-29v99h29v-99z" />
    <glyph glyph-name="uni0660" unicode="&#x660;" 
d="M283 921q94 0 166 -70q69 -69 69 -165v-465q0 -97 -69 -166q-68 -68 -166 -68t-166 68t-68 166v465q0 97 68 165q70 70 166 70zM283 845q-64 0 -113 -46q-46 -46 -46 -113v-465q0 -65 46 -113q49 -46 113 -46q66 0 112 46q48 46 48 113v465q0 68 -48 113q-46 46 -112 46z
" />
    <glyph glyph-name="uni0661" unicode="&#x661;" 
d="M185 911h89q44 0 76 -32t32 -76v-803h-76v803q0 34 -32 34h-89v74z" />
    <glyph glyph-name="uni0662" unicode="&#x662;" 
d="M285 921q95 0 164 -69q68 -68 68 -160q0 -79 -49 -140l-338 -427q-13 -17 -4 -33q11 -17 28 -17h364v-75h-364q-68 0 -94 60q-11 21 -11 46q0 38 23 65l337 427q32 43 32 95q0 62 -46 107q-44 45 -110 45q-65 0 -114 -46q-46 -46 -46 -113v-56h-75v56q0 97 68 165
q70 70 167 70z" />
    <glyph glyph-name="uni0663" unicode="&#x663;" 
d="M283 921q94 0 166 -70q69 -69 69 -165v-35q0 -128 -108 -197q108 -70 108 -197v-36q0 -96 -69 -165q-67 -69 -166 -69q-96 0 -165 69t-69 165v60h75v-60q0 -66 46 -113q47 -46 113 -46t112 46q48 48 48 113v36q0 65 -48 111q-47 48 -112 48h-68v75h68q66 0 112 46
q48 48 48 114v35q0 68 -48 113q-46 46 -112 46q-64 0 -113 -46q-46 -46 -46 -113v-56h-75v56q0 97 68 165q70 70 166 70z" />
    <glyph glyph-name="uni0664" unicode="&#x664;" 
d="M356 921q40 0 67.5 -27.5t27.5 -67.5v-532q0 -13 15 -13h51v-75h-51q-15 0 -15 -15v-191h-75v191q0 15 -14 15h-198q-62 0 -96 51q-18 27 -18 62q0 25 8 45l212 498q24 59 86 59zM361 844q-16 3 -22 -11l-211 -499q-8 -19 3.5 -36t32.5 -17h198q14 0 14 13v532
q0 16 -15 18z" />
    <glyph glyph-name="uni0665" unicode="&#x665;" 
d="M480 835h-323q-33 0 -33 -32v-179q0 -34 33 -34h126q96 0 166 -70q69 -69 69 -164v-135q0 -96 -69 -165q-67 -69 -166 -69q-96 0 -165 69t-69 165v59h75v-59q0 -66 46 -113q47 -46 113 -46t112 46q48 48 48 113v135q0 66 -48 112q-47 48 -112 48h-126q-45 0 -76.5 31.5
t-31.5 76.5v179q0 44 31.5 76t76.5 32h323v-76z" />
    <glyph glyph-name="uni0666" unicode="&#x666;" 
d="M480 835h-195q-68 0 -115 -47q-46 -46 -46 -113v-134q0 -14 11 -5q67 55 151 54q95 -1 164 -70q68 -68 68 -164v-135q0 -96 -69 -165q-67 -69 -166 -69q-96 0 -165 69t-69 165v454q0 97 69 166q69 70 167 70h195v-76zM286 516q-67 1 -115 -47q-47 -47 -47 -113v-135
q0 -66 46 -113q47 -46 113 -46t112 46q48 48 48 113v135q0 65 -47 112q-45 48 -110 48z" />
    <glyph glyph-name="uni0667" unicode="&#x667;" 
d="M157 911h253q44 0 76 -32t32 -76v-94q0 -83 -23 -158l-161 -551h-77l166 572q20 64 20 137v94q0 32 -33 32h-253q-33 0 -33 -32v-173h-75v173q0 44 31.5 76t76.5 32z" />
    <glyph glyph-name="uni0668" unicode="&#x668;" 
d="M283 921q94 0 166 -70q69 -69 69 -165v-35q0 -128 -108 -197q108 -70 108 -197v-36q0 -96 -69 -165q-67 -69 -166 -69q-96 0 -165 69t-69 165v36q0 127 108 197q-108 69 -108 197v35q0 97 68 165q70 70 166 70zM283 845q-64 0 -113 -46q-46 -46 -46 -113v-35
q0 -67 46 -114q47 -46 113 -46t112 46q48 48 48 114v35q0 68 -48 113q-46 46 -112 46zM283 416q-65 0 -113 -48q-46 -46 -46 -111v-36q0 -66 46 -113q47 -46 113 -46t112 46q48 48 48 113v36q0 65 -48 111q-47 48 -112 48z" />
    <glyph glyph-name="uni0669" unicode="&#x669;" 
d="M283 921q94 0 166 -70q69 -69 69 -165v-450q0 -96 -69 -167q-71 -69 -167 -69h-196v75h196q68 0 113 47q48 46 48 114v134q0 4 -4 6q-3 1 -7 -1q-67 -55 -151 -55q-96 1 -164 69q-68 70 -68 165v132q0 97 68 165q70 70 166 70zM283 845q-64 0 -113 -46q-46 -46 -46 -113
v-132q0 -65 46 -111q46 -47 111 -48q66 -1 114 45q48 48 48 114v132q0 68 -48 113q-46 46 -112 46z" />
    <glyph glyph-name="uni066A" unicode="&#x66a;" horiz-adv-x="539" 
d="M168 919q50 0 85.5 -35.5t35.5 -85.5t-35.5 -85.5t-85.5 -35.5q-49 0 -85 36t-36 85q0 50 35.5 85.5t85.5 35.5zM123 0h-74l367 911h75zM168 844q-19 0 -32 -13.5t-13 -32.5t13 -32t32 -13t32.5 13t13.5 32t-13.5 32.5t-32.5 13.5zM371 232q50 0 85 -35t35 -85t-35 -86
t-85 -36t-86 36t-36 86t36 85t86 35zM371 157q-19 0 -32.5 -13t-13.5 -32q0 -20 13.5 -33t32.5 -13q18 0 31.5 13.5t13.5 32.5t-13.5 32t-31.5 13z" />
    <glyph glyph-name="uni0670" unicode="&#x670;" horiz-adv-x="0" 
d="M15 0h-29v99h29v-99z" />
    <glyph glyph-name="hyphentwo" unicode="&#x2010;" horiz-adv-x="490" 
d="M441 416h-392v75h392v-75z" />
    <glyph glyph-name="endash" unicode="&#x2013;" horiz-adv-x="490" 
d="M441 416h-392v75h392v-75z" />
    <glyph glyph-name="emdash" unicode="&#x2014;" horiz-adv-x="488" 
d="M440 416h-393v75h393v-75z" />
    <glyph glyph-name="quoteleft" unicode="&#x2018;" horiz-adv-x="173" 
d="M124 911l-32 -61q-5 -12 9 -12h23v-157h-75v157l37 73h38z" />
    <glyph glyph-name="quoteright" unicode="&#x2019;" horiz-adv-x="173" 
d="M124 755l-38 -74h-37l31 61q3 6 0.5 9.5t-8.5 3.5h-23v156h75v-156z" />
    <glyph glyph-name="quotedblleft" unicode="&#x201c;" horiz-adv-x="292" 
d="M124 911l-30 -61q-5 -12 7 -12h23v-157h-74v157l36 73h38zM242 911l-30 -61q-5 -12 7 -12h23v-157h-74v157l38 73h36z" />
    <glyph glyph-name="quotedblright" unicode="&#x201d;" horiz-adv-x="292" 
d="M124 755l-38 -74h-36l30 61q6 13 -7 13h-23v156h74v-156zM242 755l-36 -74h-38l30 61q6 13 -7 13h-23v156h74v-156z" />
    <glyph glyph-name="bullet" unicode="&#x2022;" horiz-adv-x="1026" 
d="M513 919q192 0 328 -136q137 -136 137 -328t-137 -329q-136 -136 -328 -136t-328 136q-136 137 -136 329t136 328t328 136z" />
    <glyph glyph-name="ellipsis" unicode="&#x2026;" horiz-adv-x="491" 
d="M443 0h-394v75h394v-75z" />
    <glyph glyph-name="guilsinglleft" unicode="&#x2039;" horiz-adv-x="305" 
d="M257 911l-131 -445q-1 -4 -1 -10t1 -10l131 -446h-75l-133 456l133 455h75z" />
    <glyph glyph-name="guilsinglright" unicode="&#x203a;" horiz-adv-x="305" 
d="M257 456l-134 -456h-74l130 446q2 8 2 10t-2 10l-130 445h74z" />
    <glyph glyph-name="fraction" unicode="&#x2044;" horiz-adv-x="440" 
d="M124 0h-75l267 911h76z" />
    <glyph glyph-name="trademark" unicode="&#x2122;" horiz-adv-x="500" 
d="M412 253q39 -5 39 -43v-210h-44v162q0 3 -3 3q-3 2 -5 -3l-28 -135q-6 -29 -37 -29q-30 0 -36 29l-27 135q-1 3 -5 3q-3 0 -3 -3v-162h-44v210q0 37 39 43q37 3 46 -34q21 -98 30 -152l32 152q7 37 46 34zM198 208h-42q-10 0 -10 -11v-197h-44v197q0 11 -11 11h-42v42
h149v-42z" />
    <glyph glyph-name="product" unicode="&#x220f;" horiz-adv-x="491" 
d="M443 835h-394v76h394v-76zM443 606h-146q-14 0 -14 -15v-591h-75v591q0 15 -13 15h-146v74h394v-74z" />
    <glyph glyph-name="minus" unicode="&#x2212;" horiz-adv-x="439" 
d="M416 416h-393v75h393v-75z" />
    <glyph glyph-name="bulletoperator" unicode="&#x2219;" horiz-adv-x="173" 
d="M124 378h-75v113h75v-113z" />
    <glyph glyph-name="uniF8FF" unicode="&#xf8ff;" horiz-adv-x="815" 
d="M114 812h293q149 0 253 -104q106 -105 106 -253q0 -139 -91 -240q-92 -101 -226 -117q-12 -2 -22 3t-14 16l-40 121q-7 21 14 21h22q87 0 148 61q62 62 62 152q0 88 -61 149q-60 61 -149 61h-293q-27 0 -47 19t-20 47q0 29 18 46.5t47 17.5zM112 553h297q36 0 58.5 -22.5
t22.5 -58.5q0 -34 -23 -59t-58 -25h-69q-18 0 -26 18l-9 23q-17 43 -61 43q-26 0 -45 -19t-19 -46q0 -12 4 -20l80 -225q1 -3 1 -8q0 -17 -18 -17q-6 0 -14 4q-84 47 -134 131t-50 183v35q0 25 18.5 44t44.5 19z" />
    <glyph glyph-name="behar.init.ordn" horiz-adv-x="344" 
d="M304 476v-293q0 -75 -54 -129t-129 -54h-141v76h141q44 0 75 31t31 76v293h77zM186 -59q24 0 41 -17t17 -40q0 -24 -17 -41t-41 -17q-23 0 -40 17t-17 41q0 23 17 40t40 17z" />
    <glyph glyph-name="yehar.init.ordn" horiz-adv-x="356" 
d="M316 476v-293q0 -75 -54 -129t-129 -54h-153v76h153q44 0 75 31t31 76v293h77zM75 -110q24 0 41 -17t17 -40q0 -24 -17 -41t-41 -17q-23 0 -40 17t-17 41q0 23 17 40t40 17zM233 -110q24 0 41 -17t17 -40q0 -24 -17 -41t-41 -17q-23 0 -40 17t-17 41q0 23 17 40t40 17z
" />
    <glyph glyph-name="yehar.medi.ordn" horiz-adv-x="411" 
d="M291 476v-293q0 -45 31 -76q32 -31 76 -31h33v-76h-33q-79 0 -130 54l-15 16l-15 -16q-51 -54 -129 -54h-129v76h129q44 0 75 31t31 76v293h76zM174 -110q24 0 41 -17t17 -40q0 -24 -17 -41t-41 -17q-23 0 -40 17t-17 41q0 23 17 40t40 17zM332 -110q24 0 41 -17t17 -40
q0 -24 -17 -41t-41 -17q-23 0 -40 17t-17 41q0 23 17 40t40 17z" />
    <glyph glyph-name="uni064B0651" horiz-adv-x="0" 
d="M98 290h-198v31h198v-31zM98 220h-198v31h198v-31zM173 189v-95q0 -39 -27 -66q-28 -28 -67 -28q-51 0 -79 43q-27 -43 -79 -43q-42 0 -67 28l-7 8q-20 24 -20 57v40h30v-47q3 -20 18 -37q19 -19 46 -19q26 0 45 19t19 45v71h30v-71q0 -26 19 -45t45 -19q27 0 46 19
t19 45v95h29z" />
    <glyph glyph-name="uni064C0651" horiz-adv-x="0" 
d="M72 488l-129 -74q-28 -16 -37 -48q-6 -23 2 -46l-27 -15q-14 35 -4 68q12 44 51 67l129 75zM75 421q37 -10 57 -44q20 -36 10 -72q-10 -37 -44 -57l-46 -26q-44 -20 -84 -9q-47 11 -67 51l-8 16l27 15l8 -16q14 -28 48 -38q16 -4 39 1q-29 12 -46 39l-48 83l84 48
q34 19 70 9zM67 391q-27 8 -48 -5l-55 -32l33 -57q14 -23 38 -30q25 -7 48 6t30 39q7 25 -7 49q-14 23 -39 30zM173 189v-95q0 -39 -27 -66q-28 -28 -67 -28q-51 0 -79 43q-27 -43 -79 -43q-42 0 -67 28l-7 8q-20 24 -20 57v40h30v-47q3 -20 18 -37q19 -19 46 -19
q26 0 45 19t19 45v71h30v-71q0 -26 19 -45t45 -19q27 0 46 19t19 45v95h29z" />
    <glyph glyph-name="uni064D0651" horiz-adv-x="0" 
d="M173 339v-95q0 -39 -27 -66q-28 -28 -67 -28q-51 0 -79 43q-27 -43 -79 -43q-42 0 -67 28l-7 8q-20 24 -20 57v40h30v-47q3 -20 18 -37q19 -19 46 -19q26 0 45 19t19 45v71h30v-71q0 -26 19 -45t45 -19q27 0 46 19t19 45v95h29zM98 70h-198v31h198v-31zM98 0h-198v31h198
v-31z" />
    <glyph glyph-name="uni064E0651" horiz-adv-x="0" 
d="M98 210h-198v31h198v-31zM173 189v-95q0 -39 -27 -66q-28 -28 -67 -28q-51 0 -79 43q-27 -43 -79 -43q-42 0 -67 28l-7 8q-20 24 -20 57v40h30v-47q3 -20 18 -37q19 -19 46 -19q26 0 45 19t19 45v71h30v-71q0 -26 19 -45t45 -19q27 0 46 19t19 45v95h29z" />
    <glyph glyph-name="uni064F0651" horiz-adv-x="0" 
d="M75 421q37 -10 57 -44q20 -36 10 -72q-10 -37 -44 -57l-46 -26q-44 -20 -84 -9q-47 11 -67 51l-8 16l27 15l8 -16q14 -28 48 -38q16 -4 39 1q-29 12 -46 39l-48 83l84 48q34 19 70 9zM67 391q-27 8 -48 -5l-55 -32l33 -57q14 -23 38 -30q25 -7 48 6t30 39q7 25 -7 49
q-14 23 -39 30zM173 189v-95q0 -39 -27 -66q-28 -28 -67 -28q-51 0 -79 43q-27 -43 -79 -43q-42 0 -67 28l-7 8q-20 24 -20 57v40h30v-47q3 -20 18 -37q19 -19 46 -19q26 0 45 19t19 45v71h30v-71q0 -26 19 -45t45 -19q27 0 46 19t19 45v95h29z" />
    <glyph glyph-name="uni06500651" horiz-adv-x="0" 
d="M173 269v-95q0 -39 -27 -66q-28 -28 -67 -28q-51 0 -79 43q-27 -43 -79 -43q-42 0 -67 28l-7 8q-20 24 -20 57v40h30v-47q3 -20 18 -37q19 -19 46 -19q26 0 45 19t19 45v71h30v-71q0 -26 19 -45t45 -19q27 0 46 19t19 45v95h29zM98 0h-198v31h198v-31z" />
    <glyph glyph-name="newGlyph" horiz-adv-x="600" 
 />
    <glyph glyph-name="periodar" horiz-adv-x="173" 
d="M124 0h-75v113h75v-113z" />
  </font>
</defs>
</svg>
