<svg xmlns="http://www.w3.org/2000/svg">
<defs>
<font id="AraHamahAlislam-Regular" horiz-adv-x="0" >
  <font-face 
    font-family="Ara Hamah Alislam"
    font-weight="400"
    font-stretch="normal"
    units-per-em="1500"
    panose-1="0 0 5 0 0 0 0 0 0 0"
    ascent="1200"
    descent="-300"
    x-height="712"
    cap-height="712"
    bbox="-173.19 -459 1371 997"
    underline-thickness="50"
    underline-position="-50"
    unicode-range="U+000D-FEFC"
  />
<missing-glyph horiz-adv-x="897" 
d="M448 997h9q7 -1 12 -1h1q162 -8 274.5 -126t112.5 -282v-3q0 -11 -1 -16v-11q-1 -5 -1 -8q-1 -2 -1.5 -6.5t-0.5 -6.5v-5q-1 -2 -1 -7t-1 -8q0 -1 -1 -2q-20 -106 -88 -188l-39 40q79 97 79 222q0 147 -104 251t-251 104t-251 -104t-104 -251q0 -126 80 -224l-38 -38
q-67 82 -87 187q0 2 -1 3q0 3 -1 8t-1 7t-1 5q-1 5 -1 13q0 11 -2 19v16v3q0 170 119.5 289.5t288.5 119.5zM447 936q143 0 244.5 -101.5t101.5 -245.5q0 -122 -76 -216l-42 42q59 77 59 174q0 119 -84 203.5t-203 84.5t-203 -84.5t-84 -203.5q0 -98 60 -176l-41 -42
q-78 96 -78 218q0 144 101.5 245.5t244.5 101.5zM447 868q115 0 197 -81.5t82 -197.5q0 -95 -57 -168l-45 45q40 55 40 125q0 90 -64 153.5t-154 63.5t-153.5 -63.5t-63.5 -153.5q0 -71 42 -128l-45 -44q-58 74 -58 170q0 116 82 197.5t197 81.5zM446 692q40 0 68 -28
t28 -68q0 -38 -27 -67l245 -263h-623l242 260q-30 28 -30 70q0 40 28.5 68t68.5 28zM187 164h22v3q0 17 12 29t29 12t29 -12t12 -29v-3h8h60l-42 23q1 2 4.5 8.5t6.5 11.5v-1q10 -5 18 -10l17 -9q3 -2 10.5 -6.5t11.5 -6.5h1v-32h-84h-20q-12 -16 -32 -16t-33 16h-52v82h22
v-60zM460 224v-20q7 4 18 4h61v-66h-112v22h11v60h22zM654 224v-20q8 4 18 4h62v-44h70q-33 19 -42 23q1 1 5 9t6 10l35 -19l11 -7q7 -3 12 -6v-1v-31h-86h-141q-12 -23 -38 -23h-3v22h3q6 0 11 3q-12 3 -18 13.5t-5 20.5q3 26 30 30h5h21v-44h22v60h22zM810 207h-16v17h16
v-17zM111 207q18 0 30.5 -12.5t12.5 -30.5q0 -13 -8 -24h-70q-8 11 -8 24q0 18 12.5 30.5t30.5 12.5zM111 185q-20 0 -20 -21v-1h40l1 1q0 21 -21 21zM250 185q-18 0 -18 -18t18 -18t18 18t-18 18zM517 185h-38q-18 0 -18 -18v-3h56v21zM589 164v21q-14 -2 -14 -10

<glyph glyph-name="lam_alefMaddaar" unicode="&#xfedf;&#xfe82;" horiz-adv-x="533" arabic-form="isolated" 
d="M298 764l-9 -58l-91 -37h-105v48h105zM494 712v-525q0 -74 -53 -133q-59 -54 -134 -54h-267v147h267q40 0 40 40v525h147zM254 174h-152v441h152v-441z" />
    <glyph glyph-name="lam_alefMaddaar.fina" unicode="&#xfee0;&#xfe82;" horiz-adv-x="620" arabic-form="final" 
d="M298 764l-9 -58l-91 -37h-105v48h105zM494 712v-525q0 -15 -5 -40h152v-147h-601v147h263q44 0 44 40v525h147zM249 174h-147v441h147v-441z" />
    <glyph glyph-name="lam_alefHamzaabovear" unicode="&#xfedf;&#xfe84;" horiz-adv-x="538" arabic-form="isolated" 
d="M240 772h-49q-13 0 -13 -9v-44q0 -9 9 -9h67v-49h-63h-4h-85v49h31v9v44q0 58 58 58h49v-49zM498 712v-525q0 -76 -56 -131.5t-135 -55.5h-267v147h267q40 0 40 40v525h151zM254 174h-152v420h152v-420z" />
    <glyph glyph-name="lam_alefHamzaabovear.fina" unicode="&#xfee0;&#xfe84;" horiz-adv-x="621" arabic-form="final" 
d="M240 761h-53q-13 0 -13 -9v-44q0 -9 13 -9h67v-49h-67h-5h-80v49h27v9v44q0 58 58 58h53v-49zM494 712v-525q0 -15 -5 -40h152v-147h-601v147h267q40 0 40 40v525h147zM254 174h-152v420h152v-420z" />
    <glyph glyph-name="lam_alefHamzabelowar" unicode="&#xfedf;&#xfe88;" horiz-adv-x="533" arabic-form="isolated" 
d="M494 712v-525q0 -74 -53 -133q-59 -54 -134 -54h-267v147h267q40 0 40 40v525h147zM249 174h-147v441h147v-441zM236 -131h-54q-13 0 -13 -13v-41q0 -9 9 -13h67v-44h-152v44h32v13v41q0 57 57 57h54v-44z" />
    <glyph glyph-name="lam_alefHamzabelowar.fina" unicode="&#xfee0;&#xfe88;" horiz-adv-x="621" arabic-form="final" 
d="M494 712v-525q0 -15 -5 -40h152v-147h-601v147h263q44 0 44 40v525h147zM249 174h-147v441h147v-441zM236 -131h-54q-13 0 -13 -13v-41q0 -9 9 -13h67v-44h-152v44h32v13v41q0 57 57 57h54v-44z" />
    <glyph glyph-name="lam_alefar" unicode="&#xfedf;&#xfe8e;" horiz-adv-x="538" arabic-form="isolated" 
d="M498 712v-525q0 -76 -56 -131.5t-135 -55.5h-267v147h267q40 0 40 40v525h151zM254 174h-152v441h152v-441z" />
    <glyph glyph-name="lam_alefar.fina" unicode="&#xfee0;&#xfe8e;" horiz-adv-x="620" arabic-form="final" 
d="M494 712v-525q0 -15 -5 -40h152v-147h-601v147h263q44 0 44 40v525h147zM249 174h-147v441h147v-441z" />
    <glyph glyph-name="uniFBE8" unicode="&#x649;" horiz-adv-x="318" arabic-form="initial" 
d="M278 485v-298q0 -74 -53 -133q-54 -54 -134 -54h-111v147h111q40 0 40 40v298h147z" />
    <glyph glyph-name="uniFBE9" unicode="&#x649;" horiz-adv-x="414" arabic-form="medial" 
d="M283 485v-302q5 -36 40 -36h111v-147h-111q-67 0 -116 36q-49 -36 -116 -36h-111v147h111q35 0 40 36v302h152z" />
    <glyph glyph-name="uniFC5E" unicode="&#xfc5e;" arabic-form="isolated" 
d="M38 390l-150 -104l-4 -4q-12 -8 0 -23l26 -38l-42 -29l-29 42q-16 23 -11 49t27 42l22 15l131 93zM19 353l34 19q22 13 49 6t41 -31l43 -76l-157 -91q-24 -13 -50 -6.5t-40 30.5l-26 44l45 26l23 -40q11 -17 22 -10l11 7l-18 31q-14 24 -6 50q6 27 29 41zM79 326l-34 -19
q-12 -8 -5 -19l18 -31l58 33l-18 31q-8 12 -19 5zM124 139v-74q0 -27 -19 -46t-46 -19h-18q-23 0 -41 12q-16 -12 -40 -12h-18q-27 0 -46 19t-19 46v74h51v-74q0 -14 14 -14h18q13 0 14 13v70h53v-70q1 -13 14 -13h18q14 0 14 14v74h51z" />
    <glyph glyph-name="uniFC5F" unicode="&#xfc5f;" arabic-form="isolated" 
d="M124 339v-74q0 -27 -19 -46t-47 -19h-17q-25 0 -41 12q-16 -12 -41 -12h-18q-27 0 -46 19t-19 46v74h51v-74q0 -14 14 -14h18q13 0 14 13v70h54v-70q1 -13 14 -13h17q14 0 14 14v74h52zM116 100h-232v52h232v-52zM116 0h-232v52h232v-52z" />
    <glyph glyph-name="uniFC60" unicode="&#xfc60;" arabic-form="isolated" 
d="M116 190h-232v52h232v-52zM124 139v-74q0 -27 -19 -46t-47 -19h-17q-25 0 -41 12q-16 -12 -41 -12h-18q-27 0 -46 19t-19 46v74h51v-74q0 -14 14 -14h18q13 0 14 13v70h54v-70q1 -13 14 -13h17q14 0 14 14v74h52z" />
    <glyph glyph-name="uniFC61" unicode="&#xfc61;" arabic-form="isolated" 
d="M-31 349l33 19q23 13 49.5 6t40.5 -31l44 -76l-158 -91q-23 -13 -49 -6.5t-40 30.5l-26 44l45 26l23 -40q9 -17 21 -10l11 7l-18 31q-14 25 -5 50q6 27 29 41zM29 322l-34 -19q-12 -8 -5 -19l18 -31l58 33l-18 31q-8 12 -19 5zM124 139v-74q0 -27 -19 -46t-47 -19h-17
q-25 0 -41 12q-16 -12 -41 -12h-17q-28 0 -47 19t-19 46v74h52v-74q0 -14 14 -14h17q13 0 14 13v70h54v-70q1 -13 14 -13h17q14 0 14 14v74h52z" />
    <glyph glyph-name="uniFC62" unicode="&#xfc62;" arabic-form="isolated" 
d="M124 239v-74q0 -27 -19 -46t-47 -19h-17q-25 0 -41 12q-16 -12 -41 -12h-18q-27 0 -46 19t-19 46v74h51v-74q0 -14 14 -14h18q13 0 14 13v70h54v-70q1 -13 14 -13h17q14 0 14 14v74h52zM116 0h-232v52h232v-52z" />
    <glyph glyph-name="uniFC63" unicode="&#xfc63;" arabic-form="isolated" 
d="M26 170h-52v142h52v-142zM124 139v-74q0 -27 -19 -46t-47 -19h-17q-25 0 -41 12q-16 -12 -41 -12h-18q-27 0 -46 19t-19 46v74h51v-74q0 -14 14 -14h18q13 0 14 13v70h54v-70q1 -13 14 -13h17q14 0 14 14v74h52z" />
    <glyph glyph-name="alefMaddaar.fina" unicode="&#x622;" horiz-adv-x="318" arabic-form="final" 
d="M232 876l-9 -58l-91 -37h-105v48h105zM192 712v-525q0 -40 40 -40h106v-147h-106q-75 0 -134 53q-58 58 -58 134v525h152z" />
    <glyph glyph-name="alefHamzaabovear.fina" unicode="&#x623;" horiz-adv-x="318" arabic-form="final" 
d="M174 907h-53q-9 0 -9 -14v-44q0 -9 9 -9h66v-49h-151v49h27v53q0 58 58 58h53v-44zM192 712v-525q0 -40 40 -40h106v-147h-106q-75 0 -134 53q-58 58 -58 134v525h152z" />
    <glyph glyph-name="wawHamzaabovear.fina" unicode="&#x624;" horiz-adv-x="607" arabic-form="final" 
d="M321 688h-53q-9 0 -9 -14v-44q0 -9 9 -9h66v-49h-151v49h27v53q0 58 58 58h53v-44zM481 147h146v-147h-146v-36q0 -77 -54 -132t-133 -55h-147v147h133q54 0 54 40v36h-103q-81 0 -133 58q-58 52 -58 129v111q0 76 56 131.5t135 55.5h250v-338zM334 338h-103
q-40 0 -40 -40v-111q0 -40 40 -40h103v191z" />
    <glyph glyph-name="alefHamzabelowar.fina" unicode="&#x625;" horiz-adv-x="318" arabic-form="final" 
d="M192 712v-525q0 -40 40 -40h106v-147h-106q-75 0 -134 53q-58 58 -58 134v525h152zM178 -133h-53q-14 0 -14 -13v-41q0 -8 14 -13h62v-44h-147v44h27v54q0 57 58 57h53v-44z" />
    <glyph glyph-name="yehHamzaabovear.fina" unicode="&#x626;" horiz-adv-x="888" arabic-form="final" 
d="M219 293h-76q-13 0 -13 -17v-63q0 -13 13 -13h94v-67h-214v67h40v76q0 80 80 80h76v-63zM321 178h151q4 -31 40 -31h396v-147h-147v-40q0 -76 -53.5 -129.5t-133.5 -53.5h-342q-80 0 -136 55.5t-56 131.5v98h152v-98q0 -40 40 -40h329q53 0 53 36v40h-102
q-182 0 -191 178z" />
    <glyph glyph-name="yehHamzaabovear.init" unicode="&#x626;" horiz-adv-x="318" arabic-form="initial" 
d="M269 681h-53q-9 0 -9 -14v-44q0 -9 9 -9h66v-49h-151v49h27v53q0 58 58 58h53v-44zM278 485v-298q0 -74 -53 -133q-54 -54 -134 -54h-111v147h111q40 0 40 40v298h147z" />
    <glyph glyph-name="yehHamzaabovear.medi" unicode="&#x626;" horiz-adv-x="414" arabic-form="medial" 
d="M269 668h-53q-9 0 -9 -14v-44q0 -9 9 -9h66v-49h-151v49h27v53q0 58 58 58h53v-44zM283 485v-302q5 -36 40 -36h111v-147h-111q-67 0 -116 36q-49 -36 -116 -36h-111v147h111q35 0 40 36v302h152z" />
    <glyph glyph-name="uniFE8E" unicode="&#x627;" horiz-adv-x="318" arabic-form="final" 
d="M192 712v-525q0 -40 40 -40h106v-147h-106q-75 0 -134 53q-58 58 -58 134v525h152z" />
    <glyph glyph-name="behar.fina" unicode="&#x628;" horiz-adv-x="861" arabic-form="final" 
d="M734 147h147v-147h-654q-75 0 -134 54q-53 59 -53 133v298h147v-298q0 -40 40 -40h360v338h147v-338zM415 -108q81 0 81 -81q0 -80 -81 -80q-80 0 -80 80q0 81 80 81z" />
    <glyph glyph-name="behar.init" unicode="&#x628;" horiz-adv-x="318" arabic-form="initial" 
d="M278 485v-298q0 -74 -53 -133q-54 -54 -134 -54h-111v147h111q40 0 40 40v298h147zM146 -108q81 0 81 -81q0 -80 -81 -80q-80 0 -80 80q0 81 80 81z" />
    <glyph glyph-name="behar.medi" unicode="&#x628;" horiz-adv-x="414" arabic-form="medial" 
d="M283 485v-302q5 -36 40 -36h111v-147h-111q-67 0 -116 36q-49 -36 -116 -36h-111v147h111q35 0 40 36v302h152zM217 -108q81 0 81 -81q0 -80 -81 -80q-80 0 -80 80q0 81 80 81z" />
    <glyph glyph-name="tehMarbutaar.fina" unicode="&#x629;" horiz-adv-x="661" arabic-form="final" 
d="M201 745q81 0 81 -81q0 -80 -81 -80q-80 0 -80 80q0 81 80 81zM404 745q81 0 81 -81q0 -80 -81 -80q-80 0 -80 80q0 81 80 81zM539 147h142v-147h-449q-80 0 -136 55.5t-56 131.5v106q0 80 56 136t136 56h307v-338zM387 338h-155q-45 0 -45 -40v-111q0 -40 45 -40h155
v191z" />
    <glyph glyph-name="tehar.fina" unicode="&#x62a;" horiz-adv-x="861" arabic-form="final" 
d="M295 718q81 0 81 -81q0 -80 -81 -80q-80 0 -80 80q0 81 80 81zM498 718q81 0 81 -81q0 -80 -81 -80q-80 0 -80 80q0 81 80 81zM734 147h147v-147h-654q-75 0 -134 54q-53 59 -53 133v298h147v-298q0 -40 40 -40h360v338h147v-338z" />
    <glyph glyph-name="tehar.init" unicode="&#x62a;" horiz-adv-x="527" arabic-form="initial" 
d="M206 745q81 0 81 -81q0 -80 -81 -80q-80 0 -80 80q0 81 80 81zM409 745q81 0 81 -81q0 -80 -81 -80q-80 0 -80 80q0 81 80 81zM487 485v-298q0 -74 -53 -133q-54 -54 -134 -54h-320v147h320q40 0 40 40v298h147z" />
    <glyph glyph-name="tehar.medi" unicode="&#x62a;" horiz-adv-x="506" arabic-form="medial" 
d="M195 745q81 0 81 -81q0 -80 -81 -80q-80 0 -80 80q0 81 80 81zM398 745q81 0 81 -81q0 -80 -81 -80q-80 0 -80 80q0 81 80 81zM375 485v-302q5 -36 40 -36h111v-147h-111q-67 0 -116 36q-49 -36 -116 -36h-203v147h203q35 0 40 36v302h152z" />
    <glyph glyph-name="thehar.fina" unicode="&#x62b;" horiz-adv-x="861" arabic-form="final" 
d="M398 908q81 0 81 -81q0 -80 -81 -80q-80 0 -80 80q0 81 80 81zM295 718q81 0 81 -81q0 -80 -81 -80q-80 0 -80 80q0 81 80 81zM498 718q81 0 81 -81q0 -80 -81 -80q-80 0 -80 80q0 81 80 81zM734 147h147v-147h-654q-75 0 -134 54q-53 59 -53 133v298h147v-298
q0 -40 40 -40h360v338h147v-338z" />
    <glyph glyph-name="thehar.init" unicode="&#x62b;" horiz-adv-x="530" arabic-form="initial" 
d="M309 935q81 0 81 -81q0 -80 -81 -80q-80 0 -80 80q0 81 80 81zM206 745q81 0 81 -81q0 -80 -81 -80q-80 0 -80 80q0 81 80 81zM409 745q81 0 81 -81q0 -80 -81 -80q-80 0 -80 80q0 81 80 81zM487 485v-298q0 -74 -53 -133q-54 -54 -134 -54h-320v147h320q40 0 40 40v298
h147z" />
    <glyph glyph-name="thehar.medi" unicode="&#x62b;" horiz-adv-x="506" arabic-form="medial" 
d="M298 935q81 0 81 -81q0 -80 -81 -80q-80 0 -80 80q0 81 80 81zM195 745q81 0 81 -81q0 -80 -81 -80q-80 0 -80 80q0 81 80 81zM398 745q81 0 81 -81q0 -80 -81 -80q-80 0 -80 80q0 81 80 81zM375 485v-302q5 -36 40 -36h111v-147h-111q-67 0 -116 36q-49 -36 -116 -36
h-203v147h203q35 0 40 36v302h152z" />
    <glyph glyph-name="jeemar.fina" unicode="&#x62c;" horiz-adv-x="652" arabic-form="final" 
d="M142 485h192q80 0 133 -57q58 -54 58 -134v-147h147v-147h-445q-35 0 -40 -35q4 -40 40 -40h18v-147h-18q-75 0 -134 53q-53 55 -53 134q0 182 187 182h147v147q0 40 -40 40h-192v151zM392 -71q80 0 80 -81q0 -80 -80 -80q-81 0 -81 80q0 81 81 81z" />
    <glyph glyph-name="jeemar.init" unicode="&#x62c;" horiz-adv-x="550" arabic-form="initial" 
d="M131 485h192q80 0 133 -53q54 -58 54 -133v-299h-530v147h383v152q0 40 -40 40h-192v146zM262 -108q81 0 81 -81q0 -80 -81 -80q-80 0 -80 80q0 81 80 81z" />
    <glyph glyph-name="jeemar.medi" unicode="&#x62c;" horiz-adv-x="637" arabic-form="medial" 
d="M127 485h191q80 0 134 -57q58 -54 58 -134v-147h146v-147h-676v147h378v147q0 40 -40 40h-191v151zM291 -108q81 0 81 -81q0 -80 -81 -80q-80 0 -80 80q0 81 80 81z" />
    <glyph glyph-name="hahar.fina" unicode="&#x62d;" horiz-adv-x="652" arabic-form="final" 
d="M142 485h192q80 0 133 -57q58 -54 58 -134v-147h147v-147h-445q-35 0 -40 -35q4 -40 40 -40h18v-147h-18q-75 0 -134 53q-53 55 -53 134q0 182 187 182h147v147q0 40 -40 40h-192v151z" />
    <glyph glyph-name="hahar.init" unicode="&#x62d;" horiz-adv-x="550" arabic-form="initial" 
d="M131 485h192q80 0 133 -53q54 -58 54 -133v-299h-530v147h383v152q0 40 -40 40h-192v146z" />
    <glyph glyph-name="hahar.medi" unicode="&#x62d;" horiz-adv-x="637" arabic-form="medial" 
d="M127 485h191q80 0 134 -57q58 -54 58 -134v-147h146v-147h-676v147h378v147q0 40 -40 40h-191v151z" />
    <glyph glyph-name="khahar.fina" unicode="&#x62e;" horiz-adv-x="652" arabic-form="final" 
d="M255 745q81 0 81 -81q0 -80 -81 -80q-80 0 -80 80q0 81 80 81zM142 485h192q80 0 133 -57q58 -54 58 -134v-147h147v-147h-445q-35 0 -40 -35q4 -40 40 -40h18v-147h-18q-75 0 -134 53q-53 55 -53 134q0 182 187 182h147v147q0 40 -40 40h-192v151z" />
    <glyph glyph-name="khahar.init" unicode="&#x62e;" horiz-adv-x="550" arabic-form="initial" 
d="M255 745q81 0 81 -81q0 -80 -81 -80q-80 0 -80 80q0 81 80 81zM131 485h192q80 0 133 -53q54 -58 54 -133v-299h-530v147h383v152q0 40 -40 40h-192v146z" />
    <glyph glyph-name="khahar.medi" unicode="&#x62e;" horiz-adv-x="637" arabic-form="medial" 
d="M255 745q81 0 81 -81q0 -80 -81 -80q-80 0 -80 80q0 81 80 81zM127 485h191q80 0 134 -57q58 -54 58 -134v-147h146v-147h-676v147h378v147q0 40 -40 40h-191v151z" />
    <glyph glyph-name="dalar.fina" unicode="&#x62f;" horiz-adv-x="563" arabic-form="final" 
d="M142 485h103q81 0 133 -57q58 -54 58 -134v-147h147v-147h-543v147h245v147q0 40 -40 40h-103v151z" />
    <glyph glyph-name="thalar.fina" unicode="&#x630;" horiz-adv-x="563" arabic-form="final" 
d="M255 745q81 0 81 -81q0 -80 -81 -80q-80 0 -80 80q0 81 80 81zM142 485h103q81 0 133 -57q58 -54 58 -134v-147h147v-147h-543v147h245v147q0 40 -40 40h-103v151z" />
    <glyph glyph-name="rehar.fina" unicode="&#x631;" horiz-adv-x="456" arabic-form="final" 
d="M329 147h147v-147h-147v-35q0 -76 -58 -134q-58 -53 -133 -53h-98v147h98q40 0 40 40v520h151v-338z" />
    <glyph glyph-name="zainar.fina" unicode="&#x632;" horiz-adv-x="456" arabic-form="final" 
d="M255 745q81 0 81 -81q0 -80 -81 -80q-80 0 -80 80q0 81 80 81zM329 147h147v-147h-147v-35q0 -76 -58 -134q-58 -53 -133 -53h-98v147h98q40 0 40 40v520h151v-338z" />
    <glyph glyph-name="seenar.fina" unicode="&#x633;" horiz-adv-x="1248" arabic-form="final" 
d="M1117 485v-293q0 -20 -5 -45h156v-147h-391q-67 0 -116 40q-49 -40 -116 -40h-93v-35q0 -75 -54 -134q-58 -53 -133 -53h-134q-80 0 -135.5 55.5t-55.5 131.5v182h151v-182q0 -40 40 -40h134q40 0 40 40v427h147v-245h93q40 0 40 45v293l152 -31v-262q0 -45 40 -45h53
q40 0 40 45v293h147z" />
    <glyph glyph-name="seenar.init" unicode="&#x633;" horiz-adv-x="870" arabic-form="initial" 
d="M830 485v-293q0 -192 -191 -192h-54q-63 0 -115 40q-49 -40 -112 -40h-378v147h134v245h146v-245h98q36 0 36 45v293l151 -31v-262q0 -45 40 -45h54q40 0 40 45v293h151z" />
    <glyph glyph-name="seenar.medi" unicode="&#x633;" horiz-adv-x="966" arabic-form="medial" 
d="M843 485v-293q0 -25 -4 -45h147v-147h-387q-64 0 -116 40q-49 -40 -116 -40h-387v147h147v245h147v-245h93q40 0 40 45v293l152 -31v-262q0 -45 40 -45h53q40 0 40 45v293h151z" />
    <glyph glyph-name="sheenar.fina" unicode="&#x634;" horiz-adv-x="1248" arabic-form="final" 
d="M758 935q81 0 81 -81q0 -80 -81 -80q-80 0 -80 80q0 81 80 81zM655 745q81 0 81 -81q0 -80 -81 -80q-80 0 -80 80q0 81 80 81zM858 745q81 0 81 -81q0 -80 -81 -80q-80 0 -80 80q0 81 80 81zM1117 485v-293q0 -20 -5 -45h156v-147h-391q-67 0 -116 40q-49 -40 -116 -40
h-93v-35q0 -75 -54 -134q-58 -53 -133 -53h-134q-80 0 -135.5 55.5t-55.5 131.5v182h151v-182q0 -40 40 -40h134q40 0 40 40v427h147v-245h93q40 0 40 45v293l152 -31v-262q0 -45 40 -45h53q40 0 40 45v293h147z" />
    <glyph glyph-name="sheenar.init" unicode="&#x634;" horiz-adv-x="870" arabic-form="initial" 
d="M464 935q81 0 81 -81q0 -80 -81 -80q-80 0 -80 80q0 81 80 81zM361 745q81 0 81 -81q0 -80 -81 -80q-80 0 -80 80q0 81 80 81zM564 745q81 0 81 -81q0 -80 -81 -80q-80 0 -80 80q0 81 80 81zM830 485v-293q0 -192 -191 -192h-54q-63 0 -115 40q-49 -40 -112 -40h-378v147
h134v245h146v-245h98q36 0 36 45v293l151 -31v-262q0 -45 40 -45h54q40 0 40 45v293h151z" />
    <glyph glyph-name="sheenar.medi" unicode="&#x634;" horiz-adv-x="966" arabic-form="medial" 
d="M483 935q81 0 81 -81q0 -80 -81 -80q-80 0 -80 80q0 81 80 81zM380 745q81 0 81 -81q0 -80 -81 -80q-80 0 -80 80q0 81 80 81zM583 745q81 0 81 -81q0 -80 -81 -80q-80 0 -80 80q0 81 80 81zM843 485v-293q0 -25 -4 -45h147v-147h-387q-64 0 -116 40q-49 -40 -116 -40
h-387v147h147v245h147v-245h93q40 0 40 45v293l152 -31v-262q0 -45 40 -45h53q40 0 40 45v293h151z" />
    <glyph glyph-name="sadar.fina" unicode="&#x635;" horiz-adv-x="1351" arabic-form="final" 
d="M841 480h196q75 0 133 -53q54 -59 54 -138v-142h147v-147h-819v-40q0 -76 -55.5 -131.5t-131.5 -55.5h-134q-81 0 -133 58q-58 52 -58 133v183h151v-183q0 -40 40 -40h134q40 0 40 40v454h147v-271h49l58 187q41 146 182 146zM1037 334h-196q-21 0 -35 -23l-54 -164h325
v147q0 40 -40 40z" />
    <glyph glyph-name="sadar.init" unicode="&#x635;" horiz-adv-x="954" arabic-form="initial" 
d="M532 480h191q79 0 138 -53q53 -59 53 -138v-289h-934v147h147v182h147v-182h13l62 187q36 146 183 146zM723 334h-191q-22 0 -36 -23l-53 -164h320v147q0 40 -40 40z" />
    <glyph glyph-name="sadar.medi" unicode="&#x635;" horiz-adv-x="1042" arabic-form="medial" 
d="M532 480h196q80 0 133 -53q54 -59 54 -138v-142h147v-147h-1082v147h147v182h147v-182h18l58 187q41 146 182 146zM728 334h-196q-17 0 -31 -23l-58 -164h325v147q0 40 -40 40z" />
    <glyph glyph-name="dadar.fina" unicode="&#x636;" horiz-adv-x="1351" arabic-form="final" 
d="M952 745q81 0 81 -81q0 -80 -81 -80q-80 0 -80 80q0 81 80 81zM841 480h196q75 0 133 -53q54 -59 54 -138v-142h147v-147h-819v-40q0 -76 -55.5 -131.5t-131.5 -55.5h-134q-81 0 -133 58q-58 52 -58 133v183h151v-183q0 -40 40 -40h134q40 0 40 40v454h147v-271h49
l58 187q41 146 182 146zM1037 334h-196q-21 0 -35 -23l-54 -164h325v147q0 40 -40 40z" />
    <glyph glyph-name="dadar.init" unicode="&#x636;" horiz-adv-x="954" arabic-form="initial" 
d="M637 745q81 0 81 -81q0 -80 -81 -80q-80 0 -80 80q0 81 80 81zM532 480h191q79 0 138 -53q53 -59 53 -138v-289h-934v147h147v182h147v-182h13l62 187q36 146 183 146zM723 334h-191q-22 0 -36 -23l-53 -164h320v147q0 40 -40 40z" />
    <glyph glyph-name="dadar.medi" unicode="&#x636;" horiz-adv-x="1042" arabic-form="medial" 
d="M637 745q81 0 81 -81q0 -80 -81 -80q-80 0 -80 80q0 81 80 81zM532 480h196q80 0 133 -53q54 -59 54 -138v-142h147v-147h-1082v147h147v182h147v-182h18l58 187q41 146 182 146zM728 334h-196q-17 0 -31 -23l-58 -164h325v147q0 40 -40 40z" />
    <glyph glyph-name="tahar.fina" unicode="&#x637;" horiz-adv-x="863" arabic-form="final" 
d="M244 712v-289q58 57 129 57h192q80 0 135.5 -55.5t55.5 -135.5v-142h147v-147h-863v147h53v565h151zM565 334h-192q-21 0 -35 -23l-54 -164h321v147q0 40 -40 40z" />
    <glyph glyph-name="tahar.init" unicode="&#x637;" horiz-adv-x="830" arabic-form="initial" 
d="M278 712v-289q62 57 129 57h196q79 0 134 -53q53 -59 53 -138v-289h-810v147h151v565h147zM603 334h-196q-18 0 -35 -23l-54 -164h325v147q0 40 -40 40z" />
    <glyph glyph-name="tahar.medi" unicode="&#x637;" horiz-adv-x="921" arabic-form="medial" 
d="M282 712v-289q58 57 129 57h192q80 0 135.5 -55.5t55.5 -135.5v-142h147v-147h-961v147h151v565h151zM603 334h-192q-21 0 -35 -23l-54 -164h321v147q0 40 -40 40z" />
    <glyph glyph-name="zahar.fina" unicode="&#x638;" horiz-adv-x="863" arabic-form="final" 
d="M466 745q81 0 81 -81q0 -80 -81 -80q-80 0 -80 80q0 81 80 81zM244 712v-289q58 57 129 57h192q80 0 135.5 -55.5t55.5 -135.5v-142h147v-147h-863v147h53v565h151zM565 334h-192q-21 0 -35 -23l-54 -164h321v147q0 40 -40 40z" />
    <glyph glyph-name="zahar.init" unicode="&#x638;" horiz-adv-x="830" arabic-form="initial" 
d="M520 745q81 0 81 -81q0 -80 -81 -80q-80 0 -80 80q0 81 80 81zM278 712v-289q62 57 129 57h196q79 0 134 -53q53 -59 53 -138v-289h-810v147h151v565h147zM603 334h-196q-18 0 -35 -23l-54 -164h325v147q0 40 -40 40z" />
    <glyph glyph-name="zahar.medi" unicode="&#x638;" horiz-adv-x="921" arabic-form="medial" 
d="M520 745q81 0 81 -81q0 -80 -81 -80q-80 0 -80 80q0 81 80 81zM282 712v-289q58 57 129 57h192q80 0 135.5 -55.5t55.5 -135.5v-142h147v-147h-961v147h151v565h151zM603 334h-192q-21 0 -35 -23l-54 -164h321v147q0 40 -40 40z" />
    <glyph glyph-name="ainar.fina" unicode="&#x639;" horiz-adv-x="660" arabic-form="final" 
d="M276 480h102q75 0 134 -53q53 -59 53 -133l-67 -147h183v-147h-454q-35 0 -40 -36q4 -40 40 -40h18v-151h-18q-76 0 -131.5 55.5t-55.5 135.5q0 125 107 178v5l-62 147q0 76 55.5 131t135.5 55zM378 334h-102q-40 0 -40 -40l62 -147h54l66 147q0 40 -40 40z" />
    <glyph glyph-name="ainar.init" unicode="&#x639;" horiz-adv-x="563" arabic-form="initial" 
d="M483 334h-169q-36 0 -36 -40v-107q0 -40 36 -40h209v-147h-543v147h151q-4 16 -4 40v107q0 75 55.5 130.5t131.5 55.5h169v-146z" />
    <glyph glyph-name="ainar.medi" unicode="&#x639;" horiz-adv-x="623" arabic-form="medial" 
d="M260 481h103q81 0 133 -54q54 -59 54 -133l-63 -147h156v-147h-663v147h156l-63 147q0 74 54 133q59 54 133 54zM363 334h-103q-40 0 -40 -40l63 -147h53l67 147q0 40 -40 40z" />
    <glyph glyph-name="ghainar.fina" unicode="&#x63a;" horiz-adv-x="660" arabic-form="final" 
d="M328 745q81 0 81 -81q0 -80 -81 -80q-80 0 -80 80q0 81 80 81zM276 480h102q75 0 134 -53q53 -59 53 -133l-67 -147h183v-147h-454q-35 0 -40 -36q4 -40 40 -40h18v-151h-18q-76 0 -131.5 55.5t-55.5 135.5q0 125 107 178v5l-62 147q0 76 55.5 131t135.5 55zM378 334
h-102q-40 0 -40 -40l62 -147h54l66 147q0 40 -40 40z" />
    <glyph glyph-name="ghainar.init" unicode="&#x63a;" horiz-adv-x="563" arabic-form="initial" 
d="M335 745q81 0 81 -81q0 -80 -81 -80q-80 0 -80 80q0 81 80 81zM483 334h-169q-36 0 -36 -40v-107q0 -40 36 -40h209v-147h-543v147h151q-4 16 -4 40v107q0 75 55.5 130.5t131.5 55.5h169v-146z" />
    <glyph glyph-name="ghainar.medi" unicode="&#x63a;" horiz-adv-x="623" arabic-form="medial" 
d="M313 745q81 0 81 -81q0 -80 -81 -80q-80 0 -80 80q0 81 80 81zM260 481h103q81 0 133 -54q54 -59 54 -133l-63 -147h156v-147h-663v147h156l-63 147q0 74 54 133q59 54 133 54zM363 334h-103q-40 0 -40 -40l63 -147h53l67 147q0 40 -40 40z" />
    <glyph glyph-name="fehar.fina" unicode="&#x641;" horiz-adv-x="1119" arabic-form="final" 
d="M817 745q81 0 81 -81q0 -80 -81 -80q-80 0 -80 80q0 81 80 81zM992 147h147v-147h-908q-80 0 -133 53q-58 54 -58 134v147h151v-134q0 -53 40 -53h370q-5 20 -5 35v112q0 76 55.5 131t135.5 55h205v-333zM841 334h-54q-40 0 -40 -40v-112q0 -35 40 -35h54v187z" />
    <glyph glyph-name="fehar.init" unicode="&#x641;" horiz-adv-x="559" arabic-form="initial" 
d="M336 745q81 0 81 -81q0 -80 -81 -80q-80 0 -80 80q0 81 80 81zM519 0h-539v147h147q-4 16 -4 40v107q0 76 55.5 131t135.5 55h205v-480zM368 334h-54q-40 0 -40 -40v-107q0 -40 40 -40h54v187z" />
    <glyph glyph-name="fehar.medi" unicode="&#x641;" horiz-adv-x="672" arabic-form="medial" 
d="M336 745q81 0 81 -81q0 -80 -81 -80q-80 0 -80 80q0 81 80 81zM318 480h36q80 0 135.5 -55.5t55.5 -135.5v-142h147v-147h-712v147h151v142q0 79 54 138q53 53 133 53zM354 329h-36q-40 0 -40 -40v-142h116v142q0 40 -40 40z" />
    <glyph glyph-name="qafar.fina" unicode="&#x642;" horiz-adv-x="741" arabic-form="final" 
d="M326 745q81 0 81 -81q0 -80 -81 -80q-80 0 -80 80q0 81 80 81zM529 745q81 0 81 -81q0 -80 -81 -80q-80 0 -80 80q0 81 80 81zM618 147h143v-147h-143v-36q0 -80 -57 -133q-54 -58 -129 -58h-201q-81 0 -133 58q-58 52 -58 133v183h151v-183q0 -40 40 -40h201q35 0 35 40
v36h-53q-80 0 -136 55.5t-56 131.5v107q0 76 56 131t136 55h204v-333zM467 334h-53q-40 0 -40 -40v-107q0 -40 40 -40h53v187z" />
    <glyph glyph-name="qafar.init" unicode="&#x642;" horiz-adv-x="559" arabic-form="initial" 
d="M242 745q81 0 81 -81q0 -80 -81 -80q-80 0 -80 80q0 81 80 81zM445 745q81 0 81 -81q0 -80 -81 -80q-80 0 -80 80q0 81 80 81zM519 0h-539v147h147q-4 16 -4 40v107q0 76 55.5 131t135.5 55h205v-480zM368 334h-54q-40 0 -40 -40v-107q0 -40 40 -40h54v187z" />
    <glyph glyph-name="qafar.medi" unicode="&#x642;" horiz-adv-x="672" arabic-form="medial" 
d="M242 745q81 0 81 -81q0 -80 -81 -80q-80 0 -80 80q0 81 80 81zM445 745q81 0 81 -81q0 -80 -81 -80q-80 0 -80 80q0 81 80 81zM318 480h36q80 0 135.5 -55.5t55.5 -135.5v-142h147v-147h-712v147h151v142q0 79 54 138q53 53 133 53zM354 329h-36q-40 0 -40 -40v-142h116
v142q0 40 -40 40z" />
    <glyph glyph-name="kafar.fina" unicode="&#x643;" horiz-adv-x="861" arabic-form="final" 
d="M738 147h143v-147h-654q-75 0 -134 53q-53 59 -53 134v178h151v-178q0 -40 40 -40h356v565h151v-565zM465 645h-76q-18 0 -18 -17v-58q0 -14 18 -18h93v-67h-213v67h40v18v58q0 80 80 80h76v-63z" />
    <glyph glyph-name="kafar.init" unicode="&#x643;" horiz-adv-x="799" arabic-form="initial" 
d="M518 565h-204q-40 0 -40 -40v-89q0 -36 40 -36h445v-213q0 -82 -58 -134q-53 -53 -134 -53h-587v147h574q53 0 53 40v66h-293q-76 0 -134 54q-53 53 -53 129v89q0 80 53 133q58 54 134 54h204v-147z" />
    <glyph glyph-name="kafar.medi" unicode="&#x643;" horiz-adv-x="877" arabic-form="medial" 
d="M514 565h-205q-40 0 -40 -40v-89q0 -36 40 -36h441v-213q0 -15 -5 -40h152v-147h-917v147h570q49 4 49 40v66h-290q-79 0 -138 54q-53 53 -53 129v89q0 81 58 133q52 54 133 54h205v-147z" />
    <glyph glyph-name="lamar.fina" unicode="&#x644;" horiz-adv-x="741" arabic-form="final" 
d="M614 147h147v-147h-147v-36q0 -76 -55.5 -131.5t-131.5 -55.5h-200q-79 0 -133 55t-54 132v183h147v-183q0 -40 40 -40h200q36 0 36 40v748h151v-565z" />
    <glyph glyph-name="lamar.init" unicode="&#x644;" horiz-adv-x="318" arabic-form="initial" 
d="M278 712v-525q0 -76 -58 -134q-59 -53 -134 -53h-106v147h106q40 0 40 40v525h152z" />
    <glyph glyph-name="lamar.medi" unicode="&#x644;" horiz-adv-x="405" arabic-form="medial" 
d="M278 712v-525q0 -40 40 -40h107v-147h-107q-67 0 -116 40q-52 -40 -115 -40h-107v147h107q40 0 40 40v525h151z" />
    <glyph glyph-name="meemar.fina" unicode="&#x645;" horiz-adv-x="790" arabic-form="final" 
d="M409 485h67q75 0 133 -58q54 -59 54 -134v-102q0 -19 -5 -44h152v-147h-583q-40 0 -40 -54v-169h-147v183q0 79 53 133t129 58q-4 16 -4 40v102q0 76 58 134q52 58 133 58zM476 333h-67q-40 0 -40 -40v-102q0 -40 31 -44h76q40 0 40 44v102q0 40 -40 40z" />
    <glyph glyph-name="meemar.init" unicode="&#x645;" horiz-adv-x="608" arabic-form="initial" 
d="M310 485h71q75 0 129 -58q58 -58 58 -134v-102q0 -81 -58 -133q-54 -58 -129 -58h-401v147h147q-4 20 -4 44v102q0 75 53 134q58 58 134 58zM381 333h-71q-40 0 -40 -40v-102q0 -44 40 -44h71q35 0 35 44v102q0 40 -35 40z" />
    <glyph glyph-name="meemar.medi" unicode="&#x645;" horiz-adv-x="699" arabic-form="medial" 
d="M314 485h71q76 0 134 -58q53 -59 53 -134v-102q0 -24 -4 -44h151v-147h-739v147h152q-5 25 -5 44v102q0 76 58 134q54 58 129 58zM385 333h-71q-35 0 -35 -40v-102q0 -39 35 -44h71q40 0 40 44v102q0 40 -40 40z" />
    <glyph glyph-name="noonar.fina" unicode="&#x646;" horiz-adv-x="781" arabic-form="final" 
d="M323 485q80 0 80 -80t-80 -80t-80 80t80 80zM654 147h147v-147h-147v-36q0 -76 -55.5 -131.5t-131.5 -55.5h-240q-79 0 -133 55t-54 132v307h147v-307q0 -40 40 -40h240q36 0 36 40v454h151v-271z" />
    <glyph glyph-name="noonar.init" unicode="&#x646;" horiz-adv-x="318" arabic-form="initial" 
d="M201 745q81 0 81 -81q0 -80 -81 -80q-80 0 -80 80q0 81 80 81zM278 485v-298q0 -74 -53 -133q-54 -54 -134 -54h-111v147h111q40 0 40 40v298h147z" />
    <glyph glyph-name="noonar.medi" unicode="&#x646;" horiz-adv-x="414" arabic-form="medial" 
d="M201 745q81 0 81 -81q0 -80 -81 -80q-80 0 -80 80q0 81 80 81zM283 485v-302q5 -36 40 -36h111v-147h-111q-67 0 -116 36q-49 -36 -116 -36h-111v147h111q35 0 40 36v302h152z" />
    <glyph glyph-name="hehar.fina" unicode="&#x647;" horiz-adv-x="661" arabic-form="final" 
d="M539 147h142v-147h-449q-80 0 -136 55.5t-56 131.5v106q0 80 56 136t136 56h307v-338zM387 338h-155q-45 0 -45 -40v-111q0 -40 45 -40h155v191z" />
    <glyph glyph-name="hehar.init" unicode="&#x647;" horiz-adv-x="701" arabic-form="initial" 
d="M323 485h147q81 0 133 -58q58 -58 58 -138v-289h-681v147h147q-5 18 -5 31v4q0 93 89 134h-80l9 35q36 134 183 134zM470 351h-147q-9 0 -27 -31q116 -18 116 -138v-4q0 -13 -5 -31h103v164q0 40 -40 40zM269 213h-9q-26 0 -26 -31v-4q0 -31 26 -31h9q31 0 31 31v4
q0 31 -31 31z" />
    <glyph glyph-name="hehar.medi" unicode="&#x647;" horiz-adv-x="787" arabic-form="medial" 
d="M327 485h147q76 0 133.5 -58t57.5 -138v-142h142v-147h-827v147h151q-5 18 -5 31v4q0 94 85 134h-76l9 35q32 134 183 134zM474 351h-147q-15 0 -31 -31q115 -18 115 -138v-4q0 -16 -4 -31h107v164q0 40 -40 40zM273 213h-9q-31 0 -31 -31v-4q0 -31 31 -31h9q31 0 31 31
v4q0 31 -31 31z" />
    <glyph glyph-name="wawar.fina" unicode="&#x648;" horiz-adv-x="607" arabic-form="final" 
d="M481 147h146v-147h-146v-36q0 -77 -54 -132t-133 -55h-147v147h133q54 0 54 40v36h-103q-81 0 -133 58q-58 52 -58 129v111q0 76 56 131.5t135 55.5h250v-338zM334 338h-103q-40 0 -40 -40v-111q0 -40 40 -40h103v191z" />
    <glyph glyph-name="alefMaksuraar.fina" unicode="&#x649;" horiz-adv-x="888" arabic-form="final" 
d="M321 178h151q4 -31 40 -31h396v-147h-147v-40q0 -76 -53.5 -129.5t-133.5 -53.5h-342q-80 0 -136 55.5t-56 131.5v98h152v-98q0 -40 40 -40h329q53 0 53 36v40h-102q-182 0 -191 178z" />
    <glyph glyph-name="yehar.fina" unicode="&#x64a;" horiz-adv-x="888" arabic-form="final" 
d="M321 178h151q4 -31 40 -31h396v-147h-147v-40q0 -76 -53.5 -129.5t-133.5 -53.5h-342q-80 0 -136 55.5t-56 131.5v98h152v-98q0 -40 40 -40h329q53 0 53 36v40h-102q-182 0 -191 178zM298 -298q81 0 81 -81q0 -80 -81 -80q-80 0 -80 80q0 81 80 81zM501 -298q81 0 81 -81
q0 -80 -81 -80q-80 0 -80 80q0 81 80 81z" />
    <glyph glyph-name="yehar.init" unicode="&#x64a;" horiz-adv-x="527" arabic-form="initial" 
d="M487 485v-298q0 -74 -53 -133q-54 -54 -134 -54h-320v147h320q40 0 40 40v298h147zM144 -108q81 0 81 -81q0 -80 -81 -80q-80 0 -80 80q0 81 80 81zM347 -108q81 0 81 -81q0 -80 -81 -80q-80 0 -80 80q0 81 80 81z" />
    <glyph glyph-name="yehar.medi" unicode="&#x64a;" horiz-adv-x="506" arabic-form="medial" 
d="M375 485v-302q5 -36 40 -36h111v-147h-111q-67 0 -116 36q-49 -36 -116 -36h-203v147h203q35 0 40 36v302h152zM194 -108q81 0 81 -81q0 -80 -81 -80q-80 0 -80 80q0 81 80 81zM397 -108q81 0 81 -81q0 -80 -81 -80q-80 0 -80 80q0 81 80 81z" />
    <glyph glyph-name=".notdef" horiz-adv-x="897" 
d="M448 997h9q7 -1 12 -1h1q162 -8 274.5 -126t112.5 -282v-3q0 -11 -1 -16v-11q-1 -5 -1 -8q-1 -2 -1.5 -6.5t-0.5 -6.5v-5q-1 -2 -1 -7t-1 -8q0 -1 -1 -2q-20 -106 -88 -188l-39 40q79 97 79 222q0 147 -104 251t-251 104t-251 -104t-104 -251q0 -126 80 -224l-38 -38
q-67 82 -87 187q0 2 -1 3q0 3 -1 8t-1 7t-1 5q-1 5 -1 13q0 11 -2 19v16v3q0 170 119.5 289.5t288.5 119.5zM447 936q143 0 244.5 -101.5t101.5 -245.5q0 -122 -76 -216l-42 42q59 77 59 174q0 119 -84 203.5t-203 84.5t-203 -84.5t-84 -203.5q0 -98 60 -176l-41 -42
q-78 96 -78 218q0 144 101.5 245.5t244.5 101.5zM447 868q115 0 197 -81.5t82 -197.5q0 -95 -57 -168l-45 45q40 55 40 125q0 90 -64 153.5t-154 63.5t-153.5 -63.5t-63.5 -153.5q0 -71 42 -128l-45 -44q-58 74 -58 170q0 116 82 197.5t197 81.5zM446 692q40 0 68 -28
t28 -68q0 -38 -27 -67l245 -263h-623l242 260q-30 28 -30 70q0 40 28.5 68t68.5 28zM187 164h22v3q0 17 12 29t29 12t29 -12t12 -29v-3h8h60l-42 23q1 2 4.5 8.5t6.5 11.5v-1q10 -5 18 -10l17 -9q3 -2 10.5 -6.5t11.5 -6.5h1v-32h-84h-20q-12 -16 -32 -16t-33 16h-52v82h22
v-60zM460 224v-20q7 4 18 4h61v-66h-112v22h11v60h22zM654 224v-20q8 4 18 4h62v-44h70q-33 19 -42 23q1 1 5 9t6 10l35 -19l11 -7q7 -3 12 -6v-1v-31h-86h-141q-12 -23 -38 -23h-3v22h3q6 0 11 3q-12 3 -18 13.5t-5 20.5q3 26 30 30h5h21v-44h22v60h22zM810 207h-16v17h16
v-17zM111 207q18 0 30.5 -12.5t12.5 -30.5q0 -13 -8 -24h-70q-8 11 -8 24q0 18 12.5 30.5t30.5 12.5zM111 185q-20 0 -20 -21v-1h40l1 1q0 21 -21 21zM250 185q-18 0 -18 -18t18 -18t18 18t-18 18zM517 185h-38q-18 0 -18 -18v-3h56v21zM589 164v21q-14 -2 -14 -10
q0 -9 14 -11zM711 185h-38q-18 0 -18 -18q0 -2 1 -3h55v21zM566 109v-16q-6 0 -6 -4v-16h6v-15h-6v-40h6v-15h-27v55h-6v15h6v26q0 17 27 10zM70 93v16q8 3 17.5 0.5t9.5 -10.5v-34q7 9 22 9q25 0 25 -25v-31h7v-15h-27v43q0 12 -13.5 11.5t-13.5 -11.5v-28h7v-15h-27v86
q0 5 -7 4zM427 93v16q8 3 17.5 0.5t9.5 -10.5v-34q8 9 22 9q25 0 25 -25v-31h7v-15h-27v43q0 12 -13.5 11.5t-13.5 -11.5v-28h7v-15h-27v86q0 5 -7 4zM749 73h13v-15h-13v-36q0 -5 7 -4v-15q-8 -4 -17.5 -1.5t-9.5 10.5v71h-7v15h27v-25zM274 74q15 0 23 -11q7 14 28.5 11.5
t21.5 -25.5v-31h6v-15h-26v43q0 7 -6.5 10t-13.5 0t-7 -9v-29h7v-15h-27v43q0 12 -13.5 12t-13.5 -12v-28h6v-15h-27v51q0 4 -6 4v15q25 7 25 -10q6 11 23 11zM690 74q25 0 25 -25v-31h7v-15h-27v43q0 12 -13 11.5t-13 -11.5v-28h6v-15h-27v50q0 5 -6 5v15q25 7 25 -10
q6 11 23 11zM177 74q14 0 22 -8v7h25v-15h-6v-36q0 -5 6 -5v-14q-7 -4 -16 -1.5t-9 10.5q0 -11 -20 -11q-25 4 -28 26v22q0 25 26 25zM379 74q14 0 22 -8v7h25v-15h-6v-36q0 -5 6 -5v-14q-7 -4 -16 -1.5t-9 10.5q0 -11 -19 -11q-25 0 -29 22v4v22q1 25 26 25zM605 74
q37 0 37 -36q0 -14 -8 -23.5t-18.5 -12t-21.5 -0.5t-18.5 11.5t-7.5 24.5q0 36 37 36zM794 74q27 0 27 -15v-8h-17q0 8 -9 8q-5 0 -7.5 -1.5t-1.5 -3.5q0 -5 19 -12t19 -20q0 -21 -31 -21q-28 0 -30 17v7h17q0 -10 13 -10q11 0 11 7q0 5 -19 12t-19 20q0 20 28 20zM605 58
q-17 0 -17 -20q0 -21 17 -21t17 21q0 20 -17 20zM199 30v15q0 12 -13.5 12.5t-13.5 -12.5v-15q0 -13 13.5 -12.5t13.5 12.5zM401 30v15q0 12 -13.5 12.5t-13.5 -12.5v-15q0 -13 13.5 -12.5t13.5 12.5z" />
    <glyph glyph-name=".null" 
 />
    <glyph glyph-name="nonmarkingreturn" horiz-adv-x="500" 
 />
    <glyph glyph-name="CR" unicode="&#xd;" horiz-adv-x="500" 
 />
    <glyph glyph-name="space" unicode=" " horiz-adv-x="226" 
 />
    <glyph glyph-name="exclam" unicode="!" horiz-adv-x="244" 
d="M196 194h-149v518h149v-518zM196 0h-149v125h149v-125z" />
    <glyph glyph-name="quotedbl" unicode="&#x22;" horiz-adv-x="466" 
d="M202 677h-155v213h160zM422 677h-154v213h158z" />
    <glyph glyph-name="numbersign" unicode="#" horiz-adv-x="636" 
d="M517 474h72v-92h-101l-37 -129h83v-92h-111l-22 -73h-97l21 73h-106l-23 -73h-99l21 73h-71v92h97l40 129h-82v92h108l24 80h99l-23 -80h105l24 80h100zM284 382l-38 -129h105l38 129h-105z" />
    <glyph glyph-name="dollar" unicode="$" horiz-adv-x="616" 
d="M383 711h8q74 0 126 -56t52 -131v-30h-149v30q0 16 -11 28t-27 12h-146q-16 0 -28 -12t-12 -28v-105q0 -16 13 -16h6l131 33q22 5 34 5q76 0 132.5 -55t56.5 -132v-64q0 -78 -54.5 -133t-132.5 -56v-109h-149v109q-78 1 -132 55.5t-54 133.5v5h149v-5q0 -17 11.5 -29.5
t27.5 -12.5h145q16 0 28 12.5t12 29.5v64q0 27 -33 39l-138 -33q-28 -6 -42 -6q-55 0 -99 33q-61 48 -61 132v105q0 76 54 131t132 57v106h150v-107z" />
    <glyph glyph-name="percent" unicode="%" horiz-adv-x="981" 
d="M229 799q90 0 145 -63.5t55 -152.5q0 -92 -54.5 -154.5t-145.5 -62.5q-90 0 -145 66t-55 156q0 91 54.5 151t145.5 60zM622 795q32 0 53 -22.5t21 -53.5q0 -22 -9 -43l-258 -647q-4 -15 -23.5 -29t-47.5 -14q-29 0 -50 21.5t-21 55.5q0 15 7 32l250 643q22 57 78 57z
M229 653q-21 0 -33 -20t-12 -49q0 -30 12 -52t33 -22q23 0 35.5 21t12.5 51q0 29 -13 50t-35 21zM759 433q89 0 142 -65t53 -155q0 -92 -52.5 -152.5t-142.5 -60.5q-93 0 -147.5 63.5t-54.5 155.5t55 153t147 61zM759 286q-23 0 -35.5 -20t-12.5 -50q0 -29 12.5 -50.5
t35.5 -21.5q22 0 33.5 19.5t11.5 48.5t-11.5 51.5t-33.5 22.5z" />
    <glyph glyph-name="ampersand" unicode="&#x26;" horiz-adv-x="624" 
d="M236 712h57q71 0 125 -44.5t61 -111.5l2 -23v-39h-146v30q0 16 -12.5 28t-29.5 12h-57q-16 0 -28 -11.5t-12 -27.5v-26q1 -13 226 -311v167h148v-166q0 -76 -52 -130l93 -123h-186l-49 64h-140q-79 0 -134 55.5t-55 133.5v105q0 54 32 100q-32 50 -32 105v32
q0 74 56 127.5t133 53.5zM196 240v-51q0 -17 11.5 -29t28.5 -12h28z" />
    <glyph glyph-name="quotesingle" unicode="'" horiz-adv-x="264" 
d="M209 677h-154v213h158z" />
    <glyph glyph-name="parenleft" unicode="(" horiz-adv-x="452" 
d="M404 725h-147q-18 0 -31 -13t-13 -31v-655q0 -19 13 -31.5t31 -12.5h147v-165h-147q-87 0 -148.5 61.5t-61.5 147.5v654q0 87 61.5 148.5t148.5 61.5h147v-165z" />
    <glyph glyph-name="parenright" unicode=")" horiz-adv-x="453" 
d="M47 890h149q86 0 147 -61.5t61 -148.5v-654q0 -86 -61 -147.5t-147 -61.5h-149v165h149q18 0 31 12.5t13 31.5v655q0 18 -13 31t-31 13h-149v165z" />
    <glyph glyph-name="asterisk" unicode="*" horiz-adv-x="494" 
d="M287 791l159 99v-101l-116 -72l116 -71v-101l-159 99v-171h-80v169l-160 -97v97l122 75l-122 75v98l160 -98v169h80v-170z" />
    <glyph glyph-name="plus" unicode="+" horiz-adv-x="620" 
d="M384 430h188v-150h-188v-187h-150v187h-187v150h187v188h150v-188z" />
    <glyph glyph-name="comma" unicode="," horiz-adv-x="311" 
d="M211 0h-154l58 212h159z" />
    <glyph glyph-name="hyphen" unicode="-" horiz-adv-x="451" 
d="M403 281h-356v148h356v-148z" />
    <glyph glyph-name="period" unicode="." horiz-adv-x="244" 
d="M196 0h-149v124h149v-124z" />
    <glyph glyph-name="slash" unicode="/" horiz-adv-x="459" 
d="M201 0h-152l205 712h158z" />
    <glyph glyph-name="zero" unicode="0" horiz-adv-x="618" 
d="M248 712h135q77 0 132.5 -55t55.5 -133v-336q0 -78 -55.5 -133t-132.5 -55h-135q-78 0 -133.5 55t-55.5 133v336q0 78 55.5 133t133.5 55zM383 564h-135q-16 0 -28 -12t-12 -28v-128l214 57v71q0 16 -11.5 28t-27.5 12zM208 241v-53q0 -16 12 -28t28 -12h135
q16 0 27.5 12t11.5 28v111z" />
    <glyph glyph-name="one" unicode="1" horiz-adv-x="364" 
d="M317 0h-148v565h-110v50q0 32 33 64.5t77 32.5h148v-712z" />
    <glyph glyph-name="two" unicode="2" horiz-adv-x="629" 
d="M247 712h146q78 0 133.5 -55t55.5 -132v-105q0 -84 -61 -132q-45 -34 -99 -34q-14 0 -42 6l-139 34q-14 -2 -23.5 -13.5t-9.5 -27.5v-105h371v-148h-520v253q0 79 55 134t133 55q8 0 23 -3l137 -32q2 0 7 -2t8 -2q4 0 7 3q4 1 4 14v105q0 16 -12 27.5t-28 11.5h-147
q-16 0 -27 -11.5t-11 -27.5v-30h-149v30q0 74 51 128t125 59h12z" />
    <glyph glyph-name="three" unicode="3" horiz-adv-x="615" 
d="M59 712h214q79 0 134 -55t55 -132v-96q0 -32 -8 -55q51 -23 82 -69.5t31 -104.5v-12q0 -78 -55.5 -133t-133.5 -55h-316v148h316q17 0 29 11.5t12 28.5v12q0 17 -12 28.5t-29 11.5h-197v149h92q17 0 29 11.5t12 28.5v96q0 16 -12 27.5t-29 11.5h-214v148z" />
    <glyph glyph-name="four" unicode="4" horiz-adv-x="618" 
d="M571 0h-149v245q-15 -5 -39 -5h-135q-78 0 -133.5 55.5t-55.5 133.5v283h149v-283q0 -16 12 -28t28 -12h135q16 0 27.5 12t11.5 28v283h149v-712z" />
    <glyph glyph-name="five" unicode="5" horiz-adv-x="628" 
d="M578 564h-370v-106q0 -15 8 -27t23 -12q6 0 9 1l130 32q20 4 43 4q59 0 99 -33q60 -46 60 -130v-104q0 -79 -55.5 -134t-133.5 -55h-147l-9 1q-75 11 -125.5 63t-50.5 125v28h149v-28q0 -16 11.5 -28.5t26.5 -12.5h145q17 0 29 12t12 29v104q0 13 -4 14l-2 1q-2 1 -4 1
q-4 0 -12 -2t-9 -2q-107 -25 -128 -31l-26 -4q-78 0 -133 55t-55 133v254h519v-148z" />
    <glyph glyph-name="six" unicode="6" horiz-adv-x="618" 
d="M247 712h135q78 0 133.5 -55t55.5 -132h-149q0 16 -12 27.5t-28 11.5h-135q-16 0 -27.5 -11.5t-11.5 -27.5v-111l160 39q23 5 42 5q56 0 100 -33q61 -48 61 -131v-105q0 -78 -55.5 -133.5t-133.5 -55.5h-146l-11 1q-65 8 -111 52q-55 55 -55 135v337q0 77 55 132t133 55z
M410 310q-4 0 -8 -1l-194 -48v-74q0 -17 11 -28q13 -11 25 -11h138q16 0 28 12t12 29v105q0 12 -5 15q-1 1 -7 1z" />
    <glyph glyph-name="seven" unicode="7" horiz-adv-x="642" 
d="M382 0h-153l164 564h-334v148h536z" />
    <glyph glyph-name="eight" unicode="8" horiz-adv-x="629" 
d="M248 712h145q78 0 133.5 -55t55.5 -133v-34q0 -70 -41 -120q41 -52 41 -116v-65q0 -79 -55.5 -134t-133.5 -55h-145q-77 0 -133 53t-56 129v31q0 55 32 105q-32 45 -32 101v105q0 78 55 133t134 55zM393 564h-145q-16 0 -28 -12t-12 -28v-105q0 -12 5 -15q2 -2 7 -2
q7 0 15 4l137 33q22 5 35 11t18.5 13.5t6.5 12.5t1 14v35q0 16 -12 27.5t-28 11.5zM400 293l-152 -35q-16 -4 -28 -16.5t-12 -28.5v-25q0 -16 12 -28t28 -12h145q17 0 28.5 12t11.5 29v65q0 15 -9.5 26.5t-23.5 12.5z" />
    <glyph glyph-name="nine" unicode="9" horiz-adv-x="617" 
d="M514 659q56 -56 56 -133v-337q0 -78 -55.5 -133.5t-133.5 -55.5h-133q-79 0 -134 55.5t-55 133.5h149q0 -17 11.5 -29t28.5 -12h133q17 0 28.5 12t11.5 29v110l-159 -39q-23 -5 -42 -5q-58 0 -101 33q-60 49 -60 131v105q0 78 55 133t134 55zM383 564h-135q-16 0 -28 -12
t-12 -28v-105q0 -12 5 -15q1 -1 6 -1q4 0 8 1l194 48v74q0 15 -12 27q-11 11 -26 11z" />
    <glyph glyph-name="colon" unicode=":" horiz-adv-x="244" 
d="M196 233h-149v127h149v-127zM196 0h-149v127h149v-127z" />
    <glyph glyph-name="semicolon" unicode=";" horiz-adv-x="314" 
d="M255 347h-149v127h149v-127zM193 0h-155l59 214h158z" />
    <glyph glyph-name="less" unicode="&#x3c;" horiz-adv-x="674" 
d="M571 593q33 0 54 -21.5t21 -54.5q0 -55 -57 -79l-315 -132l310 -140q61 -27 61 -81q0 -35 -21.5 -59.5t-57.5 -24.5q-27 0 -57 15l-409 203q-58 29 -58 84t58 83l421 196l4 1q23 10 46 10z" />
    <glyph glyph-name="equal" unicode="=" horiz-adv-x="728" 
d="M681 428h-634v150h634v-150zM681 127h-634v150h634v-150z" />
    <glyph glyph-name="greater" unicode="&#x3e;" horiz-adv-x="674" 
d="M117 593q26 0 51 -11l419 -196q59 -29 59 -83q0 -26 -16 -49t-42 -35l-410 -203q-30 -15 -56 -15q-36 0 -56.5 21.5t-20.5 54.5q0 50 62 81q61 31 161 73.5t155 68.5l-324 138q-57 25 -57 79q0 33 21 54.5t54 21.5z" />
    <glyph glyph-name="question" unicode="?" horiz-adv-x="617" 
d="M223 712h158q78 0 133.5 -55.5t55.5 -132.5v-73q0 -65 -45.5 -113t-140.5 -48q-16 0 -27.5 -12t-11.5 -30v-49h-149v49q0 79 55 134.5t133 55.5q37 0 37 29v57q0 16 -11.5 28t-28.5 12h-147q-16 0 -27 -12t-11 -28v-30h-149v30q0 75 51.5 131.5t124.5 56.5zM344 0h-149
v125h149v-125z" />
    <glyph glyph-name="at" unicode="@" horiz-adv-x="573" 
d="M222 612h129q78 0 132.5 -54t54.5 -132v-106q0 -35 -25.5 -60t-60.5 -25h-50q-27 0 -47 14q-22 -14 -48 -14h-55q-36 0 -61 25t-25 60v70q0 36 25 60.5t61 24.5h141v-85v-70v-2q2 -7 9 -7h50q3 0 6 3t3 6v106q0 45 -32 77.5t-78 32.5h-129q-46 0 -78 -32.5t-32 -77.5
v-139q0 -45 32 -77t78 -32h316v-77h-316q-78 0 -132.5 54.5t-54.5 131.5v139q0 78 54.5 132t132.5 54zM307 400h-55q-10 0 -10 -10v-70q0 -9 10 -9h55q8 0 10 7v2v70q0 10 -10 10z" />
    <glyph glyph-name="A" unicode="A" horiz-adv-x="617" 
d="M248 712h134q78 0 133.5 -55t55.5 -133v-524h-150v264l-212 -58v-206h-150v524q0 78 55 133t134 55zM382 563h-134q-16 0 -27.5 -11.5t-11.5 -27.5v-165l212 57v108q0 16 -11.5 27.5t-27.5 11.5z" />
    <glyph glyph-name="B" unicode="B" horiz-adv-x="601" 
d="M47 712h232q78 0 133 -55t55 -133v-79q0 -18 -2 -28q48 -23 77 -68t29 -100v-60q0 -78 -55.5 -133.5t-133.5 -55.5h-335v712zM197 564v-169l91 21q12 3 21.5 12.5t9.5 14.5v81q0 16 -11.5 28t-28.5 12h-82zM197 242v-99h185q16 0 27.5 12t11.5 29v65q0 14 -9.5 25.5
t-23.5 13.5z" />
    <glyph glyph-name="C" unicode="C" horiz-adv-x="614" 
d="M248 712h133q77 0 131.5 -55t54.5 -133v-52h-147v52q0 16 -11.5 28t-27.5 12h-133q-17 0 -29 -11.5t-12 -28.5v-335q0 -17 12 -29t29 -12h133q16 0 27.5 12t11.5 29v73h147v-73q0 -79 -54.5 -134t-131.5 -55h-133q-79 0 -134 55t-55 134v335q0 78 55 133t134 55z" />
    <glyph glyph-name="D" unicode="D" horiz-adv-x="617" 
d="M59 712h322q78 0 133.5 -55t55.5 -132v-338q0 -77 -55 -132t-134 -55h-322v712zM208 563v-415h173q16 0 28 11.5t12 27.5v338q0 15 -12 26.5t-28 11.5h-173z" />
    <glyph glyph-name="E" unicode="E" horiz-adv-x="544" 
d="M494 565h-246q-16 0 -28 -11.5t-12 -28.5v-153l218 58v-153l-218 -57v-31q0 -16 12 -28t28 -12h247v-149h-247q-79 0 -134 55t-55 134v336q0 78 55 132.5t134 54.5h246v-147z" />
    <glyph glyph-name="F" unicode="F" horiz-adv-x="544" 
d="M495 564h-248q-16 0 -27.5 -12t-11.5 -28v-153l218 58v-154l-218 -58v-217h-149v524q0 78 54.5 133t133.5 55h248v-148z" />
    <glyph glyph-name="G" unicode="G" horiz-adv-x="615" 
d="M246 712h132q77 0 133 -55t56 -132v-51l-148 -1v52q0 17 -12 28.5t-29 11.5h-132q-16 0 -27.5 -12t-11.5 -28v-337q0 -16 11.5 -28t27.5 -12h132q18 0 29.5 10.5t11.5 27.5v39l-107 -26v152l255 64v-228q0 -78 -55.5 -132.5t-133.5 -54.5h-132q-78 0 -132.5 55t-54.5 133
v337q0 77 54.5 132t132.5 55z" />
    <glyph glyph-name="H" unicode="H" horiz-adv-x="617" 
d="M570 0h-149v264l-213 -58v-206h-149v712h149v-353l213 57v296h149v-712z" />
    <glyph glyph-name="I" unicode="I" horiz-adv-x="255" 
d="M208 0h-149v712h149v-712z" />
    <glyph glyph-name="J" unicode="J" horiz-adv-x="616" 
d="M569 712v-523q0 -78 -55 -133.5t-132 -55.5h-134q-79 0 -134 55t-55 134v122h149v-122q0 -17 11.5 -29t28.5 -12h134q16 0 27 12t11 29v523h149z" />
    <glyph glyph-name="K" unicode="K" horiz-adv-x="589" 
d="M454 336l91 -336h-155l-67 251l-115 -32v-219h-149v712h149v-340l111 30l83 310h157z" />
    <glyph glyph-name="L" unicode="L" horiz-adv-x="526" 
d="M208 712v-524q0 -16 12 -28t28 -12h246l1 -148h-247q-78 0 -133.5 55t-55.5 133v524h149z" />
    <glyph glyph-name="M" unicode="M" horiz-adv-x="819" 
d="M531 712h53q78 0 133 -55t55 -133v-524h-148v524q0 16 -11.5 27.5t-28.5 11.5h-53q-16 0 -28.5 -11.5t-12.5 -27.5v-263l-148 -36v299q0 16 -12 27.5t-29 11.5h-93v-563h-149v712h242q61 0 115 -39q53 39 115 39z" />
    <glyph glyph-name="N" unicode="N" horiz-adv-x="620" 
d="M59 712h326q76 0 131.5 -55.5t55.5 -132.5v-524h-149v524q0 16 -11 28t-27 12h-177v-564h-149v712z" />
    <glyph glyph-name="O" unicode="O" horiz-adv-x="594" 
d="M235 712h135q77 0 132.5 -55.5t55.5 -132.5v-336q0 -78 -55.5 -133t-132.5 -55h-135q-77 0 -132.5 55t-55.5 133v336q0 77 55.5 132.5t132.5 55.5zM370 563h-135q-16 0 -27.5 -11.5t-11.5 -27.5v-336q0 -16 11.5 -28t27.5 -12h135q16 0 27.5 12t11.5 28v336
q0 16 -11.5 27.5t-27.5 11.5z" />
    <glyph glyph-name="P" unicode="P" horiz-adv-x="612" 
d="M59 712h335q77 0 132.5 -55t55.5 -133v-68q0 -65 -42 -115t-106 -67l-226 -59v-215h-149v712zM208 563v-194l205 53q20 14 20 34v68q0 16 -11.5 27.5t-27.5 11.5h-186z" />
    <glyph glyph-name="Q" unicode="Q" horiz-adv-x="617" 
d="M249 713h135q77 0 133 -55t56 -132v-337q0 -58 -37.5 -106t-92.5 -69l21 -85h-155l-16 72h-44q-77 0 -132 54.5t-55 133.5v337q0 77 55 132t132 55zM384 565h-135q-16 0 -27.5 -11.5t-11.5 -27.5v-337q0 -16 11.5 -28t27.5 -12h10l-23 91l145 39l29 -120q5 3 7 7
q8 16 8 23v337q0 16 -12 27.5t-29 11.5z" />
    <glyph glyph-name="R" unicode="R" horiz-adv-x="612" 
d="M56 712h334q77 0 132.5 -55t55.5 -133v-68q0 -54 -29 -99.5t-78 -68.5l78 -288h-154l-66 248l-125 -33v-215h-148v712zM204 563v-194l205 53q20 13 20 34v68q0 16 -11.5 27.5t-27.5 11.5h-186z" />
    <glyph glyph-name="S" unicode="S" horiz-adv-x="630" 
d="M249 712h157q74 0 125.5 -56t51.5 -132v-30h-149v30q0 16 -11.5 27.5t-27.5 11.5h-146q-17 0 -29 -11.5t-12 -27.5v-107q0 -12 4 -14q1 -1 7 -1t9 1l131 31q23 5 35 5q76 0 132.5 -55t56.5 -132v-64q0 -78 -55.5 -133.5t-133.5 -55.5h-146q-79 0 -134 55t-55 134v6h149
v-6q0 -16 12 -28.5t28 -12.5h146q16 0 28 12.5t12 28.5v64q0 31 -34 40l-138 -34q-18 -5 -42 -5q-56 0 -99 34q-62 51 -62 130v106q0 78 55.5 133.5t134.5 55.5z" />
    <glyph glyph-name="T" unicode="T" horiz-adv-x="582" 
d="M546 564h-168v-564h-149v564h-170v148h487v-148z" />
    <glyph glyph-name="U" unicode="U" horiz-adv-x="617" 
d="M570 712v-524q0 -78 -55.5 -133t-132.5 -55h-135q-78 0 -133 55t-55 133v524h149v-524q0 -16 11.5 -28t27.5 -12h135q16 0 27.5 12t11.5 28v524h149z" />
    <glyph glyph-name="V" unicode="V" horiz-adv-x="635" 
d="M394 0h-153l-211 712h158l129 -447l130 447h158z" />
    <glyph glyph-name="W" unicode="W" horiz-adv-x="818" 
d="M771 0h-241q-65 0 -115 39q-50 -39 -114 -39h-53q-79 0 -134 55t-55 134v523h149v-523q0 -17 11.5 -29t28.5 -12h53q17 0 29 12t12 29v260l148 37v-297q0 -17 11.5 -29t28.5 -12h93v564h148v-712z" />
    <glyph glyph-name="X" unicode="X" horiz-adv-x="564" 
d="M429 356l104 -356h-155l-82 281h-29l-84 -281h-153l102 356l-102 356h153l84 -283h29l82 283h155z" />
    <glyph glyph-name="Y" unicode="Y" horiz-adv-x="583" 
d="M547 712v-284q0 -76 -53 -130t-129 -58v-240h-148v240q-76 4 -129 58t-53 130v284h151v-284q0 -17 11.5 -28.5t28.5 -11.5h132q17 0 28 11.5t11 28.5v284h150z" />
    <glyph glyph-name="Z" unicode="Z" horiz-adv-x="558" 
d="M65 712h313q89 0 129 -68q13 -20 13 -55q0 -52 -29 -90l-264 -350h283v-149h-310q-90 0 -129 66q-13 25 -13 56q0 47 28 88l3 4l265 349h-289v149z" />
    <glyph glyph-name="bracketleft" unicode="[" horiz-adv-x="452" 
d="M404 725h-147q-18 0 -31 -13t-13 -31v-655q0 -19 13 -31.5t31 -12.5h147v-165h-147q-87 0 -148.5 61.5t-61.5 147.5v654q0 87 61.5 148.5t148.5 61.5h147v-165z" />
    <glyph glyph-name="backslash" unicode="\" horiz-adv-x="459" 
d="M412 0h-152l-211 712h158z" />
    <glyph glyph-name="bracketright" unicode="]" horiz-adv-x="453" 
d="M47 890h149q86 0 147 -61.5t61 -148.5v-654q0 -86 -61 -147.5t-147 -61.5h-149v165h149q18 0 31 12.5t13 31.5v655q0 18 -13 31t-31 13h-149v165z" />
    <glyph glyph-name="underscore" unicode="_" horiz-adv-x="635" 
d="M577 -225h-520v148h520v-148z" />
    <glyph glyph-name="a" unicode="a" horiz-adv-x="617" 
d="M248 712h134q78 0 133.5 -55t55.5 -133v-524h-150v264l-212 -58v-206h-150v524q0 78 55 133t134 55zM382 563h-134q-16 0 -27.5 -11.5t-11.5 -27.5v-165l212 57v108q0 16 -11.5 27.5t-27.5 11.5z" />
    <glyph glyph-name="b" unicode="b" horiz-adv-x="601" 
d="M47 712h232q78 0 133 -55t55 -133v-79q0 -18 -2 -28q48 -23 77 -68t29 -100v-60q0 -78 -55.5 -133.5t-133.5 -55.5h-335v712zM197 564v-169l91 21q12 3 21.5 12.5t9.5 14.5v81q0 16 -11.5 28t-28.5 12h-82zM197 242v-99h185q16 0 27.5 12t11.5 29v65q0 14 -9.5 25.5
t-23.5 13.5z" />
    <glyph glyph-name="c" unicode="c" horiz-adv-x="614" 
d="M248 712h133q77 0 131.5 -55t54.5 -133v-52h-147v52q0 16 -11.5 28t-27.5 12h-133q-17 0 -29 -11.5t-12 -28.5v-335q0 -17 12 -29t29 -12h133q16 0 27.5 12t11.5 29v73h147v-73q0 -79 -54.5 -134t-131.5 -55h-133q-79 0 -134 55t-55 134v335q0 78 55 133t134 55z" />
    <glyph glyph-name="d" unicode="d" horiz-adv-x="617" 
d="M59 712h322q78 0 133.5 -55t55.5 -132v-338q0 -77 -55 -132t-134 -55h-322v712zM208 563v-415h173q16 0 28 11.5t12 27.5v338q0 15 -12 26.5t-28 11.5h-173z" />
    <glyph glyph-name="e" unicode="e" horiz-adv-x="544" 
d="M494 565h-246q-16 0 -28 -11.5t-12 -28.5v-153l218 58v-153l-218 -57v-31q0 -16 12 -28t28 -12h247v-149h-247q-79 0 -134 55t-55 134v336q0 78 55 132.5t134 54.5h246v-147z" />
    <glyph glyph-name="f" unicode="f" horiz-adv-x="544" 
d="M495 564h-248q-16 0 -27.5 -12t-11.5 -28v-153l218 58v-154l-218 -58v-217h-149v524q0 78 54.5 133t133.5 55h248v-148z" />
    <glyph glyph-name="g" unicode="g" horiz-adv-x="615" 
d="M246 712h132q77 0 133 -55t56 -132v-51l-148 -1v52q0 17 -12 28.5t-29 11.5h-132q-16 0 -27.5 -12t-11.5 -28v-337q0 -16 11.5 -28t27.5 -12h132q18 0 29.5 10.5t11.5 27.5v39l-107 -26v152l255 64v-228q0 -78 -55.5 -132.5t-133.5 -54.5h-132q-78 0 -132.5 55t-54.5 133
v337q0 77 54.5 132t132.5 55z" />
    <glyph glyph-name="h" unicode="h" horiz-adv-x="617" 
d="M570 0h-149v264l-213 -58v-206h-149v712h149v-353l213 57v296h149v-712z" />
    <glyph glyph-name="i" unicode="i" horiz-adv-x="255" 
d="M208 0h-149v712h149v-712z" />
    <glyph glyph-name="j" unicode="j" horiz-adv-x="616" 
d="M569 712v-523q0 -78 -55 -133.5t-132 -55.5h-134q-79 0 -134 55t-55 134v122h149v-122q0 -17 11.5 -29t28.5 -12h134q16 0 27 12t11 29v523h149z" />
    <glyph glyph-name="k" unicode="k" horiz-adv-x="589" 
d="M454 336l91 -336h-155l-67 251l-115 -32v-219h-149v712h149v-340l111 30l83 310h157z" />
    <glyph glyph-name="l" unicode="l" horiz-adv-x="526" 
d="M208 712v-524q0 -16 12 -28t28 -12h246l1 -148h-247q-78 0 -133.5 55t-55.5 133v524h149z" />
    <glyph glyph-name="m" unicode="m" horiz-adv-x="819" 
d="M531 712h53q78 0 133 -55t55 -133v-524h-148v524q0 16 -11.5 27.5t-28.5 11.5h-53q-16 0 -28.5 -11.5t-12.5 -27.5v-263l-148 -36v299q0 16 -12 27.5t-29 11.5h-93v-563h-149v712h242q61 0 115 -39q53 39 115 39z" />
    <glyph glyph-name="n" unicode="n" horiz-adv-x="620" 
d="M59 712h326q76 0 131.5 -55.5t55.5 -132.5v-524h-149v524q0 16 -11 28t-27 12h-177v-564h-149v712z" />
    <glyph glyph-name="o" unicode="o" horiz-adv-x="594" 
d="M235 712h135q77 0 132.5 -55.5t55.5 -132.5v-336q0 -78 -55.5 -133t-132.5 -55h-135q-77 0 -132.5 55t-55.5 133v336q0 77 55.5 132.5t132.5 55.5zM370 563h-135q-16 0 -27.5 -11.5t-11.5 -27.5v-336q0 -16 11.5 -28t27.5 -12h135q16 0 27.5 12t11.5 28v336
q0 16 -11.5 27.5t-27.5 11.5z" />
    <glyph glyph-name="p" unicode="p" horiz-adv-x="612" 
d="M59 712h335q77 0 132.5 -55t55.5 -133v-68q0 -65 -42 -115t-106 -67l-226 -59v-215h-149v712zM208 563v-194l205 53q20 14 20 34v68q0 16 -11.5 27.5t-27.5 11.5h-186z" />
    <glyph glyph-name="q" unicode="q" horiz-adv-x="617" 
d="M249 713h135q77 0 133 -55t56 -132v-337q0 -58 -37.5 -106t-92.5 -69l21 -85h-155l-16 72h-44q-77 0 -132 54.5t-55 133.5v337q0 77 55 132t132 55zM384 565h-135q-16 0 -27.5 -11.5t-11.5 -27.5v-337q0 -16 11.5 -28t27.5 -12h10l-23 91l145 39l29 -120q5 3 7 7
q8 16 8 23v337q0 16 -12 27.5t-29 11.5z" />
    <glyph glyph-name="r" unicode="r" horiz-adv-x="612" 
d="M56 712h334q77 0 132.5 -55t55.5 -133v-68q0 -54 -29 -99.5t-78 -68.5l78 -288h-154l-66 248l-125 -33v-215h-148v712zM204 563v-194l205 53q20 13 20 34v68q0 16 -11.5 27.5t-27.5 11.5h-186z" />
    <glyph glyph-name="s" unicode="s" horiz-adv-x="630" 
d="M249 712h157q74 0 125.5 -56t51.5 -132v-30h-149v30q0 16 -11.5 27.5t-27.5 11.5h-146q-17 0 -29 -11.5t-12 -27.5v-107q0 -12 4 -14q1 -1 7 -1t9 1l131 31q23 5 35 5q76 0 132.5 -55t56.5 -132v-64q0 -78 -55.5 -133.5t-133.5 -55.5h-146q-79 0 -134 55t-55 134v6h149
v-6q0 -16 12 -28.5t28 -12.5h146q16 0 28 12.5t12 28.5v64q0 31 -34 40l-138 -34q-18 -5 -42 -5q-56 0 -99 34q-62 51 -62 130v106q0 78 55.5 133.5t134.5 55.5z" />
    <glyph glyph-name="t" unicode="t" horiz-adv-x="582" 
d="M546 564h-168v-564h-149v564h-170v148h487v-148z" />
    <glyph glyph-name="u" unicode="u" horiz-adv-x="617" 
d="M570 712v-524q0 -78 -55.5 -133t-132.5 -55h-135q-78 0 -133 55t-55 133v524h149v-524q0 -16 11.5 -28t27.5 -12h135q16 0 27.5 12t11.5 28v524h149z" />
    <glyph glyph-name="v" unicode="v" horiz-adv-x="635" 
d="M394 0h-153l-211 712h158l129 -447l130 447h158z" />
    <glyph glyph-name="w" unicode="w" horiz-adv-x="818" 
d="M771 0h-241q-65 0 -115 39q-50 -39 -114 -39h-53q-79 0 -134 55t-55 134v523h149v-523q0 -17 11.5 -29t28.5 -12h53q17 0 29 12t12 29v260l148 37v-297q0 -17 11.5 -29t28.5 -12h93v564h148v-712z" />
    <glyph glyph-name="x" unicode="x" horiz-adv-x="564" 
d="M429 356l104 -356h-155l-82 281h-29l-84 -281h-153l102 356l-102 356h153l84 -283h29l82 283h155z" />
    <glyph glyph-name="y" unicode="y" horiz-adv-x="583" 
d="M547 712v-284q0 -76 -53 -130t-129 -58v-240h-148v240q-76 4 -129 58t-53 130v284h151v-284q0 -17 11.5 -28.5t28.5 -11.5h132q17 0 28 11.5t11 28.5v284h150z" />
    <glyph glyph-name="z" unicode="z" horiz-adv-x="558" 
d="M65 712h313q89 0 129 -68q13 -20 13 -55q0 -52 -29 -90l-264 -350h283v-149h-310q-90 0 -129 66q-13 25 -13 56q0 47 28 88l3 4l265 349h-289v149z" />
    <glyph glyph-name="bar" unicode="|" horiz-adv-x="181" 
d="M84 845q79 0 79 -86v-696q0 -80 -80 -80t-80 80v696q0 44 19.5 65t61.5 21z" />
    <glyph glyph-name="uni00A0" unicode="&#xa0;" horiz-adv-x="218" 
 />
    <glyph glyph-name="uni060C" unicode="&#x60c;" horiz-adv-x="246" 
d="M206 0h-167l71 212l79 66z" />
    <glyph glyph-name="uni061B" unicode="&#x61b;" horiz-adv-x="276" 
d="M215 260h-158l80 155l99 70zM206 0h-149v127h149v-127z" />
    <glyph glyph-name="uni061F" unicode="&#x61f;" horiz-adv-x="617" 
d="M236 712h158q72 0 124 -56.5t52 -131.5v-30h-149v30q0 16 -11 28t-27 12h-147q-16 0 -28 -12t-12 -28v-57q0 -29 37 -29q78 0 133 -55.5t55 -134.5v-49h-149v49q0 18 -11.5 30t-27.5 12q-95 0 -140.5 48t-45.5 113v73q0 78 55.5 133t133.5 55zM422 0h-149v125h149v-125z
" />
    <glyph glyph-name="uni0621" unicode="&#x621;" horiz-adv-x="427" 
d="M360 258h-120q-31 0 -31 -27v-89q0 -27 27 -27h151v-115h-347v115h67v27v89q0 134 133 134h120v-107z" />
    <glyph glyph-name="uni0622" unicode="&#x622;" horiz-adv-x="227" 
d="M210 876l-9 -58l-91 -37h-105v48h105zM187 0h-146v712h146v-712z" />
    <glyph glyph-name="uni0623" unicode="&#x623;" horiz-adv-x="227" 
d="M174 907h-53q-9 0 -9 -14v-44q0 -9 9 -9h66v-49h-151v49h27v53q0 58 58 58h53v-44zM187 0h-147v712h147v-712z" />
    <glyph glyph-name="uni0624" unicode="&#x624;" horiz-adv-x="521" 
d="M319 687h-53q-9 0 -9 -14v-44q0 -9 9 -9h66v-49h-151v49h27v53q0 58 58 58h53v-44zM481 485v-521q0 -77 -54 -132t-133 -55h-147v147h133q54 0 54 40v36h-103q-81 0 -133 58q-58 52 -58 129v111q0 76 56 131.5t135 55.5h250zM334 338h-103q-40 0 -40 -40v-111
q0 -40 40 -40h103v191z" />
    <glyph glyph-name="uni0625" unicode="&#x625;" horiz-adv-x="227" 
d="M187 0h-147v712h147v-712zM178 -133h-53q-14 0 -14 -13v-41q0 -8 14 -13h62v-44h-147v44h27v54q0 57 58 57h53v-44z" />
    <glyph glyph-name="uni0626" unicode="&#x626;" horiz-adv-x="801" 
d="M712 557h-200q-40 0 -40 -40v-106q0 -40 40 -40h249v-187q0 -76 -53 -129q-58 -54 -134 -54h-347q-75 0 -134 54q-53 58 -53 133v98h147v-98q0 -40 40 -40h329q58 0 58 36v40h-102q-79 0 -138 53q-54 53 -54 134v106q0 80 56 136t136 56h200v-152zM219 517h-76
q-13 0 -13 -17v-63q0 -13 13 -13h94v-67h-214v67h40v76q0 80 80 80h76v-63z" />
    <glyph glyph-name="uni0627" unicode="&#x627;" horiz-adv-x="227" 
d="M187 0h-147v712h147v-712z" />
    <glyph glyph-name="uni0628" unicode="&#x628;" horiz-adv-x="775" 
d="M735 0h-508q-75 0 -133 54q-54 58 -54 133v298h147v-298q0 -40 40 -40h361v338h147v-485zM415 -108q81 0 81 -81q0 -80 -81 -80q-80 0 -80 80q0 81 80 81z" />
    <glyph glyph-name="uni0629" unicode="&#x629;" horiz-adv-x="525" 
d="M172 745q81 0 81 -81q0 -80 -81 -80q-80 0 -80 80q0 81 80 81zM375 745q81 0 81 -81q0 -80 -81 -80q-80 0 -80 80q0 81 80 81zM227 485h71q76 0 134 -58q53 -59 53 -134v-102q0 -80 -55.5 -135.5t-131.5 -55.5h-71q-77 0 -129 58q-58 52 -58 133v102q0 76 58 134
q52 58 129 58zM298 333h-71q-35 0 -35 -40v-102q0 -40 35 -40h71q40 0 40 40v102q0 40 -40 40z" />
    <glyph glyph-name="uni062A" unicode="&#x62a;" horiz-adv-x="775" 
d="M295 718q81 0 81 -81q0 -80 -81 -80q-80 0 -80 80q0 81 80 81zM498 718q81 0 81 -81q0 -80 -81 -80q-80 0 -80 80q0 81 80 81zM735 0h-508q-75 0 -133 54q-54 58 -54 133v298h147v-298q0 -40 40 -40h361v338h147v-485z" />
    <glyph glyph-name="uni062B" unicode="&#x62b;" horiz-adv-x="775" 
d="M398 908q81 0 81 -81q0 -80 -81 -80q-80 0 -80 80q0 81 80 81zM295 718q81 0 81 -81q0 -80 -81 -80q-80 0 -80 80q0 81 80 81zM498 718q81 0 81 -81q0 -80 -81 -80q-80 0 -80 80q0 81 80 81zM735 0h-508q-75 0 -133 54q-54 58 -54 133v298h147v-298q0 -40 40 -40h361v338
h147v-485z" />
    <glyph glyph-name="uni062C" unicode="&#x62c;" horiz-adv-x="565" 
d="M142 485h192q80 0 135.5 -55.5t55.5 -135.5v-294h-294q-40 0 -40 -35q0 -40 40 -40h18v-147h-18q-80 0 -133 53q-58 54 -58 134q5 182 191 182h147v147q0 40 -44 40h-192v151zM409 -72q80 0 80 -81q0 -80 -80 -80t-80 80q0 81 80 81z" />
    <glyph glyph-name="uni062D" unicode="&#x62d;" horiz-adv-x="565" 
d="M142 485h192q80 0 135.5 -55.5t55.5 -135.5v-294h-294q-40 0 -40 -35q0 -40 40 -40h18v-147h-18q-80 0 -133 53q-58 54 -58 134q5 182 191 182h147v147q0 40 -44 40h-192v151z" />
    <glyph glyph-name="uni062E" unicode="&#x62e;" horiz-adv-x="565" 
d="M255 745q81 0 81 -81q0 -80 -81 -80q-80 0 -80 80q0 81 80 81zM142 485h192q80 0 135.5 -55.5t55.5 -135.5v-294h-294q-40 0 -40 -35q0 -40 40 -40h18v-147h-18q-80 0 -133 53q-58 54 -58 134q5 182 191 182h147v147q0 40 -44 40h-192v151z" />
    <glyph glyph-name="uni062F" unicode="&#x62f;" horiz-adv-x="476" 
d="M142 485h102q80 0 134 -57q58 -54 58 -134v-294h-396v147h244v147q0 40 -40 40h-102v151z" />
    <glyph glyph-name="uni0630" unicode="&#x630;" horiz-adv-x="476" 
d="M255 745q81 0 81 -81q0 -80 -81 -80q-80 0 -80 80q0 81 80 81zM142 485h102q80 0 134 -57q58 -54 58 -134v-294h-396v147h244v147q0 40 -40 40h-102v151z" />
    <glyph glyph-name="uni0631" unicode="&#x631;" horiz-adv-x="369" 
d="M329 485v-520q0 -76 -58 -134q-58 -53 -133 -53h-98v147h98q40 0 40 40v520h151z" />
    <glyph glyph-name="uni0632" unicode="&#x632;" horiz-adv-x="369" 
d="M255 745q81 0 81 -81q0 -80 -81 -80q-80 0 -80 80q0 81 80 81zM329 485v-520q0 -76 -58 -134q-58 -53 -133 -53h-98v147h98q40 0 40 40v520h151z" />
    <glyph glyph-name="uni0633" unicode="&#x633;" horiz-adv-x="1157" 
d="M1117 485v-293q0 -192 -191 -192h-54q-62 0 -111 40q-52 -40 -116 -40h-93v-35q0 -76 -55.5 -131.5t-131.5 -55.5h-138q-75 0 -134 53q-53 59 -53 134v182h147v-182q0 -40 40 -40h138q35 0 35 40v427h152v-245h93q40 0 40 45v293l147 -31v-262q0 -45 40 -45h54
q40 0 40 45v293h151z" />
    <glyph glyph-name="uni0634" unicode="&#x634;" horiz-adv-x="1157" 
d="M758 935q81 0 81 -81q0 -80 -81 -80q-80 0 -80 80q0 81 80 81zM655 745q81 0 81 -81q0 -80 -81 -80q-80 0 -80 80q0 81 80 81zM858 745q81 0 81 -81q0 -80 -81 -80q-80 0 -80 80q0 81 80 81zM1117 485v-293q0 -192 -191 -192h-54q-62 0 -111 40q-52 -40 -116 -40h-93v-35
q0 -76 -55.5 -131.5t-131.5 -55.5h-138q-75 0 -134 53q-53 59 -53 134v182h147v-182q0 -40 40 -40h138q35 0 35 40v427h152v-245h93q40 0 40 45v293l147 -31v-262q0 -45 40 -45h54q40 0 40 45v293h151z" />
    <glyph glyph-name="uni0635" unicode="&#x635;" horiz-adv-x="1264" 
d="M841 480h191q81 0 136.5 -55.5t55.5 -135.5v-289h-672v-40q0 -77 -58 -129q-52 -58 -129 -58h-138q-76 0 -131.5 55.5t-55.5 135.5v183h147v-183q0 -40 40 -40h138q36 0 36 40v454h151v-271h44l58 187q41 146 187 146zM1032 334h-191q-22 0 -36 -23l-53 -164h320v147
q0 40 -40 40z" />
    <glyph glyph-name="uni0636" unicode="&#x636;" horiz-adv-x="1264" 
d="M952 745q81 0 81 -81q0 -80 -81 -80q-80 0 -80 80q0 81 80 81zM841 480h191q81 0 136.5 -55.5t55.5 -135.5v-289h-672v-40q0 -77 -58 -129q-52 -58 -129 -58h-138q-76 0 -131.5 55.5t-55.5 135.5v183h147v-183q0 -40 40 -40h138q36 0 36 40v454h151v-271h44l58 187
q41 146 187 146zM1032 334h-191q-22 0 -36 -23l-53 -164h320v147q0 40 -40 40z" />
    <glyph glyph-name="uni0637" unicode="&#x637;" horiz-adv-x="796" 
d="M244 712v-289q58 57 129 57h192q80 0 135.5 -55.5t55.5 -135.5v-289h-716v147h53v565h151zM565 334h-192q-21 0 -35 -23l-54 -164h321v147q0 40 -40 40z" />
    <glyph glyph-name="uni0638" unicode="&#x638;" horiz-adv-x="796" 
d="M466 745q81 0 81 -81q0 -80 -81 -80q-80 0 -80 80q0 81 80 81zM244 712v-289q58 57 129 57h192q80 0 135.5 -55.5t55.5 -135.5v-289h-716v147h53v565h151zM565 334h-192q-21 0 -35 -23l-54 -164h321v147q0 40 -40 40z" />
    <glyph glyph-name="uni0639" unicode="&#x639;" horiz-adv-x="587" 
d="M507 334h-169q-40 0 -40 -40v-107q0 -40 40 -40h209v-147h-316q-39 0 -44 -36q4 -40 44 -40h14v-151h-14q-81 0 -133 58q-58 52 -58 133q0 124 116 174q-9 27 -9 49v107q0 76 55.5 131t135.5 55h169v-146z" />
    <glyph glyph-name="uni063A" unicode="&#x63a;" horiz-adv-x="587" 
d="M380 745q81 0 81 -81q0 -80 -81 -80q-80 0 -80 80q0 81 80 81zM507 334h-169q-40 0 -40 -40v-107q0 -40 40 -40h209v-147h-316q-39 0 -44 -36q4 -40 44 -40h14v-151h-14q-81 0 -133 58q-58 52 -58 133q0 124 116 174q-9 27 -9 49v107q0 76 55.5 131t135.5 55h169v-146z
" />
    <glyph glyph-name="uni0640" unicode="&#x640;" horiz-adv-x="216" 
d="M236 0h-256v147h256v-147z" />
    <glyph glyph-name="uni0641" unicode="&#x641;" horiz-adv-x="1032" 
d="M818 745q81 0 81 -81q0 -80 -81 -80q-80 0 -80 80q0 81 80 81zM992 0h-761q-80 0 -133 53q-58 54 -58 134v147h151v-134q0 -53 40 -53h370q-5 20 -5 35v112q0 76 55.5 131t135.5 55h205v-480zM841 334h-54q-40 0 -40 -40v-112q0 -35 40 -35h54v187z" />
    <glyph glyph-name="uni0642" unicode="&#x642;" horiz-adv-x="658" 
d="M326 745q81 0 81 -81q0 -80 -81 -80q-80 0 -80 80q0 81 80 81zM529 745q81 0 81 -81q0 -80 -81 -80q-80 0 -80 80q0 81 80 81zM618 480v-516q0 -80 -57 -133q-54 -58 -129 -58h-201q-81 0 -133 58q-58 52 -58 133v183h151v-183q0 -40 40 -40h201q35 0 35 40v36h-53
q-80 0 -136 55.5t-56 131.5v107q0 76 56 131t136 55h204zM467 334h-53q-40 0 -40 -40v-107q0 -40 40 -40h53v187z" />
    <glyph glyph-name="uni0643" unicode="&#x643;" horiz-adv-x="779" 
d="M739 0h-507q-81 0 -134 53q-58 54 -58 134v178h151v-178q0 -40 41 -40h356v565h151v-712zM463 646h-76q-17 0 -17 -18v-58q0 -18 17 -18h94v-67h-214v67h40v18v58q0 80 80 80h76v-62z" />
    <glyph glyph-name="uni0644" unicode="&#x644;" horiz-adv-x="654" 
d="M614 712v-748q0 -76 -55.5 -131.5t-131.5 -55.5h-200q-79 0 -133 55t-54 132v183h147v-183q0 -40 40 -40h200q36 0 36 40v748h151z" />
    <glyph glyph-name="uni0645" unicode="&#x645;" horiz-adv-x="703" 
d="M409 485h67q75 0 133 -58q54 -59 54 -134v-102q0 -79 -55.5 -135t-131.5 -56h-249q-41 0 -41 -54v-169h-146v183q0 79 52.5 133t129.5 58q-4 16 -4 40v102q0 75 57 134q54 58 134 58zM476 333h-67q-40 0 -40 -40v-102q0 -40 31 -44h76q40 0 40 44v102q0 40 -40 40z" />
    <glyph glyph-name="uni0646" unicode="&#x646;" horiz-adv-x="694" 
d="M329 485q80 0 80 -80t-80 -80t-80 80t80 80zM654 418v-454q0 -76 -55.5 -131.5t-131.5 -55.5h-240q-79 0 -133 55t-54 132v307h147v-307q0 -40 40 -40h240q36 0 36 40v454h151z" />
    <glyph glyph-name="uni0647" unicode="&#x647;" horiz-adv-x="525" 
d="M227 485h71q76 0 134 -58q53 -59 53 -134v-102q0 -80 -55.5 -135.5t-131.5 -55.5h-71q-77 0 -129 58q-58 52 -58 133v102q0 76 58 134q52 58 129 58zM298 333h-71q-35 0 -35 -40v-102q0 -40 35 -40h71q40 0 40 40v102q0 40 -40 40z" />
    <glyph glyph-name="uni0648" unicode="&#x648;" horiz-adv-x="521" 
d="M481 485v-521q0 -77 -54 -132t-133 -55h-147v147h133q54 0 54 40v36h-103q-81 0 -133 58q-58 52 -58 129v111q0 76 56 131.5t135 55.5h250zM334 338h-103q-40 0 -40 -40v-111q0 -40 40 -40h103v191z" />
    <glyph glyph-name="uni0649" unicode="&#x649;" horiz-adv-x="801" 
d="M712 556h-200q-40 0 -40 -40v-106q0 -40 40 -40h249v-187q0 -76 -53 -129q-58 -54 -134 -54h-347q-75 0 -134 54q-53 58 -53 133v98h147v-98q0 -40 40 -40h329q58 0 58 36v40h-102q-79 0 -138 53q-54 52 -54 134v106q0 80 56 136t136 56h200v-152z" />
    <glyph glyph-name="uni064A" unicode="&#x64a;" horiz-adv-x="801" 
d="M712 556h-200q-40 0 -40 -40v-106q0 -40 40 -40h249v-187q0 -76 -53 -129q-58 -54 -134 -54h-347q-75 0 -134 54q-53 58 -53 133v98h147v-98q0 -40 40 -40h329q58 0 58 36v40h-102q-79 0 -138 53q-54 52 -54 134v106q0 80 56 136t136 56h200v-152zM298 -108q81 0 81 -81
q0 -80 -81 -80q-80 0 -80 80q0 81 80 81zM501 -108q81 0 81 -81q0 -80 -81 -80q-80 0 -80 80q0 81 80 81z" />
    <glyph glyph-name="uni064B" unicode="&#x64b;" 
d="M116 100h-232v52h232v-52zM116 0h-232v52h232v-52z" />
    <glyph glyph-name="uni064C" unicode="&#x64c;" 
d="M38 230l-150 -104l-4 -4q-12 -8 0 -23l26 -38l-42 -29l-29 42q-16 23 -11 49t27 42l22 15l131 93zM19 193l34 19q22 13 49 6t41 -31l43 -76l-157 -91q-24 -13 -50 -6.5t-40 30.5l-26 44l45 26l23 -40q11 -17 22 -10l11 7l-18 31q-14 24 -6 50q6 27 29 41zM79 166l-34 -19
q-12 -8 -5 -19l18 -31l58 33l-18 31q-8 12 -19 5z" />
    <glyph glyph-name="uni064D" unicode="&#x64d;" 
d="M116 -52h-232v52h232v-52zM116 -152h-232v52h232v-52z" />
    <glyph glyph-name="uni064E" unicode="&#x64e;" 
d="M116 0h-232v52h232v-52z" />
    <glyph glyph-name="uni064F" unicode="&#x64f;" 
d="M-31 193l33 19q23 13 49.5 6t40.5 -31l44 -76l-158 -91q-23 -13 -49 -6.5t-40 30.5l-26 44l45 26l23 -40q9 -17 21 -10l11 7l-18 31q-14 25 -5 50q6 27 29 41zM29 166l-34 -19q-12 -8 -5 -19l18 -31l58 33l-18 31q-8 12 -19 5z" />
    <glyph glyph-name="uni0650" unicode="&#x650;" 
d="M116 -52h-232v52h232v-52z" />
    <glyph glyph-name="uni0651" unicode="&#x651;" 
d="M124 139v-74q0 -27 -19 -46t-47 -19h-17q-25 0 -41 12q-16 -12 -41 -12h-18q-27 0 -46 19t-19 46v74h51v-74q0 -14 14 -14h18q13 0 14 13v70h54v-70q1 -13 14 -13h17q14 0 14 14v74h52z" />
    <glyph glyph-name="uni0652" unicode="&#x652;" 
d="M-12 169h25q27 0 46.5 -20t19.5 -47v-36q0 -28 -19.5 -47t-46.5 -19h-25q-25 0 -45 20q-20 18 -20 46v36q0 27 19.5 47t45.5 20zM13 116h-25q-12 0 -12 -14v-36q0 -14 12 -14h25q14 0 14 14v36q0 14 -14 14z" />
    <glyph glyph-name="uni0653" unicode="&#x653;" 
d="M115 190h51q0 -33 -4 -62.5t-14 -60t-31.5 -49t-51.5 -18.5q-41 0 -80 45q-37 45 -50 45q-50 0 -50 -100h-51q0 33 4 63t14 60.5t31.5 48.5t51.5 18q39 0 78 -45t52 -45q50 0 50 100z" />
    <glyph glyph-name="uni0654" unicode="&#x654;" 
d="M63 116h-53q-9 0 -9 -14v-44q0 -9 9 -9h66v-49h-151v49h27v53q0 58 58 58h53v-44z" />
    <glyph glyph-name="uni0656" unicode="&#x656;" 
d="M26 -142h-52v142h52v-142z" />
    <glyph glyph-name="uni0660" unicode="&#x660;" horiz-adv-x="618" 
d="M248 712h135q77 0 132.5 -55t55.5 -133v-336q0 -78 -55.5 -133t-132.5 -55h-135q-78 0 -133.5 55t-55.5 133v336q0 78 55.5 133t133.5 55zM383 564h-135q-16 0 -28 -12t-12 -28v-128l214 57v71q0 16 -11.5 28t-27.5 12zM208 241v-53q0 -16 12 -28t28 -12h135
q16 0 27.5 12t11.5 28v111z" />
    <glyph glyph-name="uni0661" unicode="&#x661;" horiz-adv-x="364" 
d="M317 0h-148v565h-110v50q0 32 33 64.5t77 32.5h148v-712z" />
    <glyph glyph-name="uni0662" unicode="&#x662;" horiz-adv-x="629" 
d="M247 712h146q78 0 133.5 -55t55.5 -132v-105q0 -84 -61 -132q-45 -34 -99 -34q-14 0 -42 6l-139 34q-14 -2 -23.5 -13.5t-9.5 -27.5v-105h371v-148h-520v253q0 79 55 134t133 55q8 0 23 -3l137 -32q2 0 7 -2t8 -2q4 0 7 3q4 1 4 14v105q0 16 -12 27.5t-28 11.5h-147
q-16 0 -27 -11.5t-11 -27.5v-30h-149v30q0 74 51 128t125 59h12z" />
    <glyph glyph-name="uni0663" unicode="&#x663;" horiz-adv-x="615" 
d="M59 712h214q79 0 134 -55t55 -132v-96q0 -32 -8 -55q51 -23 82 -69.5t31 -104.5v-12q0 -78 -55.5 -133t-133.5 -55h-316v148h316q17 0 29 11.5t12 28.5v12q0 17 -12 28.5t-29 11.5h-197v149h92q17 0 29 11.5t12 28.5v96q0 16 -12 27.5t-29 11.5h-214v148z" />
    <glyph glyph-name="uni0664" unicode="&#x664;" horiz-adv-x="618" 
d="M571 0h-149v245q-15 -5 -39 -5h-135q-78 0 -133.5 55.5t-55.5 133.5v283h149v-283q0 -16 12 -28t28 -12h135q16 0 27.5 12t11.5 28v283h149v-712z" />
    <glyph glyph-name="uni0665" unicode="&#x665;" horiz-adv-x="628" 
d="M578 564h-370v-106q0 -15 8 -27t23 -12q6 0 9 1l130 32q20 4 43 4q59 0 99 -33q60 -46 60 -130v-104q0 -79 -55.5 -134t-133.5 -55h-147l-9 1q-75 11 -125.5 63t-50.5 125v28h149v-28q0 -16 11.5 -28.5t26.5 -12.5h145q17 0 29 12t12 29v104q0 13 -4 14l-2 1q-2 1 -4 1
q-4 0 -12 -2t-9 -2q-107 -25 -128 -31l-26 -4q-78 0 -133 55t-55 133v254h519v-148z" />
    <glyph glyph-name="uni0666" unicode="&#x666;" horiz-adv-x="618" 
d="M247 712h135q78 0 133.5 -55t55.5 -132h-149q0 16 -12 27.5t-28 11.5h-135q-16 0 -27.5 -11.5t-11.5 -27.5v-111l160 39q23 5 42 5q56 0 100 -33q61 -48 61 -131v-105q0 -78 -55.5 -133.5t-133.5 -55.5h-146l-11 1q-65 8 -111 52q-55 55 -55 135v337q0 77 55 132t133 55z
M410 310q-4 0 -8 -1l-194 -48v-74q0 -17 11 -28q13 -11 25 -11h138q16 0 28 12t12 29v105q0 12 -5 15q-1 1 -7 1z" />
    <glyph glyph-name="uni0667" unicode="&#x667;" horiz-adv-x="642" 
d="M382 0h-153l164 564h-334v148h536z" />
    <glyph glyph-name="uni0668" unicode="&#x668;" horiz-adv-x="629" 
d="M248 712h145q78 0 133.5 -55t55.5 -133v-34q0 -70 -41 -120q41 -52 41 -116v-65q0 -79 -55.5 -134t-133.5 -55h-145q-77 0 -133 53t-56 129v31q0 55 32 105q-32 45 -32 101v105q0 78 55 133t134 55zM393 564h-145q-16 0 -28 -12t-12 -28v-105q0 -12 5 -15q2 -2 7 -2
q7 0 15 4l137 33q22 5 35 11t18.5 13.5t6.5 12.5t1 14v35q0 16 -12 27.5t-28 11.5zM400 293l-152 -35q-16 -4 -28 -16.5t-12 -28.5v-25q0 -16 12 -28t28 -12h145q17 0 28.5 12t11.5 29v65q0 15 -9.5 26.5t-23.5 12.5z" />
    <glyph glyph-name="uni0669" unicode="&#x669;" horiz-adv-x="617" 
d="M514 659q56 -56 56 -133v-337q0 -78 -55.5 -133.5t-133.5 -55.5h-133q-79 0 -134 55.5t-55 133.5h149q0 -17 11.5 -29t28.5 -12h133q17 0 28.5 12t11.5 29v110l-159 -39q-23 -5 -42 -5q-58 0 -101 33q-60 49 -60 131v105q0 78 55 133t134 55zM383 564h-135q-16 0 -28 -12
t-12 -28v-105q0 -12 5 -15q1 -1 6 -1q4 0 8 1l194 48v74q0 15 -12 27q-11 11 -26 11z" />
    <glyph glyph-name="uni066A" unicode="&#x66a;" horiz-adv-x="710" 
d="M201 0h-152l454 712h158zM181 625q39 0 65.5 -27t26.5 -66q0 -38 -26.5 -64.5t-65.5 -26.5q-38 0 -65 26.5t-27 64.5q0 40 26 66.5t66 26.5zM548 247q39 0 65.5 -27t26.5 -66q0 -38 -26.5 -64.5t-65.5 -26.5q-38 0 -65 26.5t-27 64.5q0 40 26 66.5t66 26.5z" />
    <glyph glyph-name="uni066D" unicode="&#x66d;" horiz-adv-x="494" 
d="M287 430l159 99v-101l-116 -72l116 -71v-101l-159 99v-171h-80v169l-160 -97v97l122 75l-122 75v98l160 -98v169h80v-170z" />
    <glyph glyph-name="uni0670" unicode="&#x670;" 
d="M26 0h-52v142h52v-142z" />
    <glyph glyph-name="uni06D4" unicode="&#x6d4;" horiz-adv-x="263" 
d="M206 0h-149v127h149v-127z" />
    <glyph glyph-name="endash" unicode="&#x2013;" horiz-adv-x="615" 
d="M567 281h-520v148h520v-148z" />
    <glyph glyph-name="emdash" unicode="&#x2014;" horiz-adv-x="806" 
d="M759 281h-712v148h712v-148z" />
    <glyph glyph-name="quoteleft" unicode="&#x2018;" horiz-adv-x="312" 
d="M265 677h-155l-63 213h159z" />
    <glyph glyph-name="quoteright" unicode="&#x2019;" horiz-adv-x="312" 
d="M202 677h-155l59 213h159z" />
    <glyph glyph-name="quotedblleft" unicode="&#x201c;" horiz-adv-x="533" 
d="M265 677h-155l-63 213h160zM485 677h-154l-63 213h158z" />
    <glyph glyph-name="quotedblright" unicode="&#x201d;" horiz-adv-x="533" 
d="M202 677h-155l59 213h159zM422 677h-154l58 213h159z" />
    <glyph glyph-name="fraction" unicode="&#x2044;" horiz-adv-x="452" 
d="M201 0h-152l205 712h158z" />
    <glyph glyph-name="uni0651064B" 
d="M116 290h-232v52h232v-52zM116 190h-232v52h232v-52zM124 139v-74q0 -27 -19 -46t-47 -19h-17q-25 0 -41 12q-16 -12 -41 -12h-18q-27 0 -46 19t-19 46v74h51v-74q0 -14 14 -14h18q13 0 14 13v70h54v-70q1 -13 14 -13h17q14 0 14 14v74h52z" />
  </font>
</defs>
</svg>
