<?xml version="1.0" standalone="no"?>
<!DOCTYPE svg PUBLIC "-//W3C//DTD SVG 1.1//EN" "http://www.w3.org/Graphics/SVG/1.1/DTD/svg11.dtd" >
<svg xmlns="http://www.w3.org/2000/svg">
<metadata></metadata>
<defs>
<font id="aljazeeraregular" horiz-adv-x="1063" >
<font-face units-per-em="2048" ascent="1638" descent="-410" />
<missing-glyph horiz-adv-x="399" />
<glyph horiz-adv-x="0" />
<glyph horiz-adv-x="682" />
<glyph unicode=" "  horiz-adv-x="399" />
<glyph unicode="&#x09;" horiz-adv-x="399" />
<glyph unicode="&#xa0;" horiz-adv-x="399" />
<glyph unicode="!" horiz-adv-x="467" d="M56 1206l202 188q39 -46 67.5 -93.5t47.5 -100.5t28.5 -113.5t9.5 -131.5q0 -145 -37.5 -284t-115.5 -284v129q0 24 -1 58t-5.5 75t-14.5 87t-28 94q0 140 -37.5 235t-115.5 141zM106 212l149 132l168 -141l-149 -135z" />
<glyph unicode="&#x22;" horiz-adv-x="603" d="M99 1135v163q0 67 60 67l61 -67l-6 -42l-18 -121v-230h-67zM317 1135v163q0 67 61 67l67 -67q0 -51 -9.5 -91.5t-26.5 -71.5v-230h-61z" />
<glyph unicode="#" horiz-adv-x="1196" d="M100 798q14 150 138 250l228 146q64 54 58 110h-4l-36 -18q-48 0 -48 48q-2 50 46 50q34 4 50 -28q24 -42 24 -126q0 -90 -24 -146l-98 -216q-70 -164 -70 -334l14 -140l-20 -18q-22 90 -18 208q0 172 68 334l102 220l20 78l-56 -74l-204 -136q-118 -100 -132 -248 q-4 -46 12 -96q14 86 68 90q52 2 94 -104l10 -72q0 -82 -60 -82q-48 0 -90 54v-10q0 -76 28 -124q32 -68 98 -68q126 0 156 268q6 52 30 76l76 68l32 40l12 -74q2 -34 -34 -66l-68 -66q-12 -6 -12 -24l-26 -184q-30 -100 -94 -112l-34 -4q-134 0 -180 182q-20 66 -14 154 l-4 2l-30 94zM180 598q24 -20 50 -20q48 0 54 54q-12 32 -38 32q-46 0 -66 -66zM260 838q-16 30 10 72q10 16 22 30t28 24l16 8l-8 -16l-32 -36q-24 -30 -22 -50l16 -18l10 4l12 28l8 -8q0 -32 -22 -50l-16 -6zM368 1250q0 50 52 52q44 0 48 -52q2 -46 -46 -50 q-54 -4 -54 50zM392 262l24 18q52 -106 116 -106l16 4q46 12 70 90l40 236l22 42q30 54 130 148l26 28q82 92 76 160l-84 -70q-54 -40 -74 -76l-18 66q-12 38 14 66q54 60 48 128l-22 66l-154 180l6 -66q0 -102 -60 -216q-76 -136 -70 -240l-22 -20l-4 68q0 86 78 276 q50 118 50 182l-18 78q-20 48 -20 78q0 44 38 102q-40 74 -40 134q0 86 48 120l28 12h2l-2 -6q-50 -26 -50 -76q0 -78 76 -172l186 -240q60 -84 105 -158t73 -138q70 -152 70 -284q0 -168 -80 -250q-74 -80 -200 -80h-32l-74 22l18 84l4 -2l70 -8q106 0 178 88q66 80 66 194 q0 174 -236 482l-198 258q-26 -32 -26 -64q0 -42 48 -90l106 -116q74 -82 94 -156v-6l6 -46l-12 -60l80 80v-6q34 -114 34 -192l-14 -78q-10 -28 -34 -61t-62 -77l-116 -122q-6 -18 -13 -58t-15 -104l-14 -114q-16 -94 -98 -94q-112 0 -184 162zM480 258l52 62l54 -44 l-52 -66zM490 370l56 64l54 -48l-54 -62zM612 882q-4 8 54 68l50 56l14 24l6 -30l-56 -72l-48 -54l-14 -22zM632 662l34 76l66 -30l-34 -76zM736 294l2 10l12 -10l16 -40q6 -16 24 -8l8 14v12l20 -40l-8 -24q-18 -8 -40 16zM842 528l36 76l64 -34l-34 -70z" />
<glyph unicode="$" horiz-adv-x="1178" d="M100 300v1094q0 36 14 58q12 32 32 48q10 10 22 18l24 16q16 4 29 7t29 3h678q28 0 58 -10q32 -16 50 -34q20 -18 30 -48q12 -20 12 -58v-1094q0 -38 -12 -58q-8 -26 -30 -48q-18 -18 -50 -34q-30 -10 -58 -10h-678q-16 0 -29 3t-29 7l-24 16t-22 18q-22 22 -32 48 q-14 22 -14 58zM124 302q0 -30 10 -50q12 -24 28 -40t40 -28q24 -10 48 -10h678q26 0 50 10q24 12 40 28t28 40q10 26 10 50v154h-932v-154zM190 266l6 -2h64l16 26l12 -26h370v6l-4 16l-10 20l-14 22q-16 12 -26 16q-14 8 -36 8l-24 -6l-24 -12l-20 -16l-18 -20l-18 54 l-24 -24l12 -34h-56l-22 58l-24 -24l12 -34h-56l-20 60v2l-8 6l-12 4q-10 0 -16 -8l-20 -14l-16 -20l-8 -14l-8 -16l-6 -14l-2 -10v-4zM202 394l28 -20l16 20l-30 20zM224 294v4l6 8l8 12l8 10l4 4h10l2 -6l4 -8l6 -12v-2l-2 -8l-6 -2h-40zM246 394l30 -20l12 20l-28 20z M310 896q0 -10 2 -23t6 -27l14 -36q0 -18 1 -34t3 -30q0 -16 4 -28l8 -24t10 -21t12 -19q12 -18 26 -26l22 -14l22 -2h2l22 4q4 -12 11 -23t13 -21t14 -18t18 -16q10 -6 17 -10t15 -8q14 -6 30 -6h6q16 4 24 14q12 14 18 40q4 12 6 27t4 33v46q10 -8 19 -12t19 -8l40 -6 l36 4q14 4 26 9t22 13q22 14 32 30l12 20t10 22q10 24 12 46q2 14 2 26v28l-4 50l-10 50q-6 20 -12 39t-14 35q-10 20 -18 37t-18 33t-20 31t-20 29l-32 38l-36 42l-36 50q-16 24 -30 52l-20 48q-6 22 -2 44q2 20 22 36q-10 -4 -17 -9t-11 -13q-10 -14 -10 -28v-34l10 -32 l8 -24l6 -8l-20 -26l-6 -28q-2 -12 2 -28q0 -18 8 -26q4 -14 8 -34q2 -10 1 -18t-3 -18l-8 -38l-14 -34l-14 -32l-16 -38l-14 -46l-6 -46q-2 -18 4 -52l-4 -2l-6 -6l-4 -10l-4 -20l-2 -24l-6 -22l-2 -16v-2l-4 -14l-6 -18l-12 -22l-16 -18l-6 34l-2 38q-2 22 0 45t6 49l2 6 q6 36 14 56q4 14 8 24l8 20l18 40l20 34l16 36l12 40q2 12 3 25t3 31q0 16 -1 33t-3 39q-4 12 -8 16q-8 8 -18 8l-12 -4l-10 -10l-4 -12q0 -4 4 -12l10 -10l12 -4q10 0 16 6q0 -20 -10 -36l-30 -32l-44 -28q-12 -8 -25 -15t-29 -17q-30 -20 -56 -46q-14 -12 -28 -36 q-4 -10 -8 -22t-6 -24q-6 -24 -4 -50zM328 870q-2 18 0 38q0 10 2 19t6 19l10 18q14 24 30 40l42 36l44 32l42 32q20 14 32 28q12 12 16 28q2 -24 -4 -48l-14 -38l-20 -36l-22 -40l-10 -22l-12 -30l-14 -46q-4 -10 -6 -24t-4 -30l-6 -46v-54l4 -40t6 -42l-26 -8l-6 -2 q-16 0 -34 12q-14 14 -22 32q-12 22 -14 48v28l6 -10l12 -10l18 -8l16 -6l6 2l8 4q16 8 18 24q4 20 -2 42l-8 34q-10 20 -20 32q-10 10 -24 10h-4q-4 -2 -8 -2t-8 -4l-10 -12q-2 -4 -4 -10t-6 -14l-2 -10l-2 10zM354 232l30 -20l12 20l-28 20zM356 800q2 6 2 11t4 9l12 12 l14 4l14 -4l8 -12l-6 -20l-8 -10l-12 -2l-12 2l-10 4zM390 962q-4 -14 2 -22q4 -10 12 -10h4l14 4l8 12l4 10v12v4l-12 -4q4 -8 0 -8q0 -4 -8 -4h-4q-4 0 -8 10q-2 6 4 18q2 14 14 26l28 28l2 2l-2 2h-4q-16 -10 -28 -22q-12 -16 -20 -28q-6 -16 -6 -30zM396 232l30 -20 l16 20l-30 20zM474 380l30 -20l16 20l-30 18zM474 1180q0 -12 8 -18q6 -8 16 -8l14 4l8 8l4 14l-4 12l-8 10l-14 2l-12 -2l-8 -10zM478 626l4 2l18 22l12 32l8 32l4 32l2 22l2 16l2 6l14 14l12 -28l16 -30l20 -26l22 -26l-4 -22l-2 -26v-18q-4 -16 -7 -26t-7 -16 q-10 -18 -20 -22q-8 -8 -18 -8h-4q-14 0 -24 8l-28 24q-6 8 -11 17t-11 21zM512 294l6 6l10 8l16 10l20 4q14 0 22 -4q8 -2 12 -10l6 -8l2 -6h-94zM522 606l32 -26l30 34l-30 24zM532 666l28 -22l30 34l-32 26zM540 886l2 30l8 30l16 44l18 44l18 46q4 10 6 21t4 21 q2 20 0 42l18 -18l32 -36l16 -16l16 -22l12 -26q0 -6 1 -13t-1 -15q0 -16 -8 -34q-4 -10 -10 -19t-16 -19l-6 -8l22 -58l6 6l14 14l20 20l18 16l10 10v2l6 2l4 -4v-22l-12 -26q-8 -16 -22 -28l-10 -10l-14 -14l-22 -24l-26 -22l-20 -28l-14 -26l-4 -12l-6 2l-10 10l-16 16 l-18 24l-16 30l38 32l-10 54l-6 -6l-16 -14l-18 -20q-4 16 -4 24zM594 1248q-4 12 0 24q2 6 7 13t11 13l30 -46l38 -50l42 -58l42 -64l38 -66l28 -68q8 -24 12 -50q2 -12 3 -25t-1 -25t-3 -23t-5 -23l-14 -28l-22 -26l-26 -22q-8 -4 -15 -7t-15 -3l-38 -6q-10 0 -23 2t-25 6 l14 30l22 24l26 24l24 26l22 26q4 8 8 15t6 17q6 18 6 40l-4 28l-6 36l-8 24l-2 8l-48 -42q10 24 10 44l-2 40l-14 36q-10 18 -18 30l-22 26l-18 18l-12 12l-10 12l-14 14l-16 20zM606 950l56 62v20l-56 -60v-22zM616 836l34 -10l14 44l-34 10zM632 384l46 -120h124l-34 88 l-24 -24l12 -34h-58l-42 114zM666 620l2 -12l6 -14l6 -16l10 -4h4l6 6l-2 10l-4 12l-2 -10l-4 -2q-4 0 -6 4l-8 12l-6 14v4l-2 -2v-2zM684 232l30 -20l14 20l-30 20zM728 232l28 -20l14 20l-28 20zM738 754l34 -8l14 40l-34 12zM780 234l4 2h4l10 -4h12h12l8 14l-4 18 l-22 64l22 24l20 -58h44l-32 90l24 24l54 -144h-78l2 -6l2 -16l-6 -16q0 -6 -14 -10l-12 -2l-16 2l-16 6l-14 8zM914 384l44 -120h32l-52 144z" />
<glyph unicode="%" horiz-adv-x="1091" d="M106 179l727 1097h187l-722 -1097h-192zM147 1127l148 132l166 -141l-146 -135zM670 340l144 135l170 -144l-146 -135z" />
<glyph unicode="&#x26;" horiz-adv-x="3171" d="M7 -1v208h51v-170h494l13 7l10 9l4 8l4 15v131h51v-128l-8 -42h174v170h51v-208h-235v25q-8 -9 -18.5 -13.5t-22.5 -8.5l-48 -3h-520zM7 -590l97 269h85l99 -269h-80l-13 51h-99l-13 -51h-76zM119 -480h54l-26 88zM250 261l35 32l42 -22l20 22l48 -25l-33 -32l-43 19 l-21 -19zM336 -321h77v-207h90v-62h-167v269zM496 -676l15 59h8l17 -5q16 0 23.5 13.5t7.5 37.5v250h76v-271q-1 -43 -25 -68q-10 -15 -25.5 -21t-35.5 -8l-51 9zM688 -590l96 269h85l102 -269h-78l-21 51h-93l-14 -51h-77zM779 271l34 29l46 -26l-33 -32zM800 -480h55 l-26 88zM895 32l28 31l48 -27l-33 -29zM928 1157v7l5 19l13 70q6 20 17 42.5t24 42.5l85 80l2 8l67 38l64 39l61 30l49 34q15 13 26.5 25t18.5 26q16 26 16 53h-5l-17 -13l-21 -5q-26 0 -38 16q-9 5 -11 13t-2 19q-4 10 -1 18t10 14q9 10 18 12.5t19 2.5h5l27 -8l21 -18 l13 -34l8 -43l3 -46l-3 -66q-4 -16 -7.5 -34.5t-13.5 -40.5l-104 -211l-50 -149q-11 -41 -16.5 -85t-5.5 -89q0 -35 5 -69t13 -64l-26 -18q-8 44 -13 92.5t-5 106.5q0 94 23 177q10 40 22.5 77t26.5 69l58 120l50 93l20 76l-20 -36q-38 -33 -83 -60.5t-89 -56t-84.5 -60 t-70.5 -71t-47 -89.5t-14 -116l13 -47l11 37l20 31q9 9 18 14.5t20 5.5h19l27 -20l26 -23l16 -33l10 -24l8 -31q2 -16 3 -26.5t0 -21.5q0 -13 -2.5 -26t-8.5 -20q-8 -10 -17 -17t-19 -9h-16l-27 8l-38 21l-29 27v-13q2 -32 9 -64t23 -58t41 -43.5t63 -18.5l48 10 q14 6 27.5 15.5t23.5 22.5q8 15 18.5 36.5t18.5 47.5q10 23 14.5 54.5t7.5 69.5l10 44l11 24l8 4l53 44l26 25l25 23l13 19l11 -72v-13l-6 -26l-23 -28l-25 -21l-31 -23l-20 -17l-8 -8l-2 -18l-13 -89l-21 -88q-6 -23 -13.5 -41.5t-19.5 -32.5q-14 -14 -27.5 -22.5 t-31.5 -12.5l-36 -3l-62 9l-45 34q-19 19 -36 40.5t-31 47.5l-21 69l-13 64v60l-9 24l-18 53l-11 43zM1015 984l24 -12l25 -5h8l31 16q17 11 17 33l-3 10l-14 16q-7 10 -21 10l-10 -4l-8 -4l-33 -26zM1018 2v123q0 20 4 35.5t12 25.5l45 34l49 4l47 -4q13 -3 24 -10.5 t19 -23.5q14 -20 14 -61v-123h-214zM1018 -321h201v-69l-104 -138h104v-62h-201v70l105 141h-105v58zM1023 287l51 45l62 -32l35 32l72 -36l-54 -51l-61 34l-37 -34zM1095 61h67v69l-7 13l-1 13l-13 8l-11 1h-7l-12 -1l-8 -8l-5 -13l-3 -13v-69zM1098 1244l5 33l22 34l26 19 l11 11h6l8 8h3v-8l-43 -43l-16 -21l-3 -25l8 -12l11 -4h7l3 11l8 14h5l3 -8l-3 -9l-8 -18l-10 -18l-21 -6l-13 6l-8 10zM1215 1618l12 32q9 8 17 10.5t22 2.5q12 0 20 -2t17 -8q5 -7 8.5 -15.5t5.5 -19.5q0 -8 -2.5 -17t-11.5 -17t-17 -10t-20 -2q-11 0 -19.5 1.5t-15.5 7.5 q-16 15 -16 37zM1239 663l19 13l62 -76q16 -9 31 -14.5t35 -10.5l16 6h5l41 27l23 50l4 43l7 23l6 30l3 34l10 67l13 40l11 24l13 17l51 61q14 20 35.5 39t49.5 41l27 29l37 40l30 54q8 14 9 29.5t-1 30.5l-38 -37l-47 -31l-43 -35l-33 -41l-12 25l-6 26l-8 30l5 21 q2 6 6 13.5t11 15.5l39 56l13 69l-26 64l-51 67l-111 107l7 -77l-16 -93q-8 -25 -20.5 -50.5t-26.5 -51.5l-38 -77l-27 -78l-3 -77l-26 -26l-5 69l13 98l30 86l39 85q19 35 29.5 66.5t16.5 56.5q8 24 8 48t-6 43l-5 18l-8 21l-10 25q-18 37 -12 72q6 20 16.5 37t24.5 37 l-33 70l-12 61q0 26 3.5 43.5t12.5 33.5l36 43l12 5l13 6l3 -6v-2l-9 -8l-8 -8q-24 -14 -29 -46q-4 -14 -3.5 -32t8.5 -38l25 -52q69 -91 145.5 -179t145.5 -181t123.5 -195t78.5 -221v-20q4 -46 2 -88.5t-10 -78.5q-8 -35 -23.5 -62t-35.5 -53q-22 -26 -46 -42t-52 -30 l-120 -22h-16l-48 8l-51 14l18 80h3l74 -11q64 4 118 32q26 13 46.5 32t38.5 45q14 24 25.5 51t17.5 57q8 29 8 59.5t-6 59.5l-20 69q-33 76 -81 150t-103.5 145t-113.5 139t-110 132l-17 22l-21 -35q-8 -24 0 -51q2 -14 13 -28.5t30 -33.5l114 -112l56 -74q13 -20 22 -40 t13 -40v-8l8 -43l-10 -56l47 30l32 42l6 1l10 -35l13 -51q7 -57 11 -92t-3 -63t-28 -56.5t-62 -73.5l-67 -59l-47 -48l-27 -38l-13 -42l-11 -45l-1 -45l-5 -25l-8 -53l-5 -56q-6 -24 -15 -42.5t-23 -29.5q-15 -12 -30 -16.5t-34 -4.5l-71 18l-65 54zM1243 -84l18 57h8l18 -5 q33 0 33 50v189h72v-146h461v146h77v-208h-538q0 -23 -5.5 -40.5t-15.5 -33.5q-13 -13 -30 -17.5t-37 -4.5l-46 9zM1287 -321h184v-58h-112v-49h94v-56h-94v-47h123v-59h-195v269zM1328 658l53 61l59 -43l-54 -63zM1341 765l56 61l53 -43l-53 -61zM1359 967l27 25 q19 -29 46.5 -55t62.5 -52l-7 -30l-6 -39l-71 69zM1466 1260v9l93 90l17 22l10 11l3 8l8 -25l-3 -11l-13 -15l-18 -16l-25 -30l-63 -63l-1 -12zM1488 1048l37 72l64 -27l-37 -75zM1527 -88l54 52l59 -34l35 34l72 -39l-54 -48l-58 31l-36 -31zM1546 -321h184v-58h-114v-49 h98v-56h-98v-47h123v-59h-193v269zM1597 688q-5 13 0 13h5l1 -5l21 -44l8 -7l8 -3l10 3l8 13v10h5l4 -10l7 -8l6 -24v-13l-13 -6q-15 -1 -26 5.5t-18.5 17.5t-12.5 24.5t-8 25.5zM1706 919l38 72l67 -29l-35 -74zM1799 -321h115l59 -10q10 -7 18 -16t9 -19q4 -28 0 -58 q-5 -9 -13 -18t-22 -17h-5l13 -8l13 -25l5 -10l35 -88h-77l-35 80l-16 18l-10 4h-17v-102h-72v269zM1871 -379v-49h27l16 3l8 8q6 1 7.5 6t0.5 11l-13 18h-6l-13 3h-27zM1947 -84l18 57h8l18 -5q17 0 25 14.5t8 37.5v187h72v-146h616l-22 15q-24 17 -40 34.5t-33.5 29.5 t-41 15t-63.5 -7l-40 -15l-24 48q14 8 28 15.5t30 13.5l61 10l60 -10l76 -45l46 -43l53 -43q13 -8 27.5 -13t28.5 -5h93v261h73v-320h-928v-3q0 -23 -5.5 -39t-15.5 -30q-13 -14 -30 -20t-37 -7l-51 9zM1994 287l56 51l69 -42l-52 -46zM2047 -590l100 269h82l99 -269h-77 l-14 51h-98l-17 -51h-75zM2160 -480h56l-25 88zM2378 -539h57v-51h-57v51zM2482 -321h67l98 -199v199h51v-269h-63l-102 205v-205h-51v269zM2563 -88l55 52l69 -39l-52 -48zM2768 -321h175v-43h-124v-69h111v-43h-111v-69h124v-45h-175v269zM2986 -321h198v-43h-72v-226h-51 v226h-75v43zM3088 2v320h77v-320h-77z" />
<glyph unicode="'" horiz-adv-x="344" d="M105 1135v163q0 67 61 67l67 -67q0 -51 -9.5 -91.5t-26.5 -71.5v-230h-61z" />
<glyph unicode="(" horiz-adv-x="557" d="M38 562q0 356 380 713q20 17 26 17v-2l-7 -29q-187 -316 -187 -703q0 -397 194 -730l2 -12l-2 -5q-2 0 -6.5 2.5t-7.5 7.5q-392 373 -392 741z" />
<glyph unicode=")" horiz-adv-x="562" d="M115 -184l5 12q194 333 194 730q0 387 -187 703l-7 29v2q6 0 26 -17q377 -355 377 -713q0 -368 -389 -741l-14 -10z" />
<glyph unicode="*" horiz-adv-x="721" d="M55 1219l29 75l235 -84v252h80v-252l236 84l31 -75l-242 -80l147 -201l-65 -47l-150 205l-149 -205l-66 47l150 201z" />
<glyph unicode="+" horiz-adv-x="1229" d="M100 461v108h461v461h109v-461h460v-108h-460v-461h-109v461h-461z" />
<glyph unicode="," horiz-adv-x="501" d="M53.5 299q0.5 3 4.5 8q66 182 219 176q72 -3 125 -54q25 -25 37 -54.5t8 -65.5q-6 -72 -47.5 -155t-118.5 -181q-73 -90 -118.5 -133t-66.5 -42q-15 1 -15 11q1 24 50 89q127 162 133 292q3 46 -21 70q-30 45 -89 48q-37 2 -82 -13q-13 -4 -17 1q-2 0 -1.5 3z" />
<glyph unicode="-" horiz-adv-x="1255" d="M192 534v163h866v-163h-866z" />
<glyph unicode="." horiz-adv-x="530" d="M67 393l206 214l202 -214l-202 -209z" />
<glyph unicode="/" horiz-adv-x="1570" d="M559 178l727 1097h185l-720 -1097h-192z" />
<glyph unicode="0" horiz-adv-x="885" d="M83 613q0 569 362 569q360 0 360 -569t-360 -569q-362 0 -362 569zM323 613q0 -389 122 -389q120 0 120 389t-120 389q-122 0 -122 -389z" />
<glyph unicode="1" horiz-adv-x="679" d="M22 913l309 249h190v-1099h-243v811l-139 -136z" />
<glyph unicode="2" horiz-adv-x="892" d="M109 63v192l79 89l202 228q120 157 120 259q0 67 -39 106q-41 38 -108 38q-51 0 -104.5 -21t-111.5 -63l-16 228q103 31 183 47t138 16q136 0 226 -87q91 -86 91 -223q0 -235 -343 -578l-39 -39h394v-192h-672z" />
<glyph unicode="3" horiz-adv-x="892" d="M102 90l12 204q80 -29 135 -42.5t86 -13.5q103 0 149 53q38 39 38 94q0 151 -194 151h-77v178q269 0 269 136q0 68 -50 104q-44 36 -113 36q-23 0 -77 -13t-142 -40l-9 192q91 27 171.5 40t152.5 13q136 0 225 -82t89 -216q0 -166 -218 -245v-2q233 -33 233 -276 q0 -157 -142 -245q-119 -72 -290 -72q-20 0 -52 4t-76 13q-83 14 -120 29z" />
<glyph unicode="4" horiz-adv-x="979" d="M103 277v225l374 660h269v-705h123v-180h-123v-214h-235v214h-408zM276 457h245v449h-5z" />
<glyph unicode="5" horiz-adv-x="912" d="M126 94l12 197q69 -27 120.5 -40t83.5 -13q82 0 141 48q58 54 58 132q0 95 -65 142q-31 23 -68.5 35.5t-84.5 12.5q-53 0 -173 -31v585h600v-187h-384v-204l96 5q336 0 336 -365q0 -166 -118 -271q-58 -47 -128 -71.5t-157 -24.5q-69 0 -135.5 12.5t-133.5 37.5z" />
<glyph unicode="6" horiz-adv-x="940" d="M103 572q0 128 21 230t63 180q114 200 346 200q49 0 106.5 -11t128.5 -33l-14 -192q-120 51 -183 51q-218 0 -233 -324h3q38 47 85.5 71.5t101.5 24.5q72 0 128 -30t98 -90q69 -107 69 -255q0 -107 -55 -199q-90 -151 -293 -151q-186 0 -279 132t-93 396zM350 387 q0 -83 28.5 -125.5t84.5 -42.5q111 0 111 190q0 173 -111 173q-113 0 -113 -195z" />
<glyph unicode="7" horiz-adv-x="956" d="M101 1014v165h737v-180l-390 -954h-258l422 969h-511z" />
<glyph unicode="8" horiz-adv-x="953" d="M101 354q0 112 51.5 181t156.5 95v2q-43 13 -77 38.5t-57 67.5q-46 74 -46 168q0 130 106 206q94 70 230 70q171 0 260 -104q74 -77 74 -177q0 -81 -55 -154q-50 -70 -130 -96v-5q38 -7 71 -26.5t64 -49.5q84 -92 84 -216q0 -149 -113 -238q-101 -72 -257 -72 q-185 0 -286 110q-39 44 -57.5 93.5t-18.5 106.5zM341 361q0 -58 36 -101q38 -41 93 -41q27 0 49 12t40 34q34 40 34 96q0 60 -34 107t-103 85q-115 -64 -115 -192zM355 884q0 -122 122 -166q48 29 70 69.5t22 91.5q0 127 -113 127q-22 0 -40.5 -9t-31.5 -29 q-14 -18 -21.5 -38t-7.5 -46z" />
<glyph unicode="9" horiz-adv-x="899" d="M92 831q0 104 55 199q95 152 291 152q374 0 374 -526q0 -253 -86 -413q-113 -199 -346 -199q-98 0 -233 43l12 192q60 -25 105 -37.5t78 -12.5q217 0 235 324h-3q-78 -94 -189 -94q-63 0 -114 23t-93 71q-86 101 -86 278zM339 819q0 -175 113 -175q110 0 110 194 q0 168 -110 168q-113 0 -113 -187z" />
<glyph unicode=":" horiz-adv-x="446" d="M70 327l144 130l163 -139l-142 -132zM70 723l144 127l163 -139l-142 -129z" />
<glyph unicode=";" horiz-adv-x="563" d="M91 -172q9 49 25 102t38 109q28 72 127 82q127 18 141 -108q8 -54 -12 -124t-69 -157q-42 -76 -71.5 -114t-46.5 -40q-12 -3 -12 8q-3 16 24 72q73 131 63 192q-8 66 -80 55q-29 -4 -54.5 -22t-45.5 -50q-23 -36 -27 -15v10zM115 318l115 136l168 -110l-115 -130z" />
<glyph unicode="&#x3c;" horiz-adv-x="1229" d="M94 463v110l1041 480v-113l-914 -422l914 -422v-112z" />
<glyph unicode="=" horiz-adv-x="1229" d="M100 262v109h1030v-109h-1030zM100 666v108h1030v-108h-1030z" />
<glyph unicode="&#x3e;" horiz-adv-x="1229" d="M94 -16v112l914 422l-914 422v113l1041 -480v-110z" />
<glyph unicode="?" horiz-adv-x="1100" d="M111 1012q1 109 32 198t90 152t145 97t197 34q85 0 161 -26t132.5 -74.5t89.5 -119t33 -159.5q0 -57 -13 -104.5t-36.5 -89.5t-56.5 -79.5t-72 -74.5q-43 -43 -74 -72.5t-51.5 -53t-32.5 -46t-18.5 -52t-9.5 -71.5t-4 -104h-129q-2 63 3 111.5t16.5 88t30.5 73t46 65.5 t61.5 65.5t77.5 73.5q57 54 95 118.5t38 145.5q0 61 -23.5 112t-63 87.5t-93 56.5t-113.5 20q-84 0 -146 -28.5t-103.5 -78.5t-61.5 -118t-18 -147h-129zM473 0v217h172v-217h-172z" />
<glyph unicode="@" horiz-adv-x="1638" d="M96 737q0 160 58.5 298t160.5 240t239 160t294 58q148 0 275 -46.5t220 -130.5t146 -201.5t53 -258.5q0 -82 -19.5 -158.5t-53 -142.5t-79 -120t-98.5 -92.5t-110.5 -59.5t-114.5 -21q-53 0 -92 34.5t-45 102.5h-4q-23 -24 -52 -48.5t-62 -43.5t-70 -31t-76 -12 q-63 0 -113 23.5t-85.5 64t-54 94.5t-18.5 115q0 71 16 142t45.5 137t72.5 123t97 99.5t118 66.5t137 24q34 0 65.5 -9.5t59.5 -30.5t51.5 -53.5t40.5 -78.5l51 133h108l-196 -590q-11 -33 -17.5 -63.5t-5.5 -54.5t12.5 -38t36.5 -14q69 0 131.5 47t110.5 121t76.5 164 t28.5 176q0 127 -46.5 227t-126 169.5t-185.5 106t-224 36.5q-144 0 -263 -53t-204.5 -144.5t-132.5 -215.5t-47 -265q0 -93 22.5 -178.5t63.5 -159t99.5 -133.5t131 -102.5t157 -65.5t177.5 -23q75 0 150.5 18.5t144.5 54t129 86t104 114.5h105q-46 -84 -114.5 -152 t-152 -115t-177 -72.5t-189.5 -25.5q-110 0 -209 27t-183.5 76t-152.5 119t-116 155t-73.5 184t-25.5 207zM524 571q0 -46 13 -82.5t35.5 -62t53.5 -39.5t68 -14q48 0 91.5 23t81.5 61.5t68.5 88.5t52.5 103.5t34 106.5t12 98q0 36 -14 70t-37 61t-52 43t-59 16 q-52 0 -98 -21.5t-84.5 -58t-69.5 -84.5t-52 -100.5t-32.5 -106.5t-11.5 -102z" />
<glyph unicode="A" horiz-adv-x="1290" d="M-14 0l589 1462h156l574 -1462h-150l-178 455h-666l-176 -455h-149zM354 573h576l-283 750z" />
<glyph unicode="B" horiz-adv-x="1366" d="M147 0v1462h619q92 0 177 -17.5t150 -59.5t103.5 -110.5t38.5 -170.5q0 -58 -18.5 -111.5t-51.5 -97.5t-80 -75.5t-104 -43.5v-4q70 -9 127.5 -39t97.5 -76.5t62 -108t22 -132.5q0 -35 -6 -79.5t-24.5 -90.5t-53.5 -90.5t-93 -79t-143 -55.5t-204 -21h-619zM287 119h479 h10q72 0 138 13q70 14 122.5 49t83.5 93t31 146q0 139 -101 210.5t-284 71.5h-479v-583zM287 821h479q84 0 146 19.5t103 53t61 79t20 96.5q0 137 -83 205.5t-247 68.5h-479v-522z" />
<glyph unicode="C" horiz-adv-x="1442" d="M78 731q0 150 43 287.5t129 243t215.5 168.5t302.5 63q103 0 203 -30.5t181 -90.5t135.5 -148.5t68.5 -203.5h-139q-19 84 -61.5 150t-102 111.5t-132.5 69t-153 23.5q-145 0 -249.5 -55.5t-171.5 -146t-98.5 -206t-31.5 -235.5t31.5 -235t98.5 -206t171.5 -146.5 t249.5 -55.5q101 0 183.5 36.5t142.5 100.5t96.5 149t46.5 183h139q-15 -134 -63.5 -243t-127 -185.5t-184 -118t-233.5 -41.5q-173 0 -302.5 63t-215.5 168.5t-129 243t-43 287.5z" />
<glyph unicode="D" horiz-adv-x="1403" d="M147 0v1462h506q331 -8 501.5 -190t170.5 -541t-170.5 -541.5t-501.5 -189.5h-506zM287 119h297h9q151 -1 262 33q114 34 187.5 108.5t108.5 190.5t35 280q0 163 -35 279.5t-108.5 191t-187.5 108.5q-111 33 -262 33h-9h-297v-1224z" />
<glyph unicode="E" horiz-adv-x="1214" d="M147 0v1462h1010v-119h-870v-528h815v-119h-815v-577h880v-119h-1020z" />
<glyph unicode="F" horiz-adv-x="1100" d="M147 0v1462h928v-119h-788v-528h700v-119h-700v-696h-140z" />
<glyph unicode="G" horiz-adv-x="1518" d="M78 731q0 150 43 287.5t129 243t215.5 168.5t302.5 63q115 0 217.5 -31t183 -92t135 -151.5t74.5 -210.5h-139q-7 63 -42 128t-95.5 118t-144.5 86.5t-189 33.5q-145 0 -249.5 -55.5t-171.5 -146t-98.5 -206t-31.5 -235.5t31.5 -235t98.5 -206t171.5 -146.5t249.5 -55.5 q121 0 216.5 40.5t160.5 112t98 169.5q31 93 31 202v13h-498v118h621v-743h-101l-18 266h-4q-37 -78 -91 -134.5t-120 -92.5t-141 -53t-154 -17q-173 0 -302.5 63t-215.5 168.5t-129 243t-43 287.5z" />
<glyph unicode="H" horiz-adv-x="1442" d="M147 0v1462h140v-635h868v635h139v-1462h-139v709h-868v-709h-140z" />
<glyph unicode="I" horiz-adv-x="455" d="M158 0v1462h139v-1462h-139z" />
<glyph unicode="J" horiz-adv-x="1024" d="M43 469h139q1 -31 2 -71.5t8.5 -83t23.5 -83t46.5 -72.5t79.5 -51.5t121 -19.5q81 0 134 21.5t84 67.5t43.5 117.5t12.5 172.5v995h140v-1054q0 -111 -22.5 -193.5t-72.5 -137t-131.5 -81.5t-199.5 -27q-126 0 -206 42.5t-125 112.5t-62 160q-15 85 -15 174v11z" />
<glyph unicode="K" horiz-adv-x="1327" d="M147 0v1462h140v-786l850 786h188l-653 -604l684 -858h-180l-609 762l-280 -260v-502h-140z" />
<glyph unicode="L" horiz-adv-x="1100" d="M147 0v1462h140v-1343h819v-119h-959z" />
<glyph unicode="M" horiz-adv-x="1706" d="M143 0v1462h205l506 -1282l504 1282h205v-1462h-140v1264h-4l-499 -1264h-132l-501 1264h-4v-1264h-140z" />
<glyph unicode="N" horiz-adv-x="1442" d="M145 0v1462h156l852 -1237h4v1237h139v-1462h-155l-852 1237h-4v-1237h-140z" />
<glyph unicode="O" horiz-adv-x="1518" d="M70 731q0 150 43 287.5t129 243t215.5 168.5t302.5 63q172 0 301 -63t215 -168.5t129 -243t43 -287.5t-43 -287.5t-129 -243t-215 -168.5t-301 -63q-173 0 -302.5 63t-215.5 168.5t-129 243t-43 287.5zM209 731q0 -120 31.5 -235t98.5 -206t171.5 -146.5t249.5 -55.5 q144 0 248 55.5t171 146.5t98.5 206t31.5 235t-31.5 235.5t-98.5 206t-171 146t-248 55.5q-145 0 -249.5 -55.5t-171.5 -146t-98.5 -206t-31.5 -235.5z" />
<glyph unicode="P" horiz-adv-x="1290" d="M147 0v1462h650q98 0 178 -28t137 -81.5t88 -131.5t31 -177t-31 -176.5t-88 -131t-137 -81.5t-178 -28h-510v-627h-140zM287 745h479q72 0 132 18.5t103 56t67 93.5t24 131t-24 131.5t-67 93.5t-103 55.5t-132 18.5h-479v-598z" />
<glyph unicode="Q" horiz-adv-x="1518" d="M70 731q0 150 43 287.5t129 243t215.5 168.5t302.5 63q172 0 301 -63t215 -168.5t129 -243t43 -287.5q0 -84 -14 -165.5t-41.5 -155.5t-69 -139.5t-96.5 -118.5l209 -160l-70 -86l-227 172q-76 -53 -170.5 -81t-208.5 -28q-173 0 -302.5 63t-215.5 168.5t-129 243 t-43 287.5zM209 731q0 -120 31.5 -235t98.5 -206t171.5 -146.5t249.5 -55.5q157 0 270 72l-192 145l71 88l213 -162q48 46 83.5 103.5t58.5 122t34 134t11 140.5q0 120 -31.5 235.5t-98.5 206t-171 146t-248 55.5q-145 0 -249.5 -55.5t-171.5 -146t-98.5 -206t-31.5 -235.5z " />
<glyph unicode="R" horiz-adv-x="1366" d="M147 0v1462h670q91 0 171.5 -22.5t141.5 -69t96.5 -118.5t35.5 -171q0 -69 -18 -130.5t-54 -111t-89.5 -83.5t-123.5 -47v-4q71 -9 118.5 -37.5t77 -71.5t43 -99.5t17.5 -121.5q2 -38 4.5 -91t8.5 -107t18.5 -101.5t35.5 -75.5h-153q-13 21 -20 50.5t-11 61t-5.5 62 t-2.5 53.5q-3 51 -7.5 103t-15 99.5t-29.5 89t-50.5 71t-77.5 45.5q-41 14 -99 14h-14h-528v-649h-140zM287 768h520q64 0 121 19.5t100 56t68.5 89.5t25.5 120t-20 120.5t-59.5 91t-98.5 58t-137 20.5h-520v-575z" />
<glyph unicode="S" horiz-adv-x="1290" d="M74 481h139v-12q1 -105 35 -177q36 -76 101.5 -121t153 -64t187.5 -19q38 0 82 7t87 22.5t82.5 39t69.5 56.5t48 76t18 96q0 62 -28 106.5t-72 75.5t-97 50.5t-104 31.5l-325 80q-65 16 -124.5 41t-105 66t-73 100.5t-27.5 144.5q0 36 8.5 80.5t30.5 90.5t58.5 89 t92.5 77t133.5 54.5t180.5 20.5q108 0 206 -29t172.5 -86.5t118.5 -142.5t43 -197h-139q-3 84 -36.5 147t-88.5 105t-125.5 63t-148.5 21q-72 0 -138 -15t-117 -49t-81.5 -90t-30.5 -137q0 -51 18 -88.5t48 -63.5t70 -43t85 -28l357 -88q77 -21 146 -50t120.5 -73.5t82 -108 t30.5 -153.5q0 -25 -5.5 -65.5t-24.5 -87t-55.5 -94t-98.5 -85.5t-154 -62t-222 -24t-239.5 30t-187.5 93q-78 62 -120 158q-36 84 -37 198q0 16 1 33z" />
<glyph unicode="T" horiz-adv-x="1139" d="M-10 1343v119h1159v-119h-510v-1343h-139v1343h-510z" />
<glyph unicode="U" horiz-adv-x="1403" d="M133 526v936h139v-905v-8q0 -122 28 -209q29 -89 84.5 -145t135 -81.5t180.5 -25.5q102 0 182 25.5t135.5 81.5t84.5 145q28 86 28 209v8v905h140v-936q0 -113 -31.5 -214t-100.5 -177.5t-177 -121t-261 -44.5q-152 0 -259.5 44.5t-176 121t-100 177.5t-31.5 214z" />
<glyph unicode="V" horiz-adv-x="1214" d="M-14 1462h149l475 -1308h4l471 1308h148l-543 -1462h-162z" />
<glyph unicode="W" horiz-adv-x="1858" d="M0 1462h150l331 -1280h4l357 1280h174l358 -1280h4l334 1280h139l-403 -1462h-148l-370 1309h-4l-369 -1309h-151z" />
<glyph unicode="X" horiz-adv-x="1176" d="M-25 0l527 754l-496 708h164l414 -612l428 612h155l-499 -712l528 -750h-168l-444 645l-451 -645h-158z" />
<glyph unicode="Y" horiz-adv-x="1251" d="M-20 1462h165l482 -741l479 741h166l-578 -860v-602h-139v602z" />
<glyph unicode="Z" horiz-adv-x="1176" d="M10 0v123l963 1220h-897v119h1052v-123l-962 -1220h983v-119h-1139z" />
<glyph unicode="[" horiz-adv-x="494" d="M156 -391v1884h329v-109h-200v-1667h200v-108h-329z" />
<glyph unicode="\" horiz-adv-x="682" d="M-27 1493h105l631 -1524h-111z" />
<glyph unicode="]" horiz-adv-x="494" d="M8 -283h201v1667h-201v109h330v-1884h-330v108z" />
<glyph unicode="^" horiz-adv-x="1416" d="M74 689l22 16l3 1l1 3q8 8 -5 14v4q-2 0 -2 0.5t-1 0.5l-10 29l9 3l4 1v4q28 1 11 30h2v4q10 0 22 20l3 1v4q36 -2 63 -10v-3l59 3v6l-2 1l-2 12v4q11 9 30 8h4v3q-15 -3 -13 10q25 13 55 7v-3h9l-1 3q-5 1 -4 10q21 10 34 12l4 1v8l13 2v3v4q57 11 101 -2l1 -2 q19 8 23 -5h2v5q15 4 26 15l3 1q50 6 65 -4l5 -5v-3h-2v-4h17q28 -8 4 -17l-4 -1v-4q-12 -47 -38 -68q0 -2 -1 -2q-6 -4 -12 -7.5t-12 -6.5l-1 -3q-20 -11 -33 -27q0 -1 -0.5 -1.5t-0.5 -1.5q-33 -27 -37 37h4v4h5l-2 3q-5 4 -7 14l-3 1l-1 12h4l-1 3q-6 12 -20 13h-4 q-21 -3 -21 13l3 1l1 4h-4l-5 4l-4 -1l-4 -3l-1 -4q-6 -11 -20 -14l-1 -3l-3 -5q7 -9 21 -12l4 -1l8 -1v-3q36 -23 12 -53q-1 -1 -3 -1l-1 -5q0 -10 -10 -7q23 -14 35 -56l1 -5h2q18 -30 -23 -25l-1 -3q-11 -9 -24 -9h-4l-3 -1q-7 -15 -23 -25v-4q-6 -23 -26 -30 q-4 -25 8 -34l1 -4q24 9 15 -11l-2 -1v-4q17 3 23 -8l2 -1h2q0 -7 -27 5l-1 -3q-14 -10 -29 11h-17v-4q-2 -8 -8 -9q-2 -13 12 -10v-3q2 -16 21 -22v-3q26 21 60 6l4 -2l3 -1l1 -3q12 -12 29 -19l1 -2q12 -21 29 -27l1 -3q20 -3 36 -14l2 -2h1l-1 -8q0 -7 -3 -10 q-8 -33 -19 -58l-1 -4l-3 -1l-1 -3q-20 -20 -33 -43v-4q-3 -7 -16 -5v-4h2q-6 -21 -28 -30v-3l2 -1q2 -28 -10 -42v-4q12 -41 -13 -10l-8 10h-3q-8 43 -6 93v4q6 6 5 21l-1 5v4q3 20 -4 29v9h-4q-21 11 -26 42l-3 1l-9 16q6 7 6 25h2v4q7 5 5 21l-1 5l-3 -1q-17 -14 -26 18 h-4q-13 4 -22 12l-4 1q-24 1 -34 16l-2 1q-9 7 -6 24h-2q-2 -19 -19 5l1 3q11 6 -14 14q3 0 4 1v3h-4l-1 4l-16 29h-2q0 14 -6 22q6 -2 6 8h2v4q1 28 -8 47q4 -5 12 -3l1 3l-3 1q-9 16 -23 16v4q0 7 -13 21l-2 -1q-24 -34 -44 -24l-3 -1q-6 -9 -14 -12q0 -2 -1 -3 q-5 -5 -11 -8t-13 -6q0 -1 -0.5 -1.5t-0.5 -1.5q-15 -10 -16 3zM306 575q-3 -46 35 -26l3 1v4q15 7 14 13l-1 4h-2q-1 15 -15 17l-1 -2l-33 -7v-4zM344 753l20 18q1 0 1 2q43 -3 22 -50v-4h-5l-1 2q-14 9 -28 10q0 1 -0.5 1t-0.5 1v1q-6 5 -8 19zM382 786l14 -15q1 -1 3 -1 v8l18 12l4 1v4l-5 -1q-11 -2 -8 9l-3 -1q-10 -10 -23 -16zM429 537q20 -6 11 -24l-3 -1h-2q3 12 -6 25zM594 786q4 -26 33 -11v3h2q-8 28 -35 17v-9zM611 558l3 1q0 1 0.5 1.5t0.5 1.5v5q26 28 29 54v5l-4 1q-4 3 -4 11l10 21l2 1q18 -3 21 8l1 4l-4 1q-18 4 -18 24h9v3 q-16 -1 -21 14h4v9l22 20l3 1q9 -2 9 -13v-4q42 -24 18 38h3v5l13 7l4 1v8q13 24 42 33l4 1v4q41 -3 58 -29h-3l5 -4h4v20q16 -12 23 4l2 1v4q-3 0 -3 2l-1 2q9 1 10 13h2v8q35 15 38 13t-25 -20l-4 -1q-3 -13 4 -14v-3l30 -1l4 1v8q9 9 18 2q0 -2 3 -2v5h4l22 -1l3 1v4 q29 21 51 25h4v3q-29 4 -42 27q32 1 56 -16l3 -1q-3 -18 17 -15v-2h5q26 -20 62 -31l1 -3q33 16 55 9h4h4q13 -8 38 -11v-2l64 -6v-3q65 -15 33 -31v2l-3 -1l-5 -3v-5h2q-3 -21 -44 -25v-8v-4q-3 -27 -10 -29t-20 20v13q14 6 10 13l-1 4l-3 -1l-10 -12v-4h-4q-28 10 -47 -4 v-4l-4 -5q-1 -12 13 -9l4 1v4q28 -1 13 -26v-3q2 -11 13 -25q1 -1 4 -1h2q3 -11 -7 -13h-8q6 -7 4 -25v-4h2q-32 -40 -44 -8h-5q-13 0 -29 16v-4l4 -21v-4l3 -1q6 -23 -7 -29v-2q17 0 8 -19v-2q-17 12 -46 -15l1 -4q11 -21 -6 -34v-3l-8 -5l-1 -3l-3 -2v-4q1 -22 12 -31v-3 h-4v-8q7 -5 21 -10l1 -3l33 -4h17q23 6 4 -11l-4 -2h-4q-23 0 -55 13l8 2l1 2h-5q-37 -3 -51 38l-2 1l-10 16q14 -3 16 5l1 4h-2q-9 47 -34 56l-15 3h-4l-1 -4l-3 -4l2 -9h-2v-4q-2 -8 -9 -9v-21l1 -4q5 -26 -17 0h-3q-5 19 -15 29v5v4q-8 20 -25 29h-25q4 -4 2 -12h-2 l-1 -4q-12 -22 -41 -30l-1 -2l-8 -2q43 -6 3 -46l-3 -1l-1 -3l-3 -1v-4q-4 -9 -13 -13v-29q3 -36 -21 -47v-17l-1 -3q-13 -15 -20 -30v-5q2 -7 -8 -4l-1 -3q-24 -20 -42 -5h-2q-5 16 -10 31.5t-8 31.5h-3l-2 17q7 1 5 12v9l-1 4l-8 34h-2q-1 11 -7 17q6 0 5 9v3l-4 1 q-19 9 -34 4l-1 -2l-12 -3h-4q-28 -1 -38 34h-3zM670 626l3 1l1 3q8 3 17 8h4l2 1q1 7 -2 12h8q8 -23 12 -8l1 4l9 -3l4 -1l1 -3q7 -5 -6 -6q-1 -9 5 -10v-3q9 19 25 14l4 -1l-1 -3q-1 -1 -3 -1l2 -7q0 -2 2 -2q6 -13 16 -3l1 3q5 -4 17 -2v2h4l-1 -3q-17 -35 -74 -5l3 1v4 h-2q-11 14 -40 8v-5h-4q-9 -2 -8 5zM822 889v3l63 2v-2q-29 -23 -63 -3zM834 360l3 1l1 3v17q14 1 19 16l3 1v4q20 -15 5 -42l-1 -4l-1 -4l-3 -1l-1 -3q-22 -24 -25 12zM1092 448q26 -19 39 -13l3 1l5 -4h4v4q16 -10 8 13v4h2q-3 31 -44 21v-5h-4l-13 -8q4 -4 2 -12z M1100 347l8 -38l1 -4h-4q30 -16 67 -1l5 1q5 -14 17 -20l4 -1l-2 -4h-3q72 -15 57 75l-2 1v4q-4 8 -8 15.5t-9 13.5v4q-3 22 -16 13v-4h-17v2q-28 0 -43 -11v-4h-4v-4q-2 0 -3 -1q-12 -19 -39 -24v-4h-2q0 -9 -7 -9zM1121 858q1 -9 13 -9h4q43 -9 13 8l-4 1l-1 3 q-15 9 -25 -3zM1130 529q13 22 25 -9v-4l3 -1q18 -37 -7 -24q17 -3 7 11l-3 1v-2q-15 -6 -25 28zM1159 651q-2 -20 4 -30l1 -3q9 9 25 11l4 1l3 1q2 6 -7 41v4q3 12 -4 13v-4q-1 -28 -26 -34zM1164 453q2 -15 17 -17h4q22 -3 31 -16l3 -1q50 -18 19 16l-2 1l-2 3 q-27 23 -57 14h-13zM1210 271q11 -11 11.5 -12t-10.5 9q-1 1 -1 3zM1219 675v1q17 14 17 13.5t-17 -14.5zM1248 254q8 -23 24 1l2 4q18 5 20 16l1 5h1q3 52 -18 4v-4q-3 0 -3 -2zM1269 436q26 -20 26.5 -20.5t-24.5 17.5zM1269 833q15 -11 15.5 -12t-13.5 9q-2 0 -2 3z M1299 366v2q18 -3 18 -3.5t-18 1.5zM1316 389q11 -14 11.5 -15t-10.5 12z" />
<glyph unicode="_" horiz-adv-x="1024" d="M0 -154h1024v-102h-1024v102z" />
<glyph unicode="`" horiz-adv-x="379" d="M-63 1493h159l215 -289h-104z" />
<glyph unicode="a" d="M66 279q0 74 22.5 125.5t62.5 86.5t94 56.5t117 34.5t132 20.5t139 15.5q40 5 71 11.5t52 21.5t32 41t11 70q0 65 -22 107t-59.5 66.5t-88 34t-107.5 9.5q-60 0 -111 -14.5t-88.5 -44.5t-59.5 -76.5t-23 -110.5h-129q4 93 37.5 160t90 110t133 63.5t167.5 20.5 q70 0 139.5 -13.5t125 -50.5t90 -103t34.5 -172v-562q0 -37 18.5 -57t57.5 -20q11 0 21.5 2.5t18.5 5.5v-109q-21 -5 -39 -6.5t-44 -1.5q-50 0 -79.5 13.5t-46 37.5t-21.5 58t-5 75h-4q-34 -51 -69.5 -91t-80.5 -67.5t-102 -42t-133 -14.5q-73 0 -137.5 18.5t-112.5 56.5 t-76 96.5t-28 138.5zM195 287q0 -48 19.5 -87t52.5 -66t75.5 -41.5t87.5 -14.5q74 0 141 23t118 65t81 104q29 60 29 135v5v168h-4q-6 -12 -19 -20t-28.5 -13t-32 -8.5t-29.5 -6.5q-55 -10 -112.5 -17t-112 -17t-103 -24.5t-85 -38t-57.5 -59t-21 -87.5z" />
<glyph unicode="b" horiz-adv-x="1176" d="M123 0v1462h129v-606h4q21 57 58.5 100t86.5 72.5t106 44t116 14.5q120 0 209.5 -45.5t148.5 -122t88 -178t29 -213.5t-29 -213.5t-88 -178t-148.5 -122t-209.5 -45.5q-64 0 -122.5 16t-107.5 46t-87 73t-60 97h-4v-201h-119zM252 528q0 -82 19.5 -162.5t63 -144.5 t114.5 -103.5t174 -39.5q92 0 157.5 39.5t107.5 103.5t61.5 144.5t19.5 162.5t-19.5 163t-61.5 145t-107.5 103.5t-157.5 39.5q-103 0 -174 -39.5t-114.5 -103.5t-63 -145t-19.5 -163z" />
<glyph unicode="c" d="M70 528q0 114 32.5 215.5t96 178t156.5 121t214 44.5q85 0 158.5 -22.5t130 -67.5t92.5 -113t47 -159h-129q-13 59 -37.5 106t-61.5 80t-87 50.5t-113 17.5q-93 0 -162 -38.5t-115.5 -102t-69.5 -144.5t-23 -166q0 -84 23 -165t69.5 -144.5t115.5 -102t162 -38.5 q60 0 113 22.5t94.5 62t68 95t32.5 121.5h129q-13 -95 -50 -171t-93.5 -129t-131 -81.5t-162.5 -28.5q-121 0 -214 44.5t-156.5 121t-96 178t-32.5 215.5z" />
<glyph unicode="d" horiz-adv-x="1176" d="M78 528q0 112 29 213.5t88 178t148 122t210 45.5q59 0 116 -14.5t105.5 -44t86.5 -72.5t59 -100h4v606h129v-1462h-119v201h-4q-21 -52 -61 -94.5t-91 -73t-109 -47.5t-116 -17q-121 0 -210 45.5t-148 122t-88 178t-29 213.5zM207 528q0 -82 19.5 -162.5t61.5 -144.5 t107.5 -103.5t157.5 -39.5q103 0 173.5 39.5t114.5 103.5t63.5 144.5t19.5 162.5t-19.5 163t-63.5 145t-114.5 103.5t-173.5 39.5q-92 0 -157.5 -39.5t-107.5 -103.5t-61.5 -145t-19.5 -163z" />
<glyph unicode="e" d="M70 528q0 105 27.5 205t85 179t148 127t216.5 48q85 0 153 -23.5t120.5 -64.5t90 -97t61.5 -122q22 -66 32 -139q8 -60 8 -121v-26h-813q1 -71 20.5 -145t61.5 -134t107.5 -98.5t158.5 -38.5q70 0 125 19.5t96 55.5t68.5 85.5t42.5 109.5h129q-21 -90 -58.5 -160 t-93.5 -119t-132.5 -74.5t-176.5 -25.5q-126 0 -216.5 45t-148 121.5t-85 178t-27.5 214.5zM199 602h684q-2 73 -25.5 141t-66.5 120.5t-104.5 84t-139.5 31.5q-79 0 -140.5 -32t-105 -84.5t-69.5 -120.5t-33 -140z" />
<glyph unicode="f" horiz-adv-x="530" d="M12 948v109h181v96v12q0 61 9 113q11 57 40 98t79 63.5t128 22.5q27 0 52 -1.5t56 -6.5v-111q-26 5 -48.5 8t-45.5 3q-54 0 -82.5 -16t-41.5 -43.5t-14.5 -65t-2.5 -80.5v-92h208v-109h-208v-948h-129v948h-181z" />
<glyph unicode="g" horiz-adv-x="1139" d="M70 555q0 109 31.5 206t92.5 169.5t150 114.5t203 42q57 0 109.5 -17t96.5 -46t77 -67.5t53 -82.5h4v183h129v-971q-1 -118 -25.5 -212t-80 -160t-144.5 -101t-219 -35q-79 0 -155 18t-136.5 57t-100 99.5t-46.5 145.5h129q10 -59 39.5 -99t71.5 -65t93 -36t105 -11 q89 0 153 26t105.5 76.5t61.5 125t20 171.5v143h-4q-23 -48 -57 -88t-77 -68.5t-94 -44.5t-108 -16q-127 0 -217.5 42.5t-148 116t-84.5 172.5t-27 212zM199 541q0 -80 21 -155.5t64 -134.5t108.5 -94.5t154.5 -35.5q84 0 147.5 35.5t106 94t64.5 134t22 156.5q0 78 -19 156 t-59.5 140.5t-105.5 102t-156 39.5q-92 0 -158 -37.5t-108 -99t-62 -140.5t-20 -161z" />
<glyph unicode="h" horiz-adv-x="1100" d="M121 0v1462h129v-588h4q18 48 51.5 87t78.5 67t98.5 43.5t109.5 15.5q111 0 185.5 -28t119.5 -81t63.5 -128.5t18.5 -169.5v-680h-129v659q0 69 -12.5 127.5t-43 101t-82.5 67t-130 24.5q-77 0 -138 -27.5t-103.5 -76.5t-66 -115t-24.5 -144v-616h-129z" />
<glyph unicode="i" horiz-adv-x="379" d="M125 0v1057h129v-1057h-129zM125 1255v207h129v-207h-129z" />
<glyph unicode="j" horiz-adv-x="379" d="M-61 -281q15 -2 34.5 -3t34.5 1q38 0 61 11.5t35.5 32.5t16.5 49t4 61v1186h129v-1155q0 -59 -9.5 -112.5t-34.5 -93.5t-69 -63.5t-112 -23.5q-23 0 -45 2t-45 2v106zM125 1255v207h129v-207h-129z" />
<glyph unicode="k" horiz-adv-x="1024" d="M123 0v1462h129v-917l586 512h172l-451 -391l481 -666h-161l-418 575l-209 -174v-401h-129z" />
<glyph unicode="l" horiz-adv-x="379" d="M125 0v1462h129v-1462h-129z" />
<glyph unicode="m" horiz-adv-x="1706" d="M123 0v1057h119v-178h6q50 95 135 151.5t211 56.5q52 0 100.5 -12.5t88.5 -38t69.5 -64.5t44.5 -91q24 52 60 91t80 64.5t94 38t102 12.5q173 0 261.5 -91.5t88.5 -278.5v-717h-129v711q0 65 -13 115t-42.5 84t-77.5 51.5t-117 17.5q-84 0 -139 -32t-87.5 -85t-46 -121.5 t-13.5 -142.5v-598h-130v717v9q0 48 -10 92q-12 48 -38 83.5t-69 56.5t-104 21q-84 0 -143 -29.5t-97 -82t-56 -123.5t-19 -154v-590h-129z" />
<glyph unicode="n" horiz-adv-x="1100" d="M121 0v1057h129v-183h4q18 48 51.5 87t78.5 67t98.5 43.5t109.5 15.5q111 0 185.5 -28t119.5 -81t63.5 -128.5t18.5 -169.5v-680h-129v659q0 69 -12.5 127.5t-43 101t-82.5 67t-130 24.5q-77 0 -138 -27.5t-103.5 -76.5t-66 -115t-24.5 -144v-616h-129z" />
<glyph unicode="o" horiz-adv-x="1139" d="M70 528q0 114 32.5 215.5t96 178t156.5 121t214 44.5t214.5 -44.5t157 -121t96 -178t32.5 -215.5t-32.5 -215.5t-96 -178t-157 -121t-214.5 -44.5t-214 44.5t-156.5 121t-96 178t-32.5 215.5zM199 528q0 -84 23 -165t69.5 -144.5t115.5 -102t162 -38.5t162.5 38.5 t116 102t69.5 144.5t23 165q0 85 -23 166t-69.5 144.5t-116 102t-162.5 38.5t-162 -38.5t-115.5 -102t-69.5 -144.5t-23 -166z" />
<glyph unicode="p" horiz-adv-x="1176" d="M123 -391v1448h119v-201h4q22 54 60 96.5t87 72.5t107.5 46t122.5 16q120 0 209.5 -45.5t148.5 -122t88 -178t29 -213.5t-29 -213.5t-88 -178t-148.5 -122t-209.5 -45.5q-59 0 -116 15t-106 44t-86.5 72.5t-58.5 100.5h-4v-592h-129zM252 528q0 -82 19.5 -162.5 t63 -144.5t114.5 -103.5t174 -39.5q92 0 157.5 39.5t107.5 103.5t61.5 144.5t19.5 162.5t-19.5 163t-61.5 145t-107.5 103.5t-157.5 39.5q-107 0 -178.5 -36.5t-114 -99t-60.5 -144t-18 -171.5z" />
<glyph unicode="q" horiz-adv-x="1176" d="M78 528q0 112 29 213.5t88 178t148 122t210 45.5q58 0 116 -17t109 -47.5t91 -73t61 -93.5h4v201h119v-1448h-129v592h-4q-21 -57 -59 -100.5t-86.5 -72.5t-105.5 -44t-116 -15q-121 0 -210 45.5t-148 122t-88 178t-29 213.5zM207 528q0 -82 19.5 -162.5t61.5 -144.5 t107.5 -103.5t157.5 -39.5q103 0 173.5 39.5t114.5 103.5t63.5 144.5t19.5 162.5t-19.5 163t-63.5 145t-114.5 103.5t-173.5 39.5q-92 0 -157.5 -39.5t-107.5 -103.5t-61.5 -145t-19.5 -163z" />
<glyph unicode="r" horiz-adv-x="645" d="M123 0v1057h119v-248h4q24 64 63 114t90 84q51 35 113 51q52 14 111 14q11 0 22 -1v-129q-11 1 -22 1q-73 -1 -137 -25q-72 -28 -124.5 -79.5t-81 -122.5t-28.5 -153v-563h-129z" />
<glyph unicode="s" horiz-adv-x="985" d="M63 342h130q4 -65 28.5 -114.5t66 -82.5t96.5 -50t120 -17q45 0 96 10.5t94 34.5t71 62t28 94q0 46 -20 77.5t-52.5 53.5t-74 36t-85.5 25l-166 37q-63 17 -117 38t-93.5 52.5t-62 78t-22.5 114.5q0 81 36 137t93 91.5t128 51.5t141 16q79 0 148.5 -21t121.5 -63 t83 -105.5t34 -149.5h-129q-2 60 -25 103.5t-60.5 72t-87 42t-104.5 13.5q-43 0 -87.5 -9t-80.5 -30.5t-59 -56.5t-23 -86q0 -43 22 -73t55 -51t71.5 -33.5t71.5 -21.5l172 -38q55 -9 109 -30t96.5 -56.5t69 -86.5t26.5 -120q0 -57 -18 -103t-48.5 -81.5t-72 -60.5 t-88.5 -41.5t-97.5 -24t-99.5 -7.5q-92 0 -168.5 22t-133 67.5t-91 116t-42.5 167.5z" />
<glyph unicode="t" horiz-adv-x="606" d="M14 948v109h185v317h129v-317h215v-109h-215v-712q0 -32 3.5 -56.5t14 -42.5t31 -28.5t55.5 -12.5q55 0 111 6v-110q-29 0 -57.5 -2t-57.5 -2q-65 0 -109 11.5t-71 39.5q-26 28 -38 73q-11 41 -11 102v11v723h-185z" />
<glyph unicode="u" horiz-adv-x="1100" d="M121 371v686h129v-688q2 -72 18 -126t49 -91t85.5 -55.5t129.5 -18.5q83 0 143 36t99 95.5t57.5 135.5t18.5 157v555h129v-1057h-119v190h-4q-26 -53 -63.5 -94t-85 -69.5t-102 -43t-113.5 -14.5q-100 0 -170.5 28t-115 80.5t-65 127t-20.5 166.5z" />
<glyph unicode="v" horiz-adv-x="948" d="M4 1057h143l332 -928h4l328 928h133l-395 -1057h-137z" />
<glyph unicode="w" horiz-adv-x="1518" d="M16 1057h138l270 -905h4l258 905h145l259 -905h4l270 905h137l-340 -1057h-141l-260 889h-4l-258 -889h-142z" />
<glyph unicode="x" horiz-adv-x="985" d="M2 0l410 549l-379 508h162l301 -402l295 402h161l-381 -506l412 -551h-164l-332 444l-325 -444h-160z" />
<glyph unicode="y" horiz-adv-x="948" d="M4 1057h137l348 -901l326 901h129l-459 -1219q-27 -67 -51.5 -111t-54.5 -70.5t-70.5 -37t-101.5 -10.5q-38 2 -60.5 3t-37.5 7v109q47 -11 88 -11q43 0 71 12t47.5 34t34.5 52.5t31 67.5l45 121z" />
<glyph unicode="z" horiz-adv-x="948" d="M31 0v104l690 844h-643v109h807v-92l-699 -856h727v-109h-882z" />
<glyph unicode="{" horiz-adv-x="682" d="M170 496v108q45 0 73.5 28t45 74t22.5 105t6 121v305q0 58 12 105.5t35.5 81t57 51.5t76.5 18h102v-109h-41q-32 0 -53.5 -17.5t-34.5 -46.5t-19 -67t-6 -79v-289q1 -84 -17.5 -144t-43 -100t-48.5 -61.5t-34 -26.5v-4q10 -5 34 -26.5t48.5 -61.5t43 -100t17.5 -144v-289 q0 -41 6 -79.5t19 -67.5t34.5 -46.5t53.5 -17.5h41v-108h-102q-43 0 -76.5 18t-57 51.5t-35.5 80.5t-12 106v303q0 62 -6 121t-22.5 105t-45 74t-73.5 28z" />
<glyph unicode="|" horiz-adv-x="455" d="M174 -438v2048h109v-2048h-109z" />
<glyph unicode="}" horiz-adv-x="682" d="M82 -283h41q31 0 53 17.5t35 46.5t19 67.5t6 79.5v289q-1 84 17.5 144t43 100t48.5 61.5t34 26.5v4q-10 5 -34 26.5t-48.5 61.5t-43 100t-17.5 144v289q0 41 -6 79t-19 67t-35 46.5t-53 17.5h-41v109h102q43 0 76.5 -18t57 -51.5t35.5 -81t12 -105.5v-303q0 -62 6 -121 t22.5 -105t45 -74t73.5 -28v-108q-45 0 -73.5 -28t-45 -74t-22.5 -105t-6 -121v-305q0 -59 -12 -106t-35.5 -80.5t-57 -51.5t-76.5 -18h-102v108z" />
<glyph unicode="~" horiz-adv-x="1229" d="M141 461q17 32 40 63.5t53.5 56.5t71 40.5t91.5 15.5q57 0 118 -20.5t118 -45.5q59 -26 110.5 -46.5t90.5 -20.5q30 0 55.5 12t47 31.5t40.5 45t37 52.5l73 -74q-23 -32 -48 -63.5t-55.5 -56.5t-67.5 -40.5t-85 -15.5q-61 0 -116 21t-109 47q-54 25 -107 45t-112 20 q-34 0 -60.5 -12t-47 -31.5t-36.5 -45t-28 -52.5z" />
<glyph horiz-adv-x="1392" d="M76 262v510h175q60 0 91 -7q97 -23 136 -123q20 -54 20 -122q0 -110 -49 -177q-40 -56 -107 -72q-36 -9 -83 -9h-183zM143 322h109q89 0 125 36q51 51 51 163q0 146 -90 181q-27 10 -87 10h-108v-390zM559 262v510h368v-60h-301v-156h282v-60h-282v-174h314v-60h-381z M1004 262v510h68v-450h250v-60h-318z" />
<glyph unicode="&#xa9;" horiz-adv-x="1638" d="M57 731q0 107 26.5 205t75.5 182.5t118 154t153.5 118.5t182.5 75.5t206 26.5q107 0 205.5 -26.5t183 -75.5t153.5 -118.5t118 -154t75.5 -182.5t26.5 -205t-26.5 -205t-75.5 -182.5t-118 -154t-153.5 -118.5t-183 -75.5t-205.5 -26.5t-205.5 26.5t-183 75.5 t-153.5 118.5t-118 154t-75.5 182.5t-26.5 205zM176 731q0 -137 48.5 -256t135 -207t204 -139t255.5 -51t256 51t204 139t134.5 207t48.5 256t-48.5 256t-134.5 207.5t-204 139t-256 50.5t-255.5 -50.5t-204 -139t-135 -207.5t-48.5 -256zM393 731q0 101 30.5 187 t87.5 148.5t139.5 98t187.5 35.5q72 0 136.5 -20.5t115 -59.5t84 -96.5t43.5 -132.5h-105q-9 45 -32 84.5t-57.5 68.5t-80.5 46t-102 18q-83 0 -146.5 -29t-106 -79.5t-64 -119.5t-21.5 -149t21.5 -149t64 -119.5t106 -79.5t146.5 -29q56 0 102 16.5t80.5 46t57.5 69 t32 85.5h105q-10 -74 -43.5 -131.5t-84 -97t-115 -60t-136.5 -20.5q-105 0 -187.5 35.5t-139.5 98t-87.5 148.5t-30.5 187z" />
<glyph unicode="&#xab;" horiz-adv-x="872" d="M123 500v127l272 256v-138l-192 -182l192 -182v-137zM453 500v127l272 256v-138l-193 -182l193 -182v-137z" />
<glyph unicode="&#xad;" horiz-adv-x="1255" d="M192 534v163h866v-163h-866z" />
<glyph unicode="&#xae;" horiz-adv-x="1638" d="M57 731q0 107 26.5 205t75.5 182.5t118 154t153.5 118.5t182.5 75.5t206 26.5q107 0 205.5 -26.5t183 -75.5t153.5 -118.5t118 -154t75.5 -182.5t26.5 -205t-26.5 -205t-75.5 -182.5t-118 -154t-153.5 -118.5t-183 -75.5t-205.5 -26.5t-205.5 26.5t-183 75.5 t-153.5 118.5t-118 154t-75.5 182.5t-26.5 205zM176 731q0 -137 48.5 -256t135 -207t204 -139t255.5 -51t256 51t204 139t134.5 207t48.5 256t-48.5 256t-134.5 207.5t-204 139t-256 50.5t-255.5 -50.5t-204 -139t-135 -207.5t-48.5 -256zM543 291v880h338 q149 0 217.5 -62.5t68.5 -180.5q0 -59 -18 -101.5t-48 -72.5t-70 -47.5t-85 -24.5l262 -391h-127l-247 391h-183v-391h-108zM651 774h144q50 0 97.5 3t84.5 18t59.5 46t22.5 87q0 46 -18 75.5t-47 46t-66.5 23t-77.5 6.5h-199v-305z" />
<glyph unicode="&#xb0;" horiz-adv-x="1024" d="M52 637l457 457l456 -457l-456 -456zM128 637l381 -380l380 380l-380 381zM292 637l217 218l217 -218l-217 -217z" />
<glyph unicode="&#xb1;" horiz-adv-x="901" d="M48 752l201 145l201 146l201 -146l201 -145l-77 -237l-76 -236h-497l-77 236zM167 533l142 -103l141 -102l142 102l141 103l-54 167l-54 166h-350l-54 -166zM294 671l78 56l78 57l78 -57l79 -56l-31 -92l-29 -92h-193z" />
<glyph unicode="&#xb6;" horiz-adv-x="1229" d="M135 1061q0 97 31 171.5t90 125.5t143.5 77.5t192.5 26.5h471v-1824h-129v1716h-246v-1716h-129v1034q-90 0 -167.5 31t-134.5 84.5t-89.5 124t-32.5 149.5z" />
<glyph unicode="&#xb7;" horiz-adv-x="1082" d="M74 581l212 198l198 -198l-198 -198zM351 317l198 199l201 -199l-201 -219zM351 841l198 215l196 -215l-196 -198zM613 581l198 198l214 -198l-214 -205z" />
<glyph unicode="&#xba;" horiz-adv-x="983" d="M26 654l113 196l114 197h454l114 -197l113 -196l-113 -197l-114 -197h-454l-114 197zM116 654l91 -158l91 -157h364l90 157l91 158l-91 157l-90 157h-364zM243 654l59 103l59 102h238l59 -102l59 -103l-118 -206h-238z" />
<glyph unicode="&#xbb;" horiz-adv-x="872" d="M147 244v137l193 182l-193 182v138l273 -256v-127zM477 244v137l193 182l-193 182v138l273 -256v-127z" />
<glyph unicode="&#xbf;" horiz-adv-x="774" d="M77 304v675h675v-675h-675z" />
<glyph unicode="&#xd7;" horiz-adv-x="1229" d="M152 127l385 387l-385 387l75 76l387 -387l387 387l76 -76l-387 -387l387 -387l-76 -76l-387 385l-387 -385z" />
<glyph unicode="&#xe0;" d="M66 279q0 74 22.5 125.5t62.5 86.5t94 56.5t117 34.5t132 20.5t139 15.5q40 5 71 11.5t52 21.5t32 41t11 70q0 65 -22 107t-59.5 66.5t-88 34t-107.5 9.5q-60 0 -111 -14.5t-88.5 -44.5t-59.5 -76.5t-23 -110.5h-129q4 93 37.5 160t90 110t133 63.5t167.5 20.5 q70 0 139.5 -13.5t125 -50.5t90 -103t34.5 -172v-562q0 -37 18.5 -57t57.5 -20q11 0 21.5 2.5t18.5 5.5v-109q-21 -5 -39 -6.5t-44 -1.5q-50 0 -79.5 13.5t-46 37.5t-21.5 58t-5 75h-4q-34 -51 -69.5 -91t-80.5 -67.5t-102 -42t-133 -14.5q-73 0 -137.5 18.5t-112.5 56.5 t-76 96.5t-28 138.5zM195 287q0 -48 19.5 -87t52.5 -66t75.5 -41.5t87.5 -14.5q74 0 141 23t118 65.5t81 104t29 139.5v168h-4q-6 -12 -19 -20t-28.5 -13t-32 -8.5t-29.5 -6.5q-55 -10 -112.5 -17t-112 -17t-103 -24.5t-85 -38t-57.5 -59t-21 -87.5zM279 1493h159l215 -289 h-104z" />
<glyph unicode="&#xe1;" d="M66 279q0 74 22.5 125.5t62.5 86.5t94 56.5t117 34.5t132 20.5t139 15.5q40 5 71 11.5t52 21.5t32 41t11 70q0 65 -22 107t-59.5 66.5t-88 34t-107.5 9.5q-60 0 -111 -14.5t-88.5 -44.5t-59.5 -76.5t-23 -110.5h-129q4 93 37.5 160t90 110t133 63.5t167.5 20.5 q70 0 139.5 -13.5t125 -50.5t90 -103t34.5 -172v-562q0 -37 18.5 -57t57.5 -20q11 0 21.5 2.5t18.5 5.5v-109q-21 -5 -39 -6.5t-44 -1.5q-50 0 -79.5 13.5t-46 37.5t-21.5 58t-5 75h-4q-34 -51 -69.5 -91t-80.5 -67.5t-102 -42t-133 -14.5q-73 0 -137.5 18.5t-112.5 56.5 t-76 96.5t-28 138.5zM195 287q0 -48 19.5 -87t52.5 -66t75.5 -41.5t87.5 -14.5q74 0 141 23t118 65.5t81 104t29 139.5v168h-4q-6 -12 -19 -20t-28.5 -13t-32 -8.5t-29.5 -6.5q-55 -10 -112.5 -17t-112 -17t-103 -24.5t-85 -38t-57.5 -59t-21 -87.5zM410 1204l215 289h159 l-270 -289h-104z" />
<glyph unicode="&#xe7;" d="M70 528q0 114 32.5 215.5t96 178t156.5 121t214 44.5q85 0 158.5 -22.5t130 -67.5t92.5 -113t47 -159h-129q-13 59 -37.5 106t-61.5 80t-87 50.5t-113 17.5q-93 0 -162 -38.5t-115.5 -102t-69.5 -144.5t-23 -166q0 -84 23 -165t69.5 -144.5t115.5 -102t162 -38.5 q60 0 113 22.5t94.5 62t68 95t32.5 121.5h129q-13 -95 -49 -170t-91.5 -128t-128 -82t-159.5 -30l-68 -88q36 7 77.5 6t77.5 -14.5t59.5 -42t23.5 -76.5q0 -47 -20.5 -80.5t-53 -54.5t-73 -31t-79.5 -10q-49 0 -98 10.5t-94 32.5l28 66q13 -6 31.5 -11t40.5 -9t45 -6.5 t45 -2.5t41.5 5t34.5 16t24 27.5t9 39.5q0 37 -26.5 57.5t-61.5 20.5t-60.5 -3.5t-44.5 -13.5l-33 31l105 135q-107 12 -188.5 60.5t-137 123t-84 170t-28.5 201.5z" />
<glyph unicode="&#xe8;" d="M70 528q0 105 27.5 205t85 179t148 127t216.5 48q85 0 153 -23.5t120.5 -64.5t90 -97t61 -122t33 -139t7.5 -147h-813q1 -71 20.5 -145t61.5 -134t107.5 -98.5t158.5 -38.5q70 0 125 19.5t96 55.5t68.5 85.5t42.5 109.5h129q-21 -90 -58.5 -160t-93.5 -119t-132.5 -74.5 t-176.5 -25.5q-126 0 -216.5 45t-148 121.5t-85 178t-27.5 214.5zM199 602h684q-2 73 -25.5 141t-66.5 120.5t-104.5 84t-139.5 31.5q-79 0 -140.5 -32t-105 -84.5t-69.5 -120.5t-33 -140zM279 1493h159l215 -289h-104z" />
<glyph unicode="&#xe9;" d="M70 528q0 105 27.5 205t85 179t148 127t216.5 48q85 0 153 -23.5t120.5 -64.5t90 -97t61 -122t33 -139t7.5 -147h-813q1 -71 20.5 -145t61.5 -134t107.5 -98.5t158.5 -38.5q70 0 125 19.5t96 55.5t68.5 85.5t42.5 109.5h129q-21 -90 -58.5 -160t-93.5 -119t-132.5 -74.5 t-176.5 -25.5q-126 0 -216.5 45t-148 121.5t-85 178t-27.5 214.5zM199 602h684q-2 73 -25.5 141t-66.5 120.5t-104.5 84t-139.5 31.5q-79 0 -140.5 -32t-105 -84.5t-69.5 -120.5t-33 -140zM410 1204l215 289h159l-270 -289h-104z" />
<glyph unicode="&#xea;" d="M70 528q0 105 27.5 205t85 179t148 127t216.5 48q85 0 153 -23.5t120.5 -64.5t90 -97t61 -122t33 -139t7.5 -147h-813q1 -71 20.5 -145t61.5 -134t107.5 -98.5t158.5 -38.5q70 0 125 19.5t96 55.5t68.5 85.5t42.5 109.5h129q-21 -90 -58.5 -160t-93.5 -119t-132.5 -74.5 t-176.5 -25.5q-126 0 -216.5 45t-148 121.5t-85 178t-27.5 214.5zM199 602h684q-2 73 -25.5 141t-66.5 120.5t-104.5 84t-139.5 31.5q-79 0 -140.5 -32t-105 -84.5t-69.5 -120.5t-33 -140zM227 1204l234 289h141l234 -289h-134l-176 209l-180 -209h-119z" />
<glyph unicode="&#xf4;" horiz-adv-x="1139" d="M70 528q0 114 32.5 215.5t96 178t156.5 121t214 44.5t214.5 -44.5t157 -121t96 -178t32.5 -215.5t-32.5 -215.5t-96 -178t-157 -121t-214.5 -44.5t-214 44.5t-156.5 121t-96 178t-32.5 215.5zM199 528q0 -84 23 -165t69.5 -144.5t115.5 -102t162 -38.5t162.5 38.5 t116 102t69.5 144.5t23 165q0 85 -23 166t-69.5 144.5t-116 102t-162.5 38.5t-162 -38.5t-115.5 -102t-69.5 -144.5t-23 -166zM266 1204l234 289h141l233 -289h-133l-176 209l-180 -209h-119z" />
<glyph unicode="&#xf7;" horiz-adv-x="1229" d="M100 461v108h1030v-108h-1030zM500 102q0 24 9 45t25 36.5t36.5 24.5t43.5 9t44 -9.5t36.5 -25t25 -36.5t9.5 -44q0 -21 -9 -41.5t-25 -36.5t-36.5 -26t-42.5 -10q-24 0 -45 9t-36.5 25t-25 36.5t-9.5 43.5zM500 928q0 24 9 44.5t25 36t36.5 24.5t43.5 9t44 -9t36.5 -25 t25 -36.5t9.5 -43.5q0 -22 -9 -42.5t-25 -36.5t-36.5 -26t-42.5 -10q-24 0 -45 9t-36.5 25t-25 37t-9.5 44z" />
<glyph unicode="&#x153;" horiz-adv-x="1821" d="M74 528q0 110 28.5 211t86.5 178.5t146.5 123.5t209.5 46q67 0 126.5 -15.5t108.5 -48t85 -81.5t57 -115h4q21 58 58.5 105.5t87.5 82t111.5 53.5t131.5 19q233 0 342.5 -151.5t109.5 -441.5h-786q0 -78 19 -152.5t59.5 -133t103 -94.5t148.5 -36q133 0 211.5 69.5 t113.5 192.5h129q-43 -178 -163.5 -274.5t-303.5 -96.5q-65 0 -125.5 17.5t-111 51.5t-87 84t-52.5 116h-4q-20 -68 -56 -118.5t-85 -84t-109.5 -50t-128.5 -16.5q-125 0 -213 45.5t-144 122.5t-82 178.5t-26 212.5zM203 504q0 -79 18.5 -155.5t59 -136.5t104.5 -97t156 -37 q98 0 159 41.5t94.5 107.5t45.5 147.5t12 162.5q0 80 -12.5 159t-46.5 142t-94.5 102t-155.5 39q-101 0 -166.5 -43t-104 -111.5t-54 -153t-15.5 -167.5zM981 602h657q0 75 -21 143t-62.5 120t-102.5 83t-141 31q-81 0 -143 -30.5t-103.5 -82.5t-62.5 -120.5t-21 -143.5z " />
<glyph unicode="&#x2000;" horiz-adv-x="1052" />
<glyph unicode="&#x2001;" horiz-adv-x="2104" />
<glyph unicode="&#x2002;" horiz-adv-x="1052" />
<glyph unicode="&#x2003;" horiz-adv-x="2104" />
<glyph unicode="&#x2004;" horiz-adv-x="701" />
<glyph unicode="&#x2005;" horiz-adv-x="526" />
<glyph unicode="&#x2006;" horiz-adv-x="350" />
<glyph unicode="&#x2007;" horiz-adv-x="350" />
<glyph unicode="&#x2008;" horiz-adv-x="263" />
<glyph unicode="&#x2009;" horiz-adv-x="420" />
<glyph unicode="&#x200a;" horiz-adv-x="116" />
<glyph unicode="&#x2010;" horiz-adv-x="1255" d="M192 534v163h866v-163h-866z" />
<glyph unicode="&#x2011;" horiz-adv-x="1255" d="M192 534v163h866v-163h-866z" />
<glyph unicode="&#x2012;" horiz-adv-x="1255" d="M192 534v163h866v-163h-866z" />
<glyph unicode="&#x2013;" horiz-adv-x="1024" d="M0 504v119h1024v-119h-1024z" />
<glyph unicode="&#x2014;" horiz-adv-x="2048" d="M266 504v119h1516v-119h-1516z" />
<glyph unicode="&#x2018;" horiz-adv-x="250" d="M60 1289q0 38 18.5 58t50.5 20l44 -28l16 -50l-10 -161l-21 -221h-64l-19 221z" />
<glyph unicode="&#x2019;" horiz-adv-x="262" d="M65 1288q0 38 15.5 58t48.5 20q15 0 26 -8t13 -20l25 -50l-10 -161q-11 -58 -14.5 -112.5t-3.5 -108.5h-62l-23 221z" />
<glyph unicode="&#x201a;" horiz-adv-x="569" d="M193 -193q26 9 44.5 31t30.5 49.5t17 57t4 55.5h-86v217h172v-219q-1 -45 -12 -89t-33.5 -82t-56.5 -66.5t-80 -41.5v88z" />
<glyph unicode="&#x201c;" horiz-adv-x="510" d="M95 1291q0 38 18.5 58t50.5 20l44 -28l16 -50l-10 -161l-21 -221h-64l-19 221zM301 1289q0 38 15.5 58t48.5 20q15 0 26 -8t13 -20l25 -50l-10 -161q-11 -58 -14.5 -112.5t-3.5 -108.5h-62l-23 221z" />
<glyph unicode="&#x201d;" horiz-adv-x="511" d="M91 1289q0 38 15.5 58t48.5 20q15 0 26 -8t13 -20l25 -50l-10 -161q-11 -58 -14.5 -112.5t-3.5 -108.5h-62l-23 221zM303 1289q0 38 18.5 58t50.5 20l44 -28l16 -50l-10 -161l-21 -221h-64l-19 221z" />
<glyph unicode="&#x2022;" horiz-adv-x="1024" d="M147 731q0 76 28.5 142.5t78 116t116 78t142.5 28.5t143 -28.5t116.5 -78t78.5 -116t29 -142.5t-29 -143t-78.5 -116.5t-116.5 -78t-143 -28.5t-142.5 28.5t-116 78t-78 116.5t-28.5 143z" />
<glyph unicode="&#x202f;" horiz-adv-x="420" />
<glyph unicode="&#x205f;" horiz-adv-x="526" />
<glyph unicode="&#x20ac;" horiz-adv-x="1139" d="M31 584l39 92h90q-2 8 -2 18v23q0 15 1 35t3 45h-131l37 92h104q23 125 69.5 225.5t118.5 175.5q156 168 400 168q255 0 381 -158l-56 -120q-134 161 -327 161q-189 0 -307 -137q-105 -120 -142 -315h682l-37 -92h-657q-6 -53 -6 -88v-16.5t2 -16.5h622l-38 -92h-578 q27 -214 129 -346q123 -154 324 -154q110 0 196 47q35 20 75 52t85 77v-158q-157 -133 -360 -133q-257 0 -414 183q-69 81 -111 189.5t-57 242.5h-135z" />
<glyph unicode="&#x2122;" horiz-adv-x="2028" d="M168 1370v92h657v-92h-274v-752h-109v752h-274zM975 618v844h174l272 -684l265 684h174v-844h-109v746h-4l-299 -746h-62l-299 746h-4v-746h-108z" />
<glyph unicode="&#x25fc;" horiz-adv-x="1055" d="M0 0v1055h1055v-1055h-1055z" />
</font>
</defs>
</svg>
