<?xml version="1.0" encoding="utf-8"?>
<!-- Generator: Adobe Illustrator 16.0.0, SVG Export Plug-In . SVG Version: 6.00 Build 0)  -->
<!DOCTYPE svg PUBLIC "-//W3C//DTD SVG 1.1//EN" "http://www.w3.org/Graphics/SVG/1.1/DTD/svg11.dtd">
<svg version="1.1" id="Layer_1" xmlns="http://www.w3.org/2000/svg" xmlns:xlink="http://www.w3.org/1999/xlink" x="0px" y="0px"
	 width="342.991px" height="333.671px" viewBox="0 0 342.991 333.671" enable-background="new 0 0 342.991 333.671"
	 xml:space="preserve">
<g>
	<path fill-rule="evenodd" clip-rule="evenodd" d="M25.938,223.382c-2.951,0-5.903,0.033-8.854-0.007
		c-11.147-0.15-16.998-5.861-17.02-16.882C0.007,178.747,0.087,151.001,0,123.255c-0.012-3.82,0.313-6.629,5.241-6.508
		c0.992,0.024,2.701-2.045,2.947-3.361c1.264-6.74,2.06-13.566,3.239-20.324c0.358-2.052,1.227-4.082,2.202-5.944
		c1.507-2.878,4.076-3.208,5.859-0.489c1.456,2.22,2.674,4.957,2.895,7.559c0.672,7.949,0.961,15.94,1.117,23.921
		c0.161,8.245,0.207,16.505-0.132,24.741c-0.151,3.675-1.06,7.409-2.24,10.908c-0.496,1.469-2.443,2.89-4.019,3.357
		c-0.722,0.214-2.433-1.756-3.197-3.034c-3.785-6.328-3.899-13.582-4.935-20.6c-0.326-2.208-0.787-4.396-1.984-6.596
		c-0.222,3.34-0.601,6.68-0.639,10.022c-0.252,21.618-0.477,43.235-0.604,64.854c-0.039,6.538,2.351,8.868,8.793,8.912
		c9.101,0.062,18.203,0.016,27.305,0.016c0.009-0.317,0.018-0.636,0.026-0.953c-2.356-0.627-4.726-1.208-7.065-1.89
		c-8.868-2.582-14.001-10.411-12.192-19.562c0.934-4.727,2.785-9.312,4.579-13.819c10.764-27.041,21.566-54.067,32.5-81.04
		c3.706-9.141,7.797-18.126,11.778-27.154c3.493-7.919,9.004-11.054,17.607-10.231c1.938,0.186,3.894,0.186,6.643,0.307
		C81.495,41.477,78.128,25.881,90.884,9.534c7.582-9.716,22.966-12.074,35.134-6.761c11.452,5,18.032,16.943,16.109,30.953
		c-2.915,21.221-16.972,27.726-36.896,26.872c1.027,0.909,1.956,1.97,3.096,2.704c17.744,11.44,35.486,22.885,53.329,34.171
		c1.659,1.049,3.985,1.439,6.007,1.458c13.998,0.127,28.008,0.426,41.989-0.074c6.526-0.233,10.929,1.33,13.663,7.527
		c1.599,3.624,4.157,6.815,6.164,10.271c1.032,1.779,1.797,3.712,3.041,6.326c-3.102,0.241-5.397,0.571-7.693,0.576
		c-18.372,0.04-36.747,0.171-55.116-0.072c-5.84-0.078-11.868-0.486-17.439-2.058c-5.037-1.421-9.684-4.436-14.298-7.1
		c-9.088-5.248-18.026-10.752-27.045-16.121c-1.488-0.886-3.068-1.618-4.961-2.606c-0.821,1.597-1.675,2.947-2.242,4.408
		c-9.363,24.104-18.704,48.215-28.013,72.339c-1.91,4.949-1.503,5.49,3.948,5.497c17.872,0.022,35.746,0.089,53.617-0.038
		c5.235-0.036,9.564,1.802,14.038,4.349c11.462,6.528,17.737,16.464,21.895,28.709c10.241,30.158,21.13,60.096,31.73,90.133
		c2.048,5.803,1.992,5.838-3.728,8.024c-6.3,2.408-12.602,4.815-18.922,7.17c-4.983,1.855-5.265,1.755-7.012-3.209
		c-6.385-18.145-12.719-36.307-19.073-54.462c-5.281-15.091-10.585-30.175-15.82-45.281c-0.9-2.596-2.054-4.168-5.262-4.135
		c-20.868,0.217-41.737,0.24-62.607,0.326c-0.985,0.005-1.97,0.001-2.975,0.655c1.257,0,2.515,0,3.772,0
		c17.998,0,35.996-0.058,53.992,0.073c2.206,0.016,6.04,0.634,6.304,1.682c0.822,3.26,0.396,6.869,0.149,10.32
		c-0.032,0.448-1.834,1.004-2.856,1.102c-2.833,0.271-5.687,0.324-9.433,0.508c2.992,2.805,5.417,5.048,7.808,7.326
		c3.309,3.152,4.951,6.889,5.202,11.596c1.46,27.322,3.139,54.632,4.745,81.945c0.044,0.749,0.106,1.497,0.148,2.245
		c0.136,2.407,0.584,4.819-3.198,4.9c-4.5,0.097-5.334-0.272-5.592-4.336c-1.779-28.052-3.579-56.103-5.171-84.166
		c-0.24-4.241-1.726-7.538-4.902-10.038c-3.825-3.01-7.776-5.883-11.855-8.533c-1.358-0.884-3.278-1.254-4.943-1.262
		c-18.622-0.08-37.245-0.098-55.866,0.044c-1.983,0.016-4.252,0.727-5.877,1.854c-3.776,2.618-7.686,5.298-10.675,8.712
		c-2.037,2.326-3.472,5.87-3.703,8.98c-2.034,27.284-3.736,54.594-5.543,81.896c-0.049,0.746-0.143,1.492-0.243,2.235
		c-0.605,4.497-1.462,4.935-6.596,4.561c-3.963-0.289-2.975-3.085-2.828-5.216c1.154-16.697,2.507-33.383,3.635-50.082
		c0.75-11.092,1.383-22.197,1.768-33.308c0.209-6.033,2.927-10.423,7.449-14.026c1.733-1.382,3.382-2.869,5.069-4.307
		C26.18,224.321,26.059,223.851,25.938,223.382z"/>
	<path fill-rule="evenodd" clip-rule="evenodd" d="M235.957,127.037c32.74,0,65.479,0,98.219,0.001c1.5,0,3.006,0.124,4.497,0.017
		c3.271-0.233,4.344,1.268,4.302,4.448c-0.131,9.995-0.157,19.995,0.015,29.989c0.062,3.619-1.299,4.733-4.816,4.703
		c-15.744-0.135-31.489-0.091-47.234-0.045c-6.753,0.02-6.783,0.094-6.784,6.964c-0.009,43.611-0.013,87.223,0.006,130.834
		c0.003,9.9,5.294,16.687,15.061,17.664c9.038,0.903,18.202,0.551,27.311,0.74c1.624,0.033,3.25,0,4.874,0.009
		c6.231,0.032,8.548,3.423,6.339,9.487c-0.26,0.712-1.322,1.439-2.117,1.585c-1.579,0.29-3.232,0.226-4.855,0.226
		c-58.355,0.01-116.712,0.01-175.067,0.012c-0.125,0-0.25,0-0.375,0c-6.274-0.021-8.62-3.322-6.363-9.418
		c0.343-0.925,2.271-1.748,3.49-1.783c6.493-0.185,12.993-0.113,19.491-0.114c20.619-0.003,41.238,0.114,61.854-0.089
		c4.432-0.043,8.992-0.752,13.244-2.002c6.886-2.025,10.7-7.768,10.702-14.922c0.011-44.235,0.008-88.472,0-132.708
		c-0.002-6.34-0.142-6.496-6.497-6.499c-38.487-0.013-76.975-0.006-115.463-0.007c-6.603-0.001-6.615-0.005-6.63-6.612
		c-0.02-8.872-0.054-17.744-0.01-26.616c0.028-5.653,0.233-5.876,5.966-5.881c33.614-0.026,67.228-0.013,100.842-0.013
		C235.957,127.017,235.957,127.026,235.957,127.037z M238.021,156.703c24.613,0,49.227,0.001,73.84,0
		c6.497,0,12.996-0.114,19.49,0.029c3.292,0.072,4.862-1.003,4.627-4.504c-0.201-2.984,0.004-5.995-0.025-8.993
		c-0.078-8.196,0.625-7.583-7.426-7.586c-60.471-0.025-120.942-0.015-181.413-0.014c-0.875,0-1.759,0.106-2.622,0.01
		c-3.548-0.395-4.613,1.488-4.549,4.666c0.07,3.496-0.023,6.995-0.039,10.494c-0.026,5.605,0.255,5.893,5.911,5.893
		C176.55,156.701,207.286,156.7,238.021,156.703z"/>
	<path fill-rule="evenodd" clip-rule="evenodd" d="M215.723,88.025c7.571,11.332,15.144,22.664,22.716,33.996
		c-0.393,0.415-0.785,0.829-1.178,1.243c-1.077-0.804-2.527-1.381-3.174-2.447c-6.511-10.729-12.891-21.54-19.306-32.328
		C215.095,88.335,215.41,88.18,215.723,88.025z"/>
</g>
</svg>
