<?xml version="1.0" encoding="utf-8"?>
<!-- Generator: Adobe Illustrator 16.0.0, SVG Export Plug-In . SVG Version: 6.00 Build 0)  -->
<!DOCTYPE svg PUBLIC "-//W3C//DTD SVG 1.1//EN" "http://www.w3.org/Graphics/SVG/1.1/DTD/svg11.dtd">
<svg version="1.1" id="Layer_1" xmlns="http://www.w3.org/2000/svg" xmlns:xlink="http://www.w3.org/1999/xlink" x="0px" y="0px"
	 width="521.851px" height="439.737px" viewBox="0 0 521.851 439.737" enable-background="new 0 0 521.851 439.737"
	 xml:space="preserve">
<g>
	<g>
		<path fill-rule="evenodd" clip-rule="evenodd" fill="#265691" d="M262.706,439.635c-34.49,0.002-68.987-0.367-103.47,0.09
			C110.754,440.368,75.54,416.87,48.25,379.27c-18.933-26.087-31.611-55.229-37.832-86.916c-3.043-15.499-5.112-31.192-7.391-46.833
			c-1.298-8.915-3.556-17.999-2.916-26.829c2.665-36.848,7.107-73.345,20.724-108.28c11.517-29.545,26.94-56.262,50.232-77.921
			c22.417-20.843,48.338-32.729,79.869-32.487c74.62,0.578,149.249,0.428,223.87,0.087c38.597-0.177,67.415,17.989,91.76,45.936
			c20.354,23.371,33.83,50.523,42.865,79.723c4.739,15.314,7.584,31.491,9.022,47.481c2.15,23.909,4.444,48.135,2.879,71.978
			c-3.699,56.347-20.385,108.25-58.96,151.442c-20.665,23.136-46.472,36.553-76.47,42.597c-3.633,0.732-7.503,0.373-11.262,0.375
			C337.331,439.645,300.018,439.635,262.706,439.635z M264.773,78.687c-25.702,0-51.415,0.451-77.104-0.14
			c-21.286-0.489-38.695,7.386-53.4,22.027c-27.436,27.313-37.306,62.306-40.764,99.205c-1.459,15.57,1.649,31.587,2.867,47.387
			c1.879,24.375,10.593,46.514,24.167,66.456c17.247,25.336,40.468,40.035,72.585,39.561c48.26-0.71,96.54,0.137,144.805-0.404
			c10.074-0.114,20.651-1.974,30.059-5.521c20.574-7.755,35.098-23.242,45.35-42.218c20.601-38.128,27.445-78.472,19.749-121.595
			c-4.096-22.943-10.578-44.565-23.535-63.883c-17.188-25.627-39.248-42.529-72.379-41.084
			C313.082,79.528,288.909,78.684,264.773,78.687z M495.193,327.57c24.183-68.406,25.452-134.611,4.063-203.303
			c-4.525,3.352-7.663,5.203-10.22,7.658c-7.796,7.487-14.734,16.012-23.165,22.663c-15.784,12.457-20.688,27.318-19.198,47.64
			c1.625,22.17-1.803,44.744-3.453,67.111c-0.491,6.658,0.264,12.033,5.707,16.667c6.623,5.637,12.497,12.147,18.974,17.97
			C476.303,311.523,484.979,318.768,495.193,327.57z M14.304,221.041c1.273,15.877,1.653,31.891,4.084,47.588
			c2.169,13.996,6.757,27.607,9.983,41.456c1.887,8.105,5.335,7.061,10.047,2.367c12.07-12.028,24.43-23.78,36.12-36.165
			c2.594-2.749,4.208-7.721,4.018-11.556c-0.557-11.185-3.421-22.33-3.248-33.455c0.301-19.326,2.407-38.618,3.25-57.943
			c0.16-3.651-0.923-8.513-3.328-10.921c-12.007-12.026-24.721-23.347-37.026-35.082c-4.408-4.203-8.047-5.941-9.531,1.896
			C22.921,159.641,13.437,220.87,14.304,221.041z M364.07,38.753c0,2.819,0.236,5.66-0.044,8.448
			c-0.967,9.629,1.289,16.437,12.562,17.832c3.697,0.457,7.091,3.588,10.568,5.589c17.046,9.808,28.104,24.95,37.166,41.849
			c5.631,10.503,7.179,10.72,15.873,2.146c7.47-7.363,15.142-14.535,22.381-22.119c16.057-16.825,19.098-11.895,3.06-33.312
			c-19.212-25.653-44.688-42.053-77.292-43.886C361.874,13.812,363.931,15.067,364.07,38.753z M363.686,396.571
			c0,8.595-0.798,14.697,0.33,20.421c0.581,2.953,4.41,7.273,7.075,7.507c41.284,3.617,72.632-13.755,96.593-46.542
			c3.788-5.187,1.91-8.542-1.747-12.03c-10.958-10.45-21.871-20.947-33.005-31.206c-7.378-6.799-10.228-6.042-15.953,2.525
			c-9.231,13.818-19.953,26.965-36.006,32.238C365.119,374.691,359.827,383.706,363.686,396.571z M150.591,398.867
			c-0.019,0-0.039,0-0.056,0c0-6.266,0.47-12.583-0.211-18.773c-0.312-2.83-2.229-6.707-4.552-7.899
			c-19.414-9.966-33.634-25.152-44.175-43.786c-3.777-6.678-6.765-6.042-11.232-1.59c-10.527,10.493-20.948,21.098-31.655,31.404
			c-5.08,4.89-5.843,9.11-1.559,15.301c18.157,26.24,41.066,45.143,73.409,51.01c16.542,3.001,20.022,0.562,20.03-16.269
			C150.591,405.133,150.591,401.999,150.591,398.867z M153.129,39.673c0-4.077-0.096-8.155,0.021-12.226
			c0.246-8.514-3.419-13.378-12.31-12.278c-9.238,1.141-18.88,1.633-27.484,4.773c-23.999,8.752-41.652,25.598-56.063,46.439
			c-4.413,6.378-3.54,10.493,1.44,15.216c10.333,9.793,20.652,19.603,30.837,29.55c4.979,4.861,8.055,4.711,11.821-1.849
			c10.48-18.257,23.76-33.752,43.392-43.273c3.975-1.929,6.461-8.389,8.072-13.274C154.159,48.792,153.118,44.06,153.129,39.673z
			 M257.657,375.928c-14.085,0-28.171,0.12-42.254-0.059c-6.09-0.077-9.497,1.946-9.388,8.584
			c0.172,10.325,0.073,20.656,0.05,30.985c-0.013,6.243,3.503,9.288,9.294,9.316c27.854,0.134,55.709,0.129,83.566-0.011
			c6.435-0.034,9.421-3.614,9.249-10.239c-0.249-9.698-0.373-19.417,0.035-29.103c0.322-7.621-3.188-9.734-10.179-9.568
			C284.578,376.154,271.113,375.928,257.657,375.928z M257.925,60.735c13.773,0,27.551-0.25,41.316,0.108
			c6.679,0.172,9.816-1.752,9.456-8.968c-0.454-9.055-0.305-18.156-0.051-27.227c0.188-6.725-2.498-9.644-9.388-9.6
			c-27.231,0.177-54.465,0.13-81.698,0.041c-7.948-0.026-11.306,3.883-11.195,11.564c0.119,8.138,0.231,16.285-0.05,24.414
			c-0.258,7.426,3.246,9.895,10.292,9.75C230.375,60.534,244.153,60.734,257.925,60.735z"/>
	</g>
	<g>
		<path fill-rule="evenodd" clip-rule="evenodd" fill="#265691" d="M262.418,293.326c-31.677-0.002-63.356-0.145-95.032,0.109
			c-6.95,0.057-9.853-1.471-9.785-9.343c0.393-44.847,0.315-89.701,0.068-134.551c-0.041-7.265,2.156-9.937,9.656-9.909
			c63.668,0.219,127.339,0.216,191.007,0.003c7.378-0.022,9.906,2.486,9.87,9.814c-0.217,44.848-0.271,89.701,0.054,134.551
			c0.056,7.708-2.789,9.51-9.864,9.449C326.402,293.173,294.409,293.327,262.418,293.326z M191.039,239.259
			c-22.043,2.859-22.043,2.859-22.045,24.432c0,2.819-0.058,5.644,0.05,8.459c0.269,7.002,3.136,10.754,10.969,10.611
			c19.417-0.356,38.846-0.084,58.271-0.121c23.608-0.044,24.466,3.781,24.213-24.693c-0.062-6.92-2.036-11.493-9.102-14.463
			c-10.707-4.503-16.963-12.606-17.263-25.132c-0.317-13.211,5.394-21.762,17.052-27.194c6.083-2.835,9.732-7.524,9.294-14.772
			c-0.266-4.37,0.04-8.773-0.064-13.156c-0.248-10.353-2.562-12.722-12.759-12.767c-17.546-0.076-35.09-0.081-52.635-0.013
			c-29.172,0.114-28.324-4.185-28.014,28.471c0.111,11.658,1.442,12.994,13.673,13.402c4.395,0.146,8.363,0.306,8.361,6.174
			C191.034,211.923,191.039,225.352,191.039,239.259z M334.886,238.886c0-11.368-0.002-22.604,0.001-33.838
			c0.002-12.352,0.012-12.78,12.304-12.545c7.932,0.153,10.603-2.909,10.104-10.522c-0.472-7.18-0.362-14.426-0.045-21.622
			c0.322-7.264-2.696-10.113-9.981-10.004c-18.494,0.275-36.995-0.048-55.492,0.114c-29.34,0.254-25.187-4.097-25.916,26.148
			c-0.175,7.301,2.045,12.001,8.65,14.537c21.113,8.105,25.307,38.046,2.86,49.955c-10.376,5.505-12.454,12.487-11.388,22.512
			c0.33,3.102,0.281,6.285,0.005,9.396c-0.667,7.518,2.944,9.818,10.038,9.722c20.062-0.271,40.131-0.003,60.195-0.116
			c23.867-0.133,20.79,2.714,20.948-21.117c0.132-19.955,0.03-19.95-19.155-21.383C337.426,240.078,336.864,239.684,334.886,238.886
			z M187.796,216.649c0-3.753-0.032-7.508,0.006-11.261c0.056-5.341-0.269-10.016-7.571-10.329
			c-7.117-0.306-10.692,3.081-11.051,9.644c-0.425,7.794-0.317,15.641-0.036,23.451c0.245,6.769,3.79,9.716,10.923,9.574
			c7.322-0.146,7.981-4.266,7.763-9.816C187.68,224.162,187.801,220.403,187.796,216.649z M357.184,216.255
			c0-3.735-0.074-7.475,0.016-11.204c0.134-5.534-0.792-9.822-7.868-9.972c-6.913-0.145-10.758,3.053-11.158,9.605
			c-0.475,7.753-0.413,15.566-0.069,23.331c0.323,7.292,4.598,9.925,11.852,9.681c7.6-0.256,7.288-5.092,7.244-10.236
			C357.17,223.725,357.194,219.99,357.184,216.255z M262.346,216.68c-0.072,0-0.145,0-0.217,0c0-4.676,0.649-9.476-0.191-13.995
			c-0.77-4.129-2.727-9.484-8.688-5.682c-6.596,4.206-9.977,10.49-10.326,18.696c-0.359,8.466,2.031,15.394,8.887,20.297
			c5.03,3.599,9.834,1.146,10.449-5.284C262.705,226.075,262.346,221.361,262.346,216.68z M266.164,216.015
			c-0.037,0-0.074,0-0.111,0c0,4.667-0.33,9.366,0.136,13.982c0.245,2.432,1.325,6.017,3.028,6.742
			c2.008,0.857,5.951,0.067,7.579-1.521c12.761-12.455,12.081-27.621-3.12-38.334c-4.256-2.998-7.174-0.707-7.45,4.211
			C265.947,206.055,266.164,211.043,266.164,216.015z"/>
	</g>
</g>
</svg>
