<?xml version="1.0" encoding="utf-8"?>
<!-- Generator: Adobe Illustrator 16.0.0, SVG Export Plug-In . SVG Version: 6.00 Build 0)  -->
<!DOCTYPE svg PUBLIC "-//W3C//DTD SVG 1.1//EN" "http://www.w3.org/Graphics/SVG/1.1/DTD/svg11.dtd">
<svg version="1.1" id="Layer_1" xmlns="http://www.w3.org/2000/svg" xmlns:xlink="http://www.w3.org/1999/xlink" x="0px" y="0px"
	 width="448.188px" height="396.567px" viewBox="0 0 448.188 396.567" enable-background="new 0 0 448.188 396.567"
	 xml:space="preserve">
<g>
	<path fill="#265691" d="M224.093,0C100.33,0,0,88.773,0,198.28c0,109.508,100.33,198.287,224.093,198.287
		c123.765,0,224.095-88.779,224.095-198.287C448.188,88.773,347.857,0,224.093,0z M14.28,198.28c0-14.406,1.854-28.429,5.364-41.892
		l256.388,221.803c-16.611,3.743-34.012,5.737-51.939,5.737C108.216,383.929,14.28,300.811,14.28,198.28z M121.279,174.895
		c2.514,0,4.233-0.354,5.115-0.795v-8.863h-6.042v-3.088h9.79v14.289c-1.721,0.618-5.115,1.632-9.129,1.632
		c-4.498,0-8.202-1.147-11.112-3.925c-2.559-2.47-4.146-6.439-4.146-11.069c0.043-8.864,6.129-15.348,16.096-15.348
		c3.44,0,6.13,0.75,7.409,1.368l-0.926,3.131c-1.588-0.706-3.572-1.279-6.571-1.279c-7.233,0-11.951,4.498-11.951,11.951
		C109.812,170.44,114.355,174.895,121.279,174.895z M119.16,203.065l-2.293,2.118l-1.808-1.809l-2.074,1.809l-2.688-2.822
		l2.425-2.031l1.675,1.722l2.118-1.722L119.16,203.065z M106.636,218.854c0.661-1.985,2.116-3.177,3.527-3.881l4.19-2.118
		c0.971-0.485,1.455-1.014,1.455-1.499c0-0.22,0-0.31-0.176-0.573l2.911-2.777l2.336,11.422c0.353,1.764,0.927,2.114,3.132,2.114
		h2.87h0.35h7.104l-1.543-5.114l2.602-2.559l1.366,4.94c0.706,2.427,1.016,2.732,2.822,2.732h3.53h0.308h3.309
		c1.279,0,1.852,0.09,2.69-0.924l4.102-5.162c1.19-1.496,3.307-5.068,5.424-5.068c3.439,0,6.836,7.318,6.836,10.362
		c0,2.559-1.809,5.513-3.44,7.408l-11.246-4.85c-1.411,1.851-1.72,2.469-4.188,2.469h-3.485h-0.308h-3.485
		c-2.293,0-2.69-0.132-4.499-1.677l-0.925,1.677h-6.973h-0.35h-5.341c-2.602,0-3.043-0.882-3.218-2.118
		c-1.059,0.84-1.72,1.06-2.999,1.06c-2.029,0-5.161-0.441-7.277-1.102c-1.411-0.398-2.293-1.059-2.293-1.722
		C105.754,221.236,106.283,219.868,106.636,218.854z M134.25,163.164c0-9.438,5.865-15.611,13.804-15.611
		c8.114,0,13.362,6.217,13.362,15.037c0,10.23-6.218,15.655-13.804,15.655C139.762,178.245,134.25,172.159,134.25,163.164z
		 M163.229,148.037h4.145l4.63,14.641c1.279,4.014,2.382,7.629,3.177,11.113h0.088c0.837-3.438,2.073-7.188,3.396-11.069
		l5.027-14.685h4.102l-10.629,29.724h-4.233L163.229,148.037z M139.76,232.658l-2.381,2.027l-1.721-1.719l-2.116,1.719l-2.646-2.69
		l2.338-2.16l1.764,1.809l2.072-1.809L139.76,232.658z M278.013,377.729l1.079-1.246l-87.049-75.308
		c7.341-5.57,43.628-31.642,69.184-23.172c-4.284-6.285-29.235-42.619-39.346-51.286l0.806-0.939h-6.579h-0.26h-3.754
		c-1.677,0-2.779-0.045-3.793-1.5l-1.454,1.5h-20.335h-0.261h-5.913c-0.618,3.263-2.338,6.263-4.72,8.335
		c-1.014,0.882-2.116,1.409-2.998,1.409c-1.588,0-2.954-1.19-5.16-4.453c-0.176-0.265-0.31-0.396-0.31-0.705
		c0-0.132,0.089-0.264,0.221-0.264c0.221,0,0.354,0.087,0.663,0.354c0.969,0.705,2.027,1.19,3.043,1.19
		c3.307,0,6.129-2.339,6.968-5.866h-4.764c-2.867,0-4.499-1.368-4.499-3.659c0-2.514,1.147-5.381,3.177-8.026
		c0.97-1.236,1.896-1.809,2.865-1.809c2.911,0,5.336,4.718,5.777,9.259h5.649h0.261h19.806l-9.835-10.627
		c-0.221,0.264-0.353,0.396-0.705,0.396c-0.707,0-1.897-1.364-2.338-1.764c-0.529-0.527-1.014-0.881-1.014-1.673
		c0-0.531,0.309-0.972,0.529-1.458c1.277-2.909,1.188-3.923,4.233-4.805l16.008-4.809l-1.764,4.059l-15.26,4.673l12.083,13.144
		c0.75,0.791,1.677,1.677,1.456,2.864h6.136h0.26h7.501c2.382,0,3.704,0.045,5.822-1.101c1.103-0.618,1.984-1.104,3.175-1.455
		c-2.337-0.795-5.909-2.999-8.115-2.999c-1.764,0-2.777,2.117-3.527,2.117c-0.309,0-0.572-0.267-0.572-0.53
		c0-0.573,0.75-1.41,1.102-1.81c1.234-1.499,2.426-3.086,4.587-3.086c2.249,0,4.631,1.368,6.571,2.295
		c3.704,1.764,6.57,2.909,10.627,3.527l-3.969,3.617c-0.927-0.441-1.454-0.576-2.47-0.576c-2.072,0-4.233,1.898-5.954,2.957
		c-1.94,1.146-2.645,1.278-4.895,1.278h-2.687c11.411,10.126,38.751,50.502,39.92,52.235l-0.682,0.46l-4.395,23.731
		c0,0,32.953,4.409,48.333-36.024c0,0,74.696-47.029,105.456-38.24c0,0,18.035,0.226-24.166-73.311c0,0-9.208,1.209-17.504-6.422
		v3.093h-9.085v26.461h-3.881V151.3h-9.041v-3.263h21.824c-8.82-8.268-16.521-26.647-10.875-67.295c0,0-98.865-2.194-160.381,52.729
		c0,0-103.315-14.479-145.955,47.308l-31.666-27.395l-1.078,1.246C42.319,73.166,125.21,12.635,224.093,12.635
		c115.877,0,209.815,83.118,209.815,185.646C433.908,284.315,367.76,356.67,278.013,377.729z M206.408,160.649v3.176h-11.555v10.716
		h12.878v3.22h-16.714v-29.724h16.053v3.22h-12.217v9.393H206.408z M229.784,169.603c0.971,4.145,1.677,7.011,2.294,8.158h-3.969
		c-0.486-0.839-1.147-3.396-1.985-7.1c-0.882-4.102-2.469-5.645-5.952-5.778h-3.617v12.878h-3.837v-29.327
		c1.94-0.396,4.718-0.617,7.365-0.617c4.101,0,6.747,0.75,8.6,2.425c1.499,1.324,2.336,3.352,2.336,5.645
		c0,3.927-2.468,6.528-5.6,7.586v0.134C227.712,164.398,229.08,166.515,229.784,169.603z M255.146,160.474v-12.437h3.615v29.724
		h-3.88l-9.438-15.083c-2.072-3.307-4.058-6.703-5.556-9.922l-0.134,0.044c0.221,3.749,0.309,7.321,0.309,12.26v12.701h-3.615
		v-29.724h4.188l9.525,15.038c2.207,3.484,3.925,6.615,5.336,9.658l0.089-0.045C255.234,168.721,255.146,165.104,255.146,160.474z
		 M316.325,160.649v3.176h-11.557v10.716h12.88v3.22h-16.716v-29.724h16.053v3.22h-12.217v9.393H316.325z M301.946,220.618
		l4.104-5.162c1.19-1.496,3.305-5.068,5.423-5.068c3.439,0,6.835,7.318,6.835,10.362c0,2.559-1.809,5.513-3.44,7.408l-11.244-4.85
		c-1.413,1.851-1.722,2.469-4.19,2.469h-3.53h-0.261h-4.106c-3.659,0-4.982-1.41-4.982-5.381v-19.625l3.354-4.188v22.534
		c0,1.982,0.393,2.424,2.073,2.424h3.662h0.261h3.354C300.533,221.542,301.106,221.632,301.946,220.618z M291.271,177.761
		l-0.75-13.054c-0.223-4.145-0.486-9.129-0.441-12.833h-0.135c-1.011,3.484-2.246,7.188-3.746,11.29l-5.249,14.42h-2.909
		l-4.809-14.156c-1.411-4.189-2.602-8.026-3.438-11.554h-0.089c-0.088,3.704-0.309,8.688-0.572,13.143l-0.795,12.744h-3.659
		l2.072-29.724h4.896l5.07,14.377c1.235,3.659,2.249,6.923,2.999,10.011h0.132c0.752-2.999,1.808-6.263,3.133-10.011l5.291-14.377
		h4.896l1.851,29.724H291.271z M265.026,209.106l1.719,1.722l2.074-1.722l2.688,2.735l-2.337,2.118l-1.763-1.768l-2.074,1.768
		l-2.689-2.781L265.026,209.106z M278.3,221.542c0.089-0.441,0.132-0.615,0.132-1.101c0-1.896-1.279-4.322-1.764-5.336l2.073-3.086
		c1.675,1.805,2.56,4.276,2.56,7.054c0,2.646-0.753,4.94-2.251,6.704h-17.287c-2.956,0-3.881-0.132-5.028-0.75
		c-1.587-0.837-2.557-2.777-2.557-5.072c0-2.291,0.529-4.895,1.366-6.526c0.133-0.219,0.309-0.351,0.485-0.351
		c0.176,0,0.31,0.174,0.31,0.44c0,1.101-0.354,2.205-0.354,3.396c0,1.896,0.707,3.44,1.897,4.145
		c0.704,0.396,1.499,0.483,4.233,0.483H278.3z M341.334,160.474v-12.437h3.614v29.724h-3.881l-9.436-15.083
		c-2.073-3.307-4.059-6.703-5.559-9.922l-0.132,0.044c0.223,3.749,0.309,7.321,0.309,12.26v12.701h-3.617v-29.724h4.19l9.526,15.038
		c2.204,3.484,3.926,6.615,5.336,9.658l0.09-0.045C341.422,168.721,341.334,165.104,341.334,160.474z M324.706,221.542h8.29
		l-5.117-8.6l1.854-3.263l5.822,10.057c0.927,1.587,1.322,1.806,2.999,1.806h0.042h3.579h0.261h7.501
		c2.382,0,3.704,0.045,5.819-1.101c1.104-0.618,1.985-1.104,3.176-1.455c-2.336-0.795-5.908-2.999-8.113-2.999
		c-1.764,0-2.78,2.117-3.53,2.117c-0.306,0-0.572-0.267-0.572-0.53c0-0.573,0.749-1.41,1.104-1.81
		c1.235-1.499,2.427-3.086,4.586-3.086c2.25,0,4.631,1.368,6.571,2.295c3.705,1.764,6.572,2.909,10.627,3.527l-3.968,3.617
		c-0.927-0.441-1.455-0.576-2.469-0.576c-2.072,0-4.235,1.898-5.954,2.957c-1.94,1.146-2.648,1.278-4.895,1.278h-9.883h-0.261
		h-3.138c-2.823,0-3.66-0.31-4.719-1.764l-0.795,1.764h-9.436c-2.205,0-3.132-0.705-3.132-2.469c0-1.017,0.441-2.162,1.278-3.53
		C322.369,221.323,322.678,221.542,324.706,221.542z M351.523,206.725l2.337-2.204l2.646,2.867l-2.337,2.073L351.523,206.725z"/>
	<path fill="#265691" d="M116.383,220.66c0.396,0,0.75-0.042,1.366-0.132l-1.455-6.481c-0.485,0.969-1.234,1.322-2.47,1.896
		l-2.116,1.014c-1.5,0.708-2.47,1.499-2.47,2.072C109.238,219.868,113.472,220.66,116.383,220.66z"/>
	<path fill="#265691" d="M162.562,220.486c0-1.854-1.897-6.308-4.057-6.308c-1.147,0-4.808,5.117-5.117,5.513l8.335,3.527
		C162.209,222.469,162.562,221.368,162.562,220.486z"/>
	<path fill="#265691" d="M174.824,216.341c-1.675,0-3.22,2.16-3.22,3.704c0,0.924,0.75,1.497,2.427,1.497h3.793
		C177.47,218.588,176.236,216.341,174.824,216.341z"/>
	<path fill="#265691" d="M222.952,225.468l-0.266,0.31h0.617C223.186,225.673,223.066,225.566,222.952,225.468z"/>
	<path fill="#265691" d="M227.183,156.328c0-3.838-2.777-5.513-6.836-5.558c-1.852,0-3.175,0.177-3.792,0.354v10.849h3.924
		C224.581,161.974,227.183,159.724,227.183,156.328z"/>
	<path fill="#265691" d="M147.833,175.115c6.086,0,9.526-5.602,9.526-12.349c0-5.91-3.088-12.083-9.482-12.083
		c-6.35,0-9.526,5.865-9.526,12.392C138.351,169.426,141.791,175.115,147.833,175.115z"/>
	<path fill="#265691" d="M315.086,220.486c0-1.854-1.896-6.308-4.055-6.308c-1.146,0-4.808,5.117-5.117,5.513l8.336,3.527
		C314.735,222.469,315.086,221.368,315.086,220.486z"/>
	<path fill="#265691" d="M262.542,278.473c-0.435-0.167-0.874-0.323-1.315-0.47c0.387,0.567,0.609,0.896,0.633,0.931
		L262.542,278.473z"/>
	<path fill="#265691" d="M370.084,148.037c0.061,0.057,0.122,0.113,0.183,0.17v-0.17H370.084z"/>
</g>
</svg>
