<?xml version="1.0" encoding="utf-8"?>
<!-- Generator: Adobe Illustrator 16.0.0, SVG Export Plug-In . SVG Version: 6.00 Build 0)  -->
<!DOCTYPE svg PUBLIC "-//W3C//DTD SVG 1.1//EN" "http://www.w3.org/Graphics/SVG/1.1/DTD/svg11.dtd">
<svg version="1.1" id="Layer_1" xmlns="http://www.w3.org/2000/svg" xmlns:xlink="http://www.w3.org/1999/xlink" x="0px" y="0px"
	 width="366.364px" height="345.737px" viewBox="0 0 366.364 345.737" enable-background="new 0 0 366.364 345.737"
	 xml:space="preserve">
<g>
	<g>
		<path fill-rule="evenodd" clip-rule="evenodd" fill="#265691" d="M189.675,296.119c0,15.518-0.002,31.036,0,46.555
			c0,2.919-0.604,3.396-3.456,2.887c-7.802-1.396-15.611-2.726-23.404-4.154c-9.412-1.726-18.799-3.562-28.211-5.275
			c-5.546-1.01-11.119-1.873-16.682-2.8c-4.998-0.837-10.006-1.645-14.999-2.522c-2.412-0.419-3.133-1.329-3.133-3.811
			c-0.01-18.312,0.011-36.617-0.021-54.926c-0.005-1.674,0.544-2.704,2.209-3.154c7.645-2.062,15.279-4.168,22.925-6.228
			c3.234-0.869,6.491-1.651,9.74-2.478c7.737-1.97,15.491-3.882,23.21-5.932c6.404-1.693,12.767-3.566,19.157-5.33
			c3.234-0.895,6.48-1.754,9.738-2.549c2.226-0.547,2.995,0.146,2.993,2.518c-0.018,15.157-0.039,30.318-0.058,45.483
			c0,0.569,0,1.143,0,1.716C189.682,296.119,189.68,296.119,189.675,296.119z"/>
	</g>
	<g>
		<path fill-rule="evenodd" clip-rule="evenodd" fill="#265691" d="M195.67,295.894c0-15.586,0.004-31.176-0.003-46.759
			c-0.001-2.526,1.149-3.299,3.555-2.433c7.649,2.752,15.32,5.438,22.958,8.216c4.748,1.729,9.421,3.666,14.181,5.35
			c4.835,1.709,9.758,3.166,14.604,4.85c3.162,1.094,6.258,2.395,9.381,3.602c1.529,0.592,2.16,1.709,2.158,3.337
			c-0.016,18.302,0.003,36.611-0.02,54.913c-0.005,2.745-1.081,3.64-3.821,4.268c-7.987,1.812-15.938,3.798-23.917,5.661
			c-4.373,1.017-8.783,1.879-13.159,2.89c-4.308,0.998-8.595,2.082-12.883,3.15c-3.251,0.809-6.472,1.738-9.739,2.469
			c-2.513,0.554-3.232-0.157-3.232-2.748c0.006-15.586,0.002-31.176,0.002-46.765C195.712,295.894,195.691,295.894,195.67,295.894z"
			/>
	</g>
	<g>
		<path fill-rule="evenodd" clip-rule="evenodd" fill="#265691" d="M189.65,222.076c0,4.862-0.039,9.726,0.018,14.585
			c0.023,2.188-0.91,3.138-3.101,3.508c-3.225,0.547-6.401,1.419-9.564,2.275c-9.092,2.452-18.149,5.03-27.251,7.44
			c-6.615,1.748-13.294,3.261-19.918,4.985c-6.418,1.667-12.802,3.466-19.2,5.214c-2.814,0.769-5.614,1.586-8.438,2.32
			c-1.675,0.435-2.52-0.352-2.528-2.439c-0.011-3.785,0.076-7.572,0.106-11.357c0.024-2.571,0.052-5.149,0.016-7.724
			c-0.021-1.558,0.586-2.469,2.106-3.045c6.401-2.433,12.749-5.008,19.141-7.466c8.126-3.129,16.281-6.18,24.411-9.291
			c7.996-3.061,15.969-6.18,23.963-9.24c4.733-1.812,9.491-3.553,14.232-5.342c0.933-0.352,1.856-0.744,2.744-1.197
			c2.33-1.185,3.385-0.57,3.378,1.979c-0.011,4.931-0.003,9.864-0.003,14.795C189.725,222.076,189.686,222.076,189.65,222.076z"/>
	</g>
	<g>
		<path fill-rule="evenodd" clip-rule="evenodd" fill="#265691" d="M195.739,222.051c0-5.012-0.011-10.02,0.003-15.023
			c0.007-2.111,1.045-2.674,2.883-1.699c6.179,3.27,12.381,6.508,18.57,9.758c8.475,4.444,16.927,8.931,25.423,13.34
			c4.934,2.564,9.938,4.988,14.89,7.521c1.332,0.683,2.698,1.378,3.836,2.324c0.613,0.512,1.083,1.561,1.093,2.372
			c0.079,6.217,0.089,12.438-0.005,18.652c-0.043,2.891-0.953,3.219-3.684,2.195c-4.801-1.796-9.688-3.36-14.531-5.053
			c-2.156-0.747-4.294-1.558-6.438-2.343c-6.551-2.407-13.077-4.879-19.657-7.209c-4.969-1.757-10.014-3.312-15.009-4.998
			c-1.962-0.66-3.985-1.255-5.771-2.256c-0.771-0.435-1.395-1.809-1.424-2.777c-0.142-4.931-0.064-9.87-0.064-14.804
			C195.814,222.051,195.776,222.051,195.739,222.051z"/>
	</g>
	<g>
		<path fill-rule="evenodd" clip-rule="evenodd" fill="#265691" d="M51.97,169.699c0,9.935,0.013,19.866-0.006,29.801
			c-0.006,2.909-0.523,3.27-3.447,3.176c-2.927-0.1-5.859,0.014-8.789-0.055c-2.835-0.063-3.333-0.698-3.329-3.453
			c0.029-19.586,0.034-39.172,0.037-58.762c0-3.82,0.396-4.184,4.14-4.084c2.785,0.077,5.576-0.042,8.361-0.007
			c2.324,0.032,2.966,0.634,2.971,2.941c0.03,10.147,0.015,20.298,0.015,30.442C51.938,169.699,51.954,169.699,51.97,169.699z"/>
	</g>
	<g>
		<path fill-rule="evenodd" clip-rule="evenodd" fill="#265691" d="M329.656,169.676c0,10.006,0.012,20.018-0.008,30.023
			c-0.008,2.672-0.576,3.064-3.196,2.971c-3.068-0.109-6.142-0.029-9.214-0.055c-2.582-0.022-3.148-0.608-3.15-3.17
			c-0.005-19.657-0.011-39.317-0.011-58.972c0-3.724,0.41-4.129,4.231-4.126c2.715,0,5.433,0.045,8.147,0.049
			c2.778,0.006,3.198,0.383,3.202,3.253c0.018,10.006,0.008,20.021,0.008,30.026C329.661,169.676,329.659,169.676,329.656,169.676z"
			/>
	</g>
	<g>
		<path fill-rule="evenodd" clip-rule="evenodd" fill="#265691" d="M322.514,338.941c-10.567,0-21.137,0-31.703,0
			c-2.425,0-4.851,0.061-7.271-0.026c-0.695-0.029-1.376-0.482-2.064-0.737c0.295-0.753,0.385-1.712,0.914-2.214
			c3.218-3.038,6.559-5.947,9.811-8.953c2.829-2.616,5.539-5.378,8.418-7.939c2.064-1.841,2.75-1.719,4.66,0.189
			c4.45,4.441,8.899,8.883,13.36,13.314c0.761,0.753,1.582,1.448,2.387,2.149c1.988,1.741,2.677,1.722,4.78,0.022
			c6.216-5.023,12.45-10.024,18.668-15.052c1.139-0.92,2.117-0.859,3.215,0.146c5.786,5.313,11.636,10.556,17.392,15.897
			c0.648,0.605,0.865,1.677,1.284,2.53c-0.847,0.174-1.688,0.466-2.54,0.492c-3.422,0.103-6.85,0.171-10.278,0.174
			C343.202,338.954,332.858,338.941,322.514,338.941z"/>
	</g>
	<g>
		<path fill-rule="evenodd" clip-rule="evenodd" fill="#265691" d="M81.982,338.963c-12.503,0-25.006,0.036-37.509-0.016
			c-7.714-0.025-15.427-0.254-23.14-0.261c-6.216-0.01-12.432,0.216-18.65,0.248c-0.893,0.003-1.789-0.512-2.684-0.782
			c0.454-0.901,0.701-2.021,1.395-2.661c5.514-5.095,11.143-10.063,16.661-15.152c1.461-1.348,2.474-1.573,4.168-0.167
			c6.206,5.159,12.591,10.105,18.88,15.171c1.149,0.924,2.271,0.931,3.304,0.048c1.678-1.429,3.286-2.957,4.861-4.505
			c4.084-4.007,8.149-8.033,12.194-12.075c1.451-1.455,2.666-1.133,4.048,0.167c5.936,5.587,11.948,11.091,17.861,16.7
			c0.682,0.641,0.919,1.757,1.361,2.648c-0.88,0.331-1.762,0.663-2.642,0.998C82.054,339.201,82.017,339.082,81.982,338.963z"/>
	</g>
	<g>
		<path fill-rule="evenodd" clip-rule="evenodd" fill="#265691" d="M42.632,249.013c10.652,0,21.301-0.016,31.954,0.007
			c2.298,0.006,2.89,0.663,2.89,2.983c0,8.151-0.003,16.304-0.03,24.455c-0.008,2.954-0.359,3.425-3.295,3.476
			c-4.929,0.091-9.861-0.038-14.79-0.01c-7.792,0.046-15.582,0.184-23.373,0.21c-8.362,0.028-16.724-0.036-25.088-0.046
			c-2.73-0.006-3.262-0.508-3.253-3.201c0.014-4.148,0.051-8.297,0.051-12.442c-0.001-4.074-0.042-8.151-0.058-12.229
			c-0.011-2.719,0.537-3.272,3.246-3.272c10.582-0.004,21.165-0.004,31.747-0.004C42.632,248.965,42.632,248.99,42.632,249.013z
			 M43.091,276.616c0-0.02,0-0.039,0-0.055c4.076,0,8.15-0.026,12.225,0.013c1.598,0.013,2.193-0.837,2.195-2.266
			c0.008-6.366,0.005-12.729-0.013-19.094c-0.004-1.574-0.79-2.282-2.426-2.282c-7.933,0.003-15.869-0.062-23.802-0.097
			c-2.406-0.013-3.044,0.625-3.046,3.045c-0.009,5.796-0.006,11.589-0.008,17.382c-0.001,2.571,0.798,3.363,3.295,3.356
			C35.369,276.604,39.229,276.616,43.091,276.616z M11.888,264.548c0.018,0,0.034,0,0.05,0c0,3.141-0.003,6.285,0,9.429
			c0.005,1.88,0.923,2.707,2.821,2.627c2.282-0.097,4.568-0.106,6.852-0.088c1.87,0.02,2.786-0.84,2.784-2.709
			c-0.005-6.073-0.006-12.149,0.005-18.219c0.001-1.68-0.825-2.536-2.478-2.553c-2.354-0.028-4.71-0.035-7.065,0.004
			c-2.325,0.038-2.927,0.627-2.959,2.935C11.859,258.832,11.888,261.689,11.888,264.548z M73.439,264.827c-0.005,0-0.008,0-0.013,0
			c0-3.073-0.008-6.146,0.003-9.217c0.003-1.835-0.814-2.79-2.729-2.755c-2.283,0.039-4.57,0-6.855-0.003
			c-1.607-0.007-2.365,0.862-2.369,2.397c-0.013,6.218-0.01,12.436,0.002,18.656c0.001,1.973,1.023,2.832,2.98,2.735
			c2.071-0.1,4.146-0.196,6.216-0.142c2.069,0.049,2.805-0.949,2.776-2.88C73.407,270.688,73.439,267.756,73.439,264.827z"/>
	</g>
	<g>
		<path fill-rule="evenodd" clip-rule="evenodd" fill="#265691" d="M323.716,248.913c10.652,0,21.303,0.01,31.954-0.01
			c2.042-0.003,2.803,1.113,2.808,2.974c0.016,4.071,0.007,8.148,0.037,12.217c0.034,4.148,0.119,8.297,0.147,12.445
			c0.02,2.761-0.627,3.494-3.369,3.514c-8.575,0.062-17.151,0.064-25.73,0.059c-12.585-0.017-25.166-0.081-37.751-0.071
			c-2.034,0-2.882-0.934-2.869-2.854c0.042-7.435,0.087-14.871,0.132-22.309c0.001-0.354,0.027-0.712,0.02-1.072
			c-0.131-4.798,0.064-4.953,4.808-4.937c9.938,0.028,19.876,0.01,29.814,0.01C323.716,248.891,323.716,248.9,323.716,248.913z
			 M323.232,276.564c0-0.016,0-0.025,0-0.042c3.859,0,7.72-0.087,11.571,0.035c1.93,0.062,2.876-0.694,2.889-2.542
			c0.04-6.221,0.047-12.436,0.025-18.656c-0.003-1.516-0.786-2.4-2.391-2.404c-7.932,0-15.863-0.006-23.793-0.01
			c-1.645-0.003-2.611,0.837-2.623,2.462c-0.037,6.218-0.025,12.438,0.024,18.656c0.013,1.696,0.889,2.562,2.728,2.523
			C315.519,276.507,319.377,276.564,323.232,276.564z M354.147,264.854c0.01,0,0.018,0,0.027,0c0-3.003-0.012-6.002,0.005-9.008
			c0.01-1.771-0.737-2.971-2.589-3.003c-2.494-0.045-4.988,0.077-7.482,0.174c-1.651,0.064-2.462,1.014-2.464,2.632
			c-0.003,6.076,0.011,12.149,0.018,18.226c0.002,1.737,0.853,2.671,2.606,2.7c2.215,0.029,4.429,0.016,6.645,0.035
			c2.418,0.022,3.188-0.688,3.225-3.183C354.18,270.568,354.147,267.711,354.147,264.854z M304.993,264.812c0.008,0,0.017,0,0.024,0
			c0-2.717-0.01-5.436,0.001-8.148c0.014-3.058-0.453-3.592-3.578-3.74c-1.783-0.087-3.574-0.064-5.357-0.042
			c-2.264,0.026-3.19,0.805-3.228,3.067c-0.094,6.002-0.079,12.007-0.085,18.006c0,1.532,0.791,2.43,2.344,2.504
			c2.213,0.104,4.431,0.223,6.642,0.187c2.472-0.038,3.183-0.785,3.225-3.253C305.03,270.53,304.993,267.669,304.993,264.812z"/>
	</g>
	<g>
		<path fill-rule="evenodd" clip-rule="evenodd" fill="#265691" d="M323.371,288.777c10.225,0,20.455-0.016,30.68,0.029
			c0.768,0.003,1.537,0.46,2.305,0.701c-0.374,0.795-0.568,1.761-1.145,2.354c-2.182,2.262-4.392,4.521-6.799,6.532
			c-1.049,0.879-2.594,1.616-3.923,1.629c-14.305,0.139-28.61,0.157-42.917,0.077c-1.205-0.007-2.639-0.691-3.564-1.516
			c-2.345-2.082-4.511-4.384-6.633-6.704c-0.555-0.604-0.691-1.593-1.021-2.4c0.777-0.226,1.553-0.641,2.331-0.644
			c10.228-0.049,20.457-0.032,30.687-0.032C323.371,288.791,323.371,288.784,323.371,288.777z"/>
	</g>
	<g>
		<path fill-rule="evenodd" clip-rule="evenodd" fill="#265691" d="M42.88,288.777c9.93,0,19.86,0,29.792,0
			c0.43,0,0.888-0.103,1.281,0.014c0.628,0.189,1.56,0.386,1.727,0.826c0.201,0.519-0.071,1.494-0.491,1.932
			c-2.581,2.661-5.21,5.284-7.949,7.788c-0.597,0.544-1.702,0.747-2.573,0.747c-14.433,0.038-28.865,0.051-43.295-0.049
			c-1.155-0.01-2.531-0.596-3.41-1.367c-2.468-2.16-4.77-4.513-7.04-6.888c-0.517-0.537-0.645-1.454-0.954-2.194
			c0.686-0.277,1.366-0.789,2.052-0.795c10.287-0.052,20.576-0.036,30.861-0.036C42.88,288.762,42.88,288.768,42.88,288.777z"/>
	</g>
	<g>
		<path fill-rule="evenodd" clip-rule="evenodd" fill="#265691" d="M42.309,23.558c-2.328-0.509-4.667-0.986-6.988-1.539
			c-0.611-0.145-1.295-0.378-1.727-0.793c-0.462-0.444-0.665-1.158-0.98-1.754c0.602-0.258,1.188-0.668,1.813-0.743
			c2.381-0.296,4.811-0.306,7.159-0.752c3.424-0.653,5.069-3.387,5.996-6.345c0.964-3.076,0.471-6.219-0.908-9.182
			c-0.304-0.655-0.439-1.386-0.74-2.373c0.793,0.12,1.257,0.062,1.561,0.254c5.593,3.58,7.764,8.562,5.804,14.87
			c-0.714,2.296-3.026,4.24-4.954,5.963c-1.305,1.169-1.907,1.855-1.484,3.824c0.56,2.602,0.317,5.401,0.219,8.109
			c-0.114,3.172,0.245,6.057,2.587,8.518c1.417,1.485,2.272,3.522,3.743,4.943c3.26,3.136,2.195,7.165,2.547,10.882
			c0.128,1.363-0.979,2.178-2.411,2.184c-5.931,0.013-11.861,0.013-17.794,0.007c-1.585,0-2.338-0.869-2.409-2.396
			c-0.2-4.418-0.052-8.666,3.574-12.036c1.596-1.488,2.834-3.408,4.028-5.262c0.671-1.043,1.258-2.348,1.302-3.55
			C42.402,32.063,42.309,27.731,42.309,23.558z"/>
	</g>
	<g>
		<path fill-rule="evenodd" clip-rule="evenodd" fill="#265691" d="M320.405,0c-0.576,1.805-0.823,3.148-1.409,4.33
			c-3.539,7.15,2.075,14.931,10.479,14.527c0.787-0.037,1.58-0.225,2.35-0.136c0.64,0.072,1.25,0.439,1.873,0.678
			c-0.407,0.705-0.658,1.788-1.256,2.035c-1.69,0.703-3.501,1.352-5.307,1.497c-3.569,0.289-3.556,0.143-3.476,3.789
			c0.062,2.854-0.213,5.748,0.154,8.556c0.245,1.886,1.189,3.74,2.116,5.45c0.771,1.423,1.858,2.725,2.999,3.888
			c3.368,3.447,4.622,7.5,4.207,12.27c-0.184,2.071-1.154,2.76-2.998,2.753c-4.72,0-9.441,0.033-14.159-0.028
			c-5.336-0.062-5.299-0.1-5.836-5.396c-0.266-2.641,0.426-4.892,2.079-6.976c2.174-2.74,4.269-5.545,6.25-8.427
			c0.56-0.816,0.796-1.984,0.848-3.008c0.201-4.052,0.367-8.116,0.308-12.173c-0.015-0.825-0.892-1.972-1.679-2.399
			c-3.316-1.799-4.821-4.658-5.599-8.184c-0.938-4.237,2.118-10.758,6.053-12.504C318.833,0.352,319.319,0.287,320.405,0z"/>
	</g>
	<g>
		<path fill-rule="evenodd" clip-rule="evenodd" fill="#265691" d="M41.964,245.09c-10.939,0-21.876,0.013-32.813-0.035
			c-0.739-0.004-1.476-0.509-2.214-0.782c0.456-0.663,0.768-1.522,1.382-1.957c2.679-1.901,5.384-3.778,8.205-5.455
			c1.164-0.691,2.642-1.19,3.979-1.197c15.089-0.08,30.173-0.032,45.262-0.063c1.958-0.007,3.609,0.45,5.077,1.818
			c1.67,1.557,3.543,2.896,5.209,4.46c0.642,0.602,0.953,1.555,1.413,2.347c-0.827,0.276-1.652,0.785-2.479,0.788
			c-6.075,0.025-12.152-0.062-18.229-0.084c-4.93-0.02-9.862-0.003-14.791-0.003C41.964,244.978,41.964,245.035,41.964,245.09z"/>
	</g>
	<g>
		<path fill-rule="evenodd" clip-rule="evenodd" fill="#265691" d="M323.775,245.087c-11.074,0-22.15,0.013-33.225-0.029
			c-0.634,0-1.265-0.422-1.898-0.653c0.272-0.679,0.36-1.551,0.844-2.002c2.093-1.938,4.229-3.852,6.507-5.564
			c0.901-0.672,2.213-1.116,3.337-1.123c15.585-0.067,31.171-0.07,46.756,0.017c1.33,0.013,2.79,0.595,3.956,1.3
			c2.622,1.587,5.132,3.366,7.61,5.175c0.609,0.447,0.918,1.304,1.367,1.973c-0.741,0.268-1.483,0.77-2.229,0.772
			c-11.008,0.049-22.016,0.035-33.025,0.035C323.775,245.02,323.775,245.051,323.775,245.087z"/>
	</g>
	<g>
		<path fill-rule="evenodd" clip-rule="evenodd" fill="#265691" d="M341.438,169.576c0,9.936,0,19.863,0,29.798
			c0,2.858-0.377,3.241-3.187,3.225c-4.678-0.032-4.705-0.032-4.705-4.711c0.004-19.297,0.005-38.591,0.092-57.887
			c0.005-1.149,0.576-3.151,1.177-3.271c1.874-0.37,3.925-0.209,5.821,0.171c0.439,0.094,0.749,1.87,0.757,2.874
			c0.055,9.935,0.032,19.869,0.032,29.801C341.431,169.576,341.436,169.576,341.438,169.576z"/>
	</g>
	<g>
		<path fill-rule="evenodd" clip-rule="evenodd" fill="#265691" d="M24.84,169.683c0-9.935,0-19.876,0.002-29.813
			c0-2.833,0.712-3.554,3.532-3.592c3.339-0.042,4.187,0.656,4.19,3.623c0.014,19.667,0.016,39.331,0.001,58.998
			c0,1.312,0.375,3.15-1.34,3.434c-1.815,0.303-3.78-0.022-5.624-0.367c-0.375-0.07-0.708-1.461-0.713-2.246
			c-0.046-10.012-0.032-20.021-0.032-30.036C24.853,169.683,24.846,169.683,24.84,169.683z"/>
	</g>
	<g>
		<path fill-rule="evenodd" clip-rule="evenodd" fill="#265691" d="M63.536,169.471c0,10.082-0.004,20.165,0.005,30.248
			c0.002,1.776-0.354,3.07-2.597,3.025c-4.188-0.084-4.781-0.373-4.806-3.105c-0.111-13.228-0.253-26.451-0.28-39.675
			c-0.011-6.853,0.193-13.71,0.309-20.565c0.042-2.465,0.589-2.999,3.054-3.044c0.573-0.013,1.149,0.045,1.717-0.01
			c1.992-0.193,2.665,0.782,2.642,2.668c-0.119,8.937-0.183,17.874-0.264,26.808c-0.011,1.224,0,2.437,0,3.65
			C63.388,169.471,63.464,169.471,63.536,169.471z"/>
	</g>
	<g>
		<path fill-rule="evenodd" clip-rule="evenodd" fill="#265691" d="M302.854,187.917c0-4.914,0.061-9.835-0.034-14.749
			c-0.029-1.474-0.726-2.938-0.711-4.399c0.078-9.838,0.251-19.677,0.431-29.515c0.045-2.417,0.861-2.983,3.896-2.961
			c2.612,0.022,3.381,0.634,3.393,3.013c0.028,5.573,0.003,11.147-0.052,16.719c-0.052,5.394-0.258,10.791-0.238,16.178
			c0.034,9.121,0.196,18.241,0.3,27.362c0.028,2.404-0.626,3.157-2.704,3.163c-4.045,0.013-4.671-0.421-4.668-3.231
			c0.007-3.858,0.002-7.717,0.002-11.575C302.598,187.921,302.725,187.917,302.854,187.917z"/>
	</g>
	<g>
		<path fill-rule="evenodd" clip-rule="evenodd" fill="#265691" d="M322.77,109.289c-7.358,0-14.719,0-22.076,0
			c-0.43,0-0.859-0.004-1.289-0.023c-3.561-0.183-4.045-0.634-4.104-4.212c-0.057-3.505-0.06-7.007-0.003-10.511
			c0.041-2.727,0.939-3.596,3.65-3.589c11.713,0.055,23.426,0.161,35.139,0.193c4.073,0.01,8.145-0.177,12.219-0.184
			c3.422-0.01,4.286,1.068,4.159,4.412c-0.114,2.919-0.04,5.854,0.024,8.776c0.093,4.393-0.427,5.021-4.785,5.046
			c-7.646,0.036-15.289,0.007-22.934,0.007C322.77,109.234,322.77,109.263,322.77,109.289z M322.808,106.708
			c0,0.038,0,0.073,0,0.112c2.784,0,5.567-0.02,8.35,0.01c1.612,0.016,2.636-0.566,2.646-2.324c0.012-2.783,0.082-5.567-0.013-8.354
			c-0.056-1.715-0.975-2.777-2.854-2.768c-5.424,0.032-10.851,0.013-16.278,0.074c-2.14,0.032-2.872,0.872-2.88,3.093
			c-0.01,2.568,0.07,5.137,0.024,7.708c-0.032,1.731,0.738,2.478,2.439,2.458C317.096,106.686,319.953,106.708,322.808,106.708z
			 M309.077,100.413c0-1.42,0.062-3-0.02-4.563c-0.079-1.475-0.785-2.398-2.435-2.369c-1.643,0.032-3.289-0.106-4.932-0.048
			c-2.546,0.08-3.544,1.068-3.56,3.546c-0.015,2.571,0.011,5.149,0.185,7.715c0.042,0.64,0.707,1.747,1.12,1.767
			c2.903,0.125,6.038,0.676,8.651-0.213C310.228,105.517,308.659,102.511,309.077,100.413z M347.344,100.65c0.037,0,0.071,0,0.109,0
			c0-1.352,0.072-2.713-0.016-4.061c-0.168-2.54-0.937-3.177-3.505-3.135c-1.068,0.02-2.139-0.004-3.207-0.02
			c-2.469-0.042-3.379,0.763-3.424,3.25c-0.046,2.64,0.025,5.278,0.038,7.917c0.012,1.642,0.896,2.282,2.456,2.247
			c1.707-0.042,3.421-0.062,5.131-0.032c1.603,0.025,2.392-0.734,2.412-2.312C347.356,103.223,347.344,101.938,347.344,100.65z"/>
	</g>
	<g>
		<path fill-rule="evenodd" clip-rule="evenodd" fill="#265691" d="M43.014,109.138c-8.068,0-16.138,0.061-24.207-0.032
			c-2.877-0.035-3.175-0.512-3.173-3.334c0.001-3.855-0.078-7.718,0.067-11.57c0.104-2.765,0.689-3.192,3.412-3.199
			c10.279-0.038,20.558-0.08,30.837-0.083c5.563,0,11.129,0.035,16.693,0.116c3.508,0.051,3.703,0.283,3.725,3.855
			c0.022,3.501,0.015,7.002,0.021,10.504c0.003,3.421-0.372,3.811-3.806,3.816c-7.857,0.01-15.715,0-23.57,0
			C43.014,109.188,43.014,109.163,43.014,109.138z M42.979,106.714c0,0.017,0,0.035,0,0.055c2.859,0,5.721,0.01,8.58,0
			c1.405-0.006,2.663-0.318,2.669-2.057c0.013-2.857-0.008-5.719-0.145-8.573c-0.068-1.458-0.694-2.681-2.449-2.681
			c-5.433-0.01-10.863-0.048-16.294,0.038c-2.412,0.039-3.215,0.956-3.244,3.306c-0.031,2.504,0.056,5.008,0.011,7.512
			c-0.032,1.77,0.846,2.427,2.505,2.41C37.404,106.694,40.193,106.714,42.979,106.714z M18.659,100.165c0.013,0,0.024,0,0.037,0
			c0,1.358,0.047,2.716-0.011,4.071c-0.068,1.618,0.748,2.458,2.259,2.52c2.071,0.084,4.165,0.171,6.208-0.07
			c0.709-0.091,1.802-1.12,1.86-1.79c0.235-2.842,0.216-5.712,0.153-8.566c-0.04-1.854-1.075-2.891-3.01-2.878
			c-1.503,0.007-3.004,0.007-4.504-0.016c-1.964-0.035-2.898,1.004-2.98,2.871C18.613,97.594,18.659,98.878,18.659,100.165z
			 M57.372,100.558c0,1.28,0.003,2.571,0,3.855c0,1.715,0.904,2.439,2.563,2.417c1.785-0.022,3.571,0,5.354,0.01
			c1.567,0.006,2.433-0.757,2.438-2.334c0.005-2.713,0.015-5.429-0.097-8.142c-0.076-1.899-0.949-2.958-3.112-2.919
			C57.724,93.558,57.267,92.399,57.372,100.558z"/>
	</g>
	<g>
		<path fill-rule="evenodd" clip-rule="evenodd" fill="#265691" d="M43.675,217.2c-7.65,0-15.3,0.026-22.949-0.035
			c-0.832-0.003-1.663-0.496-2.494-0.76c0.378-0.724,0.711-1.474,1.142-2.163c2.755-4.386,6.654-5.521,11.795-5.303
			c9.919,0.421,19.87,0.103,29.805,0.028c2.029-0.016,3.582,0.569,4.735,2.32c0.781,1.188,1.844,2.183,2.679,3.341
			c0.383,0.524,0.521,1.227,0.77,1.854c-0.629,0.223-1.262,0.631-1.896,0.634c-7.861,0.046-15.725,0.029-23.587,0.029
			C43.675,217.165,43.675,217.185,43.675,217.2z"/>
	</g>
	<g>
		<path fill-rule="evenodd" clip-rule="evenodd" fill="#265691" d="M322.517,217.188c-7.654,0-15.308,0.029-22.961-0.042
			c-0.806-0.007-1.607-0.604-2.41-0.927c0.34-0.728,0.674-1.455,1.024-2.176c0.061-0.122,0.238-0.18,0.3-0.299
			c2.486-4.734,6.695-4.886,11.368-4.764c9.723,0.261,19.456,0.158,29.184,0.074c2.251-0.02,4.032,0.377,5.324,2.395
			c0.686,1.068,1.764,1.88,2.533,2.903c0.433,0.572,0.601,1.345,0.889,2.027c-0.692,0.271-1.38,0.766-2.078,0.782
			c-3.358,0.083-6.72,0.038-10.082,0.038c-4.364,0-8.726,0-13.091,0C322.517,217.197,322.517,217.19,322.517,217.188z"/>
	</g>
	<g>
		<path fill-rule="evenodd" clip-rule="evenodd" fill="#265691" d="M42.611,86.375c-7.212,0-14.428,0-21.64-0.004
			c-0.5,0-1.038,0.081-1.487-0.074c-0.488-0.174-0.893-0.585-1.331-0.891c0.319-0.419,0.547-1.014,0.972-1.239
			c3.601-1.893,7.209-3.778,10.884-5.522c0.988-0.47,2.208-0.625,3.323-0.631c7.857-0.025,15.72-0.116,23.565,0.167
			c1.803,0.064,3.593,1.423,5.32,2.317c2.153,1.117,4.256,2.33,6.334,3.585c0.475,0.286,0.759,0.892,1.131,1.352
			c-0.528,0.31-1.047,0.866-1.583,0.876c-1.849,0.055-3.704-0.132-5.556-0.142c-6.643-0.022-13.287-0.007-19.932-0.007
			C42.611,86.229,42.611,86.304,42.611,86.375z"/>
	</g>
	<g>
		<path fill-rule="evenodd" clip-rule="evenodd" fill="#265691" d="M322.293,86.339c-7.649,0-15.301,0-22.951-0.009
			c-0.568,0-1.172,0.009-1.694-0.174c-1.08-0.377-1.464-1.246-0.348-1.822c5.421-2.79,10.138-7.035,17.078-6.379
			c6.235,0.6,12.588-0.112,18.862,0.232c2.422,0.132,4.825,1.464,7.141,2.472c2.156,0.93,4.216,2.107,6.263,3.276
			c0.599,0.341,1.015,1.014,1.51,1.531c-0.684,0.277-1.364,0.792-2.052,0.795c-6.218,0.035-12.438-0.022-18.659-0.045
			c-1.717-0.01-3.433,0-5.149,0C322.293,86.252,322.293,86.297,322.293,86.339z"/>
	</g>
	<g>
		<path fill-rule="evenodd" clip-rule="evenodd" fill="#265691" d="M322.472,117.231c7.713,0,15.425-0.029,23.138,0.032
			c0.84,0.01,1.672,0.495,2.505,0.763c-0.381,0.788-0.661,1.642-1.173,2.33c-0.631,0.853-1.329,1.792-2.226,2.288
			c-1.488,0.834-3.146,1.863-4.756,1.902c-6.985,0.183-13.985,0.019-20.976,0c-4.496-0.01-8.993,0.128-13.479-0.046
			c-1.245-0.048-2.551-0.827-3.664-1.534c-1.376-0.869-2.629-1.97-3.835-3.077c-0.51-0.47-0.761-1.217-1.131-1.838
			c0.679-0.28,1.356-0.795,2.035-0.801c7.854-0.055,15.709-0.032,23.56-0.032C322.47,117.219,322.472,117.225,322.472,117.231z"/>
	</g>
	<g>
		<path fill-rule="evenodd" clip-rule="evenodd" fill="#265691" d="M42.603,117.132c8.216,0,16.436-0.013,24.654,0.025
			c0.642,0.007,1.286,0.396,1.929,0.611c-0.299,0.647-0.447,1.458-0.928,1.922c-1.389,1.329-2.812,2.674-4.417,3.71
			c-1.08,0.695-2.486,1.239-3.749,1.252c-10.643,0.084-21.297-0.199-31.929,0.129c-4.684,0.145-7.18-2.478-9.74-5.487
			c-0.262-0.309-0.378-1.206-0.211-1.322c0.536-0.37,1.237-0.695,1.876-0.698c2.928-0.029,5.86,0.09,8.789,0.105
			c4.575,0.023,9.151,0.007,13.726,0.007C42.603,117.299,42.603,117.215,42.603,117.132z"/>
	</g>
	<g>
		<path fill-rule="evenodd" clip-rule="evenodd" fill="#265691" d="M323.438,223.132c5.15,0,10.301,0.045,15.454-0.026
			c1.859-0.025,2.634,0.767,2.558,2.559c-0.03,0.718,0.027,1.436,0.002,2.15c-0.047,1.448-0.745,2.249-2.264,2.249
			c-10.518,0-21.033,0.003-31.551,0.017c-1.485,0-2.256-0.757-2.365-2.198c-0.053-0.711-0.002-1.433-0.032-2.144
			c-0.082-1.925,0.85-2.674,2.747-2.655c5.147,0.062,10.3,0.022,15.451,0.022C323.438,223.115,323.438,223.122,323.438,223.132z"/>
	</g>
	<g>
		<path fill-rule="evenodd" clip-rule="evenodd" fill="#265691" d="M43.268,223.055c4.998,0,9.993-0.02,14.991,0.01
			c2.57,0.016,2.985,0.56,2.976,3.511c-0.008,2.89-0.465,3.45-3.062,3.46c-10.063,0.022-20.128,0.025-30.192,0
			c-2.697-0.004-3.168-0.68-3.145-4.084c0.018-2.218,0.742-2.903,3.231-2.913c5.065-0.022,10.134-0.006,15.201-0.006
			C43.268,223.038,43.268,223.048,43.268,223.055z"/>
	</g>
	<g>
		<path fill-rule="evenodd" clip-rule="evenodd" fill="#265691" d="M28.723,316.831c8.456,0,16.222,0,23.991,0.004
			c0.711,0,1.438-0.059,2.135,0.058c1.572,0.254,2.007,1.255,0.938,2.372c-3.696,3.865-7.444,7.682-11.215,11.476
			c-1.065,1.072-2.247,1.05-3.423,0.017c-4.288-3.769-8.619-7.482-12.875-11.276c-0.494-0.444-1.037-1.442-0.85-1.877
			C27.648,317.079,28.631,316.877,28.723,316.831z"/>
	</g>
	<g>
		<path fill-rule="evenodd" clip-rule="evenodd" fill="#265691" d="M324.427,316.86c4.277,0,8.558-0.025,12.834,0.025
			c0.559,0.01,1.11,0.432,1.669,0.66c-0.23,0.547-0.311,1.259-0.708,1.615c-4.359,3.897-8.747,7.757-13.166,11.586
			c-1.106,0.956-2.388,1.03-3.471-0.058c-3.823-3.843-7.621-7.711-11.382-11.615c-0.334-0.348-0.629-1.242-0.44-1.471
			c0.335-0.402,1.051-0.682,1.612-0.686c4.35-0.055,8.7-0.032,13.052-0.032C324.427,316.877,324.427,316.867,324.427,316.86z"/>
	</g>
	<g>
		<path fill-rule="evenodd" clip-rule="evenodd" fill="#265691" d="M323.157,306.311c6.081,0,12.16-0.013,18.241,0.007
			c2.906,0.007,3.811,0.659,3.751,2.597c-0.062,2.034-1.194,2.894-3.924,2.868c-5.855-0.052-11.709-0.178-17.563-0.184
			c-6.573-0.01-13.145,0.064-19.713,0.129c-1.815,0.016-2.864-0.953-2.966-2.891c-0.097-1.851,0.935-2.571,2.648-2.571
			c6.507,0,13.017,0,19.525,0C323.157,306.282,323.157,306.298,323.157,306.311z"/>
	</g>
	<g>
		<path fill-rule="evenodd" clip-rule="evenodd" fill="#265691" d="M43.702,306.311c6.356,0,12.714,0.014,19.07-0.01
			c1.551-0.006,2.708,0.352,2.735,2.192c0.029,1.956-0.88,3.044-2.735,3.048c-9.428,0.028-18.856,0.019-28.284,0.028
			c-3.424,0-6.85-0.013-10.272,0.035c-2.013,0.036-2.814-0.685-2.887-2.777c-0.066-1.851,0.945-2.552,2.662-2.552
			c6.57,0.007,13.14,0.003,19.712,0.003C43.702,306.288,43.702,306.298,43.702,306.311z"/>
	</g>
	<g>
		<path fill-rule="evenodd" clip-rule="evenodd" fill="#265691" d="M321.564,71.97c-3.006,0-6.009-0.032-9.014,0.013
			c-1.829,0.02-2.867-0.75-2.904-2.626c-0.033-1.809,0.644-3.122,2.668-3.154c3.574-0.063,7.148-0.058,10.722-0.077
			c2.432-0.013,4.864-0.006,7.296-0.032c2.623-0.025,4.188,1.828,3.259,4.277c-0.288,0.763-1.671,1.503-2.591,1.561
			c-3.138,0.193-6.29,0.071-9.436,0.071C321.564,71.992,321.564,71.982,321.564,71.97z"/>
	</g>
	<g>
		<path fill-rule="evenodd" clip-rule="evenodd" fill="#265691" d="M44.397,71.982c-2.934,0-5.864,0.007-8.797,0
			c-1.675-0.01-3.001-0.477-3.051-2.481c-0.053-2.275,0.99-3.485,3.11-3.488c5.86,0,11.718,0.016,17.578,0.074
			c2.081,0.019,3.152,1.2,3.107,3.244c-0.036,1.763-1.041,2.639-3.159,2.658c-2.929,0.022-5.86,0.003-8.789,0.003
			C44.397,71.992,44.397,71.989,44.397,71.982z"/>
	</g>
</g>
<g>
	<g>
		<path fill="#265691" d="M154.113,135.337c-6.06,0-6.06-2.284-7.476-7.401l-3.463-12.744
			c-11.647,2.594-25.733,11.644-25.733,25.024c0,5.034,3.069,9.996,7.318,12.513c4.014,2.362,8.971,2.986,13.536,2.986
			c3.855,0,8.105-0.393,11.805-1.416c0.866-0.231,1.574-0.393,2.439-0.393c0.472,0,0.787,0.238,0.787,0.709
			c0,0.553-0.552,0.868-0.945,1.1c-2.439,1.577-4.8,3.231-7.162,4.879c-3.54,2.523-4.485,2.678-8.813,2.678
			c-12.985,0-23.451-5.902-23.451-20.068c0-11.097,5.981-20.146,14.007-27.227c0.473-0.393,0.866-0.708,1.339-1.101
			c-2.205-0.554-4.565-0.946-6.768-0.946c-5.194,0-5.902,5.51-7.792,5.51c-0.473,0-0.944-0.471-0.944-0.946
			c0-1.339,1.889-5.034,2.518-6.372c1.653-3.624,3.147-6.063,7.476-6.063c3.147,0,6.453,0.714,9.523,1.185
			c4.092,0.631,8.263,0.708,12.434,0.708c3.621,0,6.926-0.077,10.467-0.786l-3.778,7.081c-1.337,0-2.676,0.077-4.013,0.237
			l3.698,9.598c1.181,3.07,1.102,3.701,4.486,3.701h9.68v7.556H154.113z M133.651,140.531l-4.722-5.039l4.171-3.778l4.721,4.879
			L133.651,140.531z"/>
	</g>
	<g>
		<path fill="#265691" d="M210.545,135.337c-6.926,0-6.217-2.046-8.027-7.556c-7.947,0.785-8.5,7.556-19.595,7.556h-18.101v-7.556
			h13.851c4.25,0,6.61,0.077,10.388-1.97c1.967-1.101,3.541-1.964,5.667-2.595c-4.171-1.416-10.546-5.354-14.481-5.354
			c-3.147,0-4.958,3.778-6.296,3.778c-0.55,0-1.022-0.47-1.022-0.939c0-1.023,1.337-2.523,1.966-3.231
			c2.361-2.832,4.408-5.51,8.5-5.51c3.7,0,8.184,2.601,11.413,4.171c5.35,2.601,11.095,4.963,16.997,5.902
			c0.63,0.084,1.573,0.398,2.204,0.238l-5.431,4.646c1.103,1.178,2.833,0.863,4.249,0.863h9.208v7.556H210.545z"/>
	</g>
	<g>
		<path fill="#265691" d="M241.634,96.699l-1.81-0.631l1.574,21.324c0.156,1.576,0.156,3.225,0.156,4.801
			c0,4.172-0.865,9.758-3.619,13.144h-16.369v-7.556h14.796c0.079-0.631,0.155-1.179,0.155-1.809c0-1.185-0.076-2.285-0.155-3.463
			l-2.439-28.804c-0.944,0-2.284-1.023-2.284-2.047c0-1.416,3.937-7.872,4.408-8.734c0.078,3.07,0.629,3.54,3.384,4.802l5.036,2.355
			L241.634,96.699z"/>
	</g>
	<g>
		<path fill="#265691" d="M253.439,137.223l-0.707,1.262c0,0,0.157-1.576,0.236-2.439c0.55-5.67,0.787-11.334,0.787-17.076
			c0-9.525-0.866-21.723-1.89-27.779l4.958-8.818c1.652,9.134,2.597,22.271,2.597,32.189
			C259.421,123.217,257.926,129.274,253.439,137.223z"/>
	</g>
</g>
</svg>
