<?xml version="1.0" encoding="utf-8"?>
<!-- Generator: Adobe Illustrator 16.0.0, SVG Export Plug-In . SVG Version: 6.00 Build 0)  -->
<!DOCTYPE svg PUBLIC "-//W3C//DTD SVG 1.1//EN" "http://www.w3.org/Graphics/SVG/1.1/DTD/svg11.dtd">
<svg version="1.1" id="Layer_1" xmlns="http://www.w3.org/2000/svg" xmlns:xlink="http://www.w3.org/1999/xlink" x="0px" y="0px"
	 width="342.269px" height="342.27px" viewBox="0 0 342.269 342.27" enable-background="new 0 0 342.269 342.27"
	 xml:space="preserve">
<g>
	<path fill-rule="evenodd" clip-rule="evenodd" d="M305.683,238.008c-39.931-13.123-79.285-26.056-119.527-39.282
		c0,4.115,0,7.506,0,10.896c0,16.241,0.097,32.482-0.077,48.721c-0.038,3.451,0.997,5.666,3.782,7.724
		c6.993,5.167,13.903,10.478,20.474,16.162c1.847,1.598,3.206,4.63,3.392,7.108c0.473,6.326,0.157,12.713,0.157,20.054
		c-5.645-1.676-10.996-2.578-15.734-4.794c-18.047-8.44-35.821-8.437-53.858,0.021c-4.599,2.156-9.802,3.02-15.653,4.751
		c0-8.198-0.184-15.479,0.149-22.737c0.07-1.528,1.79-3.272,3.17-4.402c6.88-5.63,13.97-11.006,20.817-16.676
		c1.465-1.214,3.157-3.261,3.178-4.943c0.229-18.365,0.148-36.732,0.151-55.1c0-1.914,0-3.826,0-6.786
		c-40.124,13.169-79.584,26.122-119.569,39.247c0-9.931-0.269-19.21,0.21-28.452c0.105-2.018,2.493-4.525,4.481-5.747
		c36.043-22.148,72.15-44.196,108.361-66.072c3.903-2.358,5.525-4.807,5.479-9.516c-0.253-26.484-0.111-52.973-0.122-79.46
		c-0.002-6.293,2.122-11.34,8.127-14.151c5.73-2.683,11.207-2.143,16.438,1.37c4.696,3.153,5.93,7.926,5.974,13.13
		c0.097,11.213,0.062,22.427,0.068,33.64c0.008,15.081,0.172,30.164-0.1,45.24c-0.083,4.596,1.312,7.227,5.366,9.639
		c36.687,21.829,73.188,43.969,109.866,65.811c3.844,2.289,5.313,4.706,5.108,9.15C305.412,220.806,305.683,229.092,305.683,238.008
		z"/>
</g>
<path fill="none" stroke="#1D1D1B" stroke-width="7" stroke-miterlimit="10" d="M338.769,318.77c0,11.045-8.954,20-20,20H23.5
	c-11.046,0-20-8.955-20-20V23.5c0-11.046,8.954-20,20-20h295.269c11.046,0,20,8.954,20,20V318.77z"/>
</svg>
