<?xml version="1.0" encoding="utf-8"?>
<!-- Generator: Adobe Illustrator 16.0.0, SVG Export Plug-In . SVG Version: 6.00 Build 0)  -->
<!DOCTYPE svg PUBLIC "-//W3C//DTD SVG 1.1//EN" "http://www.w3.org/Graphics/SVG/1.1/DTD/svg11.dtd">
<svg version="1.1" id="Layer_1" xmlns="http://www.w3.org/2000/svg" xmlns:xlink="http://www.w3.org/1999/xlink" x="0px" y="0px"
	 width="225.512px" height="294.969px" viewBox="0 0 225.512 294.969" enable-background="new 0 0 225.512 294.969"
	 xml:space="preserve">
<g>
	<path fill-rule="evenodd" clip-rule="evenodd" fill="#81858E" d="M204.222,141.39c0,22.155-0.842,44.354,0.311,66.449
		c0.709,13.602-16.83,33.923-33.477,33.934c-38.979,0.024-77.959,0.175-116.938-0.067c-17.925-0.111-34.149-17.135-34.151-35.011
		c-0.006-43.643,0.663-87.303-0.371-130.921C19.246,60.961,38.899,40.246,54.73,40.669c38.286,1.021,76.63,0.93,114.923,0.036
		c15.291-0.356,35.942,20.022,34.95,34.746C203.129,97.34,204.222,119.401,204.222,141.39z M153.176,134.126
		c7.494,0,14.99,0.034,22.484-0.009c8.473-0.05,13.393-4.913,13.415-13.249c0.029-10.16,0.022-20.32,0.003-30.479
		c-0.017-8.276-5.177-13.93-13.504-14.046c-15.32-0.212-30.647-0.206-45.968-0.001c-8.018,0.107-13.301,5.793-13.356,13.793
		c-0.07,9.993-0.056,19.987-0.006,29.979c0.045,8.885,5.061,13.922,13.946,13.998C137.852,134.179,145.514,134.126,153.176,134.126z
		 M70.791,77c-7.829,0-15.659-0.04-23.488,0.011c-7.852,0.052-13.165,5.315-13.189,13.042c-0.033,9.995-0.013,19.99-0.007,29.984
		c0.005,9.4,4.98,14.4,14.424,14.417c14.992,0.026,29.984,0.021,44.976,0.001c8.022-0.011,13.241-4.795,13.393-12.757
		c0.203-10.658,0.195-21.325,0-31.981c-0.137-7.481-5.682-12.666-13.122-12.708C86.116,76.967,78.453,77,70.791,77z M111.588,67.271
		c12.324,0,24.648,0.031,36.973-0.016c4.742-0.019,7.376-2.876,7.512-7.896c0.142-5.229-2.257-8.053-7.146-8.062
		c-24.481-0.041-48.963-0.04-73.445,0c-4.922,0.008-7.227,2.687-7.229,8.046c-0.003,5.061,2.561,7.896,7.363,7.913
		C87.606,67.301,99.598,67.271,111.588,67.271z M173.282,171.994c-8.871-0.026-15.207,5.954-15.179,14.324
		c0.03,8.544,6.233,14.638,14.926,14.661c8.879,0.024,15.007-5.841,15.054-14.406C188.129,177.876,182.185,172.02,173.282,171.994z
		 M66.097,186.437c-0.001-8.541-6.175-14.517-14.922-14.44c-8.654,0.076-15.119,6.314-15.043,14.513
		c0.078,8.323,6.391,14.355,15.144,14.47C59.898,201.091,66.098,195.008,66.097,186.437z"/>
	<path fill-rule="evenodd" clip-rule="evenodd" fill="#838790" d="M225.512,294.969c-75.982,0-150.709,0-225.479,0
		c-0.286-1.944,1.34-2.224,2.303-2.9c20.55-14.459,41.13-28.874,61.686-43.325c1.388-0.976,2.723-1.808,4.524-1.79
		c5.633,0.058,11.267,0.021,17.491,0.021c-1.81,3.3-5.311,4-7.199,6.918c22.664,0,45.097,0,68.376,0
		c-2.9-2.324-5.245-4.201-8.525-6.83c9.741,0.093,17.828-0.979,25.887,5.078c18.608,13.991,38.112,26.79,57.249,40.079
		C222.751,292.864,223.638,293.568,225.512,294.969z M24.062,290.938c59.952,0,119.059,0,179.119,0
		c-7.505-5.355-13.949-9.184-23.168-9.069c-44.653,0.552-89.319,0.516-133.973,0.023C37.14,281.794,31.107,285.768,24.062,290.938z
		 M172.699,271.363c-6.514-4.695-11.839-8.23-19.632-8.096c-28.313,0.489-56.64,0.189-84.962,0.195
		c-5.128,0.001-11.065,3.449-13.88,7.9C93.291,271.363,132.475,271.363,172.699,271.363z"/>
	<path fill-rule="evenodd" clip-rule="evenodd" fill="#838790" d="M112.365,0c10.426,0.016,18.514,8.009,18.371,18.154
		c-0.136,9.652-8.07,16.987-18.381,16.994c-10.75,0.006-18.862-7.265-18.933-16.97C93.347,7.882,101.577-0.016,112.365,0z"/>
</g>
</svg>
