<?xml version="1.0" encoding="utf-8"?>
<!-- Generator: Adobe Illustrator 16.0.0, SVG Export Plug-In . SVG Version: 6.00 Build 0)  -->
<!DOCTYPE svg PUBLIC "-//W3C//DTD SVG 1.1//EN" "http://www.w3.org/Graphics/SVG/1.1/DTD/svg11.dtd">
<svg version="1.1" id="Layer_1" xmlns="http://www.w3.org/2000/svg" xmlns:xlink="http://www.w3.org/1999/xlink" x="0px" y="0px"
	 width="109.341px" height="109.332px" viewBox="0 0 109.341 109.332" enable-background="new 0 0 109.341 109.332"
	 xml:space="preserve">
<g>
	<path fill-rule="evenodd" clip-rule="evenodd" d="M98.468,99.198c0.733,0.136,1.586-0.017,1.584,1.097
		c0,0.121,0.573,0.185,0.781,0.38c0.25,0.235,0.554,0.591,0.54,0.881c-0.013,0.286-0.339,0.683-0.624,0.803
		c-0.385,0.162-0.861,0.14-1.298,0.141c-3.958,0.009-7.916,0.005-11.873,0.005c-0.12,0-0.247,0.022-0.358-0.009
		c-0.587-0.165-1.585,0.194-1.517-0.852c0.032-0.481,0.622-0.926,1.109-1.259c0.066-1.116,0.955-1.103,1.52-1.148
		c0.264-0.58,0.483-1.013,0.656-1.464c0.12-0.312,0.249-0.649,0.249-0.977c0.013-15.471,0.024-30.941-0.026-46.412
		c-0.003-0.846-0.546-1.689-0.876-2.648c-0.702-0.094-1.714-0.117-1.074-1.428c-0.084-0.042-0.155-0.076-0.223-0.114
		c-0.461-0.259-1.316-0.526-1.312-0.777c0.019-0.936,0.89-0.68,1.464-0.683c4.238-0.023,8.476-0.012,12.713-0.011
		c0.2,0,0.439-0.06,0.592,0.028c0.329,0.189,0.614,0.457,0.918,0.692c-0.271,0.227-0.519,0.495-0.82,0.667
		c-0.19,0.108-0.463,0.074-0.792,0.115c0.584,1.236-0.141,1.485-1.011,1.485c-1.558,2.819-0.932,5.807-0.944,8.702
		c-0.055,13.232-0.025,26.464-0.021,39.696c0.001,0.72-0.212,1.495,0.62,2.014C98.604,98.219,98.468,98.786,98.468,99.198z"/>
	<path fill-rule="evenodd" clip-rule="evenodd" d="M73.855,46.231c0.676,1.385-0.334,1.409-1.153,1.519
		c-1.57,4.808-0.693,9.693-0.754,14.504c-0.141,11.232-0.05,22.468-0.032,33.701c0.001,0.735-0.332,1.591,0.599,2.136
		c0.165,0.096,0.055,0.662,0.074,1.09c0.669,0.156,1.719,0.002,1.537,1.295c0.344,0.081,0.696,0.062,0.863,0.229
		c0.241,0.241,0.475,0.62,0.47,0.936c-0.004,0.25-0.328,0.626-0.588,0.713c-0.441,0.146-0.944,0.145-1.421,0.146
		c-3.878,0.01-7.756,0.007-11.634,0.003c-0.358-0.001-0.755,0.049-1.066-0.083c-0.376-0.159-0.849-0.422-0.979-0.757
		c-0.222-0.571,0.108-0.972,0.768-1.06c0.21-0.027,0.574-0.206,0.572-0.309c-0.025-1.118,0.843-0.957,1.295-1.043
		c0.294-0.598,0.546-1.049,0.736-1.523c0.112-0.279,0.179-0.598,0.179-0.898c0.008-15.472,0.021-30.943-0.03-46.415
		c-0.003-0.846-0.542-1.691-0.877-2.668c-0.59-0.152-1.749-0.054-1.072-1.419c-0.068-0.045-0.126-0.098-0.194-0.125
		c-0.524-0.204-1.509,0.148-1.338-0.864c0.047-0.278,0.93-0.584,1.433-0.59c4.237-0.047,8.476-0.027,12.713-0.026
		c0.24,0,0.518-0.058,0.71,0.041c0.307,0.158,0.557,0.426,0.831,0.647c-0.261,0.235-0.496,0.513-0.791,0.691
		C74.517,46.214,74.241,46.18,73.855,46.231z"/>
	<path fill-rule="evenodd" clip-rule="evenodd" d="M36.54,99.039c0.227-0.438,0.474-0.855,0.66-1.298
		c0.117-0.275,0.201-0.59,0.201-0.886c0.009-15.511,0.021-31.021-0.029-46.53c-0.003-0.805-0.548-1.608-0.904-2.586
		c-0.474-0.185-1.736,0.002-1.027-1.457c-0.236-0.05-0.484-0.042-0.655-0.153c-0.345-0.225-0.648-0.515-0.968-0.778
		c0.373-0.209,0.744-0.596,1.119-0.599c4.477-0.042,8.954-0.045,13.431,0c0.404,0.004,0.804,0.412,1.206,0.633
		c-0.371,0.257-0.734,0.527-1.118,0.764c-0.123,0.076-0.301,0.064-0.492,0.099c0.599,1.298-0.26,1.441-1.111,1.469
		c-1.628,4.209-0.784,8.503-0.827,12.712c-0.121,11.911-0.045,23.824-0.034,35.736c0,0.668-0.263,1.429,0.589,1.9
		c0.166,0.092,0.071,0.657,0.104,1.112c0.614,0.184,1.724-0.033,1.505,1.281c0.372,0.096,0.754,0.09,0.966,0.276
		c0.225,0.196,0.391,0.577,0.39,0.878c-0.001,0.243-0.236,0.615-0.457,0.701c-0.396,0.153-0.859,0.18-1.294,0.181
		c-4.078,0.012-8.155,0.01-12.232,0.002c-0.357-0.001-0.718-0.049-1.071-0.11c-0.887-0.154-0.916-1.001-0.573-1.353
		C34.705,100.23,35.715,99.645,36.54,99.039z"/>
	<path fill-rule="evenodd" clip-rule="evenodd" d="M10.6,47.761c-1.37-0.265-1.37-0.265-1.107-1.432
		c-0.059-0.043-0.114-0.1-0.18-0.126c-0.523-0.206-1.507,0.15-1.344-0.859c0.044-0.277,0.927-0.59,1.428-0.595
		c4.237-0.047,8.475-0.028,12.712-0.026c0.239,0,0.517-0.058,0.71,0.04c0.308,0.157,0.56,0.423,0.836,0.643
		c-0.259,0.236-0.492,0.515-0.786,0.694c-0.187,0.113-0.464,0.079-0.796,0.123c0.5,1.214-0.142,1.575-1.168,1.479
		c-1.619,4.609-0.742,9.259-0.796,13.829c-0.136,11.512-0.049,23.026-0.036,34.54c0,0.705-0.284,1.508,0.6,2.016
		c0.165,0.095,0.058,0.661,0.081,1.094c0.659,0.162,1.718-0.003,1.53,1.293c0.342,0.082,0.693,0.063,0.861,0.231
		c0.242,0.24,0.478,0.616,0.474,0.932c-0.003,0.251-0.328,0.562-0.586,0.727c-0.215,0.136-0.542,0.128-0.819,0.129
		c-4.277,0.007-8.555,0.007-12.832,0.001c-0.277,0-0.558-0.051-0.832-0.106c-0.88-0.182-0.886-1.02-0.542-1.373
		c0.757-0.779,1.741-1.338,2.694-2.032c0.158-0.323,0.415-0.772,0.596-1.25c0.12-0.317,0.185-0.677,0.185-1.017
		c0.009-15.391,0.021-30.782-0.029-46.173C11.449,49.651,10.92,48.763,10.6,47.761z"/>
	<path fill-rule="evenodd" clip-rule="evenodd" d="M2.521,36.129c4.32-3.017,8.64-6.034,12.961-9.05
		c12.746-8.897,25.497-17.788,38.23-26.704c0.691-0.483,1.159-0.513,1.872-0.014c16.827,11.776,33.674,23.526,50.516,35.282
		c0.229,0.16,0.446,0.335,0.645,0.642c-2.262-0.207-4.494,0.649-6.757-0.95C85.238,24.909,70.392,14.62,55.596,4.262
		c-0.697-0.488-1.142-0.52-1.862-0.016C38.808,14.698,23.854,25.112,8.926,35.561c-0.828,0.58-1.625,0.901-2.64,0.843
		c-1.227-0.07-2.46-0.017-3.691-0.017C2.57,36.301,2.546,36.215,2.521,36.129z"/>
	<path fill-rule="evenodd" clip-rule="evenodd" d="M109.322,108.176c0,0.419,0,0.736,0,1.156c-36.42,0-72.827,0-109.292,0
		c0-0.366,0-0.711,0-1.156C36.417,108.176,72.824,108.176,109.322,108.176z"/>
	<path fill-rule="evenodd" clip-rule="evenodd" d="M0,38.768c0-0.425,0-0.737,0-1.148c36.419,0,72.813,0,109.289,0
		c0.017,0.358,0.032,0.699,0.053,1.148C72.891,38.768,36.499,38.768,0,38.768z"/>
	<path fill-rule="evenodd" clip-rule="evenodd" d="M104.966,106.015c0,0.364,0,0.711,0,1.158c-33.506,0-67.033,0-100.618,0
		c0-0.37,0-0.715,0-1.158C37.857,106.015,71.385,106.015,104.966,106.015z"/>
	<path fill-rule="evenodd" clip-rule="evenodd" d="M104.966,39.775c0,0.363,0,0.709,0,1.158c-33.505,0-67.033,0-100.618,0
		c0-0.371,0-0.716,0-1.158C37.857,39.775,71.384,39.775,104.966,39.775z"/>
	<path fill-rule="evenodd" clip-rule="evenodd" d="M7.942,105.019c0-0.389,0-0.736,0-1.171c31.12,0,62.251,0,93.43,0
		c0,0.38,0,0.728,0,1.171C70.251,105.019,39.122,105.019,7.942,105.019z"/>
	<path fill-rule="evenodd" clip-rule="evenodd" d="M101.366,41.935c0,0.363,0,0.709,0,1.158c-31.105,0-62.233,0-93.417,0
		c0-0.371,0-0.717,0-1.158C39.056,41.935,70.184,41.935,101.366,41.935z"/>
	<path fill-rule="evenodd" clip-rule="evenodd" d="M37.381,28.756c2.463,1.225,3.145,2.901,1.789,4.616
		c-0.479,0.604-1.337,1.222-2.056,1.264c-2.6,0.151-5.215,0.06-7.918,0.049c1.537,0.01,1.62-1.028,1.619-2.124
		c-0.001-2.439,0-4.879-0.001-7.319c0-1.095-0.092-2.126-1.539-2.217c2.176,0,4.355-0.077,6.526,0.026
		c1.505,0.071,2.839,0.656,3.319,2.286C39.598,26.959,38.756,27.999,37.381,28.756z M32.415,28.892c0,1.228,0,2.135,0,3.042
		c0,2.363,0.346,2.654,2.768,2.331c0.197-0.026,0.396-0.053,0.588-0.101c1.15-0.292,1.983-1.181,2.021-2.229
		c0.044-1.208-0.513-2.17-1.648-2.497C35,29.109,33.771,29.077,32.415,28.892z M32.415,25.928c0,2.742,0.078,2.811,2.782,2.473
		c1.467-0.183,2.361-1.233,2.218-2.605c-0.151-1.452-1.574-2.394-3.529-2.336c-1.471,0.043-1.471,0.043-1.471,2.108
		C32.415,25.688,32.415,25.808,32.415,25.928z"/>
	<path fill-rule="evenodd" clip-rule="evenodd" d="M72.369,28.256c1.334,1.31,2.49,2.53,3.738,3.647
		c1.197,1.072,2.49,2.037,3.567,2.908c-1.38,0-3.147,0-5.159,0c1.507-0.545,1.024-1.162,0.344-1.853
		c-1.26-1.277-2.484-2.59-3.724-3.888c-0.106,0.048-0.212,0.096-0.318,0.144c0,1.553-0.085,3.114,0.062,4.653
		c0.035,0.367,0.842,0.66,1.297,0.989c-1.504,0-3.062,0-4.618,0c1.469-0.224,1.544-1.263,1.52-2.457
		c-0.048-2.357-0.011-4.715-0.016-7.073c-0.003-1.729-0.008-1.729-1.656-2.365c1.71,0,3.281,0,4.853,0
		c-1.606,0.211-1.567,1.366-1.514,2.568c0.043,0.951,0.009,1.905,0.264,3.052c1.379-1.397,2.801-2.756,4.117-4.209
		c0.673-0.743,0.029-1.082-0.646-1.374c1.339,0,2.677,0,4.283,0C75.896,24.051,74.533,26.482,72.369,28.256z"/>
	<path fill-rule="evenodd" clip-rule="evenodd" d="M56.852,25.459c0,2.927-0.065,5.511,0.058,8.085
		c0.023,0.487,0.794,0.939,1.146,1.326c-0.986,0-2.223,0-3.459,0c1.513-0.183,1.501-1.257,1.483-2.396
		c-0.033-2.079-0.04-4.159,0-6.237c0.036-1.909,0.183-2.285-2.209-3.161c2.36-0.515,2.96-0.301,4.41,1.489
		c1.91,2.358,3.838,4.703,5.93,7.263c0.049-0.54,0.102-0.859,0.103-1.179c0.009-1.799,0.004-3.598,0.004-5.397
		c0-1.075,0.037-2.174-1.496-2.281c1.211,0,2.421,0,3.631,0c-1.759,0.278-1.407,1.649-1.414,2.811
		c-0.016,3.069-0.005,6.138-0.248,9.328C62.212,31.978,59.636,28.845,56.852,25.459z"/>
	<path fill-rule="evenodd" clip-rule="evenodd" d="M47.331,22.405c0.684,1.599,1.265,2.936,1.829,4.279
		c0.819,1.951,1.565,3.936,2.467,5.848c0.41,0.869,1.12,1.598,1.638,2.313c-1.137,0-2.564,0-3.991,0
		c1.396-0.428,0.963-1.315,0.606-2.208c-0.705-1.763-0.696-1.767-2.632-1.767c-0.28,0-0.56,0-0.839,0c-1.997,0-1.997,0-2.728,1.82
		c-0.542,1.347-0.482,1.487,1.127,2.126c-1.403,0-2.538,0-3.359,0c0.517-0.84,1.235-1.782,1.715-2.833
		c1.227-2.686,2.347-5.421,3.513-8.136C46.845,23.454,47.03,23.067,47.331,22.405z M46.843,25.356
		c-0.75,1.74-1.399,3.248-2.088,4.849c1.449,0,2.702,0,4.12,0C48.198,28.589,47.573,27.098,46.843,25.356z"/>
</g>
</svg>
