<?xml version="1.0" encoding="utf-8"?>
<!-- Generator: Adobe Illustrator 16.0.0, SVG Export Plug-In . SVG Version: 6.00 Build 0)  -->
<!DOCTYPE svg PUBLIC "-//W3C//DTD SVG 1.1//EN" "http://www.w3.org/Graphics/SVG/1.1/DTD/svg11.dtd">
<svg version="1.1" id="Layer_1" xmlns="http://www.w3.org/2000/svg" xmlns:xlink="http://www.w3.org/1999/xlink" x="0px" y="0px"
	 width="395.476px" height="354.605px" viewBox="0 0 395.476 354.605" enable-background="new 0 0 395.476 354.605"
	 xml:space="preserve">
<g>
	<g>
		<path fill="#265691" d="M47.16,109.972h-5.622v20.278c1.475,0.184,3.411,0.277,5.993,0.277c7.279,0,13.732-2.765,13.732-10.415
			C61.264,112.923,54.997,109.972,47.16,109.972z"/>
	</g>
	<g>
		<path fill="#265691" d="M352.634,41.828h-87.443C261.892,27.674,248.904,0,197.74,0c-50.707,0-65.643,27.674-69.972,41.828H42.842
			C19.182,41.828,0,61.009,0,84.67v107.995l169.468,59.104v-15.004h56.542v12.442l169.467-55.158V84.67
			C395.476,61.009,376.296,41.828,352.634,41.828z M67.256,133.291c-4.426,3.872-11.705,5.806-23.047,5.806
			c-6.266,0-11.058-0.46-13.915-0.827V77.158c3.595-0.736,10.138-1.29,16.497-1.29c8.39,0,13.552,1.014,17.79,3.965
			c3.872,2.304,6.452,6.359,6.452,11.611c0,5.716-3.594,10.971-10.32,13.459v0.184c6.543,1.66,12.532,6.819,12.532,15.393
			C73.245,126.012,70.851,130.344,67.256,133.291z M113.515,138.453l-0.554-6.819h-0.184c-1.937,3.225-6.358,7.833-14.379,7.833
			c-8.203,0-15.67-4.885-15.67-19.541v-26.36h11.338v24.427c0,7.466,2.395,12.258,8.388,12.258c4.519,0,7.466-3.225,8.663-6.082
			c0.37-1.014,0.646-2.215,0.646-3.505V93.565h11.338v31.43c0,5.349,0.184,9.771,0.367,13.458H113.515z M146.226,139.374
			c-5.439,0-10.324-1.291-13.643-3.132l2.214-8.203c2.582,1.567,7.467,3.225,11.521,3.225c4.976,0,7.189-2.027,7.189-4.979
			c0-3.041-1.847-4.608-7.376-6.543c-8.753-3.041-12.441-7.836-12.352-13.088c0-7.927,6.546-14.103,16.96-14.103
			c4.979,0,9.311,1.29,11.892,2.674l-2.211,8.017c-1.938-1.104-5.532-2.581-9.493-2.581c-4.056,0-6.27,1.938-6.27,4.702
			c0,2.857,2.117,4.238,7.833,6.27c8.113,2.947,11.892,7.096,11.985,13.732C164.477,133.475,158.117,139.374,146.226,139.374z
			 M185.205,138.453h-11.428V93.565h11.428V138.453z M179.399,87.112c-3.782,0-6.267-2.671-6.267-6.082
			c0-3.502,2.578-6.176,6.359-6.176c3.869,0,6.267,2.674,6.359,6.176C185.852,84.441,183.361,87.112,179.399,87.112z
			 M238.017,138.453h-11.338v-25.347c0-6.452-2.395-11.338-8.574-11.338c-4.516,0-7.646,3.225-8.848,6.636
			c-0.369,1.014-0.459,2.397-0.459,3.688v26.36h-11.431v-31.522c0-5.162-0.091-9.494-0.367-13.365h9.955l0.549,6.729h0.277
			c1.938-3.505,6.822-7.743,14.289-7.743c7.834,0,15.947,5.068,15.947,19.264V138.453z M152.021,41.828
			c4.747-8.464,16.542-20.494,45.311-20.494c28.767,0,40.8,12.03,45.712,20.494H152.021z M288.148,119.188h-30.049
			c0.275,8.11,6.635,11.615,13.824,11.615c5.256,0,9.035-0.737,12.445-2.027l1.658,7.833c-3.871,1.567-9.217,2.765-15.67,2.765
			c-14.562,0-23.133-8.94-23.133-22.673c0-12.445,7.557-24.149,21.936-24.149c14.562,0,19.355,11.981,19.355,21.845
			C288.515,116.518,288.332,118.175,288.148,119.188z M308.505,139.374c-5.438,0-10.324-1.291-13.639-3.132l2.211-8.203
			c2.582,1.567,7.467,3.225,11.521,3.225c4.979,0,7.189-2.027,7.189-4.979c0-3.041-1.844-4.608-7.373-6.543
			c-8.756-3.041-12.441-7.836-12.352-13.088c0-7.927,6.547-14.103,16.961-14.103c4.975,0,9.307,1.29,11.889,2.674l-2.211,8.017
			c-1.936-1.104-5.533-2.581-9.494-2.581c-4.055,0-6.266,1.938-6.266,4.702c0,2.857,2.117,4.238,7.832,6.27
			c8.111,2.947,11.889,7.096,11.982,13.732C326.757,133.475,320.398,139.374,308.505,139.374z M346.935,139.374
			c-5.438,0-10.324-1.291-13.643-3.132l2.215-8.203c2.582,1.567,7.467,3.225,11.521,3.225c4.975,0,7.189-2.027,7.189-4.979
			c0-3.041-1.848-4.608-7.377-6.543c-8.752-3.041-12.441-7.836-12.352-13.088c0-7.927,6.547-14.103,16.961-14.103
			c4.979,0,9.311,1.29,11.893,2.674l-2.211,8.017c-1.938-1.104-5.533-2.581-9.494-2.581c-4.057,0-6.27,1.938-6.27,4.702
			c0,2.857,2.117,4.238,7.832,6.27c8.113,2.947,11.893,7.096,11.986,13.732C365.187,133.475,358.828,139.374,346.935,139.374z"/>
	</g>
	<g>
		<path fill="#265691" d="M268.517,100.295c-7.01,0-9.959,6.359-10.418,10.968h19.725
			C277.914,107.114,276.072,100.295,268.517,100.295z"/>
	</g>
	<g>
		<path fill="#265691" d="M59.605,92.734c0-5.806-4.425-8.479-11.614-8.479c-3.318,0-5.256,0.187-6.453,0.463v16.957h5.806
			C55.181,101.675,59.605,97.99,59.605,92.734z"/>
	</g>
	<g>
		<path fill="#265691" d="M226.009,271.12h-56.542v-12.371L0,199.646v112.118c0,23.66,19.182,42.842,42.842,42.842h309.792
			c23.662,0,42.842-19.182,42.842-42.842V200.981l-169.467,55.157V271.12z"/>
	</g>
</g>
</svg>
