<?xml version="1.0" encoding="utf-8"?>
<!-- Generator: Adobe Illustrator 16.0.0, SVG Export Plug-In . SVG Version: 6.00 Build 0)  -->
<!DOCTYPE svg PUBLIC "-//W3C//DTD SVG 1.1//EN" "http://www.w3.org/Graphics/SVG/1.1/DTD/svg11.dtd">
<svg version="1.1" id="Layer_1" xmlns="http://www.w3.org/2000/svg" xmlns:xlink="http://www.w3.org/1999/xlink" x="0px" y="0px"
	 width="317.818px" height="322.658px" viewBox="0 0 317.818 322.658" enable-background="new 0 0 317.818 322.658"
	 xml:space="preserve">
<g>
	<g>
		<path fill-rule="evenodd" clip-rule="evenodd" fill="#265691" d="M133.128,316.37c0.14,0.868,1.516,2.197,2.325,2.207
			c15.617,0.132,31.233,0.067,46.852,0.129c2.576,0.01,2.517-1.558,2.515-3.324c-0.018-7.688,0.091-15.38-0.043-23.065
			c-0.217-12.471,4.24-22.847,13.076-31.648c22.301-22.209,44.459-44.566,66.621-66.914c3.64-3.669,7.754-5.699,12.938-4.512
			c9.599,2.197,13.312,13.555,6.647,20.995c-9.132,10.202-18.648,20.06-27.895,30.155c-3.318,3.624-6.974,7.164-9.313,11.387
			c-2.496,4.509-3.74,9.738-5.286,14.729c-0.667,2.153,0.396,3.37,2.864,3.247c2.734-0.132,5.48-0.028,8.792-0.028
			c-0.052-10.067,6.526-15.873,12.249-22.168c9.048-9.95,18.147-19.859,27.178-29.826c11.16-12.316,9.086-27.768-4.771-36.988
			c-1.117-0.743-2.109-2.597-2.118-3.942c-0.132-20.304-0.133-40.604-0.07-60.908c0.029-9.616,6.959-16.562,16.265-16.539
			c9.191,0.022,15.816,6.826,15.828,16.445c0.033,29.795,0.075,59.586-0.029,89.381c-0.047,12.796-4.683,23.905-13.417,33.238
			c-18.221,19.468-36.431,38.947-54.785,58.293c-4.689,4.943-5.91,10.787-5.931,17.195c-0.032,8.679-0.038,8.679-8.699,8.679
			c-14.655,0.004-29.313,0.158-43.968-0.028c-18.182-0.235-36.363-1.068-54.543-1.059c-19.263,0.006-38.526,0.627-57.784,1.151
			c-3.436,0.097-4.88-0.846-4.449-4.386c0.23-1.896,0.055-3.84,0.031-5.761c-0.085-6.508-2.23-11.979-6.866-16.835
			c-18.407-19.294-36.661-38.732-54.778-58.296c-7.947-8.583-12.313-19.023-12.408-30.718c-0.248-30.513-0.135-61.028-0.082-91.541
			c0.014-8.889,6.679-15.557,15.418-15.757c9.04-0.206,16.497,6.372,16.593,15.429c0.222,20.899,0.109,41.802-0.009,62.705
			c-0.007,1.11-1.072,2.597-2.074,3.257c-13.916,9.191-16.004,24.639-4.844,36.958c10.564,11.663,21.146,23.307,31.805,34.88
			c3.83,4.161,6.898,8.65,7.436,14.424c0.201,2.147,1.117,2.913,3.209,2.749c1.791-0.142,3.614-0.164,5.4,0
			c3.141,0.289,3.581-1.287,3.27-3.942c-0.951-8.104-4.711-14.788-10.149-20.648c-10.373-11.184-20.758-22.36-31.201-33.479
			c-3.229-3.438-5.128-7.306-4.301-12.06c0.845-4.869,3.646-8.325,8.374-9.96c4.863-1.68,9.312-0.688,12.991,2.852
			c4.414,4.244,8.62,8.705,12.944,13.043c15.179,15.232,30.366,30.458,45.559,45.674c0.306,0.306,6.453,5.59,13.462,13.218
			C135.463,276.984,131.115,303.95,133.128,316.37z"/>
	</g>
	<g>
		<path fill-rule="evenodd" clip-rule="evenodd" fill="#265691" d="M102.884,52.918c5.14,21.743,10.286,43.502,15.61,66.014
			c-3.664,0-6.844,0.109-10.012-0.032c-2.8-0.119-3.709,0.969-3.683,3.794c0.124,14.296,0.081,28.595,0.045,42.89
			c-0.013,5.294-2.32,8.014-6.633,8.049c-4.144,0.036-6.522-2.34-6.538-6.81c-0.045-14.659-0.044-29.318,0.006-43.975
			c0.009-2.343-0.325-3.855-3.234-3.975c-3.248-0.132-4.145,1.204-4.125,4.242c0.097,14.414,0.066,28.836,0.026,43.25
			c-0.011,4.66-1.929,6.978-5.748,7.248c-4.475,0.321-7.114-2.321-7.137-7.405c-0.056-12.256-0.024-24.511-0.026-36.766
			c-0.001-10.383-0.001-10.376-10.352-10.527c-1.054-0.013-2.103-0.145-3.704-0.261c1.513-6.427,2.924-12.567,4.411-18.691
			c3.542-14.585,7.159-29.151,10.606-43.759c0.275-1.165-0.287-3.562-0.885-3.714c-2.134-0.544-4.457-0.792-5.337,2.41
			c-3.239,11.782-6.681,23.513-9.965,35.282c-0.92,3.305-2.935,4.876-6.306,4.538c-3.471-0.348-5.672-3.289-4.734-6.643
			c3.941-14.074,7.787-28.18,12.11-42.137c2.644-8.528,9.29-12.8,18.349-12.825c8.29-0.022,16.579-0.025,24.869-0.003
			c9.069,0.032,15.263,4.312,18.214,12.992c1.931,5.674,3.397,11.508,5.112,17.259c0.349,1.175,0.885,2.295,1.334,3.44
			c0.311-0.019,0.619-0.041,0.927-0.061c1.5-5.117,2.98-10.244,4.509-15.352c0.719-2.407,1.308-4.892,2.349-7.16
			c3.309-7.212,8.905-11.119,16.989-11.119c11.055-0.003,22.108-0.017,33.161,0c10.072,0.016,16.244,4.387,19.217,14.103
			c3.689,12.059,7.178,24.179,10.545,36.327c0.852,3.077,2.021,4.683,5.527,4.677c10.081-0.026,20.16,0.331,30.243,0.443
			c9.737,0.109,14.347,4.638,14.364,14.312c0.016,7.331-0.029,14.659,0.012,21.99c0.016,2.668-0.497,5.053-3.715,4.994
			c-3.006-0.055-3.928-2.191-3.904-4.969c0.057-6.005-0.008-12.014,0.027-18.022c0.012-1.934,0.032-3.536-2.719-3.514
			c-2.738,0.025-2.752,1.67-2.75,3.578c0.002,19.583,0.001,39.17-0.006,58.753c0,1.319,0.054,2.648-0.072,3.962
			c-0.303,3.163-2.486,5.155-5.431,5.068c-3.001-0.09-4.991-2.079-5.014-5.4c-0.073-10.571-0.019-21.147-0.058-31.719
			c-0.007-1.59,0.465-3.53-2.074-3.868c-2.805-0.374-3.875,0.746-3.85,3.604c0.092,10.691,0.039,21.386,0.005,32.08
			c-0.011,3.145-1.737,4.95-4.782,5.259c-2.914,0.296-4.832-1.249-5.596-4.007c-0.311-1.123-0.162-2.385-0.162-3.585
			c-0.008-21.147-0.096-42.295,0.076-63.438c0.029-3.676-1.023-5.494-4.697-6.124c-3.056-0.521-5.975-1.806-9.022-2.411
			c-3.763-0.746-5.675-2.797-6.63-6.543c-2.812-11.048-5.889-22.032-9.018-32.993c-0.361-1.271-1.493-2.941-2.608-3.27
			c-3.522-1.036-4.536,0.01-4.536,3.984c-0.006,36.048,0.002,72.089-0.01,108.134c-0.002,6.179-3.381,9.51-9.001,8.972
			c-3.479-0.334-6.015-2.674-6.487-6.146c-0.209-1.542-0.225-3.115-0.225-4.673c-0.016-19.223-0.076-38.449,0.047-57.672
			c0.022-3.414-1.267-4.39-4.464-4.206c-3.146,0.184-2.869,2.237-2.869,4.3c-0.001,19.947,0.021,39.887-0.021,59.831
			c-0.012,5.809-3.311,8.991-8.653,8.58c-3.595-0.277-6.312-2.727-6.787-6.318c-0.217-1.657-0.18-3.356-0.18-5.036
			c-0.008-35.082-0.015-70.168,0.013-105.25c0-2.7,0.069-5.522-3.806-4.512c-1.2,0.312-2.524,1.973-2.917,3.282
			c-3.335,11.139-6.428,22.351-9.706,33.509c-0.454,1.551-1.208,3.267-2.359,4.309c-3.223,2.926-7.808,1.182-9.163-3.446
			c-2.97-10.141-5.817-20.317-8.717-30.478c-0.296-1.039-0.584-2.082-0.895-3.118C108.867,51.767,108.338,51.493,102.884,52.918z"/>
	</g>
	<g>
		<path fill-rule="evenodd" clip-rule="evenodd" fill="#265691" d="M74.261,13.792C74.266,6.071,80.188,0.065,87.861,0
			c7.822-0.067,14.166,6.038,14.204,13.668c0.037,7.679-6.155,13.923-13.913,14.028C80.361,27.803,74.255,21.689,74.261,13.792z"/>
	</g>
	<g>
		<path fill-rule="evenodd" clip-rule="evenodd" fill="#265691" d="M151.572,13.675c0.058-7.637,6.311-13.794,13.851-13.636
			c7.584,0.157,13.812,6.504,13.675,13.935c-0.137,7.46-6.612,13.813-13.968,13.71C157.579,27.578,151.516,21.312,151.572,13.675z"
			/>
	</g>
	<g>
		<path fill-rule="evenodd" clip-rule="evenodd" fill="#265691" d="M245.167,73.278c-0.037,5.364-3.992,9.307-9.297,9.271
			c-5.342-0.042-9.359-4.01-9.382-9.271c-0.027-5.514,3.962-9.414,9.565-9.353C241.538,63.983,245.206,67.749,245.167,73.278z"/>
	</g>
</g>
</svg>
