<?xml version="1.0" encoding="utf-8"?>
<!-- Generator: Adobe Illustrator 16.0.0, SVG Export Plug-In . SVG Version: 6.00 Build 0)  -->
<!DOCTYPE svg PUBLIC "-//W3C//DTD SVG 1.1//EN" "http://www.w3.org/Graphics/SVG/1.1/DTD/svg11.dtd">
<svg version="1.1" id="Layer_1" xmlns="http://www.w3.org/2000/svg" xmlns:xlink="http://www.w3.org/1999/xlink" x="0px" y="0px"
	 width="433.095px" height="474.061px" viewBox="0 0 433.095 474.061" enable-background="new 0 0 433.095 474.061"
	 xml:space="preserve">
<g>
	<path fill="#265691" d="M151.381,222.984c0-4.879-3.309-7.318-8.818-7.396c-2.909,0-4.563,0.235-5.426,0.393v14.637h4.718
		C147.837,230.617,151.381,227.628,151.381,222.984z"/>
	<path fill="#265691" d="M93.451,216.059h-0.154c-0.788,3.147-1.576,7.16-2.439,10.23l-3.146,11.254h11.724l-3.306-11.254
		C95.184,223.142,94.24,219.206,93.451,216.059z"/>
	<path fill="#265691" d="M0,0v474.061h433.095V0H0z M270.665,26.937l-49.294,160.775L172.078,26.937H270.665z M52.914,260.129
		l-0.785-20.304c-0.234-6.376-0.47-14.087-0.47-21.798h-0.238c-1.653,6.769-3.855,14.321-5.902,20.539l-6.452,20.697h-9.365
		l-5.668-20.539c-1.73-6.218-3.539-13.774-4.798-20.697h-0.157c-0.316,7.161-0.554,15.345-0.946,21.955l-0.943,20.146H6.092
		l3.383-53.04h15.975l5.195,17.707c1.654,6.137,3.308,12.747,4.486,18.965h0.237c1.493-6.14,3.302-13.144,5.034-19.046l5.67-17.626
		h15.66l2.909,53.04H52.914z M105.256,260.129l-4.09-13.613H85.979l-3.777,13.613H69.766l16.213-53.04h15.738l16.448,53.04H105.256z
		 M140.754,239.274h-3.617v20.854h-11.885v-52.332c3.855-0.631,9.6-1.104,15.975-1.104c7.869,0,13.379,1.181,17.157,4.171
		c3.147,2.52,4.879,6.218,4.879,11.097c0,6.768-4.802,11.411-9.365,13.062v0.238c3.697,1.493,5.744,5.036,7.08,9.915
		c1.654,5.979,3.309,12.905,4.331,14.952h-12.277c-0.865-1.496-2.127-5.825-3.697-12.354
		C147.918,241.164,145.633,239.352,140.754,239.274z M148.336,447.123V299.926l46.529,147.197H148.336z M201.354,260.129
		l-12.982-22.901l-4.563,5.587v17.314h-11.885v-53.04h11.885v23.451h0.231c1.185-2.047,2.439-3.936,3.624-5.825l12.04-17.626h14.717
		l-17.553,22.586l18.496,30.454H201.354z M220.248,207.089h32.739v9.835h-20.699v11.02h19.515v9.758h-19.515v12.59h21.8v9.838
		h-33.84V207.089z M290.268,447.123h-50.633l50.633-147.197V447.123z M299.421,217.162h-14.482v42.967h-12.04v-42.967h-14.243
		v-10.073h40.766V217.162z M317.836,260.129h-12.037v-53.04h12.037V260.129z M372.141,260.129h-12.593l-11.332-20.462
		c-3.147-5.664-6.61-12.513-9.207-18.729l-0.235,0.08c0.315,7.003,0.471,14.479,0.471,23.136v15.976h-11.017v-53.04h14.009
		l11.017,19.438c3.147,5.587,6.295,12.197,8.657,18.177h0.234c-0.785-7.003-1.023-14.164-1.023-22.113v-15.502h11.02V260.129z
		 M426.838,257.689c-3.697,1.259-10.7,2.99-17.707,2.99c-9.677,0-16.683-2.439-21.562-7.161c-4.879-4.563-7.554-11.489-7.474-19.28
		c0.078-17.63,12.906-27.703,30.297-27.703c6.846,0,12.12,1.339,14.715,2.598l-2.518,9.603c-2.909-1.261-6.533-2.281-12.354-2.281
		c-9.993,0-17.55,5.664-17.55,17.153c0,10.938,6.85,17.392,16.684,17.392c2.756,0,4.957-0.312,5.902-0.785v-11.097h-8.184v-9.365
		h19.75V257.689z"/>
</g>
</svg>
