<?xml version="1.0" encoding="utf-8"?>
<!-- Generator: Adobe Illustrator 16.0.0, SVG Export Plug-In . SVG Version: 6.00 Build 0)  -->
<!DOCTYPE svg PUBLIC "-//W3C//DTD SVG 1.1//EN" "http://www.w3.org/Graphics/SVG/1.1/DTD/svg11.dtd">
<svg version="1.1" id="Layer_1" xmlns="http://www.w3.org/2000/svg" xmlns:xlink="http://www.w3.org/1999/xlink" x="0px" y="0px"
	 width="433.095px" height="474.061px" viewBox="0 0 433.095 474.061" enable-background="new 0 0 433.095 474.061"
	 xml:space="preserve">
<g>
	<g>
		<path fill="#265691" d="M56.461,110.046c9.134-3.087,20.033-5.012,33-5.012c18.271,0,33.589,5.785,43.904,19.281
			c9.722,12.344,14.729,31.241,14.729,53.609c0,23.915-4.419,40.112-12.081,53.23c-10.897,19.28-29.168,28.923-46.846,28.923
			c-3.833,0-6.78,0-10.018-0.384v106.447H56.461V110.046z M79.15,234.624c2.648,0.77,5.007,1.159,8.84,1.159
			c22.39,0,37.419-19.287,37.419-55.927c0-26.614-8.544-50.525-33.589-50.525c-5.307,0-9.726,0.773-12.67,1.928V234.624z"/>
	</g>
	<g>
		<path fill="#265691" d="M278.328,234.238c0,97.578-25.633,134.99-57.455,134.99c-33.004,0-55.101-45.896-55.101-133.445
			c0-86.01,23.571-132.677,58.344-132.677C257.998,103.106,278.328,151.316,278.328,234.238z M189.344,236.166
			c0,53.613,7.958,106.837,33.003,106.837c25.634,0,32.407-56.696,32.407-107.609c0-48.596-6.773-106.062-32.703-106.062
			C197.302,129.331,189.344,183.328,189.344,236.166z"/>
	</g>
	<g>
		<path fill="#265691" d="M301.018,331.816c6.777,5.786,18.562,10.414,28.581,10.414c20.622,0,33-17.742,33-43.972
			c0-23.911-10.607-38.564-26.226-53.992c-15.615-14.27-37.416-38.568-37.416-72.125c0-39.34,20.916-68.268,52.441-68.268
			c12.378,0,23.281,5.015,27.993,9.643l-5.597,25.456c-5.008-4.628-13.26-8.868-23.574-8.868c-19.444,0-28.578,19.282-28.578,37.023
			c0,25.84,10.312,35.871,29.171,53.613c23.866,21.983,34.474,45.896,34.474,74.824c0,44.734-24.159,72.891-55.688,72.891
			c-13.559,0-27.993-5.786-33.593-11.184L301.018,331.816z"/>
	</g>
</g>
<g>
	<path fill="#265691" d="M0,0v474.061h433.095V0H0z M408.484,447.123H24.609V26.937h383.875V447.123z"/>
</g>
</svg>
