<?xml version="1.0" encoding="utf-8"?>
<!-- Generator: Adobe Illustrator 16.0.0, SVG Export Plug-In . SVG Version: 6.00 Build 0)  -->
<!DOCTYPE svg PUBLIC "-//W3C//DTD SVG 1.1//EN" "http://www.w3.org/Graphics/SVG/1.1/DTD/svg11.dtd">
<svg version="1.1" id="Layer_1" xmlns="http://www.w3.org/2000/svg" xmlns:xlink="http://www.w3.org/1999/xlink" x="0px" y="0px"
	 width="501.245px" height="469.712px" viewBox="0 0 501.245 469.712" enable-background="new 0 0 501.245 469.712"
	 xml:space="preserve">
<g>
	<g>
		<path fill="#265691" d="M501.245,469.712c-167.083,0-334.162,0-501.245,0C0,313.144,0,156.568,0,0c167.083,0,334.162,0,501.245,0
			C501.245,156.568,501.245,313.144,501.245,469.712z M49.822,443.673c0.212-4.482-0.258-8.489,0.698-12.123
			c2.674-10.173,5.915-20.197,9.001-30.261c0.425-1.378,0.322-1.915-1.175-2.511c-1.608-0.641-3.038-1.851-4.38-3.006
			c-1.873-1.615-2.72-3.711-2.333-6.253c0.415-2.716,1.014-5.448,1.036-8.178c0.035-4.31-0.563-8.628-0.444-12.935
			c0.055-1.931,0.611-4.737,1.938-5.587c4.133-2.646,8.719-4.599,13.179-6.71c3.325-1.573,6.897-2.681,10.058-4.515
			c4.39-2.543,7.54-6.263,9.606-11.077c5.214-12.133,10.849-24.089,16.04-36.231c2.395-5.6,3.933-11.561,6.246-17.198
			c3.051-7.432,6.002-14.972,9.89-21.972c3.923-7.07,7.885-14.003,9.69-21.965c2.678-11.817,5.355-23.632,8.101-35.433
			c1.444-6.211,1.451-12.319-0.505-18.45c-1.146-3.592-1.375-7.151,1.959-9.958c0.367-0.306,0.728-0.913,0.699-1.354
			c-0.178-2.755,0.035-5.667-0.809-8.22c-2.979-9.046,1.626-16.67,7.853-21.169c6.578-4.751,13.665-8.876,21.306-11.841
			c5.185-2.011,10.359-4.129,15.691-5.65c5.06-1.445,8.928-4.017,9.648-9.32c0.461-3.373,0.007-7.02-0.766-10.379
			c-1.605-6.975-3.794-13.813-5.555-20.752c-1.943-7.646-3.865-15.254-4.583-23.216c-0.682-7.596,1.249-13.942,6.276-19.271
			c4.946-5.249,11.64-7.679,18.424-9.462c5.037-1.319,10.244-2.102,15.422-2.755c4.969-0.624,9.993-0.846,15.004-1.065
			c1.011-0.045,2.263,0.486,3.045,1.169c1.946,1.692,3.781,3.481,4.051,6.382c0.438,4.634-1.712,8.441-3.327,12.329
			c1.866,4.921,7.669,8.998,2.803,15.283c2.32,2.282,4.531,4.425,6.707,6.601c2.124,2.124,1.908,3.192-0.753,4.667
			c-0.969,0.537-2.465,1.181-2.601,1.97c-0.492,2.89,0.161,5.844-1.297,8.757c-0.962,1.924-0.811,4.415-1.098,6.658
			c-0.055,0.425,0.155,0.901,0.297,1.332c0.575,1.803,0.691,3.479-0.956,4.87c-1.642,1.387-3.309,2.764-4.814,4.293
			c-1.506,1.528-3.231,3.051-4.106,4.927c-0.66,1.416-0.312,3.411-0.049,5.092c0.122,0.756,1.04,1.802,1.767,1.969
			c2.498,0.573,5.104,0.67,7.611,1.207c8.561,1.828,16.98-0.736,25.486-0.746c4.289-0.007,8.435-0.164,11.975,2.771
			c4.151,3.443,8.692,5.947,14.154,6.819c2.137,0.345,4.676,1.239,6.027,2.774c2.854,3.234,3.093,3.679,7.048,2.385
			c2.024-0.663,4.188-1.886,6.083-0.258c3.897,3.348,8.438,5.047,13.35,6.141c2.072,0.464,4.052,1.352,6.478,2.188
			c0-33.393,0-66.238,0-99.38c51.399,0,102.531,0,153.604,0c0-11.387,0-22.47,0-33.482c-158.747,0-317.275,0-475.826,0
			c0,148.786,0,297.409,0,445.974c53.13,0,106.064,0,158.956,0c0.064-0.293,0.116-0.389,0.097-0.47
			c-4.164-16.835-8.416-33.65-12.448-50.521c-1.162-4.859-3.128-8.963-7.055-12.203c-2.642-2.183-4.962-4.77-7.306-7.29
			c-0.543-0.582-0.855-1.625-0.836-2.448c0.096-4.77,0.357-9.533,0.498-14.303c0.213-7.122,0.338-14.244,0.566-21.366
			c0.101-3.138,0.325-6.275,0.554-9.406c0.702-9.648,1.368-19.297,2.183-28.933c0.318-3.801,0.952-7.579,1.516-11.357
			c0.875-5.86,1.812-11.711,2.719-17.565c-0.328-0.083-0.659-0.164-0.99-0.247c-6.157,27.806-20.688,51.897-33.396,77
			c-1.252-0.226-2.295-0.386-3.321-0.605c-1.856-0.398-3.279-0.177-4.087,1.915c-0.757,1.96-1.854,3.791-2.794,5.654
			c-5.716-2.433-8.844-1.422-11.196,3.463c-1.193,2.479-2.587,4.918-3.366,7.528c-2.323,7.771-8.827,10.375-15.438,12.812
			c-4.963,1.828-8.696,5.001-10.383,9.925c-2.922,8.535-5.464,17.198-8.064,25.84C57.134,431.505,54.414,437.639,49.822,443.673z
			 M386.849,340.209c-17.688,0-34.758,0-52.107,0c0-52.851,0-105.427,0-157.991c-4.921-0.408-9.549-0.933-14.195-1.151
			c-9.89-0.457-19.789-0.728-29.68-1.146c-1.474-0.064-2.239,0.367-2.786,1.771c-2.762,7.083-5.765,14.076-8.374,21.218
			c-1.329,3.634-2.24,7.467-2.929,11.283c-0.821,4.551-1.236,9.176-1.771,13.777c-1.081,9.291-2.262,18.576-3.135,27.887
			c-0.572,6.124,0.084,12.2,1.542,18.222c2.285,9.452,4.277,18.979,6.472,28.459c1.597,6.887,3.653,13.69,4.889,20.642
			c1.182,6.659,1.645,13.449,2.275,20.198c0.802,8.545,1.448,17.105,2.179,25.656c0.09,1.062,0.419,2.117,0.409,3.173
			c-0.039,4.178,1.364,8.625-2.298,12.155c-1.217,1.175-2.285,2.521-3.315,3.865c-0.937,1.227-2.48,2.575-2.455,3.843
			c0.084,4.357,0.695,8.709,1.188,13.054c0.666,5.838,1.432,11.666,2.107,17.504c0.605,5.227,1.102,10.469,1.723,15.695
			c0.649,5.478,1.59,10.933,1.998,16.426c0.177,2.362,0.756,3.064,3.131,3.055c19.294-0.087,38.591-0.049,57.888-0.049
			c1.709,0,3.421,0,5.117,0C365.415,418.625,376.061,379.672,386.849,340.209z M455.275,199.088
			c15.189,5.445,28.269,21.132,25.066,42.521c-2.144,14.302-13.349,29.028-31.468,31.632c-20.034,2.874-33.827-5.361-42.43-23.007
			c-4.489-9.208-4.287-19.78-0.189-29.31c4.592-10.668,12.059-19.039,23.946-22.184c-4.792-12.854-9.413-25.257-13.979-37.521
			c-8.033,2.533-16.062,2.777-24.111,0.743c-2.633-0.666-5.078-1.467-7.393,0.638c-0.798,0.728-1.564,1.513-2.462,2.092
			c-8.078,5.207-15.802,10.923-25.006,14.296c-4.866,1.782-9.404,4.296-14.808,3.774c-0.122-0.01-0.264,0.223-0.341,0.293
			c0,49.478,0,98.904,0,148.571c1.116,0,2.092,0.01,3.067-0.003c16.361-0.177,32.72-0.412,49.081-0.528
			c30.947-0.222,61.891-0.373,92.838-0.566c0.688-0.003,1.377-0.115,1.973-0.174c0-9.828,0-19.461,0-29.282
			c-40.772,0-81.322,0-121.911,0c0-3.85,0-7.502,0-11.441c40.801,0,81.416,0,122.008,0c0-42.114,0-83.938,0-126.027
			c-1.716,0.206-3.273,0.489-4.837,0.561c-5.069,0.231-9.835-1.307-14.576-2.787c-1.6-0.496-1.847-0.109-2.308,1.339
			c-2.417,7.585-5.004,15.119-7.54,22.669C458.381,189.903,456.849,194.415,455.275,199.088z M488.613,340.422
			c-25.18,0-50.157,0-75.266,0c-10.463,39.012-20.919,77.998-31.43,117.192c35.816,0,71.191,0,106.695,0
			C488.613,418.558,488.613,379.636,488.613,340.422z M342.072,53.822c0,29.624,0,58.92,0,88.496c0.73-0.399,1.265-0.667,1.78-0.973
			c5.336-3.156,10.549-6.542,16.036-9.413c4.464-2.336,4.474-2.057,4.252-6.771c-0.139-2.909-0.377-6.015,0.438-8.728
			c2.517-8.371,6.78-15.65,13.587-21.537c5.217-4.515,11.361-7.153,17.659-8.158c6.546-1.046,13.639-1.403,20.069,1.896
			c2.43,1.246,4.897,2.417,7.234,3.569c1.596-1.706,3.327-3.153,4.554-4.956c1.664-2.433,3.624-4.322,6.437-5.207
			c3.518-1.11,7.022-2.288,10.598-3.18c7.547-1.889,15.129-3.637,22.711-5.368c1.037-0.238,2.188-0.219,3.244-0.038
			c1.88,0.312,2.491,1.856,1.406,3.099c-1.493,1.709-3.359,3.398-5.419,4.238c-3.64,1.49-7.544,2.33-12.043,3.649
			c5.957,2.398,6.298,6.424,4.3,11.457c9.085-7.096,19.297-9.333,30.158-9.043c0-11.489,0-22.753,0-33.579
			c-17.024,0-33.834-0.064-50.643,0.019c-22.979,0.116-45.953,0.367-68.929,0.516C360.452,53.87,351.399,53.822,342.072,53.822z
			 M442.083,269.652c19.021,1.017,33.429-16.388,34.793-30.918c2.015-21.46-16.426-36.618-30.998-37.851
			c-24.481-2.065-38.517,18.318-38.564,34.326C407.255,253.603,424.47,271.052,442.083,269.652z M243.574,455.932
			c12.835,0,25.373,0,38.298,0c-0.467-3.669-0.94-7.103-1.333-10.546c-1.11-9.652-2.221-19.304-3.263-28.962
			c-0.956-8.869-1.818-17.748-2.742-26.621c-0.451-4.338-2.266-6.051-6.498-5.974c-8.297,0.151-16.593,0.38-24.887,0.593
			c-0.112,0.003-0.222,0.219-0.402,0.408c0.357,0.38,0.73,0.753,1.072,1.149c2.426,2.807,2.905,6.288,1.232,9.555
			c-1.175,2.295-2.64,4.457-3.602,6.829c-0.467,1.155-0.596,3.003,0.025,3.93c1.731,2.581,3.775,5.008,5.996,7.189
			c3.498,3.45,3.063,11.534,1.419,14.682c-1.667,3.189-3.446,6.379-4.599,9.768C242.294,443.824,242.551,449.903,243.574,455.932z
			 M489.167,90.479c-3.344,0.299-6.459,0.624-9.584,0.843c-5.957,0.419-10.952,3.003-15.642,6.54
			c-3.755,2.832-6.211,6.562-8.911,10.337c-5.764,8.052-5.925,16.779-4.132,25.669c1.232,6.111,3.993,11.901,9.04,16.021
			c3.614,2.947,7.187,6.462,11.405,8.026c5.529,2.053,11.573,3.714,17.823,1.615C489.167,136.773,489.167,113.975,489.167,90.479z
			 M420.058,159.932c0.045,0.222,0.084,0.766,0.268,1.259c3.958,10.598,7.952,21.182,11.895,31.789
			c1.702,4.59,1.654,4.596,6.793,3.85c0.621-0.09,1.271-0.071,1.899-0.02c3.533,0.283,7.061,0.589,10.517,0.882
			c2.282-6.43,4.619-12.821,6.811-19.258c2.201-6.488,4.258-13.021,6.365-19.49c-7.643-4.312-12.548-11.025-15.77-18.46
			c-4.013-9.256-4.628-19.136-0.083-29.028c-2.871,1.287-5.311,2.323-7.673,3.501c-0.39,0.196-0.724,1.107-0.617,1.59
			c0.962,4.394,1.248,8.744,0.495,13.25c-1.354,8.062-3.958,15.57-9.797,21.414C427.93,154.447,423.942,156.929,420.058,159.932z
			 M195.011,214.23c0.148,0.01,0.293,0.022,0.438,0.028c0.268-0.897,0.596-1.782,0.795-2.696
			c2.288-10.369,4.512-20.752,6.842-31.108c1.452-6.459,3.82-12.905,0.747-19.467c-1.89-4.032-0.264-6.903,1.957-10.225
			c1.534-2.295,3.23-2.748,5.268-2.227c1.159,0.302,2.118,1.728,2.961,2.81c0.638,0.82,0.824,1.988,1.433,2.845
			c1.645,2.308,1.483,4.396,0.1,6.864c-2.169,3.868-3.753,7.975-3.016,12.635c0.373,2.379,0.467,4.809,0.56,7.222
			c0.229,5.852,0.325,11.702,0.58,17.553c0.164,3.778,0.515,7.547,0.701,10.18c6.392-25.132,13.05-51.312,19.796-77.824
			c-7.798,3.9-15.239,7.694-22.767,11.312c-0.997,0.482-2.497,0.351-3.624,0.019c-1.332-0.386-2.497-1.316-3.749-1.988
			c-3.72-2.002-7.45-3.991-11.196-5.999c-0.209,0.454-0.344,0.604-0.341,0.756c0.157,15.632,0.125,31.266,0.569,46.887
			C193.369,192.623,194.338,203.423,195.011,214.23z M403.258,117.77c-20.851,10.484-42.538,19.293-61.871,32.633
			c-1.133-0.276-2.4-0.785-3.691-0.862c-4.666-0.273-9.339-0.405-14.012-0.579c-2.8-0.104-4.38-1.636-4.567-4.394
			c-0.115-1.689-0.589-2.693-2.606-3.386c-3.331-1.146-5.938,0.071-8.754,1.233c-3.276,1.348-6.587,2.613-9.835,3.894
			c0-1.245-0.074-2.13,0.02-2.996c0.094-0.872,0.496-1.722,0.509-2.581c0.016-1.384,0.36-3.331-0.387-4.042
			c-1.663-1.593-4.979-0.943-6.095,0.788c-1.719,2.665-3.354,5.381-5.211,8.381c-1.377-3.775-2.773-7.177-3.855-10.679
			c-1.364-4.412-6.427-8.109-10.938-7.351c-5.555,0.934-11.059,2.192-16.436,3.283c0,4.492,0,8.657,0,12.938
			c3.272-0.663,6.233-1.178,9.152-1.873c5.249-1.249,10.649,0.666,13.633,5.046c1.567,2.305,3.038,4.676,4.47,7.067
			c0.248,0.415,0.09,1.075,0.139,1.967c5.863-1.458,7.562-6.717,10.659-11.146c0.393,3.644,0.759,6.823,1.071,10.003
			c0.216,2.204,1.468,3.392,3.566,3.031c3.037-0.521,6.146-1.062,8.981-2.201c6.752-2.71,13.446-4.37,20.693-1.033
			c-0.56,2.201-1.148,4.531-1.799,7.093c2.365,0,4.374,0.171,6.321-0.09c0.714-0.094,1.519-1.107,1.869-1.886
			c0.409-0.924,0.022-2.333,0.592-3.028c1.773-2.169,3.837-4.101,5.812-6.144c-1.181,5.725-2.301,11.16-3.421,16.597
			c0.258,0.083,0.515,0.16,0.775,0.244c0.94-1.976,1.938-3.927,2.81-5.928c2.037-4.673,4.436-9.198,8.57-12.252
			c3.189-2.353,6.781-4.252,10.386-5.932c14.762-6.881,28.356-15.73,41.976-24.546C402.325,118.689,402.769,118.194,403.258,117.77z
			 M250.175,78.474c-3.446-3.263-6.395-6.057-8.747-8.283c0.438-2.417,0.701-4.097,1.049-5.761c0.558-2.658-1.764-3.92-2.716-5.851
			c-1.252-2.543-2.98-4.181-5.857-4.828c-2.929-0.662-5.689,0.438-5.979,3.328c-0.231,2.34-1.384,3.785-2.899,5.214
			c-3.54,3.347-7.286,6.491-8.229,11.746c-0.122,0.676-2.047,1.191-3.205,1.423c-0.399,0.077-1.21-0.856-1.483-1.48
			c-0.38-0.869-0.223-2.002-0.676-2.812c-1.033-1.86-1.893-4.307-3.547-5.233c-3.431-1.928-8.342,2.021-7.892,6.051
			c0.216,1.924,0.47,3.945,1.246,5.684c1.642,3.669,2.86,8.136,7.067,9.487c4.184,1.339,5.995,4.022,7.003,7.84
			c0.837,3.166,3.188,4.76,6.163,5.573c4.164,1.14,8.325,2.292,12.521,3.296c2.141,0.515,4.352,0.875,6.543,0.953
			c0.621,0.022,1.783-1.146,1.841-1.842c0.219-2.658,0.087-5.342,0.087-8.271c-1.831-0.425-4.136-0.959-6.32-1.464
			c0.122-1.04,0.01-2.115,0.412-2.933c0.389-0.798,1.828-1.976,1.914-1.905c2.379,1.957,4.113-0.431,6.115-0.585
			c0-1.21,0-2.198,0-3.119c-1.081-0.646-2.086-1.245-3.051-1.821c-1.127,1.13-2.208,2.214-3.293,3.299
			c-0.105-1.098,0.232-1.712,0.59-2.317c0.927-1.58,1.57-3.103,4.055-3.177C245.116,80.621,247.313,79.395,250.175,78.474z
			 M421.403,95.499c-13.128-7.509-26.227-7.711-38.658,0.634c-10.453,7.019-16.423,21.192-14.363,31.395
			c0.492-0.232,0.981-0.444,1.455-0.695c12.548-6.553,25.121-13.054,37.624-19.689C412.816,104.298,417.953,101.092,421.403,95.499z
			 M216.956,232.71c0.112,0.048,0.229,0.093,0.345,0.138c8.824-16.522,17.616-33.058,26.509-49.542
			c1.258-2.323,1.657-4.022-0.779-5.905c-1.654-1.281-2.81-3.209-4.132-4.779c2.407-1.95,4.875-3.858,7.225-5.902
			c0.602-0.521,1.143-1.454,1.188-2.233c0.444-7.53,0.753-15.074,1.146-22.611c0.196-3.733,0.479-7.467,0.728-11.245
			c-2.674-0.302-4.853-0.547-7.016-0.791C233.707,164.363,225.33,198.535,216.956,232.71z M58.756,390.948
			c0.345-0.273,0.602-0.405,0.76-0.611c4.187-5.484,9.754-8.207,16.606-8.786c2.06-0.174,4.515-0.045,5.963-2.32
			c3.231-5.075,6.678-10.024,9.773-15.181c1.932-3.212,1.423-4.698-1.631-7.707c-2.481-2.446-6.272-3.386-8.657-2.186
			c-6.324,3.186-12.648,6.365-18.991,9.517c-1.168,0.579-2.417,0.994-4.271,1.747c0.125,2.285-0.229,5.043,0.515,7.467
			c1.323,4.325,1.049,7.987-1.57,11.833C55.077,387.917,55.425,388.155,58.756,390.948z M427.61,130.269
			c0.847,2.948,1.719,5.974,2.527,8.773c-12.944,6.173-25.596,12.21-38.25,18.247c0.133,0.315,0.268,0.635,0.399,0.953
			c12.706,2.961,24.285,0.769,34.152-8.194c10.25-9.316,12.361-21.104,9.783-34.946c-2.313,1.175-4.283,2.179-6.146,3.125
			c1.596,3.121,2.961,5.786,4.422,8.647C432.123,128.045,429.845,129.168,427.61,130.269z M89.95,343.903
			c1.693,1.361,2.565,0.789,3.067-1.242c0.271-1.101,0.984-2.082,1.451-3.141c6.221-14.105,12.442-28.211,18.644-42.326
			c3.688-8.394,7.805-16.542,13.571-23.732c2.275-2.835,4.705-5.541,7.097-8.348c-1.52-0.573-2.891-1.095-3.611-1.371
			c1.023-4.856,1.995-9.475,2.968-14.09c-0.28-0.083-0.558-0.167-0.837-0.247c-0.238,0.428-0.496,0.853-0.718,1.29
			c-1.702,3.393-3.321,6.829-5.117,10.17c-2.648,4.917-5.754,9.622-8.065,14.688c-3.63,7.968-6.742,16.168-10.102,24.259
			C102.222,314.447,96.123,329.074,89.95,343.903z M468.824,75.706c-0.106-0.289-0.21-0.576-0.312-0.862
			c-5.593,1.423-11.177,2.874-16.773,4.268c-3.769,0.934-7.766,1.294-11.283,2.797c-5.384,2.298-10.215,5.667-13.25,10.933
			c-1.722,2.992-4.569,5.65-3.16,9.729c0.921,2.658,2.877,3.289,4.683,1.13c2.211-2.652,4.525-5.358,6.034-8.419
			c1.78-3.618,4.753-4.59,8.056-4.374c3.334,0.216,6.604,1.378,9.822,2.108c-0.106-0.805-0.226-1.706-0.345-2.61
			c0.273-0.062,0.55-0.126,0.824-0.187c0.219,0.782,0.302,1.645,0.701,2.323c0.357,0.608,0.994,1.207,1.638,1.433
			c0.406,0.138,1.517-0.432,1.51-0.663c-0.016-0.698-0.234-1.57-0.708-2.054c-2.72-2.768-5.818-4.892-9.819-5.394
			c-0.637-0.077-1.223-0.541-2.497-1.14C452.769,81.525,460.794,78.616,468.824,75.706z M144.567,165.506
			c0.502-0.538,0.812-0.84,1.095-1.172c1.831-2.134,3.279-4.875,5.555-6.301c6.913-4.322,14.138-8.152,21.253-12.146
			c2.176-1.22,4.394-2.365,7.139-3.839c-1.13,4.611-2.082,8.512-3.038,12.416c3.874-6.392,3.993-14.708,11.296-19.354
			c-0.695-0.132-0.904-0.245-1.03-0.184c-11.721,5.48-23.503,10.833-35.102,16.564c-3.048,1.506-6.282,3.553-7.286,7.231
			C143.882,160.791,142.46,163.141,144.567,165.506z M198.032,45.706c-8.187,1.467-10.63,8.071-12.467,14.395
			c-2.183,7.506-0.338,15.116,1.883,22.493c0.073-1.339-0.174-2.649-0.255-3.972c-0.271-4.477-0.512-8.956-0.673-13.439
			c-0.016-0.479,0.563-0.981,0.869-1.474c0.351,0.373,0.705,0.746,1.689,1.789C189.005,57.144,191.468,50.456,198.032,45.706z
			 M428.663,118.307c-1.976-3.662-3.875-6.965-5.57-10.366c-2.359-4.737-1.606-4.055-6.115-1.905
			c-0.139,0.064-0.244,0.196-0.386,0.315c2.413,4.802,4.83,9.601,7.27,14.457C425.519,119.944,426.919,119.214,428.663,118.307z
			 M217.455,124.515c0.161,0.212,0.321,0.418,0.482,0.628c2.195-0.85,4.415-1.645,6.585-2.559c7.289-3.083,5.818-0.548,5.967-8.468
			c0.006-0.225-0.113-0.453-0.38-1.464C225.665,116.816,221.562,120.666,217.455,124.515z M232.4,41.715
			c-0.271,1.59-0.718,3.051-0.698,4.503c0.013,0.897,0.656,2.49,1.143,2.539c1.165,0.115,2.884-0.1,3.523-0.882
			c1.87-2.288,1.587-5.723-0.215-8.339c-0.573,1.851-1.143,3.701-1.716,5.552c-0.209-0.025-0.418-0.052-0.631-0.077
			C233.35,43.933,232.89,42.854,232.4,41.715z M239.661,39.166c-0.245,3.599-0.499,7.408-0.795,11.772
			C242.985,47.292,242.953,42.648,239.661,39.166z"/>
	</g>
	<g>
		<path fill-rule="evenodd" clip-rule="evenodd" fill="#265691" d="M236.871,69.736c0.569,1.2,1.036,2.188,1.503,3.177
			c-0.181,0.289-0.361,0.579-0.544,0.869c-3.653-1.046-7.31-2.096-10.945-3.139c0.672-3.749,2.964-5.596,6.282-6.549
			c1.496-0.431,2.86-1.357,4.367-1.725c0.64-0.158,1.827,0.328,2.185,0.888C241.048,65.35,239.179,69.231,236.871,69.736z"/>
	</g>
	<g>
		<path fill-rule="evenodd" clip-rule="evenodd" fill="#265691" d="M206.548,67.803c0.956,1.402,1.838,2.69,2.717,3.98
			c-0.753,0.486-1.503,0.979-2.553,1.657c0,1.114,0,2.672,0,4.229c-0.164,0.087-0.328,0.174-0.492,0.264
			c-0.405-0.561-0.875-1.088-1.2-1.693c-0.29-0.534-0.286-1.252-0.634-1.725C201.939,71.204,202.28,69.85,206.548,67.803z"/>
	</g>
</g>
</svg>
