<?xml version="1.0" standalone="no"?>
<!DOCTYPE svg PUBLIC "-//W3C//DTD SVG 1.1//EN" "http://www.w3.org/Graphics/SVG/1.1/DTD/svg11.dtd" >
<svg xmlns="http://www.w3.org/2000/svg">
<metadata></metadata>
<defs>
<font id="al-jazeera-arabicregular" horiz-adv-x="948" >
<font-face units-per-em="2048" ascent="1638" descent="-410" />
<missing-glyph horiz-adv-x="524" />
<glyph horiz-adv-x="0" />
<glyph unicode="&#xd;" horiz-adv-x="524" />
<glyph unicode=" "  horiz-adv-x="524" />
<glyph unicode="&#x09;" horiz-adv-x="524" />
<glyph unicode="&#xa0;" horiz-adv-x="524" />
<glyph unicode="!" horiz-adv-x="352" d="M76 104q0 49 32.5 82t79.5 33t79 -32.5t32 -82.5q0 -47 -31.5 -77.5t-79.5 -30.5q-47 0 -79.5 30.5t-32.5 77.5zM98 1358h160l2 -346l-37 -654h-88l-35 654z" />
<glyph unicode="&#x22;" horiz-adv-x="624" d="M119 897v508h123v-508h-123zM397 897v508h123v-508h-123z" />
<glyph unicode="#" horiz-adv-x="1150" d="M109 367v143h165l66 344h-231v143h266l74 367h143l-74 -367h252l74 367h149l-75 -367h139v-143h-170l-68 -344h238v-143h-266l-76 -367h-146l78 367h-258l-72 -367h-145l76 367h-139zM418 510h258l63 344h-247z" />
<glyph unicode="$" horiz-adv-x="897" d="M63 301l162 16q10 -35 23.5 -69.5t36 -64t56.5 -52t87 -33.5v467q-180 53 -263 145.5t-83 229.5q0 133 84 229q84 90 262 109v88h68v-86q274 -31 333 -262q-49 -4 -86.5 -10.5t-80.5 -10.5q-14 49 -52.5 97.5t-113.5 60.5v-446q174 -51 275 -144.5t101 -210.5 q0 -150 -90 -256q-90 -102 -286 -133v-145h-68v141q-154 20 -244 101t-121 239zM246 950q0 -57 45 -120.5t137 -104.5v430q-53 -6 -88 -27.5t-55.5 -50t-29.5 -62.5t-9 -65zM496 98q94 10 155.5 68.5t61.5 155.5q0 72 -50.5 131t-166.5 94v-449z" />
<glyph unicode="%" horiz-adv-x="1579" d="M88 1022q0 176 63.5 254t194.5 78q135 0 200.5 -78t65.5 -254q0 -174 -66.5 -251t-195.5 -77q-135 0 -198.5 77t-63.5 251zM227 1024q0 -100 27 -155.5t92 -55.5q70 0 96.5 60.5t26.5 150.5q0 41 -7 79t-21.5 67.5t-38 48t-56.5 18.5q-35 0 -58.5 -17.5t-36.5 -47 t-18.5 -68.5t-5.5 -80zM371 0l690 1364h137l-684 -1364h-143zM956 328q0 176 63.5 253.5t194.5 77.5q135 0 201 -77.5t66 -253.5q0 -174 -66.5 -251t-195.5 -77q-135 0 -199 77t-64 251zM1096 330q0 -100 26.5 -155.5t91.5 -55.5q70 0 96.5 60.5t26.5 150.5q0 41 -7 78.5 t-21.5 67.5t-38 48.5t-56.5 18.5q-35 0 -58 -17.5t-36.5 -47t-18.5 -68.5t-5 -80z" />
<glyph unicode="&#x26;" horiz-adv-x="1220" d="M41 356q0 127 88 232.5t252 177.5q-100 86 -143 176t-43 152q0 72 31.5 123t81.5 83.5t111.5 48t121.5 15.5q82 0 146.5 -22.5t108.5 -60.5t66.5 -90t22.5 -112q0 -35 -10.5 -69.5t-41 -74.5t-86 -86t-145.5 -99l268 -344q27 33 51.5 81t41.5 123q25 -6 41 -10t30.5 -7 t30.5 -6t39 -9q-16 -78 -50 -155t-81 -132q51 -45 105.5 -77t105.5 -67l-97 -131q-49 29 -102 71t-111 91q-92 -80 -185 -130t-216 -50q-88 0 -167 21.5t-137 65.5t-93 111.5t-35 159.5zM211 373q0 -100 70.5 -165t179.5 -65q70 0 150.5 33t166.5 107l-317 389 q-133 -61 -191.5 -141t-58.5 -158zM358 1104q0 -18 7.5 -49t26 -66t49 -74.5t77.5 -76.5q113 66 163 120t50 129q0 63 -52 108.5t-132 45.5q-84 0 -136.5 -40t-52.5 -97z" />
<glyph unicode="'" horiz-adv-x="352" d="M119 897v508h123v-508h-123z" />
<glyph unicode="(" horiz-adv-x="647" d="M129 532q0 111 17.5 222.5t60.5 223.5t115.5 222.5t185.5 220.5h59q-115 -205 -191.5 -427t-76.5 -468q0 -244 75 -467t187 -432h-59q-111 115 -182.5 228.5t-113.5 227.5t-59.5 226.5t-17.5 222.5z" />
<glyph unicode=")" horiz-adv-x="634" d="M129 1421h59q113 -111 185.5 -221t115.5 -222t60.5 -223.5t17.5 -222.5t-17.5 -223t-59 -226t-113.5 -227.5t-182 -228.5h-60q113 209 187.5 432.5t74.5 466.5q0 246 -76.5 468.5t-191.5 426.5z" />
<glyph unicode="*" horiz-adv-x="1259" d="M78 571q14 170 155 281q53 33 117 73t142 91q74 66 63 125l-2 -2q-20 -18 -41 -21q-53 0 -55 56q0 57 53 59q35 0 57 -35q10 -25 17.5 -59.5t7.5 -81.5q0 -53 -7 -93t-18 -69q-20 -41 -49 -103.5t-65 -146.5q-78 -180 -78 -371q0 -43 4 -81.5t12 -75.5q-4 -8 -11 -13.5 t-13 -9.5q-10 53 -15.5 111.5t-3.5 124.5q0 96 18.5 188t59.5 184l115 250q8 20 14 42t8 46q-20 -45 -63 -82q-53 -31 -109.5 -69.5t-120.5 -87.5q-133 -109 -147 -277q-2 -27 0 -53.5t10 -56.5q23 102 78 102q61 6 104 -115q12 -35 13 -82q0 -92 -68 -92q-55 0 -100 62v-10 q0 -86 28 -142q41 -76 117 -76q68 0 112 75t60 224q10 63 35 84l82 78q35 33 39 49l12 -86q6 -37 -37 -73l-80 -72q-8 -16 -10 -33q-18 -156 -31 -205q-31 -111 -104 -127q-8 -2 -16.5 -3t-22.5 -1q-150 0 -205 205q-18 76 -14 174q-2 0 -2 2v4q-18 33 -35 103 q-6 35 -8 62.5t-2 49.5zM168 346q27 -23 57 -22q58 0 60 57q-12 37 -43 37q-49 0 -74 -72zM260 614q-14 35 10 80q20 35 58 62q10 12 16 10q2 -6 -6 -18l-41 -37q-23 -35 -23 -60q6 -18 19 -18q8 0 12 4q0 8 12 31q10 0 11 -9q0 -37 -27 -59q-12 -6 -18 -6q-14 0 -23 20z M381 1079q0 53 55 58q54 -1 58 -56q2 -53 -54 -57q-57 -2 -59 55zM406 -33q8 4 15 10.5t15 10.5q55 -121 129 -121q4 0 8.5 1t8.5 1q55 16 77 102l23 148q4 35 11 64.5t16 58.5q2 10 8 21t14 24q37 61 148 166l30 30q90 106 82 183q-16 -23 -90 -80q-66 -49 -86 -88 q-10 29 -14 48t-8 27q-10 45 18 76q59 66 53 144q-2 18 -7 37.5t-17 37.5q-16 23 -58.5 72t-113.5 129q6 -37 6 -72q0 -115 -70 -245q-82 -150 -78 -271l-24 -22q-4 20 -4 39.5v38.5q0 100 90 311q55 131 55 205q0 29 -22 86q-10 29 -15.5 51t-5.5 37q0 55 43 114 q-45 84 -45 154q0 98 53 135q14 14 31 15q2 -2 2 -5l-2 -4q-53 -29 -53 -86q0 -90 82 -192q72 -90 124 -159t87 -116q68 -94 116.5 -177t83.5 -154q41 -84 59.5 -164t18.5 -158q0 -92 -22.5 -161.5t-65.5 -121.5q-84 -88 -227 -88q-6 0 -35 1t-84 24q8 59 18 96q0 -4 7 -4 q18 -4 37.5 -6t39.5 -2q125 0 201 100q74 92 74 217q0 98 -64.5 233.5t-199.5 309.5q-96 123 -151.5 196.5t-72.5 96.5q-27 -33 -26 -72q0 -51 51 -104q20 -20 50 -52t71 -79q80 -90 104 -172v-8q6 -25 6 -54q0 -37 -14 -65l92 86v-2q37 -123 37 -219q0 -55 -16 -88 q-27 -59 -107 -152l-129 -141q-16 -33 -35 -183q-4 -45 -7 -77.5t-5 -49.5q-20 -106 -111 -106q-129 0 -210 184zM506 -39l61 74l62 -53l-62 -72zM520 88l60 70l63 -52l-63 -71zM541 328l26 24q41 -70 119 -123q-4 -16 -8 -36.5t-8 -45.5q-41 35 -74 80t-55 101zM653 664 q0 6 62 79l59 60q4 10 8 16t6 10l9 -32q0 -10 -64 -80l-57 -64q-4 -6 -9 -12t-8 -14zM676 416l43 88l72 -35l-41 -86zM797 0q-4 8 2 14q6 4 10 -12t20 -43q8 -18 29 -12q6 6 6 16v12q17 -6 25 -43q6 -23 -10 -28q-18 -10 -45 18q-16 23 -25 45zM915 262l41 88l70 -35 l-37 -86z" />
<glyph unicode="+" horiz-adv-x="1058" d="M109 375v147h342v342h147v-342h344v-147h-344v-344h-147v344h-342z" />
<glyph unicode="," horiz-adv-x="503" d="M127 119q0 47 32 77.5t79 30.5q61 0 101 -56t40 -142q0 -121 -68 -209q-18 -23 -43.5 -45.5t-60.5 -46.5l-25 43q23 23 40.5 40t31.5 33q41 59 41 101q0 43 -84 61q-37 10 -60.5 41t-23.5 72z" />
<glyph unicode="-" d="M109 510v147h749v-147h-749z" />
<glyph unicode="." horiz-adv-x="432" d="M104 104q0 49 33 82t80 33t79 -32.5t32 -82.5q0 -47 -32 -77.5t-79 -30.5t-80 30.5t-33 77.5z" />
<glyph unicode="/" horiz-adv-x="1019" d="M96 0l690 1364h179l-684 -1364h-185z" />
<glyph unicode="0" horiz-adv-x="1087" d="M72 680q0 193 24.5 326t78.5 215t140 117.5t209 35.5q119 0 204 -35.5t139.5 -117.5t79 -215.5t24.5 -329.5q0 -195 -31 -328t-88 -216t-140 -119t-188 -36q-92 0 -175 27t-144.5 103.5t-97 214t-35.5 358.5zM246 676q0 -178 14 -284.5t47 -164t86 -76t131 -18.5 q80 0 131.5 23.5t82 84t43 166t12.5 269.5q0 178 -12.5 286.5t-43 167t-82 78t-131.5 19.5q-86 0 -140 -24.5t-85 -87t-42 -169t-11 -270.5z" />
<glyph unicode="1" horiz-adv-x="587" d="M51 893v176q84 49 160 121t117 158l6 10h129v-1358h-158v1073q-53 -51 -118.5 -98t-135.5 -82z" />
<glyph unicode="2" horiz-adv-x="1007" d="M72 0q14 68 38.5 134.5t66.5 136t104.5 145.5t152.5 162q45 43 96.5 82.5t94.5 82.5t70.5 94.5t27.5 116.5q0 49 -10.5 95.5t-37 82t-73.5 57t-121 21.5q-41 0 -84 -14t-77.5 -45t-56 -79t-21.5 -114h-158q0 82 25.5 155t77 127t127 86t175.5 32t177 -30t129.5 -82 t78 -121.5t25.5 -149.5q0 -74 -17.5 -128t-58.5 -106.5t-108.5 -116t-165.5 -155.5q-35 -33 -69 -64.5t-65.5 -68.5t-62 -82t-59.5 -107h637v-147h-858z" />
<glyph unicode="3" horiz-adv-x="929" d="M55 362h158q10 -43 24.5 -81.5t42 -69.5t71.5 -49.5t116 -18.5q78 0 128 25t78.5 66.5t39 95t10.5 110.5q0 55 -22.5 97.5t-58.5 71t-79 43t-86 14.5h-88l-4 147h8q53 0 102.5 14.5t86 41t59.5 61.5t23 78q0 37 -8.5 74.5t-32 66.5t-64.5 47t-106 18q-59 0 -100.5 -15 t-69 -42t-43 -60.5t-25.5 -70.5h-158q18 96 60.5 162.5t97.5 106.5t118.5 57.5t125.5 17.5q180 0 276 -94t96 -252q0 -98 -41.5 -171t-160.5 -116q129 -27 195.5 -100.5t66.5 -208.5q0 -100 -33 -181t-89 -139.5t-134 -90t-166 -31.5q-176 0 -281.5 95t-132.5 281z" />
<glyph unicode="4" horiz-adv-x="1107" d="M68 299v160l612 899h178v-914h199v-145h-199v-299h-158v299h-632zM229 444h471v686z" />
<glyph unicode="5" horiz-adv-x="1011" d="M82 350h158q12 -37 35.5 -73.5t58.5 -67.5t83 -50.5t107 -19.5q68 0 118 27t83 74t49.5 110.5t16.5 136.5q0 139 -68 196.5t-229 57.5q-25 0 -58 -7t-63.5 -20.5t-58 -31.5t-44.5 -43l-153 2l139 717h643v-148h-522l-70 -379q25 12 55.5 22.5t62.5 19t63.5 12.5t56.5 4 q88 0 161.5 -26.5t127 -77t84 -124t30.5 -167.5q0 -111 -31.5 -204t-89 -161t-135.5 -105.5t-172 -37.5q-72 0 -143.5 23.5t-132 69.5t-103.5 113.5t-59 157.5z" />
<glyph unicode="6" horiz-adv-x="950" d="M68 641q0 209 24.5 348t76.5 223t136 120t205 36q170 0 262 -82t117 -227h-158q-8 31 -19.5 60.5t-34 53t-61 37t-102.5 13.5q-66 0 -118 -22.5t-91 -81t-59.5 -160t-20.5 -257.5q27 31 64 54.5t78 38t84 21.5t81 7q180 0 272.5 -107.5t92.5 -279.5q0 -115 -33 -199.5 t-89 -140t-130 -83t-156 -27.5q-111 0 -190.5 33.5t-130.5 110.5t-75.5 202t-24.5 309zM240 459q0 -72 11 -129.5t39.5 -97t81 -62.5t132.5 -23q229 0 229 285q0 104 -64.5 171t-179.5 67q-43 0 -87 -12.5t-79.5 -38t-59 -65.5t-23.5 -95z" />
<glyph unicode="7" horiz-adv-x="950" d="M51 1210v148h846l2 -148q-82 -94 -167 -237.5t-157.5 -308t-120.5 -337.5t-57 -327h-166q8 147 51.5 311t110 324t151.5 308.5t177 266.5h-670z" />
<glyph unicode="8" horiz-adv-x="960" d="M41 387q0 43 6 90t26.5 92t58.5 85t104 69q-43 33 -75 60.5t-53.5 57t-31.5 65.5t-10 85q0 84 23.5 152.5t72.5 118t127 77t186 27.5q211 0 312.5 -103.5t101.5 -271.5q0 -53 -11.5 -91t-34 -67.5t-54 -56t-72.5 -53.5q63 -25 101 -61.5t58.5 -80.5t26.5 -94.5t6 -99.5 q0 -104 -35.5 -178t-94 -121t-134.5 -69.5t-158 -26.5q-84 -4 -163.5 19.5t-142 72.5t-101.5 125t-39 178zM215 414q0 -80 24.5 -133.5t63.5 -84t86 -43t92 -12.5t90 13.5t82 44t59.5 83t22.5 130.5q0 70 -23.5 115.5t-60.5 74.5t-83 41t-91 12q-53 0 -100 -14t-83 -45 t-57.5 -76t-21.5 -106zM233 997q0 -57 23 -98t57.5 -66.5t77.5 -38t84 -12.5q39 0 82 12.5t77 38t56.5 66.5t22.5 98q0 76 -21.5 120t-56.5 66.5t-77 30t-81 7.5q-41 0 -84 -5.5t-78.5 -27t-58.5 -66.5t-23 -125z" />
<glyph unicode="9" horiz-adv-x="952" d="M66 918q0 115 32.5 198.5t89 139t130 82t155.5 26.5q111 0 190.5 -33t131 -109.5t76 -200.5t24.5 -308q0 -209 -24.5 -348.5t-77 -223.5t-137.5 -119.5t-203 -35.5q-170 0 -262.5 82t-116.5 227h157q8 -31 19.5 -60.5t34 -53t61.5 -37t103 -13.5q63 0 116 22.5t92 81 t59.5 160t20.5 256.5q-27 -31 -63.5 -54.5t-77.5 -37.5t-84 -21.5t-82 -7.5q-180 0 -272 107.5t-92 280.5zM229 922q0 -104 64.5 -171t179.5 -67q43 0 87 12.5t80 38t59.5 65.5t23.5 95q0 70 -11.5 129t-40 100t-80.5 64.5t-132 23.5q-113 0 -171.5 -74.5t-58.5 -215.5z" />
<glyph unicode=":" horiz-adv-x="432" d="M104 104q0 49 33 82t80 33t79 -32.5t32 -82.5q0 -47 -32 -77.5t-79 -30.5t-80 30.5t-33 77.5zM104 675q0 49 33 82t80 33t79 -32.5t32 -82.5q0 -47 -32 -77.5t-79 -30.5t-80 30.5t-33 77.5z" />
<glyph unicode=";" horiz-adv-x="489" d="M104 675q0 49 33 82t80 33t79 -32.5t32 -82.5q0 -47 -32 -77.5t-79 -30.5t-80 30.5t-33 77.5zM127 119q0 47 32 77.5t79 30.5q61 0 101 -56t40 -142q0 -121 -68 -209q-18 -23 -43.5 -45.5t-60.5 -46.5l-25 43q23 23 40.5 40t31.5 33q41 59 41 101q0 43 -84 61 q-37 10 -60.5 41t-23.5 72z" />
<glyph unicode="&#x3c;" horiz-adv-x="1218" d="M78 416v202l975 439v-238l-670 -301l670 -303v-238z" />
<glyph unicode="=" horiz-adv-x="1038" d="M127 301v148h805v-148h-805zM127 604v148h805v-148h-805z" />
<glyph unicode="&#x3e;" horiz-adv-x="1218" d="M78 -23v238l672 303l-672 301v238l975 -439v-202z" />
<glyph unicode="@" horiz-adv-x="1892" d="M53 414q0 209 74 383t203 298t303 192.5t377 68.5q164 0 308 -49.5t251.5 -142.5t170 -227t62.5 -302q0 -131 -47 -253t-130 -215t-195.5 -149.5t-243.5 -56.5q-78 0 -117 26.5t-51 80.5q-113 -106 -254 -107q-158 0 -247 106.5t-89 286.5q0 125 36 238t100.5 197.5 t153.5 135t193 50.5q84 0 153 -34t110 -99l26 110h176l-143 -671q-4 -31 -8 -51.5t-4 -30.5q0 -12 10 -20.5t24.5 -14.5t28.5 -9t23 -3q100 0 167.5 55t107.5 134t57.5 163t17.5 141q0 158 -57.5 265.5t-149.5 173t-209 94t-235 28.5q-207 0 -359.5 -63.5t-253 -174 t-148.5 -257t-48 -312.5q0 -342 212 -521t603 -179q225 0 393.5 67t277.5 214h146q-59 -117 -155.5 -196t-208 -128t-226.5 -69.5t-211 -20.5q-205 0 -383 51t-309 156.5t-207 265.5t-76 375zM602 365q0 -61 20.5 -108.5t51.5 -79.5t67.5 -47t69.5 -15q98 0 158.5 57 t94.5 135t45 158t11 123q0 72 -17.5 120t-45 75.5t-61 39t-64.5 11.5q-86 0 -148.5 -43t-102.5 -112t-59.5 -151.5t-19.5 -162.5z" />
<glyph unicode="[" horiz-adv-x="600" d="M125 -371v1803h379l-6 -150h-215v-1505h221v-148h-379z" />
<glyph unicode="\" horiz-adv-x="1017" d="M96 1364h178l691 -1364h-185z" />
<glyph unicode="]" horiz-adv-x="628" d="M125 -223h221v1505h-215l-6 150h379v-1803h-379v148z" />
<glyph unicode="{" horiz-adv-x="696" d="M49 457v149q113 4 160 88t47 285q0 141 14.5 227t54.5 134.5t109.5 67.5t181.5 26v-148q-86 0 -126.5 -20.5t-55 -69.5t-14.5 -132t-4 -210q-6 -74 -18.5 -124t-32 -86t-49 -62.5t-68.5 -51.5q104 -59 139 -212.5t35 -401.5q0 -43 8 -69.5t29.5 -41t59.5 -19.5t97 -5 v-152q-129 0 -201.5 27t-108.5 80t-43 131t-7 182q0 68 -3 139.5t-22.5 132t-61.5 98.5t-120 38z" />
<glyph unicode="|" horiz-adv-x="608" d="M178 -371v1805h158v-1805h-158z" />
<glyph unicode="}" horiz-adv-x="669" d="M49 -219q59 0 97 5t59.5 19.5t30 41t8.5 69.5q0 248 34.5 401.5t139.5 212.5q-39 25 -69 51.5t-49 62.5t-31.5 86t-18.5 124q-4 127 -4 210t-14.5 132t-55.5 69.5t-127 20.5v148q113 -6 182.5 -25.5t109.5 -68t54.5 -134.5t14.5 -227q0 -201 47 -285t159 -88v-149 q-78 0 -119.5 -38t-61 -98.5t-22.5 -132t-3 -139.5q0 -104 -7.5 -182t-43 -131t-108.5 -80t-202 -27v152z" />
<glyph unicode="&#xa3;" horiz-adv-x="1044" d="M39 606v146h162q-51 147 -51 256q0 72 31.5 136t86 113.5t128 78t159.5 28.5q168 0 260 -82t137 -223l-178 -27q-39 96 -93 139t-132 43q-43 0 -83 -15t-69.5 -43t-48 -65.5t-18.5 -84.5q0 -20 5 -51t13 -65t18.5 -70t22.5 -68h295v-146h-258q2 -10 2 -19v-20 q0 -109 -53 -202t-115 -168q43 14 72.5 16t66.5 2q51 0 97.5 -8t91.5 -17.5t89 -17.5t91 -8q37 0 76 7t82 24l59 -125q-47 -41 -112.5 -52.5t-116.5 -11.5q-55 0 -106.5 11.5t-101.5 25.5t-100.5 25.5t-103.5 11.5t-107.5 -16.5t-111.5 -51.5q-23 49 -41 89t-37 83 q94 78 142.5 168t48.5 199v27.5t-2 27.5h-197z" />
<glyph unicode="&#xab;" horiz-adv-x="954" d="M43 680l242 354h243l-252 -356l250 -365h-241zM410 680l239 354h246l-254 -356l250 -365h-242z" />
<glyph unicode="&#xad;" d="M109 510v147h749v-147h-749z" />
<glyph unicode="&#xb7;" horiz-adv-x="407" d="M92 502q0 25 8.5 44t24.5 36q37 32 80 32q25 0 44 -8t36 -24q31 -35 30 -80q0 -47 -30 -80q-16 -16 -36 -24.5t-44 -8.5q-43 0 -80 33q-33 37 -33 80z" />
<glyph unicode="&#xbb;" horiz-adv-x="954" d="M72 313l247 361l-247 360h241l240 -360l-240 -361h-241zM436 313l250 361l-250 360h240l239 -360l-239 -361h-240z" />
<glyph unicode="&#xd7;" horiz-adv-x="997" d="M178 205l242 241l-242 244l105 103l241 -242l244 244l102 -105l-241 -244l241 -241l-102 -105l-244 244l-241 -242z" />
<glyph unicode="&#xf7;" horiz-adv-x="1087" d="M143 451v147h834v-147h-834zM436 102q0 49 33 82t80 33t78.5 -32.5t31.5 -82.5q0 -47 -31.5 -77.5t-78.5 -30.5t-80 30.5t-33 77.5zM436 891q0 49 33 82t80 33t78.5 -33t31.5 -82q0 -47 -31.5 -78t-78.5 -31t-80 31t-33 78z" />
<glyph unicode="&#x2000;" horiz-adv-x="822" />
<glyph unicode="&#x2001;" horiz-adv-x="1645" />
<glyph unicode="&#x2002;" horiz-adv-x="822" />
<glyph unicode="&#x2003;" horiz-adv-x="1645" />
<glyph unicode="&#x2004;" horiz-adv-x="548" />
<glyph unicode="&#x2005;" horiz-adv-x="411" />
<glyph unicode="&#x2006;" horiz-adv-x="274" />
<glyph unicode="&#x2007;" horiz-adv-x="274" />
<glyph unicode="&#x2008;" horiz-adv-x="205" />
<glyph unicode="&#x2009;" horiz-adv-x="329" />
<glyph unicode="&#x200a;" horiz-adv-x="91" />
<glyph unicode="&#x2010;" d="M109 510v147h749v-147h-749z" />
<glyph unicode="&#x2011;" d="M109 510v147h749v-147h-749z" />
<glyph unicode="&#x2012;" d="M109 510v147h749v-147h-749z" />
<glyph unicode="&#x2013;" horiz-adv-x="888" d="M82 479v139h625q90 0 90 -88v-135h-623q-92 0 -92 84z" />
<glyph unicode="&#x2014;" horiz-adv-x="1603" d="M82 479v139h1339q90 0 90 -88v-135h-1337q-92 0 -92 84z" />
<glyph unicode="&#x2018;" horiz-adv-x="368" d="M66 1067q0 119 67 209q18 23 44 45t61 47l24 -43l-40 -40t-32 -34q-41 -59 -40 -100q0 -43 83 -61q37 -10 60.5 -41t23.5 -72q0 -47 -31.5 -78t-78.5 -31q-61 0 -101 56.5t-40 142.5z" />
<glyph unicode="&#x2019;" horiz-adv-x="378" d="M66 1260q0 47 31.5 77.5t78.5 30.5q61 0 101 -56.5t40 -142.5q0 -121 -67 -208q-18 -23 -44 -45.5t-61 -47.5l-24 43q23 23 40 40.5t32 33.5q41 59 40 100q0 43 -83 62q-37 10 -60.5 41t-23.5 72z" />
<glyph unicode="&#x201c;" horiz-adv-x="727" d="M66 1067q0 119 67 209q18 23 44 45t61 47l24 -43l-40 -40t-32 -34q-41 -59 -40 -100q0 -43 83 -61q37 -10 60.5 -41t23.5 -72q0 -47 -31.5 -78t-78.5 -31q-61 0 -101 56.5t-40 142.5zM420 1067q0 119 67 209q18 23 44 45t61 47l24 -43l-40 -40t-31 -34q-41 -59 -41 -100 q0 -43 84 -61q37 -10 60.5 -41t23.5 -72q0 -47 -32 -78t-79 -31q-61 0 -101 56.5t-40 142.5z" />
<glyph unicode="&#x201d;" horiz-adv-x="745" d="M66 1260q0 47 31.5 77.5t78.5 30.5q61 0 101 -56.5t40 -142.5q0 -121 -67 -208q-18 -23 -44 -45.5t-61 -47.5l-24 43q23 23 40 40.5t32 33.5q41 59 40 100q0 43 -83 62q-37 10 -60.5 41t-23.5 72zM420 1260q0 47 31.5 77.5t78.5 30.5q61 0 101.5 -56.5t40.5 -142.5 q0 -121 -68 -208q-18 -23 -43.5 -45.5t-60.5 -47.5l-25 43q23 23 40 40.5t32 33.5q41 59 41 100q0 43 -84 62q-37 10 -60.5 41t-23.5 72z" />
<glyph unicode="&#x2026;" horiz-adv-x="1323" d="M104 104q0 49 33 82t80 33t79 -32.5t32 -82.5q0 -47 -32 -77.5t-79 -30.5t-80 30.5t-33 77.5zM548 104q0 49 33 82t80 33t79 -32.5t32 -82.5q0 -47 -32 -77.5t-79 -30.5t-80 30.5t-33 77.5zM981 104q0 49 33 82t80 33t79 -32.5t32 -82.5q0 -47 -32 -77.5t-79 -30.5 t-80 30.5t-33 77.5z" />
<glyph unicode="&#x202f;" horiz-adv-x="329" />
<glyph unicode="&#x205f;" horiz-adv-x="411" />
<glyph unicode="&#x20ac;" horiz-adv-x="1116" d="M51 508q8 51 19 94h104v166h-123q10 59 19 96h112q25 117 79 209t133 155.5t177.5 96.5t210.5 33q70 0 129.5 -5t108.5 -28l-39 -168q-43 29 -96.5 41t-118.5 12q-66 0 -131.5 -24.5t-123.5 -70.5t-101 -109.5t-62 -141.5h574q-4 -29 -9.5 -52.5t-11.5 -43.5h-569 q-6 -57 -6 -90t4 -76h536q-6 -29 -11 -51.5t-9 -42.5h-498q23 -86 66 -153.5t99 -113.5t120.5 -70t128.5 -24q156 0 258 70v-168q-25 -8 -56.5 -16t-66.5 -15.5t-69.5 -12.5t-63.5 -5q-106 0 -201.5 34t-172.5 99.5t-131 159.5t-79 215h-129z" />
<glyph unicode="&#x25fc;" horiz-adv-x="1024" d="M0 0z" />
</font>
</defs>
</svg>
