<?xml version="1.0" standalone="no"?>
<!DOCTYPE svg PUBLIC "-//W3C//DTD SVG 1.1//EN" "http://www.w3.org/Graphics/SVG/1.1/DTD/svg11.dtd" >
<svg xmlns="http://www.w3.org/2000/svg">
<metadata></metadata>
<defs>
<font id="duru_sansregular" horiz-adv-x="1196" >
<font-face units-per-em="2048" ascent="1638" descent="-410" />
<missing-glyph horiz-adv-x="686" />
<glyph horiz-adv-x="2048" />
<glyph horiz-adv-x="2048" />
<glyph unicode="&#xd;" horiz-adv-x="0" />
<glyph horiz-adv-x="0" />
<glyph horiz-adv-x="0" />
<glyph horiz-adv-x="0" />
<glyph horiz-adv-x="0" />
<glyph horiz-adv-x="0" />
<glyph horiz-adv-x="0" />
<glyph horiz-adv-x="0" />
<glyph horiz-adv-x="0" />
<glyph unicode="&#x9;" horiz-adv-x="0" />
<glyph horiz-adv-x="0" />
<glyph horiz-adv-x="0" />
<glyph horiz-adv-x="0" />
<glyph horiz-adv-x="0" />
<glyph horiz-adv-x="0" />
<glyph horiz-adv-x="0" />
<glyph horiz-adv-x="0" />
<glyph horiz-adv-x="0" />
<glyph horiz-adv-x="0" />
<glyph horiz-adv-x="0" />
<glyph unicode=" "  horiz-adv-x="686" />
<glyph unicode="&#x09;" horiz-adv-x="686" />
<glyph unicode="&#xa0;" horiz-adv-x="686" />
<glyph unicode="!" horiz-adv-x="682" d="M237 0v203h207v-203h-207zM245 1588h188l-27 -1199h-134z" />
<glyph unicode="&#x22;" horiz-adv-x="854" d="M160 1601h178l-32 -596h-114zM516 1601h177l-31 -596h-114z" />
<glyph unicode="#" horiz-adv-x="1366" d="M110 502v130h248l58 349h-217v130h238l73 444h146l-71 -444h268l74 444h146l-71 -444h254l-7 -130h-268l-56 -349h243l-7 -130h-256l-79 -486h-153l78 486h-263l-77 -486h-153l80 486h-228zM508 632h267l58 349h-269z" />
<glyph unicode="$" horiz-adv-x="1197" d="M152 1164q10 232 224 316q72 28 167 33v216h99v-216q160 -9 338 -87l-39 -160q-185 78 -299 90v-488q5 -4 11.5 -6t55 -25t118.5 -63.5t118 -87.5q98 -97 98 -244q0 -250 -229 -340q-72 -28 -172 -35v-241h-99v241q-177 5 -375 114l39 157q192 -96 336 -111v506 q-83 39 -153.5 76.5t-122.5 84.5q-111 102 -115 270zM335 1166q-13 -121 125 -205q40 -24 83 -45v440q-198 -17 -208 -190zM642 227q162 14 206 120q13 33 17 79t-15.5 87t-52.5 73q-49 47 -155 99v-458z" />
<glyph unicode="%" horiz-adv-x="1877" d="M122 1164q0 197 98 308q98 109 273 109q169 0 265 -109q96 -112 96 -308q0 -302 -210 -388q-67 -28 -152.5 -28t-154.5 27.5t-117 80.5q-98 108 -98 308zM286 1164q0 -145 62 -224q56 -70 144 -70q39 0 75.5 17t64.5 53q62 80 62 224q0 143 -62 223q-55 71 -139 71 q-88 0 -145 -71q-62 -79 -62 -223zM407 33l961 1580l113 -58l-959 -1583zM1023 414q0 100 25.5 177t73.5 131q97 109 271 109q169 0 265 -109q96 -112 96 -307q0 -199 -96 -309q-95 -108 -265 -108q-266 0 -345 238q-25 78 -25 178zM1187 414q0 -76 17 -131.5t46 -91.5 q56 -71 143 -71q83 0 139 71q63 79 63 224q0 144 -63 223q-56 71 -139 71q-87 0 -143 -71q-63 -79 -63 -224z" />
<glyph unicode="&#x26;" horiz-adv-x="1537" d="M163 407v16q0 149 97 275q88 115 235 185q-110 138 -120 316q-6 153 95 259q99 105 245 105q147 0 239 -89q91 -86 91 -224q0 -164 -119 -267q-19 -16 -48 -39l-167 -124q7 -9 13.5 -19t22.5 -30q233 -277 336 -378q69 60 133 189q19 39 34 80l146 -104 q-100 -184 -216 -280l238 -188l-152 -127l-180 199q-178 -182 -441 -182q-187 0 -325 116q-142 119 -156 295q-1 8 -1 16zM333 453.5q0 -78.5 24 -134t67 -97t103 -66t118.5 -24.5t103.5 10.5t87 28.5q83 35 155 92l-438 494q-83 -30 -162 -134q-58 -91 -58 -169.5z M534 1202q0 -116 91 -250l9 -16q158 88 222 225q23 48 23 114.5t-41.5 105.5t-100.5 39t-94.5 -18t-59.5 -48q-49 -61 -49 -152z" />
<glyph unicode="'" horiz-adv-x="512" d="M167 1601h178l-32 -596h-114z" />
<glyph unicode="(" horiz-adv-x="854" d="M216 685q0 364 162 723q54 119 127 228l132 -66q-198 -290 -248 -666q-15 -113 -15 -219q0 -353 144 -673q50 -111 119 -211l-132 -68q-212 320 -271 717q-18 121 -18 235z" />
<glyph unicode=")" horiz-adv-x="854" d="M216 -199l132 -68q212 320 271 717q18 121 18 235q0 364 -162 723q-54 119 -127 228l-132 -66q198 -290 248 -666q15 -113 15 -219q0 -353 -144 -673q-50 -111 -119 -211z" />
<glyph unicode="*" horiz-adv-x="1195" d="M182 1139l18 7q95 48 135 57l154 51l7 -4q4 -44 40 -70l-135 -102q-39 -34 -86.5 -59t-56.5 -28zM184 1387l74 145q85 -38 143 -88l137 -104q-38 -36 -42 -74l-161 50q-17 6 -35 14q-51 23 -70 32l-30 15zM515 833v29q0 90 12 136l26 170q18 -9 40.5 -9t44.5 5l30 -166 q11 -52 11 -104v-61h-164zM515 1621v64h164v-29q0 -83 -11 -138l-33 -169q-18 9 -39 9q-18 0 -43 -9l-26 169q-12 48 -12 103zM654 1340l138 104q30 25 66 45l76 43l79 -143l-18 -12l-63 -31q-40 -18 -79 -30h3l-153 -50l-8 4q-3 35 -41 70zM657 1180q33 28 42 77l157 -54 h-3q38 -8 68 -22l74 -35q9 -9 18 -9l-79 -146q-7 3 -24 12l-38 21q-53 30 -80 54z" />
<glyph unicode="+" d="M136 706v117h398v398h126v-398h399v-117h-399v-400h-126v400h-398z" />
<glyph unicode="," horiz-adv-x="682" d="M194 -210q84 138 100 242q7 41 8 91v144l186 11v-97q0 -284 -137 -431z" />
<glyph unicode="-" horiz-adv-x="853" d="M126 518v153h601v-153h-601z" />
<glyph unicode="." horiz-adv-x="682" d="M225 0v203h232v-203h-232z" />
<glyph unicode="/" horiz-adv-x="1024" d="M86 -57l711 1791l140 -56l-711 -1791z" />
<glyph unicode="0" horiz-adv-x="1364" d="M167 774q0 362 135 576q137 218 380 218q242 0 380 -218q135 -213 135 -576q0 -364 -135 -577q-138 -217 -380 -217q-244 0 -380 217q-135 214 -135 577zM345 774q0 -293 87 -464q89 -176 250 -176q83 0 146 46t105 130q85 170 85 464q0 293 -85 463q-88 176 -251 176 q-161 0 -250 -176q-87 -171 -87 -463z" />
<glyph unicode="1" horiz-adv-x="1025" d="M221 1406l4 148h455v-1554h-170v1243q0 56 7 163h-296z" />
<glyph unicode="2" horiz-adv-x="1194" d="M172 1368q119 195 373 200q223 4 347 -114q120 -114 120 -321q0 -313 -317 -685q-67 -78 -139 -152l-144 -146h609l-12 -150h-807l-28 115q60 72 133 147l147 156q179 190 249 307.5t100 212t26.5 177.5t-21.5 136.5t-54 91.5q-74 80 -216 80q-123 0 -228 -106 q-32 -33 -55 -74z" />
<glyph unicode="3" horiz-adv-x="1194" d="M157 58l53 152q130 -78 248.5 -78t188 25t115.5 67q89 83 91 218q2 165 -105 245q-93 69 -253 67h-58v139h53q117 -2 209 69q106 81 106 217q-11 205 -226 232q-26 3 -50 3q-137 0 -272 -87l-72 137q175 108 359 104q179 0 302 -90q142 -104 142 -290q0 -112 -65 -209 q-70 -105 -190 -147q208 -36 279 -232q26 -70 24 -165.5t-39 -179.5t-107 -145q-150 -132 -406 -130q-195 0 -327 78z" />
<glyph unicode="4" horiz-adv-x="1194" d="M39 574l609 980h266v-998h240l-27 -147h-213v-409h-169v409h-685zM222 556h523v859z" />
<glyph unicode="5" horiz-adv-x="1194" d="M150 803l136 751h737l-13 -150h-594q3 -48 -27 -221l-57 -271q197 91 381 45q144 -36 235 -147q95 -115 95 -320q-2 -251 -163 -388q-146 -124 -376 -122q-147 0 -276 48q-37 14 -64 30l53 152q127 -76 287 -76q154 0 252 87q107 96 109 269q0 121 -31 177t-61 81.5 t-65 41.5q-126 59 -292 14q-72 -19 -135 -54z" />
<glyph unicode="6" horiz-adv-x="1194" d="M120 608q0 249 68.5 431.5t170.5 288.5q198 206 590 242l22 -153q-287 -24 -449 -162t-210 -399q120 106 322 106q146 0 240 -61q141 -94 186 -279q39 -164 -22 -338q-66 -188 -240 -265q-88 -39 -192 -38.5t-176 25.5t-125 69t-88.5 103.5t-56.5 128.5q-40 127 -40 301z M289 573.5q0 -70.5 17 -155t54 -148.5q78 -136 234 -140q291 0 304 354q4 216 -144 300q-60 34 -126 34t-108.5 -7t-83.5 -20q-82 -26 -142 -70l-1 -29q-4 -48 -4 -118.5z" />
<glyph unicode="7" horiz-adv-x="1194" d="M111 1404l4 150h938l30 -105l-672 -1451l-164 66l551 1164q60 120 100 176h-787z" />
<glyph unicode="8" horiz-adv-x="1194" d="M127 379q0 89 25.5 152.5t69.5 114.5q85 98 234 163q-207 83 -272 256q-22 60 -22 141.5t37 151t97 116.5q122 94 299 94q175 0 299 -95q138 -105 138 -277q0 -202 -178 -325q-53 -37 -116 -62q233 -101 304 -277q25 -64 25 -153t-39 -166t-104 -129q-131 -102 -329 -104 q-196 2 -325 104q-65 52 -104 129t-39 166zM306 384q0 -119 90 -188q82 -62 199 -62q119 0 201 62q93 71 93 188q0 246 -290 346q-293 -100 -293 -346zM341 1175q0 -92 39 -142q73 -95 217 -149q213 80 247 212q10 40 10 79q0 112 -66.5 175t-190.5 63t-190 -63t-66 -175z " />
<glyph unicode="9" horiz-adv-x="1194" d="M113 1073q0 238 147 374q129 119 319 121q358 3 465 -326q37 -114 37 -305.5t-52 -367t-155 -301.5q-212 -255 -619 -291l-38 151q406 50 565 300q57 89 88 213q-114 -52 -273 -54q-462 -12 -484 486zM290 1079q3 -247 161 -322q57 -27 118 -27.5t101 3t80 9.5 q85 15 145 37q10 86 10 184q0 454 -326 454q-126 2 -208 -90q-85 -96 -81 -248z" />
<glyph unicode=":" horiz-adv-x="682" d="M238 0v218h206v-218h-206zM238 939v218h206v-218h-206z" />
<glyph unicode=";" horiz-adv-x="682" d="M149 -210q84 134 101 242q7 41 8 91v144l185 11v-97q0 -284 -137 -431zM238 939v218h206v-218h-206z" />
<glyph unicode="&#x3c;" horiz-adv-x="1022" d="M157 653v120l558 433l91 -104l-521 -389l521 -389l-91 -104z" />
<glyph unicode="=" d="M183 182v127h830v-127h-830zM183 712v128h830v-128h-830z" />
<glyph unicode="&#x3e;" horiz-adv-x="1022" d="M216 324l521 389l-521 389l90 104l559 -433v-120l-559 -433z" />
<glyph unicode="?" d="M171 1488q269 145 564 83q178 -37 250 -163q37 -65 38.5 -144.5t-13.5 -132t-40.5 -98.5t-59.5 -89l-152 -187q-142 -180 -152 -368h-182q25 265 237 509l67 77q116 134 116 253q0 152 -178 191q-54 12 -118 12q-143 0 -319 -95zM414 0v203h206v-203h-206z" />
<glyph unicode="@" horiz-adv-x="2048" d="M159 611q0 481 253 721q233 221 652 221q347 0 576 -200q248 -218 248 -605q0 -280 -102 -446q-95 -154 -262 -179q-21 -3 -46.5 -3t-55 7t-54.5 23q-55 33 -78 97q-116 -116 -274 -116q-36 0 -102 11.5t-129 61t-101 117.5q-71 129 -64 304q18 468 381 468 q140 0 282 -84l7 84l130 -20q-7 -45 -7 -117v-611q0 -46 22 -69.5t50 -23.5t61.5 12t71.5 49.5t64 97.5q55 127 55 315.5t-53.5 314t-145.5 209.5q-182 166 -476 166q-551 0 -701 -440q-52 -153 -52 -349t54.5 -337t155.5 -238q207 -200 567 -200q189 0 385 64l65 -124 q-214 -77 -435.5 -77t-392 59.5t-292.5 173.5q-257 240 -257 663zM770 615q-2 -69 12 -135t46 -116q69 -110 208 -110q76 0 141 32.5t99 58.5v571q-165 57 -253 52.5t-132.5 -35.5t-70.5 -79t-37 -109t-13 -130z" />
<glyph unicode="A" horiz-adv-x="1537" d="M44 0l613 1554h222l613 -1554h-198l-161 431h-731l-159 -431h-199zM461 574h614l-159 418q-34 91 -57 158l-44 134q-21 67 -47 142q-23 -66 -44 -133l-46 -142z" />
<glyph unicode="B" horiz-adv-x="1366" d="M197 0v1555h385q272 0 402 -81q151 -94 157 -314v-8q0 -197 -137 -292q-43 -30 -93 -46q128 -5 221 -92q104 -99 104 -265v-18q-6 -233 -154 -339q-143 -100 -435 -100h-23h-427zM368 150h256h27q187 0 283 52q118 65 122 217v14q0 191 -134 249q-76 32 -167.5 34.5 t-150.5 2.5h-236v-569zM368 862h260h19q314 0 314 279v19q-3 200 -217 236q-71 11 -162 11h-214v-545z" />
<glyph unicode="C" horiz-adv-x="1366" d="M115 774q0 645 496 768q107 26 227 26q231 0 456 -91l-53 -148q-208 82 -366 82t-260.5 -31.5t-175.5 -110.5q-139 -150 -145 -495q6 -318 134 -472q138 -163 429 -163q200 0 423 93l53 -151q-236 -101 -479 -101q-739 0 -739 794z" />
<glyph unicode="D" horiz-adv-x="1541" d="M220 0v1554h482q573 0 692 -455q37 -144 37 -323v-41q0 -351 -191 -542q-193 -193 -546 -193h-474zM393 157h301q271 0 417 159q141 153 141 419v41q-6 319 -132 466q-132 154 -422 154h-305v-1239z" />
<glyph unicode="E" d="M220 0v1554h887l-9 -160h-705v-520h631v-158h-631v-557h724l9 -159h-906z" />
<glyph unicode="F" d="M220 0v1554h882l-9 -160h-700v-520h624v-158h-624v-716h-173z" />
<glyph unicode="G" horiz-adv-x="1537" d="M158 710q-1 12 -1 24q0 125 15 220q15 105 49.5 197t89.5 169t134 132q164 117 419 117l40 -1q242 -9 444 -100l-58 -148q-190 86 -365 90q-15 1 -30 1q-154 0 -253 -43q-107 -48 -175 -136q-133 -172 -133 -492q12 -298 143 -444q147 -163 445 -163q22 0 45 1 q144 6 244 60v494h-271v159h443v-766q-177 -76 -376 -97q-47 -4 -89 -4h-27q-560 20 -690 452q-42 138 -43 278z" />
<glyph unicode="H" horiz-adv-x="1537" d="M171 0v1554h173v-667h847v667h173v-1554h-173v733h-847v-733h-173z" />
<glyph unicode="I" horiz-adv-x="513" d="M170 0v1554h173v-1554h-173z" />
<glyph unicode="J" horiz-adv-x="853" d="M57 -2l26 174q76 -38 163 -38t137 23t77 67q47 73 47 244v1086h173v-1075q0 -164 -20.5 -244.5t-61 -130.5t-94.5 -78q-93 -46 -252 -46q-114 0 -195 18z" />
<glyph unicode="K" horiz-adv-x="1365" d="M220 0v1554h173v-1554h-173zM472 806v33l599 715h230l-628 -727q270 -308 310 -357l123 -146l206 -238l-168 -109q-85 122 -174 236l-142 178q-52 64 -64 76q-135 149 -184 209z" />
<glyph unicode="L" horiz-adv-x="1197" d="M168 0v1554h173v-1392h713l-7 -162h-879z" />
<glyph unicode="M" horiz-adv-x="1880" d="M165 0v1554h289l486 -1272l491 1272h283v-1554h-173v1126q0 80 1.5 155.5t2.5 135.5l-490 -1267h-232l-489 1267l2 -115q2 -96 2 -176v-1126h-173z" />
<glyph unicode="N" horiz-adv-x="1536" d="M165 0v1554h257l653 -1147l122 -244v1391h173v-1554h-254l-658 1153l-120 237v-1390h-173z" />
<glyph unicode="O" horiz-adv-x="1708" d="M134 770q0 189 53.5 337t150.5 251q199 210 526 210q345 0 528 -210q181 -207 181 -588q0 -371 -204 -583q-199 -207 -527 -207q-329 0 -518 207q-190 209 -190 583zM312 768v-8q0 -150 36 -266q37 -120 108 -200q140 -157 388 -157h12q253 2 396 165q144 165 144 463v16 q-8 630 -554 630q-249 0 -388 -168q-140 -169 -142 -475z" />
<glyph unicode="P" horiz-adv-x="1363" d="M208 0v1554h430h18q464 0 564 -304q32 -94 32 -207v-17q-2 -123 -42 -221.5t-116 -170.5q-160 -148 -439 -148h-15h-258v-486h-174zM382 636h258h8q298 0 392 224q30 72 32 164v11q0 85 -22 150q-22 70 -74 118q-104 97 -338 97h-256v-764z" />
<glyph unicode="Q" horiz-adv-x="1705" d="M120 770q0 372 204 588q199 210 526 210q345 0 528 -210q181 -207 181 -588q0 -370 -203 -582q-64 -67 -145 -113l264 -318l-168 -113q-36 52 -79 122.5t-91 138.5l-77 106q-112 -31 -254 -31t-273 53t-223 154q-190 209 -190 583zM298 768v-8q0 -150 36 -266 q37 -120 108 -200q140 -157 388 -157h12q253 2 396 165q144 165 144 463v16q-8 630 -554 630q-249 0 -388 -168q-140 -169 -142 -475z" />
<glyph unicode="R" horiz-adv-x="1365" d="M220 0v1554h423h18q446 0 534 -292q27 -90 27 -198v-8q-8 -180 -87 -293t-241 -161l42 -68q31 -48 73 -108l259 -338l-178 -108q-51 92 -110 185l-192 299q-35 55 -75 111q-31 -4 -93 -4h-227v-571h-173zM393 723h227h10q303 0 382 181q28 64 30 150q0 9 1 19 q-1 75 -19 132q-20 64 -68 107q-95 88 -304 88h-9h-250v-677z" />
<glyph unicode="S" horiz-adv-x="1195" d="M115 62l31 153q192 -72 421 -81h21q178 0 268 114q49 64 49 132t-26.5 112.5t-71.5 81.5q-82 69 -196 109t-188 76.5t-133 88.5q-129 115 -129 294q0 290 279 392q94 34 196 34l32 1q150 0 343 -59l-32 -150q-177 57 -308 57q-197 0 -288 -129q-45 -63 -45 -136.5 t24.5 -116t66.5 -75.5q66 -52 182 -95t194.5 -83.5t140.5 -94.5q139 -121 139 -280q0 -130 -55.5 -216t-127.5 -131q-132 -80 -339 -80q-211 0 -448 82z" />
<glyph unicode="T" horiz-adv-x="1539" d="M170 1394v160h1190v-160h-504v-1394h-174v1394h-512z" />
<glyph unicode="U" horiz-adv-x="1537" d="M196 696v858h173v-858q0 -164 14 -239.5t38.5 -131t68.5 -97.5q96 -89 278 -89q263 0 346 187q45 103 49 206t4 164v858h174v-858q0 -215 -22 -312t-58 -167.5t-100 -122.5q-138 -114 -393 -114q-374 0 -494 236q-65 131 -74 314q-4 85 -4 166z" />
<glyph unicode="V" horiz-adv-x="1364" d="M6 1554h199l477 -1401l476 1401h199l-560 -1554h-232z" />
<glyph unicode="W" horiz-adv-x="2048" d="M17 1554h197l273 -1061l83 -334l77 334l273 1061h212l270 -1061l75 -334l357 1395h197l-296 -1073l-141 -481h-234l-265 1035l-66 317h-9l-68 -317l-263 -1035h-234l-133 455z" />
<glyph unicode="X" horiz-adv-x="1362" d="M79 0l477 793l-457 761h205l225 -403l150 -239l151 239l229 403h206l-461 -761l479 -793h-208l-210 366l-186 312l-183 -312l-208 -366h-209z" />
<glyph unicode="Y" d="M-20 1554h204l414 -823l414 823h204l-532 -987v-567h-174v567q-68 115 -134 241q-325 624 -396 746z" />
<glyph unicode="Z" d="M61 120l790 1276h-734v158h935l27 -119l-793 -1278h848l-11 -157h-1033z" />
<glyph unicode="[" horiz-adv-x="854" d="M201 -267v1877h442l-2 -129h-294v-1618h304l2 -130h-452z" />
<glyph unicode="\" horiz-adv-x="1024" d="M86 1678l711 -1791l140 56l-711 1791z" />
<glyph unicode="]" horiz-adv-x="854" d="M201 -267h452v1877h-442l2 -129h294v-1618h-304z" />
<glyph unicode="^" horiz-adv-x="1195" d="M111 886l426 593h120l426 -593l-108 -85l-378 539l-377 -539z" />
<glyph unicode="_" horiz-adv-x="1195" d="M-4 -203h1203v-114h-1203v114z" />
<glyph unicode="`" horiz-adv-x="507" d="M7 1641l113 123l379 -366l-92 -102z" />
<glyph unicode="a" d="M108 307.5q0 74.5 29 126t77 84.5q90 63 241 76q121 12 313 17v180q0 127 -14.5 159t-34.5 48q-34 26 -138 26l-38 -1q-156 -8 -303 -51l-28 148q175 51 344 51q241 0 316 -91q45 -55 54 -135t10 -148v-571q0 -85 15.5 -101.5t36 -16.5t62.5 7l11 -124q-33 -11 -82 -11 t-80.5 11t-54.5 31q-45 38 -58 101q-54 -83 -194 -126q-59 -18 -119 -18q-67 0 -135 23q-138 46 -199 169q-31 62 -31 136.5zM279 318q0 -87 59 -142q57 -53 149 -53h15q167 0 266 111v132q0 71 4 131q-351 0 -442 -67q-51 -36 -51 -112z" />
<glyph unicode="b" horiz-adv-x="1365" d="M194 1620l175 14v-598q172 135 327 135q223 0 349 -152q125 -151 126 -421q0 -8 -1 -17q-4 -360 -227 -512q-134 -89 -325 -89t-417 71q0 1352 -7 1569zM367 157q115 -32 209.5 -32t158 14.5t121.5 60.5t96 142t40 220v18q0 114 -18 190q-19 82 -56 139q-77 116 -218 116 q-180 0 -331 -131v-494l-1 -152q-1 -45 -1 -91z" />
<glyph unicode="c" horiz-adv-x="1024" d="M110 574q0 598 512 598l35 -1q131 -5 187.5 -25t82.5 -31l-38 -148q-126 57 -255 57h-17q-328 0 -328 -448q0 -237 108 -352q90 -96 243.5 -96t293.5 55l26 -148q-144 -55 -291.5 -55t-245 34t-167.5 106q-146 152 -146 454z" />
<glyph unicode="d" horiz-adv-x="1370" d="M139 554q3 146 29 255.5t81 190.5q119 171 356 171q181 -3 340 -83v546l169 -14v-528q0 -984 7 -1092h-157l-17 150q-176 -170 -369 -170h-8q-295 0 -393 299q-38 119 -38 255v20zM332 747q-17 -110 -17 -204q0 -161 50 -273q63 -142 226 -142q197 0 356 170v492 q0 42 1 84.5t2 90.5q-143 56 -334 60q-241 0 -284 -278z" />
<glyph unicode="e" d="M121 587q0 278 124.5 430t366.5 154q226 0 340 -169q104 -153 104 -432v-36h-759q17 -319 218 -386q62 -20 162.5 -20t246.5 55l33 -148q-147 -55 -294 -55q-300 0 -433 182q-109 147 -109 425zM297 669h579q-12 173 -62 258q-62 102 -189 102q-51 0 -113 -17 q-119 -31 -178 -156q-35 -74 -37 -187z" />
<glyph unicode="f" horiz-adv-x="854" d="M112 1016v141h172v104q-2 38 -2 76t4.5 74t15.5 66q23 59 82 95q100 63 253 63q70 0 175 -15l-21 -165q-129 39 -198.5 39t-98.5 -30.5t-35.5 -55.5t-6.5 -57l3 -101v-93h284v-141h-284v-1016h-171v1016h-172z" />
<glyph unicode="g" d="M98 -205q0 138 96 241q31 34 70 57q-115 60 -115 164q0 63 40.5 114.5t116.5 79.5q-157 97 -157 322q0 186 132 296q122 102 295 102q115 0 205 -36q33 -6 124.5 -6t266.5 37l27 -146q-41 -2 -82.5 -4.5t-89.5 -4.5l-98 -4q48 -57 62 -174q4 -33 4 -60q0 -191 -132 -297 q-117 -94 -310 -94q-96 0 -166 27q-28 -16 -52 -51q-39 -56 -39 -81q0 -47 47 -78q43 -27 108.5 -27t117.5 8q89 15 162 15t142.5 -15t123.5 -49q119 -75 128 -226v-10q0 -203 -189 -320q-157 -98 -371 -105h-26q-176 0 -299 75q-44 27 -77 65q-65 76 -65 185zM261 -162 q0 -78 43 -130q67 -88 240 -88h19q151 4 233 44q151 72 151 204q-4 171 -212 171l-242 -15q-78 0 -136 20q-66 -41 -89 -142q-7 -31 -7 -64zM315 775v-8q0 -121 63 -185q65 -66 184 -66t193 70t74 187v14q0 145 -77 209q-55 41 -165 41h-20q-173 -13 -231 -155 q-19 -47 -21 -107z" />
<glyph unicode="h" horiz-adv-x="1366" d="M212 1620l171 14v-618q227 155 398 155q280 0 347 -201q23 -69 26 -164v-806h-167v745q0 153 -45 215q-43 60 -154 60q-148 0 -298 -75q-50 -25 -104 -57l2 -91q2 -76 2 -154v-643h-172l-3 1409q-2 180 -3 211z" />
<glyph unicode="i" horiz-adv-x="684" d="M257 0v1157h170v-1157h-170zM257 1382v238h170v-238h-170z" />
<glyph unicode="j" horiz-adv-x="684" d="M-89 -497l20 164q123 -39 190.5 -39t96.5 31t35 61t6 80l-2 165v1192h171v-1192l1 -84q0 -153 -18.5 -212t-46 -91t-74.5 -52q-85 -38 -208 -38q-68 0 -171 15zM257 1382v238h171v-238h-171z" />
<glyph unicode="k" horiz-adv-x="1198" d="M200 1620l176 14l2 -940v-694h-172l-3 1409q-2 180 -3 211zM429 641l460 516h222l-483 -516q5 -7 20 -25q113 -134 141 -170l329 -356l-163 -110q-87 127 -191 254l-288 349q-35 41 -47 58z" />
<glyph unicode="l" horiz-adv-x="698" d="M196 301l2 1319l172 14l-2 -1322q-1 -16 -1 -30q0 -84 30 -114q35 -36 100.5 -36t189.5 34l32 -146q-133 -36 -211 -38q-12 0 -23 -1q-63 -1 -111 11q-56 14 -96 50q-82 74 -82 243v16z" />
<glyph unicode="m" horiz-adv-x="2049" d="M194 1157l172 9q-1 -12 -1.5 -31.5t-0.5 -48.5v-75l76 54q151 106 288.5 106t219 -42.5t121.5 -132.5q13 8 76.5 52.5t108.5 67.5q106 55 206 55q190 0 281 -87.5t96 -277.5v-806h-170v745q0 154 -45 215q-45 60 -155 60q-98 0 -161.5 -25t-107.5 -50l-96 -57l-3 -2 q7 -33 7 -80v-806h-169v745q0 153 -45 215q-43 60 -154 60q-98 0 -161.5 -25t-107.5 -50l-96 -57l2 -91q2 -76 2 -154v-643h-171l1 339q0 432 -3 551l-4 158q-3 92 -6 109z" />
<glyph unicode="n" horiz-adv-x="1365" d="M194 1157l172 9q-1 -12 -1.5 -31.5t-0.5 -48.5v-75q234 160 413.5 160t271.5 -87.5t97 -277.5v-806h-172v745q0 153 -44 215q-44 60 -155 60q-149 0 -297 -75q-50 -25 -105 -57l2 -91q2 -76 2 -154v-643h-171l1 339q0 432 -3 551l-4 158q-3 92 -6 109z" />
<glyph unicode="o" horiz-adv-x="1363" d="M164 564q0 144 39.5 258.5t110.5 191.5q143 157 376 157q250 0 381 -155q128 -152 128 -442q0 -286 -154 -447q-141 -147 -369 -147q-239 0 -374 150q-138 151 -138 434zM342 569q2 -216 86.5 -330t249.5 -114q338 0 338 449q-6 336 -184 421q-63 30 -147.5 30 t-148.5 -30.5t-108 -88.5q-87 -118 -87 -325q1 -6 1 -12z" />
<glyph unicode="p" horiz-adv-x="1365" d="M188 1157l166 14v-178q168 173 364 178h14q306 0 402 -307q39 -124 39 -264.5t-29.5 -252t-89.5 -193.5q-130 -175 -376 -175h-20q-133 0 -289 70v-528h-172q0 1451 -9 1636zM363 854l6 -234v-426q126 -51 180 -59q67 -10 120 -10q82 0 130 23q79 39 121 102 q76 114 76 327v11q-3 308 -144 402q-50 33 -114 33h-4q-67 -1 -115 -14t-87.5 -31t-70 -39.5t-52 -39.5t-33.5 -31t-13 -14z" />
<glyph unicode="q" horiz-adv-x="1365" d="M142 545v21q0 133 38.5 246t105.5 190q141 162 392 162q175 0 423 -69v-857q0 -574 7 -704l-176 -13l-2 808v430q0 75 1.5 132t2.5 100q-108 32 -214 32q-72 0 -142 -15q-136 -29 -206 -174q-52 -106 -52 -272v-25q0 -302 168 -383q64 -31 148 -31q83 0 187 30l10 -137 q-117 -32 -221 -33h-6q-101 0 -187 33q-88 35 -149 104q-128 145 -128 425z" />
<glyph unicode="r" horiz-adv-x="853" d="M194 1157l166 14v-281q133 281 357 281q77 0 127 -12l-37 -178q-47 25 -107 25h-3q-58 0 -106 -27q-49 -27 -89.5 -67t-72.5 -86l-58 -84q4 -76 4 -192v-550h-169q0 1061 -12 1157z" />
<glyph unicode="s" horiz-adv-x="1024" d="M127 46l30 151q159 -63 329 -67h20q145 0 189 84q20 37 20 74q0 31 -14 62q-28 61 -112 104q-40 21 -90.5 41.5t-108 48.5t-104.5 69q-105 93 -105 241v15q0 76 37 134.5t90 94.5q102 69 252 73q151 0 287 -44l-34 -148q-117 41 -256 41q-128 0 -178 -92q-15 -28 -19 -68 q-1 -8 -1 -16q1 -32 13 -60q16 -36 45 -62q47 -43 123 -73t114.5 -47t73.5 -38t65.5 -48t52.5 -61q45 -68 45 -156q-1 -5 -1 -9q-2 -93 -34.5 -150t-87.5 -92q-103 -68 -286 -68q-182 0 -355 66z" />
<glyph unicode="t" horiz-adv-x="853" d="M62 1016l5 141h190q0 167 -12 239l172 28l7 -267h316v-141h-319l-4 -704q-1 -16 -1 -29q0 -76 19 -104q22 -32 49.5 -40.5t89 -8.5t199.5 46l30 -141q-143 -55 -284 -55q-139 2 -203 61q-72 66 -72 219v20t1 21l5 715h-188z" />
<glyph unicode="u" horiz-adv-x="1363" d="M190 368v789l170 14v-743q0 -158 46 -226q48 -70 160 -71h5q109 -1 201 41q94 42 193 126l-4 73q-3 48 -3 136v650l171 14q-1 -109 -1 -204v-500q0 -405 13 -467h-156l-20 162q-121 -127 -281 -168q-52 -13 -121 -13h-9q-74 1 -145.5 27t-120.5 75q-98 98 -98 271v14z " />
<glyph unicode="v" d="M70 1157h187l343 -1023l340 1023h185l-405 -1157h-241z" />
<glyph unicode="w" horiz-adv-x="1706" d="M-1 1157h192l283 -1053l37 153l239 900h208l238 -900l37 -153l282 1053h192l-356 -1157h-250l-216 854l-31 157l-33 -157l-215 -854h-251z" />
<glyph unicode="x" horiz-adv-x="1024" d="M12 0l405 597l-382 560h204l277 -437l274 437h194l-377 -567l405 -513l-169 -105q-75 122 -159 246l-177 248l-291 -466h-204z" />
<glyph unicode="y" horiz-adv-x="1194" d="M64 1157h187l338 -1023l340 1023h190l-616 -1696l-196 67q202 380 247 472h-83z" />
<glyph unicode="z" horiz-adv-x="1025" d="M70 123l627 886h-596v148h813v-125l-627 -884h667l-10 -148h-847z" />
<glyph unicode="{" horiz-adv-x="853" d="M159 605v137q49 2 79.5 12.5t47.5 39.5q28 49 28 224v206q0 276 214 354q74 27 166 32v-133q-232 -24 -232 -253v-206q0 -284 -98 -327q-28 -12 -55 -18q27 -6 54.5 -17.5t48.5 -46.5q50 -81 50 -280v-206q0 -134 78 -198q55 -45 154 -55v-133q-380 20 -380 386v206 q0 175 -22.5 214t-53 49.5t-79.5 12.5z" />
<glyph unicode="|" horiz-adv-x="512" d="M177 -329v2016h157v-2016h-157z" />
<glyph unicode="}" horiz-adv-x="853" d="M159 -130v-133q380 20 380 386v206q0 175 22.5 214t53 49.5t79.5 12.5v137q-49 2 -79.5 12.5t-47.5 39.5q-28 49 -28 224v206q0 276 -214 354q-74 27 -166 32v-133q232 -24 232 -253v-206q0 -284 98 -327q28 -12 55 -18q-27 -6 -54.5 -17.5t-48.5 -46.5q-50 -81 -50 -280 v-206q0 -134 -78 -198q-55 -45 -154 -55z" />
<glyph unicode="~" horiz-adv-x="1365" d="M101 583q53 146 100 204q122 154 316 107q77 -19 126 -50l78 -51q149 -95 209 -95t101 51.5t76 164.5l156 -44q-59 -153 -102 -208q-150 -186 -391 -76q-36 17 -68 37l-59 39q-146 93 -207.5 93t-103 -51.5t-76.5 -164.5z" />
<glyph unicode="&#xa1;" horiz-adv-x="682" d="M238 1190v203h206v-203h-206zM245 -194l28 1199h133l29 -1199h-190z" />
<glyph unicode="&#xa2;" horiz-adv-x="1197" d="M153 776q0 512 411 555v243h100v-238h23q118 -5 179 -24.5t87 -28.5l-39 -146q-112 50 -233 55h-17v-843h6q138 0 290 56l23 -144q-140 -55 -313 -55h-6v-257h-100v263q-411 52 -411 564zM328 773q0 -350 236 -413v823q-236 -47 -236 -410z" />
<glyph unicode="&#xa3;" horiz-adv-x="1194" d="M84 689v137h237l20 190q31 341 167 472q90 86 231 86q125 0 280 -72l-58 -135q-111 49 -214 49q-181 0 -233 -340l-11 -74q-7 -42 -12.5 -86.5t-12.5 -89.5h468l-5 -137h-484q-61 -381 -158 -525h770l-4 -148h-978v158q136 72 212 515h-215z" />
<glyph unicode="&#xa4;" horiz-adv-x="1366" d="M165 263q23 28 62 64l64 57q26 23 47 37l79 54q-75 81 -75 224t75 224l-79 53q-21 14 -47 36q-98 89 -126 123l115 117q121 -119 155 -176l62 -93q80 37 183 37q107 0 185 -39l65 95q41 65 156 176l115 -117q-9 -11 -29 -32l-46 -45q-60 -56 -101 -82l-80 -53 q78 -82 78 -224t-78 -224l80 -54q62 -39 114.5 -93t61.5 -65l-115 -117q-115 109 -156 176l-67 93q-72 -38 -181 -38t-185 38l-62 -93q-35 -60 -155 -176zM483 698q0 -151 117 -194q36 -14 80 -14q91 0 145 53t54 155.5t-54 157t-145 54.5q-138 0 -182 -122q-15 -39 -15 -90 z" />
<glyph unicode="&#xa5;" horiz-adv-x="1194" d="M29 1574h197l370 -658l139 241l232 417h197l-294 -488l-192 -338h314v-119h-314v-174h314v-119h-314v-320h-163v320h-316v119h316v174h-316v119h316l-192 338z" />
<glyph unicode="&#xa6;" horiz-adv-x="512" d="M177 -328v827h157v-827h-157zM177 860v827h157v-827h-157z" />
<glyph unicode="&#xa7;" horiz-adv-x="1025" d="M142 722q0 100 74 190q29 37 76 69q-150 117 -150 269q0 153 107 247q100 88 249 88q167 4 297 -116l-90 -118q-66 66 -151 88q-26 7 -56.5 7t-66.5 -13t-63 -38q-62 -56 -62 -145q0 -108 140 -201q43 -29 99.5 -62.5t117.5 -74.5t109 -93q110 -117 110 -263 q0 -97 -74 -190q-29 -37 -76 -70q150 -117 150 -265q0 -168 -114 -263q-105 -86 -249 -75q-163 4 -293 117l92 113q126 -115 267 -87q77 15 113 91q20 40 20 92t-17.5 85t-49 63t-75.5 59l-98 63q-162 99 -218 159q-118 125 -118 274zM304 722q0 -152 176 -265 q50 -32 102 -62l65 -39q74 100 74 200q0 148 -179 264l-99 64l-69 39q-70 -90 -70 -201z" />
<glyph unicode="&#xa8;" horiz-adv-x="581" d="M7 1363v222h178v-222h-178zM395 1363v222h179v-222h-179z" />
<glyph unicode="&#xa9;" horiz-adv-x="1701" d="M99 786.5q0 120.5 27.5 222t76.5 183.5t118 144t152 104q167 83 350 83t320.5 -45t238.5 -136q219 -197 219 -556q0 -354 -219 -548q-201 -180 -535 -180q-318 0 -526 184q-140 124 -195 324q-27 100 -27 220.5zM229 787q0 -155 49.5 -270t133.5 -191q170 -152 435 -152 q277 0 443 148q182 163 182 464q0 306 -182 470q-166 151 -443 151q-266 0 -435 -155q-183 -168 -183 -465zM461 771v28q0 411 402 411q119 0 250 -62l-40 -104q-113 51 -210 51q-141 0 -206.5 -72t-68.5 -224v-28q0 -131 72 -206t203 -77q114 -4 246 62l32 -110 q-153 -69 -263 -69t-185 27.5t-127 79.5q-105 105 -105 293z" />
<glyph unicode="&#xaa;" horiz-adv-x="853" d="M127 1031q0 168 240 188q71 6 149 6h25v102q0 75 -21 97q-35 35 -120.5 35t-200.5 -40l-25 109q136 46 224.5 45.5t133.5 -11.5t76 -38q61 -55 63 -190v-326q0 -49 6.5 -69t27.5 -20t39 3l8 -97q-24 -7 -72 -7t-80.5 23t-39.5 58q-79 -84 -192 -87q-116 0 -182 64 q-61 61 -59 155zM259 1024q0 -45 30 -75.5t81 -30.5q99 0 171 62v157h-44q-165 0 -216 -47q-22 -21 -22 -66z" />
<glyph unicode="&#xab;" horiz-adv-x="1366" d="M158 581l378 479l95 -84l-276 -395l278 -396l-97 -86zM673 581l377 479l95 -84l-274 -395l277 -396l-98 -86z" />
<glyph unicode="&#xac;" horiz-adv-x="1366" d="M166 713v127h1018v-562h-139v435h-879z" />
<glyph unicode="&#xad;" horiz-adv-x="1389" />
<glyph unicode="&#xae;" horiz-adv-x="1024" d="M117 1250q0 184 116 288q109 98 280 98q170 0 277 -98q116 -104 116 -288q0 -186 -116 -292q-108 -101 -278 -101q-81 0 -153 25.5t-126 75.5q-116 106 -116 292zM189 1250q0 -158 94 -246q87 -83 229 -83q67 0 125.5 20.5t102.5 62.5q94 90 94 246q0 153 -94 240 q-88 82 -227 82q-141 0 -230 -82q-94 -86 -94 -240zM360 1020v455h171q149 0 153 -137q0 -51 -29 -85.5t-71 -46.5q28 -78 86 -124q15 -12 24 -13l-35 -51q-88 47 -139 181h-93v-179h-67zM427 1259h95q44 2 68.5 18.5t24.5 60.5q-4 76 -84 76h-104v-155z" />
<glyph unicode="&#xaf;" horiz-adv-x="645" d="M7 1372v137h631v-137h-631z" />
<glyph unicode="&#xb0;" horiz-adv-x="853" d="M118 1445q0 149 88 231q82 76 217 76q219 0 288 -172q23 -57 23 -135.5t-23 -136.5t-64.5 -95.5t-98.5 -55.5t-123 -18t-121.5 18.5t-97.5 56.5q-88 79 -88 231zM244 1445q0 -140 108 -179q33 -11 72 -11t73 11t59 34q53 50 53 145q0 140 -112 180q-34 12 -73 12 t-71.5 -12t-56.5 -36q-52 -52 -52 -144z" />
<glyph unicode="&#xb1;" d="M136 706v117h398v398h126v-398h399v-117h-399v-368h388v-120h-901v120h387v368h-398z" />
<glyph unicode="&#xb2;" d="M272 1417q95 154 313 159q260 3 337 -186q26 -65 26 -146.5t-35 -154.5t-93 -140q-115 -135 -279 -221h456l-9 -142h-677l-24 111l118 88q162 113 236 188.5t112 137.5t38 123q0 200 -211 200q-98 0 -184 -81q-27 -26 -47 -58z" />
<glyph unicode="&#xb3;" d="M283 597l48 143q100 -69 211.5 -69t180 47t68.5 122q0 80 -75 125q-67 41 -173 41h-56v123h53q79 0 126 31q90 58 90 129q0 148 -173 148q-138 0 -216 -57l-66 117q115 77 257 77q251 0 326 -140q28 -54 28 -111.5t-8.5 -89t-25.5 -61.5q-36 -62 -102 -97 q117 -38 157 -151q14 -40 14 -99t-29 -114.5t-84 -94.5q-111 -80 -309 -80q-149 0 -242 61z" />
<glyph unicode="&#xb4;" horiz-adv-x="512" d="M7 1398l379 366l113 -123l-400 -345z" />
<glyph unicode="&#xb6;" d="M166 1109q4 239 148 353q123 97 374 97q131 0 332 -53v-1661h-132v1553q-74 18 -127 16v-1569h-133v840q-232 -2 -345 103.5t-117 320.5z" />
<glyph unicode="&#xb7;" horiz-adv-x="682" d="M245 764v208h192v-208h-192z" />
<glyph unicode="&#xb8;" horiz-adv-x="455" d="M7 -490l21 99q85 -22 132 -22q108 0 127 91q3 15 3 38.5t-15 43.5t-39 32q-37 17 -116 20l8 117q228 10 299 -129q24 -47 19.5 -107.5t-29 -101.5t-62.5 -68q-75 -53 -175.5 -53t-172.5 37v3z" />
<glyph unicode="&#xb9;" horiz-adv-x="1026" d="M316 1387l3 143h361l3 -1020h-156l-3 686v102q0 37 4 89h-212z" />
<glyph unicode="&#xba;" horiz-adv-x="853" d="M84 1190q0 177 95 282q93 102 245 102q154 0 248 -102q97 -105 97 -282q0 -173 -97 -277q-93 -101 -248 -101q-75 0 -137.5 26t-107.5 75q-95 103 -95 277zM217 1190q0 -120 55 -194t152 -74q49 0 88 19t66 55q56 73 56 194q0 194 -122 254q-39 20 -87.5 20t-87 -19.5 t-65.5 -55.5q-55 -75 -55 -199z" />
<glyph unicode="&#xbb;" horiz-adv-x="1366" d="M218 185l98 -86l377 482l-377 479l-95 -84l274 -395zM733 185l97 -86l378 482l-378 479l-95 -84l276 -395z" />
<glyph unicode="&#xbc;" horiz-adv-x="1880" d="M143 1557l3 143h361l3 -1020h-156l-3 686v102q0 37 4 89h-212zM350 0l980 1644l130 -75l-980 -1625zM969 259l409 591h213v-609h184l-24 -139h-160v-272h-151v272h-454zM1145 241h295v443z" />
<glyph unicode="&#xbd;" horiz-adv-x="1880" d="M143 1557l3 143h361l3 -1020h-156l-3 686v102q0 37 4 89h-212zM350 0l980 1644l130 -75l-980 -1625zM1101 663q95 154 313 159q260 3 336 -186q27 -65 27 -146.5t-35 -154.5t-92 -140q-116 -135 -280 -221h456l-9 -142h-677l-24 111l118 88q162 113 236 188.5t112 137.5 t38 123q0 200 -211 200q-98 0 -183 -81q-28 -26 -48 -58z" />
<glyph unicode="&#xbe;" horiz-adv-x="1880" d="M43 736l48 143q100 -69 211.5 -69t180 47t68.5 122q0 80 -75 125q-67 41 -173 41h-56v123h53q79 0 126 31q90 58 90 129q0 148 -173 148q-138 0 -216 -57l-66 117q115 77 257 77q251 0 326 -141q28 -53 28 -110.5t-8.5 -89t-25.5 -60.5q-36 -63 -102 -98 q117 -38 157 -152q14 -39 14 -98t-29 -114.5t-84 -94.5q-111 -80 -309 -80q-149 0 -242 61zM350 0l980 1644l130 -75l-980 -1625zM969 259l409 591h213v-609h184l-24 -139h-160v-272h-151v272h-454zM1145 241h295v443z" />
<glyph unicode="&#xbf;" d="M173 129.5q-1 79.5 13.5 131.5t39.5 97.5t59 89.5l152 188q146 182 153 368h183q-25 -262 -239 -509l-67 -77q-116 -136 -116 -254q0 -101 84 -154q77 -47 217 -47t315 94l58 -152q-275 -144 -564 -83q-176 37 -250 164q-37 64 -38 143.5zM576 1189v204h206v-204h-206z " />
<glyph unicode="&#xc0;" horiz-adv-x="1537" d="M44 0l613 1554h222l613 -1554h-198l-161 431h-731l-159 -431h-199zM448 1897l113 123l320 -303l-93 -102zM461 574h614l-159 418q-34 91 -57 158l-44 134q-21 67 -47 142q-23 -66 -44 -133l-46 -142z" />
<glyph unicode="&#xc1;" horiz-adv-x="1537" d="M44 0l613 1554h222l613 -1554h-198l-161 431h-731l-159 -431h-199zM461 574h614l-159 418q-34 91 -57 158l-44 134q-21 67 -47 142q-23 -66 -44 -133l-46 -142zM695 1717l320 303l113 -123l-340 -282z" />
<glyph unicode="&#xc2;" horiz-adv-x="1537" d="M44 0l613 1554h222l613 -1554h-198l-161 431h-731l-159 -431h-199zM407 1728l363 212l363 -212l-57 -113l-306 161l-306 -161zM461 574h614l-159 418q-34 91 -57 158l-44 134q-21 67 -47 142q-23 -66 -44 -133l-46 -142z" />
<glyph unicode="&#xc3;" horiz-adv-x="1537" d="M44 0l613 1554h222l613 -1554h-198l-161 431h-731l-159 -431h-199zM408 1769q35 80 92 129t110.5 54.5t91.5 -10.5t73 -38l68 -40q113 -68 183 75l104 -61q-35 -81 -92 -128q-117 -98 -276 5q-89 58 -125 58q-74 0 -125 -104zM461 574h614l-159 418q-34 91 -57 158 l-44 134q-21 67 -47 142q-23 -66 -44 -133l-46 -142z" />
<glyph unicode="&#xc4;" horiz-adv-x="1537" d="M44 0l613 1554h222l613 -1554h-198l-161 431h-731l-159 -431h-199zM461 574h614l-159 418q-34 91 -57 158l-44 134q-21 67 -47 142q-23 -66 -44 -133l-46 -142zM487 1698v228h176v-228h-176zM874 1698v228h177v-228h-177z" />
<glyph unicode="&#xc5;" horiz-adv-x="1537" d="M44 0l613 1554h222l613 -1554h-198l-161 431h-731l-159 -431h-199zM461 574h614l-159 418q-34 91 -57 158l-44 134q-21 67 -47 142q-23 -66 -44 -133l-46 -142zM526 1801q0 100 72 161q68 58 169 58t169 -58q72 -61 72 -161q0 -98 -72 -157q-67 -55 -169 -55t-169 55 q-72 59 -72 157zM650 1801q0 -62 33 -90.5t84 -28.5t85 28.5t34 90.5t-34 94t-85 32t-84 -32t-33 -94z" />
<glyph unicode="&#xc6;" horiz-adv-x="2048" d="M63 0l614 1554h1288l-9 -160h-995l204 -520h705v-158h-645l227 -557h523l9 -159h-671l-159 431h-733l-159 -431h-199zM478 574h614l-158 418q-35 91 -58 158l-44 134q-21 67 -47 142q-23 -66 -44 -133l-46 -142z" />
<glyph unicode="&#xc7;" horiz-adv-x="1366" d="M115 774q0 645 496 768q107 26 227 26q231 0 456 -91l-53 -148q-208 82 -366 82t-260.5 -31.5t-175.5 -110.5q-139 -150 -145 -495q6 -318 134 -472q138 -163 429 -163q200 0 423 93l53 -151q-236 -101 -479 -101q-739 0 -739 794zM504 -490l21 99q85 -22 132 -22 q108 0 127 91q3 15 3 38.5t-15 43.5t-39 32q-37 17 -116 20l8 117q228 10 299 -129q24 -47 19.5 -107.5t-29 -101.5t-62.5 -68q-75 -53 -175.5 -53t-172.5 37v3z" />
<glyph unicode="&#xc8;" d="M220 0v1554h887l-9 -160h-705v-520h631v-158h-631v-557h724l9 -159h-906zM363 1897l113 123l320 -303l-93 -102z" />
<glyph unicode="&#xc9;" d="M220 0v1554h887l-9 -160h-705v-520h631v-158h-631v-557h724l9 -159h-906zM610 1717l320 303l113 -123l-340 -282z" />
<glyph unicode="&#xca;" d="M220 0v1554h887l-9 -160h-705v-520h631v-158h-631v-557h724l9 -159h-906zM322 1728l363 212l363 -212l-57 -113l-306 161l-306 -161z" />
<glyph unicode="&#xcb;" d="M220 0v1554h887l-9 -160h-705v-520h631v-158h-631v-557h724l9 -159h-906zM402 1698v228h176v-228h-176zM789 1698v228h177v-228h-177z" />
<glyph unicode="&#xcc;" horiz-adv-x="513" d="M-64 1897l113 123l320 -303l-93 -102zM170 0v1554h173v-1554h-173z" />
<glyph unicode="&#xcd;" horiz-adv-x="513" d="M170 0v1554h173v-1554h-173zM183 1717l320 303l113 -123l-340 -282z" />
<glyph unicode="&#xce;" horiz-adv-x="513" d="M-105 1728l363 212l363 -212l-57 -113l-306 161l-306 -161zM170 0v1554h173v-1554h-173z" />
<glyph unicode="&#xcf;" horiz-adv-x="513" d="M-24 1698v228h176v-228h-176zM170 0v1554h173v-1554h-173zM363 1698v228h177v-228h-177z" />
<glyph unicode="&#xd0;" horiz-adv-x="1541" d="M26 733v153h194v668h482q573 0 692 -455q37 -144 37 -323v-41q0 -351 -191 -542q-193 -193 -546 -193h-474v733h-194zM393 157h301q271 0 417 159q141 153 141 419v41q-6 319 -132 466q-132 154 -422 154h-305v-510h408v-153h-408v-576z" />
<glyph unicode="&#xd1;" horiz-adv-x="1536" d="M165 0v1554h257l653 -1147l122 -244v1391h173v-1554h-254l-658 1153l-120 237v-1390h-173zM407 1769q35 80 92 129t110.5 54.5t91.5 -10.5t73 -38l68 -40q113 -68 183 75l104 -61q-35 -81 -92 -128q-117 -98 -276 5q-89 58 -125 58q-74 0 -125 -104z" />
<glyph unicode="&#xd2;" horiz-adv-x="1708" d="M134 770q0 189 53.5 337t150.5 251q199 210 526 210q345 0 528 -210q181 -207 181 -588q0 -371 -204 -583q-199 -207 -527 -207q-329 0 -518 207q-190 209 -190 583zM312 768q-1 -155 36 -274.5t108 -199.5q143 -161 400 -157q253 2 396 165q148 169 144 479 q-8 630 -554 630q-249 0 -388 -168q-140 -169 -142 -475zM534 1897l113 123l320 -303l-93 -102z" />
<glyph unicode="&#xd3;" horiz-adv-x="1708" d="M134 770q0 189 53.5 337t150.5 251q199 210 526 210q345 0 528 -210q181 -207 181 -588q0 -371 -204 -583q-199 -207 -527 -207q-329 0 -518 207q-190 209 -190 583zM312 768q-1 -155 36 -274.5t108 -199.5q143 -161 400 -157q253 2 396 165q148 169 144 479 q-8 630 -554 630q-249 0 -388 -168q-140 -169 -142 -475zM781 1717l320 303l113 -123l-340 -282z" />
<glyph unicode="&#xd4;" horiz-adv-x="1708" d="M134 770q0 189 53.5 337t150.5 251q199 210 526 210q345 0 528 -210q181 -207 181 -588q0 -371 -204 -583q-199 -207 -527 -207q-329 0 -518 207q-190 209 -190 583zM312 768q-1 -155 36 -274.5t108 -199.5q143 -161 400 -157q253 2 396 165q148 169 144 479 q-8 630 -554 630q-249 0 -388 -168q-140 -169 -142 -475zM493 1728l363 212l363 -212l-57 -113l-306 161l-306 -161z" />
<glyph unicode="&#xd5;" horiz-adv-x="1708" d="M134 770q0 189 53.5 337t150.5 251q199 210 526 210q345 0 528 -210q181 -207 181 -588q0 -371 -204 -583q-199 -207 -527 -207q-329 0 -518 207q-190 209 -190 583zM312 768q-1 -155 36 -274.5t108 -199.5q143 -161 400 -157q253 2 396 165q148 169 144 479 q-8 630 -554 630q-249 0 -388 -168q-140 -169 -142 -475zM494 1769q35 80 92 129t110.5 54.5t91.5 -10.5t73 -38l68 -40q113 -68 183 75l104 -61q-35 -81 -92 -128q-117 -98 -276 5q-89 58 -125 58q-74 0 -125 -104z" />
<glyph unicode="&#xd6;" horiz-adv-x="1708" d="M134 770q0 189 53.5 337t150.5 251q199 210 526 210q345 0 528 -210q181 -207 181 -588q0 -371 -204 -583q-199 -207 -527 -207q-329 0 -518 207q-190 209 -190 583zM312 768q-1 -155 36 -274.5t108 -199.5q143 -161 400 -157q253 2 396 165q148 169 144 479 q-8 630 -554 630q-249 0 -388 -168q-140 -169 -142 -475zM573 1698v228h176v-228h-176zM960 1698v228h177v-228h-177z" />
<glyph unicode="&#xd7;" d="M203 354l360 391l-360 392l104 97l340 -392l341 392l105 -97l-360 -392q315 -339 360 -391l-105 -97l-341 393l-340 -393z" />
<glyph unicode="&#xd8;" horiz-adv-x="1708" d="M134 770q0 372 204 588q199 210 526 210q108 0 200 -21l75 187l140 -56l-72 -181q366 -175 366 -727q0 -371 -204 -583q-199 -207 -527 -207q-121 0 -226 29l-48 -122l-140 56l49 123q-165 91 -254 269t-89 435zM312 770q-4 -392 226 -549l466 1173q-76 17 -181 17 t-203 -43t-166 -125q-140 -169 -142 -473zM675 158q83 -23 194.5 -21.5t212 43.5t170.5 122q148 169 144 468q-6 431 -251 571z" />
<glyph unicode="&#xd9;" horiz-adv-x="1537" d="M196 696v858h173v-858q0 -164 14 -239.5t38.5 -131t68.5 -97.5q96 -89 278 -89q263 0 346 187q45 103 49 206t4 164v858h174v-858q0 -215 -22 -312t-58 -167.5t-100 -122.5q-138 -114 -393 -114q-374 0 -494 236q-65 131 -74 314q-4 85 -4 166zM448 1897l113 123 l320 -303l-93 -102z" />
<glyph unicode="&#xda;" horiz-adv-x="1537" d="M196 696v858h173v-858q0 -164 14 -239.5t38.5 -131t68.5 -97.5q96 -89 278 -89q263 0 346 187q45 103 49 206t4 164v858h174v-858q0 -215 -22 -312t-58 -167.5t-100 -122.5q-138 -114 -393 -114q-374 0 -494 236q-65 131 -74 314q-4 85 -4 166zM695 1717l320 303 l113 -123l-340 -282z" />
<glyph unicode="&#xdb;" horiz-adv-x="1537" d="M196 696v858h173v-858q0 -164 14 -239.5t38.5 -131t68.5 -97.5q96 -89 278 -89q263 0 346 187q45 103 49 206t4 164v858h174v-858q0 -215 -22 -312t-58 -167.5t-100 -122.5q-138 -114 -393 -114q-374 0 -494 236q-65 131 -74 314q-4 85 -4 166zM407 1728l363 212 l363 -212l-57 -113l-306 161l-306 -161z" />
<glyph unicode="&#xdc;" horiz-adv-x="1537" d="M196 696v858h173v-858q0 -164 14 -239.5t38.5 -131t68.5 -97.5q96 -89 278 -89q263 0 346 187q45 103 49 206t4 164v858h174v-858q0 -215 -22 -312t-58 -167.5t-100 -122.5q-138 -114 -393 -114q-374 0 -494 236q-65 131 -74 314q-4 85 -4 166zM487 1698v228h176v-228 h-176zM874 1698v228h177v-228h-177z" />
<glyph unicode="&#xdd;" d="M-20 1554h204l414 -823l414 823h204l-532 -987v-567h-174v567q-68 115 -134 241q-325 624 -396 746zM525 1717l320 303l113 -123l-340 -282z" />
<glyph unicode="&#xde;" horiz-adv-x="1363" d="M208 0v1554h173v-262h280q465 3 559 -301q30 -97 31 -218q-13 -507 -579 -500h-181v151h181q394 -4 402 349q-2 185 -96 273q-101 95 -317 93h-280v-1139h-173z" />
<glyph unicode="&#xdf;" d="M192 831v381q0 136 13 191.5t35 96t60 70.5q83 64 238 64q140 0 230 -92q89 -91 89 -223q0 -88 -39 -161l-31 -60q-39 -75 -39 -117t12 -67t32 -47.5t46 -44.5l52 -45q31 -27 63 -51t62 -49.5t56 -54t45 -64.5q43 -77 43 -178t-31.5 -175.5t-86.5 -124.5 q-110 -100 -293 -100q-103 0 -253 27l12 148q163 -33 231.5 -31t109 19t70.5 49q63 70 63 185q0 104 -67 177q-30 32 -67.5 60.5t-76.5 62.5l-72 65q-111 103 -111 218q0 39 10.5 79t24.5 69l26 58q42 92 42 154t-15.5 92t-38.5 47q-39 29 -98 29t-93.5 -19.5t-52.5 -55.5 t-23 -88t-5 -633.5t11 -691.5h-178q-2 36 -3 177z" />
<glyph unicode="&#xe0;" d="M108 307.5q0 74.5 29 126t77 84.5q90 63 241 76q121 12 313 17v180q0 127 -14.5 159t-34.5 48q-34 26 -138 26l-38 -1q-156 -8 -303 -51l-28 148q175 51 344 51q241 0 316 -91q45 -55 54 -135t10 -148v-571q0 -85 15.5 -101.5t36 -16.5t62.5 7l11 -124q-33 -11 -82 -11 t-80.5 11t-54.5 31q-45 38 -58 101q-54 -83 -194 -126q-126 -39 -254 5q-138 46 -199 169q-31 62 -31 136.5zM279 318q0 -87 59 -142q57 -53 149 -53q177 -5 281 111v132q0 71 4 131q-351 0 -442 -67q-51 -36 -51 -112zM307 1641l113 123l379 -366l-92 -102z" />
<glyph unicode="&#xe1;" d="M108 307.5q0 74.5 29 126t77 84.5q90 63 241 76q121 12 313 17v180q0 127 -14.5 159t-34.5 48q-34 26 -138 26l-38 -1q-156 -8 -303 -51l-28 148q175 51 344 51q241 0 316 -91q45 -55 54 -135t10 -148v-571q0 -85 15.5 -101.5t36 -16.5t62.5 7l11 -124q-33 -11 -82 -11 t-80.5 11t-54.5 31q-45 38 -58 101q-54 -83 -194 -126q-126 -39 -254 5q-138 46 -199 169q-31 62 -31 136.5zM279 318q0 -87 59 -142q57 -53 149 -53q177 -5 281 111v132q0 71 4 131q-351 0 -442 -67q-51 -36 -51 -112zM307 1398l379 366l113 -123l-400 -345z" />
<glyph unicode="&#xe2;" d="M108 307.5q0 74.5 29 126t77 84.5q90 63 241 76q121 12 313 17v180q0 127 -14.5 159t-34.5 48q-34 26 -138 26l-38 -1q-156 -8 -303 -51l-28 148q175 51 344 51q241 0 316 -91q45 -55 54 -135t10 -148v-571q0 -85 15.5 -101.5t36 -16.5t62.5 7l11 -124q-33 -11 -82 -11 t-80.5 11t-54.5 31q-45 38 -58 101q-54 -83 -194 -126q-126 -39 -254 5q-138 46 -199 169q-31 62 -31 136.5zM161 1405l393 313l391 -313l-82 -107l-309 237l-307 -239zM279 318q0 -87 59 -142q57 -53 149 -53q177 -5 281 111v132q0 71 4 131q-351 0 -442 -67 q-51 -36 -51 -112z" />
<glyph unicode="&#xe3;" d="M108 307.5q0 74.5 29 126t77 84.5q90 63 241 76q121 12 313 17v180q0 127 -14.5 159t-34.5 48q-34 26 -138 26l-38 -1q-156 -8 -303 -51l-28 148q175 51 344 51q241 0 316 -91q45 -55 54 -135t10 -148v-571q0 -85 15.5 -101.5t36 -16.5t62.5 7l11 -124q-33 -11 -82 -11 t-80.5 11t-54.5 31q-45 38 -58 101q-54 -83 -194 -126q-126 -39 -254 5q-138 46 -199 169q-31 62 -31 136.5zM193 1400q35 80 91.5 129t110.5 54.5t92 -10.5t73 -37l68 -42q113 -67 183 76l104 -61q-35 -81 -92 -129q-117 -97 -276 6q-89 58 -125 58q-74 0 -125 -104z M279 318q0 -87 59 -142q57 -53 149 -53q177 -5 281 111v132q0 71 4 131q-351 0 -442 -67q-51 -36 -51 -112z" />
<glyph unicode="&#xe4;" d="M108 307.5q0 74.5 29 126t77 84.5q90 63 241 76q121 12 313 17v180q0 127 -14.5 159t-34.5 48q-34 26 -138 26l-38 -1q-156 -8 -303 -51l-28 148q175 51 344 51q241 0 316 -91q45 -55 54 -135t10 -148v-571q0 -85 15.5 -101.5t36 -16.5t62.5 7l11 -124q-33 -11 -82 -11 t-80.5 11t-54.5 31q-45 38 -58 101q-54 -83 -194 -126q-126 -39 -254 5q-138 46 -199 169q-31 62 -31 136.5zM270 1363v222h178v-222h-178zM279 318q0 -87 59 -142q57 -53 149 -53q177 -5 281 111v132q0 71 4 131q-351 0 -442 -67q-51 -36 -51 -112zM658 1363v222h179v-222 h-179z" />
<glyph unicode="&#xe5;" d="M108 307.5q0 74.5 29 126t77 84.5q90 63 241 76q121 12 313 17v180q0 127 -14.5 159t-34.5 48q-34 26 -138 26l-38 -1q-156 -8 -303 -51l-28 148q175 51 344 51q241 0 316 -91q45 -55 54 -135t10 -148v-571q0 -85 15.5 -101.5t36 -16.5t62.5 7l11 -124q-33 -11 -82 -11 t-80.5 11t-54.5 31q-45 38 -58 101q-54 -83 -194 -126q-126 -39 -254 5q-138 46 -199 169q-31 62 -31 136.5zM279 318q0 -87 59 -142q57 -53 149 -53q177 -5 281 111v132q0 71 4 131q-351 0 -442 -67q-51 -36 -51 -112zM303 1553q0 108 73 170q69 59 177 59t177 -59 q73 -62 73 -170q0 -106 -73 -167q-70 -59 -177 -59t-177 59q-73 61 -73 167zM428 1553q0 -61 35.5 -97t89.5 -36t89.5 36t35.5 97t-35.5 97.5t-89.5 36.5t-89.5 -36.5t-35.5 -97.5z" />
<glyph unicode="&#xe6;" horiz-adv-x="1708" d="M60 320q2 182 185 264q149 66 426 66h49v141q0 118 -49.5 176t-164.5 58q-158 0 -344 -71l-34 141q190 76 372 76q150 0 223 -43q91 -52 123 -191q67 177 250 221q53 13 124.5 13t139 -23t117.5 -64.5t83.5 -100t53.5 -129.5q38 -128 38 -320h-764q18 -273 203 -371 q66 -35 174.5 -35t254.5 55l33 -148q-147 -55 -305 -55q-197 0 -336 105q-49 37 -86 91l-92 -78q-92 -74 -164.5 -95.5t-150.5 -22.5t-148.5 25t-117.5 73q-95 94 -93 242zM238 318q0 -94 52 -143.5t145 -49.5q91 0 156 32q90 44 184 116q-42 105 -48 250h-82 q-407 0 -407 -205zM893 669h578q-17 258 -145 329q-49 28 -118.5 28.5t-123 -27.5t-93.5 -77q-81 -100 -98 -253z" />
<glyph unicode="&#xe7;" horiz-adv-x="1024" d="M110 574q0 598 512 598l35 -1q131 -5 187.5 -25t82.5 -31l-38 -148q-126 57 -255 57h-17q-328 0 -328 -448q0 -237 108 -352q90 -96 243.5 -96t293.5 55l26 -148q-144 -55 -291.5 -55t-245 34t-167.5 106q-146 152 -146 454zM410 -490l21 99q85 -22 132 -22q108 0 127 91 q3 15 3 38.5t-15 43.5t-39 32q-37 17 -116 20l8 117q228 10 299 -129q24 -47 19.5 -107.5t-29 -101.5t-62.5 -68q-75 -53 -175.5 -53t-172.5 37v3z" />
<glyph unicode="&#xe8;" d="M121 587q0 278 124.5 430t366.5 154q226 0 340 -169q104 -153 104 -432v-36h-759q17 -319 218 -386q62 -20 162.5 -20t246.5 55l33 -148q-147 -55 -294 -55q-300 0 -433 182q-109 147 -109 425zM297 669h579q-12 173 -62 258q-87 143 -302 85q-119 -31 -178 -156 q-35 -74 -37 -187zM367 1641l113 123l379 -366l-92 -102z" />
<glyph unicode="&#xe9;" d="M121 587q0 278 124.5 430t366.5 154q226 0 340 -169q104 -153 104 -432v-36h-759q17 -319 218 -386q62 -20 162.5 -20t246.5 55l33 -148q-147 -55 -294 -55q-300 0 -433 182q-109 147 -109 425zM297 669h579q-12 173 -62 258q-87 143 -302 85q-119 -31 -178 -156 q-35 -74 -37 -187zM367 1398l379 366l113 -123l-400 -345z" />
<glyph unicode="&#xea;" d="M121 587q0 278 124.5 430t366.5 154q226 0 340 -169q104 -153 104 -432v-36h-759q17 -319 218 -386q62 -20 162.5 -20t246.5 55l33 -148q-147 -55 -294 -55q-300 0 -433 182q-109 147 -109 425zM221 1405l393 313l391 -313l-82 -107l-309 237l-307 -239zM297 669h579 q-12 173 -62 258q-87 143 -302 85q-119 -31 -178 -156q-35 -74 -37 -187z" />
<glyph unicode="&#xeb;" d="M121 587q0 278 124.5 430t366.5 154q226 0 340 -169q104 -153 104 -432v-36h-759q17 -319 218 -386q62 -20 162.5 -20t246.5 55l33 -148q-147 -55 -294 -55q-300 0 -433 182q-109 147 -109 425zM297 669h579q-12 173 -62 258q-87 143 -302 85q-119 -31 -178 -156 q-35 -74 -37 -187zM330 1363v222h178v-222h-178zM718 1363v222h179v-222h-179z" />
<glyph unicode="&#xec;" horiz-adv-x="684" d="M96 1641l113 123l379 -366l-92 -102zM257 0v1157h170v-1157h-170z" />
<glyph unicode="&#xed;" horiz-adv-x="684" d="M96 1398l379 366l113 -123l-400 -345zM257 0v1157h170v-1157h-170z" />
<glyph unicode="&#xee;" horiz-adv-x="684" d="M-49 1405l393 313l391 -313l-82 -107l-309 237l-307 -239zM257 0v1157h170v-1157h-170z" />
<glyph unicode="&#xef;" horiz-adv-x="684" d="M59 1363v222h178v-222h-178zM257 0v1157h170v-1157h-170zM447 1363v222h179v-222h-179z" />
<glyph unicode="&#xf0;" d="M101 519q-2 236 113 384q128 164 366 164q168 0 285 -88q-67 183 -199 301l-296 -123l-47 101l241 107q-97 60 -225 95l40 141q205 -44 362 -168l238 104l46 -102l-195 -84q245 -260 270 -715q2 -26 2 -95.5t-25 -178t-84 -193.5q-131 -189 -404 -189q-233 0 -364 157 q-122 146 -124 382zM275 516q2 -81 22.5 -153.5t59.5 -125.5q83 -113 232 -113q184 0 272 139q74 117 74 315q0 97 -22 225q-73 71 -131 95q-96 39 -195 36.5t-157 -38.5t-93 -93.5t-49.5 -131.5t-12.5 -155z" />
<glyph unicode="&#xf1;" horiz-adv-x="1365" d="M194 1157l172 9q-1 -12 -1.5 -31.5t-0.5 -48.5v-75q234 160 413.5 160t271.5 -87.5t97 -277.5v-806h-172v745q0 153 -44 215q-44 60 -155 60q-149 0 -297 -75q-50 -25 -105 -57l2 -91q2 -76 2 -154v-643h-171l1 339q0 432 -3 551l-4 158q-3 92 -6 109zM310 1400 q35 80 91.5 129t110.5 54.5t92 -10.5t73 -37l68 -42q113 -67 183 76l104 -61q-35 -81 -92 -129q-117 -97 -276 6q-89 58 -125 58q-74 0 -125 -104z" />
<glyph unicode="&#xf2;" horiz-adv-x="1363" d="M164 564q0 144 39.5 258.5t110.5 191.5q143 157 376 157q250 0 381 -155q128 -152 128 -442q0 -286 -154 -447q-141 -147 -369 -147q-239 0 -374 150q-138 151 -138 434zM341.5 569q2.5 -216 87 -330t249.5 -114q338 0 338 449q-6 336 -184 421q-63 30 -147.5 30 t-148.5 -30.5t-108 -88.5q-89 -121 -86.5 -337zM436 1641l113 123l379 -366l-92 -102z" />
<glyph unicode="&#xf3;" horiz-adv-x="1363" d="M164 564q0 144 39.5 258.5t110.5 191.5q143 157 376 157q250 0 381 -155q128 -152 128 -442q0 -286 -154 -447q-141 -147 -369 -147q-239 0 -374 150q-138 151 -138 434zM341.5 569q2.5 -216 87 -330t249.5 -114q338 0 338 449q-6 336 -184 421q-63 30 -147.5 30 t-148.5 -30.5t-108 -88.5q-89 -121 -86.5 -337zM436 1398l379 366l113 -123l-400 -345z" />
<glyph unicode="&#xf4;" horiz-adv-x="1363" d="M164 564q0 144 39.5 258.5t110.5 191.5q143 157 376 157q250 0 381 -155q128 -152 128 -442q0 -286 -154 -447q-141 -147 -369 -147q-239 0 -374 150q-138 151 -138 434zM290 1405l393 313l391 -313l-82 -107l-309 237l-307 -239zM341.5 569q2.5 -216 87 -330t249.5 -114 q338 0 338 449q-6 336 -184 421q-63 30 -147.5 30t-148.5 -30.5t-108 -88.5q-89 -121 -86.5 -337z" />
<glyph unicode="&#xf5;" horiz-adv-x="1363" d="M164 564q0 144 39.5 258.5t110.5 191.5q143 157 376 157q250 0 381 -155q128 -152 128 -442q0 -286 -154 -447q-141 -147 -369 -147q-239 0 -374 150q-138 151 -138 434zM322 1400q35 80 91.5 129t110.5 54.5t92 -10.5t73 -37l68 -42q113 -67 183 76l104 -61 q-35 -81 -92 -129q-117 -97 -276 6q-89 58 -125 58q-74 0 -125 -104zM341.5 569q2.5 -216 87 -330t249.5 -114q338 0 338 449q-6 336 -184 421q-63 30 -147.5 30t-148.5 -30.5t-108 -88.5q-89 -121 -86.5 -337z" />
<glyph unicode="&#xf6;" horiz-adv-x="1363" d="M164 564q0 144 39.5 258.5t110.5 191.5q143 157 376 157q250 0 381 -155q128 -152 128 -442q0 -286 -154 -447q-141 -147 -369 -147q-239 0 -374 150q-138 151 -138 434zM341.5 569q2.5 -216 87 -330t249.5 -114q338 0 338 449q-6 336 -184 421q-63 30 -147.5 30 t-148.5 -30.5t-108 -88.5q-89 -121 -86.5 -337zM399 1363v222h178v-222h-178zM787 1363v222h179v-222h-179z" />
<glyph unicode="&#xf7;" d="M162 534v119h872v-119h-872zM506 148v183h188v-183h-188zM506 857v183h188v-183h-188z" />
<glyph unicode="&#xf8;" horiz-adv-x="1363" d="M137 -35l146 187q-119 150 -119 408q0 291 150 454q143 157 376 157q192 0 315 -93l127 163l97 -75l-138 -177q108 -150 108 -415q0 -286 -154 -447q-141 -147 -369 -147q-184 0 -305 87l-137 -175zM343 565q0 -165 51 -270l509 652q-81 78 -218 78q-160 0 -251 -119 q-91 -121 -91 -341zM470 194q81 -69 206 -69q245 0 315 247q24 85 24.5 223.5t-41.5 243.5z" />
<glyph unicode="&#xf9;" horiz-adv-x="1363" d="M190 368v789l170 14v-743q0 -158 46 -226q48 -70 160 -71t206 41.5t193 125.5l-4 73q-3 48 -3 136v650l171 14q-1 -109 -1 -204v-500q0 -405 13 -467h-156l-20 162q-121 -127 -281 -168q-56 -14 -130.5 -13t-145.5 27t-120 75q-102 102 -98 285zM420 1641l113 123 l379 -366l-92 -102z" />
<glyph unicode="&#xfa;" horiz-adv-x="1363" d="M190 368v789l170 14v-743q0 -158 46 -226q48 -70 160 -71t206 41.5t193 125.5l-4 73q-3 48 -3 136v650l171 14q-1 -109 -1 -204v-500q0 -405 13 -467h-156l-20 162q-121 -127 -281 -168q-56 -14 -130.5 -13t-145.5 27t-120 75q-102 102 -98 285zM420 1398l379 366 l113 -123l-400 -345z" />
<glyph unicode="&#xfb;" horiz-adv-x="1363" d="M190 368v789l170 14v-743q0 -158 46 -226q48 -70 160 -71t206 41.5t193 125.5l-4 73q-3 48 -3 136v650l171 14q-1 -109 -1 -204v-500q0 -405 13 -467h-156l-20 162q-121 -127 -281 -168q-56 -14 -130.5 -13t-145.5 27t-120 75q-102 102 -98 285zM274 1405l393 313 l391 -313l-82 -107l-309 237l-307 -239z" />
<glyph unicode="&#xfc;" horiz-adv-x="1363" d="M190 368v789l170 14v-743q0 -158 46 -226q48 -70 160 -71t206 41.5t193 125.5l-4 73q-3 48 -3 136v650l171 14q-1 -109 -1 -204v-500q0 -405 13 -467h-156l-20 162q-121 -127 -281 -168q-56 -14 -130.5 -13t-145.5 27t-120 75q-102 102 -98 285zM383 1363v222h178v-222 h-178zM771 1363v222h179v-222h-179z" />
<glyph unicode="&#xfd;" horiz-adv-x="1194" d="M64 1157h187l338 -1023l340 1023h190l-616 -1696l-196 67q202 380 247 472h-83zM342 1398l379 366l113 -123l-400 -345z" />
<glyph unicode="&#xfe;" horiz-adv-x="1365" d="M199 -479v2099l161 14v-634q168 167 360 171q320 7 428 -307q43 -124 43 -267.5t-26.5 -255t-88 -192t-163.5 -125t-251.5 -44.5t-292.5 62v-521h-170zM369 190q289 -116 463 -28q185 95 182 426q-3 304 -158 402q-108 68 -281 5q-126 -46 -206 -136v-669z" />
<glyph unicode="&#xff;" horiz-adv-x="1194" d="M64 1157h187l338 -1023l340 1023h190l-616 -1696l-196 67q202 380 247 472h-83zM305 1363v222h178v-222h-178zM693 1363v222h179v-222h-179z" />
<glyph unicode="&#x152;" horiz-adv-x="2384" d="M106 770q0 372 204 588q199 210 535 210t518 -246v232h895l-9 -160h-715v-510h641v-158h-641v-567h733l11 -159h-915v250q-194 -270 -549 -270q-329 0 -518 207q-190 209 -190 583zM284 768q-1 -155 36 -274.5t108 -199.5q143 -161 400 -157q253 2 396 165 q148 169 144 479q-8 630 -554 630q-249 0 -388 -168q-140 -169 -142 -475z" />
<glyph unicode="&#x153;" horiz-adv-x="1878" d="M61 560q0 290 147 454q141 157 374 157q148 0 244 -62.5t157 -183.5q118 242 394 246q225 0 337 -169q102 -152 102 -431v-37h-746q17 -320 215 -386q62 -20 156.5 -20t242.5 55l33 -148q-112 -42 -178.5 -48.5t-126 -6.5t-122 11.5t-118.5 38.5q-116 58 -194 195 q-133 -245 -409 -245q-239 0 -373 150q-135 152 -135 430zM240 569q0 -216 83.5 -330t245.5 -114q322 0 326 449q0 336 -170 421q-60 30 -143.5 30t-146 -30.5t-105.5 -88.5q-90 -121 -90 -337zM1070 669h565q-12 178 -50 242.5t-87 92t-112 24.5q-122 -6 -185 -52 q-127 -93 -131 -307z" />
<glyph unicode="&#x178;" d="M-20 1554h204l414 -823l414 823h204l-532 -987v-567h-174v567q-68 115 -134 241q-325 624 -396 746zM317 1698v228h176v-228h-176zM704 1698v228h177v-228h-177z" />
<glyph unicode="&#x2c6;" horiz-adv-x="799" d="M7 1405l393 313l391 -313l-82 -107l-309 237l-307 -239z" />
<glyph unicode="&#x2dc;" horiz-adv-x="736" d="M7 1400q35 80 91.5 129t110.5 54.5t92 -10.5t73 -37l68 -42q113 -67 183 76l104 -61q-35 -81 -92 -129q-117 -97 -276 6q-89 58 -125 58q-74 0 -125 -104z" />
<glyph unicode="&#x2000;" horiz-adv-x="1010" />
<glyph unicode="&#x2001;" horiz-adv-x="2020" />
<glyph unicode="&#x2002;" horiz-adv-x="1010" />
<glyph unicode="&#x2003;" horiz-adv-x="2020" />
<glyph unicode="&#x2004;" horiz-adv-x="673" />
<glyph unicode="&#x2005;" horiz-adv-x="505" />
<glyph unicode="&#x2006;" horiz-adv-x="336" />
<glyph unicode="&#x2007;" horiz-adv-x="336" />
<glyph unicode="&#x2008;" horiz-adv-x="252" />
<glyph unicode="&#x2009;" horiz-adv-x="404" />
<glyph unicode="&#x200a;" horiz-adv-x="112" />
<glyph unicode="&#x2010;" horiz-adv-x="853" d="M126 518v153h601v-153h-601z" />
<glyph unicode="&#x2011;" horiz-adv-x="853" d="M126 518v153h601v-153h-601z" />
<glyph unicode="&#x2012;" horiz-adv-x="853" d="M126 518v153h601v-153h-601z" />
<glyph unicode="&#x2013;" horiz-adv-x="1365" d="M159 523v144h1047v-144h-1047z" />
<glyph unicode="&#x2014;" horiz-adv-x="2557" d="M176 523v144h2204v-144h-2204z" />
<glyph unicode="&#x2018;" horiz-adv-x="512" d="M125 1111q0 183 11 253q23 153 119 256l131 -32q-64 -74 -86 -200q-6 -39 -6 -76v-188z" />
<glyph unicode="&#x2019;" horiz-adv-x="512" d="M125 1148q63 69 86 199q7 39 7 77v186l168 15q0 -183 -10.5 -253t-42.5 -140t-76 -117z" />
<glyph unicode="&#x201a;" horiz-adv-x="512" d="M124 -199q65 71 86 199q7 39 7 77v186l170 15q0 -177 -11 -250q-23 -153 -119 -260z" />
<glyph unicode="&#x201c;" horiz-adv-x="854" d="M113 1111q0 183 11 253q23 153 119 256l131 -32q-64 -74 -86 -200q-6 -39 -6 -76v-188zM479 1111q0 183 11 253q23 152 118 256l132 -32q-66 -75 -86 -200q-7 -39 -7 -76v-188z" />
<glyph unicode="&#x201d;" horiz-adv-x="854" d="M114 1143q66 75 86 200q7 39 7 76v188l168 13q0 -183 -11 -253q-23 -152 -118 -256zM480 1143q64 74 86 200q6 39 6 76v188l169 13q0 -183 -11 -253q-23 -153 -119 -256z" />
<glyph unicode="&#x201e;" horiz-adv-x="854" d="M114 -203q66 75 86 200q7 39 7 76v188l168 13q0 -183 -11 -253q-23 -152 -118 -256zM480 -203q64 74 86 200q6 39 6 76v188l169 13q0 -183 -11 -253q-23 -153 -119 -256z" />
<glyph unicode="&#x2022;" horiz-adv-x="682" d="M95 634q0 112 73 180q68 65 172 65q107 0 174 -61q72 -66 72 -184q0 -114 -72 -178q-68 -61 -174 -61q-50 0 -94.5 16t-77.5 47q-73 67 -73 176z" />
<glyph unicode="&#x2026;" horiz-adv-x="2046" d="M225 0v203h232v-203h-232zM907 0v203h232v-203h-232zM1589 0v203h232v-203h-232z" />
<glyph unicode="&#x202f;" horiz-adv-x="404" />
<glyph unicode="&#x2039;" horiz-adv-x="852" d="M188 581l378 479l95 -84l-276 -395l278 -396l-97 -86z" />
<glyph unicode="&#x203a;" horiz-adv-x="852" d="M189 185l97 -86l378 482l-378 479l-95 -84l276 -395z" />
<glyph unicode="&#x205f;" horiz-adv-x="505" />
<glyph unicode="&#x20ac;" horiz-adv-x="1194" d="M14 579v117h214v165h-214v118h221q34 293 191 441q174 165 504 165q88 0 173 -19l-47 -146q-54 13 -151 13t-187.5 -29.5t-153.5 -87.5q-117 -109 -148 -337h550l-4 -118h-555q-3 -18 -3 -49v-116h380l-4 -117h-364q55 -309 308 -400q86 -31 195.5 -31t227.5 28l33 -150 q-145 -31 -277.5 -31t-251.5 40t-205 115q-173 152 -209 429h-223z" />
<glyph unicode="&#x2122;" horiz-adv-x="2222" d="M287 1397v134h579v-134h-220v-567h-141v567h-218zM1011 830l30 701h217l209 -484l202 484h227l39 -701h-141l-36 547l-210 -475h-160l-208 471l-29 -543h-140z" />
<glyph unicode="&#x25fc;" horiz-adv-x="1155" d="M0 0v1155h1155v-1155h-1155z" />
<glyph unicode="&#xfb01;" horiz-adv-x="1195" d="M52 1016v141h172v104q-2 38 -2 87q0 260 280 284q46 4 98.5 4t113 -4.5t116.5 -11t105 -14t85 -12.5l-23 -157q-31 2 -79 12l-106 21q-146 30 -214 30q-175 0 -200 -96q-6 -25 -6 -56l3 -100v-91h648v-1157h-171v1016h-477v-1016h-171v1016h-172z" />
<glyph unicode="&#xfb02;" horiz-adv-x="1365" d="M-3 1016v141h172v104q-2 38 -2 76t4.5 74t16.5 66q22 59 85 99q99 60 275.5 60t328.5 -36l158 34l-2 -1322q-4 -110 34 -150q32 -30 96.5 -30t188.5 34l33 -146q-132 -36 -210.5 -38.5t-134.5 11t-96 49.5q-87 77 -83 259l3 1164q-132 40 -288 40h-23q-184 0 -209 -101 q-7 -25 -7 -56l3 -100v-91h254v-141h-254v-1016h-171v1016h-172z" />
</font>
</defs>
</svg>
