<?xml version="1.0" standalone="no"?>
<!DOCTYPE svg PUBLIC "-//W3C//DTD SVG 1.1//EN" "http://www.w3.org/Graphics/SVG/1.1/DTD/svg11.dtd" >
<svg>
<metadata>
Created by FontForge 20090914 at Wed Mar 14 09:47:15 2012
 By www-data
Typeface &#194;&#169; The Monotype Corporation plc. Data &#194;&#169; The Monotype Corporation plc / Type Solutions Inc. 1990-91 All Rights Reserved
</metadata>
<defs>
<font id="CenturyGothic" horiz-adv-x="1460" >
  <font-face 
    font-family="Century Gothic"
    font-weight="400"
    font-stretch="normal"
    units-per-em="2048"
    panose-1="2 11 5 2 2 2 2 2 2 4"
    ascent="1638"
    descent="-410"
    x-height="1088"
    cap-height="1471"
    bbox="-347 -628 2360 2170"
    underline-thickness="119"
    underline-position="-138"
    unicode-range="U+0020-U+F108"
  />
<missing-glyph horiz-adv-x="1536" 
d="M256 0v1280h1024v-1280h-1024zM288 32h960v1216h-960v-1216z" />
    <glyph glyph-name=".notdef" horiz-adv-x="1536" 
d="M256 0v1280h1024v-1280h-1024zM288 32h960v1216h-960v-1216z" />
    <glyph glyph-name="space" unicode=" " horiz-adv-x="567" 
 />
    <glyph glyph-name="exclam" unicode="!" horiz-adv-x="604" 
d="M373 1508v-1140h-145v1140h145zM302 220c34 0 63 -12 87 -36s36 -53.333 36 -88c0 -34 -12 -63.167 -36 -87.5s-53 -36.5 -87 -36.5s-63 12.167 -87 36.5s-36 53.5 -36 87.5c0 34.667 12 64 36 88s53 36 87 36z" />
    <glyph glyph-name="quotedbl" unicode="&#x22;" horiz-adv-x="633" 
d="M562 1045h-103l-22 463h148zM174 1045h-104l-22 463h148z" />
    <glyph glyph-name="numbersign" unicode="#" horiz-adv-x="1475" 
d="M1233 602v-108h-248l-72 -494h-112l72 494h-333l-76 -494h-110l76 494h-246v108h263l51 334h-253v109h269l70 468h107l-68 -468h332l68 468h112l-69 -468h224v-109h-240l-48 -334h231zM940 936h-334l-49 -334h332z" />
    <glyph glyph-name="dollar" unicode="$" horiz-adv-x="1135" 
d="M531 1574h130.998v-109c65.333 -12 121.166 -33.333 167.499 -64s90.833 -76 133.5 -136l-108 -87c-51.333 79.333 -115.666 127.333 -192.999 144v-499c174.667 -92 283.334 -166.667 326.001 -224c54.667 -73.333 82 -154.333 82 -243
c0 -73.333 -20.167 -140.5 -60.5 -201.5s-94.833 -108.5 -163.5 -142.5c-44.667 -22 -106 -38 -184 -48v-313h-131v313c-82 6.66699 -147.667 19.667 -197 39s-97.5 48.5 -144.5 87.5s-86.167 84.167 -117.5 135.5l107 81c92.667 -122.667 210 -191 352 -205v619
c-104.667 51.333 -171 86.333 -199 105c-56.667 38.667 -98.667 81.667 -126 129s-41 102 -41 164c0 60 15 115.667 45 167s70.833 93 122.5 125s117.834 52 198.501 60v103zM530.998 1332c-50 -4 -90.3311 -15.167 -120.998 -33.5s-54.834 -43 -72.501 -74
s-26.5 -65.167 -26.5 -102.5c0 -48 14 -88.667 42 -122c37.333 -45.333 96.666 -86.333 177.999 -123v455zM662 106c80.667 11.333 145.167 40.667 193.5 88s72.5 100.333 72.5 159c0 57.333 -18.5 110.333 -55.5 159s-107.167 100.667 -210.5 156v-562z" />
    <glyph glyph-name="percent" unicode="%" horiz-adv-x="1587" 
d="M1381 1536l-1072 -1638h-132l975 1492c-115.333 -28 -256 -42 -422 -42l-54 1c41.333 -57.333 62 -118 62 -182c0 -91.333 -31.833 -173 -95.5 -245s-148.167 -108 -253.5 -108c-96.667 0 -178 33.5 -244 100.5s-99 148.5 -99 244.5c0 64 15 122.167 45 174.5
s72.667 94.5 128 126.5s112 48 170 48c24.667 0 65.334 -6 122.001 -18c86.667 -18.667 180.667 -28 282 -28c74.667 0 145.167 4.83301 211.5 14.5s152.5 29.5 258.5 59.5h118zM391.999 1381c-60.667 0 -112.334 -21.5 -155.001 -64.5s-64 -94.833 -64 -155.5
s21.333 -112.334 64 -155.001s94.334 -64 155.001 -64s112.5 21.333 155.5 64s64.5 94.334 64.5 155.001s-21.5 112.5 -64.5 155.5s-94.833 64.5 -155.5 64.5zM1195 649c95.333 0 176.833 -33.833 244.5 -101.5s101.5 -149.167 101.5 -244.5s-33.833 -176.833 -101.5 -244.5
s-149.167 -101.5 -244.5 -101.5s-176.833 33.833 -244.5 101.5s-101.5 149.167 -101.5 244.5s33.833 176.833 101.5 244.5s149.167 101.5 244.5 101.5zM1195 522c-60.667 0 -112.334 -21.333 -155.001 -64s-64 -94.334 -64 -155.001s21.333 -112.334 64 -155.001
s94.334 -64 155.001 -64s112.5 21.333 155.5 64s64.5 94.334 64.5 155.001s-21.5 112.334 -64.5 155.001s-94.833 64 -155.5 64z" />
    <glyph glyph-name="ampersand" unicode="&#x26;" horiz-adv-x="1550" 
d="M1292 544l100 -105.996c-64 -56.667 -121.667 -105.667 -173 -147l147 -151c50.667 -50.667 94.334 -97.334 131.001 -140.001h-205l-189 197c-126.667 -96 -228.334 -159 -305.001 -189s-157.667 -45 -243 -45c-113.333 0 -204.333 32.5 -273 97.5
s-103 146.167 -103 243.5c0 73.333 23.167 146.833 69.5 220.5s140.833 166.834 283.5 279.501c-80.667 97.333 -132.5 169.166 -155.5 215.499s-34.5 90.5 -34.5 132.5c0 73.333 28.333 134 85 182c65.333 56 146.666 84 243.999 84c61.333 0 117.333 -12.333 168 -37
s89.334 -57.834 116.001 -99.501s40 -85.834 40 -132.501c0 -49.333 -17.333 -101.833 -52 -157.5s-103 -126.834 -205 -213.501l223 -234l153 -153zM647 888.004c71.333 55.333 125 109.667 161 163c25.333 38 38 71.667 38 101c0 34 -16.5 63.333 -49.5 88
s-76.833 37 -131.5 37c-52 0 -94.333 -12.667 -127 -38s-49 -55.333 -49 -90c0 -26.667 6.66699 -51.667 20 -75c32.667 -56.667 78.667 -118.667 138 -186zM629 693.005c-124.667 -94 -206.333 -168.833 -245 -224.5s-58 -107.167 -58 -154.5
c0 -56 23.667 -105.5 71 -148.5s105.333 -64.5 174 -64.5c52 0 103 10.667 153 32c78.667 34 171.667 89.333 279 166l-240 246z" />
    <glyph glyph-name="quotesingle" unicode="'" horiz-adv-x="405" 
d="M254 1045h-103l-22 463h148z" />
    <glyph glyph-name="parenleft" unicode="(" horiz-adv-x="756" 
d="M470 1536l161.998 -0.000976562c-65.333 -134 -117.666 -290.333 -156.999 -469s-59 -363 -59 -553c0 -176 14.833 -345.667 44.5 -509s70.5 -307 122.5 -431h-154c-49.333 118.667 -88.666 258.334 -117.999 419.001s-44 328 -44 502c0 187.333 17.333 369.833 52 547.5
s85 342.167 151 493.5z" />
    <glyph glyph-name="parenright" unicode=")" horiz-adv-x="756" 
d="M286 -426l-162 0.000976562c66 134 118.5 290.333 157.5 469s58.5 363 58.5 553c0 176 -14.833 345.667 -44.5 509s-70.5 307 -122.5 431h154c50 -118.667 89.5 -258.5 118.5 -419.5s43.5 -328.5 43.5 -502.5c0 -186.667 -17.333 -368.834 -52 -546.501
s-85 -342.167 -151 -493.5z" />
    <glyph glyph-name="asterisk" unicode="*" horiz-adv-x="870" 
d="M369 1508h130l-29 -297l246 176l66 -112l-277 -125l277 -123l-66 -113l-246 174l29 -297h-130l31 297l-246 -174l-66 113l281 123l-281 125l66 112l246 -176z" />
    <glyph glyph-name="plus" unicode="+" horiz-adv-x="1241" 
d="M552 804v434h137v-434h438v-137h-438v-434h-137v434h-437v137h437z" />
    <glyph glyph-name="comma" unicode="," horiz-adv-x="567" 
d="M295 270l135 -64l-203 -378l-99 42z" />
    <glyph glyph-name="hyphen" unicode="-" horiz-adv-x="680" 
d="M65 614h550v-122h-550v122z" />
    <glyph glyph-name="hyphen" unicode="&#xad;" horiz-adv-x="680" 
d="M65 614h550v-122h-550v122z" />
    <glyph glyph-name="period" unicode="." horiz-adv-x="567" 
d="M310 220c34 0 63 -12 87 -36s36 -53.333 36 -88c0 -34 -12 -63.167 -36 -87.5s-53 -36.5 -87 -36.5s-63 12.167 -87 36.5s-36 53.5 -36 87.5c0 34.667 12 64 36 88s53 36 87 36z" />
    <glyph glyph-name="slash" unicode="/" horiz-adv-x="895" 
d="M836 1508l-611 -1708h-153l610 1708h154z" />
    <glyph glyph-name="zero" unicode="0" horiz-adv-x="1135" 
d="M65 735c0 194 20.833 344 62.5 450s100.5 186.333 176.5 241s161 82 255 82c95.333 0 181.666 -27.5 258.999 -82.5s138.5 -137.5 183.5 -247.5s67.5 -257.667 67.5 -443c0 -184.667 -22.167 -331.667 -66.5 -441s-105.5 -191.833 -183.5 -247.5
s-164.667 -83.5 -260 -83.5c-94 0 -178.667 27 -254 81s-134.166 134.5 -176.499 241.5s-63.5 256.833 -63.5 449.5zM204 732c0 -166 14.833 -291.5 44.5 -376.5s73.5 -149.5 131.5 -193.5s119.333 -66 184 -66c65.333 0 126.333 21.5 183 64.5s99.667 107.5 129 193.5
c36.667 104.667 55 230.667 55 378c0 148 -16.333 269.167 -49 363.5s-77.834 163.333 -135.501 207s-118.5 65.5 -182.5 65.5c-65.333 0 -126.666 -21.833 -183.999 -65.5s-101 -108 -131 -193s-45 -210.833 -45 -377.5z" />
    <glyph glyph-name="one" unicode="1" horiz-adv-x="1135" 
d="M379 1471h289v-1471h-146v1327h-231z" />
    <glyph glyph-name="two" unicode="2" horiz-adv-x="1135" 
d="M237 1010h-141c4 145.333 52.5 264.666 145.5 357.999s207.833 140 344.5 140c135.333 0 244.833 -43.667 328.5 -131s125.5 -190.333 125.5 -309c0 -83.333 -20 -161.5 -60 -234.5s-117.667 -171.833 -233 -296.5l-366 -395h679v-142h-999l562 607
c114 122 188.167 212.5 222.5 271.5s51.5 121.167 51.5 186.5c0 82.667 -30.833 153.834 -92.5 213.501s-137.167 89.5 -226.5 89.5c-94 0 -172.167 -31.333 -234.5 -94s-97.833 -150.667 -106.5 -264z" />
    <glyph glyph-name="three" unicode="3" horiz-adv-x="1135" 
d="M271 1130h-149.996c27.333 121.333 79.666 214.666 156.999 279.999s168.666 98 273.999 98c76.667 0 148.167 -17.5 214.5 -52.5s117.666 -82.167 153.999 -141.5s54.5 -121.333 54.5 -186c0 -126.667 -63 -227 -189 -301c70.667 -28.667 128.667 -70.667 174 -126
c64 -78 96 -165.333 96 -262c0 -83.333 -22 -162.833 -66 -238.5s-104 -134.167 -180 -175.5s-161 -62 -255 -62c-126.667 0 -232.334 36.5 -317.001 109.5s-140 180.167 -166 321.5h144c25.333 -95.333 61.666 -164.333 108.999 -207c60.667 -54 138 -81 232 -81
c106.667 0 192.334 32 257.001 96s97 139 97 225c0 57.333 -16.167 111 -48.5 161s-75.666 87.667 -129.999 113s-138.5 41 -252.5 47v135c67.333 0 128.666 11.833 183.999 35.5s95.5 53.834 120.5 90.501s37.5 76.667 37.5 120c0 64 -25.5 119.333 -76.5 166
s-115.5 70 -193.5 70c-63.333 0 -118 -17.833 -164 -53.5s-85 -96.167 -117 -181.5z" />
    <glyph glyph-name="four" unicode="4" horiz-adv-x="1135" 
d="M872 1508h30v-1025h178v-141h-178v-342h-147v342h-703zM755 483v613l-433 -613h433z" />
    <glyph glyph-name="five" unicode="5" horiz-adv-x="1135" 
d="M1007 1471l0.000976562 -139.999h-524l-73 -401c64 18.667 121.667 28 173 28c134 0 244.5 -44.833 331.5 -134.5s130.5 -204.5 130.5 -344.5c0 -96.667 -22.333 -185.334 -67 -266.001s-105.167 -142.5 -181.5 -185.5s-164.5 -64.5 -264.5 -64.5
c-119.333 0 -220 36.5 -302 109.5s-131 167.5 -147 283.5h151c11.333 -56.667 30.5 -102.667 57.5 -138s63 -63.833 108 -85.5s92.167 -32.5 141.5 -32.5c96.667 0 179.667 36.667 249 110s104 165 104 275c0 99.333 -31.333 180 -94 242s-146.334 93 -251.001 93
c-86.667 0 -191.667 -26.333 -315 -79l136 730h637z" />
    <glyph glyph-name="six" unicode="6" horiz-adv-x="1135" 
d="M751 1508l120.998 -79.002l-397 -602c53.333 18 103.333 27 150 27c116.667 0 215.667 -42.167 297 -126.5s122 -188.166 122 -311.499c0 -84.667 -19.667 -161.167 -59 -229.5s-95.166 -122.666 -167.499 -162.999s-150.166 -60.5 -233.499 -60.5
c-80.667 0 -155.5 19.5 -224.5 58.5s-123.167 93.833 -162.5 164.5s-59 146.334 -59 227.001c0 60 12.167 123.167 36.5 189.5s67.833 146.166 130.5 239.499zM589.998 724.998c-85.333 0 -158.166 -30.167 -218.499 -90.5s-90.5 -133.5 -90.5 -219.5
c0 -85.333 30.167 -158.166 90.5 -218.499s133.166 -90.5 218.499 -90.5s158.166 30.167 218.499 90.5s90.5 133.166 90.5 218.499c0 86 -30.167 159.167 -90.5 219.5s-133.166 90.5 -218.499 90.5z" />
    <glyph glyph-name="seven" unicode="7" horiz-adv-x="1135" 
d="M147 1471h933l-787 -1508l-121 62l680 1307h-705v139z" />
    <glyph glyph-name="eight" unicode="8" horiz-adv-x="1135" 
d="M787 807c99.333 -49.333 170.5 -105.664 213.5 -168.997s64.5 -135.333 64.5 -216c0 -113.333 -37 -213.333 -111 -300c-90.667 -106 -220.334 -159 -389.001 -159c-162.667 0 -286 46.5 -370 139.5s-126 195.5 -126 307.5c0 82 22 155.833 66 221.5
s117.333 124.167 220 175.5c-72 37.333 -126 83.666 -162 138.999s-54 114.666 -54 177.999c0 64 19.167 126.5 57.5 187.5s91.333 109 159 144s140.834 52.5 219.501 52.5c76.667 0 147.667 -17.667 213 -53s116.5 -83.333 153.5 -144s55.5 -124.334 55.5 -191.001
s-17.5 -126 -52.5 -178s-87.5 -97 -157.5 -135zM568 1365c-80.667 0 -147.499 -23.833 -200.499 -71.5s-79.5 -104.5 -79.5 -170.5c0 -65.333 28.5 -124.5 85.5 -177.5s123.5 -79.5 199.5 -79.5c48.667 0 94.667 12 138 36s77.166 56.833 101.499 98.5s36.5 83.5 36.5 125.5
c0 59.333 -24 114 -72 164s-117.667 75 -209 75zM575.001 733.002c-101.333 0 -186.332 -32.833 -254.999 -98.5s-103 -142.167 -103 -229.5c0 -54 14.667 -105 44 -153s70.333 -85 123 -111s113.667 -39 183 -39c107.333 0 192.666 31.667 255.999 95s95 137.333 95 222
c0 82 -33.5 154.833 -100.5 218.5s-147.833 95.5 -242.5 95.5z" />
    <glyph glyph-name="nine" unicode="9" horiz-adv-x="1135" 
d="M393 -37l-120.999 78l397 602c-53.333 -17.333 -103.333 -26 -150 -26c-116.667 0 -215.667 42.167 -297 126.5s-122 188.166 -122 311.499c0 84.667 19.667 161 59 229s95.166 122.333 167.499 163s149.833 61 232.5 61c81.333 0 156.5 -19.667 225.5 -59
s123.167 -94.333 162.5 -165s59 -146 59 -226c0 -60.667 -12.167 -124.167 -36.5 -190.5s-67.833 -146.166 -130.5 -239.499zM553.001 746c86 0 159.167 30.167 219.5 90.5s90.5 133.166 90.5 218.499s-30.167 158.166 -90.5 218.499s-133.5 90.5 -219.5 90.5
c-85.333 0 -158.166 -30.167 -218.499 -90.5s-90.5 -133.166 -90.5 -218.499s30.167 -158.166 90.5 -218.499s133.166 -90.5 218.499 -90.5z" />
    <glyph glyph-name="colon" unicode=":" horiz-adv-x="567" 
d="M310 1116c34 0 63 -12 87 -36s36 -53.333 36 -88s-12 -64 -36 -88s-53 -36 -87 -36s-63 12 -87 36s-36 53.333 -36 88c0 34 12 63.167 36 87.5s53 36.5 87 36.5zM310 220c34 0 63 -12 87 -36s36 -53.333 36 -88c0 -34 -12 -63.167 -36 -87.5s-53 -36.5 -87 -36.5
s-63 12.167 -87 36.5s-36 53.5 -36 87.5c0 34.667 12 64 36 88s53 36 87 36z" />
    <glyph glyph-name="semicolon" unicode=";" horiz-adv-x="567" 
d="M310 1116c34 0 63 -12 87 -36s36 -53.333 36 -88s-12 -64 -36 -88s-53 -36 -87 -36s-63 12 -87 36s-36 53.333 -36 88c0 34 12 63.167 36 87.5s53 36.5 87 36.5zM295 270l135 -64l-203 -378l-99 42z" />
    <glyph glyph-name="semicolon" unicode="&#x37e;" horiz-adv-x="567" 
d="M310 1116c34 0 63 -12 87 -36s36 -53.333 36 -88s-12 -64 -36 -88s-53 -36 -87 -36s-63 12 -87 36s-36 53.333 -36 88c0 34 12 63.167 36 87.5s53 36.5 87 36.5zM295 270l135 -64l-203 -378l-99 42z" />
    <glyph glyph-name="less" unicode="&#x3c;" horiz-adv-x="1241" 
d="M1137 347v-146l-1033 469v130l1033 471v-147l-839 -390z" />
    <glyph glyph-name="equal" unicode="=" horiz-adv-x="1241" 
d="M1127 1024v-137h-1012v137h1012zM1127 584v-137h-1012v137h1012z" />
    <glyph glyph-name="greater" unicode="&#x3e;" horiz-adv-x="1241" 
d="M104 347l839 387l-839 390v147l1033 -471v-130l-1033 -469v146z" />
    <glyph glyph-name="question" unicode="?" horiz-adv-x="1210" 
d="M315 1071l-145.001 0.00390625c1.33301 134.667 41.5 241.167 120.5 319.5s184.833 117.5 317.5 117.5c130.667 0 233.334 -33 308.001 -99s112 -148 112 -246c0 -46.667 -10.167 -89.834 -30.5 -129.501s-51.166 -75.334 -92.499 -107.001
s-113.666 -67.834 -216.999 -108.501c-130 -52 -208.667 -90.667 -236 -116c-28 -26 -42 -57.333 -42 -94c0 -38.667 18.833 -73.334 56.5 -104.001s86.5 -46 146.5 -46c66 0 116.667 16.833 152 50.5s57 87.5 65 161.5h146
c-4.66699 -111.333 -39.167 -197.833 -103.5 -259.5s-150.833 -92.5 -259.5 -92.5c-108 0 -194 28 -258 84s-96 125 -96 207c0 40 8.83301 77.833 26.5 113.5s42.667 65.5 75 89.5s93.166 54.333 182.499 91c144 58.667 236.333 102.667 277 132c40 29.333 60 71.333 60 126
c0 58 -24.5 107 -73.5 147s-114.5 60 -196.5 60c-100 0 -177.667 -33 -233 -99c-38.667 -46 -59.334 -112 -62.001 -198zM606.999 220.004c34 0 63 -12 87 -36s36 -53.333 36 -88c0 -34 -12 -63.167 -36 -87.5s-53 -36.5 -87 -36.5s-63 12.167 -87 36.5s-36 53.5 -36 87.5
c0 34.667 12 64 36 88s53 36 87 36z" />
    <glyph glyph-name="at" unicode="@" horiz-adv-x="1776" 
d="M1444 301l106.001 0.00292969c-89.333 -111.333 -172 -189.333 -248 -234c-108 -62.667 -231 -94 -369 -94c-146 0 -280.667 34.5 -404 103.5s-219.5 163.167 -288.5 282.5s-103.5 249.666 -103.5 390.999c0 143.333 34.833 276.666 104.5 399.999
s164.5 219.166 284.5 287.499s251.333 102.5 394 102.5c201.333 0 371.333 -64.5 510 -193.5s208 -279.167 208 -450.5c0 -124.667 -28.833 -232.167 -86.5 -322.5s-135.834 -160.5 -234.501 -210.5c-75.333 -38.667 -139.666 -58 -192.999 -58
c-38.667 0 -69.334 10.333 -92.001 31c-17.333 15.333 -26.333 42 -27 80c-22.667 -28.667 -53.834 -52.667 -93.501 -72s-80.834 -29 -123.501 -29c-96 0 -175.333 33.167 -238 99.5s-94 154.166 -94 263.499c0 118 38 225.667 114 323s180.667 146 314 146
c58.667 0 107.834 -11 147.501 -33s77.167 -60.333 112.5 -115l26 138h108l-116 -654c-3.33301 -21.333 -5 -35 -5 -41c0 -15.333 4.66699 -27.333 14 -36s21.333 -13 36 -13c39.333 0 90.5 22.833 153.5 68.5s112 104.334 147 176.001s52.5 151.167 52.5 238.5
c0 169.333 -65.667 309.666 -197 420.999c-122.667 103.333 -272 155 -448 155c-130.667 0 -249.167 -29.833 -355.5 -89.5s-190.333 -143.667 -252 -252s-92.5 -225.5 -92.5 -351.5c0 -127.333 31 -244.833 93 -352.5s147.833 -192.167 257.5 -253.5s230.5 -92 362.5 -92
c96.667 0 184.334 17.333 263.001 52s163 97.334 253 188.001zM838.001 428.003c44 0 85.332 13.833 123.999 41.5s69.334 69.167 92.001 124.5c29.333 72.667 44 145.667 44 219c0 67.333 -18.833 122 -56.5 164s-86.5 63 -146.5 63c-80 0 -149.167 -32.833 -207.5 -98.5
s-87.5 -147.5 -87.5 -245.5c0 -82 22.167 -147.167 66.5 -195.5s101.5 -72.5 171.5 -72.5z" />
    <glyph glyph-name="A" unicode="A" horiz-adv-x="1515" 
d="M780 1471l686 -1471h-158l-231 484h-634l-230 -484h-164l695 1471h36zM762 1159l-253 -533h503z" />
    <glyph glyph-name="B" unicode="B" horiz-adv-x="1176" 
d="M183 1471h289.998c116.667 0 206.334 -13.833 269.001 -41.5s112.167 -70.167 148.5 -127.5s54.5 -121 54.5 -191c0 -65.333 -16 -124.833 -48 -178.5s-79 -97.167 -141 -130.5c76.667 -26 135.667 -56.5 177 -91.5s73.5 -77.333 96.5 -127s34.5 -103.5 34.5 -161.5
c0 -118 -43.167 -217.833 -129.5 -299.5s-202.166 -122.5 -347.499 -122.5h-404v1471zM326.998 1327v-470.999h84c102 0 177 9.5 225 28.5s86 49 114 90s42 86.5 42 136.5c0 67.333 -23.5 120.166 -70.5 158.499s-121.833 57.5 -224.5 57.5h-170zM326.998 708.001
l0.000976562 -564h182c107.333 0 186 10.5 236 31.5s90.167 53.833 120.5 98.5s45.5 93 45.5 145c0 65.333 -21.333 122.333 -64 171s-101.334 82 -176.001 100c-50 12 -137 18 -261 18h-83z" />
    <glyph glyph-name="C" unicode="C" horiz-adv-x="1665" 
d="M1549 1198l-116.001 -89.001c-64 83.333 -140.833 146.5 -230.5 189.5s-188.167 64.5 -295.5 64.5c-117.333 0 -226 -28.167 -326 -84.5s-177.5 -132 -232.5 -227s-82.5 -201.833 -82.5 -320.5c0 -179.333 61.5 -329 184.5 -449s278.167 -180 465.5 -180
c206 0 378.333 80.667 517 242l116 -88c-73.333 -93.333 -164.833 -165.5 -274.5 -216.5s-232.167 -76.5 -367.5 -76.5c-257.333 0 -460.333 85.667 -609 257c-124.667 144.667 -187 319.334 -187 524.001c0 215.333 75.5 396.5 226.5 543.5s340.167 220.5 567.5 220.5
c137.333 0 261.333 -27.167 372 -81.5s201.334 -130.5 272.001 -228.5z" />
    <glyph glyph-name="D" unicode="D" horiz-adv-x="1524" 
d="M179 0l0.000976562 1471h305c220 0 379.667 -17.667 479 -53c142.667 -50 254.167 -136.667 334.5 -260s120.5 -270.333 120.5 -441c0 -147.333 -31.833 -277 -95.5 -389s-146.334 -194.667 -248.001 -248s-244.167 -80 -427.5 -80h-468zM320.001 139h170.001
c203.333 0 344.333 12.667 423 38c110.667 36 197.667 100.833 261 194.5s95 208.167 95 343.5c0 142 -34.333 263.333 -103 364s-164.334 169.667 -287.001 207c-92 28 -243.667 42 -455 42h-104v-1189z" />
    <glyph glyph-name="E" unicode="E" horiz-adv-x="1098" 
d="M180 1471h843v-145h-696v-460h690v-144h-690v-577h690v-145h-837v1471z" />
    <glyph glyph-name="F" unicode="F" horiz-adv-x="993" 
d="M179 1471h737v-145h-591v-460h591v-145h-591v-721h-146v1471z" />
    <glyph glyph-name="G" unicode="G" horiz-adv-x="1786" 
d="M1598 1224l-114.002 -108c-82 80.667 -171.833 141.834 -269.5 183.501s-192.834 62.5 -285.501 62.5c-115.333 0 -225.166 -28.333 -329.499 -85s-185.166 -133.5 -242.499 -230.5s-86 -199.5 -86 -307.5c0 -110.667 29.667 -215.834 89 -315.501s141.333 -178 246 -235
s219.334 -85.5 344.001 -85.5c151.333 0 279.333 42.667 384 128s166.667 196 186 332h-469v142h634c-1.33301 -227.333 -68.833 -407.833 -202.5 -541.5s-312.5 -200.5 -536.5 -200.5c-272 0 -487.333 92.667 -646 278c-122 142.667 -183 307.667 -183 495
c0 139.333 35 269 105 389s166 213.833 288 281.5s260 101.5 414 101.5c124.667 0 242 -22.5 352 -67.5s217.333 -117.167 322 -216.5z" />
    <glyph glyph-name="H" unicode="H" horiz-adv-x="1399" 
d="M177 1471h148v-617h748v617h148v-1471h-148v710h-748v-710h-148v1471z" />
    <glyph glyph-name="I" unicode="I" horiz-adv-x="463" 
d="M158 1471h147v-1471h-147v1471z" />
    <glyph glyph-name="J" unicode="J" horiz-adv-x="987" 
d="M660 1471l147.999 0.00195312v-993c0 -152.667 -11.833 -258.834 -35.5 -318.501s-63.167 -107.334 -118.5 -143.001s-122.333 -53.5 -201 -53.5c-59.333 0 -117.833 11.5 -175.5 34.5s-121.5 63.5 -191.5 121.5l78 117c76.667 -54 140.334 -92 191.001 -114
c33.333 -14.667 66 -22 98 -22c42 0 80.167 12.667 114.5 38s58.333 59 72 101s20.5 123.333 20.5 244v988z" />
    <glyph glyph-name="K" unicode="K" horiz-adv-x="1210" 
d="M179 1471h150v-552l587 552h199l-707 -660l762 -811h-195l-646 686v-686h-150v1471z" />
    <glyph glyph-name="L" unicode="L" horiz-adv-x="946" 
d="M179 1471h148v-1329h565v-142h-713v1471z" />
    <glyph glyph-name="M" unicode="M" horiz-adv-x="1882" 
d="M112 0l209 1471h24l598 -1207l592 1207h24l211 -1471h-145l-144 1052l-520 -1052h-37l-527 1060l-143 -1060h-142z" />
    <glyph glyph-name="N" unicode="N" horiz-adv-x="1515" 
d="M180 0v1471h32l978 -1126v1126h145v-1471h-33l-970 1112v-1112h-152z" />
    <glyph glyph-name="O" unicode="O" horiz-adv-x="1780" 
d="M880 1508c222.667 0 409 -74.333 559 -223s225 -331.667 225 -549c0 -215.333 -74.833 -398 -224.5 -548s-332.167 -225 -547.5 -225c-218 0 -402 74.667 -552 224s-225 330 -225 542c0 141.333 34.167 272.333 102.5 393s161.5 215.167 279.5 283.5
s245.667 102.5 383 102.5zM887 1364c-108.667 0 -211.666 -28.333 -308.999 -85s-173.333 -133 -228 -229s-82 -203 -82 -321c0 -174.667 60.5 -322.167 181.5 -442.5s266.833 -180.5 437.5 -180.5c114 0 219.5 27.667 316.5 83s172.667 131 227 227s81.5 202.667 81.5 320
c0 116.667 -27.167 222.167 -81.5 316.5s-130.833 169.833 -229.5 226.5s-203.334 85 -314.001 85z" />
    <glyph glyph-name="P" unicode="P" horiz-adv-x="1212" 
d="M178 1471l293.001 -0.000976562c168 0 281.333 -7.33301 340 -22c84 -20.667 152.667 -63.167 206 -127.5s80 -145.166 80 -242.499c0 -98 -26 -178.833 -78 -242.5s-123.667 -106.5 -215 -128.5c-66.667 -16 -191.334 -24 -374.001 -24h-105v-684h-147v1471z
M325.001 1328l-0.000976562 -500l249 -3c100.667 0 174.334 9.16699 221.001 27.5s83.334 48 110.001 89s40 86.833 40 137.5c0 49.333 -13.333 94.5 -40 135.5s-61.834 70.167 -105.501 87.5s-115.167 26 -214.5 26h-260z" />
    <glyph glyph-name="Q" unicode="Q" horiz-adv-x="1784" 
d="M1413 160l218.001 -276h-181l-150 190c-120 -74 -255.333 -111 -406 -111c-218 0 -402 74.667 -552 224s-225 330 -225 542c0 141.333 34.333 272.5 103 393.5s162.167 215.5 280.5 283.5s248.166 102 389.499 102c218 0 401.833 -74.5 551.5 -223.5
s224.5 -332.167 224.5 -549.5c0 -113.333 -20.5 -217 -61.5 -311s-104.833 -182 -191.5 -264zM1322 275c128 124.667 191.998 278.332 191.998 460.999c0 116.667 -27.167 222.167 -81.5 316.5s-130.833 169.833 -229.5 226.5s-202.667 85 -312 85
c-110 0 -213.667 -28.167 -311 -84.5s-173.333 -132.666 -228 -228.999s-82 -203.5 -82 -321.5c0 -174.667 60.333 -322.167 181 -442.5s266.334 -180.5 437.001 -180.5c116.667 0 223.334 28.333 320.001 85l-328 416h179z" />
    <glyph glyph-name="R" unicode="R" horiz-adv-x="1243" 
d="M187 1471h293c163.333 0 274 -6.66699 332 -20c87.333 -20 158.333 -62.833 213 -128.5s82 -146.5 82 -242.5c0 -80 -18.833 -150.333 -56.5 -211s-91.5 -106.5 -161.5 -137.5s-166.667 -46.833 -290 -47.5l529 -684h-182l-528 684h-84v-684h-147v1471zM334 1327
v-499.998l253 -2c98 0 170.5 9.33301 217.5 28s83.667 48.5 110 89.5s39.5 86.833 39.5 137.5c0 49.333 -13.333 94.166 -40 134.499s-61.667 69.166 -105 86.499s-115.333 26 -216 26h-259z" />
    <glyph glyph-name="S" unicode="S" horiz-adv-x="1020" 
d="M27 274l125.005 75.0029c88 -162 189.667 -243 305 -243c49.333 0 95.666 11.5 138.999 34.5s76.333 53.833 99 92.5s34 79.667 34 123c0 49.333 -16.667 97.666 -50 144.999c-46 65.333 -130 144 -252 236c-122.667 92.667 -199 159.667 -229 201
c-52 69.333 -78 144.333 -78 225c0 64 15.333 122.333 46 175s73.834 94.167 129.501 124.5s116.167 45.5 181.5 45.5c69.333 0 134.166 -17.167 194.499 -51.5s124.166 -97.5 191.499 -189.5l-120 -91c-55.333 73.333 -102.5 121.666 -141.5 144.999s-81.5 35 -127.5 35
c-59.333 0 -107.833 -18 -145.5 -54s-56.5 -80.333 -56.5 -133c0 -32 6.66699 -63 20 -93s37.666 -62.667 72.999 -98c19.333 -18.667 82.666 -67.667 189.999 -147c127.333 -94 214.666 -177.667 261.999 -251s71 -147 71 -221c0 -106.667 -40.5 -199.334 -121.5 -278.001
s-179.5 -118 -295.5 -118c-89.333 0 -170.333 23.833 -243 71.5s-139.667 127.5 -201 239.5z" />
    <glyph glyph-name="T" unicode="T" horiz-adv-x="872" 
d="M33 1328v143h807v-143h-328v-1328h-150v1328h-329z" />
    <glyph glyph-name="U" unicode="U" horiz-adv-x="1341" 
d="M184 1471h147.001v-888c0 -105.333 2 -171 6 -197c7.33301 -58 24.333 -106.5 51 -145.5s67.667 -71.667 123 -98s111 -39.5 167 -39.5c48.667 0 95.334 10.333 140.001 31s82 49.334 112 86.001s52 81 66 133c10 37.333 15 114 15 230v888h147v-888
c0 -131.333 -12.833 -237.5 -38.5 -318.5s-77 -151.5 -154 -211.5s-170.167 -90 -279.5 -90c-118.667 0 -220.334 28.333 -305.001 85s-141.334 131.667 -170.001 225c-18 57.333 -27 160.666 -27 309.999v888z" />
    <glyph glyph-name="V" unicode="V" horiz-adv-x="1438" 
d="M67 1471h160l487 -1137l496 1137h160l-640 -1471h-32z" />
    <glyph glyph-name="W" unicode="W" horiz-adv-x="1966" 
d="M96 1471h151l299 -1060l422 1060h30l417 -1060l305 1060h150l-422 -1471h-28l-436 1113l-445 -1113h-28z" />
    <glyph glyph-name="X" unicode="X" horiz-adv-x="1247" 
d="M101 1471h172l352 -574l355 574h170l-438 -713l467 -758h-172l-382 617l-384 -617h-172l469 758z" />
    <glyph glyph-name="Y" unicode="Y" horiz-adv-x="1212" 
d="M63 1471h170l376 -606l370 606h170l-466 -768v-703h-145v703z" />
    <glyph glyph-name="Z" unicode="Z" horiz-adv-x="983" 
d="M122 1329v142h776l-615 -1328h584v-143h-811l619 1329h-553z" />
    <glyph glyph-name="bracketleft" unicode="[" horiz-adv-x="719" 
d="M290 1508h336v-142h-196v-1627h196v-137h-336v1906z" />
    <glyph glyph-name="backslash" unicode="\" horiz-adv-x="1239" 
d="M220 1508l952 -1708h-153l-953 1708h154z" />
    <glyph glyph-name="bracketright" unicode="]" horiz-adv-x="719" 
d="M429 -398h-336v142h195v1627h-195v137h336v-1906z" />
    <glyph glyph-name="asciicircum" unicode="^" horiz-adv-x="1376" 
d="M629 1471h118l510 -1106h-133l-439 952l-436 -952h-129z" />
    <glyph glyph-name="underscore" unicode="_" horiz-adv-x="1024" 
d="M-12 -154h1048v-102h-1048v102z" />
    <glyph glyph-name="grave" unicode="`" horiz-adv-x="774" 
d="M326 1598l218 -308h-138l-295 308h215z" />
    <glyph glyph-name="a" unicode="a" horiz-adv-x="1399" 
d="M1240 1088l0.000976562 -1088h-138v187c-58.667 -71.333 -124.5 -125 -197.5 -161s-152.833 -54 -239.5 -54c-154 0 -285.5 55.833 -394.5 167.5s-163.5 247.5 -163.5 407.5c0 156.667 55 290.667 165 402s242.333 167 397 167c89.333 0 170.166 -19 242.499 -57
s135.833 -95 190.5 -171v200h138zM680.001 981c-78 0 -150 -19.1689 -216 -57.502s-118.5 -92.166 -157.5 -161.499s-58.5 -142.666 -58.5 -219.999c0 -76.667 19.667 -150 59 -220s92.166 -124.5 158.499 -163.5s137.5 -58.5 213.5 -58.5
c76.667 0 149.334 19.333 218.001 58s121.5 91 158.5 157s55.5 140.333 55.5 223c0 126 -41.5 231.333 -124.5 316s-185.167 127 -306.5 127z" />
    <glyph glyph-name="b" unicode="b" horiz-adv-x="1397" 
d="M165 0l-0.00195312 1508h139v-607c58.667 72 124.334 125.833 197.001 161.5s152.334 53.5 239.001 53.5c154 0 285.5 -55.833 394.5 -167.5s163.5 -247.167 163.5 -406.5c0 -157.333 -55 -291.666 -165 -402.999s-242.333 -167 -397 -167c-88.667 0 -169 19 -241 57
s-135.667 95 -191 171v-200h-139zM724.998 106.999c78 0 149.998 19.1689 215.998 57.502s118.5 92.166 157.5 161.499s58.5 142.666 58.5 219.999s-19.667 151 -59 221s-92.166 124.5 -158.499 163.5s-137.166 58.5 -212.499 58.5c-76.667 0 -149.5 -19.5 -218.5 -58.5
s-122 -91.5 -159 -157.5s-55.5 -140.333 -55.5 -223c0 -126 41.5 -231.333 124.5 -316s185.167 -127 306.5 -127z" />
    <glyph glyph-name="c" unicode="c" horiz-adv-x="1325" 
d="M1212 862l-110.999 -68.999c-96 127.333 -227 191 -393 191c-132.667 0 -242.834 -42.667 -330.501 -128s-131.5 -189 -131.5 -311c0 -79.333 20.167 -154 60.5 -224s95.666 -124.333 165.999 -163s149.166 -58 236.499 -58c160 0 290.667 63.667 392 191l111 -73
c-52 -78 -121.833 -138.5 -209.5 -181.5s-187.5 -64.5 -299.5 -64.5c-172 0 -314.667 54.667 -428 164s-170 242.333 -170 399c0 105.333 26.5 203.166 79.5 293.499s125.833 160.833 218.5 211.5s196.334 76 311.001 76c72 0 141.5 -11 208.5 -33
s123.833 -50.667 170.5 -86s86.334 -80.333 119.001 -135z" />
    <glyph glyph-name="d" unicode="d" horiz-adv-x="1403" 
d="M1242 1508l0.000976562 -1508h-138v187c-58.667 -71.333 -124.5 -125 -197.5 -161s-152.833 -54 -239.5 -54c-154 0 -285.5 55.833 -394.5 167.5s-163.5 247.5 -163.5 407.5c0 156.667 55 290.667 165 402s242.333 167 397 167c89.333 0 170.166 -19 242.499 -57
s135.833 -95 190.5 -171v620h138zM682.001 981c-78 0 -150 -19.1689 -216 -57.502s-118.5 -92.166 -157.5 -161.499s-58.5 -142.666 -58.5 -219.999c0 -76.667 19.667 -150 59 -220s92.166 -124.5 158.499 -163.5s137.5 -58.5 213.5 -58.5
c76.667 0 149.334 19.333 218.001 58s121.5 91 158.5 157s55.5 140.333 55.5 223c0 126 -41.5 231.333 -124.5 316s-185.167 127 -306.5 127z" />
    <glyph glyph-name="e" unicode="e" horiz-adv-x="1331" 
d="M1072 361l118.001 -62c-38.667 -76 -83.334 -137.333 -134.001 -184s-107.667 -82.167 -171 -106.5s-135 -36.5 -215 -36.5c-177.333 0 -316 58.167 -416 174.5s-150 247.833 -150 394.5c0 138 42.333 261 127 369c107.333 137.333 251 206 431 206
c185.333 0 333.333 -70.333 444 -211c78.667 -99.333 118.667 -223.333 120 -372h-978c2.66699 -126.667 43 -230.5 121 -311.5s174.333 -121.5 289 -121.5c55.333 0 109.166 9.66699 161.499 29s96.833 45 133.5 77s76.334 83.667 119.001 155zM1072 654
c-18.667 74.667 -45.8301 134.333 -81.4971 179s-82.834 80.667 -141.501 108s-120.334 41 -185.001 41c-106.667 0 -198.334 -34.333 -275.001 -103c-56 -50 -98.333 -125 -127 -225h810z" />
    <glyph glyph-name="f" unicode="f" horiz-adv-x="643" 
d="M604 1508l0.00195312 -136.999c-51.333 22 -95.333 33 -132 33c-27.333 0 -50 -5.5 -68 -16.5s-29.333 -23.667 -34 -38s-7 -52.5 -7 -114.5v-147h227v-120h-228v-968h-140v968h-143v120h143v170c0 78 7.16699 133.667 21.5 167s38.666 60.166 72.999 80.499
s75.833 30.5 124.5 30.5c45.333 0 99.666 -9.33301 162.999 -28z" />
    <glyph glyph-name="g" unicode="g" horiz-adv-x="1378" 
d="M1093 1088l141.003 0.00390625v-867c0 -152.667 -13.333 -264.334 -40 -335.001c-36.667 -100 -100.334 -177 -191.001 -231s-199.667 -81 -327 -81c-93.333 0 -177.166 13.167 -251.499 39.5s-134.833 61.666 -181.5 105.999s-89.667 109.166 -129 194.499h152
c41.333 -72 94.666 -125.333 159.999 -160s146.333 -52 243 -52c95.333 0 175.833 17.833 241.5 53.5s112.5 80.5 140.5 134.5s42 141 42 261v56c-52.667 -66.667 -117 -117.834 -193 -153.501s-156.667 -53.5 -242 -53.5c-100 -0 -194 24.833 -282 74.5
s-156 116.5 -204 200.5s-72 176.333 -72 277s25 194.5 75 281.5s119.167 155.833 207.5 206.5s181.5 76 279.5 76c81.333 0 157.166 -16.833 227.499 -50.5s138.166 -89.167 203.499 -166.5v189zM680.003 981.004c-79.333 0 -153 -19.165 -221 -57.498
s-121.333 -91.333 -160 -159s-58 -140.834 -58 -219.501c0 -119.333 40 -218 120 -296s183.667 -117 311 -117c128.667 0 232.167 38.667 310.5 116s117.5 179 117.5 305c0 82 -18 155.167 -54 219.5s-87 115.166 -153 152.499s-137 56 -213 56z" />
    <glyph glyph-name="h" unicode="h" horiz-adv-x="1249" 
d="M156 1508l140 0.000976562v-615c56.667 74.667 119 130.5 187 167.5s141.667 55.5 221 55.5c81.333 0 153.5 -20.667 216.5 -62s109.5 -96.833 139.5 -166.5s45 -178.834 45 -327.501v-560h-140v519c0 125.333 -5 209 -15 251c-17.333 72 -48.833 126.167 -94.5 162.5
s-105.5 54.5 -179.5 54.5c-84.667 0 -160.5 -28 -227.5 -84s-111.167 -125.333 -132.5 -208c-13.333 -53.333 -20 -152 -20 -296v-399h-140v1508z" />
    <glyph glyph-name="i" unicode="i" horiz-adv-x="410" 
d="M205 1536c32 0 59.333 -11.333 82 -34s34 -50 34 -82c0 -31.333 -11.333 -58.333 -34 -81s-50 -34 -82 -34c-31.333 0 -58.333 11.333 -81 34s-34 49.667 -34 81c0 32 11.333 59.333 34 82s49.667 34 81 34zM135 1088h141v-1088h-141v1088z" />
    <glyph glyph-name="j" unicode="j" horiz-adv-x="416" 
d="M208 1536c32 0 59.167 -11.333 81.5 -34s33.5 -50 33.5 -82c0 -31.333 -11.167 -58.333 -33.5 -81s-49.5 -34 -81.5 -34s-59.167 11.333 -81.5 34s-33.5 49.667 -33.5 81c0 32 11.167 59.333 33.5 82s49.5 34 81.5 34zM139 1088h141.999v-1252
c0 -91.333 -16.5 -157.833 -49.5 -199.5s-78.167 -62.5 -135.5 -62.5c-47.333 0 -100.666 11.333 -159.999 34v126c37.333 -19.333 71 -29 101 -29c38 0 66.333 15.667 85 47c11.333 20 17 61.667 17 125v1211z" />
    <glyph glyph-name="k" unicode="k" horiz-adv-x="1028" 
d="M155 1508h141v-858l503 438h206l-597 -519l632 -569h-198l-546 489v-489h-141v1508z" />
    <glyph glyph-name="l" unicode="l" horiz-adv-x="410" 
d="M135 1508h140v-1508h-140v1508z" />
    <glyph glyph-name="m" unicode="m" horiz-adv-x="1921" 
d="M155 1088l139 -0.000976562v-188c48.667 69.333 98.667 120 150 152c70.667 42.667 145 64 223 64c52.667 0 102.667 -10.333 150 -31s86 -48.167 116 -82.5s56 -83.5 78 -147.5c46.667 85.333 105 150.166 175 194.499s145.333 66.5 226 66.5
c75.333 0 141.833 -19 199.5 -57s100.5 -91 128.5 -159s42 -170 42 -306v-594h-143v594c0 116.667 -8.33301 196.834 -25 240.501s-45.167 78.834 -85.5 105.501s-88.5 40 -144.5 40c-68 0 -130.167 -20 -186.5 -60s-97.5 -93.333 -123.5 -160s-39 -178 -39 -334v-426h-139
v557c0 131.333 -8.16699 220.5 -24.5 267.5s-44.833 84.667 -85.5 113s-89 42.5 -145 42.5c-64.667 0 -125.167 -19.5 -181.5 -58.5s-98 -91.5 -125 -157.5s-40.5 -167 -40.5 -303v-461h-139v1088z" />
    <glyph glyph-name="n" unicode="n" horiz-adv-x="1249" 
d="M156 1088h140v-195c56 74.667 118 130.5 186 167.5s142 55.5 222 55.5c81.333 0 153.5 -20.667 216.5 -62s109.5 -97 139.5 -167s45 -179 45 -327v-560h-139v519c0 125.333 -5.33301 209 -16 251c-16.667 72 -48 126.167 -94 162.5s-106 54.5 -180 54.5
c-84.667 0 -160.5 -28 -227.5 -84s-111.167 -125.333 -132.5 -208c-13.333 -54 -20 -152.667 -20 -296v-399h-140v1088z" />
    <glyph glyph-name="o" unicode="o" horiz-adv-x="1341" 
d="M671 1116c167.333 0 306.001 -60.668 416.001 -182.001c100 -110.667 150 -241.667 150 -393c0 -152 -52.833 -284.833 -158.5 -398.5s-241.5 -170.5 -407.5 -170.5c-166.667 0 -302.834 56.833 -408.501 170.5s-158.5 246.5 -158.5 398.5
c0 150.667 50 281.334 150 392.001c110 122 249 183 417 183zM671.001 978.999c-116 0 -215.667 -43 -299 -129s-125 -190 -125 -312c0 -78.667 19 -152 57 -220s89.333 -120.5 154 -157.5s135.667 -55.5 213 -55.5s148.333 18.5 213 55.5s116 89.5 154 157.5
s57 141.333 57 220c0 122 -41.833 226 -125.5 312s-183.167 129 -298.5 129z" />
    <glyph glyph-name="p" unicode="p" horiz-adv-x="1397" 
d="M158 1088h139.002v-200c55.333 76 119 133 191 171s152.333 57 241 57c154.667 0 287 -55.667 397 -167s165 -245.333 165 -402c0 -160 -54.5 -295.833 -163.5 -407.5s-240.5 -167.5 -394.5 -167.5c-86.667 0 -166.334 18 -239.001 54s-138.334 89.667 -197.001 161v-585
h-139v1486zM718.002 981c-121.333 0 -223.498 -42.3311 -306.498 -126.998s-124.5 -190 -124.5 -316c0 -82.667 18.5 -157 55.5 -223s90 -118.333 159 -157s141.833 -58 218.5 -58c75.333 0 146.166 19.5 212.499 58.5s119.166 93.5 158.499 163.5s59 143.333 59 220
c0 77.333 -19.5 150.666 -58.5 219.999s-91.5 123.166 -157.5 161.499s-138 57.5 -216 57.5z" />
    <glyph glyph-name="q" unicode="q" horiz-adv-x="1397" 
d="M1239 1088l0.000976562 -1486h-138v585c-58.667 -71.333 -124.5 -125 -197.5 -161s-152.833 -54 -239.5 -54c-154 0 -285.5 55.833 -394.5 167.5s-163.5 247.5 -163.5 407.5c0 156.667 55 290.667 165 402s242.333 167 397 167c89.333 0 170.166 -19 242.499 -57
s135.833 -95 190.5 -171v200h138zM679.001 981c-78 0 -150 -19.1689 -216 -57.502s-118.5 -92.166 -157.5 -161.499s-58.5 -142.666 -58.5 -219.999c0 -76.667 19.667 -150 59 -220s92.166 -124.5 158.499 -163.5s137.5 -58.5 213.5 -58.5
c76.667 0 149.334 19.333 218.001 58s121.5 91 158.5 157s55.5 140.333 55.5 223c0 126 -41.5 231.333 -124.5 316s-185.167 127 -306.5 127z" />
    <glyph glyph-name="r" unicode="r" horiz-adv-x="616" 
d="M103 1088h143.001v-159c42.667 62.667 87.667 109.5 135 140.5s96.666 46.5 147.999 46.5c38.667 0 80 -12.333 124 -37l-73 -118c-29.333 12.667 -54 19 -74 19c-46.667 0 -91.667 -19.167 -135 -57.5s-76.333 -97.833 -99 -178.5c-17.333 -62 -26 -187.333 -26 -376
v-368h-143v1088z" />
    <glyph glyph-name="s" unicode="s" horiz-adv-x="795" 
d="M703 969l-90.001 -93.001c-74.667 72.667 -147.667 109 -219 109c-45.333 0 -84.166 -15 -116.499 -45s-48.5 -65 -48.5 -105c0 -35.333 13.333 -69 40 -101c26.667 -32.667 82.667 -71 168 -115c104 -54 174.667 -106 212 -156c36.667 -50.667 55 -107.667 55 -171
c0 -89.333 -31.333 -165 -94 -227s-141 -93 -235 -93c-62.667 0 -122.5 13.667 -179.5 41s-104.167 65 -141.5 113l88 100c71.333 -80.667 147 -121 227 -121c56 0 103.667 18 143 54s59 78.333 59 127c0 40 -13 75.667 -39 107c-26 30.667 -84.667 69.334 -176 116.001
c-98 50.667 -164.667 100.667 -200 150s-53 105.666 -53 168.999c0 82.667 28.167 151.334 84.5 206.001s127.5 82 213.5 82c100 0 200.667 -49 302 -147z" />
    <glyph glyph-name="t" unicode="t" horiz-adv-x="694" 
d="M278 1492h141v-404h222v-120h-222v-968h-141v968h-191v120h191v404z" />
    <glyph glyph-name="u" unicode="u" horiz-adv-x="1245" 
d="M138 1088l141 0.000976562v-508c0 -124 6.66699 -209.333 20 -256c20 -66.667 58.167 -119.334 114.5 -158.001s123.5 -58 201.5 -58s144.167 18.833 198.5 56.5s91.833 87.167 112.5 148.5c14 42 21 131 21 267v508h143v-534c0 -150 -17.5 -263 -52.5 -339
s-87.667 -135.5 -158 -178.5s-158.5 -64.5 -264.5 -64.5s-194.5 21.5 -265.5 64.5s-124 103 -159 180s-52.5 192.833 -52.5 347.5v524z" />
    <glyph glyph-name="v" unicode="v" horiz-adv-x="1135" 
d="M53 1088h149l364 -792l361 792h150l-498 -1088h-25z" />
    <glyph glyph-name="w" unicode="w" horiz-adv-x="1702" 
d="M9 1088h144l333 -790l349 790h25l348 -790l339 790h146l-472 -1088h-27l-346 779l-349 -779h-26z" />
    <glyph glyph-name="x" unicode="x" horiz-adv-x="983" 
d="M32 1088h168l288 -403l288 403h168l-372 -517l419 -571h-170l-333 457l-328 -457h-167l412 571z" />
    <glyph glyph-name="y" unicode="y" horiz-adv-x="1098" 
d="M39 1088h148l374 -838l363 838h149l-649 -1486h-148l210 480z" />
    <glyph glyph-name="z" unicode="z" horiz-adv-x="870" 
d="M67 1088h799l-616 -964h596v-124h-837l616 965h-558v123z" />
    <glyph glyph-name="braceleft" unicode="{" horiz-adv-x="719" 
d="M75 591c40.667 1.33301 73.668 9.33301 99.001 24c32.667 19.333 57.5 46 74.5 80s27.167 82 30.5 144c1.33301 30.667 2.5 101 3.5 211s8.16699 188.667 21.5 236s34 85 62 113s63.667 48.333 107 61c26 7.33301 67.667 11 125 11h56v-157h-31
c-70 0 -116.167 -12.833 -138.5 -38.5s-33.5 -81.5 -33.5 -167.5c0 -155.333 -2.33301 -254.333 -7 -297c-8.66699 -82 -28.167 -144.833 -58.5 -188.5s-78.166 -81.167 -143.499 -112.5c73.333 -31.333 126.5 -78.5 159.5 -141.5s49.5 -166.167 49.5 -309.5
c0 -128 1.33301 -203.667 4 -227c4 -36 12.333 -63.667 25 -83c9.33301 -13.333 24.166 -23.833 44.499 -31.5s63.5 -11.5 129.5 -11.5v-157h-56c-66.667 0 -115.334 5.66699 -146.001 17c-44.667 16.667 -80.5 43.5 -107.5 80.5s-44.5 86.5 -52.5 148.5
c-6 44 -9.33301 126 -10 246c-0.666992 122.667 -7.5 205.667 -20.5 249s-35.167 76.833 -66.5 100.5s-71.333 36.167 -120 37.5v163z" />
    <glyph glyph-name="bar" unicode="|" horiz-adv-x="1376" 
d="M616 1508h143v-1906h-143v1906z" />
    <glyph glyph-name="braceright" unicode="}" horiz-adv-x="719" 
d="M644 591l-0.000976562 -162.995c-40.667 -0.666992 -73.667 -8.33398 -99 -23.001c-32.667 -19.333 -57.5 -46 -74.5 -80s-27.167 -82 -30.5 -144c-1.33301 -30.667 -2.5 -101.167 -3.5 -211.5s-8.16699 -189 -21.5 -236s-34 -84.667 -62 -113s-63.667 -48.5 -107 -60.5
c-26 -7.33301 -67.667 -11 -125 -11h-56v157h31c70 0 116.167 12.667 138.5 38s33.5 81 33.5 167c0 159.333 2.66699 260.666 8 303.999c9.33301 80.667 30.5 143.667 63.5 189s78.833 80.666 137.5 105.999c-78 37.333 -132.333 86.5 -163 147.5s-46 161.833 -46 302.5
c0 147.333 -3 233.666 -9 258.999c-7.33301 34 -21.5 58.333 -42.5 73s-61.167 22 -120.5 22h-31v157h56c66.667 0 115.334 -6 146.001 -18c44.667 -16 80.5 -42.667 107.5 -80s44.5 -86.666 52.5 -147.999c6 -44 9.33301 -126 10 -246
c0.666992 -122.667 7.5 -205.834 20.5 -249.501s35.167 -77.334 66.5 -101.001s71.333 -36.167 120 -37.5z" />
    <glyph glyph-name="asciitilde" unicode="~" horiz-adv-x="1241" 
d="M1128 837l-0.00390625 -161.998c-74.667 -42 -128.167 -68.5 -160.5 -79.5s-62.833 -16.5 -91.5 -16.5c-63.333 0 -151.666 25.667 -264.999 77c-88 40 -144.167 63.833 -168.5 71.5s-47.166 11.5 -68.499 11.5c-29.333 0 -61.666 -6.33301 -96.999 -19
s-90.333 -41.334 -165 -86.001v160c73.333 41.333 126.333 67.666 159 78.999s64.334 17 95.001 17c64.667 0 154 -27 268 -81c78.667 -37.333 132.5 -60.5 161.5 -69.5s55.167 -13.5 78.5 -13.5c28 0 56.333 5.5 85 16.5s85 42.5 169 94.5z" />
    <glyph glyph-name="nonbreakingspace" unicode="&#xa0;" horiz-adv-x="573" 
 />
    <glyph glyph-name="exclamdown" unicode="&#xa1;" horiz-adv-x="604" 
d="M302 1110c34 0 63 -12 87 -36s36 -53.333 36 -88s-12 -64 -36 -88s-53 -36 -87 -36s-63 12 -87 36s-36 53.333 -36 88c0 34 12 63.167 36 87.5s53 36.5 87 36.5zM231 -426v1140h145v-1140h-145z" />
    <glyph glyph-name="cent" unicode="&#xa2;" horiz-adv-x="1135" 
d="M961 1340l121.002 -60l-132 -257c48 -30.667 86.667 -62 116 -94l-85 -105c-30.667 29.333 -62.334 54.666 -95.001 75.999l-394 -766c50 -21.333 98 -32 144 -32c97.333 0 199.333 42.667 306 128l91 -106c-52 -46 -113.333 -82.833 -184 -110.5
s-141.334 -41.5 -212.001 -41.5c-64 0 -133.333 12.333 -208 37l-152 -295l-117 64l151 301c-72 64.667 -124.667 134.334 -158 209.001s-50 157 -50 247c0 160 50.167 296.833 150.5 410.5s231.5 170.5 393.5 170.5c60 0 120.333 -11 181 -33zM765.002 961
c-42.667 14 -83 21.002 -121 21.002c-114 0 -209.167 -40.167 -285.5 -120.5s-114.5 -186.5 -114.5 -318.5c0 -72.667 11 -136.334 33 -191.001s55.333 -102.334 100 -143.001z" />
    <glyph glyph-name="sterling" unicode="&#xa3;" horiz-adv-x="1135" 
d="M99 844l253.998 -0.000976562c-36 128 -56 203.667 -60 227c-7.33301 38 -11 74 -11 108c0 89.333 34.667 166.5 104 231.5s155 97.5 257 97.5c66.667 0 123.834 -14.167 171.501 -42.5s86.834 -69.333 117.501 -123s49.667 -126.167 57 -217.5h-136
c-2.66699 80.667 -22.334 142.334 -59.001 185.001s-85.667 64 -147 64c-67.333 0 -121.666 -18.833 -162.999 -56.5s-62 -87.167 -62 -148.5c0 -54 9.66699 -108.333 29 -163l7 -18l45 -144h320v-129h-286c24.667 -84 37 -172 37 -264c0 -71.333 -7.33301 -134 -22 -188
c40.667 -34 96 -72.333 166 -115c40 -24 76.667 -36 110 -36c63.333 0 98.666 77.333 105.999 232h141c0.666992 -78 -10.5 -148.5 -33.5 -211.5s-51.167 -107 -84.5 -132s-70.666 -37.5 -111.999 -37.5c-44.667 0 -93 11.667 -145 35c-72 32 -137.667 73.667 -197 125
c-55.333 -106.667 -134.333 -160 -237 -160c-64 0 -114.833 16.833 -152.5 50.5s-56.5 79.5 -56.5 137.5c0 64 22 118.667 66 164s96 68 156 68c44.667 0 92.667 -13 144 -39c4.66699 44.667 7 80 7 106c0 94 -15 182.333 -45 265h-286v129zM384.998 206.999
c-45.333 27.333 -83.333 40.999 -114 40.999c-22 0 -40.333 -7.33301 -55 -22s-22 -33 -22 -55c0 -21.333 6.5 -39.166 19.5 -53.499s28.833 -21.5 47.5 -21.5c50 0 91.333 37 124 111z" />
    <glyph glyph-name="currency" unicode="&#xa4;" horiz-adv-x="1135" 
d="M42 192l116.001 113.998c-40.667 54.667 -68.834 105.834 -84.501 153.501s-23.5 99.167 -23.5 154.5c0 59.333 9.33301 116.333 28 171c14 42 41.667 88.667 83 140l-120 117l90 91l120 -119c50.667 39.333 102.834 67.833 156.501 85.5s108.5 26.5 164.5 26.5
c54 0 106 -8 156 -24s102 -43.333 156 -82l117 113l88 -91l-116 -112c42.667 -52.667 72.5 -103.667 89.5 -153s25.5 -103.333 25.5 -162c0 -57.333 -8.16699 -110.166 -24.5 -158.499s-44.5 -98.5 -84.5 -150.5l116 -114l-89 -90l-116 115
c-52.667 -41.333 -104.834 -70.833 -156.501 -88.5s-106.5 -26.5 -164.5 -26.5c-57.333 0 -111.5 8.66699 -162.5 26s-103.833 47 -158.5 89l-117 -115zM193.001 611.998c0 -102.667 36.833 -190.332 110.5 -262.999s162.167 -109 265.5 -109c104 0 192.667 36.667 266 110
s110 161.666 110 264.999s-36.5 191.5 -109.5 264.5s-161.5 109.5 -265.5 109.5s-192.833 -36.833 -266.5 -110.5s-110.5 -162.5 -110.5 -266.5z" />
    <glyph glyph-name="yen" unicode="&#xa5;" horiz-adv-x="1135" 
d="M906 1471h166l-417 -735h356v-117h-374v-155h374v-117h-374v-347h-144v347h-370v117h370v155h-370v117h353l-414 735h167l337 -602z" />
    <glyph glyph-name="brokenbar" unicode="&#xa6;" horiz-adv-x="1376" 
d="M616 686v822h143v-767zM616 -398v957l143 54v-1011h-143z" />
    <glyph glyph-name="section" unicode="&#xa7;" horiz-adv-x="1259" 
d="M964 1194l-147.001 0.00390625c-7.33301 62.667 -31.333 111.834 -72 147.501s-93.667 53.5 -159 53.5c-70.667 0 -126.167 -17.333 -166.5 -52s-60.5 -77.334 -60.5 -128.001c0 -29.333 6.33301 -56.333 19 -81c17.333 -33.333 45 -66.166 83 -98.499
s104 -76.5 198 -132.5c110 -66 184.5 -116.333 223.5 -151s68.167 -72.334 87.5 -113.001s29 -80.334 29 -119.001c0 -67.333 -25.833 -129.333 -77.5 -186s-121.167 -93.334 -208.5 -110.001c70.667 -44 124.667 -95.667 162 -155s56 -119.666 56 -180.999
c0 -88 -34 -162.333 -102 -223s-157 -91 -267 -91c-108.667 0 -199 27.667 -271 83s-115 123.666 -129 204.999h148c15.333 -42.667 37.666 -75.667 66.999 -99c48 -38.667 106.667 -58 176 -58c70 0 125.833 17.667 167.5 53s62.5 78 62.5 128
c0 45.333 -16.667 89.333 -50 132s-110 102.334 -230 179.001c-114.667 73.333 -184.667 119.333 -210 138c-56 43.333 -97.167 88.666 -123.5 135.999s-39.5 95.666 -39.5 144.999c0 42 10.333 83.167 31 123.5s49.834 75.666 87.501 105.999s84.834 53.833 141.501 70.5
c-66 47.333 -112.167 95 -138.5 143s-39.5 101.333 -39.5 160c0 92.667 33.5 168.667 100.5 228s157.5 89 271.5 89c110.667 0 198.667 -29.5 264 -88.5s104 -143.5 116 -253.5zM506.999 839.004c-73.333 -11.333 -130.167 -36.5 -170.5 -75.5s-60.5 -85.833 -60.5 -140.5
c0 -48.667 17.667 -93 53 -133c46 -52.667 135 -114 267 -184c81.333 10 144.5 35.5 189.5 76.5s67.5 87.833 67.5 140.5c0 41.333 -15.667 79.333 -47 114s-126.333 99 -285 193z" />
    <glyph glyph-name="dieresis" unicode="&#xa8;" horiz-adv-x="756" 
d="M174 1518c32 0 59.333 -11.333 82 -34s34 -50 34 -82s-11.333 -59.333 -34 -82s-50 -34 -82 -34s-59.333 11.333 -82 34s-34 50 -34 82s11.333 59.333 34 82s50 34 82 34zM582 1518c32 0 59.333 -11.333 82 -34s34 -50 34 -82s-11.333 -59.333 -34 -82s-50 -34 -82 -34
s-59.333 11.333 -82 34s-34 50 -34 82s11.333 59.333 34 82s50 34 82 34z" />
    <glyph glyph-name="copyright" unicode="&#xa9;" horiz-adv-x="1530" 
d="M1551 757c0 -140.667 -35.001 -271.333 -105.001 -392s-165.833 -216.167 -287.5 -286.5s-252.5 -105.5 -392.5 -105.5s-271 35.167 -393 105.5s-218 166 -288 287s-105 251.5 -105 391.5s35 270.5 105 391.5s165.833 216.5 287.5 286.5s252.834 105 393.501 105
c140 0 270.833 -35 392.5 -105s217.5 -165.5 287.5 -286.5s105 -251.5 105 -391.5zM1442 757.001c0 121.333 -30.167 234.169 -90.5 338.502s-142.833 186.833 -247.5 247.5s-217.667 91 -339 91c-120.667 0 -233.334 -30.333 -338.001 -91
s-187.167 -143.334 -247.5 -248.001s-90.5 -217.334 -90.5 -338.001c0 -121.333 30.167 -234.333 90.5 -339s143 -187.167 248 -247.5s217.833 -90.5 338.5 -90.5s233.334 30.167 338.001 90.5s187.167 142.833 247.5 247.5s90.5 217.667 90.5 339zM1150 924.004
l-136 0.000976562c-14 59.333 -40.5 103.833 -79.5 133.5s-90.833 44.5 -155.5 44.5c-84.667 0 -152.667 -29.833 -204 -89.5s-77 -146.834 -77 -261.501c0 -112 24.667 -197.333 74 -256s113.666 -88 192.999 -88c66.667 0 121.834 20.5 165.501 61.5
s71.5 102.5 83.5 184.5h136c-12.667 -109.333 -54 -196.333 -124 -261s-155.333 -97 -256 -97c-126 0 -226.667 40.5 -302 121.5s-113 193.167 -113 336.5c0 150.667 39.167 268 117.5 352s177.833 126 298.5 126c111.333 0 200.333 -27.833 267 -83.5
s104 -130.167 112 -223.5z" />
    <glyph glyph-name="ordfeminine" unicode="&#xaa;" horiz-adv-x="756" 
d="M664 1491v-681h-114v94c-28 -36.667 -59.167 -64.167 -93.5 -82.5s-72.166 -27.5 -113.499 -27.5c-76 0 -142.667 33.833 -200 101.5s-86 153.167 -86 256.5c0 102 29 186.833 87 254.5s125 101.5 201 101.5c40.667 0 78.167 -9.66699 112.5 -29
s65.166 -48.333 92.499 -87v99h114zM365 1399c-51.333 0 -96.166 -23.333 -134.499 -70s-57.5 -106.334 -57.5 -179.001c0 -73.333 19.333 -133.666 58 -180.999s83 -71 133 -71c51.333 0 96.166 22.667 134.499 68s57.5 106 57.5 182c0 74.667 -19 135.167 -57 181.5
s-82.667 69.5 -134 69.5z" />
    <glyph glyph-name="guillemotleft" unicode="&#xab;" horiz-adv-x="870" 
d="M391 1088l-223 -546l223 -542h-148l-222 542l222 546h148zM849 1088l-224 -546l224 -542h-148l-222 542l222 546h148z" />
    <glyph glyph-name="logicalnot" unicode="&#xac;" horiz-adv-x="1241" 
d="M1127 1024v-577h-137l-1 440h-874v137h1012z" />
    <glyph glyph-name="registered" unicode="&#xae;" horiz-adv-x="1530" 
d="M1551 760c0 -141.333 -35 -272.498 -105 -393.498s-166 -216.833 -288 -287.5s-252.667 -106 -392 -106s-270 35.167 -392 105.5s-218.167 166.166 -288.5 287.499s-105.5 251.333 -105.5 390c0 140 35.167 271.333 105.5 394s166.333 219 288 289s252.5 105 392.5 105
s270.5 -34.833 391.5 -104.5s216.833 -165.834 287.5 -288.501s106 -253 106 -391zM1442 759.002c0 120 -30.332 232.835 -90.999 338.502s-143 188.834 -247 249.501s-216 91 -336 91c-120.667 0 -233.834 -30.333 -339.501 -91s-188.667 -143.834 -249 -249.501
s-90.5 -219.167 -90.5 -340.5c0 -120.667 30.167 -233.334 90.5 -338.001s143.5 -187.334 249.5 -248.001s219 -91 339 -91c119.333 0 231.333 30.5 336 91.5s187.167 143.667 247.5 248s90.5 217.5 90.5 339.5zM439.001 1217h377c88 0 151.333 -8.83301 190 -26.5
s70.167 -46.5 94.5 -86.5s36.5 -86.667 36.5 -140c0 -46 -8.66699 -85.667 -26 -119c-13.333 -24.667 -42.333 -51.667 -87 -81c40.667 -20 68 -43.167 82 -69.5s21 -71.5 21 -135.5v-102c0 -48 10.667 -88 32 -120l15 -24h-160c-10 37.333 -17 81.666 -21 132.999l-7 111
c-2.66699 40.667 -9.16699 69.334 -19.5 86.001s-25 28.667 -44 36s-56.833 11 -113.5 11h-227v-377h-143v904zM582.001 1087v-268h222c67.333 0 113 7.66699 137 23c35.333 22 53 59.333 53 112c0 46 -12.667 79.667 -38 101s-73 32 -143 32h-231z" />
    <glyph glyph-name="overscore" unicode="&#xaf;" horiz-adv-x="1024" 
d="M-12 1727h1048v-103h-1048v103z" />
    <glyph glyph-name="degree" unicode="&#xb0;" horiz-adv-x="819" 
d="M755 1164c0 -96.667 -33.667 -178.167 -101 -244.5s-149 -99.5 -245 -99.5s-177.333 33.333 -244 100s-100 149 -100 247c0 94 34.167 174.333 102.5 241s149.833 100 244.5 100s175.5 -33.333 242.5 -100s100.5 -148 100.5 -244zM636 1162c0 68 -21.666 125 -64.999 171
s-96 69 -158 69c-62.667 0 -116.5 -23.167 -161.5 -69.5s-67.5 -102.5 -67.5 -168.5c0 -64.667 22.667 -120.5 68 -167.5s98.666 -70.5 159.999 -70.5s114 23 158 69s66 101.667 66 167z" />
    <glyph glyph-name="plusminus" unicode="&#xb1;" horiz-adv-x="1124" 
d="M493 913v434h137v-434h438v-137h-438v-434h-137v434h-437v137h437zM1068 161v-137h-1012v137h1012z" />
    <glyph glyph-name="twosuperior" unicode="&#xb2;" horiz-adv-x="680" 
d="M155 1234h-106.001c1.33301 79.333 29.833 144.833 85.5 196.5s127.834 77.5 216.501 77.5c82.667 0 150 -22.833 202 -68.5s78 -100.167 78 -163.5c0 -40 -11 -78.667 -33 -116s-69.667 -89.333 -143 -156l-190 -172h377v-99h-636l358 325
c70.667 64 114.667 109.5 132 136.5s26 53.5 26 79.5c0 36 -16.5 67.667 -49.5 95s-74.833 41 -125.5 41c-56.667 0 -101.667 -15.333 -135 -46s-52.333 -74 -57 -130z" />
    <glyph glyph-name="threesuperior" unicode="&#xb3;" horiz-adv-x="705" 
d="M184 1293h-112.001c18 70.667 50.333 124.167 97 160.5s104.334 54.5 173.001 54.5c77.333 0 140.5 -20.167 189.5 -60.5s73.5 -87.833 73.5 -142.5c0 -58 -30.333 -106.667 -91 -146c44.667 -21.333 78.834 -49.333 102.501 -84s35.5 -71.334 35.5 -110.001
c0 -67.333 -28.167 -125.833 -84.5 -175.5s-130.5 -74.5 -222.5 -74.5c-83.333 0 -150.5 20.5 -201.5 61.5s-84.167 100.833 -99.5 179.5h109c13.333 -48.667 35.833 -84.5 67.5 -107.5s73.167 -34.5 124.5 -34.5c60 0 107.833 14.5 143.5 43.5s53.5 62.833 53.5 101.5
c0 44 -20 78.333 -60 103s-104.667 38.667 -194 42v94c68 0 118.667 10.833 152 32.5s50 46.834 50 75.501c0 26.667 -13.5 50.5 -40.5 71.5s-62.833 31.5 -107.5 31.5c-36.667 0 -67.334 -8.66699 -92.001 -26s-46.667 -47.333 -66 -90z" />
    <glyph glyph-name="acute" unicode="&#xb4;" horiz-adv-x="768" 
d="M452 1598h215l-295 -308h-138z" />
    <glyph glyph-name="mu1" unicode="&#xb5;" horiz-adv-x="1180" 
d="M147 -398l0.000976562 1486h141v-600c0 -90.667 11.167 -158.334 33.5 -203.001s58.5 -82.167 108.5 -112.5s104 -45.5 162 -45.5s110.167 14.5 156.5 43.5s82 69 107 120s37.5 121.167 37.5 210.5v587h140v-1088h-140v118c-39.333 -49.333 -83.833 -85.5 -133.5 -108.5
s-105.834 -34.5 -168.501 -34.5s-119.167 11.5 -169.5 34.5s-94.833 58.167 -133.5 105.5v-513h-141z" />
    <glyph glyph-name="paragraph" unicode="&#xb6;" horiz-adv-x="1155" 
d="M483 -231l-0.000976562 937.001c-50 0 -87 2.66699 -111 8c-52 11.333 -99 33.833 -141 67.5s-75.333 78.667 -100 135s-37 119.166 -37 188.499c0 126 38.667 228.667 116 308c64.667 66.667 164.334 100 299.001 100h513v-75h-84v-1669h-119v1669h-217v-1669h-119z" />
    <glyph glyph-name="middot" unicode="&#xb7;" horiz-adv-x="682" 
d="M602 870c32 0 59.333 -11.333 82 -34s34 -50 34 -82s-11.333 -59.333 -34 -82s-50 -34 -82 -34s-59.333 11.333 -82 34s-34 50 -34 82s11.333 59.333 34 82s50 34 82 34z" />
    <glyph glyph-name="cedilla" unicode="&#xb8;" horiz-adv-x="664" 
d="M311 0h88l-17 -118c15.333 2 28 3 38 3c32.667 0 60 -10.167 82 -30.5s33 -45.833 33 -76.5c0 -44 -20 -81.333 -60 -112s-96.333 -46 -169 -46c-59.333 0 -115 10 -167 30l22 69c42.667 -13.333 82.667 -20 120 -20c50 0 85 6.16699 105 18.5s30 27.833 30 46.5
c0 11.333 -5.5 21.333 -16.5 30s-26.167 13 -45.5 13c-16 0 -39.333 -3 -70 -9z" />
    <glyph glyph-name="onesuperior" unicode="&#xb9;" horiz-adv-x="680" 
d="M224 1489h187v-756h-110v658h-150z" />
    <glyph glyph-name="ordmasculine" unicode="&#xba;" horiz-adv-x="756" 
d="M377 1508c88.667 0 164.667 -34.333 228 -103s95 -154 95 -256c0 -101.333 -31.5 -185.833 -94.5 -253.5s-139.167 -101.5 -228.5 -101.5c-88.667 0 -164.5 33.833 -227.5 101.5s-94.5 152.167 -94.5 253.5c0 102.667 31.667 188.167 95 256.5s139 102.5 227 102.5z
M377 1398c-54 0 -101.667 -24 -143 -72s-62 -107.667 -62 -179s20.167 -130.166 60.5 -176.499s88.5 -69.5 144.5 -69.5c56.667 0 105.167 23.167 145.5 69.5s60.5 105.166 60.5 176.499s-20.667 131 -62 179s-89.333 72 -144 72z" />
    <glyph glyph-name="guillemotright" unicode="&#xbb;" horiz-adv-x="870" 
d="M479 0l223 545l-223 543h147l223 -543l-223 -545h-147zM21 0l223 545l-223 543h148l222 -543l-222 -545h-148z" />
    <glyph glyph-name="onequarter" unicode="&#xbc;" horiz-adv-x="1702" 
d="M188 1489h187v-756h-110v658h-150zM388 -37l923 1545h112l-925 -1545h-110zM1554 786v-528h105v-97h-105v-170h-111v170h-432zM1443 258v248l-214 -248h214z" />
    <glyph glyph-name="onehalf" unicode="&#xbd;" horiz-adv-x="1702" 
d="M177 1489h187v-756h-110v658h-150zM277 -37l923 1545h112l-925 -1545h-110zM1088 492h-106.001c1.33301 79.333 29.833 144.833 85.5 196.5s127.834 77.5 216.501 77.5c82.667 0 150 -22.833 202 -68.5s78 -100.167 78 -163.5c0 -40 -11 -78.667 -33 -116
s-69.667 -89.333 -143 -156l-190 -172h377v-99h-636l358 325c70.667 64 114.667 109.5 132 136.5s26 53.5 26 79.5c0 36 -16.5 67.667 -49.5 95s-74.833 41 -125.5 41c-56.667 0 -101.667 -15.333 -135 -46s-52.333 -74 -57 -130z" />
    <glyph glyph-name="threequarters" unicode="&#xbe;" horiz-adv-x="1702" 
d="M209 1293h-112.001c18 70.667 50.333 124.167 97 160.5s104.334 54.5 173.001 54.5c77.333 0 140.5 -20.167 189.5 -60.5s73.5 -87.833 73.5 -142.5c0 -58 -30.333 -106.667 -91 -146c44.667 -21.333 78.834 -49.333 102.501 -84s35.5 -71.334 35.5 -110.001
c0 -67.333 -28.167 -125.833 -84.5 -175.5s-130.5 -74.5 -222.5 -74.5c-83.333 0 -150.5 20.5 -201.5 61.5s-84.167 100.833 -99.5 179.5h109c13.333 -48.667 35.833 -84.5 67.5 -107.5s73.167 -34.5 124.5 -34.5c60 0 107.833 14.5 143.5 43.5s53.5 62.833 53.5 101.5
c0 44 -20 78.333 -60 103s-104.667 38.667 -194 42v94c68 0 118.667 10.833 152 32.5s50 46.834 50 75.501c0 26.667 -13.5 50.5 -40.5 71.5s-62.833 31.5 -107.5 31.5c-36.667 0 -67.334 -8.66699 -92.001 -26s-46.667 -47.333 -66 -90zM430.999 -37l923 1545h112
l-925 -1545h-110zM1547 786v-528h105v-97h-105v-170h-111v170h-432zM1436 258v248l-214 -248h214z" />
    <glyph glyph-name="questiondown" unicode="&#xbf;" horiz-adv-x="1210" 
d="M604 1110c34 0 63 -12 87 -36s36 -53.333 36 -88s-12 -64 -36 -88s-53 -36 -87 -36s-63 12 -87 36s-36 53.333 -36 88c0 34 12 63.167 36 87.5s53 36.5 87 36.5zM896 11l145 -0.00390625c-1.33301 -134.667 -41.5 -241.167 -120.5 -319.5s-184.833 -117.5 -317.5 -117.5
c-130.667 0 -233.334 33 -308.001 99s-112 148 -112 246c0 46.667 10.333 89.834 31 129.501s51.5 75.334 92.5 107.001s113.167 67.834 216.5 108.501c130 52 209 91 237 117c27.333 26 41 57 41 93c0 38.667 -18.833 73.334 -56.5 104.001s-86.5 46 -146.5 46
c-66 0 -116.667 -16.833 -152 -50.5s-57 -87.5 -65 -161.5h-146c4.66699 111.333 39.167 198 103.5 260s150.833 93 259.5 93c108 0 194 -28 258 -84s96 -125.333 96 -208c0 -40 -8.83301 -77.833 -26.5 -113.5s-42.667 -65.5 -75 -89.5s-93.166 -54.333 -182.499 -91
c-144 -58.667 -236 -102.667 -276 -132c-40.667 -29.333 -61 -71 -61 -125c0 -58 24.5 -107.167 73.5 -147.5s114.5 -60.5 196.5 -60.5c100.667 0 178.667 33 234 99c38.667 46 59 112 61 198z" />
    <glyph glyph-name="Agrave" unicode="&#xc0;" horiz-adv-x="1515" 
d="M780 1471l686 -1471h-158l-231 484h-634l-230 -484h-164l695 1471h36zM762 1159l-253 -533h503zM697 1895l218 -308h-138l-295 308h215z" />
    <glyph glyph-name="Aacute" unicode="&#xc1;" horiz-adv-x="1515" 
d="M780 1471l686 -1471h-158l-231 484h-634l-230 -484h-164l695 1471h36zM762 1159l-253 -533h503zM825 1895h215l-295 -308h-138z" />
    <glyph glyph-name="Acircumflex" unicode="&#xc2;" horiz-adv-x="1515" 
d="M780 1471l686 -1471h-158l-231 484h-634l-230 -484h-164l695 1471h36zM762 1159l-253 -533h503zM691 1840h139l290 -257h-180l-176 152l-184 -152h-186z" />
    <glyph glyph-name="Atilde" unicode="&#xc3;" horiz-adv-x="1515" 
d="M780 1471l686 -1471h-158l-231 484h-634l-230 -484h-164l695 1471h36zM762 1159l-253 -533h503zM1054 1789l69.999 -97c-48 -34.667 -88.5 -58 -121.5 -70s-67.833 -18 -104.5 -18c-48 0 -97.333 12.333 -148 37c-43.333 21.333 -71 33.666 -83 36.999
c-16 4.66699 -33.333 7 -52 7c-23.333 0 -45.5 -4.16699 -66.5 -12.5s-51.5 -27.166 -91.5 -56.499l-66 102c60.667 64.667 135.667 97 225 97c42.667 0 93.667 -13.333 153 -40c56.667 -26 101.334 -39 134.001 -39c36.667 0 87 17.667 151 53z" />
    <glyph glyph-name="Adieresis" unicode="&#xc4;" horiz-adv-x="1515" 
d="M780 1471l686 -1471h-158l-231 484h-634l-230 -484h-164l695 1471h36zM762 1159l-253 -533h503zM554 1816c32 0 59.333 -11.333 82 -34s34 -50 34 -82s-11.333 -59.333 -34 -82s-50 -34 -82 -34s-59.333 11.333 -82 34s-34 50 -34 82s11.333 59.333 34 82s50 34 82 34z
M962 1816c32 0 59.333 -11.333 82 -34s34 -50 34 -82s-11.333 -59.333 -34 -82s-50 -34 -82 -34s-59.333 11.333 -82 34s-34 50 -34 82s11.333 59.333 34 82s50 34 82 34z" />
    <glyph glyph-name="Aring" unicode="&#xc5;" horiz-adv-x="1515" 
d="M780 1471l686 -1471h-158l-231 484h-634l-230 -484h-164l695 1471h36zM762 1159l-253 -533h503zM757 1989c58.667 0 108.832 -20.833 150.499 -62.5s62.5 -92.167 62.5 -151.5c0 -58.667 -20.667 -108.834 -62 -150.501s-91.666 -62.5 -150.999 -62.5
c-58.667 0 -108.834 20.833 -150.501 62.5s-62.5 91.834 -62.5 150.501c0 59.333 20.833 109.833 62.5 151.5s91.834 62.5 150.501 62.5zM755.998 1888c-30.667 0 -56.667 -10.833 -78 -32.5s-32 -47.5 -32 -77.5s10.667 -55.833 32 -77.5s47.333 -32.5 78 -32.5
c30 0 55.667 10.833 77 32.5s32 47.5 32 77.5s-10.667 55.833 -32 77.5s-47 32.5 -77 32.5z" />
    <glyph glyph-name="AE" unicode="&#xc6;" horiz-adv-x="2032" 
d="M1 0l950 1471h910v-151h-693v-452h693v-145h-693v-579h693v-144h-842v482h-535l-312 -482h-171zM578 620h441v681z" />
    <glyph glyph-name="Ccedilla" unicode="&#xc7;" horiz-adv-x="1665" 
d="M1549 1198l-116.001 -89.001c-64 83.333 -140.833 146.5 -230.5 189.5s-188.167 64.5 -295.5 64.5c-117.333 0 -226 -28.167 -326 -84.5s-177.5 -132 -232.5 -227s-82.5 -201.833 -82.5 -320.5c0 -179.333 61.5 -329 184.5 -449s278.167 -180 465.5 -180
c206 0 378.333 80.667 517 242l116 -88c-73.333 -93.333 -164.833 -165.5 -274.5 -216.5s-232.167 -76.5 -367.5 -76.5c-257.333 0 -460.333 85.667 -609 257c-124.667 144.667 -187 319.334 -187 524.001c0 215.333 75.5 396.5 226.5 543.5s340.167 220.5 567.5 220.5
c137.333 0 261.333 -27.167 372 -81.5s201.334 -130.5 272.001 -228.5zM810.999 -0.000976562h88l-17 -118c15.333 2 28 3 38 3c32.667 0 60 -10.167 82 -30.5s33 -45.833 33 -76.5c0 -44 -20 -81.333 -60 -112s-96.333 -46 -169 -46c-59.333 0 -115 10 -167 30l22 69
c42.667 -13.333 82.667 -20 120 -20c50 0 85 6.16699 105 18.5s30 27.833 30 46.5c0 11.333 -5.5 21.333 -16.5 30s-26.167 13 -45.5 13c-16 0 -39.333 -3 -70 -9z" />
    <glyph glyph-name="Egrave" unicode="&#xc8;" horiz-adv-x="1098" 
d="M180 1471h843v-145h-696v-460h690v-144h-690v-577h690v-145h-837v1471zM549 1895l218 -308h-138l-295 308h215z" />
    <glyph glyph-name="Eacute" unicode="&#xc9;" horiz-adv-x="1098" 
d="M180 1471h843v-145h-696v-460h690v-144h-690v-577h690v-145h-837v1471zM677 1895h215l-295 -308h-138z" />
    <glyph glyph-name="Ecircumflex" unicode="&#xca;" horiz-adv-x="1098" 
d="M180 1471h843v-145h-696v-460h690v-144h-690v-577h690v-145h-837v1471zM543 1840h139l290 -257h-180l-176 152l-184 -152h-186z" />
    <glyph glyph-name="Edieresis" unicode="&#xcb;" horiz-adv-x="1098" 
d="M180 1471h843v-145h-696v-460h690v-144h-690v-577h690v-145h-837v1471zM406 1816c32 0 59.333 -11.333 82 -34s34 -50 34 -82s-11.333 -59.333 -34 -82s-50 -34 -82 -34s-59.333 11.333 -82 34s-34 50 -34 82s11.333 59.333 34 82s50 34 82 34zM814 1816
c32 0 59.333 -11.333 82 -34s34 -50 34 -82s-11.333 -59.333 -34 -82s-50 -34 -82 -34s-59.333 11.333 -82 34s-34 50 -34 82s11.333 59.333 34 82s50 34 82 34z" />
    <glyph glyph-name="Igrave" unicode="&#xcc;" horiz-adv-x="463" 
d="M158 1471h147v-1471h-147v1471zM171 1895l218 -308h-138l-295 308h215z" />
    <glyph glyph-name="Iacute" unicode="&#xcd;" horiz-adv-x="463" 
d="M158 1471h147v-1471h-147v1471zM299 1895h215l-295 -308h-138z" />
    <glyph glyph-name="Icircumflex" unicode="&#xce;" horiz-adv-x="463" 
d="M158 1471h147v-1471h-147v1471zM165 1840h139l290 -257h-180l-176 152l-184 -152h-186z" />
    <glyph glyph-name="Idieresis" unicode="&#xcf;" horiz-adv-x="463" 
d="M158 1471h147v-1471h-147v1471zM28 1816c32 0 59.333 -11.333 82 -34s34 -50 34 -82s-11.333 -59.333 -34 -82s-50 -34 -82 -34s-59.333 11.333 -82 34s-34 50 -34 82s11.333 59.333 34 82s50 34 82 34zM436 1816c32 0 59.333 -11.333 82 -34s34 -50 34 -82
s-11.333 -59.333 -34 -82s-50 -34 -82 -34s-59.333 11.333 -82 34s-34 50 -34 82s11.333 59.333 34 82s50 34 82 34z" />
    <glyph glyph-name="Eth" unicode="&#xd0;" horiz-adv-x="1618" 
d="M213 667h-178.998v137h179v667h366c219.333 0 379 -17.667 479 -53c142 -50 253.167 -136.667 333.5 -260s120.5 -270.333 120.5 -441c0 -147.333 -31.833 -277 -95.5 -389s-146.334 -194.667 -248.001 -248s-243.834 -80 -426.501 -80h-529v667zM354.002 667
l-0.000976562 -528h230c203.333 0 344.333 12.667 423 38c110.667 36 197.834 100.833 261.501 194.5s95.5 208.167 95.5 343.5c0 142 -34.5 263.333 -103.5 364s-164.833 169.667 -287.5 207c-92 28 -243.667 42 -455 42h-164v-524h387v-137h-387z" />
    <glyph glyph-name="Ntilde" unicode="&#xd1;" horiz-adv-x="1515" 
d="M180 0v1471h32l978 -1126v1126h145v-1471h-33l-970 1112v-1112h-152zM1054 1789l69.999 -97c-48 -34.667 -88.5 -58 -121.5 -70s-67.833 -18 -104.5 -18c-48 0 -97.333 12.333 -148 37c-43.333 21.333 -71 33.666 -83 36.999c-16 4.66699 -33.333 7 -52 7
c-23.333 0 -45.5 -4.16699 -66.5 -12.5s-51.5 -27.166 -91.5 -56.499l-66 102c60.667 64.667 135.667 97 225 97c42.667 0 93.667 -13.333 153 -40c56.667 -26 101.334 -39 134.001 -39c36.667 0 87 17.667 151 53z" />
    <glyph glyph-name="Ograve" unicode="&#xd2;" horiz-adv-x="1780" 
d="M880 1508c222.667 0 409 -74.333 559 -223s225 -331.667 225 -549c0 -215.333 -74.833 -398 -224.5 -548s-332.167 -225 -547.5 -225c-218 0 -402 74.667 -552 224s-225 330 -225 542c0 141.333 34.167 272.333 102.5 393s161.5 215.167 279.5 283.5
s245.667 102.5 383 102.5zM887 1364c-108.667 0 -211.666 -28.333 -308.999 -85s-173.333 -133 -228 -229s-82 -203 -82 -321c0 -174.667 60.5 -322.167 181.5 -442.5s266.833 -180.5 437.5 -180.5c114 0 219.5 27.667 316.5 83s172.667 131 227 227s81.5 202.667 81.5 320
c0 116.667 -27.167 222.167 -81.5 316.5s-130.833 169.833 -229.5 226.5s-203.334 85 -314.001 85zM829.001 1895l218 -308h-138l-295 308h215z" />
    <glyph glyph-name="Oacute" unicode="&#xd3;" horiz-adv-x="1780" 
d="M880 1508c222.667 0 409 -74.333 559 -223s225 -331.667 225 -549c0 -215.333 -74.833 -398 -224.5 -548s-332.167 -225 -547.5 -225c-218 0 -402 74.667 -552 224s-225 330 -225 542c0 141.333 34.167 272.333 102.5 393s161.5 215.167 279.5 283.5
s245.667 102.5 383 102.5zM887 1364c-108.667 0 -211.666 -28.333 -308.999 -85s-173.333 -133 -228 -229s-82 -203 -82 -321c0 -174.667 60.5 -322.167 181.5 -442.5s266.833 -180.5 437.5 -180.5c114 0 219.5 27.667 316.5 83s172.667 131 227 227s81.5 202.667 81.5 320
c0 116.667 -27.167 222.167 -81.5 316.5s-130.833 169.833 -229.5 226.5s-203.334 85 -314.001 85zM958.001 1895h215l-295 -308h-138z" />
    <glyph glyph-name="Ocircumflex" unicode="&#xd4;" horiz-adv-x="1780" 
d="M880 1508c222.667 0 409 -74.333 559 -223s225 -331.667 225 -549c0 -215.333 -74.833 -398 -224.5 -548s-332.167 -225 -547.5 -225c-218 0 -402 74.667 -552 224s-225 330 -225 542c0 141.333 34.167 272.333 102.5 393s161.5 215.167 279.5 283.5
s245.667 102.5 383 102.5zM887 1364c-108.667 0 -211.666 -28.333 -308.999 -85s-173.333 -133 -228 -229s-82 -203 -82 -321c0 -174.667 60.5 -322.167 181.5 -442.5s266.833 -180.5 437.5 -180.5c114 0 219.5 27.667 316.5 83s172.667 131 227 227s81.5 202.667 81.5 320
c0 116.667 -27.167 222.167 -81.5 316.5s-130.833 169.833 -229.5 226.5s-203.334 85 -314.001 85zM824.001 1840h139l290 -257h-180l-176 152l-184 -152h-186z" />
    <glyph glyph-name="Otilde" unicode="&#xd5;" horiz-adv-x="1780" 
d="M880 1508c222.667 0 409 -74.333 559 -223s225 -331.667 225 -549c0 -215.333 -74.833 -398 -224.5 -548s-332.167 -225 -547.5 -225c-218 0 -402 74.667 -552 224s-225 330 -225 542c0 141.333 34.167 272.333 102.5 393s161.5 215.167 279.5 283.5
s245.667 102.5 383 102.5zM887 1364c-108.667 0 -211.666 -28.333 -308.999 -85s-173.333 -133 -228 -229s-82 -203 -82 -321c0 -174.667 60.5 -322.167 181.5 -442.5s266.833 -180.5 437.5 -180.5c114 0 219.5 27.667 316.5 83s172.667 131 227 227s81.5 202.667 81.5 320
c0 116.667 -27.167 222.167 -81.5 316.5s-130.833 169.833 -229.5 226.5s-203.334 85 -314.001 85zM1186 1789l69.999 -97c-48 -34.667 -88.5 -58 -121.5 -70s-67.833 -18 -104.5 -18c-48 0 -97.333 12.333 -148 37c-43.333 21.333 -71 33.666 -83 36.999
c-16 4.66699 -33.333 7 -52 7c-23.333 0 -45.5 -4.16699 -66.5 -12.5s-51.5 -27.166 -91.5 -56.499l-66 102c60.667 64.667 135.667 97 225 97c42.667 0 93.667 -13.333 153 -40c56.667 -26 101.334 -39 134.001 -39c36.667 0 87 17.667 151 53z" />
    <glyph glyph-name="Odieresis" unicode="&#xd6;" horiz-adv-x="1780" 
d="M880 1508c222.667 0 409 -74.333 559 -223s225 -331.667 225 -549c0 -215.333 -74.833 -398 -224.5 -548s-332.167 -225 -547.5 -225c-218 0 -402 74.667 -552 224s-225 330 -225 542c0 141.333 34.167 272.333 102.5 393s161.5 215.167 279.5 283.5
s245.667 102.5 383 102.5zM887 1364c-108.667 0 -211.666 -28.333 -308.999 -85s-173.333 -133 -228 -229s-82 -203 -82 -321c0 -174.667 60.5 -322.167 181.5 -442.5s266.833 -180.5 437.5 -180.5c114 0 219.5 27.667 316.5 83s172.667 131 227 227s81.5 202.667 81.5 320
c0 116.667 -27.167 222.167 -81.5 316.5s-130.833 169.833 -229.5 226.5s-203.334 85 -314.001 85zM686.001 1816c32 0 59.333 -11.333 82 -34s34 -50 34 -82s-11.333 -59.333 -34 -82s-50 -34 -82 -34s-59.333 11.333 -82 34s-34 50 -34 82s11.333 59.333 34 82
s50 34 82 34zM1094 1816c32 0 59.333 -11.333 82 -34s34 -50 34 -82s-11.333 -59.333 -34 -82s-50 -34 -82 -34s-59.333 11.333 -82 34s-34 50 -34 82s11.333 59.333 34 82s50 34 82 34z" />
    <glyph glyph-name="multiply" unicode="&#xd7;" horiz-adv-x="1241" 
d="M712 735l332 -331l-92 -92l-331 331l-332 -331l-92 92l331 331l-331 332l92 92l332 -332l331 332l92 -92z" />
    <glyph glyph-name="Oslash" unicode="&#xd8;" horiz-adv-x="1778" 
d="M1454 1269c66.667 -68 118.166 -147.5 154.499 -238.5s54.5 -189.167 54.5 -294.5c0 -215.333 -74.833 -398 -224.5 -548s-332.167 -225 -547.5 -225c-163.333 0 -309 42.667 -437 128l-164 -194l-107 87l165 194c-156 151.333 -234 335 -234 551
c0 141.333 34.333 272.5 103 393.5s162.334 215.5 281.001 283.5s249 102 391 102c171.333 0 327 -49.333 467 -148l144 174l105 -87zM443.999 291l811 954c-112.667 79.333 -235.667 119 -369 119c-108.667 0 -211.667 -28.333 -309 -85s-173.333 -133 -228 -229
s-82 -203.333 -82 -322c0 -170 59 -315.667 177 -437zM1356 1153l-805 -949c101.333 -65.333 213 -98 335 -98c114 0 219.5 27.667 316.5 83s172.667 131 227 227s81.5 202.667 81.5 320c0 162.667 -51.667 301.667 -155 417z" />
    <glyph glyph-name="Ugrave" unicode="&#xd9;" horiz-adv-x="1341" 
d="M184 1471h147.001v-888c0 -105.333 2 -171 6 -197c7.33301 -58 24.333 -106.5 51 -145.5s67.667 -71.667 123 -98s111 -39.5 167 -39.5c48.667 0 95.334 10.333 140.001 31s82 49.334 112 86.001s52 81 66 133c10 37.333 15 114 15 230v888h147v-888
c0 -131.333 -12.833 -237.5 -38.5 -318.5s-77 -151.5 -154 -211.5s-170.167 -90 -279.5 -90c-118.667 0 -220.334 28.333 -305.001 85s-141.334 131.667 -170.001 225c-18 57.333 -27 160.666 -27 309.999v888zM610.001 1895l218 -308h-138l-295 308h215z" />
    <glyph glyph-name="Uacute" unicode="&#xda;" horiz-adv-x="1341" 
d="M184 1471h147.001v-888c0 -105.333 2 -171 6 -197c7.33301 -58 24.333 -106.5 51 -145.5s67.667 -71.667 123 -98s111 -39.5 167 -39.5c48.667 0 95.334 10.333 140.001 31s82 49.334 112 86.001s52 81 66 133c10 37.333 15 114 15 230v888h147v-888
c0 -131.333 -12.833 -237.5 -38.5 -318.5s-77 -151.5 -154 -211.5s-170.167 -90 -279.5 -90c-118.667 0 -220.334 28.333 -305.001 85s-141.334 131.667 -170.001 225c-18 57.333 -27 160.666 -27 309.999v888zM739.001 1895h215l-295 -308h-138z" />
    <glyph glyph-name="Ucircumflex" unicode="&#xdb;" horiz-adv-x="1341" 
d="M184 1471h147.001v-888c0 -105.333 2 -171 6 -197c7.33301 -58 24.333 -106.5 51 -145.5s67.667 -71.667 123 -98s111 -39.5 167 -39.5c48.667 0 95.334 10.333 140.001 31s82 49.334 112 86.001s52 81 66 133c10 37.333 15 114 15 230v888h147v-888
c0 -131.333 -12.833 -237.5 -38.5 -318.5s-77 -151.5 -154 -211.5s-170.167 -90 -279.5 -90c-118.667 0 -220.334 28.333 -305.001 85s-141.334 131.667 -170.001 225c-18 57.333 -27 160.666 -27 309.999v888zM605.001 1840h139l290 -257h-180l-176 152l-184 -152h-186z
" />
    <glyph glyph-name="Udieresis" unicode="&#xdc;" horiz-adv-x="1341" 
d="M184 1471h147.001v-888c0 -105.333 2 -171 6 -197c7.33301 -58 24.333 -106.5 51 -145.5s67.667 -71.667 123 -98s111 -39.5 167 -39.5c48.667 0 95.334 10.333 140.001 31s82 49.334 112 86.001s52 81 66 133c10 37.333 15 114 15 230v888h147v-888
c0 -131.333 -12.833 -237.5 -38.5 -318.5s-77 -151.5 -154 -211.5s-170.167 -90 -279.5 -90c-118.667 0 -220.334 28.333 -305.001 85s-141.334 131.667 -170.001 225c-18 57.333 -27 160.666 -27 309.999v888zM467.001 1816c32 0 59.333 -11.333 82 -34s34 -50 34 -82
s-11.333 -59.333 -34 -82s-50 -34 -82 -34s-59.333 11.333 -82 34s-34 50 -34 82s11.333 59.333 34 82s50 34 82 34zM875.001 1816c32 0 59.333 -11.333 82 -34s34 -50 34 -82s-11.333 -59.333 -34 -82s-50 -34 -82 -34s-59.333 11.333 -82 34s-34 50 -34 82
s11.333 59.333 34 82s50 34 82 34z" />
    <glyph glyph-name="Yacute" unicode="&#xdd;" horiz-adv-x="1212" 
d="M63 1471h170l376 -606l370 606h170l-466 -768v-703h-145v703zM674 1895h215l-295 -308h-138z" />
    <glyph glyph-name="Thorn" unicode="&#xde;" horiz-adv-x="1212" 
d="M178 1471h147.001v-344h146c167.333 0 280.333 -7.33301 339 -22c84 -20.667 152.833 -63.167 206.5 -127.5s80.5 -145.166 80.5 -242.499s-26 -177.833 -78 -241.5s-123.667 -106.834 -215 -129.501c-66.667 -16 -191.334 -24 -374.001 -24h-105v-340h-147v1471z
M325.001 984l-0.000976562 -500.002l249 -3c100.667 0 174.334 9.33301 221.001 28s83.334 48.334 110.001 89.001s40 86.334 40 137.001c0 50 -13.333 95.333 -40 136s-61.834 69.667 -105.501 87s-115.167 26 -214.5 26h-260z" />
    <glyph glyph-name="germandbls" unicode="&#xdf;" horiz-adv-x="1135" 
d="M162 0l-0.000976562 995.001c0 150.667 14.5 258 43.5 322s76.667 116.5 143 157.5s144.5 61.5 234.5 61.5c118 0 213.167 -34.333 285.5 -103s108.5 -155 108.5 -259c0 -66 -16.667 -124.667 -50 -176s-79.666 -92.333 -138.999 -123
c-32.667 -16.667 -78.334 -29 -137.001 -37c64.667 -10 114.334 -24 149.001 -42c72 -38 128.333 -90.333 169 -157s61 -143.667 61 -231c0 -128 -39 -232.667 -117 -314s-178 -122 -300 -122c-82 0 -151.333 16.333 -208 49v133c70 -32.667 132.667 -49 188 -49
c85.333 0 156.166 28.5 212.499 85.5s84.5 130.833 84.5 221.5c0 100.667 -33.833 182.667 -101.5 246s-165.5 97 -293.5 101v157h32c92.667 0 167 24.5 223 73.5s84 108.5 84 178.5c0 66 -23.333 121.333 -70 166s-106 67 -178 67c-56.667 0 -108.667 -15.5 -156 -46.5
s-81.666 -72.5 -102.999 -124.5c-16 -40.667 -24 -123.334 -24 -248.001v-982h-141z" />
    <glyph glyph-name="agrave" unicode="&#xe0;" horiz-adv-x="1399" 
d="M1240 1088l0.000976562 -1088h-138v187c-58.667 -71.333 -124.5 -125 -197.5 -161s-152.833 -54 -239.5 -54c-154 0 -285.5 55.833 -394.5 167.5s-163.5 247.5 -163.5 407.5c0 156.667 55 290.667 165 402s242.333 167 397 167c89.333 0 170.166 -19 242.499 -57
s135.833 -95 190.5 -171v200h138zM680.001 981c-78 0 -150 -19.1689 -216 -57.502s-118.5 -92.166 -157.5 -161.499s-58.5 -142.666 -58.5 -219.999c0 -76.667 19.667 -150 59 -220s92.166 -124.5 158.499 -163.5s137.5 -58.5 213.5 -58.5
c76.667 0 149.334 19.333 218.001 58s121.5 91 158.5 157s55.5 140.333 55.5 223c0 126 -41.5 231.333 -124.5 316s-185.167 127 -306.5 127zM639.001 1598l218 -308h-138l-295 308h215z" />
    <glyph glyph-name="aacute" unicode="&#xe1;" horiz-adv-x="1399" 
d="M1240 1088l0.000976562 -1088h-138v187c-58.667 -71.333 -124.5 -125 -197.5 -161s-152.833 -54 -239.5 -54c-154 0 -285.5 55.833 -394.5 167.5s-163.5 247.5 -163.5 407.5c0 156.667 55 290.667 165 402s242.333 167 397 167c89.333 0 170.166 -19 242.499 -57
s135.833 -95 190.5 -171v200h138zM680.001 981c-78 0 -150 -19.1689 -216 -57.502s-118.5 -92.166 -157.5 -161.499s-58.5 -142.666 -58.5 -219.999c0 -76.667 19.667 -150 59 -220s92.166 -124.5 158.499 -163.5s137.5 -58.5 213.5 -58.5
c76.667 0 149.334 19.333 218.001 58s121.5 91 158.5 157s55.5 140.333 55.5 223c0 126 -41.5 231.333 -124.5 316s-185.167 127 -306.5 127zM767.001 1598h215l-295 -308h-138z" />
    <glyph glyph-name="acircumflex" unicode="&#xe2;" horiz-adv-x="1399" 
d="M1240 1088l0.000976562 -1088h-138v187c-58.667 -71.333 -124.5 -125 -197.5 -161s-152.833 -54 -239.5 -54c-154 0 -285.5 55.833 -394.5 167.5s-163.5 247.5 -163.5 407.5c0 156.667 55 290.667 165 402s242.333 167 397 167c89.333 0 170.166 -19 242.499 -57
s135.833 -95 190.5 -171v200h138zM680.001 981c-78 0 -150 -19.1689 -216 -57.502s-118.5 -92.166 -157.5 -161.499s-58.5 -142.666 -58.5 -219.999c0 -76.667 19.667 -150 59 -220s92.166 -124.5 158.499 -163.5s137.5 -58.5 213.5 -58.5
c76.667 0 149.334 19.333 218.001 58s121.5 91 158.5 157s55.5 140.333 55.5 223c0 126 -41.5 231.333 -124.5 316s-185.167 127 -306.5 127zM633.001 1542h139l290 -257h-180l-176 152l-184 -152h-186z" />
    <glyph glyph-name="atilde" unicode="&#xe3;" horiz-adv-x="1399" 
d="M1240 1088l0.000976562 -1088h-138v187c-58.667 -71.333 -124.5 -125 -197.5 -161s-152.833 -54 -239.5 -54c-154 0 -285.5 55.833 -394.5 167.5s-163.5 247.5 -163.5 407.5c0 156.667 55 290.667 165 402s242.333 167 397 167c89.333 0 170.166 -19 242.499 -57
s135.833 -95 190.5 -171v200h138zM680.001 981c-78 0 -150 -19.1689 -216 -57.502s-118.5 -92.166 -157.5 -161.499s-58.5 -142.666 -58.5 -219.999c0 -76.667 19.667 -150 59 -220s92.166 -124.5 158.499 -163.5s137.5 -58.5 213.5 -58.5
c76.667 0 149.334 19.333 218.001 58s121.5 91 158.5 157s55.5 140.333 55.5 223c0 126 -41.5 231.333 -124.5 316s-185.167 127 -306.5 127zM996.001 1492l69.999 -97c-48 -34.667 -88.5 -58 -121.5 -70s-67.833 -18 -104.5 -18c-48 0 -97.333 12.333 -148 37
c-43.333 21.333 -71 33.666 -83 36.999c-16 4.66699 -33.333 7 -52 7c-23.333 0 -45.5 -4.16699 -66.5 -12.5s-51.5 -27.166 -91.5 -56.499l-66 102c60.667 64.667 135.667 97 225 97c42.667 0 93.667 -13.333 153 -40c56.667 -26 101.334 -39 134.001 -39
c36.667 0 87 17.667 151 53z" />
    <glyph glyph-name="adieresis" unicode="&#xe4;" horiz-adv-x="1399" 
d="M1240 1088l0.000976562 -1088h-138v187c-58.667 -71.333 -124.5 -125 -197.5 -161s-152.833 -54 -239.5 -54c-154 0 -285.5 55.833 -394.5 167.5s-163.5 247.5 -163.5 407.5c0 156.667 55 290.667 165 402s242.333 167 397 167c89.333 0 170.166 -19 242.499 -57
s135.833 -95 190.5 -171v200h138zM680.001 981c-78 0 -150 -19.1689 -216 -57.502s-118.5 -92.166 -157.5 -161.499s-58.5 -142.666 -58.5 -219.999c0 -76.667 19.667 -150 59 -220s92.166 -124.5 158.499 -163.5s137.5 -58.5 213.5 -58.5
c76.667 0 149.334 19.333 218.001 58s121.5 91 158.5 157s55.5 140.333 55.5 223c0 126 -41.5 231.333 -124.5 316s-185.167 127 -306.5 127zM496.001 1518c32 0 59.333 -11.333 82 -34s34 -50 34 -82s-11.333 -59.333 -34 -82s-50 -34 -82 -34s-59.333 11.333 -82 34
s-34 50 -34 82s11.333 59.333 34 82s50 34 82 34zM904.001 1518c32 0 59.333 -11.333 82 -34s34 -50 34 -82s-11.333 -59.333 -34 -82s-50 -34 -82 -34s-59.333 11.333 -82 34s-34 50 -34 82s11.333 59.333 34 82s50 34 82 34z" />
    <glyph glyph-name="aring" unicode="&#xe5;" horiz-adv-x="1399" 
d="M1240 1088l0.000976562 -1088h-138v187c-58.667 -71.333 -124.5 -125 -197.5 -161s-152.833 -54 -239.5 -54c-154 0 -285.5 55.833 -394.5 167.5s-163.5 247.5 -163.5 407.5c0 156.667 55 290.667 165 402s242.333 167 397 167c89.333 0 170.166 -19 242.499 -57
s135.833 -95 190.5 -171v200h138zM680.001 981c-78 0 -150 -19.1689 -216 -57.502s-118.5 -92.166 -157.5 -161.499s-58.5 -142.666 -58.5 -219.999c0 -76.667 19.667 -150 59 -220s92.166 -124.5 158.499 -163.5s137.5 -58.5 213.5 -58.5
c76.667 0 149.334 19.333 218.001 58s121.5 91 158.5 157s55.5 140.333 55.5 223c0 126 -41.5 231.333 -124.5 316s-185.167 127 -306.5 127zM699.001 1691c58.667 0 108.832 -20.833 150.499 -62.5s62.5 -92.167 62.5 -151.5c0 -58.667 -20.667 -108.834 -62 -150.501
s-91.666 -62.5 -150.999 -62.5c-58.667 0 -108.834 20.833 -150.501 62.5s-62.5 91.834 -62.5 150.501c0 59.333 20.833 109.833 62.5 151.5s91.834 62.5 150.501 62.5zM697.999 1590c-30.667 0 -56.667 -10.833 -78 -32.5s-32 -47.5 -32 -77.5s10.667 -55.833 32 -77.5
s47.333 -32.5 78 -32.5c30 0 55.667 10.833 77 32.5s32 47.5 32 77.5s-10.667 55.833 -32 77.5s-47 32.5 -77 32.5z" />
    <glyph glyph-name="ae" unicode="&#xe6;" horiz-adv-x="2370" 
d="M1245 1088l0.000976562 -197.003c70.667 84.667 139 143.334 205 176.001s143.333 49 232 49c164 0 299.5 -54.833 406.5 -164.5s160.167 -250.167 159.5 -421.5h-979c2.66699 -77.333 23.334 -150.333 62.001 -219s89.834 -121 153.501 -157s134.167 -54 211.5 -54
c83.333 0 158 20.5 224 61.5s123.667 106.167 173 195.5l120 -60c-49.333 -103.333 -120.333 -183.333 -213 -240s-197.334 -85 -314.001 -85c-102.667 0 -194.334 23 -275.001 69c-58 32.667 -113.333 83.667 -166 153v-194h-128v201c-59.333 -74 -117 -127 -173 -159
c-80 -46.667 -167.667 -70 -263 -70c-154 0 -286 55.833 -396 167.5s-165 247.834 -165 408.501c0 104 24.667 199.167 74 285.5s117.666 155 204.999 206s180 76.5 278 76.5c94 0 182 -23 264 -69c58 -33.333 116.667 -85.666 176 -156.999v198h128zM2093 650.997
c-18.667 76 -45.667 136.332 -81 180.999s-82.333 80.834 -141 108.501s-119 41.5 -181 41.5c-63.333 0 -124.833 -14.167 -184.5 -42.5s-108.5 -66 -146.5 -113s-65.333 -105.5 -82 -175.5h816zM687.001 980.996c-76 0 -147.168 -19 -213.501 -57s-118 -90.5 -155 -157.5
s-55.5 -141.167 -55.5 -222.5c0 -125.333 41.333 -229.833 124 -313.5s184.334 -125.5 305.001 -125.5s222.167 41.5 304.5 124.5s123.5 187.167 123.5 312.5c0 87.333 -17.833 163.333 -53.5 228s-87.667 116 -156 154s-142.833 57 -223.5 57z" />
    <glyph glyph-name="ccedilla" unicode="&#xe7;" horiz-adv-x="1325" 
d="M1212 862l-110.999 -68.999c-96 127.333 -227 191 -393 191c-132.667 0 -242.834 -42.667 -330.501 -128s-131.5 -189 -131.5 -311c0 -79.333 20.167 -154 60.5 -224s95.666 -124.333 165.999 -163s149.166 -58 236.499 -58c160 0 290.667 63.667 392 191l111 -73
c-52 -78 -121.833 -138.5 -209.5 -181.5s-187.5 -64.5 -299.5 -64.5c-172 0 -314.667 54.667 -428 164s-170 242.333 -170 399c0 105.333 26.5 203.166 79.5 293.499s125.833 160.833 218.5 211.5s196.334 76 311.001 76c72 0 141.5 -11 208.5 -33
s123.833 -50.667 170.5 -86s86.334 -80.333 119.001 -135zM642.001 0.000976562h88l-17 -118c15.333 2 28 3 38 3c32.667 0 60 -10.167 82 -30.5s33 -45.833 33 -76.5c0 -44 -20 -81.333 -60 -112s-96.333 -46 -169 -46c-59.333 0 -115 10 -167 30l22 69
c42.667 -13.333 82.667 -20 120 -20c50 0 85 6.16699 105 18.5s30 27.833 30 46.5c0 11.333 -5.5 21.333 -16.5 30s-26.167 13 -45.5 13c-16 0 -39.333 -3 -70 -9z" />
    <glyph glyph-name="egrave" unicode="&#xe8;" horiz-adv-x="1331" 
d="M1072 361l118.001 -62c-38.667 -76 -83.334 -137.333 -134.001 -184s-107.667 -82.167 -171 -106.5s-135 -36.5 -215 -36.5c-177.333 0 -316 58.167 -416 174.5s-150 247.833 -150 394.5c0 138 42.333 261 127 369c107.333 137.333 251 206 431 206
c185.333 0 333.333 -70.333 444 -211c78.667 -99.333 118.667 -223.333 120 -372h-978c2.66699 -126.667 43 -230.5 121 -311.5s174.333 -121.5 289 -121.5c55.333 0 109.166 9.66699 161.499 29s96.833 45 133.5 77s76.334 83.667 119.001 155zM1072 654
c-18.667 74.667 -45.8301 134.333 -81.4971 179s-82.834 80.667 -141.501 108s-120.334 41 -185.001 41c-106.667 0 -198.334 -34.333 -275.001 -103c-56 -50 -98.333 -125 -127 -225h810zM605.005 1598l218 -308h-138l-295 308h215z" />
    <glyph glyph-name="eacute" unicode="&#xe9;" horiz-adv-x="1331" 
d="M1072 361l118.001 -62c-38.667 -76 -83.334 -137.333 -134.001 -184s-107.667 -82.167 -171 -106.5s-135 -36.5 -215 -36.5c-177.333 0 -316 58.167 -416 174.5s-150 247.833 -150 394.5c0 138 42.333 261 127 369c107.333 137.333 251 206 431 206
c185.333 0 333.333 -70.333 444 -211c78.667 -99.333 118.667 -223.333 120 -372h-978c2.66699 -126.667 43 -230.5 121 -311.5s174.333 -121.5 289 -121.5c55.333 0 109.166 9.66699 161.499 29s96.833 45 133.5 77s76.334 83.667 119.001 155zM1072 654
c-18.667 74.667 -45.8301 134.333 -81.4971 179s-82.834 80.667 -141.501 108s-120.334 41 -185.001 41c-106.667 0 -198.334 -34.333 -275.001 -103c-56 -50 -98.333 -125 -127 -225h810zM734.005 1598h215l-295 -308h-138z" />
    <glyph glyph-name="ecircumflex" unicode="&#xea;" horiz-adv-x="1331" 
d="M1072 361l118.001 -62c-38.667 -76 -83.334 -137.333 -134.001 -184s-107.667 -82.167 -171 -106.5s-135 -36.5 -215 -36.5c-177.333 0 -316 58.167 -416 174.5s-150 247.833 -150 394.5c0 138 42.333 261 127 369c107.333 137.333 251 206 431 206
c185.333 0 333.333 -70.333 444 -211c78.667 -99.333 118.667 -223.333 120 -372h-978c2.66699 -126.667 43 -230.5 121 -311.5s174.333 -121.5 289 -121.5c55.333 0 109.166 9.66699 161.499 29s96.833 45 133.5 77s76.334 83.667 119.001 155zM1072 654
c-18.667 74.667 -45.8301 134.333 -81.4971 179s-82.834 80.667 -141.501 108s-120.334 41 -185.001 41c-106.667 0 -198.334 -34.333 -275.001 -103c-56 -50 -98.333 -125 -127 -225h810zM600.005 1542h139l290 -257h-180l-176 152l-184 -152h-186z" />
    <glyph glyph-name="edieresis" unicode="&#xeb;" horiz-adv-x="1331" 
d="M1072 361l118.001 -62c-38.667 -76 -83.334 -137.333 -134.001 -184s-107.667 -82.167 -171 -106.5s-135 -36.5 -215 -36.5c-177.333 0 -316 58.167 -416 174.5s-150 247.833 -150 394.5c0 138 42.333 261 127 369c107.333 137.333 251 206 431 206
c185.333 0 333.333 -70.333 444 -211c78.667 -99.333 118.667 -223.333 120 -372h-978c2.66699 -126.667 43 -230.5 121 -311.5s174.333 -121.5 289 -121.5c55.333 0 109.166 9.66699 161.499 29s96.833 45 133.5 77s76.334 83.667 119.001 155zM1072 654
c-18.667 74.667 -45.8301 134.333 -81.4971 179s-82.834 80.667 -141.501 108s-120.334 41 -185.001 41c-106.667 0 -198.334 -34.333 -275.001 -103c-56 -50 -98.333 -125 -127 -225h810zM462.005 1518c32 0 59.333 -11.333 82 -34s34 -50 34 -82s-11.333 -59.333 -34 -82
s-50 -34 -82 -34s-59.333 11.333 -82 34s-34 50 -34 82s11.333 59.333 34 82s50 34 82 34zM870.005 1518c32 0 59.333 -11.333 82 -34s34 -50 34 -82s-11.333 -59.333 -34 -82s-50 -34 -82 -34s-59.333 11.333 -82 34s-34 50 -34 82s11.333 59.333 34 82s50 34 82 34z" />
    <glyph glyph-name="igrave" unicode="&#xec;" horiz-adv-x="410" 
d="M135 1088h141v-1088h-141v1088zM144 1598l218 -308h-138l-295 308h215z" />
    <glyph glyph-name="iacute" unicode="&#xed;" horiz-adv-x="410" 
d="M135 1088h141v-1088h-141v1088zM273 1598h215l-295 -308h-138z" />
    <glyph glyph-name="icircumflex" unicode="&#xee;" horiz-adv-x="410" 
d="M135 1088h141v-1088h-141v1088zM139 1542h139l290 -257h-180l-176 152l-184 -152h-186z" />
    <glyph glyph-name="idieresis" unicode="&#xef;" horiz-adv-x="410" 
d="M135 1088h141v-1088h-141v1088zM1 1518c32 0 59.333 -11.333 82 -34s34 -50 34 -82s-11.333 -59.333 -34 -82s-50 -34 -82 -34s-59.333 11.333 -82 34s-34 50 -34 82s11.333 59.333 34 82s50 34 82 34zM409 1518c32 0 59.333 -11.333 82 -34s34 -50 34 -82
s-11.333 -59.333 -34 -82s-50 -34 -82 -34s-59.333 11.333 -82 34s-34 50 -34 82s11.333 59.333 34 82s50 34 82 34z" />
    <glyph glyph-name="eth" unicode="&#xf0;" horiz-adv-x="1341" 
d="M430 1508l197 0.000976562c34.667 -24.667 68.667 -50.667 102 -78l164 68l52 -107l-117 -47c144.667 -139.333 249.334 -274.833 314.001 -406.5s97 -255.167 97 -370.5c0 -110.667 -24.833 -212 -74.5 -304s-118.5 -163.5 -206.5 -214.5s-185.333 -76.5 -292 -76.5
c-154.667 0 -286.834 55.667 -396.501 167s-164.5 247.333 -164.5 408c0 158.667 54.167 293.167 162.5 403.5s236.833 165.5 385.5 165.5c77.333 0 161 -21.667 251 -65c-62.667 84.667 -133.667 163 -213 235l-218 -90l-52 106l175 73
c-64 53.333 -119.333 97.666 -166 132.999zM680 982.001c-104 0 -197.667 -32.665 -281 -97.998c-102 -80.667 -153 -192 -153 -334c0 -126 41.5 -231.5 124.5 -316.5s183.167 -127.5 300.5 -127.5c76 0 147.167 19.167 213.5 57.5s118 91.166 155 158.499
s55.5 142.666 55.5 225.999s-17.833 158.333 -53.5 225s-85.667 118.167 -150 154.5s-134.833 54.5 -211.5 54.5z" />
    <glyph glyph-name="ntilde" unicode="&#xf1;" horiz-adv-x="1249" 
d="M156 1088h140v-195c56 74.667 118 130.5 186 167.5s142 55.5 222 55.5c81.333 0 153.5 -20.667 216.5 -62s109.5 -97 139.5 -167s45 -179 45 -327v-560h-139v519c0 125.333 -5.33301 209 -16 251c-16.667 72 -48 126.167 -94 162.5s-106 54.5 -180 54.5
c-84.667 0 -160.5 -28 -227.5 -84s-111.167 -125.333 -132.5 -208c-13.333 -54 -20 -152.667 -20 -296v-399h-140v1088zM921 1492l69.999 -97c-48 -34.667 -88.5 -58 -121.5 -70s-67.833 -18 -104.5 -18c-48 0 -97.333 12.333 -148 37c-43.333 21.333 -71 33.666 -83 36.999
c-16 4.66699 -33.333 7 -52 7c-23.333 0 -45.5 -4.16699 -66.5 -12.5s-51.5 -27.166 -91.5 -56.499l-66 102c60.667 64.667 135.667 97 225 97c42.667 0 93.667 -13.333 153 -40c56.667 -26 101.334 -39 134.001 -39c36.667 0 87 17.667 151 53z" />
    <glyph glyph-name="ograve" unicode="&#xf2;" horiz-adv-x="1341" 
d="M671 1116c167.333 0 306.001 -60.668 416.001 -182.001c100 -110.667 150 -241.667 150 -393c0 -152 -52.833 -284.833 -158.5 -398.5s-241.5 -170.5 -407.5 -170.5c-166.667 0 -302.834 56.833 -408.501 170.5s-158.5 246.5 -158.5 398.5
c0 150.667 50 281.334 150 392.001c110 122 249 183 417 183zM671.001 978.999c-116 0 -215.667 -43 -299 -129s-125 -190 -125 -312c0 -78.667 19 -152 57 -220s89.333 -120.5 154 -157.5s135.667 -55.5 213 -55.5s148.333 18.5 213 55.5s116 89.5 154 157.5
s57 141.333 57 220c0 122 -41.833 226 -125.5 312s-183.167 129 -298.5 129zM610.001 1598l218 -308h-138l-295 308h215z" />
    <glyph glyph-name="oacute" unicode="&#xf3;" horiz-adv-x="1341" 
d="M671 1116c167.333 0 306.001 -60.668 416.001 -182.001c100 -110.667 150 -241.667 150 -393c0 -152 -52.833 -284.833 -158.5 -398.5s-241.5 -170.5 -407.5 -170.5c-166.667 0 -302.834 56.833 -408.501 170.5s-158.5 246.5 -158.5 398.5
c0 150.667 50 281.334 150 392.001c110 122 249 183 417 183zM671.001 978.999c-116 0 -215.667 -43 -299 -129s-125 -190 -125 -312c0 -78.667 19 -152 57 -220s89.333 -120.5 154 -157.5s135.667 -55.5 213 -55.5s148.333 18.5 213 55.5s116 89.5 154 157.5
s57 141.333 57 220c0 122 -41.833 226 -125.5 312s-183.167 129 -298.5 129zM739.001 1598h215l-295 -308h-138z" />
    <glyph glyph-name="ocircumflex" unicode="&#xf4;" horiz-adv-x="1341" 
d="M671 1116c167.333 0 306.001 -60.668 416.001 -182.001c100 -110.667 150 -241.667 150 -393c0 -152 -52.833 -284.833 -158.5 -398.5s-241.5 -170.5 -407.5 -170.5c-166.667 0 -302.834 56.833 -408.501 170.5s-158.5 246.5 -158.5 398.5
c0 150.667 50 281.334 150 392.001c110 122 249 183 417 183zM671.001 978.999c-116 0 -215.667 -43 -299 -129s-125 -190 -125 -312c0 -78.667 19 -152 57 -220s89.333 -120.5 154 -157.5s135.667 -55.5 213 -55.5s148.333 18.5 213 55.5s116 89.5 154 157.5
s57 141.333 57 220c0 122 -41.833 226 -125.5 312s-183.167 129 -298.5 129zM605.001 1542h139l290 -257h-180l-176 152l-184 -152h-186z" />
    <glyph glyph-name="otilde" unicode="&#xf5;" horiz-adv-x="1341" 
d="M671 1116c167.333 0 306.001 -60.668 416.001 -182.001c100 -110.667 150 -241.667 150 -393c0 -152 -52.833 -284.833 -158.5 -398.5s-241.5 -170.5 -407.5 -170.5c-166.667 0 -302.834 56.833 -408.501 170.5s-158.5 246.5 -158.5 398.5
c0 150.667 50 281.334 150 392.001c110 122 249 183 417 183zM671.001 978.999c-116 0 -215.667 -43 -299 -129s-125 -190 -125 -312c0 -78.667 19 -152 57 -220s89.333 -120.5 154 -157.5s135.667 -55.5 213 -55.5s148.333 18.5 213 55.5s116 89.5 154 157.5
s57 141.333 57 220c0 122 -41.833 226 -125.5 312s-183.167 129 -298.5 129zM967.001 1492l69.999 -97c-48 -34.667 -88.5 -58 -121.5 -70s-67.833 -18 -104.5 -18c-48 0 -97.333 12.333 -148 37c-43.333 21.333 -71 33.666 -83 36.999c-16 4.66699 -33.333 7 -52 7
c-23.333 0 -45.5 -4.16699 -66.5 -12.5s-51.5 -27.166 -91.5 -56.499l-66 102c60.667 64.667 135.667 97 225 97c42.667 0 93.667 -13.333 153 -40c56.667 -26 101.334 -39 134.001 -39c36.667 0 87 17.667 151 53z" />
    <glyph glyph-name="odieresis" unicode="&#xf6;" horiz-adv-x="1341" 
d="M671 1116c167.333 0 306.001 -60.668 416.001 -182.001c100 -110.667 150 -241.667 150 -393c0 -152 -52.833 -284.833 -158.5 -398.5s-241.5 -170.5 -407.5 -170.5c-166.667 0 -302.834 56.833 -408.501 170.5s-158.5 246.5 -158.5 398.5
c0 150.667 50 281.334 150 392.001c110 122 249 183 417 183zM671.001 978.999c-116 0 -215.667 -43 -299 -129s-125 -190 -125 -312c0 -78.667 19 -152 57 -220s89.333 -120.5 154 -157.5s135.667 -55.5 213 -55.5s148.333 18.5 213 55.5s116 89.5 154 157.5
s57 141.333 57 220c0 122 -41.833 226 -125.5 312s-183.167 129 -298.5 129zM467.001 1518c32 0 59.333 -11.333 82 -34s34 -50 34 -82s-11.333 -59.333 -34 -82s-50 -34 -82 -34s-59.333 11.333 -82 34s-34 50 -34 82s11.333 59.333 34 82s50 34 82 34zM875.001 1518
c32 0 59.333 -11.333 82 -34s34 -50 34 -82s-11.333 -59.333 -34 -82s-50 -34 -82 -34s-59.333 11.333 -82 34s-34 50 -34 82s11.333 59.333 34 82s50 34 82 34z" />
    <glyph glyph-name="divide" unicode="&#xf7;" horiz-adv-x="1124" 
d="M461 1207h201v-202h-201v202zM56 804h1012v-137h-1012v137zM461 466h201v-205h-201v205z" />
    <glyph glyph-name="oslash" unicode="&#xf8;" horiz-adv-x="1337" 
d="M1102 913c88.667 -107.333 133 -231.333 133 -372c0 -152 -52.833 -284.833 -158.5 -398.5s-241.5 -170.5 -407.5 -170.5c-109.333 0 -209 27.333 -299 82l-116 -137l-89 74l114 134c-118 114 -177 252.667 -177 416c0 152 52.667 285.833 158 401.5
s241.333 173.5 408 173.5c134 0 251 -40 351 -120l116 137l92 -74zM367 229l560.001 658c-78.667 61.333 -164.667 92 -258 92c-74 0 -143.833 -19.5 -209.5 -58.5s-117.834 -93 -156.501 -162s-58 -142.5 -58 -220.5c0 -57.333 10.833 -113.5 32.5 -168.5
s51.5 -101.833 89.5 -140.5zM1007 802l-548.001 -644c68.667 -35.333 138.334 -53 209.001 -53c77.333 0 148.5 18.5 213.5 55.5s116.5 89.5 154.5 157.5s57 141 57 219c0 96 -28.667 184.333 -86 265z" />
    <glyph glyph-name="ugrave" unicode="&#xf9;" horiz-adv-x="1245" 
d="M138 1088l141 0.000976562v-508c0 -124 6.66699 -209.333 20 -256c20 -66.667 58.167 -119.334 114.5 -158.001s123.5 -58 201.5 -58s144.167 18.833 198.5 56.5s91.833 87.167 112.5 148.5c14 42 21 131 21 267v508h143v-534c0 -150 -17.5 -263 -52.5 -339
s-87.667 -135.5 -158 -178.5s-158.5 -64.5 -264.5 -64.5s-194.5 21.5 -265.5 64.5s-124 103 -159 180s-52.5 192.833 -52.5 347.5v524zM561 1598l218 -308h-138l-295 308h215z" />
    <glyph glyph-name="uacute" unicode="&#xfa;" horiz-adv-x="1245" 
d="M138 1088l141 0.000976562v-508c0 -124 6.66699 -209.333 20 -256c20 -66.667 58.167 -119.334 114.5 -158.001s123.5 -58 201.5 -58s144.167 18.833 198.5 56.5s91.833 87.167 112.5 148.5c14 42 21 131 21 267v508h143v-534c0 -150 -17.5 -263 -52.5 -339
s-87.667 -135.5 -158 -178.5s-158.5 -64.5 -264.5 -64.5s-194.5 21.5 -265.5 64.5s-124 103 -159 180s-52.5 192.833 -52.5 347.5v524zM690 1598h215l-295 -308h-138z" />
    <glyph glyph-name="ucircumflex" unicode="&#xfb;" horiz-adv-x="1245" 
d="M138 1088l141 0.000976562v-508c0 -124 6.66699 -209.333 20 -256c20 -66.667 58.167 -119.334 114.5 -158.001s123.5 -58 201.5 -58s144.167 18.833 198.5 56.5s91.833 87.167 112.5 148.5c14 42 21 131 21 267v508h143v-534c0 -150 -17.5 -263 -52.5 -339
s-87.667 -135.5 -158 -178.5s-158.5 -64.5 -264.5 -64.5s-194.5 21.5 -265.5 64.5s-124 103 -159 180s-52.5 192.833 -52.5 347.5v524zM556 1542h139l290 -257h-180l-176 152l-184 -152h-186z" />
    <glyph glyph-name="udieresis" unicode="&#xfc;" horiz-adv-x="1245" 
d="M138 1088l141 0.000976562v-508c0 -124 6.66699 -209.333 20 -256c20 -66.667 58.167 -119.334 114.5 -158.001s123.5 -58 201.5 -58s144.167 18.833 198.5 56.5s91.833 87.167 112.5 148.5c14 42 21 131 21 267v508h143v-534c0 -150 -17.5 -263 -52.5 -339
s-87.667 -135.5 -158 -178.5s-158.5 -64.5 -264.5 -64.5s-194.5 21.5 -265.5 64.5s-124 103 -159 180s-52.5 192.833 -52.5 347.5v524zM418 1518c32 0 59.333 -11.333 82 -34s34 -50 34 -82s-11.333 -59.333 -34 -82s-50 -34 -82 -34s-59.333 11.333 -82 34s-34 50 -34 82
s11.333 59.333 34 82s50 34 82 34zM826 1518c32 0 59.333 -11.333 82 -34s34 -50 34 -82s-11.333 -59.333 -34 -82s-50 -34 -82 -34s-59.333 11.333 -82 34s-34 50 -34 82s11.333 59.333 34 82s50 34 82 34z" />
    <glyph glyph-name="yacute" unicode="&#xfd;" horiz-adv-x="1098" 
d="M39 1088h148l374 -838l363 838h149l-649 -1486h-148l210 480zM617 1598h215l-295 -308h-138z" />
    <glyph glyph-name="thorn" unicode="&#xfe;" horiz-adv-x="1397" 
d="M158 1508h139.002v-620c55.333 76 119 133 191 171s152.333 57 241 57c154.667 0 287 -55.667 397 -167s165 -245.333 165 -402c0 -160 -54.5 -295.833 -163.5 -407.5s-240.5 -167.5 -394.5 -167.5c-86.667 0 -166.334 18 -239.001 54s-138.334 89.667 -197.001 161v-585
h-139v1906zM718.002 981c-121.333 0 -223.498 -42.3311 -306.498 -126.998s-124.5 -190 -124.5 -316c0 -82.667 18.5 -157 55.5 -223s90 -118.333 159 -157s141.833 -58 218.5 -58c75.333 0 146.166 19.5 212.499 58.5s119.166 93.5 158.499 163.5s59 143.333 59 220
c0 77.333 -19.5 150.666 -58.5 219.999s-91.5 123.166 -157.5 161.499s-138 57.5 -216 57.5z" />
    <glyph glyph-name="ydieresis" unicode="&#xff;" horiz-adv-x="1098" 
d="M39 1088h148l374 -838l363 838h149l-649 -1486h-148l210 480zM355 1518c32 0 59.333 -11.333 82 -34s34 -50 34 -82s-11.333 -59.333 -34 -82s-50 -34 -82 -34s-59.333 11.333 -82 34s-34 50 -34 82s11.333 59.333 34 82s50 34 82 34zM763 1518
c32 0 59.333 -11.333 82 -34s34 -50 34 -82s-11.333 -59.333 -34 -82s-50 -34 -82 -34s-59.333 11.333 -82 34s-34 50 -34 82s11.333 59.333 34 82s50 34 82 34z" />
    <glyph glyph-name="Amacron" unicode="&#x100;" horiz-adv-x="1515" 
d="M780 1471l686 -1471h-158l-231 484h-634l-230 -484h-164l695 1471h36zM762 1159l-253 -533h503zM412 1776h690v-119h-690v119z" />
    <glyph glyph-name="amacron" unicode="&#x101;" horiz-adv-x="1399" 
d="M1240 1088l0.000976562 -1088h-138v187c-58.667 -71.333 -124.5 -125 -197.5 -161s-152.833 -54 -239.5 -54c-154 0 -285.5 55.833 -394.5 167.5s-163.5 247.5 -163.5 407.5c0 156.667 55 290.667 165 402s242.333 167 397 167c89.333 0 170.166 -19 242.499 -57
s135.833 -95 190.5 -171v200h138zM680.001 981c-78 0 -150 -19.1689 -216 -57.502s-118.5 -92.166 -157.5 -161.499s-58.5 -142.666 -58.5 -219.999c0 -76.667 19.667 -150 59 -220s92.166 -124.5 158.499 -163.5s137.5 -58.5 213.5 -58.5
c76.667 0 149.334 19.333 218.001 58s121.5 91 158.5 157s55.5 140.333 55.5 223c0 126 -41.5 231.333 -124.5 316s-185.167 127 -306.5 127zM355.001 1479h690v-119h-690v119z" />
    <glyph glyph-name="Abreve" unicode="&#x102;" horiz-adv-x="1515" 
d="M780 1471l686 -1471h-158l-231 484h-634l-230 -484h-164l695 1471h36zM762 1159l-253 -533h503zM410 1822h132c22.667 -34.667 53 -60.667 91 -78s83.333 -26 136 -26c53.333 0 96.333 7.66699 129 23s63.667 42.333 93 81h128
c-14.667 -60 -52.167 -110.167 -112.5 -150.5s-139.833 -60.5 -238.5 -60.5c-98 0 -178 19.833 -240 59.5s-101.333 90.167 -118 151.5z" />
    <glyph glyph-name="abreve" unicode="&#x103;" horiz-adv-x="1399" 
d="M1240 1088l0.000976562 -1088h-138v187c-58.667 -71.333 -124.5 -125 -197.5 -161s-152.833 -54 -239.5 -54c-154 0 -285.5 55.833 -394.5 167.5s-163.5 247.5 -163.5 407.5c0 156.667 55 290.667 165 402s242.333 167 397 167c89.333 0 170.166 -19 242.499 -57
s135.833 -95 190.5 -171v200h138zM680.001 981c-78 0 -150 -19.1689 -216 -57.502s-118.5 -92.166 -157.5 -161.499s-58.5 -142.666 -58.5 -219.999c0 -76.667 19.667 -150 59 -220s92.166 -124.5 158.499 -163.5s137.5 -58.5 213.5 -58.5
c76.667 0 149.334 19.333 218.001 58s121.5 91 158.5 157s55.5 140.333 55.5 223c0 126 -41.5 231.333 -124.5 316s-185.167 127 -306.5 127zM310.001 1525h132c22.667 -34.667 53 -60.667 91 -78s83.333 -26 136 -26c53.333 0 96.333 7.66699 129 23s63.667 42.333 93 81
h128c-14.667 -60 -52.167 -110.167 -112.5 -150.5s-139.833 -60.5 -238.5 -60.5c-98 0 -178 19.833 -240 59.5s-101.333 90.167 -118 151.5z" />
    <glyph glyph-name="Aogonek" unicode="&#x104;" horiz-adv-x="1515" 
d="M780 1471l686 -1471h-158l-231 484h-634l-230 -484h-164l695 1471h36zM762 1159l-253 -533h503zM1316 0l109 0.000976562c-80.667 -68.667 -121 -133 -121 -193c0 -30.667 12.5 -56.667 37.5 -78s61.167 -32 108.5 -32c19.333 0 42.333 1.66699 69 5l-9 -85
c-28 -6.66699 -56.333 -10 -85 -10c-74 0 -130.5 17.667 -169.5 53s-58.5 77.666 -58.5 126.999c0 86.667 39.667 157.667 119 213z" />
    <glyph glyph-name="aogonek" unicode="&#x105;" horiz-adv-x="1399" 
d="M1240 1088l0.000976562 -1088h-138v187c-58.667 -71.333 -124.5 -125 -197.5 -161s-152.833 -54 -239.5 -54c-154 0 -285.5 55.833 -394.5 167.5s-163.5 247.5 -163.5 407.5c0 156.667 55 290.667 165 402s242.333 167 397 167c89.333 0 170.166 -19 242.499 -57
s135.833 -95 190.5 -171v200h138zM680.001 981c-78 0 -150 -19.1689 -216 -57.502s-118.5 -92.166 -157.5 -161.499s-58.5 -142.666 -58.5 -219.999c0 -76.667 19.667 -150 59 -220s92.166 -124.5 158.499 -163.5s137.5 -58.5 213.5 -58.5
c76.667 0 149.334 19.333 218.001 58s121.5 91 158.5 157s55.5 140.333 55.5 223c0 126 -41.5 231.333 -124.5 316s-185.167 127 -306.5 127zM1115 -0.00195312l109 0.000976562c-80.667 -68.667 -121 -133 -121 -193c0 -30.667 12.5 -56.667 37.5 -78s61.167 -32 108.5 -32
c19.333 0 42.333 1.66699 69 5l-9 -85c-28 -6.66699 -56.333 -10 -85 -10c-74 0 -130.5 17.667 -169.5 53s-58.5 77.666 -58.5 126.999c0 86.667 39.667 157.667 119 213z" />
    <glyph glyph-name="Cacute" unicode="&#x106;" horiz-adv-x="1665" 
d="M1549 1198l-116.001 -89.001c-64 83.333 -140.833 146.5 -230.5 189.5s-188.167 64.5 -295.5 64.5c-117.333 0 -226 -28.167 -326 -84.5s-177.5 -132 -232.5 -227s-82.5 -201.833 -82.5 -320.5c0 -179.333 61.5 -329 184.5 -449s278.167 -180 465.5 -180
c206 0 378.333 80.667 517 242l116 -88c-73.333 -93.333 -164.833 -165.5 -274.5 -216.5s-232.167 -76.5 -367.5 -76.5c-257.333 0 -460.333 85.667 -609 257c-124.667 144.667 -187 319.334 -187 524.001c0 215.333 75.5 396.5 226.5 543.5s340.167 220.5 567.5 220.5
c137.333 0 261.333 -27.167 372 -81.5s201.334 -130.5 272.001 -228.5zM984.999 1891h215l-295 -308h-138z" />
    <glyph glyph-name="cacute" unicode="&#x107;" horiz-adv-x="1325" 
d="M1212 862l-110.999 -68.999c-96 127.333 -227 191 -393 191c-132.667 0 -242.834 -42.667 -330.501 -128s-131.5 -189 -131.5 -311c0 -79.333 20.167 -154 60.5 -224s95.666 -124.333 165.999 -163s149.166 -58 236.499 -58c160 0 290.667 63.667 392 191l111 -73
c-52 -78 -121.833 -138.5 -209.5 -181.5s-187.5 -64.5 -299.5 -64.5c-172 0 -314.667 54.667 -428 164s-170 242.333 -170 399c0 105.333 26.5 203.166 79.5 293.499s125.833 160.833 218.5 211.5s196.334 76 311.001 76c72 0 141.5 -11 208.5 -33
s123.833 -50.667 170.5 -86s86.334 -80.333 119.001 -135zM767.001 1598h215l-295 -308h-138z" />
    <glyph glyph-name="Ccircumflex" unicode="&#x108;" horiz-adv-x="1665" 
d="M1549 1198l-116.001 -89.001c-64 83.333 -140.833 146.5 -230.5 189.5s-188.167 64.5 -295.5 64.5c-117.333 0 -226 -28.167 -326 -84.5s-177.5 -132 -232.5 -227s-82.5 -201.833 -82.5 -320.5c0 -179.333 61.5 -329 184.5 -449s278.167 -180 465.5 -180
c206 0 378.333 80.667 517 242l116 -88c-73.333 -93.333 -164.833 -165.5 -274.5 -216.5s-232.167 -76.5 -367.5 -76.5c-257.333 0 -460.333 85.667 -609 257c-124.667 144.667 -187 319.334 -187 524.001c0 215.333 75.5 396.5 226.5 543.5s340.167 220.5 567.5 220.5
c137.333 0 261.333 -27.167 372 -81.5s201.334 -130.5 272.001 -228.5zM805.999 1840h139l290 -257h-180l-176 152l-184 -152h-186z" />
    <glyph glyph-name="ccircumflex" unicode="&#x109;" horiz-adv-x="1325" 
d="M1212 862l-110.999 -68.999c-96 127.333 -227 191 -393 191c-132.667 0 -242.834 -42.667 -330.501 -128s-131.5 -189 -131.5 -311c0 -79.333 20.167 -154 60.5 -224s95.666 -124.333 165.999 -163s149.166 -58 236.499 -58c160 0 290.667 63.667 392 191l111 -73
c-52 -78 -121.833 -138.5 -209.5 -181.5s-187.5 -64.5 -299.5 -64.5c-172 0 -314.667 54.667 -428 164s-170 242.333 -170 399c0 105.333 26.5 203.166 79.5 293.499s125.833 160.833 218.5 211.5s196.334 76 311.001 76c72 0 141.5 -11 208.5 -33
s123.833 -50.667 170.5 -86s86.334 -80.333 119.001 -135zM598.001 1542h139l290 -257h-180l-176 152l-184 -152h-186z" />
    <glyph glyph-name="Cdot" unicode="&#x10a;" horiz-adv-x="1665" 
d="M1549 1198l-116.001 -89.001c-64 83.333 -140.833 146.5 -230.5 189.5s-188.167 64.5 -295.5 64.5c-117.333 0 -226 -28.167 -326 -84.5s-177.5 -132 -232.5 -227s-82.5 -201.833 -82.5 -320.5c0 -179.333 61.5 -329 184.5 -449s278.167 -180 465.5 -180
c206 0 378.333 80.667 517 242l116 -88c-73.333 -93.333 -164.833 -165.5 -274.5 -216.5s-232.167 -76.5 -367.5 -76.5c-257.333 0 -460.333 85.667 -609 257c-124.667 144.667 -187 319.334 -187 524.001c0 215.333 75.5 396.5 226.5 543.5s340.167 220.5 567.5 220.5
c137.333 0 261.333 -27.167 372 -81.5s201.334 -130.5 272.001 -228.5zM877.999 1816c32 0 59.333 -11.333 82 -34s34 -50 34 -82s-11.333 -59.333 -34 -82s-50 -34 -82 -34s-59.333 11.333 -82 34s-34 50 -34 82s11.333 59.333 34 82s50 34 82 34z" />
    <glyph glyph-name="cdot" unicode="&#x10b;" horiz-adv-x="1325" 
d="M1212 862l-110.999 -68.999c-96 127.333 -227 191 -393 191c-132.667 0 -242.834 -42.667 -330.501 -128s-131.5 -189 -131.5 -311c0 -79.333 20.167 -154 60.5 -224s95.666 -124.333 165.999 -163s149.166 -58 236.499 -58c160 0 290.667 63.667 392 191l111 -73
c-52 -78 -121.833 -138.5 -209.5 -181.5s-187.5 -64.5 -299.5 -64.5c-172 0 -314.667 54.667 -428 164s-170 242.333 -170 399c0 105.333 26.5 203.166 79.5 293.499s125.833 160.833 218.5 211.5s196.334 76 311.001 76c72 0 141.5 -11 208.5 -33
s123.833 -50.667 170.5 -86s86.334 -80.333 119.001 -135zM683.001 1518c32 0 59.333 -11.333 82 -34s34 -50 34 -82s-11.333 -59.333 -34 -82s-50 -34 -82 -34s-59.333 11.333 -82 34s-34 50 -34 82s11.333 59.333 34 82s50 34 82 34z" />
    <glyph glyph-name="Ccaron" unicode="&#x10c;" horiz-adv-x="1665" 
d="M1549 1198l-116.001 -89.001c-64 83.333 -140.833 146.5 -230.5 189.5s-188.167 64.5 -295.5 64.5c-117.333 0 -226 -28.167 -326 -84.5s-177.5 -132 -232.5 -227s-82.5 -201.833 -82.5 -320.5c0 -179.333 61.5 -329 184.5 -449s278.167 -180 465.5 -180
c206 0 378.333 80.667 517 242l116 -88c-73.333 -93.333 -164.833 -165.5 -274.5 -216.5s-232.167 -76.5 -367.5 -76.5c-257.333 0 -460.333 85.667 -609 257c-124.667 144.667 -187 319.334 -187 524.001c0 215.333 75.5 396.5 226.5 543.5s340.167 220.5 567.5 220.5
c137.333 0 261.333 -27.167 372 -81.5s201.334 -130.5 272.001 -228.5zM970.999 1578h-139l-290 257h180l177 -152l183 152h186z" />
    <glyph glyph-name="ccaron" unicode="&#x10d;" horiz-adv-x="1325" 
d="M1212 862l-110.999 -68.999c-96 127.333 -227 191 -393 191c-132.667 0 -242.834 -42.667 -330.501 -128s-131.5 -189 -131.5 -311c0 -79.333 20.167 -154 60.5 -224s95.666 -124.333 165.999 -163s149.166 -58 236.499 -58c160 0 290.667 63.667 392 191l111 -73
c-52 -78 -121.833 -138.5 -209.5 -181.5s-187.5 -64.5 -299.5 -64.5c-172 0 -314.667 54.667 -428 164s-170 242.333 -170 399c0 105.333 26.5 203.166 79.5 293.499s125.833 160.833 218.5 211.5s196.334 76 311.001 76c72 0 141.5 -11 208.5 -33
s123.833 -50.667 170.5 -86s86.334 -80.333 119.001 -135zM777.001 1285h-139l-290 257h180l177 -152l183 152h186z" />
    <glyph glyph-name="Dcaron" unicode="&#x10e;" horiz-adv-x="1524" 
d="M179 0l0.000976562 1471h305c220 0 379.667 -17.667 479 -53c142.667 -50 254.167 -136.667 334.5 -260s120.5 -270.333 120.5 -441c0 -147.333 -31.833 -277 -95.5 -389s-146.334 -194.667 -248.001 -248s-244.167 -80 -427.5 -80h-468zM320.001 139h170.001
c203.333 0 344.333 12.667 423 38c110.667 36 197.667 100.833 261 194.5s95 208.167 95 343.5c0 142 -34.333 263.333 -103 364s-164.334 169.667 -287.001 207c-92 28 -243.667 42 -455 42h-104v-1189zM731.002 1578h-139l-290 257h180l177 -152l183 152h186z" />
    <glyph glyph-name="dcaron" unicode="&#x10f;" horiz-adv-x="1403" 
d="M1242 1508l0.000976562 -1508h-138v187c-118 -143.333 -263.667 -215 -437 -215c-162.667 0 -296.334 58 -401.001 174s-157 249.667 -157 401c0 153.333 54.5 286.5 163.5 399.5s241.833 169.5 398.5 169.5c178.667 0 323 -76 433 -228v620h138zM682.001 981
c-124 0 -226.999 -43.833 -308.999 -131.5s-123 -190.167 -123 -307.5c0 -118.667 41.833 -222 125.5 -310s185.5 -132 305.5 -132c111.333 0 211.166 39 299.499 117s132.5 185 132.5 321c0 132.667 -42.833 239.667 -128.5 321s-186.5 122 -302.5 122zM1398 1041l-65 38
c35.333 69.333 55 134.333 59 195h-75v234h154v-146c0 -70.667 -4.66699 -127 -14 -169s-29 -92.667 -59 -152z" />
    <glyph glyph-name="Dslash" unicode="&#x110;" horiz-adv-x="1618" 
d="M213 667h-178.998v137h179v667h366c219.333 0 379 -17.667 479 -53c142 -50 253.167 -136.667 333.5 -260s120.5 -270.333 120.5 -441c0 -147.333 -31.833 -277 -95.5 -389s-146.334 -194.667 -248.001 -248s-243.834 -80 -426.501 -80h-529v667zM354.002 667
l-0.000976562 -528h230c203.333 0 344.333 12.667 423 38c110.667 36 197.834 100.833 261.501 194.5s95.5 208.167 95.5 343.5c0 142 -34.5 263.333 -103.5 364s-164.833 169.667 -287.5 207c-92 28 -243.667 42 -455 42h-164v-524h387v-137h-387z" />
    <glyph glyph-name="dmacron" unicode="&#x111;" horiz-adv-x="1403" 
d="M1242 1331h160.001v-115h-160v-1216h-138v187c-58.667 -71.333 -124.5 -125 -197.5 -161s-152.833 -54 -239.5 -54c-154 0 -285.5 55.833 -394.5 167.5s-163.5 247.5 -163.5 407.5c0 156.667 55 290.667 165 402s242.333 167 397 167c89.333 0 170.166 -19 242.499 -57
s135.833 -95 190.5 -171v328h-306v115h306v177h138v-177zM682.001 981c-78 0 -150 -19.1689 -216 -57.502s-118.5 -92.166 -157.5 -161.499s-58.5 -142.666 -58.5 -219.999c0 -76.667 19.667 -150 59 -220s92.166 -124.5 158.499 -163.5s137.5 -58.5 213.5 -58.5
c76.667 0 149.334 19.333 218.001 58s121.5 91 158.5 157s55.5 140.333 55.5 223c0 126 -41.5 231.333 -124.5 316s-185.167 127 -306.5 127z" />
    <glyph glyph-name="Emacron" unicode="&#x112;" horiz-adv-x="1098" 
d="M180 1471h843v-145h-696v-460h690v-144h-690v-577h690v-145h-837v1471zM252 1776h690v-119h-690v119z" />
    <glyph glyph-name="emacron" unicode="&#x113;" horiz-adv-x="1331" 
d="M1072 361l118.001 -62c-38.667 -76 -83.334 -137.333 -134.001 -184s-107.667 -82.167 -171 -106.5s-135 -36.5 -215 -36.5c-177.333 0 -316 58.167 -416 174.5s-150 247.833 -150 394.5c0 138 42.333 261 127 369c107.333 137.333 251 206 431 206
c185.333 0 333.333 -70.333 444 -211c78.667 -99.333 118.667 -223.333 120 -372h-978c2.66699 -126.667 43 -230.5 121 -311.5s174.333 -121.5 289 -121.5c55.333 0 109.166 9.66699 161.499 29s96.833 45 133.5 77s76.334 83.667 119.001 155zM1072 654
c-18.667 74.667 -45.8301 134.333 -81.4971 179s-82.834 80.667 -141.501 108s-120.334 41 -185.001 41c-106.667 0 -198.334 -34.333 -275.001 -103c-56 -50 -98.333 -125 -127 -225h810zM320.005 1479h690v-119h-690v119z" />
    <glyph glyph-name="Ebreve" unicode="&#x114;" horiz-adv-x="1098" 
d="M180 1471h843v-145h-696v-460h690v-144h-690v-577h690v-145h-837v1471zM195 1823h132c22.667 -34.667 53 -60.667 91 -78s83.333 -26 136 -26c53.333 0 96.333 7.66699 129 23s63.667 42.333 93 81h128c-14.667 -60 -52.167 -110.167 -112.5 -150.5
s-139.833 -60.5 -238.5 -60.5c-98 0 -178 19.833 -240 59.5s-101.333 90.167 -118 151.5z" />
    <glyph glyph-name="ebreve" unicode="&#x115;" horiz-adv-x="1331" 
d="M1072 361l118.001 -62c-38.667 -76 -83.334 -137.333 -134.001 -184s-107.667 -82.167 -171 -106.5s-135 -36.5 -215 -36.5c-177.333 0 -316 58.167 -416 174.5s-150 247.833 -150 394.5c0 138 42.333 261 127 369c107.333 137.333 251 206 431 206
c185.333 0 333.333 -70.333 444 -211c78.667 -99.333 118.667 -223.333 120 -372h-978c2.66699 -126.667 43 -230.5 121 -311.5s174.333 -121.5 289 -121.5c55.333 0 109.166 9.66699 161.499 29s96.833 45 133.5 77s76.334 83.667 119.001 155zM1072 654
c-18.667 74.667 -45.8301 134.333 -81.4971 179s-82.834 80.667 -141.501 108s-120.334 41 -185.001 41c-106.667 0 -198.334 -34.333 -275.001 -103c-56 -50 -98.333 -125 -127 -225h810zM311.005 1525h132c22.667 -34.667 53 -60.667 91 -78s83.333 -26 136 -26
c53.333 0 96.333 7.66699 129 23s63.667 42.333 93 81h128c-14.667 -60 -52.167 -110.167 -112.5 -150.5s-139.833 -60.5 -238.5 -60.5c-98 0 -178 19.833 -240 59.5s-101.333 90.167 -118 151.5z" />
    <glyph glyph-name="Edot" unicode="&#x116;" horiz-adv-x="1098" 
d="M180 1471h843v-145h-696v-460h690v-144h-690v-577h690v-145h-837v1471zM602 1816c32 0 59.333 -11.333 82 -34s34 -50 34 -82s-11.333 -59.333 -34 -82s-50 -34 -82 -34s-59.333 11.333 -82 34s-34 50 -34 82s11.333 59.333 34 82s50 34 82 34z" />
    <glyph glyph-name="edot" unicode="&#x117;" horiz-adv-x="1331" 
d="M1072 361l118.001 -62c-38.667 -76 -83.334 -137.333 -134.001 -184s-107.667 -82.167 -171 -106.5s-135 -36.5 -215 -36.5c-177.333 0 -316 58.167 -416 174.5s-150 247.833 -150 394.5c0 138 42.333 261 127 369c107.333 137.333 251 206 431 206
c185.333 0 333.333 -70.333 444 -211c78.667 -99.333 118.667 -223.333 120 -372h-978c2.66699 -126.667 43 -230.5 121 -311.5s174.333 -121.5 289 -121.5c55.333 0 109.166 9.66699 161.499 29s96.833 45 133.5 77s76.334 83.667 119.001 155zM1072 654
c-18.667 74.667 -45.8301 134.333 -81.4971 179s-82.834 80.667 -141.501 108s-120.334 41 -185.001 41c-106.667 0 -198.334 -34.333 -275.001 -103c-56 -50 -98.333 -125 -127 -225h810zM665.005 1518c32 0 59.333 -11.333 82 -34s34 -50 34 -82s-11.333 -59.333 -34 -82
s-50 -34 -82 -34s-59.333 11.333 -82 34s-34 50 -34 82s11.333 59.333 34 82s50 34 82 34z" />
    <glyph glyph-name="Eogonek" unicode="&#x118;" horiz-adv-x="1098" 
d="M180 1471h843v-145h-696v-460h690v-144h-690v-577h690v-145h-837v1471zM816 0l109 0.000976562c-80.667 -68.667 -121 -133 -121 -193c0 -30.667 12.5 -56.667 37.5 -78s61.167 -32 108.5 -32c19.333 0 42.333 1.66699 69 5l-9 -85c-28 -6.66699 -56.333 -10 -85 -10
c-74 0 -130.5 17.667 -169.5 53s-58.5 77.666 -58.5 126.999c0 86.667 39.667 157.667 119 213z" />
    <glyph glyph-name="eogonek" unicode="&#x119;" horiz-adv-x="1331" 
d="M1072 361l118.001 -62c-38.667 -76 -83.334 -137.333 -134.001 -184s-107.667 -82.167 -171 -106.5s-135 -36.5 -215 -36.5c-177.333 0 -316 58.167 -416 174.5s-150 247.833 -150 394.5c0 138 42.333 261 127 369c107.333 137.333 251 206 431 206
c185.333 0 333.333 -70.333 444 -211c78.667 -99.333 118.667 -223.333 120 -372h-978c2.66699 -126.667 43 -230.5 121 -311.5s174.333 -121.5 289 -121.5c55.333 0 109.166 9.66699 161.499 29s96.833 45 133.5 77s76.334 83.667 119.001 155zM1072 654
c-18.667 74.667 -45.8301 134.333 -81.4971 179s-82.834 80.667 -141.501 108s-120.334 41 -185.001 41c-106.667 0 -198.334 -34.333 -275.001 -103c-56 -50 -98.333 -125 -127 -225h810zM689.005 -0.000976562l109 0.000976562c-80.667 -68.667 -121 -133 -121 -193
c0 -30.667 12.5 -56.667 37.5 -78s61.167 -32 108.5 -32c19.333 0 42.333 1.66699 69 5l-9 -85c-28 -6.66699 -56.333 -10 -85 -10c-74 0 -130.5 17.667 -169.5 53s-58.5 77.666 -58.5 126.999c0 86.667 39.667 157.667 119 213z" />
    <glyph glyph-name="Ecaron" unicode="&#x11a;" horiz-adv-x="1098" 
d="M180 1471h843v-145h-696v-460h690v-144h-690v-577h690v-145h-837v1471zM675 1583h-139l-290 257h180l177 -152l183 152h186z" />
    <glyph glyph-name="ecaron" unicode="&#x11b;" horiz-adv-x="1331" 
d="M1072 361l118.001 -62c-38.667 -76 -83.334 -137.333 -134.001 -184s-107.667 -82.167 -171 -106.5s-135 -36.5 -215 -36.5c-177.333 0 -316 58.167 -416 174.5s-150 247.833 -150 394.5c0 138 42.333 261 127 369c107.333 137.333 251 206 431 206
c185.333 0 333.333 -70.333 444 -211c78.667 -99.333 118.667 -223.333 120 -372h-978c2.66699 -126.667 43 -230.5 121 -311.5s174.333 -121.5 289 -121.5c55.333 0 109.166 9.66699 161.499 29s96.833 45 133.5 77s76.334 83.667 119.001 155zM1072 654
c-18.667 74.667 -45.8301 134.333 -81.4971 179s-82.834 80.667 -141.501 108s-120.334 41 -185.001 41c-106.667 0 -198.334 -34.333 -275.001 -103c-56 -50 -98.333 -125 -127 -225h810zM732.005 1285h-139l-290 257h180l177 -152l183 152h186z" />
    <glyph glyph-name="Gcircumflex" unicode="&#x11c;" horiz-adv-x="1786" 
d="M1598 1224l-114.002 -108c-82 80.667 -171.833 141.834 -269.5 183.501s-192.834 62.5 -285.501 62.5c-115.333 0 -225.166 -28.333 -329.499 -85s-185.166 -133.5 -242.499 -230.5s-86 -199.5 -86 -307.5c0 -110.667 29.667 -215.834 89 -315.501s141.333 -178 246 -235
s219.334 -85.5 344.001 -85.5c151.333 0 279.333 42.667 384 128s166.667 196 186 332h-469v142h634c-1.33301 -227.333 -68.833 -407.833 -202.5 -541.5s-312.5 -200.5 -536.5 -200.5c-272 0 -487.333 92.667 -646 278c-122 142.667 -183 307.667 -183 495
c0 139.333 35 269 105 389s166 213.833 288 281.5s260 101.5 414 101.5c124.667 0 242 -22.5 352 -67.5s217.333 -117.167 322 -216.5zM834.998 1840h139l290 -257h-180l-176 152l-184 -152h-186z" />
    <glyph glyph-name="gcircumflex" unicode="&#x11d;" horiz-adv-x="1378" 
d="M1093 1088l141.003 0.00390625v-867c0 -152.667 -13.333 -264.334 -40 -335.001c-36.667 -100 -100.334 -177 -191.001 -231s-199.667 -81 -327 -81c-93.333 0 -177.166 13.167 -251.499 39.5s-134.833 61.666 -181.5 105.999s-89.667 109.166 -129 194.499h152
c41.333 -72 94.666 -125.333 159.999 -160s146.333 -52 243 -52c95.333 0 175.833 17.833 241.5 53.5s112.5 80.5 140.5 134.5s42 141 42 261v56c-52.667 -66.667 -117 -117.834 -193 -153.501s-156.667 -53.5 -242 -53.5c-100 -0 -194 24.833 -282 74.5
s-156 116.5 -204 200.5s-72 176.333 -72 277s25 194.5 75 281.5s119.167 155.833 207.5 206.5s181.5 76 279.5 76c81.333 0 157.166 -16.833 227.499 -50.5s138.166 -89.167 203.499 -166.5v189zM680.003 981.004c-79.333 0 -153 -19.165 -221 -57.498
s-121.333 -91.333 -160 -159s-58 -140.834 -58 -219.501c0 -119.333 40 -218 120 -296s183.667 -117 311 -117c128.667 0 232.167 38.667 310.5 116s117.5 179 117.5 305c0 82 -18 155.167 -54 219.5s-87 115.166 -153 152.499s-137 56 -213 56zM600.003 1542.01h139
l290 -257h-180l-176 152l-184 -152h-186z" />
    <glyph glyph-name="Gbreve" unicode="&#x11e;" horiz-adv-x="1786" 
d="M1598 1224l-114.002 -108c-82 80.667 -171.833 141.834 -269.5 183.501s-192.834 62.5 -285.501 62.5c-115.333 0 -225.166 -28.333 -329.499 -85s-185.166 -133.5 -242.499 -230.5s-86 -199.5 -86 -307.5c0 -110.667 29.667 -215.834 89 -315.501s141.333 -178 246 -235
s219.334 -85.5 344.001 -85.5c151.333 0 279.333 42.667 384 128s166.667 196 186 332h-469v142h634c-1.33301 -227.333 -68.833 -407.833 -202.5 -541.5s-312.5 -200.5 -536.5 -200.5c-272 0 -487.333 92.667 -646 278c-122 142.667 -183 307.667 -183 495
c0 139.333 35 269 105 389s166 213.833 288 281.5s260 101.5 414 101.5c124.667 0 242 -22.5 352 -67.5s217.333 -117.167 322 -216.5zM537.998 1818h132c22.667 -34.667 53 -60.667 91 -78s83.333 -26 136 -26c53.333 0 96.333 7.66699 129 23s63.667 42.333 93 81h128
c-14.667 -60 -52.167 -110.167 -112.5 -150.5s-139.833 -60.5 -238.5 -60.5c-98 0 -178 19.833 -240 59.5s-101.333 90.167 -118 151.5z" />
    <glyph glyph-name="gbreve" unicode="&#x11f;" horiz-adv-x="1378" 
d="M1093 1088l141.003 0.00390625v-867c0 -152.667 -13.333 -264.334 -40 -335.001c-36.667 -100 -100.334 -177 -191.001 -231s-199.667 -81 -327 -81c-93.333 0 -177.166 13.167 -251.499 39.5s-134.833 61.666 -181.5 105.999s-89.667 109.166 -129 194.499h152
c41.333 -72 94.666 -125.333 159.999 -160s146.333 -52 243 -52c95.333 0 175.833 17.833 241.5 53.5s112.5 80.5 140.5 134.5s42 141 42 261v56c-52.667 -66.667 -117 -117.834 -193 -153.501s-156.667 -53.5 -242 -53.5c-100 -0 -194 24.833 -282 74.5
s-156 116.5 -204 200.5s-72 176.333 -72 277s25 194.5 75 281.5s119.167 155.833 207.5 206.5s181.5 76 279.5 76c81.333 0 157.166 -16.833 227.499 -50.5s138.166 -89.167 203.499 -166.5v189zM680.003 981.004c-79.333 0 -153 -19.165 -221 -57.498
s-121.333 -91.333 -160 -159s-58 -140.834 -58 -219.501c0 -119.333 40 -218 120 -296s183.667 -117 311 -117c128.667 0 232.167 38.667 310.5 116s117.5 179 117.5 305c0 82 -18 155.167 -54 219.5s-87 115.166 -153 152.499s-137 56 -213 56zM335.003 1525.01h132
c22.667 -34.667 53 -60.667 91 -78s83.333 -26 136 -26c53.333 0 96.333 7.66699 129 23s63.667 42.333 93 81h128c-14.667 -60 -52.167 -110.167 -112.5 -150.5s-139.833 -60.5 -238.5 -60.5c-98 0 -178 19.833 -240 59.5s-101.333 90.167 -118 151.5z" />
    <glyph glyph-name="Gdot" unicode="&#x120;" horiz-adv-x="1786" 
d="M1598 1224l-114.002 -108c-82 80.667 -171.833 141.834 -269.5 183.501s-192.834 62.5 -285.501 62.5c-115.333 0 -225.166 -28.333 -329.499 -85s-185.166 -133.5 -242.499 -230.5s-86 -199.5 -86 -307.5c0 -110.667 29.667 -215.834 89 -315.501s141.333 -178 246 -235
s219.334 -85.5 344.001 -85.5c151.333 0 279.333 42.667 384 128s166.667 196 186 332h-469v142h634c-1.33301 -227.333 -68.833 -407.833 -202.5 -541.5s-312.5 -200.5 -536.5 -200.5c-272 0 -487.333 92.667 -646 278c-122 142.667 -183 307.667 -183 495
c0 139.333 35 269 105 389s166 213.833 288 281.5s260 101.5 414 101.5c124.667 0 242 -22.5 352 -67.5s217.333 -117.167 322 -216.5zM912.998 1816c32 0 59.333 -11.333 82 -34s34 -50 34 -82s-11.333 -59.333 -34 -82s-50 -34 -82 -34s-59.333 11.333 -82 34
s-34 50 -34 82s11.333 59.333 34 82s50 34 82 34z" />
    <glyph glyph-name="gdot" unicode="&#x121;" horiz-adv-x="1378" 
d="M1093 1088l141.003 0.00390625v-867c0 -152.667 -13.333 -264.334 -40 -335.001c-36.667 -100 -100.334 -177 -191.001 -231s-199.667 -81 -327 -81c-93.333 0 -177.166 13.167 -251.499 39.5s-134.833 61.666 -181.5 105.999s-89.667 109.166 -129 194.499h152
c41.333 -72 94.666 -125.333 159.999 -160s146.333 -52 243 -52c95.333 0 175.833 17.833 241.5 53.5s112.5 80.5 140.5 134.5s42 141 42 261v56c-52.667 -66.667 -117 -117.834 -193 -153.501s-156.667 -53.5 -242 -53.5c-100 -0 -194 24.833 -282 74.5
s-156 116.5 -204 200.5s-72 176.333 -72 277s25 194.5 75 281.5s119.167 155.833 207.5 206.5s181.5 76 279.5 76c81.333 0 157.166 -16.833 227.499 -50.5s138.166 -89.167 203.499 -166.5v189zM680.003 981.004c-79.333 0 -153 -19.165 -221 -57.498
s-121.333 -91.333 -160 -159s-58 -140.834 -58 -219.501c0 -119.333 40 -218 120 -296s183.667 -117 311 -117c128.667 0 232.167 38.667 310.5 116s117.5 179 117.5 305c0 82 -18 155.167 -54 219.5s-87 115.166 -153 152.499s-137 56 -213 56zM692.003 1518.01
c32 0 59.333 -11.333 82 -34s34 -50 34 -82s-11.333 -59.333 -34 -82s-50 -34 -82 -34s-59.333 11.333 -82 34s-34 50 -34 82s11.333 59.333 34 82s50 34 82 34z" />
    <glyph glyph-name="Gcedilla" unicode="&#x122;" horiz-adv-x="1786" 
d="M1598 1224l-114.002 -108c-82 80.667 -171.833 141.834 -269.5 183.501s-192.834 62.5 -285.501 62.5c-115.333 0 -225.166 -28.333 -329.499 -85s-185.166 -133.5 -242.499 -230.5s-86 -199.5 -86 -307.5c0 -110.667 29.667 -215.834 89 -315.501s141.333 -178 246 -235
s219.334 -85.5 344.001 -85.5c151.333 0 279.333 42.667 384 128s166.667 196 186 332h-469v142h634c-1.33301 -227.333 -68.833 -407.833 -202.5 -541.5s-312.5 -200.5 -536.5 -200.5c-272 0 -487.333 92.667 -646 278c-122 142.667 -183 307.667 -183 495
c0 139.333 35 269 105 389s166 213.833 288 281.5s260 101.5 414 101.5c124.667 0 242 -22.5 352 -67.5s217.333 -117.167 322 -216.5zM871.998 0h88l-17 -118c15.333 2 28 3 38 3c32.667 0 60 -10.167 82 -30.5s33 -45.833 33 -76.5c0 -44 -20 -81.333 -60 -112
s-96.333 -46 -169 -46c-59.333 0 -115 10 -167 30l22 69c42.667 -13.333 82.667 -20 120 -20c50 0 85 6.16699 105 18.5s30 27.833 30 46.5c0 11.333 -5.5 21.333 -16.5 30s-26.167 13 -45.5 13c-16 0 -39.333 -3 -70 -9z" />
    <glyph glyph-name="gcedilla" unicode="&#x123;" horiz-adv-x="1378" 
d="M1093 1088l141.003 0.00390625v-867c0 -152.667 -13.333 -264.334 -40 -335.001c-36.667 -100 -100.334 -177 -191.001 -231s-199.667 -81 -327 -81c-93.333 0 -177.166 13.167 -251.499 39.5s-134.833 61.666 -181.5 105.999s-89.667 109.166 -129 194.499h152
c41.333 -72 94.666 -125.333 159.999 -160s146.333 -52 243 -52c95.333 0 175.833 17.833 241.5 53.5s112.5 80.5 140.5 134.5s42 141 42 261v56c-52.667 -66.667 -117 -117.834 -193 -153.501s-156.667 -53.5 -242 -53.5c-100 -0 -194 24.833 -282 74.5
s-156 116.5 -204 200.5s-72 176.333 -72 277s25 194.5 75 281.5s119.167 155.833 207.5 206.5s181.5 76 279.5 76c81.333 0 157.166 -16.833 227.499 -50.5s138.166 -89.167 203.499 -166.5v189zM680.003 981.004c-79.333 0 -153 -19.165 -221 -57.498
s-121.333 -91.333 -160 -159s-58 -140.834 -58 -219.501c0 -119.333 40 -218 120 -296s183.667 -117 311 -117c128.667 0 232.167 38.667 310.5 116s117.5 179 117.5 305c0 82 -18 155.167 -54 219.5s-87 115.166 -153 152.499s-137 56 -213 56zM679.003 1818.01
l78.001 -43.999c-25.333 -50.667 -42.333 -90.334 -51 -119.001s-15.334 -65.667 -20.001 -111h89v-275h-181v172c0 86 5.83301 153.5 17.5 202.5s34.167 107.167 67.5 174.5z" />
    <glyph glyph-name="Hcircumflex" unicode="&#x124;" horiz-adv-x="1399" 
d="M177 1471h148v-617h748v617h148v-1471h-148v710h-748v-710h-148v1471zM633 1840h139l290 -257h-180l-176 152l-184 -152h-186z" />
    <glyph glyph-name="hcircumflex" unicode="&#x125;" horiz-adv-x="1249" 
d="M156 1508l140 0.000976562v-615c56.667 74.667 119 130.5 187 167.5s141.667 55.5 221 55.5c81.333 0 153.5 -20.667 216.5 -62s109.5 -96.833 139.5 -166.5s45 -178.834 45 -327.501v-560h-140v519c0 125.333 -5 209 -15 251c-17.333 72 -48.833 126.167 -94.5 162.5
s-105.5 54.5 -179.5 54.5c-84.667 0 -160.5 -28 -227.5 -84s-111.167 -125.333 -132.5 -208c-13.333 -53.333 -20 -152 -20 -296v-399h-140v1508zM558 1840h139l290 -257h-180l-176 152l-184 -152h-186z" />
    <glyph glyph-name="Hbar" unicode="&#x126;" horiz-adv-x="1399" 
d="M326 1239h747v232h148v-232h133v-138h-133v-1101h-148v710h-747v-710h-148v1101h-133v138h133v232h148v-232zM326 1101v-247h747v247h-747z" />
    <glyph glyph-name="hbar" unicode="&#x127;" horiz-adv-x="1249" 
d="M296 1356l374.001 -0.00390625v-116h-374v-347c112.667 148.667 248.334 223 407.001 223c94.667 0 175 -26.167 241 -78.5s109.333 -113.666 130 -183.999s31 -168.166 31 -293.499v-560h-140v519c0 126 -6.83301 217.333 -20.5 274s-43.334 103.167 -89.001 139.5
s-105.5 54.5 -179.5 54.5c-64 0 -121.333 -14.667 -172 -44s-92.834 -68.666 -126.501 -117.999s-55.667 -100.166 -66 -152.499s-15.5 -143.5 -15.5 -273.5v-399h-140v1240h-152v116h152v152h140v-152z" />
    <glyph glyph-name="Itilde" unicode="&#x128;" horiz-adv-x="463" 
d="M158 1471h147v-1471h-147v1471zM528 1790l69.999 -97c-48 -34.667 -88.5 -58 -121.5 -70s-67.833 -18 -104.5 -18c-48 0 -97.333 12.333 -148 37c-43.333 21.333 -71 33.666 -83 36.999c-16 4.66699 -33.333 7 -52 7c-23.333 0 -45.5 -4.16699 -66.5 -12.5
s-51.5 -27.166 -91.5 -56.499l-66 102c60.667 64.667 135.667 97 225 97c42.667 0 93.667 -13.333 153 -40c56.667 -26 101.334 -39 134.001 -39c36.667 0 87 17.667 151 53z" />
    <glyph glyph-name="itilde" unicode="&#x129;" horiz-adv-x="410" 
d="M135 1088h141v-1088h-141v1088zM501 1492l69.999 -97c-48 -34.667 -88.5 -58 -121.5 -70s-67.833 -18 -104.5 -18c-48 0 -97.333 12.333 -148 37c-43.333 21.333 -71 33.666 -83 36.999c-16 4.66699 -33.333 7 -52 7c-23.333 0 -45.5 -4.16699 -66.5 -12.5
s-51.5 -27.166 -91.5 -56.499l-66 102c60.667 64.667 135.667 97 225 97c42.667 0 93.667 -13.333 153 -40c56.667 -26 101.334 -39 134.001 -39c36.667 0 87 17.667 151 53z" />
    <glyph glyph-name="Imacron" unicode="&#x12a;" horiz-adv-x="463" 
d="M158 1471h147v-1471h-147v1471zM-113 1776h690v-119h-690v119z" />
    <glyph glyph-name="imacron" unicode="&#x12b;" horiz-adv-x="410" 
d="M135 1088h141v-1088h-141v1088zM-140 1479h690v-119h-690v119z" />
    <glyph glyph-name="Ibreve" unicode="&#x12c;" horiz-adv-x="463" 
d="M158 1471h147v-1471h-147v1471zM-123 1823h132c22.667 -34.667 53 -60.667 91 -78s83.333 -26 136 -26c53.333 0 96.333 7.66699 129 23s63.667 42.333 93 81h128c-14.667 -60 -52.167 -110.167 -112.5 -150.5s-139.833 -60.5 -238.5 -60.5c-98 0 -178 19.833 -240 59.5
s-101.333 90.167 -118 151.5z" />
    <glyph glyph-name="ibreve" unicode="&#x12d;" horiz-adv-x="410" 
d="M135 1088h141v-1088h-141v1088zM-149 1525h132c22.667 -34.667 53 -60.667 91 -78s83.333 -26 136 -26c53.333 0 96.333 7.66699 129 23s63.667 42.333 93 81h128c-14.667 -60 -52.167 -110.167 -112.5 -150.5s-139.833 -60.5 -238.5 -60.5c-98 0 -178 19.833 -240 59.5
s-101.333 90.167 -118 151.5z" />
    <glyph glyph-name="Iogonek" unicode="&#x12e;" horiz-adv-x="463" 
d="M158 1471h147v-1471h-147v1471zM196 0l109 0.000976562c-80.667 -68.667 -121 -133 -121 -193c0 -30.667 12.5 -56.667 37.5 -78s61.167 -32 108.5 -32c19.333 0 42.333 1.66699 69 5l-9 -85c-28 -6.66699 -56.333 -10 -85 -10c-74 0 -130.5 17.667 -169.5 53
s-58.5 77.666 -58.5 126.999c0 86.667 39.667 157.667 119 213z" />
    <glyph glyph-name="iogonek" unicode="&#x12f;" horiz-adv-x="410" 
d="M205 1536c32 0 59.333 -11.333 82 -34s34 -50 34 -82c0 -31.333 -11.333 -58.333 -34 -81s-50 -34 -82 -34c-31.333 0 -58.333 11.333 -81 34s-34 49.667 -34 81c0 32 11.333 59.333 34 82s49.667 34 81 34zM135 1088h141v-1088h-141v1088zM167 0l109 0.000976562
c-80.667 -68.667 -121 -133 -121 -193c0 -30.667 12.5 -56.667 37.5 -78s61.167 -32 108.5 -32c19.333 0 42.333 1.66699 69 5l-9 -85c-28 -6.66699 -56.333 -10 -85 -10c-74 0 -130.5 17.667 -169.5 53s-58.5 77.666 -58.5 126.999c0 86.667 39.667 157.667 119 213z" />
    <glyph glyph-name="Idotaccent" unicode="&#x130;" horiz-adv-x="463" 
d="M158 1471h147v-1471h-147v1471zM232 1811c32 0 59.333 -11.333 82 -34s34 -50 34 -82s-11.333 -59.333 -34 -82s-50 -34 -82 -34s-59.333 11.333 -82 34s-34 50 -34 82s11.333 59.333 34 82s50 34 82 34z" />
    <glyph glyph-name="dotlessi" unicode="&#x131;" horiz-adv-x="410" 
d="M135 1088h141v-1088h-141v1088z" />
    <glyph glyph-name="IJ" unicode="&#x132;" horiz-adv-x="1450" 
d="M158 1471h147v-1471h-147v1471zM1124 1471h147v-993c0 -130.667 -8.5 -228.167 -25.5 -292.5s-54.833 -117.5 -113.5 -159.5s-130.667 -63 -216 -63c-122 0 -244.333 52 -367 156l79 117c126 -90.667 222 -136 288 -136c48.667 0 91 16 127 48s58.5 70.5 67.5 115.5
s13.5 118.167 13.5 219.5v988z" />
    <glyph glyph-name="ij" unicode="&#x133;" horiz-adv-x="825" 
d="M205 1536c32 0 59.333 -11.333 82 -34s34 -49.667 34 -81c0 -32 -11.333 -59.333 -34 -82s-50 -34 -82 -34c-31.333 0 -58.333 11.333 -81 34s-34 50 -34 82c0 32.667 11.5 60 34.5 82s49.833 33 80.5 33zM618 1536c31.333 0 58.333 -11 81 -33s34 -49.333 34 -82
c0 -32 -11.333 -59.333 -34 -82s-49.667 -34 -81 -34s-58.333 11.333 -81 34s-34 50 -34 82c0 32.667 11.333 60 34 82s49.667 33 81 33zM135 1088h141v-1088h-141v1088zM549 1088h141.999v-1252c0 -174.667 -61.667 -262 -185 -262c-49.333 0 -102.666 11.333 -159.999 34
v126c36 -19.333 69.667 -29 101 -29c26 0 47.167 7 63.5 21s26.833 30.167 31.5 48.5s7 52.5 7 102.5v1211z" />
    <glyph glyph-name="Jcircumflex" unicode="&#x134;" horiz-adv-x="987" 
d="M660 1471l147.999 0.00195312v-993c0 -152.667 -11.833 -258.834 -35.5 -318.501s-63.167 -107.334 -118.5 -143.001s-122.333 -53.5 -201 -53.5c-59.333 0 -117.833 11.5 -175.5 34.5s-121.5 63.5 -191.5 121.5l78 117c76.667 -54 140.334 -92 191.001 -114
c33.333 -14.667 66 -22 98 -22c42 0 80.167 12.667 114.5 38s58.333 59 72 101s20.5 123.333 20.5 244v988zM558.999 1840h139l290 -257h-180l-176 152l-184 -152h-186z" />
    <glyph glyph-name="jcircumflex" unicode="&#x135;" horiz-adv-x="416" 
d="M142 1542h139l290 -257h-180l-176 152l-184 -152h-186zM139 1088h142v-1252c0 -174.667 -61.667 -262 -185 -262c-49.333 0 -102.666 11.333 -159.999 34v126c36 -19.333 70 -29 102 -29c25.333 0 46.166 7 62.499 21s26.833 30.167 31.5 48.5s7 52.5 7 102.5v1211z" />
    <glyph glyph-name="Kcedilla" unicode="&#x136;" horiz-adv-x="1210" 
d="M179 1471h150v-552l587 552h199l-707 -660l762 -811h-195l-646 686v-686h-150v1471zM494 -127c30.667 10 62.332 15 94.999 15c104.667 0 157 -36.667 157 -110c0 -46 -20.833 -83.833 -62.5 -113.5s-97.5 -44.5 -167.5 -44.5c-41.333 0 -89.666 7.33301 -144.999 22
l22 71c45.333 -9.33301 80 -14 104 -14c86.667 0 130 21.667 130 65c0 28.667 -24.333 43 -73 43c-18 0 -42 -4.33301 -72 -13z" />
    <glyph glyph-name="kcedilla" unicode="&#x137;" horiz-adv-x="1028" 
d="M155 1508h141v-858l503 438h206l-597 -519l632 -569h-198l-546 489v-489h-141v1508zM419 -127c30.667 10 62.332 15 94.999 15c104.667 0 157 -36.667 157 -110c0 -46 -20.833 -83.833 -62.5 -113.5s-97.5 -44.5 -167.5 -44.5c-41.333 0 -89.666 7.33301 -144.999 22
l22 71c45.333 -9.33301 80 -14 104 -14c86.667 0 130 21.667 130 65c0 28.667 -24.333 43 -73 43c-18 0 -42 -4.33301 -72 -13z" />
    <glyph glyph-name="kgreenlandic" unicode="&#x138;" horiz-adv-x="1028" 
d="M155 1088h141v-438l503 438h206l-597 -519l632 -569h-198l-546 489v-489h-141v1088z" />
    <glyph glyph-name="Lacute" unicode="&#x139;" horiz-adv-x="946" 
d="M179 1471h148v-1329h565v-142h-713v1471zM547 1896h215l-295 -308h-138z" />
    <glyph glyph-name="lacute" unicode="&#x13a;" horiz-adv-x="410" 
d="M135 1508h140v-1508h-140v1508zM297 1895h215l-295 -308h-138z" />
    <glyph glyph-name="Lcedilla" unicode="&#x13b;" horiz-adv-x="946" 
d="M179 1471h148v-1329h565v-142h-713v1471zM408 -127c30.667 10 62.332 15 94.999 15c104.667 0 157 -36.667 157 -110c0 -46 -20.833 -83.833 -62.5 -113.5s-97.5 -44.5 -167.5 -44.5c-41.333 0 -89.666 7.33301 -144.999 22l22 71c45.333 -9.33301 80 -14 104 -14
c86.667 0 130 21.667 130 65c0 28.667 -24.333 43 -73 43c-18 0 -42 -4.33301 -72 -13z" />
    <glyph glyph-name="lcedilla" unicode="&#x13c;" horiz-adv-x="410" 
d="M135 1508h140v-1508h-140v1508zM106 -127c30.667 10 62.332 15 94.999 15c104.667 0 157 -36.667 157 -110c0 -46 -20.833 -83.833 -62.5 -113.5s-97.5 -44.5 -167.5 -44.5c-41.333 0 -89.666 7.33301 -144.999 22l22 71c45.333 -9.33301 80 -14 104 -14
c86.667 0 130 21.667 130 65c0 28.667 -24.333 43 -73 43c-18 0 -42 -4.33301 -72 -13z" />
    <glyph glyph-name="Lcaron" unicode="&#x13d;" horiz-adv-x="946" 
d="M179 1471h148v-1329h565v-142h-713v1471zM558 922l-77 43.999c25.333 50.667 42.333 90.334 51 119.001s15 65.667 19 111h-88v275h181v-172c0 -86 -5.83301 -153.5 -17.5 -202.5s-34.5 -107.167 -68.5 -174.5z" />
    <glyph glyph-name="lcaron" unicode="&#x13e;" horiz-adv-x="422" 
d="M134 1508h140v-1508h-140v1508zM430 1041l-66 38c35.333 69.333 55.333 134.333 60 195h-75v234h153v-146c0 -70.667 -4.5 -127 -13.5 -169s-28.5 -92.667 -58.5 -152z" />
    <glyph glyph-name="Ldot" unicode="&#x13f;" horiz-adv-x="946" 
d="M179 1471h148v-1329h565v-142h-713v1471zM612 870c32 0 59.333 -11.333 82 -34s34 -50 34 -82s-11.333 -59.333 -34 -82s-50 -34 -82 -34s-59.333 11.333 -82 34s-34 50 -34 82s11.333 59.333 34 82s50 34 82 34z" />
    <glyph glyph-name="ldot" unicode="&#x140;" horiz-adv-x="540" 
d="M135 1508h140v-1508h-140v1508zM472 870c32 0 59.333 -11.333 82 -34s34 -50 34 -82s-11.333 -59.333 -34 -82s-50 -34 -82 -34s-59.333 11.333 -82 34s-34 50 -34 82s11.333 59.333 34 82s50 34 82 34z" />
    <glyph glyph-name="Lslash" unicode="&#x141;" horiz-adv-x="1059" 
d="M438 857l266 221v-174l-266 -222v-540h566v-142h-713v559l-202 -168v175l202 168v737h147v-614z" />
    <glyph glyph-name="lslash" unicode="&#x142;" horiz-adv-x="614" 
d="M377 971l200 129v-140l-200 -129v-831h-140v741l-184 -119v140l184 119v627h140v-537z" />
    <glyph glyph-name="Nacute" unicode="&#x143;" horiz-adv-x="1515" 
d="M180 0v1471h32l978 -1126v1126h145v-1471h-33l-970 1112v-1112h-152zM860 1895h215l-295 -308h-138z" />
    <glyph glyph-name="nacute" unicode="&#x144;" horiz-adv-x="1249" 
d="M156 1088h140v-195c56 74.667 118 130.5 186 167.5s142 55.5 222 55.5c81.333 0 153.5 -20.667 216.5 -62s109.5 -97 139.5 -167s45 -179 45 -327v-560h-139v519c0 125.333 -5.33301 209 -16 251c-16.667 72 -48 126.167 -94 162.5s-106 54.5 -180 54.5
c-84.667 0 -160.5 -28 -227.5 -84s-111.167 -125.333 -132.5 -208c-13.333 -54 -20 -152.667 -20 -296v-399h-140v1088zM667 1598h215l-295 -308h-138z" />
    <glyph glyph-name="Ncedilla" unicode="&#x145;" horiz-adv-x="1515" 
d="M180 0v1471h32l978 -1126v1126h145v-1471h-33l-970 1112v-1112h-152zM658 -127c30.667 10 62.332 15 94.999 15c104.667 0 157 -36.667 157 -110c0 -46 -20.833 -83.833 -62.5 -113.5s-97.5 -44.5 -167.5 -44.5c-41.333 0 -89.666 7.33301 -144.999 22l22 71
c45.333 -9.33301 80 -14 104 -14c86.667 0 130 21.667 130 65c0 28.667 -24.333 43 -73 43c-18 0 -42 -4.33301 -72 -13z" />
    <glyph glyph-name="ncedilla" unicode="&#x146;" horiz-adv-x="1249" 
d="M156 1088h140v-195c56 74.667 118 130.5 186 167.5s142 55.5 222 55.5c81.333 0 153.5 -20.667 216.5 -62s109.5 -97 139.5 -167s45 -179 45 -327v-560h-139v519c0 125.333 -5.33301 209 -16 251c-16.667 72 -48 126.167 -94 162.5s-106 54.5 -180 54.5
c-84.667 0 -160.5 -28 -227.5 -84s-111.167 -125.333 -132.5 -208c-13.333 -54 -20 -152.667 -20 -296v-399h-140v1088zM526 -127c30.667 10 62.332 15 94.999 15c104.667 0 157 -36.667 157 -110c0 -46 -20.833 -83.833 -62.5 -113.5s-97.5 -44.5 -167.5 -44.5
c-41.333 0 -89.666 7.33301 -144.999 22l22 71c45.333 -9.33301 80 -14 104 -14c86.667 0 130 21.667 130 65c0 28.667 -24.333 43 -73 43c-18 0 -42 -4.33301 -72 -13z" />
    <glyph glyph-name="Ncaron" unicode="&#x147;" horiz-adv-x="1515" 
d="M180 0v1471h32l978 -1126v1126h145v-1471h-33l-970 1112v-1112h-152zM830 1582h-139l-290 257h180l177 -152l183 152h186z" />
    <glyph glyph-name="ncaron" unicode="&#x148;" horiz-adv-x="1249" 
d="M156 1088h140v-195c56 74.667 118 130.5 186 167.5s142 55.5 222 55.5c81.333 0 153.5 -20.667 216.5 -62s109.5 -97 139.5 -167s45 -179 45 -327v-560h-139v519c0 125.333 -5.33301 209 -16 251c-16.667 72 -48 126.167 -94 162.5s-106 54.5 -180 54.5
c-84.667 0 -160.5 -28 -227.5 -84s-111.167 -125.333 -132.5 -208c-13.333 -54 -20 -152.667 -20 -296v-399h-140v1088zM755 1285h-139l-290 257h180l177 -152l183 152h186z" />
    <glyph glyph-name="napostrophe" unicode="&#x149;" horiz-adv-x="1254" 
d="M161 1088h140v-195c56 74.667 118 130.5 186 167.5s142 55.5 222 55.5c81.333 0 153.5 -20.667 216.5 -62s109.5 -97 139.5 -167s45 -179 45 -327v-560h-139v519c0 125.333 -5.33301 209 -16 251c-16.667 72 -48 126.167 -94 162.5s-106 54.5 -180 54.5
c-84.667 0 -160.5 -28 -227.5 -84s-111.167 -125.333 -132.5 -208c-13.333 -54 -20 -152.667 -20 -296v-399h-140v1088zM26 959l-77 43.999c25.333 50.667 42.333 90.334 51 119.001s15 65.667 19 111h-88v275h181v-172c0 -86 -5.83301 -153.5 -17.5 -202.5
s-34.5 -107.167 -68.5 -174.5z" />
    <glyph glyph-name="Eng" unicode="&#x14a;" horiz-adv-x="1591" 
d="M529 151l105 90.999c68.667 -93.333 156 -140 262 -140c123.333 0 225.166 61.333 305.499 184s120.5 273.667 120.5 453c0 182.667 -51.833 333.334 -155.5 452.001s-231.167 178 -382.5 178c-90.667 0 -176.5 -23.5 -257.5 -70.5s-147.833 -106.833 -200.5 -179.5
v-1119h-148v1471h148v-178c131.333 143.333 291 215 479 215c197.333 0 358.5 -75 483.5 -225s187.5 -335.333 187.5 -556c0 -224 -55.667 -407.333 -167 -550s-250.666 -214 -417.999 -214c-146 0 -266.667 62.667 -362 188z" />
    <glyph glyph-name="eng" unicode="&#x14b;" horiz-adv-x="1249" 
d="M1105 560l0.000976562 -724.001c0 -174.667 -62.333 -262 -187 -262c-48 0 -100.333 11.333 -157 34v126c35.333 -19.333 69 -29 101 -29c26.667 0 48.167 7 64.5 21s27 30.167 32 48.5s7.5 52.5 7.5 102.5v642c0 126 -7 217.333 -21 274s-43.833 103.167 -89.5 139.5
s-105.5 54.5 -179.5 54.5c-64 0 -121.333 -14.667 -172 -44s-92.834 -68.666 -126.501 -117.999s-55.667 -100.166 -66 -152.499s-15.5 -143.5 -15.5 -273.5v-399h-140v1088h140v-195c112 148.667 247.667 223 407 223c94 0 173.833 -25.833 239.5 -77.5
s109.167 -112.834 130.5 -183.501s32 -169 32 -295z" />
    <glyph glyph-name="Omacron" unicode="&#x14c;" horiz-adv-x="1780" 
d="M880 1508c222.667 0 409 -74.333 559 -223s225 -331.667 225 -549c0 -215.333 -74.833 -398 -224.5 -548s-332.167 -225 -547.5 -225c-218 0 -402 74.667 -552 224s-225 330 -225 542c0 141.333 34.167 272.333 102.5 393s161.5 215.167 279.5 283.5
s245.667 102.5 383 102.5zM887 1364c-108.667 0 -211.666 -28.333 -308.999 -85s-173.333 -133 -228 -229s-82 -203 -82 -321c0 -174.667 60.5 -322.167 181.5 -442.5s266.833 -180.5 437.5 -180.5c114 0 219.5 27.667 316.5 83s172.667 131 227 227s81.5 202.667 81.5 320
c0 116.667 -27.167 222.167 -81.5 316.5s-130.833 169.833 -229.5 226.5s-203.334 85 -314.001 85zM545.001 1777h690v-119h-690v119z" />
    <glyph glyph-name="omacron" unicode="&#x14d;" horiz-adv-x="1341" 
d="M671 1116c167.333 0 306.001 -60.668 416.001 -182.001c100 -110.667 150 -241.667 150 -393c0 -152 -52.833 -284.833 -158.5 -398.5s-241.5 -170.5 -407.5 -170.5c-166.667 0 -302.834 56.833 -408.501 170.5s-158.5 246.5 -158.5 398.5
c0 150.667 50 281.334 150 392.001c110 122 249 183 417 183zM671.001 978.999c-116 0 -215.667 -43 -299 -129s-125 -190 -125 -312c0 -78.667 19 -152 57 -220s89.333 -120.5 154 -157.5s135.667 -55.5 213 -55.5s148.333 18.5 213 55.5s116 89.5 154 157.5
s57 141.333 57 220c0 122 -41.833 226 -125.5 312s-183.167 129 -298.5 129zM326.001 1479h690v-119h-690v119z" />
    <glyph glyph-name="Obreve" unicode="&#x14e;" horiz-adv-x="1780" 
d="M880 1508c222.667 0 409 -74.333 559 -223s225 -331.667 225 -549c0 -215.333 -74.833 -398 -224.5 -548s-332.167 -225 -547.5 -225c-218 0 -402 74.667 -552 224s-225 330 -225 542c0 141.333 34.167 272.333 102.5 393s161.5 215.167 279.5 283.5
s245.667 102.5 383 102.5zM887 1364c-108.667 0 -211.666 -28.333 -308.999 -85s-173.333 -133 -228 -229s-82 -203 -82 -321c0 -174.667 60.5 -322.167 181.5 -442.5s266.833 -180.5 437.5 -180.5c114 0 219.5 27.667 316.5 83s172.667 131 227 227s81.5 202.667 81.5 320
c0 116.667 -27.167 222.167 -81.5 316.5s-130.833 169.833 -229.5 226.5s-203.334 85 -314.001 85zM535.001 1823h132c22.667 -34.667 53 -60.667 91 -78s83.333 -26 136 -26c53.333 0 96.333 7.66699 129 23s63.667 42.333 93 81h128
c-14.667 -60 -52.167 -110.167 -112.5 -150.5s-139.833 -60.5 -238.5 -60.5c-98 0 -178 19.833 -240 59.5s-101.333 90.167 -118 151.5z" />
    <glyph glyph-name="obreve" unicode="&#x14f;" horiz-adv-x="1341" 
d="M671 1116c167.333 0 306.001 -60.668 416.001 -182.001c100 -110.667 150 -241.667 150 -393c0 -152 -52.833 -284.833 -158.5 -398.5s-241.5 -170.5 -407.5 -170.5c-166.667 0 -302.834 56.833 -408.501 170.5s-158.5 246.5 -158.5 398.5
c0 150.667 50 281.334 150 392.001c110 122 249 183 417 183zM671.001 978.999c-116 0 -215.667 -43 -299 -129s-125 -190 -125 -312c0 -78.667 19 -152 57 -220s89.333 -120.5 154 -157.5s135.667 -55.5 213 -55.5s148.333 18.5 213 55.5s116 89.5 154 157.5
s57 141.333 57 220c0 122 -41.833 226 -125.5 312s-183.167 129 -298.5 129zM316.001 1525h132c22.667 -34.667 53 -60.667 91 -78s83.333 -26 136 -26c53.333 0 96.333 7.66699 129 23s63.667 42.333 93 81h128c-14.667 -60 -52.167 -110.167 -112.5 -150.5
s-139.833 -60.5 -238.5 -60.5c-98 0 -178 19.833 -240 59.5s-101.333 90.167 -118 151.5z" />
    <glyph glyph-name="Odblacute" unicode="&#x150;" horiz-adv-x="1780" 
d="M880 1508c222.667 0 409 -74.333 559 -223s225 -331.667 225 -549c0 -215.333 -74.833 -398 -224.5 -548s-332.167 -225 -547.5 -225c-218 0 -402 74.667 -552 224s-225 330 -225 542c0 141.333 34.167 272.333 102.5 393s161.5 215.167 279.5 283.5
s245.667 102.5 383 102.5zM887 1364c-108.667 0 -211.666 -28.333 -308.999 -85s-173.333 -133 -228 -229s-82 -203 -82 -321c0 -174.667 60.5 -322.167 181.5 -442.5s266.833 -180.5 437.5 -180.5c114 0 219.5 27.667 316.5 83s172.667 131 227 227s81.5 202.667 81.5 320
c0 116.667 -27.167 222.167 -81.5 316.5s-130.833 169.833 -229.5 226.5s-203.334 85 -314.001 85zM850.001 1896h215l-295 -308h-138zM1166 1896h215l-295 -308h-138z" />
    <glyph glyph-name="odblacute" unicode="&#x151;" horiz-adv-x="1341" 
d="M671 1116c167.333 0 306.001 -60.668 416.001 -182.001c100 -110.667 150 -241.667 150 -393c0 -152 -52.833 -284.833 -158.5 -398.5s-241.5 -170.5 -407.5 -170.5c-166.667 0 -302.834 56.833 -408.501 170.5s-158.5 246.5 -158.5 398.5
c0 150.667 50 281.334 150 392.001c110 122 249 183 417 183zM671.001 978.999c-116 0 -215.667 -43 -299 -129s-125 -190 -125 -312c0 -78.667 19 -152 57 -220s89.333 -120.5 154 -157.5s135.667 -55.5 213 -55.5s148.333 18.5 213 55.5s116 89.5 154 157.5
s57 141.333 57 220c0 122 -41.833 226 -125.5 312s-183.167 129 -298.5 129zM648.001 1598h215l-295 -308h-138zM964.001 1598h215l-295 -308h-138z" />
    <glyph glyph-name="OE" unicode="&#x152;" horiz-adv-x="2445" 
d="M1522 1471l837.999 0.00195312v-145h-689v-457h689v-145h-689v-579h689v-145h-838v285c-66 -84 -128.667 -147.333 -188 -190s-125.666 -75.334 -198.999 -98.001s-153.666 -34 -240.999 -34c-246 0 -445.333 91 -598 273c-121.333 144.667 -182 308.667 -182 492
c0 138.667 34.167 268.667 102.5 390s164.166 216.666 287.499 285.999s254 104 392 104c132 0 258 -34.333 378 -103c95.333 -54.667 178 -127.667 248 -219v285zM890.999 1366c-164.667 0 -308.833 -62.332 -432.5 -186.999s-185.5 -271 -185.5 -439
c0 -176.667 61 -326.5 183 -449.5s271 -184.5 447 -184.5c170 0 315.333 61.5 436 184.5s181 271.833 181 446.5c0 114 -27.667 218.667 -83 314s-133 171.666 -233 228.999s-204.333 86 -313 86z" />
    <glyph glyph-name="oe" unicode="&#x153;" horiz-adv-x="2329" 
d="M2214 531l-976.002 0.00195312c9.33301 -148.667 55.833 -257.5 139.5 -326.5s178.834 -103.5 285.501 -103.5c86.667 0 164.834 22.333 234.501 67s124.167 109 163.5 193l119 -61c-62.667 -115.333 -136.5 -198.833 -221.5 -250.5s-186.5 -77.5 -304.5 -77.5
c-65.333 0 -128.166 10.167 -188.499 30.5s-111.833 47.166 -154.5 80.499s-91 88 -145 164c-60.667 -91.333 -131.834 -160 -213.501 -206s-173.5 -69 -275.5 -69c-156.667 0 -290 56 -400 168s-165 248.667 -165 410c0 180 68.667 325.667 206 437c106 86 226 129 360 129
c108.667 0 208.334 -29.333 299.001 -88c66 -42 129 -108.667 189 -200c56 88.667 115.333 154 178 196c90.667 61.333 195 92 313 92c155.333 0 287.166 -53.833 395.499 -161.5s162.5 -236.834 162.5 -387.501zM671.998 981.002c-74 0 -143.668 -19.168 -209.001 -57.501
s-117 -92.166 -155 -161.499s-57 -142.666 -57 -219.999c0 -78.667 18.833 -152 56.5 -220s90.834 -121.833 159.501 -161.5s140 -59.5 214 -59.5c73.333 0 143.333 19.5 210 58.5s118 91.333 154 157s54 139.167 54 220.5c0 125.333 -41.333 230.666 -124 315.999
s-183.667 128 -303 128zM2061 651.001c-27.333 105.333 -76.999 186.499 -148.999 243.499s-156.667 85.5 -254 85.5c-104.667 0 -196.334 -33.333 -275.001 -100c-60.667 -51.333 -104.667 -127.666 -132 -228.999h810z" />
    <glyph glyph-name="Racute" unicode="&#x154;" horiz-adv-x="1243" 
d="M187 1471h293c163.333 0 274 -6.66699 332 -20c87.333 -20 158.333 -62.833 213 -128.5s82 -146.5 82 -242.5c0 -80 -18.833 -150.333 -56.5 -211s-91.5 -106.5 -161.5 -137.5s-166.667 -46.833 -290 -47.5l529 -684h-182l-528 684h-84v-684h-147v1471zM334 1327
v-499.998l253 -2c98 0 170.5 9.33301 217.5 28s83.667 48.5 110 89.5s39.5 86.833 39.5 137.5c0 49.333 -13.333 94.166 -40 134.499s-61.667 69.166 -105 86.499s-115.333 26 -216 26h-259zM725 1895h215l-295 -308h-138z" />
    <glyph glyph-name="racute" unicode="&#x155;" horiz-adv-x="616" 
d="M103 1088h143.001v-159c42.667 62.667 87.667 109.5 135 140.5s96.666 46.5 147.999 46.5c38.667 0 80 -12.333 124 -37l-73 -118c-29.333 12.667 -54 19 -74 19c-46.667 0 -91.667 -19.167 -135 -57.5s-76.333 -97.833 -99 -178.5c-17.333 -62 -26 -187.333 -26 -376
v-368h-143v1088zM422.001 1598h215l-295 -308h-138z" />
    <glyph glyph-name="Rcedilla" unicode="&#x156;" horiz-adv-x="1243" 
d="M187 1471h293c163.333 0 274 -6.66699 332 -20c87.333 -20 158.333 -62.833 213 -128.5s82 -146.5 82 -242.5c0 -80 -18.833 -150.333 -56.5 -211s-91.5 -106.5 -161.5 -137.5s-166.667 -46.833 -290 -47.5l529 -684h-182l-528 684h-84v-684h-147v1471zM334 1327
v-499.998l253 -2c98 0 170.5 9.33301 217.5 28s83.667 48.5 110 89.5s39.5 86.833 39.5 137.5c0 49.333 -13.333 94.166 -40 134.499s-61.667 69.166 -105 86.499s-115.333 26 -216 26h-259zM504 -126.998c30.667 10 62.332 15 94.999 15c104.667 0 157 -36.667 157 -110
c0 -46 -20.833 -83.833 -62.5 -113.5s-97.5 -44.5 -167.5 -44.5c-41.333 0 -89.666 7.33301 -144.999 22l22 71c45.333 -9.33301 80 -14 104 -14c86.667 0 130 21.667 130 65c0 28.667 -24.333 43 -73 43c-18 0 -42 -4.33301 -72 -13z" />
    <glyph glyph-name="rcedilla" unicode="&#x157;" horiz-adv-x="616" 
d="M103 1088h143.001v-159c42.667 62.667 87.667 109.5 135 140.5s96.666 46.5 147.999 46.5c38.667 0 80 -12.333 124 -37l-73 -118c-29.333 12.667 -54 19 -74 19c-46.667 0 -91.667 -19.167 -135 -57.5s-76.333 -97.833 -99 -178.5c-17.333 -62 -26 -187.333 -26 -376
v-368h-143v1088zM196.001 -127c30.667 10 62.332 15 94.999 15c104.667 0 157 -36.667 157 -110c0 -46 -20.833 -83.833 -62.5 -113.5s-97.5 -44.5 -167.5 -44.5c-41.333 0 -89.666 7.33301 -144.999 22l22 71c45.333 -9.33301 80 -14 104 -14c86.667 0 130 21.667 130 65
c0 28.667 -24.333 43 -73 43c-18 0 -42 -4.33301 -72 -13z" />
    <glyph glyph-name="Rcaron" unicode="&#x158;" horiz-adv-x="1243" 
d="M187 1471h293c163.333 0 274 -6.66699 332 -20c87.333 -20 158.333 -62.833 213 -128.5s82 -146.5 82 -242.5c0 -80 -18.833 -150.333 -56.5 -211s-91.5 -106.5 -161.5 -137.5s-166.667 -46.833 -290 -47.5l529 -684h-182l-528 684h-84v-684h-147v1471zM334 1327
v-499.998l253 -2c98 0 170.5 9.33301 217.5 28s83.667 48.5 110 89.5s39.5 86.833 39.5 137.5c0 49.333 -13.333 94.166 -40 134.499s-61.667 69.166 -105 86.499s-115.333 26 -216 26h-259zM653 1582h-139l-290 257h180l177 -152l183 152h186z" />
    <glyph glyph-name="rcaron" unicode="&#x159;" horiz-adv-x="616" 
d="M103 1088h143.001v-159c42.667 62.667 87.667 109.5 135 140.5s96.666 46.5 147.999 46.5c38.667 0 80 -12.333 124 -37l-73 -118c-29.333 12.667 -54 19 -74 19c-46.667 0 -91.667 -19.167 -135 -57.5s-76.333 -97.833 -99 -178.5c-17.333 -62 -26 -187.333 -26 -376
v-368h-143v1088zM398.001 1285h-139l-290 257h180l177 -152l183 152h186z" />
    <glyph glyph-name="Sacute" unicode="&#x15a;" horiz-adv-x="1020" 
d="M27 274l125.005 75.0029c88 -162 189.667 -243 305 -243c49.333 0 95.666 11.5 138.999 34.5s76.333 53.833 99 92.5s34 79.667 34 123c0 49.333 -16.667 97.666 -50 144.999c-46 65.333 -130 144 -252 236c-122.667 92.667 -199 159.667 -229 201
c-52 69.333 -78 144.333 -78 225c0 64 15.333 122.333 46 175s73.834 94.167 129.501 124.5s116.167 45.5 181.5 45.5c69.333 0 134.166 -17.167 194.499 -51.5s124.166 -97.5 191.499 -189.5l-120 -91c-55.333 73.333 -102.5 121.666 -141.5 144.999s-81.5 35 -127.5 35
c-59.333 0 -107.833 -18 -145.5 -54s-56.5 -80.333 -56.5 -133c0 -32 6.66699 -63 20 -93s37.666 -62.667 72.999 -98c19.333 -18.667 82.666 -67.667 189.999 -147c127.333 -94 214.666 -177.667 261.999 -251s71 -147 71 -221c0 -106.667 -40.5 -199.334 -121.5 -278.001
s-179.5 -118 -295.5 -118c-89.333 0 -170.333 23.833 -243 71.5s-139.667 127.5 -201 239.5zM552.005 1895h215l-295 -308h-138z" />
    <glyph glyph-name="sacute" unicode="&#x15b;" horiz-adv-x="795" 
d="M703 969l-90.001 -93.001c-74.667 72.667 -147.667 109 -219 109c-45.333 0 -84.166 -15 -116.499 -45s-48.5 -65 -48.5 -105c0 -35.333 13.333 -69 40 -101c26.667 -32.667 82.667 -71 168 -115c104 -54 174.667 -106 212 -156c36.667 -50.667 55 -107.667 55 -171
c0 -89.333 -31.333 -165 -94 -227s-141 -93 -235 -93c-62.667 0 -122.5 13.667 -179.5 41s-104.167 65 -141.5 113l88 100c71.333 -80.667 147 -121 227 -121c56 0 103.667 18 143 54s59 78.333 59 127c0 40 -13 75.667 -39 107c-26 30.667 -84.667 69.334 -176 116.001
c-98 50.667 -164.667 100.667 -200 150s-53 105.666 -53 168.999c0 82.667 28.167 151.334 84.5 206.001s127.5 82 213.5 82c100 0 200.667 -49 302 -147zM401.999 1598h215l-295 -308h-138z" />
    <glyph glyph-name="Scircumflex" unicode="&#x15c;" horiz-adv-x="1020" 
d="M27 274l125.005 75.0029c88 -162 189.667 -243 305 -243c49.333 0 95.666 11.5 138.999 34.5s76.333 53.833 99 92.5s34 79.667 34 123c0 49.333 -16.667 97.666 -50 144.999c-46 65.333 -130 144 -252 236c-122.667 92.667 -199 159.667 -229 201
c-52 69.333 -78 144.333 -78 225c0 64 15.333 122.333 46 175s73.834 94.167 129.501 124.5s116.167 45.5 181.5 45.5c69.333 0 134.166 -17.167 194.499 -51.5s124.166 -97.5 191.499 -189.5l-120 -91c-55.333 73.333 -102.5 121.666 -141.5 144.999s-81.5 35 -127.5 35
c-59.333 0 -107.833 -18 -145.5 -54s-56.5 -80.333 -56.5 -133c0 -32 6.66699 -63 20 -93s37.666 -62.667 72.999 -98c19.333 -18.667 82.666 -67.667 189.999 -147c127.333 -94 214.666 -177.667 261.999 -251s71 -147 71 -221c0 -106.667 -40.5 -199.334 -121.5 -278.001
s-179.5 -118 -295.5 -118c-89.333 0 -170.333 23.833 -243 71.5s-139.667 127.5 -201 239.5zM444.005 1840h139l290 -257h-180l-176 152l-184 -152h-186z" />
    <glyph glyph-name="scircumflex" unicode="&#x15d;" horiz-adv-x="795" 
d="M703 969l-90.001 -93.001c-74.667 72.667 -147.667 109 -219 109c-45.333 0 -84.166 -15 -116.499 -45s-48.5 -65 -48.5 -105c0 -35.333 13.333 -69 40 -101c26.667 -32.667 82.667 -71 168 -115c104 -54 174.667 -106 212 -156c36.667 -50.667 55 -107.667 55 -171
c0 -89.333 -31.333 -165 -94 -227s-141 -93 -235 -93c-62.667 0 -122.5 13.667 -179.5 41s-104.167 65 -141.5 113l88 100c71.333 -80.667 147 -121 227 -121c56 0 103.667 18 143 54s59 78.333 59 127c0 40 -13 75.667 -39 107c-26 30.667 -84.667 69.334 -176 116.001
c-98 50.667 -164.667 100.667 -200 150s-53 105.666 -53 168.999c0 82.667 28.167 151.334 84.5 206.001s127.5 82 213.5 82c100 0 200.667 -49 302 -147zM331.999 1542h139l290 -257h-180l-176 152l-184 -152h-186z" />
    <glyph glyph-name="Scedilla" unicode="&#x15e;" horiz-adv-x="1020" 
d="M27 274l125.005 75.0029c88 -162 189.667 -243 305 -243c49.333 0 95.666 11.5 138.999 34.5s76.333 53.833 99 92.5s34 79.667 34 123c0 49.333 -16.667 97.666 -50 144.999c-46 65.333 -130 144 -252 236c-122.667 92.667 -199 159.667 -229 201
c-52 69.333 -78 144.333 -78 225c0 64 15.333 122.333 46 175s73.834 94.167 129.501 124.5s116.167 45.5 181.5 45.5c69.333 0 134.166 -17.167 194.499 -51.5s124.166 -97.5 191.499 -189.5l-120 -91c-55.333 73.333 -102.5 121.666 -141.5 144.999s-81.5 35 -127.5 35
c-59.333 0 -107.833 -18 -145.5 -54s-56.5 -80.333 -56.5 -133c0 -32 6.66699 -63 20 -93s37.666 -62.667 72.999 -98c19.333 -18.667 82.666 -67.667 189.999 -147c127.333 -94 214.666 -177.667 261.999 -251s71 -147 71 -221c0 -106.667 -40.5 -199.334 -121.5 -278.001
s-179.5 -118 -295.5 -118c-89.333 0 -170.333 23.833 -243 71.5s-139.667 127.5 -201 239.5zM429.005 0.00292969h88l-17 -118c15.333 2 28 3 38 3c32.667 0 60 -10.167 82 -30.5s33 -45.833 33 -76.5c0 -44 -20 -81.333 -60 -112s-96.333 -46 -169 -46
c-59.333 0 -115 10 -167 30l22 69c42.667 -13.333 82.667 -20 120 -20c50 0 85 6.16699 105 18.5s30 27.833 30 46.5c0 11.333 -5.5 21.333 -16.5 30s-26.167 13 -45.5 13c-16 0 -39.333 -3 -70 -9z" />
    <glyph glyph-name="scedilla" unicode="&#x15f;" horiz-adv-x="795" 
d="M703 969l-90.001 -93.001c-74.667 72.667 -147.667 109 -219 109c-45.333 0 -84.166 -15 -116.499 -45s-48.5 -65 -48.5 -105c0 -35.333 13.333 -69 40 -101c26.667 -32.667 82.667 -71 168 -115c104 -54 174.667 -106 212 -156c36.667 -50.667 55 -107.667 55 -171
c0 -89.333 -31.333 -165 -94 -227s-141 -93 -235 -93c-62.667 0 -122.5 13.667 -179.5 41s-104.167 65 -141.5 113l88 100c71.333 -80.667 147 -121 227 -121c56 0 103.667 18 143 54s59 78.333 59 127c0 40 -13 75.667 -39 107c-26 30.667 -84.667 69.334 -176 116.001
c-98 50.667 -164.667 100.667 -200 150s-53 105.666 -53 168.999c0 82.667 28.167 151.334 84.5 206.001s127.5 82 213.5 82c100 0 200.667 -49 302 -147zM339.999 -0.000976562h88l-17 -118c15.333 2 28 3 38 3c32.667 0 60 -10.167 82 -30.5s33 -45.833 33 -76.5
c0 -44 -20 -81.333 -60 -112s-96.333 -46 -169 -46c-59.333 0 -115 10 -167 30l22 69c42.667 -13.333 82.667 -20 120 -20c50 0 85 6.16699 105 18.5s30 27.833 30 46.5c0 11.333 -5.5 21.333 -16.5 30s-26.167 13 -45.5 13c-16 0 -39.333 -3 -70 -9z" />
    <glyph glyph-name="Scaron" unicode="&#x160;" horiz-adv-x="1020" 
d="M27 274l125.005 75.0029c88 -162 189.667 -243 305 -243c49.333 0 95.666 11.5 138.999 34.5s76.333 53.833 99 92.5s34 79.667 34 123c0 49.333 -16.667 97.666 -50 144.999c-46 65.333 -130 144 -252 236c-122.667 92.667 -199 159.667 -229 201
c-52 69.333 -78 144.333 -78 225c0 64 15.333 122.333 46 175s73.834 94.167 129.501 124.5s116.167 45.5 181.5 45.5c69.333 0 134.166 -17.167 194.499 -51.5s124.166 -97.5 191.499 -189.5l-120 -91c-55.333 73.333 -102.5 121.666 -141.5 144.999s-81.5 35 -127.5 35
c-59.333 0 -107.833 -18 -145.5 -54s-56.5 -80.333 -56.5 -133c0 -32 6.66699 -63 20 -93s37.666 -62.667 72.999 -98c19.333 -18.667 82.666 -67.667 189.999 -147c127.333 -94 214.666 -177.667 261.999 -251s71 -147 71 -221c0 -106.667 -40.5 -199.334 -121.5 -278.001
s-179.5 -118 -295.5 -118c-89.333 0 -170.333 23.833 -243 71.5s-139.667 127.5 -201 239.5zM576.005 1583h-139l-290 257h180l177 -152l183 152h186z" />
    <glyph glyph-name="scaron" unicode="&#x161;" horiz-adv-x="795" 
d="M703 969l-90.001 -93.001c-74.667 72.667 -147.667 109 -219 109c-45.333 0 -84.166 -15 -116.499 -45s-48.5 -65 -48.5 -105c0 -35.333 13.333 -69 40 -101c26.667 -32.667 82.667 -71 168 -115c104 -54 174.667 -106 212 -156c36.667 -50.667 55 -107.667 55 -171
c0 -89.333 -31.333 -165 -94 -227s-141 -93 -235 -93c-62.667 0 -122.5 13.667 -179.5 41s-104.167 65 -141.5 113l88 100c71.333 -80.667 147 -121 227 -121c56 0 103.667 18 143 54s59 78.333 59 127c0 40 -13 75.667 -39 107c-26 30.667 -84.667 69.334 -176 116.001
c-98 50.667 -164.667 100.667 -200 150s-53 105.666 -53 168.999c0 82.667 28.167 151.334 84.5 206.001s127.5 82 213.5 82c100 0 200.667 -49 302 -147zM462.999 1285h-139l-290 257h180l177 -152l183 152h186z" />
    <glyph glyph-name="Tcedilla" unicode="&#x162;" horiz-adv-x="872" 
d="M33 1328v143h807v-143h-328v-1328h-150v1328h-329zM471 -427l-65 27c21.333 48 33 89.667 35 125h-83v154h157v-51c0 -111.333 -14.667 -196.333 -44 -255z" />
    <glyph glyph-name="tcedilla" unicode="&#x163;" horiz-adv-x="694" 
d="M278 1492h141v-404h222v-120h-222v-968h-141v968h-191v120h191v404zM382 -427l-64.999 27c21.333 48 32.666 89.667 33.999 125h-82v154h156v-51c0 -111.333 -14.333 -196.333 -43 -255z" />
    <glyph glyph-name="Tcaron" unicode="&#x164;" horiz-adv-x="872" 
d="M33 1328v143h807v-143h-328v-1328h-150v1328h-329zM520 1578h-139l-290 257h180l177 -152l183 152h186z" />
    <glyph glyph-name="tcaron" unicode="&#x165;" horiz-adv-x="694" 
d="M592 1163l-59 26.001c35.333 55.333 54 107 56 155h-68v164h138v-103c0 -56.667 -3.66699 -99.834 -11 -129.501s-26 -67.167 -56 -112.5zM278 1492h141v-404h222v-120h-222v-968h-141v968h-191v120h191v404z" />
    <glyph glyph-name="Tbar" unicode="&#x166;" horiz-adv-x="872" 
d="M512 777h280v-138h-280v-639h-150v639h-281v138h281v551h-329v143h807v-143h-328v-551z" />
    <glyph glyph-name="tbar" unicode="&#x167;" horiz-adv-x="694" 
d="M419 607h246v-116h-246v-491h-140v491h-216v116h216v361h-192v120h192v404h140v-404h222v-120h-222v-361z" />
    <glyph glyph-name="Utilde" unicode="&#x168;" horiz-adv-x="1341" 
d="M184 1471h147.001v-888c0 -105.333 2 -171 6 -197c7.33301 -58 24.333 -106.5 51 -145.5s67.667 -71.667 123 -98s111 -39.5 167 -39.5c48.667 0 95.334 10.333 140.001 31s82 49.334 112 86.001s52 81 66 133c10 37.333 15 114 15 230v888h147v-888
c0 -131.333 -12.833 -237.5 -38.5 -318.5s-77 -151.5 -154 -211.5s-170.167 -90 -279.5 -90c-118.667 0 -220.334 28.333 -305.001 85s-141.334 131.667 -170.001 225c-18 57.333 -27 160.666 -27 309.999v888zM975.001 1789l69.999 -97c-48 -34.667 -88.5 -58 -121.5 -70
s-67.833 -18 -104.5 -18c-48 0 -97.333 12.333 -148 37c-43.333 21.333 -71 33.666 -83 36.999c-16 4.66699 -33.333 7 -52 7c-23.333 0 -45.5 -4.16699 -66.5 -12.5s-51.5 -27.166 -91.5 -56.499l-66 102c60.667 64.667 135.667 97 225 97c42.667 0 93.667 -13.333 153 -40
c56.667 -26 101.334 -39 134.001 -39c36.667 0 87 17.667 151 53z" />
    <glyph glyph-name="utilde" unicode="&#x169;" horiz-adv-x="1245" 
d="M138 1088l141 0.000976562v-508c0 -124 6.66699 -209.333 20 -256c20 -66.667 58.167 -119.334 114.5 -158.001s123.5 -58 201.5 -58s144.167 18.833 198.5 56.5s91.833 87.167 112.5 148.5c14 42 21 131 21 267v508h143v-534c0 -150 -17.5 -263 -52.5 -339
s-87.667 -135.5 -158 -178.5s-158.5 -64.5 -264.5 -64.5s-194.5 21.5 -265.5 64.5s-124 103 -159 180s-52.5 192.833 -52.5 347.5v524zM919 1492l69.999 -97c-48 -34.667 -88.5 -58 -121.5 -70s-67.833 -18 -104.5 -18c-48 0 -97.333 12.333 -148 37
c-43.333 21.333 -71 33.666 -83 36.999c-16 4.66699 -33.333 7 -52 7c-23.333 0 -45.5 -4.16699 -66.5 -12.5s-51.5 -27.166 -91.5 -56.499l-66 102c60.667 64.667 135.667 97 225 97c42.667 0 93.667 -13.333 153 -40c56.667 -26 101.334 -39 134.001 -39
c36.667 0 87 17.667 151 53z" />
    <glyph glyph-name="Umacron" unicode="&#x16a;" horiz-adv-x="1341" 
d="M184 1471h147.001v-888c0 -105.333 2 -171 6 -197c7.33301 -58 24.333 -106.5 51 -145.5s67.667 -71.667 123 -98s111 -39.5 167 -39.5c48.667 0 95.334 10.333 140.001 31s82 49.334 112 86.001s52 81 66 133c10 37.333 15 114 15 230v888h147v-888
c0 -131.333 -12.833 -237.5 -38.5 -318.5s-77 -151.5 -154 -211.5s-170.167 -90 -279.5 -90c-118.667 0 -220.334 28.333 -305.001 85s-141.334 131.667 -170.001 225c-18 57.333 -27 160.666 -27 309.999v888zM325.001 1777h690v-119h-690v119z" />
    <glyph glyph-name="umacron" unicode="&#x16b;" horiz-adv-x="1245" 
d="M138 1088l141 0.000976562v-508c0 -124 6.66699 -209.333 20 -256c20 -66.667 58.167 -119.334 114.5 -158.001s123.5 -58 201.5 -58s144.167 18.833 198.5 56.5s91.833 87.167 112.5 148.5c14 42 21 131 21 267v508h143v-534c0 -150 -17.5 -263 -52.5 -339
s-87.667 -135.5 -158 -178.5s-158.5 -64.5 -264.5 -64.5s-194.5 21.5 -265.5 64.5s-124 103 -159 180s-52.5 192.833 -52.5 347.5v524zM277 1479h690v-119h-690v119z" />
    <glyph glyph-name="Ubreve" unicode="&#x16c;" horiz-adv-x="1341" 
d="M184 1471h147.001v-888c0 -105.333 2 -171 6 -197c7.33301 -58 24.333 -106.5 51 -145.5s67.667 -71.667 123 -98s111 -39.5 167 -39.5c48.667 0 95.334 10.333 140.001 31s82 49.334 112 86.001s52 81 66 133c10 37.333 15 114 15 230v888h147v-888
c0 -131.333 -12.833 -237.5 -38.5 -318.5s-77 -151.5 -154 -211.5s-170.167 -90 -279.5 -90c-118.667 0 -220.334 28.333 -305.001 85s-141.334 131.667 -170.001 225c-18 57.333 -27 160.666 -27 309.999v888zM316.001 1823h132c22.667 -34.667 53 -60.667 91 -78
s83.333 -26 136 -26c53.333 0 96.333 7.66699 129 23s63.667 42.333 93 81h128c-14.667 -60 -52.167 -110.167 -112.5 -150.5s-139.833 -60.5 -238.5 -60.5c-98 0 -178 19.833 -240 59.5s-101.333 90.167 -118 151.5z" />
    <glyph glyph-name="ubreve" unicode="&#x16d;" horiz-adv-x="1245" 
d="M138 1088l141 0.000976562v-508c0 -124 6.66699 -209.333 20 -256c20 -66.667 58.167 -119.334 114.5 -158.001s123.5 -58 201.5 -58s144.167 18.833 198.5 56.5s91.833 87.167 112.5 148.5c14 42 21 131 21 267v508h143v-534c0 -150 -17.5 -263 -52.5 -339
s-87.667 -135.5 -158 -178.5s-158.5 -64.5 -264.5 -64.5s-194.5 21.5 -265.5 64.5s-124 103 -159 180s-52.5 192.833 -52.5 347.5v524zM268 1525h132c22.667 -34.667 53 -60.667 91 -78s83.333 -26 136 -26c53.333 0 96.333 7.66699 129 23s63.667 42.333 93 81h128
c-14.667 -60 -52.167 -110.167 -112.5 -150.5s-139.833 -60.5 -238.5 -60.5c-98 0 -178 19.833 -240 59.5s-101.333 90.167 -118 151.5z" />
    <glyph glyph-name="Uring" unicode="&#x16e;" horiz-adv-x="1341" 
d="M184 1471h147.001v-888c0 -105.333 2 -171 6 -197c7.33301 -58 24.333 -106.5 51 -145.5s67.667 -71.667 123 -98s111 -39.5 167 -39.5c48.667 0 95.334 10.333 140.001 31s82 49.334 112 86.001s52 81 66 133c10 37.333 15 114 15 230v888h147v-888
c0 -131.333 -12.833 -237.5 -38.5 -318.5s-77 -151.5 -154 -211.5s-170.167 -90 -279.5 -90c-118.667 0 -220.334 28.333 -305.001 85s-141.334 131.667 -170.001 225c-18 57.333 -27 160.666 -27 309.999v888zM633.001 1989c58.667 0 108.832 -20.833 150.499 -62.5
s62.5 -92.167 62.5 -151.5c0 -58.667 -20.667 -108.834 -62 -150.501s-91.666 -62.5 -150.999 -62.5c-58.667 0 -108.834 20.833 -150.501 62.5s-62.5 91.834 -62.5 150.501c0 59.333 20.833 109.833 62.5 151.5s91.834 62.5 150.501 62.5zM631.999 1888
c-30.667 0 -56.667 -10.833 -78 -32.5s-32 -47.5 -32 -77.5s10.667 -55.833 32 -77.5s47.333 -32.5 78 -32.5c30 0 55.667 10.833 77 32.5s32 47.5 32 77.5s-10.667 55.833 -32 77.5s-47 32.5 -77 32.5z" />
    <glyph glyph-name="uring" unicode="&#x16f;" horiz-adv-x="1245" 
d="M138 1088l141 0.000976562v-508c0 -124 6.66699 -209.333 20 -256c20 -66.667 58.167 -119.334 114.5 -158.001s123.5 -58 201.5 -58s144.167 18.833 198.5 56.5s91.833 87.167 112.5 148.5c14 42 21 131 21 267v508h143v-534c0 -150 -17.5 -263 -52.5 -339
s-87.667 -135.5 -158 -178.5s-158.5 -64.5 -264.5 -64.5s-194.5 21.5 -265.5 64.5s-124 103 -159 180s-52.5 192.833 -52.5 347.5v524zM584 1691c58.667 0 108.832 -20.833 150.499 -62.5s62.5 -92.167 62.5 -151.5c0 -58.667 -20.667 -108.834 -62 -150.501
s-91.666 -62.5 -150.999 -62.5c-58.667 0 -108.834 20.833 -150.501 62.5s-62.5 91.834 -62.5 150.501c0 59.333 20.833 109.833 62.5 151.5s91.834 62.5 150.501 62.5zM582.998 1590c-30.667 0 -56.667 -10.833 -78 -32.5s-32 -47.5 -32 -77.5s10.667 -55.833 32 -77.5
s47.333 -32.5 78 -32.5c30 0 55.667 10.833 77 32.5s32 47.5 32 77.5s-10.667 55.833 -32 77.5s-47 32.5 -77 32.5z" />
    <glyph glyph-name="Udblacute" unicode="&#x170;" horiz-adv-x="1341" 
d="M184 1471h147.001v-888c0 -105.333 2 -171 6 -197c7.33301 -58 24.333 -106.5 51 -145.5s67.667 -71.667 123 -98s111 -39.5 167 -39.5c48.667 0 95.334 10.333 140.001 31s82 49.334 112 86.001s52 81 66 133c10 37.333 15 114 15 230v888h147v-888
c0 -131.333 -12.833 -237.5 -38.5 -318.5s-77 -151.5 -154 -211.5s-170.167 -90 -279.5 -90c-118.667 0 -220.334 28.333 -305.001 85s-141.334 131.667 -170.001 225c-18 57.333 -27 160.666 -27 309.999v888zM648.001 1896h215l-295 -308h-138zM964.001 1896h215
l-295 -308h-138z" />
    <glyph glyph-name="udblacute" unicode="&#x171;" horiz-adv-x="1245" 
d="M138 1088l141 0.000976562v-508c0 -124 6.66699 -209.333 20 -256c20 -66.667 58.167 -119.334 114.5 -158.001s123.5 -58 201.5 -58s144.167 18.833 198.5 56.5s91.833 87.167 112.5 148.5c14 42 21 131 21 267v508h143v-534c0 -150 -17.5 -263 -52.5 -339
s-87.667 -135.5 -158 -178.5s-158.5 -64.5 -264.5 -64.5s-194.5 21.5 -265.5 64.5s-124 103 -159 180s-52.5 192.833 -52.5 347.5v524zM599 1598h215l-295 -308h-138zM915 1598h215l-295 -308h-138z" />
    <glyph glyph-name="Uogonek" unicode="&#x172;" horiz-adv-x="1341" 
d="M184 1471h147.001v-888c0 -105.333 2 -171 6 -197c7.33301 -58 24.333 -106.5 51 -145.5s67.667 -71.667 123 -98s111 -39.5 167 -39.5c48.667 0 95.334 10.333 140.001 31s82 49.334 112 86.001s52 81 66 133c10 37.333 15 114 15 230v888h147v-888
c0 -131.333 -12.833 -237.5 -38.5 -318.5s-77 -151.5 -154 -211.5s-170.167 -90 -279.5 -90c-118.667 0 -220.334 28.333 -305.001 85s-141.334 131.667 -170.001 225c-18 57.333 -27 160.666 -27 309.999v888zM680.001 0l109 0.000976562
c-80.667 -68.667 -121 -133 -121 -193c0 -30.667 12.5 -56.667 37.5 -78s61.167 -32 108.5 -32c19.333 0 42.333 1.66699 69 5l-9 -85c-28 -6.66699 -56.333 -10 -85 -10c-74 0 -130.5 17.667 -169.5 53s-58.5 77.666 -58.5 126.999c0 86.667 39.667 157.667 119 213z" />
    <glyph glyph-name="uogonek" unicode="&#x173;" horiz-adv-x="1245" 
d="M138 1088l141 0.000976562v-508c0 -124 6.66699 -209.333 20 -256c20 -66.667 58.167 -119.334 114.5 -158.001s123.5 -58 201.5 -58s144.167 18.833 198.5 56.5s91.833 87.167 112.5 148.5c14 42 21 131 21 267v508h143v-534c0 -150 -17.5 -263 -52.5 -339
s-87.667 -135.5 -158 -178.5s-158.5 -64.5 -264.5 -64.5s-194.5 21.5 -265.5 64.5s-124 103 -159 180s-52.5 192.833 -52.5 347.5v524zM601 0.000976562l109 0.000976562c-80.667 -68.667 -121 -133 -121 -193c0 -30.667 12.5 -56.667 37.5 -78s61.167 -32 108.5 -32
c19.333 0 42.333 1.66699 69 5l-9 -85c-28 -6.66699 -56.333 -10 -85 -10c-74 0 -130.5 17.667 -169.5 53s-58.5 77.666 -58.5 126.999c0 86.667 39.667 157.667 119 213z" />
    <glyph glyph-name="Wcircumflex" unicode="&#x174;" horiz-adv-x="1966" 
d="M96 1471h151l299 -1060l422 1060h30l417 -1060l305 1060h150l-422 -1471h-28l-436 1113l-445 -1113h-28zM917 1840h139l290 -257h-180l-176 152l-184 -152h-186z" />
    <glyph glyph-name="wcircumflex" unicode="&#x175;" horiz-adv-x="1702" 
d="M9 1088h144l333 -790l349 790h25l348 -790l339 790h146l-472 -1088h-27l-346 779l-349 -779h-26zM785 1542h139l290 -257h-180l-176 152l-184 -152h-186z" />
    <glyph glyph-name="Ycircumflex" unicode="&#x176;" horiz-adv-x="1212" 
d="M63 1471h170l376 -606l370 606h170l-466 -768v-703h-145v703zM540 1840h139l290 -257h-180l-176 152l-184 -152h-186z" />
    <glyph glyph-name="ycircumflex" unicode="&#x177;" horiz-adv-x="1098" 
d="M39 1088h148l374 -838l363 838h149l-649 -1486h-148l210 480zM483 1542h139l290 -257h-180l-176 152l-184 -152h-186z" />
    <glyph glyph-name="Ydieresis" unicode="&#x178;" horiz-adv-x="1212" 
d="M63 1471h170l376 -606l370 606h170l-466 -768v-703h-145v703zM402 1816c32 0 59.333 -11.333 82 -34s34 -50 34 -82s-11.333 -59.333 -34 -82s-50 -34 -82 -34s-59.333 11.333 -82 34s-34 50 -34 82s11.333 59.333 34 82s50 34 82 34zM810 1816
c32 0 59.333 -11.333 82 -34s34 -50 34 -82s-11.333 -59.333 -34 -82s-50 -34 -82 -34s-59.333 11.333 -82 34s-34 50 -34 82s11.333 59.333 34 82s50 34 82 34z" />
    <glyph glyph-name="Zacute" unicode="&#x179;" horiz-adv-x="983" 
d="M122 1329v142h776l-615 -1328h584v-143h-811l619 1329h-553zM527 1895h215l-295 -308h-138z" />
    <glyph glyph-name="zacute" unicode="&#x17a;" horiz-adv-x="870" 
d="M67 1088h799l-616 -964h596v-124h-837l616 965h-558v123zM532 1598h215l-295 -308h-138z" />
    <glyph glyph-name="Zdot" unicode="&#x17b;" horiz-adv-x="983" 
d="M122 1329v142h776l-615 -1328h584v-143h-811l619 1329h-553zM453 1815c32 0 59.333 -11.333 82 -34s34 -50 34 -82s-11.333 -59.333 -34 -82s-50 -34 -82 -34s-59.333 11.333 -82 34s-34 50 -34 82s11.333 59.333 34 82s50 34 82 34z" />
    <glyph glyph-name="zdot" unicode="&#x17c;" horiz-adv-x="870" 
d="M67 1088h799l-616 -964h596v-124h-837l616 965h-558v123zM403 1518c32 0 59.333 -11.333 82 -34s34 -50 34 -82s-11.333 -59.333 -34 -82s-50 -34 -82 -34s-59.333 11.333 -82 34s-34 50 -34 82s11.333 59.333 34 82s50 34 82 34z" />
    <glyph glyph-name="Zcaron" unicode="&#x17d;" horiz-adv-x="983" 
d="M122 1329v142h776l-615 -1328h584v-143h-811l619 1329h-553zM558 1583h-139l-290 257h180l177 -152l183 152h186z" />
    <glyph glyph-name="zcaron" unicode="&#x17e;" horiz-adv-x="870" 
d="M67 1088h799l-616 -964h596v-124h-837l616 965h-558v123zM501 1285h-139l-290 257h180l177 -152l183 152h186z" />
    <glyph glyph-name="longs" unicode="&#x17f;" horiz-adv-x="410" 
d="M517 1508l-0.000976562 -137.004c-49.333 22 -93.333 33 -132 33c-29.333 0 -53.833 -6.66699 -73.5 -20s-30.667 -30.166 -33 -50.499s-3.5 -53.166 -3.5 -98.499v-1235h-140v1198c0 100.667 4.5 168.834 13.5 204.501s31.333 66.834 67 93.501s81.834 40 138.501 40
c48 0 102.333 -9.33301 163 -28z" />
    <glyph glyph-name="florin" unicode="&#x192;" horiz-adv-x="1135" 
d="M621 882l231 -0.00195312l-17 -122h-233l-107 -710c-19.333 -130.667 -44 -227.667 -74 -291s-66.833 -110 -110.5 -140s-89.167 -45 -136.5 -45c-45.333 0 -92.666 16.333 -141.999 49l18 124c36.667 -30 73.667 -45 111 -45c47.333 0 88.166 24.333 122.499 73
s62.166 147.334 83.499 296.001l101 689h-141l17 122h141l49 319c18.667 122.667 40.334 202.334 65.001 239.001c44 64 99.333 96 166 96c55.333 0 114.333 -21.667 177 -65l-18 -133c-51.333 48.667 -97.666 73 -138.999 73c-32.667 0 -57.834 -15.167 -75.501 -45.5
s-33.167 -93.5 -46.5 -189.5z" />
    <glyph glyph-name="Aringacute" unicode="&#x1fa;" horiz-adv-x="1515" 
d="M780 1471l686 -1471h-158l-231 484h-634l-230 -484h-164l695 1471h36zM762 1159l-253 -533h503zM762 1822c58.667 0 108.832 -20.833 150.499 -62.5s62.5 -92.167 62.5 -151.5c0 -58.667 -20.667 -108.834 -62 -150.501s-91.666 -62.5 -150.999 -62.5
c-58.667 0 -108.834 20.833 -150.501 62.5s-62.5 91.834 -62.5 150.501c0 59.333 20.833 109.833 62.5 151.5s91.834 62.5 150.501 62.5zM760.998 1721c-30.667 0 -56.667 -10.833 -78 -32.5s-32 -47.5 -32 -77.5s10.667 -55.833 32 -77.5s47.333 -32.5 78 -32.5
c30 0 55.667 10.833 77 32.5s32 47.5 32 77.5s-10.667 55.833 -32 77.5s-47 32.5 -77 32.5zM799.998 2170h215l-295 -308h-138z" />
    <glyph glyph-name="aringacute" unicode="&#x1fb;" horiz-adv-x="1399" 
d="M1240 1088l0.000976562 -1088h-138v187c-58.667 -71.333 -124.5 -125 -197.5 -161s-152.833 -54 -239.5 -54c-154 0 -285.5 55.833 -394.5 167.5s-163.5 247.5 -163.5 407.5c0 156.667 55 290.667 165 402s242.333 167 397 167c89.333 0 170.166 -19 242.499 -57
s135.833 -95 190.5 -171v200h138zM680.001 981c-78 0 -150 -19.1689 -216 -57.502s-118.5 -92.166 -157.5 -161.499s-58.5 -142.666 -58.5 -219.999c0 -76.667 19.667 -150 59 -220s92.166 -124.5 158.499 -163.5s137.5 -58.5 213.5 -58.5
c76.667 0 149.334 19.333 218.001 58s121.5 91 158.5 157s55.5 140.333 55.5 223c0 126 -41.5 231.333 -124.5 316s-185.167 127 -306.5 127zM701.001 1650c58.667 0 108.832 -20.833 150.499 -62.5s62.5 -92.167 62.5 -151.5c0 -58.667 -20.667 -108.834 -62 -150.501
s-91.666 -62.5 -150.999 -62.5c-58.667 0 -108.834 20.833 -150.501 62.5s-62.5 91.834 -62.5 150.501c0 59.333 20.833 109.833 62.5 151.5s91.834 62.5 150.501 62.5zM699.999 1549c-30.667 0 -56.667 -10.833 -78 -32.5s-32 -47.5 -32 -77.5s10.667 -55.833 32 -77.5
s47.333 -32.5 78 -32.5c30 0 55.667 10.833 77 32.5s32 47.5 32 77.5s-10.667 55.833 -32 77.5s-47 32.5 -77 32.5zM744.999 1998h215l-295 -308h-138z" />
    <glyph glyph-name="AEacute" unicode="&#x1fc;" horiz-adv-x="2032" 
d="M1 0l950 1471h910v-151h-693v-452h693v-145h-693v-579h693v-144h-842v482h-535l-312 -482h-171zM578 620h441v681zM1299 1895h215l-295 -308h-138z" />
    <glyph glyph-name="aeacute" unicode="&#x1fd;" horiz-adv-x="2370" 
d="M1245 1088l0.000976562 -197.003c70.667 84.667 139 143.334 205 176.001s143.333 49 232 49c164 0 299.5 -54.833 406.5 -164.5s160.167 -250.167 159.5 -421.5h-979c2.66699 -77.333 23.334 -150.333 62.001 -219s89.834 -121 153.501 -157s134.167 -54 211.5 -54
c83.333 0 158 20.5 224 61.5s123.667 106.167 173 195.5l120 -60c-49.333 -103.333 -120.333 -183.333 -213 -240s-197.334 -85 -314.001 -85c-102.667 0 -194.334 23 -275.001 69c-58 32.667 -113.333 83.667 -166 153v-194h-128v201c-59.333 -74 -117 -127 -173 -159
c-80 -46.667 -167.667 -70 -263 -70c-154 0 -286 55.833 -396 167.5s-165 247.834 -165 408.501c0 104 24.667 199.167 74 285.5s117.666 155 204.999 206s180 76.5 278 76.5c94 0 182 -23 264 -69c58 -33.333 116.667 -85.666 176 -156.999v198h128zM2093 650.997
c-18.667 76 -45.667 136.332 -81 180.999s-82.333 80.834 -141 108.501s-119 41.5 -181 41.5c-63.333 0 -124.833 -14.167 -184.5 -42.5s-108.5 -66 -146.5 -113s-65.333 -105.5 -82 -175.5h816zM687.001 980.996c-76 0 -147.168 -19 -213.501 -57s-118 -90.5 -155 -157.5
s-55.5 -141.167 -55.5 -222.5c0 -125.333 41.333 -229.833 124 -313.5s184.334 -125.5 305.001 -125.5s222.167 41.5 304.5 124.5s123.5 187.167 123.5 312.5c0 87.333 -17.833 163.333 -53.5 228s-87.667 116 -156 154s-142.833 57 -223.5 57zM1252 1598h215l-295 -308
h-138z" />
    <glyph glyph-name="Oslashacute" unicode="&#x1fe;" horiz-adv-x="1778" 
d="M1454 1269c66.667 -68 118.166 -147.5 154.499 -238.5s54.5 -189.167 54.5 -294.5c0 -215.333 -74.833 -398 -224.5 -548s-332.167 -225 -547.5 -225c-163.333 0 -309 42.667 -437 128l-164 -194l-107 87l165 194c-156 151.333 -234 335 -234 551
c0 141.333 34.333 272.5 103 393.5s162.334 215.5 281.001 283.5s249 102 391 102c171.333 0 327 -49.333 467 -148l144 174l105 -87zM443.999 291l811 954c-112.667 79.333 -235.667 119 -369 119c-108.667 0 -211.667 -28.333 -309 -85s-173.333 -133 -228 -229
s-82 -203.333 -82 -322c0 -170 59 -315.667 177 -437zM1356 1153l-805 -949c101.333 -65.333 213 -98 335 -98c114 0 219.5 27.667 316.5 83s172.667 131 227 227s81.5 202.667 81.5 320c0 162.667 -51.667 301.667 -155 417zM956.999 1896h215l-295 -308h-138z" />
    <glyph glyph-name="oslashacute" unicode="&#x1ff;" horiz-adv-x="1337" 
d="M1102 913c88.667 -107.333 133 -231.333 133 -372c0 -152 -52.833 -284.833 -158.5 -398.5s-241.5 -170.5 -407.5 -170.5c-109.333 0 -209 27.333 -299 82l-116 -137l-89 74l114 134c-118 114 -177 252.667 -177 416c0 152 52.667 285.833 158 401.5
s241.333 173.5 408 173.5c134 0 251 -40 351 -120l116 137l92 -74zM367 229l560.001 658c-78.667 61.333 -164.667 92 -258 92c-74 0 -143.833 -19.5 -209.5 -58.5s-117.834 -93 -156.501 -162s-58 -142.5 -58 -220.5c0 -57.333 10.833 -113.5 32.5 -168.5
s51.5 -101.833 89.5 -140.5zM1007 802l-548.001 -644c68.667 -35.333 138.334 -53 209.001 -53c77.333 0 148.5 18.5 213.5 55.5s116.5 89.5 154.5 157.5s57 141 57 219c0 96 -28.667 184.333 -86 265zM730 1598h215l-295 -308h-138z" />
    <glyph glyph-name="circumflex" unicode="&#x2c6;" horiz-adv-x="1028" 
d="M448 1542h139l290 -257h-180l-176 152l-184 -152h-186z" />
    <glyph glyph-name="caron" unicode="&#x2c7;" horiz-adv-x="1028" 
d="M580 1285h-139l-290 257h180l177 -152l183 152h186z" />
    <glyph glyph-name="macron" unicode="&#x2c9;" horiz-adv-x="993" 
d="M152 1479h690v-119h-690v119z" />
    <glyph glyph-name="breve" unicode="&#x2d8;" horiz-adv-x="928" 
d="M110 1525h132c22.667 -34.667 53 -60.667 91 -78s83.333 -26 136 -26c53.333 0 96.333 7.66699 129 23s63.667 42.333 93 81h128c-14.667 -60 -52.167 -110.167 -112.5 -150.5s-139.833 -60.5 -238.5 -60.5c-98 0 -178 19.833 -240 59.5s-101.333 90.167 -118 151.5z" />
    <glyph glyph-name="dotaccent" unicode="&#x2d9;" horiz-adv-x="455" 
d="M228 1518c32 0 59.333 -11.333 82 -34s34 -50 34 -82s-11.333 -59.333 -34 -82s-50 -34 -82 -34s-59.333 11.333 -82 34s-34 50 -34 82s11.333 59.333 34 82s50 34 82 34z" />
    <glyph glyph-name="ring" unicode="&#x2da;" horiz-adv-x="680" 
d="M340 1691c58.667 0 108.832 -20.833 150.499 -62.5s62.5 -92.167 62.5 -151.5c0 -58.667 -20.667 -108.834 -62 -150.501s-91.666 -62.5 -150.999 -62.5c-58.667 0 -108.834 20.833 -150.501 62.5s-62.5 91.834 -62.5 150.501c0 59.333 20.833 109.833 62.5 151.5
s91.834 62.5 150.501 62.5zM338.998 1590c-30.667 0 -56.667 -10.833 -78 -32.5s-32 -47.5 -32 -77.5s10.667 -55.833 32 -77.5s47.333 -32.5 78 -32.5c30 0 55.667 10.833 77 32.5s32 47.5 32 77.5s-10.667 55.833 -32 77.5s-47 32.5 -77 32.5z" />
    <glyph glyph-name="ogonek" unicode="&#x2db;" horiz-adv-x="618" 
d="M309 0l109 0.000976562c-80.667 -68.667 -121 -133 -121 -193c0 -30.667 12.5 -56.667 37.5 -78s61.167 -32 108.5 -32c19.333 0 42.333 1.66699 69 5l-9 -85c-28 -6.66699 -56.333 -10 -85 -10c-74 0 -130.5 17.667 -169.5 53s-58.5 77.666 -58.5 126.999
c0 86.667 39.667 157.667 119 213z" />
    <glyph glyph-name="tilde" unicode="&#x2dc;" horiz-adv-x="899" 
d="M746 1492l69.999 -97c-48 -34.667 -88.5 -58 -121.5 -70s-67.833 -18 -104.5 -18c-48 0 -97.333 12.333 -148 37c-43.333 21.333 -71 33.666 -83 36.999c-16 4.66699 -33.333 7 -52 7c-23.333 0 -45.5 -4.16699 -66.5 -12.5s-51.5 -27.166 -91.5 -56.499l-66 102
c60.667 64.667 135.667 97 225 97c42.667 0 93.667 -13.333 153 -40c56.667 -26 101.334 -39 134.001 -39c36.667 0 87 17.667 151 53z" />
    <glyph glyph-name="hungarumlaut" unicode="&#x2dd;" horiz-adv-x="1130" 
d="M475 1598h215l-295 -308h-138zM791 1598h215l-295 -308h-138z" />
    <glyph glyph-name="tonos" unicode="&#x384;" horiz-adv-x="774" 
d="M474 1598l-28 -338h-118l-29 338h175z" />
    <glyph glyph-name="dieresistonos" unicode="&#x385;" horiz-adv-x="774" 
d="M474 1598l-28 -338h-118l-29 338h175zM633 1291c-24.667 0 -45.667 8.66699 -63 26s-26 38.333 -26 63c0 25.333 8.66699 46.5 26 63.5s38.333 25.5 63 25.5s45.5 -8.66699 62.5 -26s25.5 -38.333 25.5 -63s-8.5 -45.667 -25.5 -63s-37.833 -26 -62.5 -26zM141 1291
c-24.667 0 -45.667 8.66699 -63 26s-26 38.333 -26 63s8.66699 45.667 26 63s38.333 26 63 26s45.667 -8.5 63 -25.5s26 -38.167 26 -63.5c0 -24.667 -8.66699 -45.667 -26 -63s-38.333 -26 -63 -26z" />
    <glyph glyph-name="Alphatonos" unicode="&#x386;" horiz-adv-x="1515" 
d="M780 1471l686 -1471h-158l-231 484h-634l-230 -484h-164l695 1471h36zM762 1159l-253 -533h503zM424 1508l-28 -338h-118l-29 338h175z" />
    <glyph glyph-name="anoteleia" unicode="&#x387;" horiz-adv-x="567" 
d="M433 992c0 -34.667 -11.833 -64 -35.5 -88s-52.834 -36 -87.501 -36s-63.834 12 -87.501 36s-35.5 53.333 -35.5 88s11.833 64 35.5 88s52.834 36 87.501 36s63.834 -12 87.501 -36s35.5 -53.333 35.5 -88z" />
    <glyph glyph-name="Epsilontonos" unicode="&#x388;" horiz-adv-x="1188" 
d="M270 1471h843v-145h-696v-460h690v-144h-690v-577h690v-145h-837v1471zM75 1508l-28 -338h-118l-29 338h175z" />
    <glyph glyph-name="Etatonos" unicode="&#x389;" horiz-adv-x="1489" 
d="M267 1471h148v-617h748v617h148v-1471h-148v710h-748v-710h-148v1471zM75 1508l-28 -338h-118l-29 338h175z" />
    <glyph glyph-name="Iotatonos" unicode="&#x38a;" horiz-adv-x="553" 
d="M248 1471h147v-1471h-147v1471zM75 1508l-28 -338h-118l-29 338h175z" />
    <glyph glyph-name="Omicrontonos" unicode="&#x38c;" horiz-adv-x="1780" 
d="M880 1508c222.667 0 409 -74.333 559 -223s225 -331.667 225 -549c0 -215.333 -74.833 -398 -224.5 -548s-332.167 -225 -547.5 -225c-218 0 -402 74.667 -552 224s-225 330 -225 542c0 141.333 34.167 272.333 102.5 393s161.5 215.167 279.5 283.5
s245.667 102.5 383 102.5zM887 1364c-108.667 0 -211.666 -28.333 -308.999 -85s-173.333 -133 -228 -229s-82 -203 -82 -321c0 -174.667 60.5 -322.167 181.5 -442.5s266.833 -180.5 437.5 -180.5c114 0 219.5 27.667 316.5 83s172.667 131 227 227s81.5 202.667 81.5 320
c0 116.667 -27.167 222.167 -81.5 316.5s-130.833 169.833 -229.5 226.5s-203.334 85 -314.001 85zM75.001 1508l-28 -338h-118l-29 338h175z" />
    <glyph glyph-name="Upsilontonos" unicode="&#x38e;" horiz-adv-x="1322" 
d="M173 1471h170l376 -606l370 606h170l-466 -768v-703h-145v703zM75 1508l-28 -338h-118l-29 338h175z" />
    <glyph glyph-name="Omegatonos" unicode="&#x38f;" horiz-adv-x="1713" 
d="M1103 138h433v-138h-561v196c198.667 129.333 324.334 240.333 377.001 333s79 190 79 292c0 165.333 -53 297 -159 395s-244.333 147 -415 147s-309.167 -49.167 -415.5 -147.5s-159.5 -229.833 -159.5 -394.5c0 -101.333 25 -197.5 75 -288.5s177 -203.167 381 -336.5
v-196h-561v138h433c-194 120.667 -322.5 233.334 -385.5 338.001s-94.5 220.334 -94.5 347.001c0 203.333 68.333 368.166 205 494.499s310.667 189.5 522 189.5s385.166 -63.167 521.499 -189.5s204.5 -291.166 204.5 -494.499c0 -126.667 -31.5 -242.334 -94.5 -347.001
s-191.5 -217.334 -385.5 -338.001zM75 1508l-28 -338h-118l-29 338h175z" />
    <glyph glyph-name="iotadieresistonos" unicode="&#x390;" horiz-adv-x="410" 
d="M135 1088h141v-1088h-141v1088zM293 1598l-28 -338h-118l-29 338h175zM452 1291c-24.667 0 -45.667 8.66699 -63 26s-26 38.333 -26 63c0 25.333 8.66699 46.5 26 63.5s38.333 25.5 63 25.5s45.5 -8.66699 62.5 -26s25.5 -38.333 25.5 -63s-8.5 -45.667 -25.5 -63
s-37.833 -26 -62.5 -26zM-40 1291c-24.667 0 -45.667 8.66699 -63 26s-26 38.333 -26 63s8.66699 45.667 26 63s38.333 26 63 26s45.667 -8.5 63 -25.5s26 -38.167 26 -63.5c0 -24.667 -8.66699 -45.667 -26 -63s-38.333 -26 -63 -26z" />
    <glyph glyph-name="Alpha" unicode="&#x391;" horiz-adv-x="1515" 
d="M780 1471l686 -1471h-158l-231 484h-634l-230 -484h-164l695 1471h36zM762 1159l-253 -533h503z" />
    <glyph glyph-name="Beta" unicode="&#x392;" horiz-adv-x="1176" 
d="M183 1471h289.998c116.667 0 206.334 -13.833 269.001 -41.5s112.167 -70.167 148.5 -127.5s54.5 -121 54.5 -191c0 -65.333 -16 -124.833 -48 -178.5s-79 -97.167 -141 -130.5c76.667 -26 135.667 -56.5 177 -91.5s73.5 -77.333 96.5 -127s34.5 -103.5 34.5 -161.5
c0 -118 -43.167 -217.833 -129.5 -299.5s-202.166 -122.5 -347.499 -122.5h-404v1471zM326.998 1327v-470.999h84c102 0 177 9.5 225 28.5s86 49 114 90s42 86.5 42 136.5c0 67.333 -23.5 120.166 -70.5 158.499s-121.833 57.5 -224.5 57.5h-170zM326.998 708.001
l0.000976562 -564h182c107.333 0 186 10.5 236 31.5s90.167 53.833 120.5 98.5s45.5 93 45.5 145c0 65.333 -21.333 122.333 -64 171s-101.334 82 -176.001 100c-50 12 -137 18 -261 18h-83z" />
    <glyph glyph-name="Gamma" unicode="&#x393;" horiz-adv-x="946" 
d="M914 1326h-591v-1326h-146v1471h737v-145z" />
    <glyph glyph-name="Delta" unicode="&#x394;" horiz-adv-x="1515" 
d="M1466 0h-1417l695 1471h36zM1239 145l-477 1014l-481 -1014h958z" />
    <glyph glyph-name="Epsilon" unicode="&#x395;" horiz-adv-x="1098" 
d="M180 1471h843v-145h-696v-460h690v-144h-690v-577h690v-145h-837v1471z" />
    <glyph glyph-name="Zeta" unicode="&#x396;" horiz-adv-x="983" 
d="M122 1329v142h776l-615 -1328h584v-143h-811l619 1329h-553z" />
    <glyph glyph-name="Eta" unicode="&#x397;" horiz-adv-x="1399" 
d="M177 1471h148v-617h748v617h148v-1471h-148v710h-748v-710h-148v1471z" />
    <glyph glyph-name="Theta" unicode="&#x398;" horiz-adv-x="1780" 
d="M892 -37c-217.333 0 -401.168 73.833 -551.501 221.5s-225.5 329.167 -225.5 544.5c0 217.333 74.333 401.5 223 552.5s329.334 226.5 542.001 226.5c222 0 408.167 -73.5 558.5 -220.5s225.5 -330.833 225.5 -551.5c0 -216.667 -74.5 -399.667 -223.5 -549
s-331.833 -224 -548.5 -224zM886.998 1364c-165.333 0 -309.833 -60.166 -433.5 -180.499s-185.5 -271.833 -185.5 -454.5c0 -174 59.667 -321.333 179 -442s266 -181 440 -181s321.667 59.667 443 179s182 269.666 182 450.999c0 194 -64.833 347.167 -194.5 459.5
s-273.167 168.5 -430.5 168.5zM1258 672.001h-737v144h737v-144z" />
    <glyph glyph-name="Iota" unicode="&#x399;" horiz-adv-x="463" 
d="M158 1471h147v-1471h-147v1471z" />
    <glyph glyph-name="Kappa" unicode="&#x39a;" horiz-adv-x="1210" 
d="M179 1471h150v-552l587 552h199l-707 -660l762 -811h-195l-646 686v-686h-150v1471z" />
    <glyph glyph-name="Lambda" unicode="&#x39b;" horiz-adv-x="1438" 
d="M1370 0h-160l-487 1137l-496 -1137h-160l640 1471h32z" />
    <glyph glyph-name="Mu" unicode="&#x39c;" horiz-adv-x="1882" 
d="M112 0l209 1471h24l598 -1207l592 1207h24l211 -1471h-145l-144 1052l-520 -1052h-37l-527 1060l-143 -1060h-142z" />
    <glyph glyph-name="Nu" unicode="&#x39d;" horiz-adv-x="1515" 
d="M180 0v1471h32l978 -1126v1126h145v-1471h-33l-970 1112v-1112h-152z" />
    <glyph glyph-name="Xi" unicode="&#x39e;" horiz-adv-x="1087" 
d="M972 1326h-857v145h857v-145zM972 722h-857v144h857v-144zM972 0h-857v145h857v-145z" />
    <glyph glyph-name="Omicron" unicode="&#x39f;" horiz-adv-x="1780" 
d="M880 1508c222.667 0 409 -74.333 559 -223s225 -331.667 225 -549c0 -215.333 -74.833 -398 -224.5 -548s-332.167 -225 -547.5 -225c-218 0 -402 74.667 -552 224s-225 330 -225 542c0 141.333 34.167 272.333 102.5 393s161.5 215.167 279.5 283.5
s245.667 102.5 383 102.5zM887 1364c-108.667 0 -211.666 -28.333 -308.999 -85s-173.333 -133 -228 -229s-82 -203 -82 -321c0 -174.667 60.5 -322.167 181.5 -442.5s266.833 -180.5 437.5 -180.5c114 0 219.5 27.667 316.5 83s172.667 131 227 227s81.5 202.667 81.5 320
c0 116.667 -27.167 222.167 -81.5 316.5s-130.833 169.833 -229.5 226.5s-203.334 85 -314.001 85z" />
    <glyph glyph-name="Pi" unicode="&#x3a0;" horiz-adv-x="1399" 
d="M1221 0h-148v1331h-748v-1331h-148v1471h1044v-1471z" />
    <glyph glyph-name="Rho" unicode="&#x3a1;" horiz-adv-x="1212" 
d="M178 1471l293.001 -0.000976562c168 0 281.333 -7.33301 340 -22c84 -20.667 152.667 -63.167 206 -127.5s80 -145.166 80 -242.499c0 -98 -26 -178.833 -78 -242.5s-123.667 -106.5 -215 -128.5c-66.667 -16 -191.334 -24 -374.001 -24h-105v-684h-147v1471z
M325.001 1328l-0.000976562 -500l249 -3c100.667 0 174.334 9.16699 221.001 27.5s83.334 48 110.001 89s40 86.833 40 137.5c0 49.333 -13.333 94.5 -40 135.5s-61.834 70.167 -105.501 87.5s-115.167 26 -214.5 26h-260z" />
    <glyph glyph-name="Sigma" unicode="&#x3a3;" horiz-adv-x="1027" 
d="M927 0h-861l411 734l-405 737h840v-142h-600l330 -596l-333 -590h618v-143z" />
    <glyph glyph-name="Tau" unicode="&#x3a4;" horiz-adv-x="872" 
d="M33 1328v143h807v-143h-328v-1328h-150v1328h-329z" />
    <glyph glyph-name="Upsilon" unicode="&#x3a5;" horiz-adv-x="1212" 
d="M63 1471h170l376 -606l370 606h170l-466 -768v-703h-145v703z" />
    <glyph glyph-name="Phi" unicode="&#x3a6;" horiz-adv-x="1760" 
d="M954 145v-145h-148v145c-216 14 -387.667 73.833 -515 179.5s-191 245.5 -191 419.5c0 173.333 64.333 313.666 193 420.999s299.667 167.333 513 180v126h148v-126c216 -14 387.667 -73.833 515 -179.5s191 -245.5 191 -419.5
c0 -173.333 -64.333 -313.666 -193 -420.999s-299.667 -167.333 -513 -180zM954 1209v-926.999c158 10 289.833 51.5 395.5 124.5s158.5 186.167 158.5 339.5c0 136.667 -48.833 245.167 -146.5 325.5s-233.5 126.166 -407.5 137.499zM806 282.001v926.999
c-158 -10 -289.833 -51.5 -395.5 -124.5s-158.5 -186.167 -158.5 -339.5c0 -136.667 48.833 -245.167 146.5 -325.5s233.5 -126.166 407.5 -137.499z" />
    <glyph glyph-name="Chi" unicode="&#x3a7;" horiz-adv-x="1247" 
d="M101 1471h172l352 -574l355 574h170l-438 -713l467 -758h-172l-382 617l-384 -617h-172l469 758z" />
    <glyph glyph-name="Psi" unicode="&#x3a8;" horiz-adv-x="1620" 
d="M1480 964c0 -137.333 -19.8311 -245.834 -59.498 -325.501s-105.834 -144.5 -198.501 -194.5s-205.334 -78.333 -338.001 -85v-359h-148v359c-123.333 6.66699 -228 30.334 -314 71.001s-154.5 100 -205.5 178s-76.5 200.333 -76.5 367v496h151v-448
c0 -121.333 9.5 -213.833 28.5 -277.5s64.167 -118 135.5 -163s165 -72.167 281 -81.5v970h148v-970c121.333 9.33301 216.833 37.333 286.5 84s113.5 100.167 131.5 160.5s27 152.833 27 277.5v448h151v-507z" />
    <glyph glyph-name="Omega" unicode="&#x3a9;" horiz-adv-x="1713" 
d="M1103 138h433v-138h-561v196c198.667 129.333 324.334 240.333 377.001 333s79 190 79 292c0 165.333 -53 297 -159 395s-244.333 147 -415 147s-309.167 -49.167 -415.5 -147.5s-159.5 -229.833 -159.5 -394.5c0 -101.333 25 -197.5 75 -288.5s177 -203.167 381 -336.5
v-196h-561v138h433c-194 120.667 -322.5 233.334 -385.5 338.001s-94.5 220.334 -94.5 347.001c0 203.333 68.333 368.166 205 494.499s310.667 189.5 522 189.5s385.166 -63.167 521.499 -189.5s204.5 -291.166 204.5 -494.499c0 -126.667 -31.5 -242.334 -94.5 -347.001
s-191.5 -217.334 -385.5 -338.001z" />
    <glyph glyph-name="Iotadieresis" unicode="&#x3aa;" horiz-adv-x="463" 
d="M158 1471h147v-1471h-147v1471zM28 1816c32 0 59.333 -11.333 82 -34s34 -50 34 -82s-11.333 -59.333 -34 -82s-50 -34 -82 -34s-59.333 11.333 -82 34s-34 50 -34 82s11.333 59.333 34 82s50 34 82 34zM436 1816c32 0 59.333 -11.333 82 -34s34 -50 34 -82
s-11.333 -59.333 -34 -82s-50 -34 -82 -34s-59.333 11.333 -82 34s-34 50 -34 82s11.333 59.333 34 82s50 34 82 34z" />
    <glyph glyph-name="Upsilondieresis" unicode="&#x3ab;" horiz-adv-x="1212" 
d="M63 1471h170l376 -606l370 606h170l-466 -768v-703h-145v703zM402 1816c32 0 59.333 -11.333 82 -34s34 -50 34 -82s-11.333 -59.333 -34 -82s-50 -34 -82 -34s-59.333 11.333 -82 34s-34 50 -34 82s11.333 59.333 34 82s50 34 82 34zM810 1816
c32 0 59.333 -11.333 82 -34s34 -50 34 -82s-11.333 -59.333 -34 -82s-50 -34 -82 -34s-59.333 11.333 -82 34s-34 50 -34 82s11.333 59.333 34 82s50 34 82 34z" />
    <glyph glyph-name="alphatonos" unicode="&#x3ac;" horiz-adv-x="1399" 
d="M1240 1088l0.000976562 -1088h-138v187c-58.667 -71.333 -124.5 -125 -197.5 -161s-152.833 -54 -239.5 -54c-154 0 -285.5 55.833 -394.5 167.5s-163.5 247.5 -163.5 407.5c0 156.667 55 290.667 165 402s242.333 167 397 167c89.333 0 170.166 -19 242.499 -57
s135.833 -95 190.5 -171v200h138zM680.001 981c-78 0 -150 -19.1689 -216 -57.502s-118.5 -92.166 -157.5 -161.499s-58.5 -142.666 -58.5 -219.999c0 -76.667 19.667 -150 59 -220s92.166 -124.5 158.499 -163.5s137.5 -58.5 213.5 -58.5
c76.667 0 149.334 19.333 218.001 58s121.5 91 158.5 157s55.5 140.333 55.5 223c0 126 -41.5 231.333 -124.5 316s-185.167 127 -306.5 127zM787.001 1598l-28 -338h-118l-29 338h175z" />
    <glyph glyph-name="epsilontonos" unicode="&#x3ad;" horiz-adv-x="866" 
d="M827 116c-90.667 -96.667 -210.332 -145.001 -358.999 -145.001c-106.667 0 -194.167 31 -262.5 93s-102.5 144 -102.5 246c0 136.667 65.333 232.334 196 287.001c-100 40.667 -150 117.667 -150 231c0 86 30.5 155.833 91.5 209.5s137.167 80.5 228.5 80.5
c110 0 214 -41 312 -123l-79 -97c-76 58.667 -151.667 88 -227 88c-58.667 0 -105.167 -15.833 -139.5 -47.5s-51.5 -75.167 -51.5 -130.5c0 -52 17.667 -94.667 53 -128s80 -50 134 -50h73v-120h-86c-58.667 0 -107.5 -19 -146.5 -57s-58.5 -86 -58.5 -144
c0 -64 20.667 -114.5 62 -151.5s96.333 -55.5 165 -55.5c105.333 0 191.666 38 258.999 114zM520.002 1598l-28 -338h-118l-29 338h175z" />
    <glyph glyph-name="etatonos" unicode="&#x3ae;" horiz-adv-x="1249" 
d="M1105 -398l-138.999 -0.000976562v917c0 108.667 -5.33301 193.334 -16 254.001s-39.167 111.5 -85.5 152.5s-109.166 61.5 -188.499 61.5c-86.667 0 -162.834 -27.833 -228.501 -83.5s-107.334 -116.667 -125.001 -183s-26.5 -173.5 -26.5 -321.5v-399h-140v1088h140
v-195c111.333 148.667 247.333 223 408 223c78 0 148.333 -19.5 211 -58.5s110 -93.5 142 -163.5s48 -181.333 48 -334v-958zM712.001 1598l-28 -338h-118l-29 338h175z" />
    <glyph glyph-name="iotatonos" unicode="&#x3af;" horiz-adv-x="410" 
d="M135 1088h141v-1088h-141v1088zM292 1598l-28 -338h-118l-29 338h175z" />
    <glyph glyph-name="upsilondieresistonos" unicode="&#x3b0;" horiz-adv-x="1219" 
d="M135 1088h141v-508c0 -108.667 6 -192.167 18 -250.5s46.333 -109.833 103 -154.5s128.334 -67 215.001 -67c118 0 207.5 39.333 268.5 118s91.5 184.667 91.5 318c0 182 -84.667 330.333 -254 445l77 128c213.333 -125.333 320 -325 320 -599
c0 -160 -45.333 -291 -136 -393s-213 -153 -367 -153c-142.667 0 -257.834 41.667 -345.501 125s-131.5 239 -131.5 467v524zM697 1598l-28 -338h-118l-29 338h175zM856 1291c-24.667 0 -45.667 8.66699 -63 26s-26 38.333 -26 63c0 25.333 8.66699 46.5 26 63.5
s38.333 25.5 63 25.5s45.5 -8.66699 62.5 -26s25.5 -38.333 25.5 -63s-8.5 -45.667 -25.5 -63s-37.833 -26 -62.5 -26zM364 1291c-24.667 0 -45.667 8.66699 -63 26s-26 38.333 -26 63s8.66699 45.667 26 63s38.333 26 63 26s45.667 -8.5 63 -25.5s26 -38.167 26 -63.5
c0 -24.667 -8.66699 -45.667 -26 -63s-38.333 -26 -63 -26z" />
    <glyph glyph-name="alpha" unicode="&#x3b1;" horiz-adv-x="1399" 
d="M1240 1088l0.000976562 -1088h-138v187c-58.667 -71.333 -124.5 -125 -197.5 -161s-152.833 -54 -239.5 -54c-154 0 -285.5 55.833 -394.5 167.5s-163.5 247.5 -163.5 407.5c0 156.667 55 290.667 165 402s242.333 167 397 167c89.333 0 170.166 -19 242.499 -57
s135.833 -95 190.5 -171v200h138zM680.001 981c-78 0 -150 -19.1689 -216 -57.502s-118.5 -92.166 -157.5 -161.499s-58.5 -142.666 -58.5 -219.999c0 -76.667 19.667 -150 59 -220s92.166 -124.5 158.499 -163.5s137.5 -58.5 213.5 -58.5
c76.667 0 149.334 19.333 218.001 58s121.5 91 158.5 157s55.5 140.333 55.5 223c0 126 -41.5 231.333 -124.5 316s-185.167 127 -306.5 127z" />
    <glyph glyph-name="beta" unicode="&#x3b2;" horiz-adv-x="1221" 
d="M297 164l0.00195312 -561.998h-141v1505c0 153.333 39.667 263.166 119 329.499s173 99.5 281 99.5c110.667 0 198.5 -29.5 263.5 -88.5s97.5 -137.833 97.5 -236.5c0 -154 -73 -257.667 -219 -311c128 -12.667 230 -58.334 306 -137.001s114 -179 114 -301
c0 -139.333 -46.333 -255.833 -139 -349.5s-207.334 -140.5 -344.001 -140.5c-142.667 0 -255.334 64 -338.001 192zM435.002 805.002l-0.000976562 117.001c226 6 339 97.667 339 275c0 61.333 -18.833 111.166 -56.5 149.499s-87.834 57.5 -150.501 57.5
c-87.333 0 -154.166 -24 -200.499 -72s-69.5 -134 -69.5 -258l1 -613c0 -108 32.667 -194.333 98 -259s144.333 -97 237 -97c96.667 0 177.834 33.5 243.501 100.5s98.5 149.5 98.5 247.5c0 96.667 -33.167 179.5 -99.5 248.5s-189.833 103.5 -370.5 103.5h-70z" />
    <glyph glyph-name="gamma" unicode="&#x3b3;" horiz-adv-x="1135" 
d="M1077 1088l-442 -966v-520h-138v522l-444 964h149l364 -792l361 792h150z" />
    <glyph glyph-name="delta" unicode="&#x3b4;" horiz-adv-x="1171" 
d="M445 906c-110 74 -165.001 170.667 -165.001 290c0 100.667 38.833 182.5 116.5 245.5s173.834 94.5 288.501 94.5c84 0 163.333 -9.33301 238 -28l-36 -125c-56 14.667 -119.667 22 -191 22c-84 0 -150.5 -18.833 -199.5 -56.5s-73.5 -87.167 -73.5 -148.5
c0 -53.333 16.333 -99 49 -137s118.667 -85 258 -141c224.667 -90 337 -245.333 337 -466c0 -136 -46.167 -250.667 -138.5 -344s-206.5 -140 -342.5 -140s-250.333 46.5 -343 139.5s-139 207.833 -139 344.5c0 220 113.667 370 341 450zM585.999 806
c-94.667 0 -174.832 -34.667 -240.499 -104s-98.5 -152.333 -98.5 -249c0 -97.333 32.5 -179.666 97.5 -246.999s145.5 -101 241.5 -101s176.5 33.667 241.5 101s97.5 149.666 97.5 246.999c0 96.667 -32.833 179.667 -98.5 249s-145.834 104 -240.501 104zM586.001 939z
" />
    <glyph glyph-name="epsilon" unicode="&#x3b5;" horiz-adv-x="866" 
d="M827 116c-90.667 -96.667 -210.332 -145.001 -358.999 -145.001c-106.667 0 -194.167 31 -262.5 93s-102.5 144 -102.5 246c0 136.667 65.333 232.334 196 287.001c-100 40.667 -150 117.667 -150 231c0 86 30.5 155.833 91.5 209.5s137.167 80.5 228.5 80.5
c110 0 214 -41 312 -123l-79 -97c-76 58.667 -151.667 88 -227 88c-58.667 0 -105.167 -15.833 -139.5 -47.5s-51.5 -75.167 -51.5 -130.5c0 -52 17.667 -94.667 53 -128s80 -50 134 -50h73v-120h-86c-58.667 0 -107.5 -19 -146.5 -57s-58.5 -86 -58.5 -144
c0 -64 20.667 -114.5 62 -151.5s96.333 -55.5 165 -55.5c105.333 0 191.666 38 258.999 114z" />
    <glyph glyph-name="zeta" unicode="&#x3b6;" horiz-adv-x="953" 
d="M388 -406l36.001 125.998c42 -10.667 81.667 -16 119 -16c164.667 0 247 52.667 247 158c0 39.333 -18.333 70.666 -55 93.999s-105.667 44.666 -207 63.999c-273.333 52.667 -410 214.334 -410 485.001c0 140.667 48.667 280.334 146 419.001
s254.666 292.334 471.999 461.001h-503v123h675v-123c-240 -202 -407.833 -367.167 -503.5 -495.5s-143.5 -253.166 -143.5 -374.499c0 -104 23.833 -185.833 71.5 -245.5s134.5 -102.5 260.5 -128.5c152.667 -31.333 247.5 -68.833 284.5 -112.5
s55.167 -97.167 54.5 -160.5c0 -92 -35.167 -164 -105.5 -216s-161.5 -78 -273.5 -78c-58 0 -113 6.66699 -165 20z" />
    <glyph glyph-name="eta" unicode="&#x3b7;" horiz-adv-x="1249" 
d="M1105 -398l-138.999 -0.000976562v917c0 108.667 -5.33301 193.334 -16 254.001s-39.167 111.5 -85.5 152.5s-109.166 61.5 -188.499 61.5c-86.667 0 -162.834 -27.833 -228.501 -83.5s-107.334 -116.667 -125.001 -183s-26.5 -173.5 -26.5 -321.5v-399h-140v1088h140
v-195c111.333 148.667 247.333 223 408 223c78 0 148.333 -19.5 211 -58.5s110 -93.5 142 -163.5s48 -181.333 48 -334v-958z" />
    <glyph glyph-name="theta" unicode="&#x3b8;" horiz-adv-x="1341" 
d="M671 -28c-179.333 0 -318.668 69.833 -418.001 209.5s-149 329.167 -149 568.5c0 240 49.833 431 149.5 573s238.834 213 417.501 213s317.667 -71 417 -213s149 -333 149 -573c0 -238.667 -49.5 -428 -148.5 -568s-238.167 -210 -417.5 -210zM1093 816
c-8.66699 182.667 -49.668 327 -123.001 433s-173 159 -299 159s-225.667 -52.667 -299 -158s-114.666 -250 -123.999 -434h845zM1094 693h-846c7.33301 -186.667 47.333 -332.167 120 -436.5s173.667 -156.5 303 -156.5s230.333 51.833 303 155.5s112.667 249.5 120 437.5z
" />
    <glyph glyph-name="iota" unicode="&#x3b9;" horiz-adv-x="410" 
d="M135 1088h141v-1088h-141v1088z" />
    <glyph glyph-name="kappa" unicode="&#x3ba;" horiz-adv-x="1028" 
d="M1040 0h-198l-546 489v-489h-141v1089h141v-439l503 438h206l-597 -519z" />
    <glyph glyph-name="lambda" unicode="&#x3bb;" horiz-adv-x="1098" 
d="M1073 0h-149l-363 838l-374 -838h-148l447 1006l-220 502h148z" />
    <glyph glyph-name="mu" unicode="&#x3bc;" horiz-adv-x="1249" 
d="M1093 1l-140.002 0.000976562v195c-112 -148.667 -248 -223 -408 -223c-116 0 -203 38.667 -261 116v-487h-140v1487h140v-519c0 -108.667 5.33301 -193.334 16 -254.001s39.167 -111.5 85.5 -152.5s108.833 -61.5 187.5 -61.5c86.667 0 162.834 27.833 228.501 83.5
s107.334 116.667 125.001 183s26.5 173.5 26.5 321.5v399h140v-1088z" />
    <glyph glyph-name="nu" unicode="&#x3bd;" horiz-adv-x="1135" 
d="M53 1088h149l364 -792l361 792h150l-498 -1088h-25z" />
    <glyph glyph-name="xi" unicode="&#x3be;" horiz-adv-x="953" 
d="M388 -406l36 125.999c42 -10.667 81.667 -16 119 -16c164.667 0 247 52.667 247 158c0 34 -14.833 62.833 -44.5 86.5s-108.5 47.5 -236.5 71.5c-260.667 49.333 -391 201 -391 455c0 96.667 27.833 181.667 83.5 255s131.5 125 227.5 155
c-152.667 75.333 -229 179 -229 311c0 106 40.5 189.167 121.5 249.5s185.5 90.5 313.5 90.5c102.667 0 195.667 -12.333 279 -37l-33 -134c-76.667 26.667 -165 40 -265 40c-82.667 0 -148.834 -21.167 -198.501 -63.5s-74.5 -97.5 -74.5 -165.5
c0 -74.667 37.833 -134.334 113.5 -179.001s163.834 -67 264.501 -67h119v-122h-202c-98 0 -185.333 -26.333 -262 -79s-115 -134 -115 -244c0 -93.333 22.833 -167.166 68.5 -221.499s126.167 -94.166 241.5 -119.499c138 -30.667 232.667 -63.167 284 -97.5
s77 -93.833 77 -178.5c0 -92 -35.167 -164 -105.5 -216s-161.5 -78 -273.5 -78c-58 0 -113 6.66699 -165 20z" />
    <glyph glyph-name="omicron" unicode="&#x3bf;" horiz-adv-x="1341" 
d="M671 1116c167.333 0 306.001 -60.668 416.001 -182.001c100 -110.667 150 -241.667 150 -393c0 -152 -52.833 -284.833 -158.5 -398.5s-241.5 -170.5 -407.5 -170.5c-166.667 0 -302.834 56.833 -408.501 170.5s-158.5 246.5 -158.5 398.5
c0 150.667 50 281.334 150 392.001c110 122 249 183 417 183zM671.001 978.999c-116 0 -215.667 -43 -299 -129s-125 -190 -125 -312c0 -78.667 19 -152 57 -220s89.333 -120.5 154 -157.5s135.667 -55.5 213 -55.5s148.333 18.5 213 55.5s116 89.5 154 157.5
s57 141.333 57 220c0 122 -41.833 226 -125.5 312s-183.167 129 -298.5 129z" />
    <glyph glyph-name="pi" unicode="&#x3c0;" horiz-adv-x="1373" 
d="M1323 965h-221v-965h-141v965h-549v-965h-141v965h-221v123h1273v-123z" />
    <glyph glyph-name="rho" unicode="&#x3c1;" horiz-adv-x="1372" 
d="M275 205l0.000976562 -603h-140v909c0 177.333 54.167 322.5 162.5 435.5s243.166 169.5 404.499 169.5c162 0 296.833 -56.5 404.5 -169.5s161.5 -248.167 161.5 -405.5c0 -160 -54.333 -294.833 -163 -404.5s-243 -164.5 -403 -164.5c-178.667 0 -321 77.667 -427 233z
M702.001 979c-118.667 0 -219 -43.333 -301 -130s-123 -190.334 -123 -311.001c0 -119.333 40.167 -221.333 120.5 -306s181.5 -127 303.5 -127c128 0 230.667 43 308 129s116 187.333 116 304c0 120.667 -41.167 224.334 -123.5 311.001s-182.5 130 -300.5 130z" />
    <glyph glyph-name="sigma1" unicode="&#x3c2;" horiz-adv-x="1185" 
d="M1131 862l-110.999 -68.998c-96 127.333 -217 191 -363 191c-118 0 -216.167 -41.167 -294.5 -123.5s-117.5 -187.5 -117.5 -315.5c0 -108.667 30.667 -194.5 92 -257.5s169.666 -109.167 324.999 -138.5c150 -28 253.167 -59.667 309.5 -95s84.5 -97.333 84.5 -186
c0 -92 -35.167 -164 -105.5 -216s-161.5 -78 -273.5 -78c-58 0 -113 6.66699 -165 20l36 126c42 -10.667 81.667 -16 119 -16c164.667 0 247 52.667 247 158c0 39.333 -18 70.666 -54 93.999s-115 44.666 -237 63.999c-346 55.333 -519 227 -519 515
c0 168.667 53.333 307.667 160 417s239.667 164 399 164c210.667 0 366.667 -84.667 468 -254z" />
    <glyph glyph-name="sigma" unicode="&#x3c3;" horiz-adv-x="1468" 
d="M1428 965h-370.998c120 -116.667 180 -258 180 -424c0 -160 -54.333 -294.833 -163 -404.5s-243 -164.5 -403 -164.5c-160.667 0 -295.334 54.667 -404.001 164s-163 244.333 -163 405c0 156.667 54 291.667 162 405s243 170 405 170
c65.333 0 126.666 -9.33301 183.999 -28h573v-123zM671.002 979c-116.667 0 -216.5 -42.833 -299.5 -128.5s-124.5 -189.834 -124.5 -312.501c0 -119.333 40.167 -221.333 120.5 -306s181.5 -127 303.5 -127c131.333 0 234.833 44.167 310.5 132.5s113.5 188.5 113.5 300.5
c0 120.667 -41.167 224.334 -123.5 311.001s-182.5 130 -300.5 130z" />
    <glyph glyph-name="tau" unicode="&#x3c4;" horiz-adv-x="823" 
d="M773 965h-291v-965h-141v965h-291v123h723v-123z" />
    <glyph glyph-name="upsilon" unicode="&#x3c5;" horiz-adv-x="1219" 
d="M135 1088h141v-508c0 -108.667 6 -192.167 18 -250.5s46.333 -109.833 103 -154.5s128.334 -67 215.001 -67c118 0 207.5 39.333 268.5 118s91.5 184.667 91.5 318c0 182 -84.667 330.333 -254 445l77 128c213.333 -125.333 320 -325 320 -599
c0 -160 -45.333 -291 -136 -393s-213 -153 -367 -153c-142.667 0 -257.834 41.667 -345.501 125s-131.5 239 -131.5 467v524z" />
    <glyph glyph-name="phi" unicode="&#x3c6;" horiz-adv-x="1568" 
d="M854 -26v-372.001h-141v373c-186.667 12 -334.834 67.833 -444.501 167.5s-164.5 232.5 -164.5 398.5c0 130 37.833 242.667 113.5 338s178.834 165.333 309.501 210l45 -133c-216.667 -77.333 -325 -216.666 -325 -417.999c0 -257.333 155.333 -399 466 -425v1000
c26 2 49.667 3 71 3c210 0 375.833 -51.167 497.5 -153.5s182.5 -242.833 182.5 -421.5c0 -165.333 -54.833 -298 -164.5 -398s-258.167 -156.333 -445.5 -169zM854 978.999v-866.001c310.667 28.667 466 170.334 466 425.001c0 134 -41.833 240 -125.5 318
s-197.167 119 -340.5 123z" />
    <glyph glyph-name="chi" unicode="&#x3c7;" horiz-adv-x="983" 
d="M944 1088l-377 -700l424 -786h-160l-343 638l-344 -638h-151l419 780l-380 706h158l301 -559l300 559h153z" />
    <glyph glyph-name="psi" unicode="&#x3c8;" horiz-adv-x="1507" 
d="M1372 554c0 -217.333 -55.335 -367.167 -166.002 -449.5s-238 -125.833 -382 -130.5v-372h-140v372c-113.333 6.66699 -209.5 29.334 -288.5 68.001s-142.167 95.334 -189.5 170.001s-71 192 -71 352v524h139v-478c0 -116 8.83301 -204.5 26.5 -265.5
s59.334 -113 125.001 -156s151.834 -68.833 258.501 -77.5v977h140v-978c110 8.66699 197.167 35.167 261.5 79.5s104.833 95.166 121.5 152.499s25 146.666 25 267.999v478h140v-534z" />
    <glyph glyph-name="omega" unicode="&#x3c9;" horiz-adv-x="1756" 
d="M878 199c-19.333 -68.667 -57.168 -123.666 -113.501 -164.999s-121.833 -62 -196.5 -62c-144 0 -257.333 46.5 -340 139.5s-124 221.5 -124 385.5c0 173.333 55.667 317.5 167 432.5s254 177.167 428 186.5l11 -135c-141.333 -10.667 -253.833 -60.667 -337.5 -150
s-125.5 -202.333 -125.5 -339c0 -124.667 27.5 -221.167 82.5 -289.5s130.833 -102.5 227.5 -102.5c77.333 0 138.333 33.333 183 100s67 162.667 67 288v134h142v-134c0 -125.333 22.333 -221.333 67 -288s105.667 -100 183 -100c93.333 0 168.333 33.333 225 100
s85 164 85 292c0 138.667 -41.833 252.334 -125.5 341.001s-196.167 138 -337.5 148l11 135c173.333 -8.66699 315.833 -70.834 427.5 -186.501s167.5 -259.834 167.5 -432.501c0 -164 -41.333 -292.5 -124 -385.5s-196 -139.5 -340 -139.5
c-74.667 0 -140.167 20.667 -196.5 62s-94.166 96.333 -113.499 165z" />
    <glyph glyph-name="iotadieresis" unicode="&#x3ca;" horiz-adv-x="410" 
d="M135 1088h141v-1088h-141v1088zM1 1518c32 0 59.333 -11.333 82 -34s34 -50 34 -82s-11.333 -59.333 -34 -82s-50 -34 -82 -34s-59.333 11.333 -82 34s-34 50 -34 82s11.333 59.333 34 82s50 34 82 34zM409 1518c32 0 59.333 -11.333 82 -34s34 -50 34 -82
s-11.333 -59.333 -34 -82s-50 -34 -82 -34s-59.333 11.333 -82 34s-34 50 -34 82s11.333 59.333 34 82s50 34 82 34z" />
    <glyph glyph-name="upsilondieresis" unicode="&#x3cb;" horiz-adv-x="1219" 
d="M135 1088h141v-508c0 -108.667 6 -192.167 18 -250.5s46.333 -109.833 103 -154.5s128.334 -67 215.001 -67c118 0 207.5 39.333 268.5 118s91.5 184.667 91.5 318c0 182 -84.667 330.333 -254 445l77 128c213.333 -125.333 320 -325 320 -599
c0 -160 -45.333 -291 -136 -393s-213 -153 -367 -153c-142.667 0 -257.834 41.667 -345.501 125s-131.5 239 -131.5 467v524zM406 1518c32 0 59.333 -11.333 82 -34s34 -50 34 -82s-11.333 -59.333 -34 -82s-50 -34 -82 -34s-59.333 11.333 -82 34s-34 50 -34 82
s11.333 59.333 34 82s50 34 82 34zM814 1518c32 0 59.333 -11.333 82 -34s34 -50 34 -82s-11.333 -59.333 -34 -82s-50 -34 -82 -34s-59.333 11.333 -82 34s-34 50 -34 82s11.333 59.333 34 82s50 34 82 34z" />
    <glyph glyph-name="omicrontonos" unicode="&#x3cc;" horiz-adv-x="1341" 
d="M671 1116c167.333 0 306.001 -60.668 416.001 -182.001c100 -110.667 150 -241.667 150 -393c0 -152 -52.833 -284.833 -158.5 -398.5s-241.5 -170.5 -407.5 -170.5c-166.667 0 -302.834 56.833 -408.501 170.5s-158.5 246.5 -158.5 398.5
c0 150.667 50 281.334 150 392.001c110 122 249 183 417 183zM671.001 978.999c-116 0 -215.667 -43 -299 -129s-125 -190 -125 -312c0 -78.667 19 -152 57 -220s89.333 -120.5 154 -157.5s135.667 -55.5 213 -55.5s148.333 18.5 213 55.5s116 89.5 154 157.5
s57 141.333 57 220c0 122 -41.833 226 -125.5 312s-183.167 129 -298.5 129zM758.001 1598l-28 -338h-118l-29 338h175z" />
    <glyph glyph-name="upsilontonos" unicode="&#x3cd;" horiz-adv-x="1219" 
d="M135 1088h141v-508c0 -108.667 6 -192.167 18 -250.5s46.333 -109.833 103 -154.5s128.334 -67 215.001 -67c118 0 207.5 39.333 268.5 118s91.5 184.667 91.5 318c0 182 -84.667 330.333 -254 445l77 128c213.333 -125.333 320 -325 320 -599
c0 -160 -45.333 -291 -136 -393s-213 -153 -367 -153c-142.667 0 -257.834 41.667 -345.501 125s-131.5 239 -131.5 467v524zM697 1598l-28 -338h-118l-29 338h175z" />
    <glyph glyph-name="omegatonos" unicode="&#x3ce;" horiz-adv-x="1756" 
d="M878 199c-19.333 -68.667 -57.168 -123.666 -113.501 -164.999s-121.833 -62 -196.5 -62c-144 0 -257.333 46.5 -340 139.5s-124 221.5 -124 385.5c0 173.333 55.667 317.5 167 432.5s254 177.167 428 186.5l11 -135c-141.333 -10.667 -253.833 -60.667 -337.5 -150
s-125.5 -202.333 -125.5 -339c0 -124.667 27.5 -221.167 82.5 -289.5s130.833 -102.5 227.5 -102.5c77.333 0 138.333 33.333 183 100s67 162.667 67 288v134h142v-134c0 -125.333 22.333 -221.333 67 -288s105.667 -100 183 -100c93.333 0 168.333 33.333 225 100
s85 164 85 292c0 138.667 -41.833 252.334 -125.5 341.001s-196.167 138 -337.5 148l11 135c173.333 -8.66699 315.833 -70.834 427.5 -186.501s167.5 -259.834 167.5 -432.501c0 -164 -41.333 -292.5 -124 -385.5s-196 -139.5 -340 -139.5
c-74.667 0 -140.167 20.667 -196.5 62s-94.166 96.333 -113.499 165zM964.998 1598l-28 -338h-118l-29 338h175z" />
    </font>
</defs>
</svg>
