<?xml version="1.0" encoding="utf-8"?>
<!-- Generator: Adobe Illustrator 16.0.0, SVG Export Plug-In . SVG Version: 6.00 Build 0)  -->
<!DOCTYPE svg PUBLIC "-//W3C//DTD SVG 1.1//EN" "http://www.w3.org/Graphics/SVG/1.1/DTD/svg11.dtd">
<svg version="1.1" id="Layer_1" xmlns="http://www.w3.org/2000/svg" xmlns:xlink="http://www.w3.org/1999/xlink" x="0px" y="0px"
	 width="707.616px" height="670.957px" viewBox="0 0 707.616 670.957" enable-background="new 0 0 707.616 670.957"
	 xml:space="preserve">
<path fill-rule="evenodd" clip-rule="evenodd" fill="#2DBEE1" d="M707.505,197.25c-2.978,6.34-2.499,13.309-3.346,19.982
	c-6.048,47.68-11.807,95.397-17.645,143.104c-2.048,16.746-4.086,33.495-6.074,50.25c-1.286,10.838-8.957,18.102-19.823,18.959
	c-53.025,4.187-106.044,8.48-159.071,12.645c-37.768,2.966-75.548,5.761-113.319,8.684c-24.266,1.878-48.521,3.885-72.79,5.731
	c-2.547,0.193-4.418,1.312-6.306,2.78c-22.317,17.368-44.661,34.702-66.979,52.071c-7.025,5.468-12.1,12.148-13.791,21.201
	c-1.797,9.624,2.897,17.353,12.452,19.34c3.435,0.714,7.002,1.107,10.51,1.115c112.576,0.276,225.152,0.462,337.729,0.726
	c28.484,0.066,56.969,0.262,85.451,0.586c10.32,0.117,18.21,7.529,19.57,17.706c1.155,8.64-5.16,17.952-14.135,20.697
	c-4.405,1.349-8.972,0.739-13.471,0.788c-6.968,0.073-13.938,0.02-21.478,0.02c21.104,24.947,22.188,47.715,3.598,63.727
	c-16.865,14.524-41.817,13.303-56.433-2.418c-14.029-15.09-17.136-42.068,7.368-61.513c-114.102,0-226.978,0-340.693,0
	c13.993,10.404,20.746,23.856,18.047,40.9c-1.766,11.156-7.891,19.969-17.244,26.361c-18.839,12.873-45.464,7.066-57.215-12.405
	c-13.708-22.714-4.564-45.12,24.789-60.328c-13.952-5.456-24.734-14.498-32.378-27.232c-12.228-20.37-7.792-39.906,3.25-58.91
	c8.003-13.771,20.867-22.751,33.086-32.295c10.215-7.978,20.289-16.161,30.83-23.687c4.417-3.153,4.862-5.819,2.953-10.626
	c-28.89-72.729-57.601-145.53-86.346-218.315c-20.821-52.721-41.663-105.433-62.378-158.193c-1.346-3.428-2.937-5.208-6.851-5.843
	c-29.035-4.711-57.972-10.043-87.047-14.476C11.873,36.787,4.407,32.398,0.111,22.759c0-2.751,0-5.502,0-8.253
	C2.503,5.895,8.184,0.571,16.617-2c3.144,0,6.288,0,9.432,0c0.445,0.33,0.854,0.877,1.341,0.96
	c32.859,5.573,65.668,11.468,98.616,16.454c12.083,1.83,19.257,7.423,23.624,18.81c15.026,39.175,30.684,78.107,45.938,117.196
	c1.325,3.396,2.817,4.866,6.643,4.943c21.593,0.433,43.178,1.226,64.769,1.782c46.718,1.202,93.438,2.34,140.158,3.493
	c48.879,1.208,97.758,2.437,146.639,3.591c42.405,1.001,84.809,2.133,127.219,2.726c12.076,0.168,21.397,3.563,26.511,15.146
	C707.505,187.817,707.505,192.533,707.505,197.25z M291.378,223.431c0,10.009,0.126,20.02-0.067,30.025
	c-0.069,3.574,0.559,5.207,4.723,5.16c19.623-0.216,39.249-0.174,58.873-0.025c3.547,0.027,4.734-0.943,4.704-4.613
	c-0.164-19.623-0.147-39.25-0.015-58.874c0.023-3.545-1.089-4.77-4.689-4.827c-19.421-0.304-38.844-0.676-58.253-1.386
	c-4.717-0.173-5.484,1.545-5.363,5.693C291.568,204.193,291.378,213.815,291.378,223.431z M407.585,258.517
	c9.619,0,19.244-0.177,28.856,0.086c3.941,0.107,4.939-1.224,4.904-5.015c-0.173-18.846-0.125-37.693-0.031-56.54
	c0.015-3.019-0.434-4.586-4.074-4.637c-19.625-0.277-39.249-0.757-58.869-1.325c-3.436-0.099-4.868,0.693-4.837,4.48
	c0.164,19.435,0.149,38.873,0.009,58.309c-0.025,3.507,0.895,4.809,4.595,4.722C387.949,258.361,397.769,258.517,407.585,258.517z
	 M325.508,349.149c-9.621,0-19.246,0.174-28.859-0.083c-3.989-0.107-5.616,0.889-5.358,5.167c0.354,5.869-0.05,11.778,0.127,17.663
	c0.17,5.654-1.177,11.491,0.778,16.935c3.312,9.219,7.138,18.252,10.696,27.384c0.775,1.989,1.57,3.183,4.217,2.934
	c15.813-1.486,31.647-2.764,47.479-4.044c3.415-0.276,5.101-1.328,5.05-5.355c-0.236-18.648-0.186-37.302-0.035-55.953
	c0.029-3.567-1.005-4.798-4.646-4.718C345.144,349.29,335.324,349.15,325.508,349.149z M489.39,258.52
	c9.815,0,19.634-0.129,29.445,0.07c3.479,0.07,4.792-0.769,4.753-4.543c-0.188-18.256-0.175-36.515-0.008-54.771
	c0.033-3.63-1.139-4.633-4.675-4.711c-19.617-0.432-39.233-1.04-58.844-1.755c-3.57-0.13-4.81,0.934-4.781,4.601
	c0.146,18.847,0.158,37.694-0.01,56.54c-0.033,3.647,1.064,4.728,4.672,4.646C469.754,258.375,479.574,258.52,489.39,258.52z
	 M489.063,335.189c10.017,0,20.033-0.103,30.047,0.06c3.182,0.052,4.498-0.688,4.468-4.203c-0.16-18.066-0.139-36.135-0.016-54.203
	c0.022-3.246-0.865-4.469-4.286-4.446c-19.835,0.13-39.67,0.116-59.505,0.009c-3.2-0.018-4.517,0.797-4.489,4.276
	c0.146,18.066,0.138,36.136,0.003,54.203c-0.024,3.308,0.945,4.437,4.321,4.372C469.421,335.066,479.244,335.189,489.063,335.189z
	 M325.223,335.189c10.017,0,20.035-0.121,30.047,0.067c3.376,0.063,4.351-1.063,4.326-4.374c-0.135-17.87-0.175-35.744,0.022-53.614
	c0.045-4.015-1.382-4.913-5.109-4.882c-19.442,0.156-38.887,0.178-58.328-0.014c-3.99-0.04-4.911,1.333-4.876,5.062
	c0.164,17.673,0.197,35.352-0.021,53.025c-0.05,4.049,1.381,4.891,5.07,4.805C305.973,335.042,315.6,335.19,325.223,335.189z
	 M571.16,258.517c9.806,0,19.614-0.129,29.417,0.069c3.484,0.069,4.806-0.843,4.771-4.561c-0.17-17.649-0.157-35.302-0.011-52.951
	c0.031-3.67-1.41-4.705-4.829-4.767c-19.407-0.353-38.814-0.789-58.217-1.375c-3.475-0.104-4.816,0.674-4.778,4.471
	c0.187,18.238,0.193,36.479-0.004,54.716c-0.041,3.865,1.446,4.525,4.823,4.46C551.937,258.398,561.55,258.517,571.16,258.517z
	 M571.138,335.186c9.805,0,19.61-0.122,29.41,0.066c3.423,0.066,4.847-0.692,4.807-4.502c-0.187-17.841-0.151-35.685-0.024-53.527
	c0.024-3.408-0.777-4.862-4.542-4.832c-19.606,0.16-39.214,0.132-58.82,0.017c-3.229-0.02-4.463,0.851-4.437,4.276
	c0.141,18.038,0.179,36.078-0.025,54.115c-0.044,3.872,1.441,4.515,4.812,4.451C551.921,335.068,561.532,335.186,571.138,335.186z
	 M407.348,272.464c-9.628,0-19.261,0.17-28.883-0.082c-3.941-0.104-4.966,1.276-4.93,5.05c0.167,17.683,0.149,35.37,0.011,53.054
	c-0.027,3.425,0.732,4.816,4.517,4.782c19.648-0.178,39.3-0.153,58.948-0.016c3.377,0.024,4.345-1.06,4.319-4.367
	c-0.134-17.88-0.178-35.763,0.024-53.643c0.046-4.042-1.445-4.926-5.123-4.847C426.608,272.6,416.976,272.464,407.348,272.464z
	 M407.26,349.154c-9.422,0-18.853,0.252-28.261-0.108c-4.581-0.177-5.537,1.437-5.483,5.694c0.222,17.663,0.232,35.332-0.004,52.994
	c-0.06,4.407,1.062,5.786,5.591,5.379c19.529-1.757,39.08-3.291,58.639-4.68c3.488-0.247,3.557-2.036,3.549-4.603
	c-0.047-16.684-0.111-33.368,0.047-50.051c0.034-3.558-0.979-4.786-4.637-4.702C426.891,349.303,417.074,349.154,407.26,349.154z
	 M489.598,349.15c-10.019,0-20.037,0.065-30.055-0.041c-2.853-0.03-4.274,0.608-4.25,3.885c0.125,16.695,0.118,33.394,0,50.091
	c-0.022,3.162,1.021,4.038,4.12,3.781c19.751-1.633,39.511-3.197,59.28-4.573c3.79-0.264,4.949-1.596,4.894-5.381
	c-0.207-14.337-0.23-28.682,0.01-43.017c0.067-4.085-1.463-4.896-5.124-4.816C508.851,349.289,499.224,349.15,489.598,349.15z
	 M277.289,223.476c0-9.825-0.177-19.655,0.087-29.471c0.106-3.926-0.842-5.523-5.064-5.603c-18.458-0.345-36.913-0.939-55.364-1.568
	c-5.029-0.171-3.687,2.33-2.582,5.123c8.234,20.792,16.482,41.577,24.557,62.43c1.159,2.992,2.541,4.303,5.913,4.216
	c9.229-0.238,18.475-0.282,27.701,0.009c4.048,0.128,4.909-1.373,4.828-5.075C277.143,243.521,277.288,233.497,277.289,223.476z
	 M619.338,227.938c0,8.83,0.088,17.661-0.051,26.488c-0.046,2.956,0.759,4.184,3.953,4.153c14.126-0.14,28.255-0.134,42.381-0.002
	c3.064,0.027,3.91-1.095,4.245-4.032c1.996-17.518,4.133-35.021,6.466-52.496c0.418-3.132-0.575-3.664-3.286-3.718
	c-16.474-0.33-32.947-0.701-49.414-1.238c-3.4-0.112-4.421,1.055-4.355,4.358C619.452,210.277,619.336,219.108,619.338,227.938z
	 M571.501,349.154c-9.424,0-18.854,0.192-28.271-0.089c-4.174-0.124-5.867,0.722-5.752,5.402c0.33,13.54,0.266,27.096,0.027,40.64
	c-0.072,4.139,1.053,5.438,5.275,5.064c19.537-1.728,39.094-3.266,58.657-4.675c3.149-0.227,3.902-1.434,3.877-4.318
	c-0.109-12.565-0.135-25.132,0.015-37.697c0.039-3.317-1.043-4.445-4.379-4.386C591.138,349.267,581.319,349.156,571.501,349.154z
	 M619.336,303.875c0,9.023,0.062,18.048-0.037,27.071c-0.031,2.761,0.394,4.358,3.782,4.305c11.178-0.171,22.361-0.098,33.543-0.038
	c2.306,0.013,3.479-0.545,3.788-3.178c2.173-18.478,4.484-36.941,6.843-55.397c0.378-2.953-0.271-4.266-3.581-4.232
	c-13.338,0.138-26.679,0.143-40.017-0.005c-3.35-0.038-4.445,1.083-4.381,4.406C619.452,285.826,619.336,294.851,619.336,303.875z
	 M619.334,371.576c0,5.679,0.364,11.39-0.105,17.029c-0.431,5.161,1.834,5.771,6.115,5.277c7.771-0.896,15.576-1.553,23.385-2.008
	c2.984-0.174,4.459-0.752,4.818-4.178c1.202-11.472,2.742-22.909,4.325-34.336c0.493-3.555-0.928-4.318-4.157-4.268
	c-9.985,0.154-19.979,0.213-29.962-0.022c-3.849-0.091-4.593,1.519-4.476,4.88C619.483,359.82,619.335,365.701,619.334,371.576z
	 M213.348,627.224c-0.111,13.212,10.031,23.641,23.185,23.841c13.171,0.2,23.944-10.023,24.166-22.934
	c0.231-13.42-10.14-24.043-23.541-24.114C223.936,603.946,213.458,614.159,213.348,627.224z M645.29,627.652
	c0.044-13.178-10.164-23.508-23.357-23.637c-13.345-0.132-24.108,10.477-24.035,23.688c0.07,12.929,10.688,23.35,23.8,23.359
	C634.871,651.072,645.246,640.778,645.29,627.652z M277.288,304.021c0-9.032-0.033-18.066,0.021-27.097
	c0.015-2.548,0.014-4.594-3.567-4.513c-8.047,0.181-16.101,0.117-24.15,0.026c-3.092-0.036-3.057,1.223-2.115,3.59
	c7.462,18.762,14.922,37.524,22.171,56.368c1.192,3.101,3.247,2.887,5.592,2.739c2.87-0.181,1.998-2.465,2.011-4.016
	C277.326,322.085,277.287,313.053,277.288,304.021z"/>
<path fill-rule="evenodd" clip-rule="evenodd" fill="#2DBEE1" d="M236.93,615.48c7.082-0.014,12.885,5.557,12.954,12.434
	c0.066,6.703-5.962,12.635-12.851,12.646c-6.994,0.013-12.879-5.724-12.884-12.557C224.143,621.082,229.845,615.495,236.93,615.48z"
	/>
<path fill-rule="evenodd" clip-rule="evenodd" fill="#2DBEE1" d="M621.991,615.462c7.116,0.118,12.614,5.753,12.478,12.787
	c-0.135,6.907-6.04,12.459-13.089,12.306c-6.915-0.149-12.857-6.229-12.595-12.885C609.057,620.733,614.887,615.345,621.991,615.462
	z"/>
</svg>
