<?xml version="1.0" encoding="utf-8"?>
<!-- Generator: Adobe Illustrator 16.0.0, SVG Export Plug-In . SVG Version: 6.00 Build 0)  -->
<!DOCTYPE svg PUBLIC "-//W3C//DTD SVG 1.1//EN" "http://www.w3.org/Graphics/SVG/1.1/DTD/svg11.dtd">
<svg version="1.1" id="Layer_1" xmlns="http://www.w3.org/2000/svg" xmlns:xlink="http://www.w3.org/1999/xlink" x="0px" y="0px"
	 width="418.445px" height="420.072px" viewBox="0 0 418.445 420.072" enable-background="new 0 0 418.445 420.072"
	 xml:space="preserve">
<g>
	<g>
		<polygon fill="#265691" points="126.24,176.675 259.688,176.675 259.688,349.179 292.238,349.179 292.238,371.149 126.24,371.149 
			126.24,348.366 161.232,348.366 161.232,197.832 126.24,197.832 		"/>
	</g>
	<g>
		<path fill="#265691" d="M140.075,96.117c0,36.402,29.512,65.912,65.914,65.912c36.398,0,65.906-29.51,65.906-65.912
			c0-36.4-29.508-65.91-65.906-65.91C169.587,30.207,140.075,59.716,140.075,96.117z"/>
	</g>
	<g>
		<path fill="#265691" d="M375.186,420.072H44.921c-24.311,0-44.09-19.779-44.09-44.092V44.092C0.831,19.779,20.61,0,44.921,0
			h330.265c24.312,0,44.091,19.779,44.091,44.092V375.98C419.276,400.293,399.497,420.072,375.186,420.072z M44.921,16.478
			c-15.226,0-27.612,12.387-27.612,27.614V375.98c0,15.228,12.387,27.614,27.612,27.614h330.265
			c15.227,0,27.613-12.387,27.613-27.614V44.092c0-15.227-12.387-27.614-27.613-27.614H44.921z"/>
	</g>
</g>
</svg>
