<?xml version="1.0" encoding="utf-8"?>
<!-- Generator: Adobe Illustrator 16.0.0, SVG Export Plug-In . SVG Version: 6.00 Build 0)  -->
<!DOCTYPE svg PUBLIC "-//W3C//DTD SVG 1.1//EN" "http://www.w3.org/Graphics/SVG/1.1/DTD/svg11.dtd">
<svg version="1.1" id="Layer_1" xmlns="http://www.w3.org/2000/svg" xmlns:xlink="http://www.w3.org/1999/xlink" x="0px" y="0px"
	 width="425.726px" height="421.575px" viewBox="0 0 425.726 421.575" enable-background="new 0 0 425.726 421.575"
	 xml:space="preserve">
<g>
	<path fill="#265691" d="M399.046,77.319v18.949c0,0-149.679-23.068-183.809-33.779c0,0-147.621,34.603-179.698,42.018
		c-0.521,0.119-5.754,0-5.754,0s-11.515-3.295-4.937-19.361c0,0,156.771-33.231,184.486-43.253
		C209.335,41.892,393.288,78.143,399.046,77.319z"/>
</g>
<g id="kZMU9M_1_">
	<g>
		<g>
			<path fill-rule="evenodd" clip-rule="evenodd" fill="#265691" d="M337.715,299.504c-4.611,0.615-7.222,1.265-9.835,1.265
				c-77.154,0.059-154.306-0.09-231.457,0.229c-9.832,0.042-11.866-3.894-11.734-12.715c0.425-28.54,0.325-57.086,0.094-85.625
				c-0.109-13.774-6.649-19.915-18.586-18.142c-12.496,1.86-13.301,11.467-13.313,21.153c-0.081,56.191,0.28,112.389-0.315,168.573
				c-0.129,12.155,4.059,15.338,15.477,14.839c17.494-0.759,17.52-0.129,17.556-17.693c0.01-4.458-0.007-8.922,0.003-13.379
				c0.035-17.826,0.042-17.852,17.337-17.854c66.45-0.007,132.905-0.097,199.353,0.097c11.408,0.032,26.318-2.749,33.145,3.198
				c5.771,5.027,3.276,20.896,2.427,31.81c-1.017,13.063,6.149,13.591,15.603,13.096c8.65-0.451,17.755,2.313,17.359-12.658
				c-0.947-35.654-0.283-71.349-0.303-107.026c-0.007-9.362,0.303-18.759-0.348-28.079c-0.644-9.33-6.672-14.933-15.677-15.168
				c-8.921-0.231-15.318,4.541-16.274,14.241c-0.479,4.862-0.47,9.79-0.489,14.688C337.68,269.381,337.715,284.415,337.715,299.504z
				 M258.333,295.263c20.012,0,40.029-0.251,60.034,0.115c8.901,0.161,13.249-2.584,12.516-12.226
				c-0.641-8.399-0.081-16.89-0.145-25.338c-0.171-22.972-7.325-31.155-29.795-31.51c-35.121-0.55-70.261,0.02-105.386-0.373
				c-9.014-0.104-11.518,3.672-11.315,11.924c0.377,15.109,0.441,30.241-0.009,45.349c-0.277,9.406,3.72,12.399,12.737,12.21
				C217.416,294.986,237.882,295.279,258.333,295.263z M135.937,295.649c0,0.049,0,0.094,0,0.142c9.333,0,19.036,1.555,27.877-0.534
				c6.197-1.461,15.315-7.292,16.023-12.2c2.131-14.798,1.966-30.239,0.109-45.107c-0.58-4.628-9.137-10.881-14.515-11.396
				c-3.771-0.364-9.372,7.183-12.217,12.274c-1.898,3.396-0.937,8.767-0.309,13.117c1.773,12.343-4.052,15.422-15.283,14.596
				c-10.553-0.779-21.282-0.747-31.807,0.27c-8.496,0.821-15.331,5.107-14.753,15.402c0.541,9.739,7.757,12.636,15.564,13.254
				C116.344,296.235,126.162,295.649,135.937,295.649z M120.264,263.547c14.849,0.128,31.671-14.18,31.353-26.664
				c-0.441-17.224-14.743-32.369-30.761-32.575c-16.236-0.209-29.135,12.812-29.273,29.544
				C91.435,251.405,103.026,263.402,120.264,263.547z"/>
		</g>
		<g>
			<path fill-rule="evenodd" clip-rule="evenodd" fill="#265691" d="M337.715,299.504c0-15.09-0.035-30.123,0.02-45.152
				c0.02-4.897,0.01-9.825,0.489-14.688c0.956-9.7,7.354-14.473,16.274-14.241c9.005,0.235,15.033,5.838,15.677,15.168
				c0.65,9.32,0.341,18.717,0.348,28.079c0.02,35.678-0.645,71.372,0.303,107.026c0.396,14.972-8.709,12.207-17.359,12.658
				c-9.453,0.495-16.619-0.032-15.603-13.096c0.85-10.913,3.344-26.782-2.427-31.81c-6.826-5.947-21.736-3.166-33.145-3.198
				c-66.447-0.193-132.902-0.104-199.353-0.097c-17.295,0.003-17.302,0.028-17.337,17.854c-0.01,4.457,0.007,8.921-0.003,13.379
				c-0.036,17.564-0.062,16.935-17.556,17.693c-11.418,0.499-15.605-2.684-15.477-14.839c0.596-56.185,0.234-112.382,0.315-168.573
				c0.013-9.687,0.817-19.293,13.313-21.153c11.937-1.773,18.477,4.367,18.586,18.142c0.231,28.539,0.331,57.085-0.094,85.625
				c-0.132,8.821,1.902,12.757,11.734,12.715c77.151-0.318,154.303-0.17,231.457-0.229
				C330.493,300.769,333.104,300.12,337.715,299.504z"/>
		</g>
		<g>
			<path fill-rule="evenodd" clip-rule="evenodd" fill="#265691" d="M258.333,295.269c-20.451,0.01-40.917-0.283-61.362,0.146
				c-9.018,0.189-13.015-2.804-12.737-12.21c0.45-15.107,0.386-30.239,0.009-45.349c-0.202-8.252,2.302-12.027,11.315-11.924
				c35.125,0.393,70.265-0.177,105.386,0.373c22.47,0.354,29.624,8.538,29.795,31.51c0.063,8.448-0.496,16.938,0.145,25.338
				c0.733,9.642-3.614,12.387-12.516,12.226C298.362,295.012,278.345,295.263,258.333,295.269z"/>
		</g>
		<g>
			<path fill-rule="evenodd" clip-rule="evenodd" fill="#265691" d="M135.937,295.649c-9.774,0-19.593,0.586-29.309-0.183
				c-7.808-0.618-15.023-3.515-15.564-13.254c-0.578-10.295,6.257-14.581,14.753-15.402c10.524-1.017,21.254-1.049,31.807-0.27
				c11.231,0.826,17.057-2.253,15.283-14.596c-0.628-4.351-1.59-9.722,0.309-13.117c2.845-5.092,8.445-12.639,12.217-12.274
				c5.378,0.515,13.935,6.768,14.515,11.396c1.856,14.868,2.021,30.31-0.109,45.107c-0.708,4.908-9.826,10.739-16.023,12.2
				c-8.841,2.089-18.544,0.534-27.877,0.534C135.937,295.743,135.937,295.698,135.937,295.649z"/>
		</g>
		<g>
			<path fill-rule="evenodd" clip-rule="evenodd" fill="#265691" d="M120.264,263.547c-17.237-0.146-28.829-12.143-28.682-29.695
				c0.139-16.731,13.037-29.753,29.273-29.544c16.018,0.206,30.319,15.352,30.761,32.575
				C151.935,249.368,135.112,263.675,120.264,263.547z"/>
		</g>
	</g>
</g>
<g>
	<path fill="#265691" d="M109.858,121.226v20.365h21.498v-20.365h9.275v50.839h-9.275v-22.402h-21.498v22.402h-9.277v-50.839
		H109.858z"/>
	<path fill="#265691" d="M196.366,146.119c0,17.044-10.334,26.776-24.366,26.776c-14.331,0-23.38-10.939-23.38-25.872
		c0-15.615,9.806-26.628,24.137-26.628C187.615,120.396,196.366,131.637,196.366,146.119z M158.426,146.872
		c0,10.333,5.204,18.556,14.103,18.556c8.976,0,14.031-8.3,14.031-18.933c0-9.581-4.754-18.631-14.031-18.631
		C163.327,127.865,158.426,136.387,158.426,146.872z"/>
	<path fill="#265691" d="M212.045,128.995h-14.481v-7.769h38.391v7.769H221.32v43.07h-9.275V128.995z"/>
	<path fill="#265691" d="M270.341,149.511h-19.158v14.936h21.421v7.618h-30.699v-50.839h29.569v7.618h-20.291v13.124h19.158V149.511
		z"/>
	<path fill="#265691" d="M280.742,121.226h9.278v43.07h20.893v7.769h-30.171V121.226z"/>
</g>
<g>
	<path fill="#265691" d="M387.782,421.575H37.943C15.956,421.575,0,405.062,0,382.312V39.261C0,16.511,15.956,0,37.943,0h349.839
		c21.986,0,37.943,16.511,37.943,39.261v343.051C425.726,405.062,409.769,421.575,387.782,421.575z M37.943,6.591
		c-18.167,0-31.353,13.741-31.353,32.67v343.051c0,18.932,13.186,32.672,31.353,32.672h349.839c18.166,0,31.352-13.74,31.352-32.672
		V39.261c0-18.93-13.186-32.67-31.352-32.67H37.943z"/>
</g>
</svg>
