<?xml version="1.0" encoding="utf-8"?>
<!-- Generator: Adobe Illustrator 16.0.0, SVG Export Plug-In . SVG Version: 6.00 Build 0)  -->
<!DOCTYPE svg PUBLIC "-//W3C//DTD SVG 1.1//EN" "http://www.w3.org/Graphics/SVG/1.1/DTD/svg11.dtd">
<svg version="1.1" id="Layer_1" xmlns="http://www.w3.org/2000/svg" xmlns:xlink="http://www.w3.org/1999/xlink" x="0px" y="0px"
	 width="421.059px" height="421.059px" viewBox="0 0 421.059 421.059" enable-background="new 0 0 421.059 421.059"
	 xml:space="preserve">
<g>
	<path fill="#265691" d="M366.835,50.152c0,0-11.534-1.767-32.132,22.971v120.15h16.066v69.795h-6.18v100.716
		c0,0,16.478,12.367,26.364,0v-96.298L366.835,50.152z"/>
</g>
<g>
	<path fill="#265691" d="M99.898,66.055c0,0-4.119-6.186-6.591,0c-2.472,6.184,0,39.755,0,39.755l-9.821-0.831l-0.889-41.675h-7.415
		v42.505l-8.489-0.081l-2.221-42.425h-4.943v42.505h-9.062V63.305h-8.239v113.182c0,0,14.83,7.069,19.773,7.069v73.327l-5.768,6.186
		l0.824,94.53c0,0,9.062,17.67,26.364,0l3.295-94.53l-6.591-0.884l1.647-77.745l18.125-4.418V66.055z"/>
</g>
<g>
	<g>
		<path fill="#265691" d="M214.012,156.611c-44.604,0-80.766,35.399-80.766,79.071c0,43.667,36.161,79.067,80.766,79.067
			c44.593,0,80.753-35.4,80.753-79.067C294.765,192.01,258.604,156.611,214.012,156.611z"/>
	</g>
	<g>
		<path fill="#265691" d="M213.594,121.712c-62.791,0-113.695,51.223-113.695,114.409c0,63.188,50.904,114.41,113.695,114.41
			c62.792,0,113.695-51.223,113.695-114.41C327.289,172.935,276.386,121.712,213.594,121.712z M214.006,324.027
			c-49.825,0-90.215-39.553-90.215-88.347c0-48.795,40.39-88.348,90.215-88.348s90.215,39.552,90.215,88.348
			C304.221,284.474,263.831,324.027,214.006,324.027z"/>
	</g>
</g>
<g>
	<path fill="#265691" d="M383.318,421.059H38.926c-21.138,0-38.333-17.197-38.333-38.333V38.333C0.593,17.197,17.788,0,38.926,0
		h344.393c21.138,0,38.333,17.197,38.333,38.333v344.393C421.651,403.862,404.456,421.059,383.318,421.059z M38.926,13.182
		c-13.867,0-25.15,11.283-25.15,25.151v344.393c0,13.867,11.283,25.15,25.15,25.15h344.393c13.868,0,25.151-11.283,25.151-25.15
		V38.333c0-13.868-11.283-25.151-25.151-25.151H38.926z"/>
</g>
</svg>
