<?xml version="1.0" encoding="utf-8"?>
<!-- Generator: Adobe Illustrator 16.0.0, SVG Export Plug-In . SVG Version: 6.00 Build 0)  -->
<!DOCTYPE svg PUBLIC "-//W3C//DTD SVG 1.1//EN" "http://www.w3.org/Graphics/SVG/1.1/DTD/svg11.dtd">
<svg version="1.1" id="Layer_1" xmlns="http://www.w3.org/2000/svg" xmlns:xlink="http://www.w3.org/1999/xlink" x="0px" y="0px"
	 width="433.095px" height="474.061px" viewBox="0 0 433.095 474.061" enable-background="new 0 0 433.095 474.061"
	 xml:space="preserve">
<g>
	<g>
		<g>
			<path fill-rule="evenodd" clip-rule="evenodd" fill="#265691" d="M214.898,63.902c2.285,3.63,4.566,7.261,6.894,10.955
				c21.33-11.405,46.059-9.427,49.309,5.433c-13.396-2.752-26.135-2.028-37.85,6.166c20.221-6.295,39.994-10.997,51.139,15.261
				c-9.445-2.163-18.811-4.824-28.369-6.25c-4.178-0.624-8.738,1.274-12.859,3.128c12.318-4.196,38.332,4.162,45.746,15.29
				c1.256,1.883,2.84,4.535,2.398,6.396c-2.6,11.038,3.102,20.796,4.344,31.2c0.361,2.997,2.01,5.839,3.799,10.769
				c-16.475-6.256-21.125-21.295-32.855-31.497c0,2.626-0.791,5.594,0.168,7.801c1.898,4.361,4.631,8.391,7.26,12.394
				c8.119,12.358,7.496,21.205-3.971,33.65c2.129-19.055-8.877-29.247-22.416-38.751c9.771,14.93,7.412,27.577-7.898,39.649
				c7.088-17.56,4.088-32.006-7.473-44.737c1.947,7.485,3.143,15.286,6.096,22.348c2.135,5.101,2.182,9.088-0.842,13.295
				c-2.707,3.742-5.629,7.327-9.795,10.462c4.586-11.261,4.971-21.559-4.678-31.899c-2.467,39.733,2.605,78.919,0.025,118.622
				c2.088-0.184,3.936-0.344,7.443-0.653c-3.086,4.116-5.271,7.025-7.453,9.938c0.459,0.393,0.926,0.788,1.383,1.181
				c2.768-1.815,5.539-3.637,9.658-6.34c-0.559,3.505-0.836,5.217-1.402,8.773c5.113-2.7,9.232-4.873,14.318-7.557
				c-3.846,7.939-7.139,14.742-10.779,22.257c-12.773,0-26.299,0.943-39.568-0.479c-5.033-0.544-9.484-6.542-13.919-9.841
				c3.267-9.131,9.935-6.337,16.088-5.719c-1.158-3.309-2.099-5.996-3.565-10.192c3.276,1.966,5.162,3.099,5.786,3.476
				c1.806-5.944,3.669-12.095,5.391-17.777c0-33.471,0-67.021,0-100.574c-1.148-0.151-2.295-0.31-3.443-0.461
				c-3.402,12.555-6.807,25.109-10.254,37.815c-13.224-9.24-3.073-21.557-6.137-32.833c-1.963,10.588-3.917,21.176-6.198,33.499
				c-10.808-14.634-7.988-30.319-9.388-46.655c-11.645,9.983-11.387,24.037-15.856,36.15c-12.468-20.107-7.956-35.233,15.544-53.346
				c-8.754-0.843-25.058,12.265-29.177,23.451c-3.875-6.98-0.766-16.87,6.842-28.909c6.739-10.659,17.353-10.994,29.042-12.403
				c-14.01-6.359-23.13-4.014-42.281,10.801c1.416-5.989,2.426-10.254,3.617-15.316c-5.311-2.584-2.923-7.482-0.618-11.855
				c4.666-8.873,16.374-14.18,26.531-12.703c1.931,0.283,3.978-0.212,5.974-0.344c-0.146-1.085-0.29-2.166-0.432-3.247
				c-10.176,1.406-20.346,2.812-29.979,4.145c3.562-10.308,31.337-19.084,50.562-11.167c6.218-4.512,11.93-8.65,17.636-12.796
				C210.588,63.902,212.742,63.902,214.898,63.902z M264.835,113.74c0-0.505,0.008-1.017,0.01-1.519c-9.842,0-19.68,0-29.518,0
				c0.023,0.502,0.041,1.014,0.064,1.519C245.208,113.74,255.021,113.74,264.835,113.74z M166.566,99.255
				c-11.155-2.131-19.354,1.036-21.145,6.594C151.736,103.88,158.208,101.858,166.566,99.255z"/>
		</g>
		<g>
			<path fill-rule="evenodd" clip-rule="evenodd" fill="#265691" d="M397.46,293.316c-16.227-2.089-32.455-5.928-48.686-5.932
				c-41.465-0.013-79.916,9.378-109.184,41.963c-3.035,3.383-6.748,6.16-9.803,8.908c5.471,6.257,10.258,11.734,15.541,17.784
				c4.201-5.667,6.02-13.407,13.986-10.688c2.34,0.798,5.553,5.12,5.057,6.903c-1.113,4.013-4.307,7.453-7.717,12.796
				c0.537,0.502,2.842,2.591,5.053,4.77c4.029,3.961,7.977,8.007,12.016,11.959c4.312,4.219,9.092,4.415,13.768,0.865
				c8.912-6.771,14.078-7.598,18.316-2.529c5.336,6.365,3.379,16.191-4.219,22.837c-11.658,10.195-30.99,9.023-39.914-1.751
				c-6.654-8.036-14.781-14.858-22.289-22.187c-0.309-0.3-0.982-0.229-0.838,1.171c-4.404,2.054-8.672,5.037-13.287,5.726
				c-1.912,0.286-6.941-5.413-6.439-6.523c1.873-4.119,5.451-7.466,8.389-11.103c1.057-0.084,2.111-0.168,3.168-0.251
				c-4.355-4.905-8.713-9.81-14.875-16.755c-2.69,3.579-4.489,6.553-6.845,8.992c-4.316,4.467-8.49,8.129,0.646,12.312
				c4.178,1.912,5.89,6.72,1.963,10.795c-3.752,3.881-8.245,5.178-12.399,0.154c-1.484-1.793-2.784-3.733-5.102-6.868
				c-7.962,8.31-15.939,15.747-22.855,24.066c-13.375,16.098-41.336,9.571-46.749-7.045c-2.227-6.826-0.234-11.795,4.576-15.621
				c5.06-4.029,9.978-1.838,14.335,2.291c6.777,6.414,9.854,6.163,16.722-0.531c5.535-5.396,11.254-10.613,15.698-14.784
				c-3.115-5.027-6.353-9.359-8.328-14.206c-0.39-0.959,4.721-5.985,6.166-5.532c4.757,1.5,8.998,4.65,14.939,8.011
				c2.838-4,7.118-10.034,11.785-16.619c-19.046-22.512-45.068-38.964-78.214-45.979c-29.428-6.224-57.623-1.13-86.271,2.601
				c0-0.537,0-1.078,0-1.615c33.209-16.259,68.027-20.742,103.966-12.41c24.713,5.729,45.799,18.934,64.395,36.028
				c3.732,3.428,6.951,7.412,11.215,12.011c53.096-54.598,113.752-66.387,182.315-35.629
				C397.46,292.238,397.46,292.779,397.46,293.316z"/>
		</g>
		<g>
			<path fill-rule="evenodd" clip-rule="evenodd" fill="#265691" d="M264.835,113.74c-9.814,0-19.627,0-29.443,0
				c-0.023-0.505-0.041-1.017-0.064-1.519c9.838,0,19.676,0,29.518,0C264.843,112.724,264.835,113.235,264.835,113.74z"/>
		</g>
		<g>
			<path fill-rule="evenodd" clip-rule="evenodd" fill="#265691" d="M166.566,99.255c-8.358,2.604-14.83,4.625-21.145,6.594
				C147.211,100.291,155.411,97.124,166.566,99.255z"/>
		</g>
	</g>
	<g>
		<path fill="#265691" d="M0.748,1.03v474.061h433.095V1.03H0.748z M409.233,448.153H25.358V27.967h383.875V448.153z"/>
	</g>
</g>
</svg>
