<?xml version="1.0" encoding="utf-8"?>
<!-- Generator: Adobe Illustrator 16.0.0, SVG Export Plug-In . SVG Version: 6.00 Build 0)  -->
<!DOCTYPE svg PUBLIC "-//W3C//DTD SVG 1.1//EN" "http://www.w3.org/Graphics/SVG/1.1/DTD/svg11.dtd">
<svg version="1.1" id="Layer_1" xmlns="http://www.w3.org/2000/svg" xmlns:xlink="http://www.w3.org/1999/xlink" x="0px" y="0px"
	 width="481.144px" height="405.762px" viewBox="0 0 481.144 405.762" enable-background="new 0 0 481.144 405.762"
	 xml:space="preserve">
<g>
	<g>
		<path fill="#265691" d="M206.4,103.025c0,0-29.569-3.11-45.133,19.192c-15.561,22.306-15.561,27.497-15.561,43.058
			c0,15.56-14.003,59.65-20.748,74.178c-6.746,14.527-45.648,100.118-45.648,100.118l27.49,17.118
			c0,0,59.137-105.305,63.806-101.155c4.667,4.148,45.133,97.523,45.133,97.523h37.345c0,0-59.132-152.509-59.132-155.623
			c0-3.112,9.854-33.196,14.006-28.01c4.148,5.185,9.333,16.082,22.303,19.712c12.97,3.632,61.732,18.675,61.732,18.675
			l10.376-10.895c0,0-69.515-30.091-68.993-45.651C233.894,135.705,219.885,106.139,206.4,103.025z"/>
	</g>
	<g>
		<ellipse fill="#265691" cx="226.113" cy="75.975" rx="30.607" ry="26.9"/>
	</g>
	<g>
		<polygon fill="#265691" points="331.188,212.243 292.492,246.516 335.61,256.467 335.61,342.702 367.674,342.702 367.674,256.467 
			414.107,217.772 		"/>
	</g>
</g>
<g>
	<path fill="#265691" d="M374.851,386.881h-52.441v-13.183h52.441V386.881z M269.968,386.881h-52.44v-13.183h52.44V386.881z
		 M165.087,386.881h-52.439v-13.183h52.439V386.881z M58.204,382.854c-18.824-7.567-32.112-24.745-34.681-44.83l13.076-1.671
		c1.962,15.352,12.125,28.483,26.521,34.271L58.204,382.854z M429.426,379.744l-6.449-11.496
		c13.52-7.583,21.916-21.909,21.916-37.391l13.183-0.2v0.2C458.075,351.1,447.098,369.834,429.426,379.744z M36.25,284.767H23.068
		v-52.441H36.25V284.767z M458.075,278.216h-13.183v-52.44h13.183V278.216z M36.25,179.885H23.068v-52.44H36.25V179.885z
		 M458.075,173.336h-13.183v-52.442h13.183V173.336z M23.068,75.003v-0.1c0-20.196,10.939-38.909,28.549-48.834l6.473,11.482
		c-13.471,7.594-21.84,21.905-21.84,37.352L23.068,75.003z M444.536,69.323c-1.996-15.348-12.185-28.461-26.593-34.22l4.892-12.239
		c18.84,7.529,32.163,24.681,34.773,44.76L444.536,69.323z M368.395,32.062h-52.441V18.88h52.441V32.062z M263.515,32.062h-52.441
		V18.88h52.441V32.062z M158.633,32.062h-52.441V18.88h52.441V32.062z"/>
</g>
<g>
	<path fill="#265691" d="M422.236,405.762H58.907C26.425,405.762,0,379.337,0,346.855V58.907C0,26.425,26.425,0,58.907,0h363.329
		c32.482,0,58.907,26.425,58.907,58.907v287.948C481.144,379.337,454.719,405.762,422.236,405.762z M58.907,6.591
		c-28.847,0-52.316,23.469-52.316,52.316v287.948c0,28.847,23.47,52.315,52.316,52.315h363.329
		c28.849,0,52.316-23.469,52.316-52.315V58.907c0-28.847-23.468-52.316-52.316-52.316H58.907z"/>
</g>
</svg>
