<?xml version="1.0" standalone="no"?>
<!DOCTYPE svg PUBLIC "-//W3C//DTD SVG 1.1//EN" "http://www.w3.org/Graphics/SVG/1.1/DTD/svg11.dtd" >
<svg xmlns="http://www.w3.org/2000/svg" xmlns:xlink="http://www.w3.org/1999/xlink" version="1.1">
<metadata></metadata>
<defs>
<font id="hsn_saranormal" horiz-adv-x="1204" >
<font-face units-per-em="2048" ascent="1638" descent="-410" />
<missing-glyph horiz-adv-x="389" />
<glyph horiz-adv-x="0" />
<glyph unicode="&#xd;" horiz-adv-x="473" />
<glyph unicode=" "  horiz-adv-x="389" />
<glyph unicode="&#x09;" horiz-adv-x="389" />
<glyph unicode="&#xa0;" horiz-adv-x="389" />
<glyph unicode="!" horiz-adv-x="487" d="M154 80q0 -41 26.5 -67.5t67.5 -26.5t68.5 27.5t27.5 66.5t-28.5 67.5t-67.5 28.5t-66.5 -28.5t-27.5 -67.5zM172 1217q0 -119 9 -270.5t23.5 -329t18.5 -255.5h51q4 78 18.5 255.5t24 329t9.5 270.5q0 59 -17.5 79.5t-60.5 20.5q-41 0 -58.5 -20.5t-17.5 -79.5z" />
<glyph unicode="&#x22;" horiz-adv-x="780" d="M268 1235q0 -94 150 -94q0 -82 -28 -137.5t-81 -116.5l43 -33q137 141 137 293q0 72 -30.5 126t-96.5 54q-41 0 -67.5 -25.5t-26.5 -66.5zM555 1235q0 -94 150 -94q0 -82 -28 -137.5t-81 -116.5l43 -33q137 141 137 293q0 72 -30.5 126t-96.5 54q-41 0 -67.5 -25.5 t-26.5 -66.5z" />
<glyph unicode="#" horiz-adv-x="2496" />
<glyph unicode="$" horiz-adv-x="993" d="M96 322q0 -135 103.5 -217t238.5 -82h13v-164h57v168q166 23 263 122t97 252q0 86 -28.5 148.5t-86 104.5t-110.5 65.5t-135 50.5v469h27q82 0 144 -30.5t62 -84.5q-12 2 -34 2q-72 0 -72 -86q0 -37 23.5 -59.5t58.5 -22.5q43 0 68.5 32t25.5 79q0 113 -91 168t-212 55 v181h-57v-183q-143 -23 -224.5 -109.5t-81.5 -217.5q0 -104 79.5 -183t226.5 -118v-586h-9q-98 0 -184 49t-100 139q127 0 127 88q0 45 -23.5 71t-62.5 26q-47 0 -75 -38t-28 -89zM246 1016q0 80 60.5 146.5t144.5 72.5v-449q-111 43 -158 90.5t-47 139.5zM508 80v567 q127 -39 193.5 -103.5t66.5 -183.5q0 -115 -71.5 -189.5t-188.5 -90.5z" />
<glyph unicode="%" horiz-adv-x="954" d="M154 1292l39 -182h176l-39 182h-176zM170 -18l98 -54l537 1397l-96 51zM623 233l41 -184h176l-41 184h-176z" />
<glyph unicode="&#x26;" horiz-adv-x="2031" />
<glyph unicode="'" horiz-adv-x="356" d="M231 1233q0 -33 2 -47l31 -383q0 -2 1 -11.5t2 -15.5t4 -14t8.5 -12.5t13.5 -4.5t13 4.5t8 12.5t4 14t2.5 15.5t1.5 11.5l30 383q2 14 2 47q0 106 -61.5 106t-61.5 -106z" />
<glyph unicode="(" horiz-adv-x="768" d="M154 496q0 -207 66.5 -393.5t209.5 -317.5t338 -133v53q-215 0 -350 222.5t-135 568.5t135 568t350 222v53q-195 -4 -338 -133t-209.5 -315t-66.5 -395z" />
<glyph unicode=")" horiz-adv-x="845" d="M229 -295v-53q147 2 268 77.5t195 197.5t114 268.5t40 300.5q0 209 -66.5 395t-211 315t-339.5 133v-53q215 0 350.5 -222t135.5 -568t-135.5 -568.5t-350.5 -222.5z" />
<glyph unicode="*" horiz-adv-x="948" d="M166 889l196 -64l-120 -166l112 -81l119 163l121 -163l115 81l-121 166l194 62l-43 135l-194 -64v205h-142l3 -202l-195 63z" />
<glyph unicode="+" horiz-adv-x="1146" d="M125 555h401v-401h97v401h401v96h-401v402h-97v-402h-401v-96z" />
<glyph unicode="-" d="M125 410h956v79h-956v-79z" />
<glyph unicode="." horiz-adv-x="501" d="M166 94q0 -41 27.5 -68.5t68.5 -27.5q39 0 67.5 28.5t28.5 67.5t-28.5 66.5t-67.5 27.5t-67.5 -27.5t-28.5 -66.5z" />
<glyph unicode="/" horiz-adv-x="872" d="M229 -23h97l489 1362h-96z" />
<glyph unicode="0" horiz-adv-x="466" d="M172 367l31 -105q4 2 12 7t29.5 22.5t32 38t21.5 55.5t-1 74l-31 116q-14 -8 -34.5 -25.5t-48 -71.5t-11.5 -111z" />
<glyph unicode="1" horiz-adv-x="495" d="M104 1069q132 -475 271 -1071q-4 0 15.5 43t35.5 122t0 148q-135 584 -207 957q-6 -2 -14 -5t-29.5 -17.5t-37 -35t-27 -58.5t-7.5 -83z" />
<glyph unicode="2" horiz-adv-x="698" d="M70 995q154 -590 249 -997q-4 0 15.5 43t36 122t0.5 148l-156 695q-18 80 30 133t128 53q137 0 241 -148q4 -4 8.5 -4t9.5 7.5t5 13.5q0 4 -4 8q-45 76 -135 138.5t-199 62.5q-121 0 -188.5 -87t-40.5 -188z" />
<glyph unicode="3" horiz-adv-x="1071" d="M45 1217q182 -680 305 -1215q0 4 15.5 40t26.5 72t18.5 93t-7.5 104l-114 500q80 -129 178 -129q51 0 96 39t49 113q84 -150 191 -150q63 0 112.5 58.5t26.5 164.5q-16 74 -22.5 99.5t-15.5 60.5t-25 109q-10 35 24 34q29 0 76 -14q8 -2 13 4t5 12q0 2 -4 7 q-94 53 -223 53q-45 0 -31 -53q20 -84 37 -133.5t39 -141.5q23 -72 21 -116t-48 -48q-70 -6 -125 53.5t-79 176.5q-8 33 -25 104q-16 72 -31 115q-12 33 -32 39q-8 2 -62 2q-45 0 -31 -53q4 -14 31 -92t49 -171q23 -72 19 -122t-49 -54q-70 -6 -123.5 52.5t-79.5 173.5 l-39 182q0 4 -6 29.5t-8 31.5q-4 23 -33 23h-88q-43 0 -31 -53zM350 2q0 -2 1 -2t1 -2q-2 0 -2 4z" />
<glyph unicode="4" horiz-adv-x="952" d="M123 1034q0 -133 99.5 -229t230.5 -127l2 -6q-119 -6 -199 -83t-80 -181q0 -125 81 -222.5t193.5 -142.5t229.5 -45q158 0 227 80q6 6 1 19.5t-9 13.5q-2 0 -6 -5q-66 -55 -199 -55q-137 0 -242.5 98.5t-105.5 241.5q0 98 66.5 169t201.5 77h31q8 -2 11 6t3 23q0 6 -8 6 q-158 16 -264 112.5t-106 231.5q0 76 42 130t117 54q137 0 250 -125q4 -4 6 -4q6 0 10.5 14.5t-1.5 22.5q-47 61 -141.5 110.5t-190.5 49.5q-119 0 -184.5 -67.5t-65.5 -166.5z" />
<glyph unicode="5" horiz-adv-x="933" d="M110.5 548q-18.5 -124 18.5 -263q43 -139 160 -213t282 -74q197 0 261.5 82t21.5 276q-14 66 -51 147t-96.5 170t-149.5 143t-188 44q-96 -10 -168 -99t-90.5 -213zM244 628q26 167 129 181q31 4 58.5 -3t52 -27.5t44 -42t39 -59.5t32.5 -65.5t28.5 -73.5t23.5 -71 t21.5 -70t17.5 -57q41 -119 21.5 -183.5t-53.5 -85t-87 -20.5q-92 0 -172 78t-118 176q-63 156 -37 323z" />
<glyph unicode="6" horiz-adv-x="851" d="M41 1165q0 -53 20 -94q8 -18 31 -16q8 0 8 8q-4 68 29 115t92 47q106 0 178 -52.5t95 -144.5q176 -684 258 -1030q-4 0 15 43t35.5 122t0.5 148q-97 406 -158 707q-27 127 -155 189.5t-306 62.5h-2q-141 0 -141 -105z" />
<glyph unicode="7" horiz-adv-x="778" d="M0 1255q0 -31 53 -133q43 -84 289 -534.5t279 -515.5q23 -43 43 -56.5t59 -15.5q33 -2 46 7t7 36l-231 1131q-10 35 24 34q29 0 76 -14q16 -2 19.5 7t-5.5 16q-37 20 -111.5 36.5t-129.5 16.5q-45 0 -31 -53l289 -1119q-33 55 -260.5 517t-274.5 595q-4 12 -10 19 q-55 41 -119 41q-12 0 -12 -15z" />
<glyph unicode="8" horiz-adv-x="894" d="M63 1198q-8 72 64 72q64 0 82 -43l543 -1118q35 -61 116 -13q8 4 17.5 1t7.5 -9q-96 -88 -211 -88q-59 0 -82 53l-469 1118l221 -1097q8 -39 -27.5 -56.5t-76.5 -17.5q-20 0 -21 14q-8 72 -81.5 587t-82.5 597z" />
<glyph unicode="9" horiz-adv-x="854" d="M43 823q12 -162 125 -243.5t283 -26.5q102 32 131 145q133 -530 172 -700q-4 0 14 43t34.5 122t2.5 148q-14 61 -96 394q-29 111 -53.5 189.5t-61.5 160.5t-78 130t-98.5 71.5t-124.5 9.5q-113 -25 -186.5 -159t-63.5 -284zM172 836q-20 127 5.5 241.5t107.5 139.5 q80 25 134 -62.5t118 -306.5q52 -188 -95 -256q-12 -4 -33.5 -7t-58.5 4t-70.5 28.5t-64.5 78t-43 140.5z" />
<glyph unicode=":" horiz-adv-x="638" d="M305 80q0 -41 26.5 -67.5t67.5 -26.5q39 0 68 27.5t29 66.5t-29 67.5t-68 28.5t-66.5 -28.5t-27.5 -67.5zM305 754q0 -41 26.5 -69t67.5 -28q39 0 68 29t29 68t-29 67.5t-68 28.5t-66.5 -28.5t-27.5 -67.5z" />
<glyph unicode="&#x3c;" horiz-adv-x="804" d="M131 508l428 -420l115 119l-305 301l305 301l-115 119z" />
<glyph unicode="=" horiz-adv-x="1146" d="M125 334h899v94h-899v-94zM125 705h899v94h-899v-94z" />
<glyph unicode="&#x3e;" horiz-adv-x="804" d="M131 207l115 -119l428 420l-428 420l-115 -119l305 -301z" />
<glyph unicode="[" horiz-adv-x="454" d="M154 -326h301v54h-74q-63 0 -86 34.5t-23 112.5v1241q0 78 22.5 112t86.5 34h74v55h-301v-1643z" />
<glyph unicode="\" horiz-adv-x="700" d="M57 1339l490 -1362h96l-489 1362h-97z" />
<glyph unicode="]" horiz-adv-x="532" d="M229 -272v-54h303v1643h-303v-55h76q63 0 86 -35t23 -111v-1241q0 -78 -22.5 -112.5t-86.5 -34.5h-76z" />
<glyph unicode="_" horiz-adv-x="1034" d="M0 -104v-82h1034v82h-1034z" />
<glyph unicode="{" horiz-adv-x="585" d="M0 442l53 -12q121 -29 121 -141v-309q0 -143 61.5 -225.5t170.5 -82.5h57v70l-62 10q-141 23 -141 217v324q0 74 -28.5 118t-104.5 56l-70 20q113 12 158 58.5t45 128.5v327q0 106 40 165t163 61v67h-57q-231 0 -232 -305v-309q0 -117 -121 -141l-53 -11v-86z" />
<glyph unicode="|" horiz-adv-x="270" d="M90 -332h88v1598h-88v-1598z" />
<glyph unicode="}" horiz-adv-x="585" d="M123 -258l61 10q141 23 142 217v324q0 74 28.5 118t104.5 56l69 20q-113 12 -157.5 58.5t-44.5 128.5v327q0 106 -40 165t-163 61v67h57q231 0 232 -305v-309q0 -117 120 -141l54 -11v-86l-54 -12q-121 -29 -120 -141v-309q0 -143 -61.5 -225.5t-170.5 -82.5h-57v70z" />
<glyph unicode="&#xab;" horiz-adv-x="1021" d="M137 393l246 -248q57 -55 57 -79q0 -33 -43 -66q99 24 99 96q0 31 -58 88l-209 209l209 207q57 57 58 90q0 72 -99 96q43 -31 43 -65q0 -31 -145 -176zM526 393l156 -151q147 -147 147 -176q0 -33 -43 -66q99 24 99 96q0 31 -58 88l-209 209l209 207q57 57 58 90 q0 72 -99 96q43 -33 43 -65q0 -29 -147 -176z" />
<glyph unicode="&#xad;" d="M125 410h956v79h-956v-79z" />
<glyph unicode="&#xbb;" horiz-adv-x="1021" d="M137 96q0 -72 99 -96q-43 33 -43 66q0 25 57 79l246 248l-156 152q-147 143 -147 176q0 35 43 65q-98 -25 -99 -96q0 -33 58 -90l208 -207l-208 -209q-57 -57 -58 -88zM526 96q0 -72 97 -96q-41 35 -41 66q0 25 57 79l246 248l-158 152q-145 145 -145 176q0 35 41 65 q-96 -25 -97 -96q0 -33 58 -90l207 -207l-207 -209q-57 -57 -58 -88z" />
<glyph unicode="&#xf7;" horiz-adv-x="923" />
<glyph unicode="&#x2000;" horiz-adv-x="736" />
<glyph unicode="&#x2001;" horiz-adv-x="1473" />
<glyph unicode="&#x2002;" horiz-adv-x="736" />
<glyph unicode="&#x2003;" horiz-adv-x="1473" />
<glyph unicode="&#x2004;" horiz-adv-x="491" />
<glyph unicode="&#x2005;" horiz-adv-x="368" />
<glyph unicode="&#x2006;" horiz-adv-x="245" />
<glyph unicode="&#x2007;" horiz-adv-x="245" />
<glyph unicode="&#x2008;" horiz-adv-x="184" />
<glyph unicode="&#x2009;" horiz-adv-x="294" />
<glyph unicode="&#x200a;" horiz-adv-x="81" />
<glyph unicode="&#x2010;" d="M125 410h956v79h-956v-79z" />
<glyph unicode="&#x2011;" d="M125 410h956v79h-956v-79z" />
<glyph unicode="&#x2012;" d="M125 410h956v79h-956v-79z" />
<glyph unicode="&#x2013;" horiz-adv-x="1272" d="M125 410h1024v79h-1024v-79z" />
<glyph unicode="&#x2014;" horiz-adv-x="2296" d="M125 410h2048v79h-2048v-79z" />
<glyph unicode="&#x201c;" horiz-adv-x="843" d="M137 928q0 -72 49 -135l88 86q-41 53 -41 114q0 104 113 217q-209 -111 -209 -282zM498 928q0 -72 51 -135l88 86q-43 51 -43 114q0 106 113 217q-209 -111 -209 -282z" />
<glyph unicode="&#x201d;" horiz-adv-x="843" d="M137 805q209 108 209 280q0 74 -49 138l-88 -88q41 -53 41 -113q0 -106 -113 -217zM498 805q209 108 209 282q0 72 -50 136l-88 -88q41 -53 41 -113q0 -106 -112 -217z" />
<glyph unicode="&#x202f;" horiz-adv-x="294" />
<glyph unicode="&#x205f;" horiz-adv-x="368" />
<glyph unicode="&#x25fc;" horiz-adv-x="1024" d="M0 0z" />
</font>
</defs>
</svg>
