<?xml version="1.0" standalone="no"?>
<!DOCTYPE svg PUBLIC "-//W3C//DTD SVG 1.1//EN" "http://www.w3.org/Graphics/SVG/1.1/DTD/svg11.dtd" >
<svg xmlns="http://www.w3.org/2000/svg" xmlns:xlink="http://www.w3.org/1999/xlink" version="1.1">
<metadata></metadata>
<defs>
<font id="shorooq_n1regular" horiz-adv-x="837" >
<font-face units-per-em="2048" ascent="1400" descent="-648" />
<missing-glyph horiz-adv-x="225" />
<glyph horiz-adv-x="0" />
<glyph unicode="&#xd;" horiz-adv-x="682" />
<glyph unicode=" "  horiz-adv-x="225" />
<glyph unicode="&#x09;" horiz-adv-x="225" />
<glyph unicode="&#xa0;" horiz-adv-x="225" />
<glyph unicode="!" horiz-adv-x="432" d="M66 1138l259 83q10 -400 -8 -975l-212 2q20 458 -39 890zM67 -26l148 148q92 -66 144 -148l-144 -148q-52 84 -148 148z" />
<glyph unicode="&#x22;" horiz-adv-x="405" d="M50 1074q30 183 3 352l137 45q-5 -159 -38 -389zM220 1074q30 183 3 352l137 45q-5 -159 -38 -389z" />
<glyph unicode="#" horiz-adv-x="996" d="M0 206l44 192h199l23 103h-199l44 192h199l46 199h192l-46 -199h103l45 199h193l-46 -199h199l-44 -192h-199l-23 -103h199l-44 -192h-199l-46 -199h-192l45 199h-102l-46 -199h-192l46 199h-199zM435 398h102l24 103h-103z" />
<glyph unicode="$" horiz-adv-x="745" d="M60 203l45 186q102 -72 225 -72q139 0 139 99q0 51 -60 94l-136 73q-197 107 -197 269q0 134 91 214q89 79 236 79q146 0 243 -29l-31 -191q-117 36 -197 36q-138 0 -138 -95q0 -41 63 -81q22 -14 66 -36q56 -28 73 -38q203 -112 203 -282q0 -135 -98 -217 q-96 -79 -241 -79q-186 0 -286 70zM230 0v1298h99v-1298h-99zM416 0v1298h99v-1298h-99z" />
<glyph unicode="%" horiz-adv-x="1632" d="M45 803q0 218 98 331q82 94 204 94q125 0 207 -94q98 -113 98 -331t-98 -331q-82 -94 -207 -94q-122 0 -204 94q-98 113 -98 331zM217 803q0 -142 45 -207q34 -49 85 -49q58 0 93 60q40 65 40 196t-40 197q-35 59 -93 59q-51 0 -85 -49q-45 -65 -45 -207zM456 -44 l511 1354l201 -20l-512 -1354zM980 403q0 218 97 331q83 94 205 94q124 0 206 -94q99 -113 99 -331t-99 -331q-82 -94 -206 -94q-122 0 -205 94q-97 113 -97 331zM1152 403q0 -142 45 -207q33 -49 85 -49q58 0 93 60q40 65 40 196t-40 197q-35 59 -93 59q-52 0 -85 -49 q-45 -65 -45 -207z" />
<glyph unicode="&#x26;" horiz-adv-x="1201" d="M50 417q0 295 243 425q-1 17 -1 33q0 153 84 245q85 95 224 95q117 0 218 -43l-41 -269q-68 45 -149 45q-109 0 -109 -115q0 -76 86 -173l178 -203q70 130 80 321l232 -26q-14 -285 -141 -486l202 -224l-276 -54l-92 104q-139 -99 -326 -99q-207 0 -313 120 q-99 111 -99 304zM282 434q0 -179 198 -179q78 0 138 30l-152 177q-75 88 -106 142q-78 -43 -78 -170z" />
<glyph unicode="'" horiz-adv-x="190" d="M50 680q30 183 3 352l137 45q-5 -159 -38 -389z" />
<glyph unicode="(" horiz-adv-x="699" d="M71 464q0 472 308 944l154 -120l-234 -826l234 -826v-8l-154 -110q-308 478 -308 946z" />
<glyph unicode=")" horiz-adv-x="698" d="M192 -364l234 826l-234 826l154 120q308 -472 308 -944q0 -468 -308 -946l-154 110v8z" />
<glyph unicode="*" horiz-adv-x="764" d="M20 1082l58 241l200 -88l-13 218h239l-14 -218l196 88l58 -241l-204 -25l138 -160l-189 -138l-107 209l-107 -209l-189 138l138 160z" />
<glyph unicode="+" horiz-adv-x="1076" d="M123 458v231h327v327h231v-327h327v-231h-327v-327h-231v327h-327z" />
<glyph unicode="," horiz-adv-x="342" d="M17 -131q119 85 153 122q3 5 3 10q-168 58 -124 201q58 115 147 75q58 -23 73 -93q26 -100 -36 -212q-29 -63 -111 -133z" />
<glyph unicode="-" d="M80 431v246h678v-246h-678z" />
<glyph unicode="." horiz-adv-x="374" d="M22 147l148 148q92 -66 144 -148l-144 -148q-52 84 -148 148z" />
<glyph unicode="/" horiz-adv-x="852" d="M20 0l524 1398h283l-526 -1398h-281z" />
<glyph unicode="0" horiz-adv-x="801" d="M45 485q0 255 114 387q97 110 240 110q146 0 242 -110q115 -132 115 -387q0 -256 -115 -388q-96 -111 -242 -111q-143 0 -240 111q-114 132 -114 388zM247 485q0 -167 52 -243q40 -57 100 -57q68 0 109 69q47 77 47 231q0 153 -47 230q-41 69 -109 69q-60 0 -100 -57 q-52 -77 -52 -242z" />
<glyph unicode="1" horiz-adv-x="444" d="M20 710v161q194 3 251 119h123v-988h-221v708h-153z" />
<glyph unicode="2" horiz-adv-x="785" d="M50 0q12 180 86 290q69 107 234 199q78 45 101 65q46 41 46 98q0 114 -103 114q-111 0 -131 -163l-201 61q24 136 104 220q92 98 242 98q152 0 231 -101q66 -84 66 -212q0 -119 -61 -198q-40 -54 -124 -101q-121 -69 -140 -80q-48 -33 -65 -76h400v-214h-685z" />
<glyph unicode="3" horiz-adv-x="781" d="M50 197l158 113q76 -123 180 -123q53 0 89 26q43 31 43 87q0 58 -43 89q-37 27 -98 27h-75v185h93q102 0 102 85q0 36 -22 62q-27 35 -80 35q-106 0 -167 -139l-170 81q99 257 350 257q138 0 220 -76q72 -72 72 -181q0 -142 -118 -199v-8q66 -24 105 -85q42 -67 42 -164 q0 -101 -55 -172q-84 -109 -275 -109q-96 0 -162 28q-113 48 -189 181z" />
<glyph unicode="4" horiz-adv-x="810" d="M45 198q19 414 118 784h216q-79 -271 -104 -563h168v472h206v-472h116v-221h-116v-198h-206v198h-398z" />
<glyph unicode="5" horiz-adv-x="754" d="M50 206l157 120q48 -136 157 -136q63 0 100 48q33 44 33 107q0 64 -38 108q-43 49 -113 49q-85 0 -157 -83l-109 91l51 472h502v-203h-347l-10 -121q68 33 144 33q134 0 209 -100.5t75 -260.5q0 -142 -73 -236q-83 -108 -232 -108q-107 0 -179 37q-99 51 -170 183z" />
<glyph unicode="6" horiz-adv-x="784" d="M45 475q0 225 103 363q108 144 291 144q102 0 201 -40v-214q-81 56 -165 56q-164 0 -210 -182q50 18 101 39q58 21 105 21q124 0 196 -93t72 -247q0 -165 -96 -254q-86 -82 -224 -82q-183 0 -281 135q-93 129 -93 354zM254 380q22 -194 153 -194q57 0 93 32q39 36 39 104 t-37 104t-95 36q-37 0 -80 -26q-21 -13 -73 -56z" />
<glyph unicode="7" horiz-adv-x="849" d="M50 584v398h764q-89 -405 -346 -982h-255q207 434 303 762h-246v-178h-220z" />
<glyph unicode="8" horiz-adv-x="798" d="M50 294q0 94 49 156q41 53 104 71v4q-117 56 -117 197q0 102 64 172q83 88 248 88q166 0 248 -88q64 -70 64 -172q0 -141 -114 -197v-4q68 -20 110 -80.5t42 -146.5q0 -108 -51 -183q-86 -125 -299 -125q-194 0 -282 105q-66 79 -66 203zM263 309q0 -53 33 -87 q36 -36 102 -36q68 0 104 36q34 34 34 87q0 58 -38.5 90t-99.5 32q-59 0 -97 -32t-38 -90zM296 693q0 -92 102 -92q42 0 70 21q34 24 34 71q0 46 -34 71q-28 19 -70 19q-102 0 -102 -90z" />
<glyph unicode="9" horiz-adv-x="784" d="M45 647q0 165 95 254q87 81 225 81q182 0 281 -134q93 -129 93 -354t-104 -364q-108 -144 -291 -144q-101 0 -201 41v214q81 -56 165 -56q165 0 211 182q-51 -18 -101 -39q-59 -22 -105 -22q-125 0 -196.5 93.5t-71.5 247.5zM245 647q0 -69 37 -105t94 -36q38 0 81 27 q21 13 73 56q-23 193 -154 193q-57 0 -93 -32q-38 -36 -38 -103z" />
<glyph unicode=":" horiz-adv-x="402" d="M45 149l148 148q92 -66 144 -148l-144 -148q-52 84 -148 148zM45 540l148 148q92 -66 144 -148l-144 -148q-52 84 -148 148z" />
<glyph unicode=";" horiz-adv-x="380" d="M44 540l148 148q92 -66 144 -148l-144 -148q-52 84 -148 148zM55 -131q119 85 153 122q3 5 3 10q-168 58 -124 201q58 115 147 75q58 -23 73 -93q26 -100 -36 -212q-29 -63 -111 -133z" />
<glyph unicode="&#x3c;" horiz-adv-x="1030" d="M70 580l495 408h395l-501 -399l501 -427h-397z" />
<glyph unicode="=" horiz-adv-x="1102" d="M110 249v231h885v-231h-885zM110 633v231h885v-231h-885z" />
<glyph unicode="&#x3e;" horiz-adv-x="1030" d="M70 162l501 427l-501 399h395l495 -408l-493 -418h-397z" />
<glyph unicode="?" horiz-adv-x="704" d="M91 1004q40 96 77 141q69 83 170 83q116 0 196 -69q73 -63 101 -167q28 -101 3 -204q-26 -108 -102 -179q-25 -24 -75 -64q-60 -50 -79 -65q-90 -78 -107 -136l-80 248q12 19 168 164q131 123 131 187q0 17 -35 29t-83 12q-106 0 -182 -81q-23 -24 -44 -56l-15 -26 q-44 178 -44 183zM134 72q58 91 161 165l166 -165q-108 -72 -166 -166z" />
<glyph unicode="@" horiz-adv-x="1319" d="M40 433q0 288 186 464q179 169 452 169q269 0 433 -146q168 -150 168 -408q0 -183 -94 -292q-88 -102 -220 -102q-144 0 -202 83q-125 -81 -214 -81q-80 0 -129 51q-46 49 -46 126q0 117 90 176l265 20v37q0 82 -103 82q-77 0 -158 -48l-57 150q132 75 275 75 q243 0 243 -219l-4 -238q0 -79 71 -79q56 0 94 70q40 73 40 184q0 206 -127 315q-119 103 -328 103q-220 0 -353 -134q-131 -133 -131 -354q0 -209 120 -327q115 -113 306 -113q123 0 194 27l18 -145q-96 -28 -217 -28q-247 0 -405 152q-167 160 -167 430zM584 334 q0 -68 62 -68q32 0 79 19l2 97l-136 -13q-7 -19 -7 -35z" />
<glyph unicode="A" horiz-adv-x="1238" d="M19 0l461 1228h271l467 -1228h-291l-107 300h-429l-108 -300h-264zM462 516h275l-104 294q-20 57 -25 117h-15q-7 -78 -23 -117z" />
<glyph unicode="B" horiz-adv-x="991" d="M82 4v1216h128q191 9 275 9q180 0 280 -79q103 -80 103 -231q0 -195 -178 -270v-12q255 -57 255 -300q0 -149 -109 -244q-114 -98 -308 -98q-68 0 -307 9h-139zM341 209q28 -4 124 -4q200 0 200 150q0 166 -235 166h-89v-312zM341 714h71q194 0 194 167q0 152 -182 152 q-51 0 -83 -4v-315z" />
<glyph unicode="C" horiz-adv-x="1141" d="M45 586q0 310 199 485q176 157 441 157q262 0 410 -84l-79 -248q-130 84 -317 84q-353 0 -353 -390q0 -183 109 -273q95 -79 258 -79q180 0 326 91l56 -255q-165 -84 -401 -84q-274 0 -456 153q-193 165 -193 443z" />
<glyph unicode="D" horiz-adv-x="1240" d="M82 5v1211h106q247 12 345 12q296 0 473 -151q189 -160 189 -443q0 -311 -183 -481q-172 -160 -454 -160q-96 0 -354 12h-122zM350 231q103 -9 176 -9q166 0 266 103q101 105 101 289q0 201 -114 300q-99 85 -271 85q-34 0 -158 -9v-759z" />
<glyph unicode="E" horiz-adv-x="935" d="M80 0v1228h760v-239h-488v-254h434v-234h-434v-262h533v-239h-805z" />
<glyph unicode="F" horiz-adv-x="897" d="M80 0v1228h767v-238h-495v-329h441v-236h-441v-425h-272z" />
<glyph unicode="G" horiz-adv-x="1221" d="M45 593q0 310 199 482q176 153 441 153q259 0 445 -91l-69 -252q-160 95 -360 95q-355 0 -355 -383q0 -359 367 -359q106 0 167 23v283h271v-482q-179 -72 -454 -72q-290 0 -467 157q-185 163 -185 446z" />
<glyph unicode="H" horiz-adv-x="1260" d="M80 0v1228h277v-475h546v475h277v-1228h-277v513h-546v-513h-277z" />
<glyph unicode="I" horiz-adv-x="436" d="M80 0v1228h276v-1228h-276z" />
<glyph unicode="J" horiz-adv-x="514" d="M-36 23q220 23 220 198v1007h250v-1033q0 -176 -124 -282q-114 -98 -302 -113z" />
<glyph unicode="K" horiz-adv-x="1146" d="M80 0v1228h267v-530l433 530h322l-432 -484l466 -744h-309l-343 537l-137 -152v-385h-267z" />
<glyph unicode="L" horiz-adv-x="905" d="M80 0v1228h277v-987h528v-241h-805z" />
<glyph unicode="M" horiz-adv-x="1594" d="M50 0l99 1228h287l320 -815q20 -49 23 -97h16q9 55 25 97l342 815h287l95 -1228h-267l-49 702q-2 20 -2 91h-12q-13 -82 -25 -113l-290 -680h-258l-262 680q-17 43 -25 113h-13q0 -71 -2 -91l-52 -702h-237z" />
<glyph unicode="N" horiz-adv-x="1232" d="M80 0v1228h291l465 -633q39 -53 57 -98h12q-3 43 -3 93v638h250v-1228h-211l-545 756q-41 59 -57 100h-12q3 -43 3 -93v-763h-250z" />
<glyph unicode="O" horiz-adv-x="1357" d="M48 583q0 302 186 478q178 167 459 167q261 0 433 -157q183 -167 183 -441q0 -304 -194 -478q-179 -162 -457 -162q-248 0 -422 153q-188 167 -188 440zM349 607q0 -388 327 -388q153 0 241 102q91 105 91 292q0 196 -97 297q-86 89 -230 89t-232 -88 q-100 -100 -100 -304z" />
<glyph unicode="P" horiz-adv-x="976" d="M80 0v1217h145q207 11 291 11q198 0 307 -98q108 -98 108 -275q0 -205 -139 -320q-119 -99 -294 -99q-40 0 -148 1v-437h-270zM350 643h101q211 0 211 192q0 182 -198 182q-43 0 -114 -3v-371z" />
<glyph unicode="Q" horiz-adv-x="1252" d="M42 640q0 275 170 436q162 152 420 152q236 0 393 -144q167 -153 167 -401q0 -375 -311 -520v-6l351 -220l-217 -128l-449 297q-211 9 -360 144q-164 149 -164 390zM318 662q0 -180 82 -271q77 -85 214 -85q140 0 220 95q83 96 83 266q0 179 -88 271q-77 82 -208 82 q-136 0 -215 -82q-88 -93 -88 -276z" />
<glyph unicode="R" horiz-adv-x="1089" d="M80 0v1217h161q238 11 291 11q183 0 291 -89q113 -92 113 -258q0 -231 -209 -318v-12l372 -551h-301l-312 468h-142v-468h-264zM344 668h122q89 0 142 50q53 49 53 129q0 172 -196 172q-36 0 -121 -4v-347z" />
<glyph unicode="S" horiz-adv-x="889" d="M35 76l58 227q134 -88 294 -88q181 0 181 121q0 62 -79 115l-176 89q-257 131 -257 329q0 164 118 262q116 97 308 97q190 0 316 -35l-40 -234q-153 44 -257 44q-179 0 -179 -116q0 -51 82 -99q28 -17 85 -44q74 -35 96 -47q264 -137 264 -345q0 -165 -128 -265 q-125 -97 -313 -97q-243 0 -373 86z" />
<glyph unicode="T" horiz-adv-x="1111" d="M50 987v241h1011v-241h-366v-987h-279v987h-366z" />
<glyph unicode="U" horiz-adv-x="1175" d="M80 430v799h276v-738q0 -136 43 -190q53 -66 198 -66q135 0 194 65q55 61 55 197v732h249v-799q0 -193 -127 -312q-135 -128 -372 -128q-516 0 -516 440z" />
<glyph unicode="V" horiz-adv-x="1203" d="M12 1228h306l269 -815q18 -50 23 -107h18q7 64 22 107l271 815h270l-427 -1228h-316z" />
<glyph unicode="W" horiz-adv-x="1883" d="M28 1228h287l207 -771q7 -30 14 -84h16q2 34 16 82l241 773h284l259 -771q13 -39 18 -84h18q3 45 10 82l186 773h271l-335 -1228h-288l-267 807q-16 46 -18 87h-18q-9 -60 -18 -87l-255 -807h-286z" />
<glyph unicode="X" horiz-adv-x="1254" d="M17 0l462 622l-454 606h352l276 -407l270 407h314l-439 -595l438 -633h-322l-289 429l-296 -429h-312z" />
<glyph unicode="Y" horiz-adv-x="1169" d="M14 1228h331l229 -440q25 -44 32 -86h18q9 45 32 86l229 440h275l-418 -769v-459h-275v459z" />
<glyph unicode="Z" horiz-adv-x="1107" d="M50 0v227l657 762h-616v239h942v-211l-666 -778h680v-239h-997z" />
<glyph unicode="[" horiz-adv-x="652" d="M80 -399v2010h522v-241h-212v-1528h212v-241h-522z" />
<glyph unicode="\" horiz-adv-x="852" d="M20 1398h283l524 -1398h-281z" />
<glyph unicode="]" horiz-adv-x="652" d="M80 -158h212v1528h-212v241h522v-2010h-522v241z" />
<glyph unicode="^" horiz-adv-x="853" d="M50 277l267 589h211l275 -589l-190 -12l-191 395l-186 -395z" />
<glyph unicode="_" horiz-adv-x="678" d="M0 -2h678v-246h-678v246z" />
<glyph unicode="`" horiz-adv-x="300" d="M27 1281l211 -27q-18 -140 52 -287l-151 -1q-81 186 -112 315z" />
<glyph unicode="a" horiz-adv-x="713" d="M33 197q0 130 100 199l282 28v35q0 96 -108 96q-81 0 -172 -57l-60 167q145 84 300 84q131 0 193 -52q68 -58 68 -189l-5 -282q0 -53 8 -79l31 -101l-219 -45l-21 68q-113 -68 -203 -68t-143 56q-51 54 -51 140zM265 236q0 -71 66 -71q33 0 81 22l2 114l-143 -20 q-6 -19 -6 -45z" />
<glyph unicode="b" horiz-adv-x="814" d="M67 75v1153h230v-567q77 87 198 87q129 0 206 -88q80 -92 80 -255q0 -190 -119 -301q-112 -104 -286 -104q-193 0 -309 75zM297 211q36 -17 83 -17q152 0 152 196q0 174 -141 174q-56 0 -94 -23v-330z" />
<glyph unicode="c" horiz-adv-x="696" d="M33 371q0 180 117 284q106 93 262 93q145 0 230 -34l-45 -194q-71 32 -138 32q-173 0 -173 -184q0 -164 162 -164q100 0 165 60l66 -181h2q-114 -83 -264 -83q-169 0 -275 98q-109 102 -109 273z" />
<glyph unicode="d" horiz-adv-x="821" d="M33 347q0 188 117 300q105 101 254 101q63 0 112 -16v496h230v-1027q0 -89 15 -201h-214l-5 87q-107 -87 -213 -87q-124 0 -205 83q-91 93 -91 264zM282 369q0 -183 135 -183q56 0 99 25v337q-36 17 -76 17q-158 0 -158 -196z" />
<glyph unicode="e" horiz-adv-x="744" d="M33 366q0 180 113 287q102 95 247 95q149 0 230 -85q76 -79 76 -211q0 -76 -7 -110h-411l-2 -13q0 -141 172 -141q103 0 194 71l67 -150q-113 -109 -306 -109q-153 0 -257 91q-116 102 -116 275zM284 470h198v31q0 100 -94 100q-101 0 -104 -131z" />
<glyph unicode="f" horiz-adv-x="571" d="M20 531v188h117v84q0 165 95 270q90 100 222 100q57 0 112 -8v-222q-46 6 -77 6q-120 0 -120 -118v-112h174v-188h-174v-531h-232v531h-117z" />
<glyph unicode="g" horiz-adv-x="793" d="M32 361q0 176 75 282q77 107 199 107q128 0 193 -130v130h227v-727q0 -24 -1 -35q-9 -152 -115 -246q-103 -90 -257 -90q-195 0 -307 108l67 149q92 -70 195 -70q171 0 182 140v116l-4 -6l-11 -18q-56 -90 -161 -90q-127 0 -205 105q-77 105 -77 275zM255 354 q0 -90 32 -141q31 -51 86 -51q54 0 88 53q18 30 26 77q6 29 6 64t-6 65q-8 49 -26 78q-33 50 -87 50q-57 0 -88 -51t-31 -144z" />
<glyph unicode="h" horiz-adv-x="820" d="M67 0v1228h233v-571q74 85 196 85q259 0 259 -277v-465h-233v424q0 131 -118 131q-53 0 -104 -29v-526h-233z" />
<glyph unicode="i" horiz-adv-x="426" d="M67 1037l148 148q92 -66 144 -148l-144 -148q-52 84 -148 148zM103 0v750h238v-750h-238z" />
<glyph unicode="j" horiz-adv-x="420" d="M-42 -258q165 52 165 213v795h230v-802q0 -142 -77 -236q-83 -102 -237 -122zM57 1037l148 148q92 -66 144 -148l-144 -148q-52 84 -148 148z" />
<glyph unicode="k" horiz-adv-x="850" d="M67 0v1228h234v-766l281 283l244 -36l-295 -266q161 -189 303 -414l-250 -46q-115 188 -220 312l-63 -56v-239h-234z" />
<glyph unicode="l" horiz-adv-x="367" d="M67 0v1228h233v-1228h-233z" />
<glyph unicode="m" horiz-adv-x="1240" d="M67 0v750h232v-85q91 85 191 85q154 0 212 -112q107 112 224 112q249 0 249 -281v-469h-236v428q0 133 -99 133q-55 0 -101 -30v-531h-236v428q0 133 -99 133q-52 0 -102 -30v-531h-235z" />
<glyph unicode="n" horiz-adv-x="822" d="M67 0v750h232v-84q91 84 195 84q263 0 263 -280v-470h-235v428q0 133 -115 133q-55 0 -104 -30v-531h-236z" />
<glyph unicode="o" horiz-adv-x="838" d="M33 357q0 179 112 287q110 106 286 106q165 0 268 -96q106 -99 106 -264q0 -181 -116 -288q-111 -102 -286 -102q-159 0 -263 96q-107 99 -107 261zM286 378q0 -190 130 -190q135 0 135 190q0 189 -131 189q-134 0 -134 -189z" />
<glyph unicode="p" horiz-adv-x="815" d="M67 -400v1150h227v-96q74 96 201 96q138 0 213 -94q74 -93 74 -258q0 -183 -113 -296q-102 -102 -240 -102q-90 0 -132 17v-417h-230zM297 203q30 -21 85 -21q150 0 150 203q0 188 -146 188q-47 0 -89 -33v-337z" />
<glyph unicode="q" horiz-adv-x="813" d="M33 344q0 190 112 299q108 106 291 106q164 0 310 -46v-1103h-230v460q-96 -60 -193 -60q-127 0 -206 89q-84 94 -84 255zM282 370q0 -184 133 -184q61 0 101 25v332q-30 23 -78 23q-156 0 -156 -196z" />
<glyph unicode="r" horiz-adv-x="581" d="M67 0v750h231v-119q87 119 206 119q36 0 61 -8l-17 -246q-47 14 -86 14q-101 0 -161 -64v-446h-234z" />
<glyph unicode="s" horiz-adv-x="619" d="M40 41l44 175q90 -42 200 -42q68 0 68 49q0 28 -48 49l-106 39q-155 63 -155 210q0 101 90 166q89 63 222 63q110 0 195 -19l-36 -187q-83 31 -169 31q-76 0 -76 -39q0 -27 49 -48q15 -6 50 -19l58 -21q157 -65 157 -204q0 -106 -80 -173q-84 -71 -227 -71 q-163 0 -236 41z" />
<glyph unicode="t" horiz-adv-x="593" d="M20 558v191h111v191h236v-191h181v-191h-181v-249q0 -110 90 -110q38 0 84 17l30 -178q-76 -38 -192 -38q-248 0 -248 254v304h-111z" />
<glyph unicode="u" horiz-adv-x="828" d="M65 270v480h233v-449q0 -100 99 -100q63 0 118 48v501h233v-554q0 -77 22 -196h-238l-9 79q-115 -79 -214 -79q-244 0 -244 270z" />
<glyph unicode="v" horiz-adv-x="787" d="M-1 750h259l126 -394q11 -30 15 -82h15q3 32 19 82l121 394h238l-279 -750h-247z" />
<glyph unicode="w" horiz-adv-x="1266" d="M16 750h245l100 -386q11 -42 14 -73h18q4 23 21 73l124 386h217l133 -386q12 -34 20 -73h19q2 31 14 73l90 386h221l-230 -750h-234l-126 411q-15 52 -17 79h-20q-4 -37 -17 -79l-138 -411h-235z" />
<glyph unicode="x" horiz-adv-x="825" d="M-2 0l260 368l-251 382h292l128 -226l131 226h251l-257 -356l275 -394h-298l-143 233l-137 -233h-251z" />
<glyph unicode="y" horiz-adv-x="802" d="M-15 -211q221 35 301 211h-43l-217 750h254l102 -421q10 -46 13 -75h14q7 38 20 75l148 421h230l-247 -635q-173 -444 -460 -525z" />
<glyph unicode="z" horiz-adv-x="732" d="M27 0v173l375 377h-360v198h648v-176l-390 -373h388l2 -199h-663z" />
<glyph unicode="{" horiz-adv-x="656" d="M80 454v274q188 0 188 94q0 49 -79 239t-79 285q0 345 370 345q67 0 126 -9v-241q-37 2 -83 2q-135 0 -135 -134q0 -56 78 -222q77 -166 77 -256q0 -101 -47 -151q-58 -61 -208 -79v-20q151 -19 208 -79q47 -50 47 -153q0 -83 -77 -252q-78 -170 -78 -224 q0 -134 135 -134q44 0 83 2v-240q-70 -9 -126 -9q-370 0 -370 345q0 89 79 282q79 194 79 244q0 91 -188 91z" />
<glyph unicode="|" horiz-adv-x="304" d="M40 -217v1562h224v-1562h-224z" />
<glyph unicode="}" horiz-adv-x="656" d="M80 -259q39 -2 83 -2q135 0 135 134q0 54 -78 224q-77 169 -77 252q0 103 47 153q57 60 208 79v20q-150 18 -208 79q-47 50 -47 151q0 90 77 256q78 166 78 222q0 134 -135 134q-46 0 -83 -2v241q59 9 126 9q370 0 370 -345q0 -95 -79 -285t-79 -239q0 -94 188 -94v-274 q-188 0 -188 -91q0 -50 79 -244q79 -193 79 -282q0 -345 -370 -345q-56 0 -126 9v240z" />
<glyph unicode="~" horiz-adv-x="774" d="M60 284q48 215 177 215q52 0 149 -40q98 -41 134 -41q54 0 79 96l115 -26q-13 -102 -61 -163q-47 -59 -113 -59q-55 0 -158 40q-103 39 -134 39q-51 0 -84 -92z" />
<glyph unicode="&#xa9;" horiz-adv-x="1171" d="M60 543q0 221 153 373q152 152 374 152q221 0 373 -152q151 -152 151 -373t-151 -373q-152 -152 -373 -152q-222 0 -374 152q-153 152 -153 373zM149 543q0 -186 126 -314t312 -128q185 0 310 128q125 127 125 314q0 186 -125 313q-125 128 -310 128q-186 0 -312 -128 q-126 -127 -126 -313zM298 538q0 154 98 240q87 78 221 78q122 0 196 -41l-34 -144q-71 40 -160 40q-154 0 -154 -168q0 -154 162 -154q86 0 164 44l27 -149q-83 -39 -194 -39q-143 0 -232 74q-94 79 -94 219z" />
<glyph unicode="&#xad;" d="M80 431v246h678v-246h-678z" />
<glyph unicode="&#xbc;" horiz-adv-x="1584" d="M60 415v152h168v394l-145 -29l-15 139l198 42h142v-546h140v-152h-488zM484 0l559 1105h183l-558 -1105h-184zM972 309l301 399l175 -10l-324 -419h149v150h169v-150h82v-135h-82v-144h-169v144h-286z" />
<glyph unicode="&#xbd;" horiz-adv-x="1719" d="M60 415v152h168v394l-145 -29l-15 139l198 42h142v-546h140v-152h-488zM484 0l559 1105h183l-558 -1105h-184zM1130 0v139q184 121 251 189q69 71 69 140q0 94 -110 94q-81 0 -162 -35l-26 142q87 42 221 42q116 0 186 -56q73 -58 73 -159q0 -182 -258 -344h285l-14 -152 h-515z" />
<glyph unicode="&#xbe;" horiz-adv-x="1584" d="M60 558l133 80q64 -88 152 -88q44 0 75 19q35 22 35 62q0 42 -35 64q-32 19 -83 19h-63v131h78q85 0 85 61q0 25 -17 44q-23 26 -68 26q-89 0 -140 -100l-144 58q84 183 294 183q118 0 185 -55q62 -51 62 -128q0 -102 -100 -143v-4q56 -17 89 -61q35 -48 35 -117 q0 -72 -46 -123q-72 -77 -232 -77q-81 0 -136 20q-95 34 -159 129zM484 0l559 1105h183l-558 -1105h-184zM972 309l301 399l175 -10l-324 -419h149v150h169v-150h82v-135h-82v-144h-169v144h-286z" />
<glyph unicode="&#x2000;" horiz-adv-x="845" />
<glyph unicode="&#x2001;" horiz-adv-x="1691" />
<glyph unicode="&#x2002;" horiz-adv-x="845" />
<glyph unicode="&#x2003;" horiz-adv-x="1691" />
<glyph unicode="&#x2004;" horiz-adv-x="563" />
<glyph unicode="&#x2005;" horiz-adv-x="422" />
<glyph unicode="&#x2006;" horiz-adv-x="281" />
<glyph unicode="&#x2007;" horiz-adv-x="281" />
<glyph unicode="&#x2008;" horiz-adv-x="211" />
<glyph unicode="&#x2009;" horiz-adv-x="338" />
<glyph unicode="&#x200a;" horiz-adv-x="93" />
<glyph unicode="&#x2010;" d="M80 431v246h678v-246h-678z" />
<glyph unicode="&#x2011;" d="M80 431v246h678v-246h-678z" />
<glyph unicode="&#x2012;" d="M80 431v246h678v-246h-678z" />
<glyph unicode="&#x2013;" horiz-adv-x="1183" d="M80 431v246h1024v-246h-1024z" />
<glyph unicode="&#x2014;" horiz-adv-x="2207" d="M80 431v246h2048v-246h-2048z" />
<glyph unicode="&#x201c;" horiz-adv-x="529" d="M35 1410l202 48q12 -234 -8 -570l-152 2q22 266 -42 520zM289 1410l202 48q12 -234 -8 -570l-152 2q22 266 -42 520z" />
<glyph unicode="&#x201d;" horiz-adv-x="529" d="M35 1410l202 48q12 -234 -8 -570l-152 2q22 266 -42 520zM289 1410l202 48q12 -234 -8 -570l-152 2q22 266 -42 520z" />
<glyph unicode="&#x202f;" horiz-adv-x="338" />
<glyph unicode="&#x205f;" horiz-adv-x="422" />
<glyph unicode="&#x25fc;" horiz-adv-x="750" d="M0 0v750h750v-750h-750z" />
</font>
</defs>
</svg>
