<svg xmlns="http://www.w3.org/2000/svg">
<defs>
<font id="AraHamah1964B-Bold" horiz-adv-x="0" >
  <font-face 
    font-family="Ara Hamah 1964 B Bold"
    font-weight="700"
    font-stretch="normal"
    units-per-em="1500"
    panose-1="0 0 8 0 0 0 0 0 0 0"
    ascent="1200"
    descent="-300"
    x-height="500"
    cap-height="700"
    bbox="-170.778 -434 1615 997"
    underline-thickness="50"
    underline-position="-50"
    unicode-range="U+000D-FEFC"
  />
<missing-glyph horiz-adv-x="897" 
d="M448 997h9q7 -1 12 -1h1q154 0 274 -126q113 -119 113 -282v-3q0 -11 -1 -16v-11q-1 -5 -1 -8q-1 -2 -1.5 -6.5t-0.5 -6.5v-5l-2 -15q0 -1 -1 -2q-20 -106 -88 -188l-39 40q79 97 79 222q0 147 -104 251t-251 104t-251 -104t-104 -251q0 -126 80 -224l-38 -38
q-67 82 -87 187q0 2 -1 3l-2 15q0 2 -1 5q-1 5 -1 13q0 5 -1 8q0 9 -1 11v19q0 169 120 289t288 120zM447 936q143 0 245 -102q101 -101 101 -245q0 -122 -76 -216l-42 42q59 77 59 174q0 119 -84 203q-84 85 -203 85t-203 -85q-84 -84 -84 -203q0 -98 60 -176l-41 -42
q-78 96 -78 218q0 144 101 245q102 102 245 102zM447 868q115 0 197 -82q82 -81 82 -197q0 -95 -57 -168l-45 45q40 55 40 125q0 90 -64 154q-64 63 -154 63t-153 -63q-64 -64 -64 -154q0 -71 42 -128l-45 -44q-58 74 -58 170q0 116 82 197q82 82 197 82zM446 692
q40 0 68 -28t28 -68q0 -38 -27 -67l245 -263h-623l242 260q-30 28 -30 70q0 39 29 68q28 28 68 28zM187 164h22v3q0 17 12 29t29 12t29 -12t12 -29v-3h68l-42 23q1 2 4.5 8.5t6.5 11.5v-1l18 -10l17 -9l22 -13h1v-32h-104q-12 -16 -32 -16t-33 16h-52v82h22v-60zM460 224
v-20q7 4 18 4h61v-66h-112v22h11v60h22zM654 224v-20q8 4 18 4h62v-44h70q-7 5 -21 11l-21 12q1 4 6 10l5 9l25 -12q5 -4 10 -7l11 -7l12 -6v-1v-31h-227q-12 -23 -38 -23h-3v22h3q6 0 11 3q-13 4 -20 17q-5 8 -3 17q3 26 30 30h26v-44h22v60h22zM810 207h-16v17h16v-17z
M111 207q18 0 30 -12q13 -13 13 -31q0 -13 -8 -24h-70q-8 11 -8 24q0 18 13 31q12 12 30 12zM111 185q-20 0 -20 -21v-1h40l1 1q0 21 -21 21zM250 185q-18 0 -18 -18t18 -18t18 18t-18 18zM517 185h-38q-18 0 -18 -18v-3h56v21zM589 164v21q-14 -2 -14 -10q0 -9 14 -11z

<glyph glyph-name="lam_alefMaddaar" unicode="&#xfedf;&#xfe82;" horiz-adv-x="422" arabic-form="isolated" 
d="M382 741v-569q0 -87 -46 -127q-43 -37 -119 -44q-75 -7 -139 19v133q14 -15 37 -23l-75 464h124l72 -448q24 21 24 54v541h122zM160 700l-5 -34q-37 17 -73.5 11t-54.5 -24l-13 46q4 1 10 3.5t24 6.5t35 5.5t38.5 -1.5t38.5 -13z" />
    <glyph glyph-name="lam_alefMaddaar.fina" unicode="&#xfee0;&#xfe82;" horiz-adv-x="493" arabic-form="final" 
d="M382 741v-557q11 -42 52 -51q12 -3 79 -3v-130h-15q-111 0 -155 53l-8 -8q-43 -37 -118 -44t-139 19v133q14 -15 37 -23l-75 464h124l71 -448q25 21 25 54v541h122zM160 700l-5 -34q-37 17 -73.5 11t-54.5 -24l-13 46q4 1 10 3.5t24 6.5t35 5.5t38.5 -1.5t38.5 -13z" />
    <glyph glyph-name="lam_alefHamzaabovear" unicode="&#xfedf;&#xfe84;" horiz-adv-x="422" arabic-form="isolated" 
d="M382 741v-569q0 -87 -46 -127q-43 -37 -119 -44q-75 -7 -139 19v133q14 -15 37 -23l-75 464h124l72 -448q24 21 24 54v541h122zM135 730v-26q-33 0 -36 -5q-11 -12 14 -30q5 -5 19 -13l16 -10l-3 -21q-61 2 -79 -8l-8 28q11 10 27 10q-31 13 -25 44q7 31 44 31h31z" />
    <glyph glyph-name="lam_alefHamzaabovear.fina" unicode="&#xfee0;&#xfe84;" horiz-adv-x="493" arabic-form="final" 
d="M382 741v-557q11 -42 52 -51q12 -3 79 -3v-130h-15q-111 0 -155 53l-8 -8q-36 -36 -118 -44q-75 -7 -139 19v133q14 -15 37 -23l-75 464h124l71 -448q25 21 25 54v541h122zM135 730v-26q-32 0 -37 -5q-10 -12 14 -30q8 -6 20 -13l16 -10l-3 -21q-61 2 -79 -8l-8 28
q10 10 27 10q-32 14 -25 44q7 31 44 31h31z" />
    <glyph glyph-name="lam_alefHamzabelowar" unicode="&#xfedf;&#xfe88;" horiz-adv-x="422" arabic-form="isolated" 
d="M382 741v-569q0 -87 -46 -127q-43 -37 -119 -44q-75 -7 -139 19v133q14 -15 37 -23l-75 464h124l72 -448q24 21 24 54v541h122zM197 -78v-26q-33 0 -36 -5q-11 -12 14 -30q5 -5 19 -13l16 -10l-3 -21q-61 2 -79 -8l-8 28q11 10 27 10q-31 13 -25 44q7 31 44 31h31z" />
    <glyph glyph-name="lam_alefHamzabelowar.fina" unicode="&#xfee0;&#xfe88;" horiz-adv-x="493" arabic-form="final" 
d="M382 741v-557q11 -42 52 -51q12 -3 79 -3v-130h-15q-111 0 -155 53l-8 -8q-36 -36 -118 -44q-75 -7 -139 19v133q14 -15 37 -23l-75 464h124l71 -448q25 21 25 54v541h122zM215 -78v-26q-32 0 -37 -5q-10 -12 14 -30q8 -6 20 -13l16 -10l-3 -21q-61 2 -79 -8l-8 28
q10 10 27 10q-32 14 -25 44q7 31 44 31h31z" />
    <glyph glyph-name="lam_alefar" unicode="&#xfedf;&#xfe8e;" horiz-adv-x="422" arabic-form="isolated" 
d="M382 741v-569q0 -87 -46 -127q-43 -37 -119 -44q-75 -7 -139 19v133q14 -15 37 -23l-75 464h124l72 -448q24 21 24 54v541h122z" />
    <glyph glyph-name="lam_alefar.fina" unicode="&#xfee0;&#xfe8e;" horiz-adv-x="493" arabic-form="final" 
d="M382 741v-557q11 -42 52 -51q12 -3 79 -3v-130h-15q-111 0 -155 53l-8 -8q-36 -36 -118 -44q-75 -7 -139 19v133q14 -15 37 -23l-75 464h124l71 -448q25 21 25 54v541h122z" />
    <glyph glyph-name="uniFBE8" unicode="&#x649;" horiz-adv-x="275" arabic-form="initial" 
d="M235 483v-278q0 -101 -70 -155q-67 -50 -175 -50h-10v130h10q72 0 93 8q34 13 34 67v278h118z" />
    <glyph glyph-name="uniFBE9" unicode="&#x649;" horiz-adv-x="362" arabic-form="medial" 
d="M244 483v-278q0 -53 35 -67q19 -8 93 -8h10v-130h-10q-124 0 -191 64q-67 -64 -191 -64h-10v130h10q72 0 93 8q35 14 35 67v278h126z" />
    <glyph glyph-name="uniFC63" unicode="&#xfc63;" arabic-form="isolated" 
d="M23 193h-47v162h47v-162zM125 190v-115q0 -37 -21 -56q-20 -17 -36 -18q-30 -5 -52 7q-15 9 -16 11q-2 -3 -13 -9q-22 -12 -53 -9q-15 2 -33 14q-11 7 -19 22t-8 38v115h48v-110q0 -20 9 -26q9 -9 24 -9q21 6 21 25v100h47v-100q0 -19 20 -25q19 0 25 9q9 5 9 26v110h48z
" />
    <glyph glyph-name="alefMaddaar.fina" unicode="&#x622;" horiz-adv-x="254" arabic-form="final" 
d="M177 826l-5 -34q-37 17 -73.5 11t-54.5 -24l-13 46q4 1 10 3.5t24 6.5t35 5.5t38.5 -1.5t38.5 -13zM169 741v-536q0 -42 25 -58q18 -11 60 -17h20v-130h-21q-115 0 -164 42q-49 43 -49 133v566h129z" />
    <glyph glyph-name="alefHamzaabovear.fina" unicode="&#x623;" horiz-adv-x="254" arabic-form="final" 
d="M156 993v-42q-50 0 -60 -8q-16 -19 22 -49q26 -17 33 -21l26 -16l-5 -34q-100 3 -128 -13l-13 46q17 16 44 16q-52 21 -40 71t71 50h50zM169 741v-536q0 -41 26 -58q18 -11 59 -17h20v-130h-21q-115 0 -164 42q-49 43 -49 133v566h129z" />
    <glyph glyph-name="wawHamzaabovear.fina" unicode="&#x624;" horiz-adv-x="568" arabic-form="final" 
d="M418 622l-6 -45q-66 2 -108.5 -6.5t-78.5 -36.5l6 87q26 17 56 17q-67 30 -53 95t92 65h65v-55q-67 0 -76 -10q-22 -25 29 -64q16 -13 43 -27zM588 130v-130h-70v-62q0 -105 -46 -142q-24 -19 -106 -38.5t-148 -19.5l-59 119q40 0 115 7t87 17q28 24 28 72v46h-147
q-95 0 -134 33q-36 30 -55 85t-14 116.5t28.5 117.5t77.5 92.5t127 36.5h246v-350h70zM389 367h-111q-78 0 -110 -71q-26 -59 -5 -115q20 -51 66 -51h160v237z" />
    <glyph glyph-name="alefHamzabelowar.fina" unicode="&#x625;" horiz-adv-x="254" arabic-form="final" 
d="M169 741v-536q0 -41 26 -58q18 -11 59 -17h20v-130h-21q-115 0 -164 42q-49 43 -49 133v566h129zM179 -86v-42q-50 0 -60 -8q-16 -19 22 -49q25 -17 33 -21l26 -16l-5 -34q-100 3 -128 -13l-13 46q17 16 44 16q-52 21 -40 71t71 50h50z" />
    <glyph glyph-name="yehHamzaabovear.fina" unicode="&#x626;" horiz-adv-x="1060" arabic-form="final" 
d="M221 528v-54q-68 0 -76 -11q-22 -25 29 -64q14 -11 41 -27q30 -19 33 -20l-5 -45q-120 4 -166 -16l-17 60q26 18 57 18q-67 28 -53 94q15 65 92 65h65zM239 229v-124q-49 0 -74 -27q-26 -28 -26 -86q0 -50 24 -78q22 -28 72 -28h550q47 0 70 21q12 11 19 29q7 20 5 39
q-2 25 -38 25h-236v130h475v-130h-78v-54l-3 -35q-7 -86 -50 -122q-39 -33 -134 -33h-596q-103 0 -141 47t-38 182q0 159 52 208q39 36 147 36z" />
    <glyph glyph-name="yehHamzaabovear.init" unicode="&#x626;" horiz-adv-x="296" arabic-form="initial" 
d="M229 774v-55q-67 0 -76 -10q-22 -25 29 -64q16 -13 43 -27l31 -20l-6 -45q-119 4 -165 -16l-16 60q26 17 56 17q-67 30 -53 95t92 65h65zM235 483v-278q0 -101 -70 -155q-67 -50 -175 -50h-10v130h10q72 0 93 8q34 13 34 67v278h118z" />
    <glyph glyph-name="yehHamzaabovear.medi" unicode="&#x626;" horiz-adv-x="362" arabic-form="medial" 
d="M239 774v-55q-67 0 -76 -10q-22 -25 29 -64q16 -13 43 -27l31 -20l-6 -45q-119 4 -165 -16l-16 60q26 17 56 17q-67 30 -53 95t92 65h65zM244 483v-278q0 -53 35 -67q19 -8 93 -8h10v-130h-10q-124 0 -191 64q-67 -64 -191 -64h-10v130h10q72 0 93 8q35 14 35 67v278h126
z" />
    <glyph glyph-name="uniFE8E" unicode="&#x627;" horiz-adv-x="254" arabic-form="final" 
d="M169 741v-536q0 -41 26 -58q18 -11 59 -17h20v-130h-21q-115 0 -164 42q-49 43 -49 133v566h129z" />
    <glyph glyph-name="behar.fina" unicode="&#x628;" horiz-adv-x="975" arabic-form="final" 
d="M929 130h66v-130h-775q-104 0 -142 47q-38 49 -38 183q0 160 52 209q38 37 148 37v-125q-50 0 -75 -28q-25 -26 -25 -86q0 -49 23 -78q24 -28 73 -28h579v352h114v-353zM581 -217h-115v107h115v-107z" />
    <glyph glyph-name="behar.init" unicode="&#x628;" horiz-adv-x="275" arabic-form="initial" 
d="M235 483v-278q0 -101 -70 -155q-67 -50 -175 -50h-10v130h10q72 0 93 8q34 13 34 67v278h118zM163 -217h-115v107h115v-107z" />
    <glyph glyph-name="behar.medi" unicode="&#x628;" horiz-adv-x="362" arabic-form="medial" 
d="M244 483v-278q0 -53 35 -67q19 -8 93 -8h10v-130h-10q-124 0 -191 64q-67 -64 -191 -64h-10v130h10q72 0 93 8q35 14 35 67v278h126zM236 -217h-115v107h115v-107z" />
    <glyph glyph-name="tehMarbutaar.fina" unicode="&#x629;" horiz-adv-x="595" arabic-form="final" 
d="M230 590h-115v107h115v-107zM392 590h-115v107h115v-107zM271 483q100 0 146 -28q34 -19 52 -78q7 -23 24 -111q14 -69 31 -97q23 -39 71 -39h20v-130h-20q-175 0 -213 132l-26 148q-10 57 -18 70q-18 27 -67 27q-42 0 -68 -17q-34 -22 -34 -78v-66q0 -50 20 -69
q20 -17 75 -17h108v-130h-141q-105 0 -148 42q-43 40 -43 143v102q0 114 50 155t181 41z" />
    <glyph glyph-name="tehar.fina" unicode="&#x62a;" horiz-adv-x="975" arabic-form="final" 
d="M502 508h-115v107h115v-107zM664 508h-115v107h115v-107zM929 130h66v-130h-775q-104 0 -142 47q-38 49 -38 183q0 160 52 209q38 37 148 37v-125q-50 0 -75 -28q-25 -26 -25 -86q0 -49 23 -78q24 -28 73 -28h579v352h114v-353z" />
    <glyph glyph-name="tehar.init" unicode="&#x62a;" horiz-adv-x="394" arabic-form="initial" 
d="M187 590h-115v107h115v-107zM349 590h-115v107h115v-107zM354 483v-278q0 -101 -70 -155q-67 -50 -175 -50h-129v130h129q72 0 93 8q34 13 34 67v278h118z" />
    <glyph glyph-name="tehar.medi" unicode="&#x62a;" horiz-adv-x="450" arabic-form="medial" 
d="M248 590h-115v107h115v-107zM410 590h-115v107h115v-107zM332 483v-278q0 -53 35 -67q19 -8 93 -8h10v-130h-10q-124 0 -191 64q-67 -64 -191 -64h-98v130h98q72 0 93 8q35 14 35 67v278h126z" />
    <glyph glyph-name="thehar.fina" unicode="&#x62b;" horiz-adv-x="975" arabic-form="final" 
d="M585 665h-115v107h115v-107zM502 508h-115v107h115v-107zM664 508h-115v107h115v-107zM929 130h66v-130h-775q-104 0 -142 47q-38 49 -38 183q0 160 52 209q38 37 148 37v-125q-50 0 -75 -28q-25 -26 -25 -86q0 -49 23 -78q24 -28 73 -28h579v352h114v-353z" />
    <glyph glyph-name="thehar.init" unicode="&#x62b;" horiz-adv-x="394" arabic-form="initial" 
d="M270 747h-115v107h115v-107zM187 590h-115v107h115v-107zM349 590h-115v107h115v-107zM354 483v-278q0 -101 -70 -155q-67 -50 -175 -50h-129v130h129q72 0 93 8q34 13 34 67v278h118z" />
    <glyph glyph-name="thehar.medi" unicode="&#x62b;" horiz-adv-x="450" arabic-form="medial" 
d="M331 747h-115v107h115v-107zM248 590h-115v107h115v-107zM410 590h-115v107h115v-107zM332 483v-278q0 -53 35 -67q19 -8 93 -8h10v-130h-10q-124 0 -191 64q-67 -64 -191 -64h-98v130h98q72 0 93 8q35 14 35 67v278h126z" />
    <glyph glyph-name="jeemar.fina" unicode="&#x62c;" horiz-adv-x="810" arabic-form="final" 
d="M104 487l422 -60q86 -12 119 -59q30 -40 33 -136l9 -43q9 -43 51 -55q18 -4 82 -4h10v-130h-15q-135 0 -173 61q-3 -5 -8 -10q-44 -51 -151 -51h-251q-24 0 -31 -1q-35 -5 -38 -25q-5 -33 5 -61q8 -18 19 -29q23 -22 71 -22h68v-113h-99q-94 0 -133 33q-45 38 -51 122
l-3 40v39q0 147 168 147h269q96 0 96 84v15q0 58 -85 70l-392 58zM533 -243h-115v107h115v-107z" />
    <glyph glyph-name="jeemar.init" unicode="&#x62c;" horiz-adv-x="677" arabic-form="initial" 
d="M63 487l421 -60q87 -12 120 -59q33 -46 33 -155q0 -111 -45 -162q-44 -51 -151 -51h-461v130h456q95 0 95 84v15q0 58 -84 70l-392 58zM373 -217h-115v107h115v-107z" />
    <glyph glyph-name="jeemar.medi" unicode="&#x62c;" horiz-adv-x="770" arabic-form="medial" 
d="M63 487l422 -61q88 -12 119 -58q29 -41 33 -127l10 -48q9 -48 51 -58q18 -5 82 -5h10v-130h-17q-130 0 -171 64q-6 -10 -9 -13q-43 -51 -151 -51h-462v130h456q96 0 96 84v15q0 58 -85 70l-392 58zM373 -217h-115v107h115v-107z" />
    <glyph glyph-name="hahar.fina" unicode="&#x62d;" horiz-adv-x="810" arabic-form="final" 
d="M104 487l422 -60q86 -12 119 -59q30 -40 33 -136l9 -43q9 -43 51 -55q18 -4 82 -4h10v-130h-15q-135 0 -173 61q-3 -5 -8 -10q-44 -51 -151 -51h-251q-24 0 -31 -1q-35 -5 -38 -25q-5 -33 5 -61q8 -18 19 -29q23 -22 71 -22h68v-113h-99q-94 0 -133 33q-45 38 -51 122
l-3 40v39q0 147 168 147h269q96 0 96 84v15q0 58 -85 70l-392 58z" />
    <glyph glyph-name="hahar.init" unicode="&#x62d;" horiz-adv-x="677" arabic-form="initial" 
d="M63 487l421 -60q87 -12 120 -59q33 -46 33 -155q0 -111 -45 -162q-44 -51 -151 -51h-461v130h456q95 0 95 84v15q0 58 -84 70l-392 58z" />
    <glyph glyph-name="hahar.medi" unicode="&#x62d;" horiz-adv-x="770" arabic-form="medial" 
d="M63 487l422 -61q88 -12 119 -58q29 -41 33 -127l10 -48q9 -48 51 -58q18 -5 82 -5h10v-130h-17q-130 0 -171 64q-6 -10 -9 -13q-43 -51 -151 -51h-462v130h456q96 0 96 84v15q0 58 -85 70l-392 58z" />
    <glyph glyph-name="khahar.fina" unicode="&#x62e;" horiz-adv-x="810" arabic-form="final" 
d="M349 590h-115v107h115v-107zM104 487l422 -60q86 -12 119 -59q30 -40 33 -136l9 -43q9 -43 51 -55q18 -4 82 -4h10v-130h-15q-135 0 -173 61q-3 -5 -8 -10q-44 -51 -151 -51h-251q-24 0 -31 -1q-35 -5 -38 -25q-5 -33 5 -61q8 -18 19 -29q23 -22 71 -22h68v-113h-99
q-94 0 -133 33q-45 38 -51 122l-3 40v39q0 147 168 147h269q96 0 96 84v15q0 58 -85 70l-392 58z" />
    <glyph glyph-name="khahar.init" unicode="&#x62e;" horiz-adv-x="677" arabic-form="initial" 
d="M349 590h-115v107h115v-107zM63 487l421 -60q87 -12 120 -59q33 -46 33 -155q0 -111 -45 -162q-44 -51 -151 -51h-461v130h456q95 0 95 84v15q0 58 -84 70l-392 58z" />
    <glyph glyph-name="khahar.medi" unicode="&#x62e;" horiz-adv-x="770" arabic-form="medial" 
d="M349 590h-115v107h115v-107zM63 487l422 -61q88 -12 119 -58q29 -41 33 -127l10 -48q9 -48 51 -58q18 -5 82 -5h10v-130h-17q-130 0 -171 64q-6 -10 -9 -13q-43 -51 -151 -51h-462v130h456q96 0 96 84v15q0 58 -85 70l-392 58z" />
    <glyph glyph-name="dalar.fina" unicode="&#x62f;" horiz-adv-x="882" arabic-form="final" 
d="M144 472h409q113 0 159 -51q48 -51 48 -183v-7l9 -42q10 -46 51 -56q14 -3 82 -3v-130h-20q-124 0 -160 64l-5 -6l-9 -10q-42 -48 -174 -48h-494v130h513q56 0 79 26q21 26 21 80q0 62 -21 85q-20 21 -79 21h-409v130z" />
    <glyph glyph-name="thalar.fina" unicode="&#x630;" horiz-adv-x="882" arabic-form="final" 
d="M349 590h-115v107h115v-107zM144 472h409q113 0 159 -51q48 -51 48 -183v-7l9 -42q10 -46 51 -56q14 -3 82 -3v-130h-20q-124 0 -160 64l-5 -6l-9 -10q-42 -48 -174 -48h-494v130h513q56 0 79 26q21 26 21 80q0 62 -21 85q-20 21 -79 21h-409v130z" />
    <glyph glyph-name="rehar.fina" unicode="&#x631;" horiz-adv-x="356" arabic-form="final" 
d="M307 130h69v-130h-69v-66q0 -90 -49 -133q-50 -42 -164 -42q-54 0 -94 8v115l6 -3q20 -12 86 -12q47 0 67 23q19 22 19 74v518h129v-352z" />
    <glyph glyph-name="zainar.fina" unicode="&#x632;" horiz-adv-x="356" arabic-form="final" 
d="M296 590h-115v107h115v-107zM307 130h69v-130h-69v-66q0 -90 -49 -133q-50 -42 -164 -42q-54 0 -94 8v115l6 -3q20 -12 86 -12q47 0 67 23q19 22 19 74v518h129v-352z" />
    <glyph glyph-name="seenar.fina" unicode="&#x633;" horiz-adv-x="1391" arabic-form="final" 
d="M1279 484v-299q10 -42 52 -52q12 -3 79 -3v-130h-15q-112 0 -154 51l-11 -10q-45 -41 -163 -41q-77 0 -122 17q-43 16 -60 49q-15 -31 -59 -48q-46 -18 -123 -18q-50 0 -82 7v-26q0 -86 -61 -146q-55 -53 -145 -74q-196 -44 -317 56q-58 48 -58 164v151h129v-151
q0 -56 25 -78q62 -54 176 -35q122 20 122 113v503h129v-304q5 -27 36 -40q29 -13 70 -11q42 3 68 19q31 19 31 53v216h118v-216q0 -32 32 -53q29 -17 71 -19q41 -1 71 16q33 21 33 57v282h128z" />
    <glyph glyph-name="seenar.init" unicode="&#x633;" horiz-adv-x="950" arabic-form="initial" 
d="M910 484v-312q0 -87 -49 -129q-49 -43 -163 -43q-77 0 -122 17q-44 16 -60 49q-15 -32 -60 -48q-45 -18 -121 -18q-127 0 -170 57q-40 -57 -165 -57h-20v130q108 0 131 42q11 18 11 81v231h129v-231q0 -67 10 -81q32 -50 114 -42q82 9 82 71v216h117v-216q0 -33 33 -53
q28 -17 71 -19q43 -1 72 17q32 20 32 56v282h128z" />
    <glyph glyph-name="seenar.medi" unicode="&#x633;" horiz-adv-x="1019" arabic-form="medial" 
d="M908 484v-300q11 -42 52 -51q12 -3 79 -3v-130h-15q-112 0 -154 53l-11 -10q-47 -43 -163 -43q-76 0 -121 17q-44 16 -61 49q-15 -31 -59 -48q-45 -18 -123 -18q-115 0 -162 59q-39 -59 -164 -59h-26v130h16q84 0 105 20q21 18 21 97v237h127v-153q0 -18 0.5 -68.5
t0.5 -82.5q5 -26 38 -40q29 -13 70 -11q97 6 97 72v216h117v-216q0 -35 33 -54q30 -18 71 -18q42 -1 71 17q32 20 32 56v282h129z" />
    <glyph glyph-name="sheenar.fina" unicode="&#x634;" horiz-adv-x="1391" arabic-form="final" 
d="M943 747h-115v107h115v-107zM860 590h-115v107h115v-107zM1022 590h-115v107h115v-107zM1279 484v-299q10 -42 52 -52q12 -3 79 -3v-130h-15q-112 0 -154 51l-11 -10q-45 -41 -163 -41q-77 0 -122 17q-43 16 -60 49q-15 -31 -59 -48q-46 -18 -123 -18q-50 0 -82 7v-26
q0 -86 -61 -146q-55 -53 -145 -74q-196 -44 -317 56q-58 48 -58 164v151h129v-151q0 -56 25 -78q62 -54 176 -35q122 20 122 113v503h129v-304q5 -27 36 -40q29 -13 70 -11q42 3 68 19q31 19 31 53v216h118v-216q0 -32 32 -53q29 -17 71 -19q41 -1 71 16q33 21 33 57v282
h128z" />
    <glyph glyph-name="sheenar.init" unicode="&#x634;" horiz-adv-x="950" arabic-form="initial" 
d="M576 747h-115v107h115v-107zM493 590h-115v107h115v-107zM655 590h-115v107h115v-107zM910 484v-312q0 -87 -49 -129q-49 -43 -163 -43q-77 0 -122 17q-44 16 -60 49q-15 -32 -60 -48q-45 -18 -121 -18q-127 0 -170 57q-40 -57 -165 -57h-20v130q108 0 131 42
q11 18 11 81v231h129v-231q0 -67 10 -81q32 -50 114 -42q82 9 82 71v216h117v-216q0 -33 33 -53q28 -17 71 -19q43 -1 72 17q32 20 32 56v282h128z" />
    <glyph glyph-name="sheenar.medi" unicode="&#x634;" horiz-adv-x="1019" arabic-form="medial" 
d="M574 747h-115v107h115v-107zM491 590h-115v107h115v-107zM653 590h-115v107h115v-107zM908 484v-300q11 -42 52 -51q12 -3 79 -3v-130h-15q-112 0 -154 53l-11 -10q-47 -43 -163 -43q-76 0 -121 17q-44 16 -61 49q-15 -31 -59 -48q-45 -18 -123 -18q-115 0 -162 59
q-39 -59 -164 -59h-26v130h16q84 0 105 20q21 18 21 97v237h127v-153q0 -18 0.5 -68.5t0.5 -82.5q5 -26 38 -40q29 -13 70 -11q97 6 97 72v216h117v-216q0 -35 33 -54q30 -18 71 -18q42 -1 71 17q32 20 32 56v282h129z" />
    <glyph glyph-name="sadar.fina" unicode="&#x635;" horiz-adv-x="1595" arabic-form="final" 
d="M1615 130v-130h-20q-109 0 -149 52l-1 -1q-43 -51 -150 -51h-593q-44 0 -82 8v-20q0 -88 -60 -146q-55 -52 -145 -73q-87 -20 -172 -5q-95 17 -146 60q-57 45 -57 164v166h130v-166q0 -57 25 -79q62 -53 176 -33q120 20 120 112v335h129v-121q3 -31 17 -48q18 -20 66 -23
q9 -1 40 -1h30l1 208q0 142 143 142q30 0 55 -4l366 -52q85 -12 118 -57q33 -47 33 -155q0 -12 -2 -38q13 -34 53 -44h75zM1384 213v15q0 57 -84 69l-320 48q-52 0 -70 -12q-18 -11 -19 -56l-4 -147h402q95 0 95 83z" />
    <glyph glyph-name="sadar.init" unicode="&#x635;" horiz-adv-x="1051" arabic-form="initial" 
d="M440 480q29 0 54 -4l365 -52q86 -12 119 -57q33 -47 33 -155q0 -111 -44 -161q-43 -51 -150 -51h-535q-41 0 -85 18q-44 16 -60 49q-15 -31 -60 -49q-35 -18 -62 -18h-35v130h23q30 3 40 9q36 19 36 84v142h118v-142q0 -62 34 -81q16 -10 64 -12l1 208q0 142 144 142z
M822 297l-320 48q-52 0 -70 -12q-16 -10 -18 -56l-5 -147h402q96 0 96 83v15q0 56 -85 69z" />
    <glyph glyph-name="sadar.medi" unicode="&#x635;" horiz-adv-x="1117" arabic-form="medial" 
d="M1137 130v-130h-20q-109 0 -149 52l-1 -1q-43 -51 -150 -51h-535q-41 0 -85 18q-44 16 -60 49q-15 -31 -60 -49q-35 -18 -62 -18h-35v130h23q30 3 40 9q36 19 36 84v142h118v-142q0 -62 34 -81q16 -10 65 -12v208q0 142 143 142q30 0 55 -4l366 -52q85 -12 118 -57
q33 -47 33 -155q0 -12 -2 -38q13 -34 53 -44h75zM906 213v15q0 57 -84 69l-320 48q-52 0 -70 -12q-18 -11 -19 -56l-4 -147h402q95 0 95 83z" />
    <glyph glyph-name="dadar.fina" unicode="&#x636;" horiz-adv-x="1595" arabic-form="final" 
d="M1175 590h-115v107h115v-107zM1615 130v-130h-20q-109 0 -149 52l-1 -1q-43 -51 -150 -51h-593q-44 0 -82 8v-20q0 -88 -60 -146q-55 -52 -145 -73q-87 -20 -172 -5q-95 17 -146 60q-57 45 -57 164v166h130v-166q0 -57 25 -79q62 -53 176 -33q120 20 120 112v335h129
v-121q3 -31 17 -48q18 -20 66 -23q9 -1 40 -1h30l1 208q0 142 143 142q30 0 55 -4l366 -52q85 -12 118 -57q33 -47 33 -155q0 -12 -2 -38q13 -34 53 -44h75zM1384 213v15q0 57 -84 69l-320 48q-52 0 -70 -12q-18 -11 -19 -56l-4 -147h402q95 0 95 83z" />
    <glyph glyph-name="dadar.init" unicode="&#x636;" horiz-adv-x="1051" arabic-form="initial" 
d="M687 590h-115v107h115v-107zM440 480q29 0 54 -4l365 -52q86 -12 119 -57q33 -47 33 -155q0 -111 -44 -161q-43 -51 -150 -51h-535q-41 0 -85 18q-44 16 -60 49q-15 -31 -60 -49q-35 -18 -62 -18h-35v130h23q30 3 40 9q36 19 36 84v142h118v-142q0 -62 34 -81
q16 -10 64 -12l1 208q0 142 144 142zM822 297l-320 48q-52 0 -70 -12q-16 -10 -18 -56l-5 -147h402q96 0 96 83v15q0 56 -85 69z" />
    <glyph glyph-name="dadar.medi" unicode="&#x636;" horiz-adv-x="1117" arabic-form="medial" 
d="M687 590h-115v107h115v-107zM1137 130v-130h-20q-109 0 -149 52l-1 -1q-43 -51 -150 -51h-535q-41 0 -85 18q-44 16 -60 49q-15 -31 -60 -49q-35 -18 -62 -18h-35v130h23q30 3 40 9q36 19 36 84v142h118v-142q0 -62 34 -81q16 -10 65 -12v208q0 142 143 142q30 0 55 -4
l366 -52q85 -12 118 -57q33 -47 33 -155q0 -12 -2 -38q13 -34 53 -44h75zM906 213v15q0 57 -84 69l-320 48q-52 0 -70 -12q-18 -11 -19 -56l-4 -147h402q95 0 95 83z" />
    <glyph glyph-name="tahar.fina" unicode="&#x637;" horiz-adv-x="942" arabic-form="final" 
d="M243 741v-263q20 2 31 2q29 0 54 -4l365 -52q88 -12 119 -57q34 -46 34 -155q0 -30 -4 -53q20 -29 120 -29v-130h-20q-101 0 -146 47q-44 -47 -144 -47h-612v130h74v611h129zM656 297l-320 48q-51 0 -69 -12q-18 -11 -19 -56l-5 -147h403q95 0 95 83v15q0 56 -85 69z" />
    <glyph glyph-name="tahar.init" unicode="&#x637;" horiz-adv-x="856" arabic-form="initial" 
d="M213 741v-263q20 2 31 2q29 0 54 -4l365 -52q88 -12 119 -57q34 -46 34 -155q0 -110 -45 -161t-149 -51h-642v130h104v611h129zM626 297l-320 48q-51 0 -69 -12q-18 -11 -19 -56l-5 -147h403q95 0 95 83v15q0 56 -85 69z" />
    <glyph glyph-name="tahar.medi" unicode="&#x637;" horiz-adv-x="912" arabic-form="medial" 
d="M213 741v-263q20 2 31 2q29 0 54 -4l365 -52q88 -12 119 -57q34 -46 34 -155q0 -30 -4 -53q20 -29 120 -29v-130h-20q-101 0 -146 47q-44 -47 -144 -47h-642v130h104v611h129zM626 297l-320 48q-51 0 -69 -12q-18 -11 -19 -56l-5 -147h403q95 0 95 83v15q0 56 -85 69z
" />
    <glyph glyph-name="zahar.fina" unicode="&#x638;" horiz-adv-x="942" arabic-form="final" 
d="M243 741v-263q20 2 31 2q29 0 54 -4l365 -52q88 -12 119 -57q34 -46 34 -155q0 -30 -4 -53q20 -29 120 -29v-130h-20q-101 0 -146 47q-44 -47 -144 -47h-612v130h74v611h129zM566 590h-115v107h115v-107zM656 297l-320 48q-51 0 -69 -12q-18 -11 -19 -56l-5 -147h403
q95 0 95 83v15q0 56 -85 69z" />
    <glyph glyph-name="zahar.init" unicode="&#x638;" horiz-adv-x="856" arabic-form="initial" 
d="M213 741v-263q20 2 31 2q29 0 54 -4l365 -52q88 -12 119 -57q34 -46 34 -155q0 -110 -45 -161t-149 -51h-642v130h104v611h129zM566 590h-115v107h115v-107zM626 297l-320 48q-51 0 -69 -12q-18 -11 -19 -56l-5 -147h403q95 0 95 83v15q0 56 -85 69z" />
    <glyph glyph-name="zahar.medi" unicode="&#x638;" horiz-adv-x="912" arabic-form="medial" 
d="M213 741v-263q20 2 31 2q29 0 54 -4l365 -52q88 -12 119 -57q34 -46 34 -155q0 -30 -4 -53q20 -29 120 -29v-130h-20q-101 0 -146 47q-44 -47 -144 -47h-642v130h104v611h129zM566 590h-115v107h115v-107zM626 297l-320 48q-51 0 -69 -12q-18 -11 -19 -56l-5 -147h403
q95 0 95 83v15q0 56 -85 69z" />
    <glyph glyph-name="ainar.fina" unicode="&#x639;" horiz-adv-x="748" arabic-form="final" 
d="M768 130v-130h-566q-35 -5 -38 -25q-6 -30 5 -61q6 -19 18 -29q23 -22 72 -22h67v-113h-98q-94 0 -133 33q-42 36 -51 122l-4 40v38q0 147 168 147h19l2 -2v2q-5 8 -7.5 27t-9.5 27l-83 92v166q95 49 176 65t135.5 2.5t87 -32t56.5 -44.5q23 -25 34 -39t26 -44.5
t15 -59.5v-106q0 -11 -22 -29.5t-26 -24.5h157zM529 221v50q0 40 -37.5 68t-101.5 28t-130 -38l83 -108q3 -4 12 -17.5t14.5 -20t19.5 -17t32 -17.5q25 10 39.5 16.5t33 16.5t27 19.5t8.5 19.5z" />
    <glyph glyph-name="ainar.init" unicode="&#x639;" horiz-adv-x="544" arabic-form="initial" 
d="M450 367h-181q-92 0 -92 -96v-50q0 -54 19 -73q18 -18 75 -18h233v-130h-524v130h70q-5 28 -5 54v106q0 95 45 143q44 47 121 47h239v-113z" />
    <glyph glyph-name="ainar.medi" unicode="&#x639;" horiz-adv-x="701" arabic-form="medial" 
d="M537 433q23 -25 34 -39t26 -44.5t15 -59.5v-106q0 -11 -22 -29.5t-26 -24.5h157v-130h-741v130h202q-5 8 -7.5 27t-9.5 27l-83 92v166q95 49 176 65t135.5 2.5t87 -32t56.5 -44.5zM213 329l83 -108q3 -4 12 -17.5t14.5 -20t19.5 -17t32 -17.5q25 10 39.5 16.5t33 16.5
t27 19.5t8.5 19.5v50q0 40 -37.5 68t-101.5 28t-130 -38z" />
    <glyph glyph-name="ghainar.fina" unicode="&#x63a;" horiz-adv-x="748" arabic-form="final" 
d="M454 590h-115v107h115v-107zM768 130v-130h-566q-35 -5 -38 -25q-6 -30 5 -61q6 -19 18 -29q23 -22 72 -22h67v-113h-98q-94 0 -133 33q-42 36 -51 122l-4 40v38q0 147 168 147h19l2 -2v2q-5 8 -7.5 27t-9.5 27l-83 92v166q95 49 176 65t135.5 2.5t87 -32t56.5 -44.5
q23 -25 34 -39t26 -44.5t15 -59.5v-106q0 -11 -22 -29.5t-26 -24.5h157zM529 221v50q0 40 -37.5 68t-101.5 28t-130 -38l83 -108q3 -4 12 -17.5t14.5 -20t19.5 -17t32 -17.5q25 10 39.5 16.5t33 16.5t27 19.5t8.5 19.5z" />
    <glyph glyph-name="ghainar.init" unicode="&#x63a;" horiz-adv-x="544" arabic-form="initial" 
d="M349 590h-115v107h115v-107zM450 367h-181q-92 0 -92 -96v-50q0 -54 19 -73q18 -18 75 -18h233v-130h-524v130h70q-5 28 -5 54v106q0 95 45 143q44 47 121 47h239v-113z" />
    <glyph glyph-name="ghainar.medi" unicode="&#x63a;" horiz-adv-x="701" arabic-form="medial" 
d="M415 590h-115v107h115v-107zM537 433q23 -25 34 -39t26 -44.5t15 -59.5v-106q0 -11 -22 -29.5t-26 -24.5h157v-130h-741v130h202q-5 8 -7.5 27t-9.5 27l-83 92v166q95 49 176 65t135.5 2.5t87 -32t56.5 -44.5zM213 329l83 -108q3 -4 12 -17.5t14.5 -20t19.5 -17t32 -17.5
q25 10 39.5 16.5t33 16.5t27 19.5t8.5 19.5v50q0 40 -37.5 68t-101.5 28t-130 -38z" />
    <glyph glyph-name="fehar.fina" unicode="&#x641;" horiz-adv-x="1231" arabic-form="final" 
d="M991 590h-115v107h115v-107zM942 483q125 0 181 -47q55 -46 55 -163v-68q0 -40 -8 -75h81v-130h-1031q-104 0 -142 47t-38 182q0 160 52 209q38 37 148 37v-125q-48 0 -75 -28q-26 -26 -26 -85q0 -52 25 -78q23 -29 71 -29h482q-8 35 -8 75v68q0 116 55 162q57 48 178 48
zM944 376q-105 0 -105 -105v-64q0 -99 103 -99q50 0 76 18q30 26 30 81v64q0 58 -25 82q-26 23 -79 23z" />
    <glyph glyph-name="fehar.init" unicode="&#x641;" horiz-adv-x="557" arabic-form="initial" 
d="M339 590h-115v107h115v-107zM281 483q126 0 181 -47q55 -46 55 -163v-68q0 -113 -59 -161q-56 -44 -175 -44h-303v130h76q-8 35 -8 75v68q0 115 56 162q56 48 177 48zM283 376q-105 0 -105 -105v-64q0 -99 103 -99q51 0 76 18q30 26 30 81v64q0 58 -25 82q-25 23 -79 23z
" />
    <glyph glyph-name="fehar.medi" unicode="&#x641;" horiz-adv-x="572" arabic-form="medial" 
d="M339 590h-115v107h115v-107zM283 483q125 0 181 -47q55 -46 55 -163v-68q0 -40 -8 -75h81v-130h-612v130h78q-8 35 -8 75v68q0 116 55 162q57 48 178 48zM285 376q-105 0 -105 -105v-64q0 -99 103 -99q51 0 76 18q30 26 30 81v64q0 58 -25 82q-26 23 -79 23z" />
    <glyph glyph-name="qafar.fina" unicode="&#x642;" horiz-adv-x="672" arabic-form="final" 
d="M356 590h-115v107h115v-107zM518 590h-115v107h115v-107zM388 483q126 0 182 -47q53 -44 53 -163v-143h69v-130h-69v-14q0 -89 -61 -147q-55 -53 -145 -74q-87 -20 -174 -5q-91 17 -145 61q-58 48 -58 165v55h130v-55q0 -56 26 -79q62 -54 176 -35q122 21 122 114v24
q-46 -11 -103 -11q-120 0 -176 44q-60 49 -60 162v68q0 114 57 162t176 48zM391 376q-106 0 -106 -105v-64q0 -99 103 -99q50 0 76 18q31 24 31 75v78q0 49 -25 74q-24 23 -79 23z" />
    <glyph glyph-name="qafar.init" unicode="&#x642;" horiz-adv-x="557" arabic-form="initial" 
d="M261 590h-115v107h115v-107zM423 590h-115v107h115v-107zM281 483q126 0 181 -47q55 -46 55 -163v-68q0 -113 -59 -161q-56 -44 -175 -44h-303v130h76q-8 35 -8 75v68q0 115 56 162q56 48 177 48zM283 376q-105 0 -105 -105v-64q0 -99 103 -99q51 0 76 18q30 26 30 81v64
q0 58 -25 82q-25 23 -79 23z" />
    <glyph glyph-name="qafar.medi" unicode="&#x642;" horiz-adv-x="572" arabic-form="medial" 
d="M261 590h-115v107h115v-107zM423 590h-115v107h115v-107zM283 483q125 0 181 -47q55 -46 55 -163v-68q0 -40 -8 -75h81v-130h-612v130h78q-8 35 -8 75v68q0 116 55 162q57 48 178 48zM285 376q-105 0 -105 -105v-64q0 -99 103 -99q51 0 76 18q30 26 30 81v64q0 58 -25 82
q-26 23 -79 23z" />
    <glyph glyph-name="kafar.fina" unicode="&#x643;" horiz-adv-x="1047" arabic-form="final" 
d="M943 719v-553q14 -29 53 -35q6 -1 72 -1v-130h-15q-66 0 -110 19v-19h-724q-103 0 -141 47t-38 182q0 159 52 208q38 37 148 37v-125q-50 0 -75 -27q-26 -28 -26 -86q0 -50 24 -78q22 -28 72 -28h578v589h130zM621 533h-69q-23 0 -31 -7q-11 -8 -12 -21q-1 -8 4 -17
q5 -8 14 -13l71 -44q18 -12 22 -16h1v-51h-180v51h83l-23 12q-27 14 -40 31q-10 13 -10 38q0 48 18 67q18 20 53 20h99v-50z" />
    <glyph glyph-name="kafar.init" unicode="&#x643;" horiz-adv-x="536" arabic-form="initial" 
d="M487 622l-205 -13q-56 -3 -73 -17q-24 -16 -27 -47q-3 -20 8 -40q10 -16 34 -31l186 -120q58 -38 72 -62q14 -26 14 -93q0 -107 -41 -153q-40 -46 -128 -46h-347v130h285q92 0 92 55q0 33 -5 50q-6 17 -27 30l-160 99q-73 46 -92 72q-23 32 -23 87q0 108 41 155
q36 41 122 46l274 14v-116z" />
    <glyph glyph-name="kafar.medi" unicode="&#x643;" horiz-adv-x="607" arabic-form="medial" 
d="M483 622l-204 -13q-56 -3 -73 -17q-22 -15 -27 -47q-3 -20 8 -40q10 -16 33 -31l187 -120q58 -38 72 -62q12 -24 14 -92l2 -11q9 -45 51 -56q14 -3 81 -3v-130h-19q-108 0 -151 51q-4 -4 -5 -6q-40 -45 -128 -45h-344v130h281q93 0 93 55q0 35 -6 50q-6 17 -27 30
l-159 99q-72 45 -93 72q-22 31 -22 87q0 108 41 155q36 41 122 46l273 14v-116z" />
    <glyph glyph-name="lamar.fina" unicode="&#x644;" horiz-adv-x="709" arabic-form="final" 
d="M624 741v-539q3 -32 17 -49q19 -23 67 -23h21v-130h-39q-28 0 -66 6v-20q0 -84 -62 -146q-57 -55 -144 -74q-88 -20 -175 -5q-90 15 -145 61q-58 46 -58 164v147h130v-147q0 -54 27 -78q65 -54 175 -35q123 19 123 113v755h129z" />
    <glyph glyph-name="lamar.init" unicode="&#x644;" horiz-adv-x="254" arabic-form="initial" 
d="M214 741v-566q0 -90 -49 -133q-49 -42 -164 -42h-21v130h20q42 6 60 17q25 16 25 58v536h129z" />
    <glyph glyph-name="lamar.medi" unicode="&#x644;" horiz-adv-x="299" arabic-form="medial" 
d="M214 741v-537q0 -41 26 -58q16 -10 59 -16h20v-130h-21q-100 0 -149 31q-49 -31 -148 -31h-21v130h20q42 6 60 17q25 16 25 57v537h129z" />
    <glyph glyph-name="meemar.fina" unicode="&#x645;" horiz-adv-x="757" arabic-form="final" 
d="M408 485q120 0 176 -44q61 -49 61 -163v-68q0 -16 -1 -25q10 -41 51 -52q13 -3 81 -3v-130q-136 0 -177 57l-11 -10q-21 -19 -59 -32q-34 -10 -47 -12q-29 -4 -72 -4q-85 0 -139 21q-101 -26 -101 -109v-158h-130v158q0 140 145 201q-13 39 -13 98v68q0 112 60 162
q56 45 176 45zM410 376q-51 0 -76 -19q-31 -24 -31 -81v-64q0 -58 25 -82q26 -24 80 -24q105 0 105 106v64q0 100 -103 100z" />
    <glyph glyph-name="meemar.init" unicode="&#x645;" horiz-adv-x="632" arabic-form="initial" 
d="M355 485q120 0 176 -44q61 -49 61 -163v-68q0 -115 -57 -163t-178 -48q-28 0 -42 1q-85 4 -129 37l-12 9l-15 15q-37 -61 -164 -61h-15v130q65 0 83 4q43 12 51 56l5 25v63q0 112 60 162q55 45 176 45zM357 376q-51 0 -76 -19q-31 -24 -31 -81v-64q0 -58 25 -82t80 -24
q105 0 105 106v64q0 100 -103 100z" />
    <glyph glyph-name="meemar.medi" unicode="&#x645;" horiz-adv-x="711" arabic-form="medial" 
d="M355 485q120 0 176 -44q61 -49 61 -163v-62l5 -26q9 -45 51 -56q12 -4 83 -4v-130h-15q-127 0 -165 62q-7 -9 -15 -15q-41 -43 -136 -47q-13 -1 -43 -1q-28 0 -42 1q-85 4 -129 37l-12 9l-15 15q-37 -61 -164 -61h-15v130q65 0 83 4q43 12 51 56l5 25v63q0 112 60 162
q55 45 176 45zM357 376q-51 0 -76 -19q-31 -24 -31 -81v-64q0 -58 25 -82t80 -24q105 0 105 106v64q0 100 -103 100z" />
    <glyph glyph-name="noonar.fina" unicode="&#x646;" horiz-adv-x="742" arabic-form="final" 
d="M379 508h-134v107h134v-107zM621 486v-249q0 -22 5 -44q11 -47 54 -59q18 -4 82 -4v-130h-26q-67 0 -115 27v-38q0 -88 -61 -146q-54 -54 -145 -75q-84 -19 -174 -4q-91 15 -146 60q-58 48 -58 165v346h130v-346q0 -56 26 -79q62 -53 176 -35q122 20 122 114v497h130z
" />
    <glyph glyph-name="noonar.init" unicode="&#x646;" horiz-adv-x="266" arabic-form="initial" 
d="M216 590h-115v107h115v-107zM226 483v-278q0 -102 -71 -155q-65 -50 -160 -50h-15v130q72 0 93 8q34 13 34 67v278h119z" />
    <glyph glyph-name="noonar.medi" unicode="&#x646;" horiz-adv-x="341" arabic-form="medial" 
d="M230 589h-115v107h115v-107zM234 483v-278q0 -54 34 -67q21 -8 93 -8v-130h-15q-109 0 -176 64q-65 -64 -190 -64v130q72 0 93 8q34 13 34 67v278h127z" />
    <glyph glyph-name="hehar.fina" unicode="&#x647;" horiz-adv-x="585" arabic-form="final" 
d="M261 483q100 0 146 -28q34 -19 52 -78q7 -23 24 -111q14 -69 31 -97q23 -39 71 -39h20v-130h-20q-175 0 -213 132l-26 148q-10 57 -18 70q-18 27 -67 27q-42 0 -68 -17q-34 -22 -34 -78v-66q0 -50 20 -69q20 -17 75 -17h108v-130h-141q-105 0 -148 42q-43 40 -43 143v102
q0 114 50 155t181 41z" />
    <glyph glyph-name="hehar.init" unicode="&#x647;" horiz-adv-x="678" arabic-form="initial" 
d="M63 486l422 -60q86 -12 119 -58q34 -46 34 -155q0 -112 -45 -163q-44 -50 -151 -50h-462v130h104q-11 33 -11 75v49q0 62 25 96l-44 6zM243 324q-35 0 -54 -14q-22 -16 -22 -58v-46q0 -41 17 -58q19 -17 57 -17q76 0 76 75v46q0 72 -74 72zM447 299l-42 6q5 -25 5 -51
v-49q0 -43 -12 -75h38q97 0 97 84v15q0 58 -86 70z" />
    <glyph glyph-name="hehar.medi" unicode="&#x647;" horiz-adv-x="760" arabic-form="medial" 
d="M63 486l422 -60q86 -12 119 -58q30 -40 33 -133l10 -46q10 -46 51 -56q14 -3 82 -3v-130h-15q-126 0 -163 61l-9 -11q-41 -50 -151 -50h-462v130h106q-13 30 -13 78v49q0 58 23 93l-42 6zM243 326q-38 0 -54 -13q-23 -17 -23 -58v-46q0 -41 18 -58q18 -18 57 -18
q76 0 76 76v46q0 71 -74 71zM447 299l-41 6q4 -20 4 -48v-49q0 -46 -12 -78h38q97 0 97 84v15q0 58 -86 70z" />
    <glyph glyph-name="wawar.fina" unicode="&#x648;" horiz-adv-x="568" arabic-form="final" 
d="M588 130v-130h-70v-62q0 -105 -46 -142q-24 -19 -106 -38.5t-148 -19.5l-59 119q40 0 115 7t87 17q28 24 28 72v46h-147q-95 0 -134 33q-36 30 -55 85t-14 116.5t28.5 117.5t77.5 92.5t127 36.5h246v-350h70zM389 367h-111q-78 0 -110 -71q-26 -59 -5 -115q20 -51 66 -51
h160v237z" />
    <glyph glyph-name="alefMaksuraar.fina" unicode="&#x649;" horiz-adv-x="1060" arabic-form="final" 
d="M239 229v-124q-49 0 -74 -27q-26 -28 -26 -86q0 -50 24 -78q22 -28 72 -28h550q47 0 70 21q12 11 19 29q7 20 5 39q-2 25 -38 25h-236v130h475v-130h-78v-54l-3 -35q-7 -86 -50 -122q-39 -33 -134 -33h-596q-103 0 -141 47t-38 182q0 159 52 208q39 36 147 36z" />
    <glyph glyph-name="yehar.fina" unicode="&#x64a;" horiz-adv-x="1060" arabic-form="final" 
d="M239 229v-124q-49 0 -74 -27q-26 -28 -26 -86q0 -50 24 -78q22 -28 72 -28h550q47 0 70 21q12 11 19 29q7 20 5 39q-2 25 -38 25h-236v130h475v-130h-78v-54l-3 -35q-7 -86 -50 -122q-39 -33 -134 -33h-596q-103 0 -141 47t-38 182q0 159 52 208q39 36 147 36zM514 -434
h-115v107h115v-107zM676 -434h-115v107h115v-107z" />
    <glyph glyph-name="yehar.init" unicode="&#x64a;" horiz-adv-x="397" arabic-form="initial" 
d="M357 483v-278q0 -101 -70 -155q-67 -50 -175 -50h-132v130h132q72 0 93 8q34 13 34 67v278h118zM150 -217h-115v107h115v-107zM312 -217h-115v107h115v-107z" />
    <glyph glyph-name="yehar.medi" unicode="&#x64a;" horiz-adv-x="445" arabic-form="medial" 
d="M327 483v-278q0 -53 35 -67q19 -8 93 -8h10v-130h-10q-124 0 -191 64q-67 -64 -191 -64h-93v130h93q72 0 93 8q35 14 35 67v278h126zM242 -217h-115v107h115v-107zM404 -217h-115v107h115v-107z" />
    <glyph glyph-name=".notdef" horiz-adv-x="897" 
d="M448 997h9q7 -1 12 -1h1q154 0 274 -126q113 -119 113 -282v-3q0 -11 -1 -16v-11q-1 -5 -1 -8q-1 -2 -1.5 -6.5t-0.5 -6.5v-5l-2 -15q0 -1 -1 -2q-20 -106 -88 -188l-39 40q79 97 79 222q0 147 -104 251t-251 104t-251 -104t-104 -251q0 -126 80 -224l-38 -38
q-67 82 -87 187q0 2 -1 3l-2 15q0 2 -1 5q-1 5 -1 13q0 5 -1 8q0 9 -1 11v19q0 169 120 289t288 120zM447 936q143 0 245 -102q101 -101 101 -245q0 -122 -76 -216l-42 42q59 77 59 174q0 119 -84 203q-84 85 -203 85t-203 -85q-84 -84 -84 -203q0 -98 60 -176l-41 -42
q-78 96 -78 218q0 144 101 245q102 102 245 102zM447 868q115 0 197 -82q82 -81 82 -197q0 -95 -57 -168l-45 45q40 55 40 125q0 90 -64 154q-64 63 -154 63t-153 -63q-64 -64 -64 -154q0 -71 42 -128l-45 -44q-58 74 -58 170q0 116 82 197q82 82 197 82zM446 692
q40 0 68 -28t28 -68q0 -38 -27 -67l245 -263h-623l242 260q-30 28 -30 70q0 39 29 68q28 28 68 28zM187 164h22v3q0 17 12 29t29 12t29 -12t12 -29v-3h68l-42 23q1 2 4.5 8.5t6.5 11.5v-1l18 -10l17 -9l22 -13h1v-32h-104q-12 -16 -32 -16t-33 16h-52v82h22v-60zM460 224
v-20q7 4 18 4h61v-66h-112v22h11v60h22zM654 224v-20q8 4 18 4h62v-44h70q-7 5 -21 11l-21 12q1 4 6 10l5 9l25 -12q5 -4 10 -7l11 -7l12 -6v-1v-31h-227q-12 -23 -38 -23h-3v22h3q6 0 11 3q-13 4 -20 17q-5 8 -3 17q3 26 30 30h26v-44h22v60h22zM810 207h-16v17h16v-17z
M111 207q18 0 30 -12q13 -13 13 -31q0 -13 -8 -24h-70q-8 11 -8 24q0 18 13 31q12 12 30 12zM111 185q-20 0 -20 -21v-1h40l1 1q0 21 -21 21zM250 185q-18 0 -18 -18t18 -18t18 18t-18 18zM517 185h-38q-18 0 -18 -18v-3h56v21zM589 164v21q-14 -2 -14 -10q0 -9 14 -11z
M711 185h-38q-18 0 -18 -18q0 -2 1 -3h55v21zM566 109v-16q-6 0 -6 -4v-16h6v-15h-6v-40h6v-15h-27v55h-6v15h6v26q0 17 27 10zM87 110q10 -3 10 -11v-34q7 9 22 9q25 0 25 -25v-31h7v-15h-27v43q0 12 -13 12q-14 -2 -14 -12v-28h7v-15h-27v86q0 5 -7 4v16q7 3 17 1z
M444 110q10 -3 10 -11v-34q8 9 22 9q25 0 25 -25v-31h7v-15h-27v43q0 12 -14 12q-13 -1 -13 -12v-28h7v-15h-27v86q0 5 -7 4v16q7 3 17 1zM749 73h13v-15h-13v-36q0 -5 7 -4v-15q-6 -4 -17 -2q-10 3 -10 11v71h-7v15h27v-25zM321 74q26 0 26 -25v-31h6v-15h-26v43
q0 12 -14 12q-13 -1 -13 -11v-29h7v-15h-27v43q0 14 -14 12q-13 -1 -13 -12v-28h6v-15h-27v51q0 4 -6 4v15q25 7 25 -10q6 11 23 11q15 0 23 -11q8 12 24 11zM690 74q25 0 25 -25v-31h7v-15h-27v43q0 12 -13 12q-13 -1 -13 -12v-28h6v-15h-27v50q0 5 -6 5v15q25 7 25 -10
q6 11 23 11zM177 74q14 0 22 -8v7h25v-15h-6v-36q0 -5 6 -5v-14q-6 -4 -15 -2q-10 3 -10 11q0 -11 -22 -11q-26 2 -26 26v22q0 25 26 25zM379 74q14 0 22 -8v7h25v-15h-6v-36q0 -5 6 -5v-14q-6 -4 -15 -2q-10 3 -10 11q0 -11 -22 -11q-26 2 -26 26v22q0 25 26 25zM605 74
q37 0 37 -36q-1 -36 -37 -37q-19 -1 -28 8.5t-9 28.5q0 36 37 36zM794 74q27 0 27 -15v-8h-17q0 8 -9 8q-5 0 -7.5 -1.5t-1.5 -3.5q0 -5 19 -12t19 -20q0 -21 -31 -21q-28 0 -30 17v7h17q0 -10 13 -10q11 0 11 7q0 5 -19 12t-19 20q0 20 28 20zM186 58q-14 0 -14 -13v-15
q0 -13 13 -12q14 0 14 12v15q0 12 -13 13zM388 58q-14 0 -14 -13v-15q0 -14 14 -12q13 0 13 12v15q0 12 -13 13zM605 58q-17 0 -17 -20q0 -21 17 -21t17 21q0 20 -17 20z" />
    <glyph glyph-name=".null" 
 />
    <glyph glyph-name="nonmarkingreturn" horiz-adv-x="500" 
 />
    <glyph glyph-name="CR" unicode="&#xd;" horiz-adv-x="500" 
 />
    <glyph glyph-name="space" unicode=" " horiz-adv-x="226" 
 />
    <glyph glyph-name="exclam" unicode="!" horiz-adv-x="305" 
d="M226 431l-15 -209h-118l-16 209v274h149v-274zM135 153h35q29 0 40.5 -11t11.5 -41v-48q0 -30 -11.5 -41.5t-40.5 -11.5h-35q-30 0 -41.5 11.5t-11.5 41.5v48q0 30 11.5 41t41.5 11z" />
    <glyph glyph-name="quotedbl" unicode="&#x22;" horiz-adv-x="381" 
d="M154 476h-92l-8 224h109zM319 476h-93l-9 224h111z" />
    <glyph glyph-name="numbersign" unicode="#" horiz-adv-x="721" 
d="M574 522h114l-17 -90h-112l-24 -142h111l-18 -90h-109l-35 -200h-114l35 200h-141l-35 -200h-113l34 200h-118l18 90h116l25 142h-116l17 90h115l31 178h113l-31 -178h142l30 178h114zM304 432l-24 -142h141l25 142h-142z" />
    <glyph glyph-name="dollar" unicode="$" horiz-adv-x="586" 
d="M404 805l-10 -96q73 -7 131 -23l-9 -105q-88 3 -218 3q-60 0 -80 -11t-20 -53q0 -35 15.5 -50t58.5 -29l130 -46q81 -28 113.5 -77t32.5 -129q0 -112 -51 -155.5t-179 -45.5l-10 -110h-113l10 113q-69 5 -152 22l10 114q169 -4 228 -4q61 0 82 12.5t21 52.5q0 35 -14 49
t-53 28l-138 50q-77 27 -110 76t-33 129q0 113 52.5 152.5t183.5 41.5l9 91h113z" />
    <glyph glyph-name="percent" unicode="%" horiz-adv-x="921" 
d="M208 714q98 0 136.5 -46t38.5 -163q0 -116 -39 -162t-136 -46t-135 46t-38 162q0 117 38 163t135 46zM297 0h-96l420 700h96zM207 630q-37 0 -49.5 -24.5t-12.5 -100.5t12.5 -100t49.5 -24q39 0 51.5 24t12.5 100t-12.5 100.5t-51.5 24.5zM712 405q97 0 135.5 -46
t38.5 -162t-38.5 -162.5t-135.5 -46.5t-135 46.5t-38 162.5t38 162t135 46zM712 321q-38 0 -50 -24t-12 -100q0 -77 12 -101t50 -24q37 0 49.5 24.5t12.5 100.5q0 75 -12.5 99.5t-49.5 24.5z" />
    <glyph glyph-name="ampersand" unicode="&#x26;" horiz-adv-x="776" 
d="M345 713q100 0 166 -13l-19 -106q-102 3 -151 3q-67 0 -89.5 -17t-22.5 -75q0 -54 20 -73t75 -19h154l10 108h126v-108h109v-104h-109v-148q0 -29 10.5 -40t38.5 -11h63l16 -102q-54 -20 -129 -20q-102 0 -130 74q-41 -40 -91.5 -57t-127.5 -17q-115 0 -163.5 42.5
t-48.5 147.5q0 84 32 130.5t106 52.5v4q-62 7 -89.5 46.5t-27.5 117.5q0 49 10 81.5t28.5 53t54 31.5t75.5 14.5t104 3.5zM473 309h-157q-59 0 -80 -21t-21 -80q0 -58 18.5 -77.5t74.5 -18.5q97 0 165 45v152z" />
    <glyph glyph-name="quotesingle" unicode="'" horiz-adv-x="216" 
d="M154 476h-92l-8 224h109z" />
    <glyph glyph-name="parenleft" unicode="(" horiz-adv-x="370" 
d="M334 802l17 -65q-87 -40 -126.5 -144.5t-39.5 -274.5q0 -339 166 -421l-17 -64q-152 48 -223 165.5t-71 318.5q0 202 71 319.5t223 165.5z" />
    <glyph glyph-name="parenright" unicode=")" horiz-adv-x="370" 
d="M19 737l18 65q152 -48 223 -165.5t71 -319.5q0 -201 -71 -318.5t-223 -165.5l-18 64q167 82 167 421q0 342 -167 419z" />
    <glyph glyph-name="asterisk" unicode="*" horiz-adv-x="459" 
d="M259 532l107 -131l-66 -50l-71 124l-71 -123l-67 49l109 130l-12 170h83zM182 571v-36l-19 -22l-124 29l25 79zM420 542l-124 -29l-19 22v36l118 50z" />
    <glyph glyph-name="plus" unicode="+" horiz-adv-x="547" 
d="M329 360h175v-109h-175v-170h-111v170h-175v109h174v171h112v-171z" />
    <glyph glyph-name="comma" unicode="," horiz-adv-x="247" 
d="M106 153h35q29 0 40.5 -11t11.5 -41v-64q0 -102 -52 -186l-62 19q14 60 14 130q-20 0 -31.5 12.5t-10.5 34.5l1 54q1 30 12.5 41t41.5 11z" />
    <glyph glyph-name="hyphen" unicode="-" horiz-adv-x="420" 
d="M361 209h-302v99h302v-99z" />
    <glyph glyph-name="period" unicode="." horiz-adv-x="250" 
d="M105 153h40q30 0 41.5 -11t11.5 -41v-48q0 -30 -11.5 -41.5t-41.5 -11.5h-40q-30 0 -41.5 11.5t-11.5 41.5v48q0 30 11.5 41t41.5 11z" />
    <glyph glyph-name="slash" unicode="/" horiz-adv-x="558" 
d="M139 -73h-119l399 773h119z" />
    <glyph glyph-name="zero" unicode="0" horiz-adv-x="638" 
d="M319 714q150 0 210 -81.5t60 -282.5t-60 -282t-210 -81t-209.5 81t-59.5 282t60 282.5t209 81.5zM318 591q-68 0 -92 -49.5t-24 -191.5t24 -191t92 -49q69 0 93.5 49t24.5 191q0 143 -24.5 192t-93.5 49z" />
    <glyph glyph-name="one" unicode="1" horiz-adv-x="435" 
d="M341 0h-154v493q0 45 6 76l-164 -42l-18 103l176 70h154v-700z" />
    <glyph glyph-name="two" unicode="2" horiz-adv-x="587" 
d="M287 713q118 0 176.5 -34.5t58.5 -128.5q0 -63 -23 -111.5t-91 -119.5l-180 -187q40 7 104 7h210v-139h-496v86q0 40 22 63l172 185q64 69 94.5 116.5t29.5 83.5q-1 30 -22 38.5t-73 8.5q-109 0 -211 -10l-6 117q122 25 235 25z" />
    <glyph glyph-name="three" unicode="3" horiz-adv-x="574" 
d="M275 714q124 0 176 -35.5t52 -127.5q0 -78 -23 -122t-83 -54v-5q68 -11 96 -53t29 -122q2 -111 -53 -159.5t-187 -48.5q-103 0 -240 18l6 116q113 -7 193 -7q73 0 100.5 20.5t27.5 80.5q0 52 -22 74.5t-85 22.5h-131v105h131q60 0 77.5 22.5t17.5 71.5q-1 49 -22 63
t-86 14q-87 0 -187 -4l-7 111q119 19 220 19z" />
    <glyph glyph-name="four" unicode="4" horiz-adv-x="646" 
d="M360 700l-166 -403q-6 -17 -0.5 -25t20.5 -8h170v189l25 111h118v-300h87v-96l-85 -14h-2v-154h-143v154h-277q-46 0 -69 35.5t-6 78.5l182 432h146z" />
    <glyph glyph-name="five" unicode="5" horiz-adv-x="559" 
d="M490 581h-287l-8 -127l100 -12q122 -15 172 -71.5t50 -156.5q0 -226 -245 -226q-101 0 -233 22l14 120q113 -12 180 -12q76 0 102 22t28 77q1 27 -5 44.5t-14.5 28.5t-33 18t-44.5 10t-66 8l-85 10q-23 2 -36.5 18t-12.5 39l17 307h412z" />
    <glyph glyph-name="six" unicode="6" horiz-adv-x="597" 
d="M344 713q100 0 166 -19l-9 -101q-52 2 -157 2q-79 0 -108 -35t-34 -149q32 29 67 40t87 11q114 0 157 -50t43 -172q0 -65 -10 -108.5t-36 -78t-75 -50t-124 -15.5q-106 0 -160 31t-76.5 105.5t-22.5 218.5q0 118 17 192.5t57 113t89 51.5t129 13zM312 349q-55 0 -111 -36
q1 -132 19 -169t92 -37q63 0 80.5 27.5t17.5 101.5q0 66 -19.5 89.5t-78.5 23.5z" />
    <glyph glyph-name="seven" unicode="7" horiz-adv-x="534" 
d="M27 700h421q38 0 56 -23.5t6 -58.5l-213 -618h-152l178 507q15 44 29 66h-319z" />
    <glyph glyph-name="eight" unicode="8" horiz-adv-x="628" 
d="M315 713q98 0 151.5 -20.5t72.5 -59t19 -107.5q0 -65 -25.5 -110t-77.5 -51v-4q66 -6 92.5 -54.5t26.5 -131.5q0 -69 -21 -107.5t-77.5 -59t-160.5 -21.5q-151 -1 -206 42.5t-55 145.5q0 175 121 186v4q-53 6 -78.5 50.5t-25.5 110.5q0 102 50.5 144.5t193.5 42.5z
M316 602q-65 0 -85.5 -19t-20.5 -76q0 -54 21 -72t86 -18q63 0 82 18t19 72q0 57 -20 76t-82 19zM317 310q-72 0 -95 -21t-23 -83q0 -59 23 -79t94 -20q68 0 90 20t22 79q0 63 -21.5 83.5t-89.5 20.5z" />
    <glyph glyph-name="nine" unicode="9" horiz-adv-x="597" 
d="M289 713q82 0 130.5 -15.5t76.5 -59t37.5 -107.5t9.5 -174q0 -118 -15 -190t-52.5 -112t-88.5 -53.5t-135 -13.5q-106 0 -180 18l9 103q57 -2 170 -2q79 0 109 38t34 146q-57 -52 -155 -52q-107 0 -151.5 59t-44.5 163q-1 134 53.5 193t192.5 59zM288 595q-62 0 -81 -29
t-19 -102q0 -62 20 -88t76 -26q53 0 111 39q0 131 -18 168.5t-89 37.5z" />
    <glyph glyph-name="colon" unicode=":" horiz-adv-x="263" 
d="M106 458h40q30 0 41.5 -11.5t11.5 -41.5v-49q0 -29 -11.5 -40.5t-41.5 -11.5h-40q-30 0 -41.5 11.5t-11.5 40.5v49q0 30 11.5 41.5t41.5 11.5zM106 154h40q30 0 41.5 -11.5t11.5 -41.5v-48q0 -30 -11.5 -41.5t-41.5 -11.5h-40q-30 0 -41.5 11.5t-11.5 41.5v48
q0 30 11.5 41.5t41.5 11.5z" />
    <glyph glyph-name="semicolon" unicode=";" horiz-adv-x="263" 
d="M113 458h40q30 0 41.5 -11.5t11.5 -41.5v-49q0 -29 -11.5 -40.5t-41.5 -11.5h-40q-30 0 -41.5 11.5t-11.5 40.5v49q0 30 11.5 41.5t41.5 11.5zM114 153h35q30 0 41.5 -11t11.5 -41v-64q0 -101 -53 -186l-62 19q13 49 16 130q-46 0 -44 47l2 54q1 30 12.5 41t40.5 11z" />
    <glyph glyph-name="less" unicode="&#x3c;" horiz-adv-x="526" 
d="M467 414l-300 -108l300 -109v-117l-426 168v115l426 168v-117z" />
    <glyph glyph-name="equal" unicode="=" horiz-adv-x="588" 
d="M527 356h-466v107h466v-107zM527 140h-466v107h466v-107z" />
    <glyph glyph-name="greater" unicode="&#x3e;" horiz-adv-x="525" 
d="M484 363v-115l-426 -168v117l299 109l-299 108v117z" />
    <glyph glyph-name="question" unicode="?" horiz-adv-x="524" 
d="M276 723q110 0 163.5 -38.5t53.5 -119.5q0 -41 -17.5 -75.5t-43 -61t-52 -54t-46.5 -66.5t-23 -86h-122q-2 50 11.5 93t35 72.5t43 54t37.5 49t18 45.5q3 34 -19 49.5t-74 15.5q-89 0 -204 -5l-6 102q11 2 35 6.5t34.5 6.5t32 5t39.5 4t45 2t59 1zM231 153h36
q30 0 41.5 -11t11.5 -41v-48q0 -30 -11.5 -41.5t-41.5 -11.5h-36q-29 0 -40.5 11.5t-11.5 41.5v48q0 30 11.5 41t40.5 11z" />
    <glyph glyph-name="at" unicode="@" horiz-adv-x="767" 
d="M379 610h154q89 0 132.5 -39t43.5 -129v-305h-110l-13 70q-29 -33 -76 -57t-102 -24q-63 0 -103 33.5t-40 94.5v48q0 52 33.5 82t95.5 30h176v25q0 34 -14.5 46.5t-53.5 12.5h-123q-36 0 -55 -0.5t-41.5 -4t-33 -9t-22.5 -17.5t-16 -26.5t-8.5 -40.5t-5.5 -55t-1 -73
q0 -61 1.5 -96.5t13 -63.5t20.5 -40t42 -19.5t58 -8t86 -0.5h5h286v-101q-175 -13 -285 -13q-87 0 -141.5 3.5t-99 18.5t-66 35.5t-36.5 63t-18.5 91.5t-3.5 130q0 80 3 128t16 90t32.5 62t58 35t86.5 19t125 4zM570 339l-122 -4q-27 -1 -37.5 -10.5t-10.5 -31.5v-16
q0 -47 49 -47q70 0 121 45v64z" />
    <glyph glyph-name="A" unicode="A" horiz-adv-x="660" 
d="M257 700h146q41 0 54 -40l202 -660h-158l-50 184h-241l-51 -184h-158l202 660q13 40 54 40zM344 584h-27q-13 -57 -16 -66l-58 -215h174l-59 215q-10 33 -14 66z" />
    <glyph glyph-name="B" unicode="B" horiz-adv-x="647" 
d="M334 708q140 0 194 -38t54 -144q0 -76 -29 -115t-94 -46v-4q78 -7 111.5 -53t33.5 -133q0 -106 -54 -144.5t-184 -38.5q-194 0 -295 8v700q90 8 263 8zM222 414h113q57 0 77.5 18.5t20.5 71.5t-22 70t-84 18l-105 1v-179zM222 312v-203h118q64 0 86.5 18.5t22.5 76.5
q0 63 -23.5 85.5t-89.5 22.5h-114z" />
    <glyph glyph-name="C" unicode="C" horiz-adv-x="595" 
d="M342 713q114 0 210 -24l-13 -116q-79 6 -197 6q-76 0 -104 -48.5t-28 -180.5t28 -180t104 -48q141 0 211 9l13 -115q-91 -28 -224 -28q-162 0 -228 81t-66 281t66 281.5t228 81.5z" />
    <glyph glyph-name="D" unicode="D" horiz-adv-x="690" 
d="M343 709q167 0 232.5 -77t65.5 -282t-65.5 -282t-232.5 -77q-128 0 -272 9v700q144 9 272 9zM225 588v-474q17 0 56.5 -0.5t61.5 -0.5q79 0 107.5 49.5t28.5 187.5t-28.5 189t-107.5 50z" />
    <glyph glyph-name="E" unicode="E" horiz-adv-x="585" 
d="M219 703q230 0 325 -10l-7 -114h-269q-48 0 -48 -52v-107h279v-111h-279v-135q0 -28 11 -40.5t37 -12.5h269l7 -114q-95 -10 -325 -10q-70 0 -112 38.5t-42 102.5v424q0 65 42 103t112 38z" />
    <glyph glyph-name="F" unicode="F" horiz-adv-x="562" 
d="M223 703q224 0 315 -11l-8 -113h-251q-29 0 -42 -12.5t-13 -39.5v-120h268v-113h-268v-294h-155v558q0 68 42 106.5t112 38.5z" />
    <glyph glyph-name="G" unicode="G" horiz-adv-x="655" 
d="M361 714q124 0 216 -25l-13 -113q-115 5 -198 5q-62 0 -93 -16t-46.5 -66.5t-15.5 -151.5q0 -130 25 -179t90 -49q60 0 126 35v250h149v-404h-114l-14 70q-81 -83 -202 -83q-118 0 -170.5 86t-52.5 279q0 206 69.5 284t243.5 78z" />
    <glyph glyph-name="H" unicode="H" horiz-adv-x="698" 
d="M627 0h-154v313h-248v-313h-154v700h154v-268h248v268h154v-700z" />
    <glyph glyph-name="I" unicode="I" horiz-adv-x="296" 
d="M225 0h-154v700h154v-700z" />
    <glyph glyph-name="J" unicode="J" horiz-adv-x="375" 
d="M307 700v-553q0 -76 -42 -117.5t-117 -41.5q-83 0 -128 20l18 104h47q67 0 67 53v535h155z" />
    <glyph glyph-name="K" unicode="K" horiz-adv-x="640" 
d="M623 700l-180 -279q-25 -35 -51 -56v-4q36 -25 59 -62l184 -299h-172l-185 309h-60q7 -42 7 -67v-242h-154v700h154v-198q0 -44 -7 -83h60l178 281h167z" />
    <glyph glyph-name="L" unicode="L" horiz-adv-x="540" 
d="M223 700v-522q0 -28 13 -40t42 -12h241l7 -118q-103 -11 -297 -11q-81 0 -120.5 40.5t-39.5 108.5v554h154z" />
    <glyph glyph-name="M" unicode="M" horiz-adv-x="925" 
d="M633 700h150q54 0 57 -58l28 -642h-146l-24 580h-17l-105 -434q-14 -50 -63 -50h-102q-51 0 -63 50l-106 434h-18l-20 -580h-146l25 642q2 58 58 58h149q49 0 61 -49l85 -350q9 -32 19 -98h13q1 4 7 41t11 57l84 350q14 49 63 49z" />
    <glyph glyph-name="N" unicode="N" horiz-adv-x="733" 
d="M662 700v-644q0 -56 -55 -56h-96q-24 0 -37 10.5t-25 35.5l-184 373q-34 71 -43 109h-11q7 -52 7 -112v-416h-147v645q0 55 56 55h94q23 0 36.5 -10.5t25.5 -34.5l178 -363q17 -34 51 -112h10q-6 78 -6 117v403h146z" />
    <glyph glyph-name="O" unicode="O" horiz-adv-x="694" 
d="M347 714q168 0 234.5 -78t66.5 -286t-66.5 -285.5t-234.5 -77.5t-233.5 77.5t-65.5 285.5t65.5 286t233.5 78zM347 589q-79 0 -108 -50t-29 -189t29 -188.5t108 -49.5q80 0 108.5 49.5t28.5 188.5t-28.5 189t-108.5 50z" />
    <glyph glyph-name="P" unicode="P" horiz-adv-x="623" 
d="M337 709q147 0 201.5 -47.5t54.5 -180.5t-51.5 -181t-184.5 -48q-66 0 -132 8v-260h-154v700q95 9 266 9zM225 590v-220h109q60 0 81.5 23t21.5 88t-21.5 88t-81.5 22z" />
    <glyph glyph-name="Q" unicode="Q" horiz-adv-x="696" 
d="M348 714q168 0 234 -78t66 -286t-66 -285.5t-234 -77.5t-234 77.5t-66 285.5t66 286t234 78zM348 589q-79 0 -108 -50t-29 -189t29 -188.5t108 -49.5q80 0 108.5 49.5t28.5 188.5t-28.5 189t-108.5 50zM261 -118l36 82q121 -42 305 -69l-44 -138q-149 38 -297 125z" />
    <glyph glyph-name="R" unicode="R" horiz-adv-x="653" 
d="M338 709q141 0 200 -44.5t59 -162.5q0 -157 -134 -173v-5q74 -17 99 -106l61 -218h-163l-53 214q-8 33 -25 46t-50 13l-109 1v-274h-152v700q95 9 267 9zM223 590v-197h112q61 0 83.5 21t22.5 78q0 58 -22.5 79t-83.5 20z" />
    <glyph glyph-name="S" unicode="S" horiz-adv-x="591" 
d="M298 714q132 0 231 -28l-10 -105q-89 3 -220 3q-61 0 -81 -10.5t-20 -53.5q0 -35 15 -49.5t58 -29.5l133 -46q81 -28 114.5 -77.5t33.5 -128.5q0 -118 -57 -160t-203 -42q-119 0 -240 26l9 112q217 -5 231 -5q63 0 83.5 13t20.5 55q0 35 -14 49.5t-52 27.5l-141 50
q-78 27 -111.5 76t-33.5 129q0 116 56.5 155t197.5 39z" />
    <glyph glyph-name="T" unicode="T" horiz-adv-x="610" 
d="M592 574h-209v-574h-156v574h-209v126h574v-126z" />
    <glyph glyph-name="U" unicode="U" horiz-adv-x="691" 
d="M626 700v-421q0 -160 -61.5 -226t-211.5 -66q-158 0 -222.5 65.5t-64.5 226.5v421h154v-421q0 -96 27 -131.5t99 -35.5q70 0 97.5 35.5t27.5 131.5v421h155z" />
    <glyph glyph-name="V" unicode="V" horiz-adv-x="646" 
d="M638 700l-189 -657q-12 -43 -55 -43h-141q-43 0 -55 43l-191 657h159l127 -505q14 -60 18 -78h25q3 21 17 78l126 505h159z" />
    <glyph glyph-name="W" unicode="W" horiz-adv-x="988" 
d="M961 700l-110 -657q-3 -19 -19 -31t-37 -12h-148q-21 0 -36.5 12t-18.5 32l-76 457q-10 61 -13 89h-19q-1 -10 -3.5 -28.5t-4.5 -33.5t-4 -28l-75 -456q-3 -20 -19 -32t-37 -12h-148q-21 0 -37 12t-19 31l-111 657h159l68 -486q6 -45 9 -101h20q4 32 15 101l76 439
q4 21 18.5 34t35.5 13h134q21 0 35.5 -13t18.5 -34l75 -440q11 -73 14 -100h22q4 59 9 99l69 488h157z" />
    <glyph glyph-name="X" unicode="X" horiz-adv-x="651" 
d="M458 359l182 -359h-160l-149 312h-12l-149 -312h-160l183 359l-169 341h159l135 -289h15l135 289h158z" />
    <glyph glyph-name="Y" unicode="Y" horiz-adv-x="617" 
d="M387 231v-231h-156v231l-231 469h161l117 -256q10 -24 26 -89h11q12 59 25 89l117 256h159z" />
    <glyph glyph-name="Z" unicode="Z" horiz-adv-x="592" 
d="M544 582l-333 -463h341v-119h-511v119l333 463h-325v118h495v-118z" />
    <glyph glyph-name="bracketleft" unicode="[" horiz-adv-x="351" 
d="M318 686h-82q-19 0 -19 -19v-722q0 -19 19 -19h82v-93h-163q-78 0 -78 78v790q0 34 22 56.5t56 22.5h163v-94z" />
    <glyph glyph-name="backslash" unicode="\" horiz-adv-x="559" 
d="M539 -73h-120l-399 773h120z" />
    <glyph glyph-name="bracketright" unicode="]" horiz-adv-x="351" 
d="M33 780h162q35 0 57 -22t22 -57v-790q0 -35 -22 -56.5t-57 -21.5h-162v93h82q19 0 19 19v722q0 19 -19 19h-82v94z" />
    <glyph glyph-name="asciicircum" unicode="^" horiz-adv-x="469" 
d="M438 408l-58 -32l-140 167h-9l-143 -167l-58 32l151 228h108z" />
    <glyph glyph-name="underscore" unicode="_" horiz-adv-x="565" 
d="M509 -98h-452v98h452v-98z" />
    <glyph glyph-name="a" unicode="a" horiz-adv-x="576" 
d="M322 515q101 0 149 -41t48 -143v-331h-119l-15 76q-77 -88 -185 -88q-72 0 -117.5 38t-45.5 106v51q0 60 40.5 93.5t112.5 33.5h178v22q0 38 -17 51.5t-65 13.5q-83 0 -211 -8l-14 101q140 25 261 25zM368 219h-135q-48 0 -48 -47v-20q0 -52 59 -52q60 0 124 49v70z" />
    <glyph glyph-name="b" unicode="b" horiz-adv-x="601" 
d="M211 710v-159q0 -70 -13 -118q80 82 178 82q97 0 140 -60.5t43 -199.5q0 -62 -10.5 -107.5t-36 -83t-75 -57t-122.5 -19.5q-61 0 -136.5 10t-118.5 28v684h151zM316 395q-42 0 -106 -43v-243q50 -12 102 -10t72.5 34.5t20.5 120.5q0 83 -17.5 112t-71.5 29z" />
    <glyph glyph-name="c" unicode="c" horiz-adv-x="515" 
d="M293 515q112 0 185 -32l-16 -93q-110 2 -143 2q-69 0 -95 -29.5t-26 -111.5t26 -111.5t95 -29.5q88 0 153 9l13 -98q-77 -33 -194 -33q-137 0 -193.5 59t-56.5 204t57 204.5t195 59.5z" />
    <glyph glyph-name="d" unicode="d" horiz-adv-x="603" 
d="M541 0h-119l-12 73q-72 -85 -191 -85q-93 0 -135 67t-42 200q0 144 46.5 202t144.5 58q95 0 163 -45q-5 55 -5 104v136h150v-710zM284 403q-50 0 -69 -28t-19 -119q0 -87 18.5 -115.5t64.5 -28.5q31 0 53.5 8.5t58.5 31.5v232q-68 19 -107 19z" />
    <glyph glyph-name="e" unicode="e" horiz-adv-x="568" 
d="M295 515q125 0 181 -43t57 -132q0 -70 -36.5 -105t-115.5 -35h-181q7 -54 33 -73t86 -19q79 0 186 11l15 -94q-78 -37 -219 -37t-200.5 61t-59.5 201q0 147 58 206t196 59zM300 405q-58 0 -79 -22.5t-24 -92.5h142q28 0 37.5 13.5t9.5 38.5q0 35 -18.5 49t-67.5 14z" />
    <glyph glyph-name="f" unicode="f" horiz-adv-x="410" 
d="M271 731q107 0 162 -10l-14 -100h-94q-38 0 -52.5 -14.5t-14.5 -50.5v-56h138v-100h-138v-400h-151v400h-88v95l88 5v77q0 154 164 154z" />
    <glyph glyph-name="g" unicode="g" horiz-adv-x="588" 
d="M282 515q82 0 131 -15h161l-7 -66l-63 -8q13 -27 13 -72q0 -87 -52.5 -123.5t-183.5 -36.5q-44 0 -86 5q-12 -16 -4.5 -36.5t33.5 -23.5l182 -21q78 -9 111.5 -44.5t33.5 -104.5q0 -95 -57.5 -129t-205.5 -34q-154 0 -209 32t-55 117q0 39 18.5 64t61.5 45q-34 34 -28 83
t44 71q-74 35 -74 135q0 89 52.5 125.5t183.5 36.5zM281 418q-56 0 -76.5 -13.5t-20.5 -50.5q0 -36 21 -50.5t76 -14.5t76 14.5t21 50.5q0 37 -20.5 50.5t-76.5 13.5zM326 19l-126 13q-33 -27 -33 -57q0 -37 22.5 -47t96.5 -10q75 0 98.5 10.5t23.5 44.5q0 26 -15 33t-67 13
z" />
    <glyph glyph-name="h" unicode="h" horiz-adv-x="608" 
d="M213 710v-173q0 -51 -9 -105q105 83 205 83q68 0 104 -35.5t36 -103.5v-376h-149v329q0 34 -10.5 46.5t-38.5 12.5q-54 0 -139 -46v-342h-150v710h151z" />
    <glyph glyph-name="i" unicode="i" horiz-adv-x="280" 
d="M107 722h67q43 0 43 -44v-55q0 -43 -43 -43h-67q-44 0 -44 43v55q0 44 44 44zM215 0h-149v500h149v-500z" />
    <glyph glyph-name="j" unicode="j" horiz-adv-x="282" 
d="M108 726h66q43 0 43 -44v-55q0 -43 -43 -43h-66q-44 0 -44 43v55q0 44 44 44zM216 500v-477q0 -69 -34.5 -129.5t-94.5 -93.5l-82 66q62 70 62 157v477h149z" />
    <glyph glyph-name="k" unicode="k" horiz-adv-x="565" 
d="M212 710v-293q0 -50 -7 -91h47l124 174h168l-130 -173q-18 -30 -47 -48v-2q22 -13 47 -54l147 -223h-168l-140 232h-48q7 -46 7 -75v-157h-150v710h150z" />
    <glyph glyph-name="l" unicode="l" horiz-adv-x="332" 
d="M212 710v-547q0 -50 57 -50h41l17 -105q-40 -20 -120 -20q-67 0 -105.5 36.5t-38.5 101.5v584h149z" />
    <glyph glyph-name="m" unicode="m" horiz-adv-x="891" 
d="M694 515q68 0 103.5 -35.5t35.5 -103.5v-376h-149v329q0 32 -11.5 45.5t-41.5 13.5q-40 0 -111 -45v-343h-144v329q0 33 -12.5 46t-41.5 13q-24 0 -46.5 -9t-64.5 -35v-344h-149v500h120l10 -73q96 88 191 88q100 0 129 -82q88 82 182 82z" />
    <glyph glyph-name="n" unicode="n" horiz-adv-x="608" 
d="M409 515q68 0 104 -35.5t36 -103.5v-376h-149v329q0 34 -10.5 46.5t-38.5 12.5q-45 0 -139 -46v-342h-150v500h122l11 -74q109 89 214 89z" />
    <glyph glyph-name="o" unicode="o" horiz-adv-x="596" 
d="M298 515q140 0 198.5 -60t58.5 -205q0 -144 -58.5 -203.5t-198.5 -59.5t-198.5 59.5t-58.5 203.5q0 145 58.5 205t198.5 60zM298 402q-59 0 -79.5 -30.5t-20.5 -121.5q0 -90 20.5 -120.5t79.5 -30.5t79.5 30.5t20.5 120.5t-20.5 121t-79.5 31z" />
    <glyph glyph-name="p" unicode="p" horiz-adv-x="609" 
d="M394 514q172 0 172 -268q0 -144 -46 -201.5t-144 -57.5q-102 0 -168 49q3 -35 3 -108v-121h-149v693h122l11 -73q31 38 86.5 62.5t112.5 24.5zM334 396q-50 0 -123 -48v-229q7 -2 27.5 -7.5t29.5 -7.5t25 -4t32 -2q50 0 68.5 28.5t18.5 119.5q0 88 -17.5 119t-60.5 31z
" />
    <glyph glyph-name="q" unicode="q" horiz-adv-x="600" 
d="M288 515q59 0 134 -10.5t118 -29.5v-668h-150v146q0 66 12 114q-87 -80 -182 -80q-93 0 -136 64t-43 197q0 65 10.5 111t37 83t76 55t123.5 18zM288 403q-54 -2 -73.5 -34.5t-19.5 -124.5q0 -74 17 -103t66 -29q46 0 113 38v243q-56 12 -103 10z" />
    <glyph glyph-name="r" unicode="r" horiz-adv-x="431" 
d="M406 376h-41q-46 0 -153 -35v-341h-150v500h117l13 -73q103 88 203 88h26z" />
    <glyph glyph-name="s" unicode="s" horiz-adv-x="535" 
d="M251 515q118 0 231 -20l-10 -96q-128 2 -193 2q-63 0 -79.5 -5t-16.5 -29q0 -5 0.5 -9t2.5 -7.5t3.5 -5.5t5.5 -4.5t6.5 -3.5t9 -3.5t10.5 -3.5t13.5 -3.5t14.5 -3.5l128 -35q66 -18 94.5 -50t28.5 -96q0 -90 -51.5 -121.5t-177.5 -31.5q-122 0 -224 17l9 98
q36 -3 173 -3q78 0 102 7t24 31t-25 34q-8 3 -46 13l-125 33q-69 19 -95 54.5t-26 97.5q0 79 48 112t165 32z" />
    <glyph glyph-name="t" unicode="t" horiz-adv-x="417" 
d="M257 500h139v-100h-139v-237q0 -28 12 -39t43 -11h64l16 -105q-58 -20 -141 -20q-68 0 -105.5 38t-37.5 106v268h-89v95l89 5v140h149v-140z" />
    <glyph glyph-name="u" unicode="u" horiz-adv-x="599" 
d="M537 0h-119l-11 69q-103 -82 -207 -82q-141 0 -141 139v374h150v-328q0 -33 11.5 -46t42.5 -13q43 0 125 41v346h149v-500z" />
    <glyph glyph-name="v" unicode="v" horiz-adv-x="571" 
d="M563 500l-164 -464q-11 -36 -49 -36h-130q-37 0 -48 36l-165 464h159l91 -313q12 -45 21 -90h13l24 90l90 313h158z" />
    <glyph glyph-name="w" unicode="w" horiz-adv-x="860" 
d="M843 500l-122 -460q-10 -40 -52 -40h-118q-20 0 -35 12.5t-19 33.5l-50 283q-2 12 -5.5 40.5t-6.5 43.5h-12l-12 -84l-50 -283q-4 -21 -18.5 -33.5t-35.5 -12.5h-116q-42 0 -52 40l-123 460h151l68 -324q10 -40 13 -83h13q7 51 13 83l51 280q8 44 52 44h105q45 0 53 -45
l50 -279q11 -60 14 -83h12q12 81 12 83l69 324h151z" />
    <glyph glyph-name="x" unicode="x" horiz-adv-x="572" 
d="M408 257l154 -257h-154l-119 210h-6l-119 -210h-154l154 257l-143 243h154l106 -192h10l107 192h153z" />
    <glyph glyph-name="y" unicode="y" horiz-adv-x="570" 
d="M562 500l-177 -507q-15 -41 -35.5 -75.5t-53 -66.5t-81 -47t-106.5 -8l-13 88q60 16 94 42t56 70l2 4h-29q-35 0 -48 37l-164 463h160l94 -323q7 -26 15 -76h13q17 65 21 76l92 323h160z" />
    <glyph glyph-name="z" unicode="z" horiz-adv-x="533" 
d="M487 394l-275 -286h280v-108h-451v108l276 286h-271v106h441v-106z" />
    <glyph glyph-name="braceleft" unicode="{" horiz-adv-x="344" 
d="M308 780v-93q-46 0 -62 -12.5t-16 -50.5v-153q0 -66 -21.5 -97t-82.5 -41q62 -17 85 -48t23 -86v-213q0 -37 16 -49t62 -12v-92q-113 -15 -167 23.5t-54 117.5v242q0 18 -2 28.5t-12 18.5t-15 10t-27 11v98l27 9t14.5 10t9.5 19.5t1 33.5v184q0 79 54 117.5t167 24.5z
" />
    <glyph glyph-name="bar" unicode="|" horiz-adv-x="265" 
d="M185 -172h-106v965h106v-965z" />
    <glyph glyph-name="braceright" unicode="}" horiz-adv-x="345" 
d="M38 687v93q112 14 166 -24.5t54 -117.5v-184q0 -41 8.5 -51t44.5 -21v-98q-39 -15 -47 -25q-10 -13 -10 -43v-242q0 -79 -54 -117.5t-167 -23.5v92q46 0 62 12t16 49v213q0 55 23 86t85 48q-60 10 -82 41t-22 97v153q0 38 -16 50.5t-61 12.5z" />
    <glyph glyph-name="asciitilde" unicode="~" horiz-adv-x="521" 
d="M145 368q33 -1 113.5 -25t95.5 -26q23 -4 30 6t7 40h68q11 -72 -13 -110.5t-69 -36.5q-36 2 -115 25.5t-96 25.5q-23 4 -29 -6t-6 -41h-68q-11 74 13.5 112t68.5 36z" />
    <glyph glyph-name="uni00A0" unicode="&#xa0;" horiz-adv-x="218" 
 />
    <glyph glyph-name="exclamdown" unicode="&#xa1;" horiz-adv-x="287" 
d="M127 515h34q30 0 41.5 -12t11.5 -41v-50q0 -29 -11.5 -40.5t-41.5 -11.5h-34q-30 0 -41.5 11.5t-11.5 40.5v50q0 29 11.5 41t41.5 12zM218 83v-271h-149v271l16 209h118z" />
    <glyph glyph-name="cent" unicode="&#xa2;" horiz-adv-x="529" 
d="M393 700l-10 -89q58 -9 96 -25l-16 -92q-73 4 -144 4q-76 0 -103.5 -30t-27.5 -115t27.5 -115t103.5 -30q88 0 154 8l13 -92q-71 -30 -160 -33l-10 -91h-113l10 95q-94 15 -133.5 75t-39.5 183q0 139 52.5 199t178.5 64l9 84h113z" />
    <glyph glyph-name="sterling" unicode="&#xa3;" horiz-adv-x="594" 
d="M321 713q80 0 209 -11l-8 -115q-44 1 -182 1q-45 0 -62.5 -15.5t-13.5 -55.5l9 -109h182l-4 -78h-172l3 -43q5 -64 -13 -100t-60 -69q25 7 77 7h266v-125h-501v125q49 22 65.5 62.5t12.5 99.5l-3 43h-78l-1 78h74l-8 115q-9 111 41.5 150.5t166.5 39.5z" />
    <glyph glyph-name="currency" unicode="&#xa4;" horiz-adv-x="594" 
d="M542 539l-72 -72q31 -50 31 -111q0 -59 -32 -109l73 -72l-63 -62l-72 71q-50 -33 -111 -33q-60 0 -110 33l-70 -70l-67 66l71 71q-30 47 -30 105q0 60 34 113l-71 70l63 62l70 -71q47 32 110 32t112 -33l72 72zM296 478q-49 0 -84 -35.5t-35 -85.5q0 -49 35 -84t84 -35
q48 0 83 35t35 84q0 50 -35 85.5t-83 35.5z" />
    <glyph glyph-name="yen" unicode="&#xa5;" horiz-adv-x="668" 
d="M472 366h104v-95h-480l-1 95h102l-172 334h160l117 -240q7 -14 28 -90h10q21 77 27 90l115 240h159zM576 145h-165v-145h-153v145h-162l-1 95h481v-95z" />
    <glyph glyph-name="brokenbar" unicode="&#xa6;" horiz-adv-x="267" 
d="M186 387h-106v406h106v-406zM186 -172h-106v406h106v-406z" />
    <glyph glyph-name="section" unicode="&#xa7;" horiz-adv-x="561" 
d="M275 714q114 0 228 -13l-10 -107q-23 1 -174 3q-42 0 -60.5 -1.5t-33.5 -10t-16 -26.5q-2 -23 11.5 -37.5t43.5 -30.5l139 -73q80 -42 99.5 -103t-10.5 -148h-104q3 61 -12 89.5t-64 56.5l-161 89q-31 17 -50 32t-35.5 49t-16.5 81q0 87 54 118.5t172 31.5zM69 364h105
q-3 -60 12 -88t65 -56l159 -88q31 -17 50 -32t36 -49.5t17 -82.5q0 -88 -54.5 -119t-171.5 -31q-131 0 -228 12l10 108q77 -4 175 -4q59 0 82.5 7t25.5 33q2 23 -11.5 38t-42.5 30l-138 73q-80 43 -99.5 103t8.5 146z" />
    <glyph glyph-name="copyright" unicode="&#xa9;" horiz-adv-x="822" 
d="M411 714q156 0 262 -103.5t106 -260.5t-106 -260t-262 -103q-155 0 -261 103t-106 260t106 260.5t261 103.5zM411 641q-121 0 -206 -83t-85 -208q0 -124 85 -207.5t206 -83.5t206 83t85 208t-84.5 208t-206.5 83zM416 562q81 0 138 -14l-9 -81q-88 2 -130 2
q-49 0 -65.5 -24t-16.5 -93t16.5 -93t65.5 -24q99 0 140 5l9 -82q-63 -18 -148 -18q-109 0 -153.5 47.5t-44.5 164.5q0 115 44.5 162.5t153.5 47.5z" />
    <glyph glyph-name="ordfeminine" unicode="&#xaa;" horiz-adv-x="444" 
d="M252 624q68 0 101.5 -28.5t33.5 -97.5v-219h-88l-11 55q-54 -64 -131 -64q-48 0 -78.5 24.5t-30.5 68.5v37q0 40 27.5 62.5t76.5 22.5h125v14q0 21 -11 30.5t-39 9.5q-59 0 -151 -5l-11 74q100 16 187 16zM277 430l-86 -7q-37 -3 -37 -29v-10q0 -17 9.5 -24t31.5 -7
q39 0 82 31v46z" />
    <glyph glyph-name="guillemotleft" unicode="&#xab;" horiz-adv-x="526" 
d="M274 421l-107 -166l108 -172l-79 -50l-161 206v32l160 201zM485 421l-107 -166l107 -172l-78 -50l-162 206v32l161 201z" />
    <glyph glyph-name="logicalnot" unicode="&#xac;" horiz-adv-x="591" 
d="M526 137h-112v117h-355v106h467v-223z" />
    <glyph glyph-name="softhyphen" unicode="&#xad;" horiz-adv-x="420" 
d="M361 209h-302v99h302v-99z" />
    <glyph glyph-name="registered" unicode="&#xae;" horiz-adv-x="531" 
d="M266 714q94 0 159.5 -66t65.5 -160t-65.5 -160t-159.5 -66t-160 66t-66 160t66 160t160 66zM266 670q-75 0 -128 -53t-53 -129t53 -129t128 -53q74 0 127.5 53.5t53.5 128.5t-53.5 128.5t-127.5 53.5zM273 612q57 0 81 -15t24 -55q0 -52 -55 -57v-2q29 -4 40 -37l25 -73
h-68l-20 71q-8 19 -30 19h-42v-90h-63v236q34 3 108 3zM228 566v-62h43q24 0 33.5 7t9.5 25t-9 24t-34 6h-43z" />
    <glyph glyph-name="degree" unicode="&#xb0;" horiz-adv-x="349" 
d="M175 714q56 0 97 -39t41 -95q0 -57 -40.5 -96.5t-97.5 -39.5t-97.5 39.5t-40.5 96.5q0 56 40 95t98 39zM175 638q-25 0 -42 -16t-17 -42q0 -27 17 -44t42 -17q24 0 41 17.5t17 43.5t-16.5 42t-41.5 16z" />
    <glyph glyph-name="plusminus" unicode="&#xb1;" horiz-adv-x="583" 
d="M347 433h176v-110h-177v-121h-111v121h-175v110h175v122h112v-122zM523 46h-463v109h463v-109z" />
    <glyph glyph-name="twosuperior" unicode="&#xb2;" horiz-adv-x="438" 
d="M206 793q91 0 130.5 -22t39.5 -86q0 -58 -74 -126l-109 -99q29 5 63 5l133 -2v-98h-339v60q0 33 17 48l103 94q76 73 81 103q3 17 -10.5 22t-44.5 5q-48 0 -138 -3l-4 86q78 13 152 13z" />
    <glyph glyph-name="threesuperior" unicode="&#xb3;" horiz-adv-x="419" 
d="M206 794q89 0 123.5 -21.5t34.5 -76.5q0 -49 -17 -74.5t-62 -31.5v-2q50 -7 70 -31.5t21 -74.5q2 -67 -36 -96t-130 -29q-70 0 -163 11l4 84q56 -3 128 -3q47 0 63 10t16 39q0 23 -12.5 33.5t-51.5 11.5l-87 2v75l87 1q36 1 47.5 12t11.5 33t-13 29t-53 7q-94 0 -127 -1
l-4 82q80 11 150 11z" />
    <glyph glyph-name="paragraph" unicode="&#xb6;" horiz-adv-x="612" 
d="M353 713q101 0 174 -18v-695h-100v619q-44 2 -64 2v-834h-99v417q-126 11 -180.5 70t-54.5 183q0 140 74.5 198t249.5 58z" />
    <glyph glyph-name="periodcentered" unicode="&#xb7;" horiz-adv-x="258" 
d="M109 339h40q30 0 41.5 -11.5t11.5 -41.5v-48q0 -30 -11.5 -41.5t-41.5 -11.5h-40q-30 0 -41.5 11.5t-11.5 41.5v48q0 30 11.5 41.5t41.5 11.5z" />
    <glyph glyph-name="onesuperior" unicode="&#xb9;" horiz-adv-x="311" 
d="M249 365h-115v275q0 34 4 51l-105 -21l-13 74l114 42h115v-421z" />
    <glyph glyph-name="ordmasculine" unicode="&#xba;" horiz-adv-x="446" 
d="M223 624q99 0 139 -39.5t40 -137.5q0 -97 -40 -136.5t-139 -39.5t-139 39.5t-40 136.5q0 98 40 137.5t139 39.5zM223 543q-38 0 -52 -19.5t-14 -76.5t14 -76.5t52 -19.5t51.5 19.5t13.5 76.5q0 58 -13.5 77t-51.5 19z" />
    <glyph glyph-name="guillemotright" unicode="&#xbb;" horiz-adv-x="526" 
d="M281 271v-32l-161 -206l-79 50l107 172l-106 166l78 51zM492 271v-32l-162 -206l-78 50l107 172l-107 166l79 51z" />
    <glyph glyph-name="onequarter" unicode="&#xbc;" horiz-adv-x="914" 
d="M253 280h-115v275q0 30 5 51l-102 -21l-14 74l111 41h115v-420zM251 0h-97l424 700h95zM719 420l-103 -237q-3 -7 1 -12t13 -5h96v107l18 65h88v-172h48v-70l-48 -9v-87h-106v86h-182q-29 0 -44 20t-2 50l115 264h106z" />
    <glyph glyph-name="onehalf" unicode="&#xbd;" horiz-adv-x="927" 
d="M253 280h-115v275q0 30 5 51l-102 -21l-14 74l111 41h115v-420zM246 0h-97l422 700h97zM703 427q91 0 130.5 -21.5t39.5 -85.5q0 -56 -74 -126l-108 -100q30 5 63 5l131 -2v-97h-337v60q0 30 17 48l102 94q74 68 80 102q3 17 -10 22.5t-44 5.5q-47 0 -137 -3l-4 85
q78 13 151 13z" />
    <glyph glyph-name="threequarters" unicode="&#xbe;" horiz-adv-x="999" 
d="M203 705q88 0 121.5 -20.5t33.5 -75.5q0 -50 -16.5 -75.5t-61.5 -31.5v-2q51 -7 70 -31t20 -74q1 -68 -36 -97t-128 -29q-75 0 -162 12l4 83q57 -3 127 -3q46 0 62 10t16 39q0 24 -12.5 36t-50.5 12h-86v73l86 2q36 1 46.5 11.5t10.5 33.5q0 22 -13 29.5t-51 7.5
q-93 0 -126 -1l-4 81q74 10 150 10zM343 0h-96l422 700h96zM805 420l-103 -237q-7 -17 15 -17h95v107l18 65h89v-172h47v-70l-47 -9v-87h-107v86h-181q-29 0 -44 20t-1 50l113 264h106z" />
    <glyph glyph-name="questiondown" unicode="&#xbf;" horiz-adv-x="519" 
d="M257 517h34q30 0 41.5 -12t11.5 -41v-49q0 -29 -11.5 -41t-41.5 -12h-34q-30 0 -41.5 12t-11.5 41v49q0 29 11.5 41t41.5 12zM213 294h120q2 -61 -19 -112.5t-48 -81t-51.5 -62t-26.5 -57.5q-3 -34 19 -49.5t74 -15.5q89 0 204 5l5 -103q-9 -2 -30.5 -6t-29.5 -5
t-26.5 -4t-31 -4t-33 -2.5t-43 -2t-50.5 -0.5q-217 0 -217 157q0 41 17.5 75.5t43.5 61.5l52 54t46.5 66t24.5 86z" />
    <glyph glyph-name="multiply" unicode="&#xd7;" horiz-adv-x="499" 
d="M472 173l-71 -85l-370 330l72 85z" />
    <glyph glyph-name="divide" unicode="&#xf7;" horiz-adv-x="561" 
d="M261 558h36q31 0 43 -12t12 -43v-34q0 -31 -12 -42.5t-43 -11.5h-36q-31 0 -42.5 11.5t-11.5 42.5v34q0 31 11.5 43t42.5 12zM514 245h-466v106h466v-106zM261 179h36q31 0 43 -12t12 -43v-34q0 -31 -12 -42.5t-43 -11.5h-36q-31 0 -42.5 11.5t-11.5 42.5v34
q0 31 11.5 43t42.5 12z" />
    <glyph glyph-name="uni060C" unicode="&#x60c;" horiz-adv-x="313" 
d="M166 -3h-35q-29 0 -40.5 11t-11.5 41v64q0 102 52 186l62 -19q-14 -60 -14 -130q20 0 31.5 -12.5t10.5 -34.5l-1 -54q-1 -30 -12.5 -41t-41.5 -11z" />
    <glyph glyph-name="uni061B" unicode="&#x61b;" horiz-adv-x="251" 
d="M146 350h-35q-29 0 -40.5 11t-11.5 41v64q0 102 52 186l62 -19q-14 -60 -14 -130q20 0 31.5 -12.5t10.5 -34.5l-1 -54q-1 -30 -12.5 -41t-41.5 -11zM106 154h40q30 0 41.5 -11.5t11.5 -41.5v-48q0 -30 -11.5 -41.5t-41.5 -11.5h-40q-30 0 -41.5 11.5t-11.5 41.5v48
q0 30 11.5 41.5t41.5 11.5z" />
    <glyph glyph-name="uni061F" unicode="&#x61f;" horiz-adv-x="562" 
d="M267 723q38 0 66.5 -1t56.5 -4t38 -4.5t43.5 -8t40.5 -7.5l-6 -102q-115 5 -204 5q-52 0 -74 -15.5t-19 -49.5q2 -21 18 -45.5t37.5 -49t43 -54t35 -72.5t11.5 -93h-122q-3 47 -23 86t-46.5 66.5t-52 54t-43 61t-17.5 75.5q0 81 53.5 119.5t163.5 38.5zM276 153h36
q29 0 40.5 -11t11.5 -41v-48q0 -30 -11.5 -41.5t-40.5 -11.5h-36q-30 0 -41.5 11.5t-11.5 41.5v48q0 30 11.5 41t41.5 11z" />
    <glyph glyph-name="uni0621" unicode="&#x621;" horiz-adv-x="344" 
d="M265 333v-77q-93 0 -107 -15q-29 -36 41 -88q11 -9 60 -40l45 -28l-9 -62q-171 4 -232 -23l-23 84q35 26 80 26q-42 17 -64 57q-19 36 -10 74t41 64q34 28 88 28h90z" />
    <glyph glyph-name="uni0622" unicode="&#x622;" horiz-adv-x="209" 
d="M177 826l-5 -34q-37 17 -73.5 11t-54.5 -24l-13 46q4 1 10 3.5t24 6.5t35 5.5t38.5 -1.5t38.5 -13zM169 0h-129v741h129v-741z" />
    <glyph glyph-name="uni0623" unicode="&#x623;" horiz-adv-x="209" 
d="M156 993v-42q-50 0 -60 -8q-16 -19 22 -49q26 -17 33 -21l26 -16l-5 -34q-100 3 -128 -13l-13 46q17 16 44 16q-52 21 -40 71t71 50h50zM169 0h-129v741h129v-741z" />
    <glyph glyph-name="uni0624" unicode="&#x624;" horiz-adv-x="558" 
d="M396 795v-55q-67 0 -76 -10q-22 -25 29 -64q16 -13 43 -27l31 -20l-6 -45q-66 2 -109 -6t-83 -34l11 84q26 17 56 17q-67 30 -53 95t92 65h65zM518 480v-542q0 -105 -46 -142q-24 -19 -106 -38.5t-148 -19.5l-59 119q40 0 115 7t87 17q28 24 28 72v46h-147q-95 0 -134 33
q-36 30 -55 85t-14 116.5t28.5 117.5t77.5 92.5t127 36.5h246zM389 367h-111q-78 0 -110 -71q-26 -59 -5 -115q20 -51 66 -51h160v237z" />
    <glyph glyph-name="uni0625" unicode="&#x625;" horiz-adv-x="209" 
d="M169 0h-129v741h129v-741zM156 -83v-42q-50 0 -60 -8q-16 -19 22 -49q26 -17 33 -21l26 -16l-5 -34q-100 3 -128 -13l-13 46q17 16 44 16q-52 21 -40 71t71 50h50z" />
    <glyph glyph-name="uni0626" unicode="&#x626;" horiz-adv-x="1042" 
d="M248 764v-56q-68 0 -77 -10q-21 -25 29 -63q15 -11 43 -28l32 -20l-6 -45q-122 3 -165 -17l-18 60q25 17 58 19q-67 28 -53 94q13 66 92 66h65zM862 610h-181q-92 0 -92 -95v-51q0 -53 19 -72q14 -14 55 -19h171q168 0 168 -146v-38l-4 -35q-10 -88 -51 -122
q-37 -33 -132 -33h-597q-102 0 -140 47t-38 182q0 159 52 208q39 36 146 36v-124q-48 0 -73 -27q-26 -28 -26 -86q0 -49 24 -78q22 -28 71 -28h549q49 0 72 21q11 11 19 29q8 23 5 39q-3 25 -55 25h-179q-96 0 -142 44q-45 43 -45 140v106q0 94 45 142t120 48h239v-113z" />
    <glyph glyph-name="uni0627" unicode="&#x627;" horiz-adv-x="209" 
d="M169 0h-129v741h129v-741z" />
    <glyph glyph-name="uni0628" unicode="&#x628;" horiz-adv-x="969" 
d="M929 0h-710q-104 0 -142 47q-37 47 -37 183q0 160 52 209q38 37 148 37v-125q-50 0 -75 -28q-25 -26 -25 -86q0 -49 23 -78q24 -28 72 -28h579v352h115v-483zM581 -217h-115v107h115v-107z" />
    <glyph glyph-name="uni0629" unicode="&#x629;" horiz-adv-x="550" 
d="M244 590h-115v107h115v-107zM406 590h-115v107h115v-107zM274 484q120 0 176 -44q60 -48 60 -162v-69q0 -115 -56 -162t-177 -47q-126 0 -182 47q-55 46 -55 162v69q0 111 59 161q55 45 175 45zM277 375q-51 0 -76 -19q-31 -24 -31 -80v-64q0 -58 25 -82t79 -24
q106 0 106 106v64q0 99 -103 99z" />
    <glyph glyph-name="uni062A" unicode="&#x62a;" horiz-adv-x="969" 
d="M502 508h-115v107h115v-107zM664 508h-115v107h115v-107zM929 0h-710q-104 0 -142 47q-37 47 -37 183q0 160 52 209q38 37 148 37v-125q-50 0 -75 -28q-25 -26 -25 -86q0 -49 23 -78q24 -28 72 -28h579v352h115v-483z" />
    <glyph glyph-name="uni062B" unicode="&#x62b;" horiz-adv-x="969" 
d="M585 665h-115v107h115v-107zM502 508h-115v107h115v-107zM664 508h-115v107h115v-107zM929 0h-710q-104 0 -142 47q-37 47 -37 183q0 160 52 209q38 37 148 37v-125q-50 0 -75 -28q-25 -26 -25 -86q0 -49 23 -78q24 -28 72 -28h579v352h115v-483z" />
    <glyph glyph-name="uni062C" unicode="&#x62c;" horiz-adv-x="718" 
d="M104 487l421 -60q85 -12 120 -59q33 -46 33 -155q0 -111 -45 -162q-43 -51 -151 -51h-251q-23 0 -30 -1q-37 -5 -38 -25q-6 -30 5 -61q8 -18 18 -29q23 -22 72 -22h68v-113h-99q-94 0 -133 33q-42 34 -51 122l-4 40v39q0 147 168 147h270q95 0 95 84v15q0 58 -84 70
l-393 58zM541 -242h-115v107h115v-107z" />
    <glyph glyph-name="uni062D" unicode="&#x62d;" horiz-adv-x="718" 
d="M104 487l421 -60q85 -12 120 -59q33 -46 33 -155q0 -111 -45 -162q-43 -51 -151 -51h-251q-23 0 -30 -1q-37 -5 -38 -25q-6 -30 5 -61q8 -18 18 -29q23 -22 72 -22h68v-113h-99q-94 0 -133 33q-42 34 -51 122l-4 40v39q0 147 168 147h270q95 0 95 84v15q0 58 -84 70
l-393 58z" />
    <glyph glyph-name="uni062E" unicode="&#x62e;" horiz-adv-x="718" 
d="M349 590h-115v107h115v-107zM104 487l421 -60q85 -12 120 -59q33 -46 33 -155q0 -111 -45 -162q-43 -51 -151 -51h-251q-23 0 -30 -1q-37 -5 -38 -25q-6 -30 5 -61q8 -18 18 -29q23 -22 72 -22h68v-113h-99q-94 0 -133 33q-42 34 -51 122l-4 40v39q0 147 168 147h270
q95 0 95 84v15q0 58 -84 70l-393 58z" />
    <glyph glyph-name="uni062F" unicode="&#x62f;" horiz-adv-x="800" 
d="M144 472h408q114 0 160 -51q48 -51 48 -183q0 -128 -43 -180q-46 -58 -165 -58h-512v130h512q57 0 80 26q21 26 21 80q0 62 -21 85q-21 21 -80 21h-408v130z" />
    <glyph glyph-name="uni0630" unicode="&#x630;" horiz-adv-x="800" 
d="M349 590h-115v107h115v-107zM144 472h408q114 0 160 -51q48 -51 48 -183q0 -128 -43 -180q-46 -58 -165 -58h-512v130h512q57 0 80 26q21 26 21 80q0 62 -21 85q-21 21 -80 21h-408v130z" />
    <glyph glyph-name="uni0631" unicode="&#x631;" horiz-adv-x="347" 
d="M307 482v-548q0 -90 -49 -133q-50 -42 -164 -42q-54 0 -94 8v115l6 -3q20 -12 86 -12q47 0 67 23q19 22 19 74v518h129z" />
    <glyph glyph-name="uni0632" unicode="&#x632;" horiz-adv-x="347" 
d="M296 590h-115v107h115v-107zM307 482v-548q0 -90 -49 -133q-50 -42 -164 -42q-54 0 -94 8v115l6 -3q20 -12 86 -12q47 0 67 23q19 22 19 74v518h129z" />
    <glyph glyph-name="uni0633" unicode="&#x633;" horiz-adv-x="1320" 
d="M1280 484v-310q0 -87 -50 -131q-49 -43 -162 -43q-77 0 -122 17q-44 16 -61 49q-15 -31 -59 -48q-45 -18 -123 -18q-48 0 -82 7v-22q0 -87 -61 -145q-55 -53 -144 -74q-195 -45 -318 55q-58 48 -58 164v147h129v-147q0 -55 26 -78q62 -53 176 -34q121 19 121 112v499h129
v-304q14 -55 109 -49q96 7 96 70v216h118v-216q0 -35 32 -53q30 -18 71 -18q39 -1 71 17q33 19 33 55v282h129z" />
    <glyph glyph-name="uni0634" unicode="&#x634;" horiz-adv-x="1320" 
d="M943 747h-115v107h115v-107zM860 590h-115v107h115v-107zM1022 590h-115v107h115v-107zM1280 484v-310q0 -87 -50 -131q-49 -43 -162 -43q-77 0 -122 17q-44 16 -61 49q-15 -31 -59 -48q-45 -18 -123 -18q-48 0 -82 7v-22q0 -87 -61 -145q-55 -53 -144 -74
q-195 -45 -318 55q-58 48 -58 164v147h129v-147q0 -55 26 -78q62 -53 176 -34q121 19 121 112v499h129v-304q14 -55 109 -49q96 7 96 70v216h118v-216q0 -35 32 -53q30 -18 71 -18q39 -1 71 17q33 19 33 55v282h129z" />
    <glyph glyph-name="uni0635" unicode="&#x635;" horiz-adv-x="1529" 
d="M917 480q30 0 55 -4l365 -52q88 -12 119 -57q32 -45 32 -155q0 -112 -43 -161q-45 -51 -151 -51h-593q-44 0 -82 8v-20q0 -88 -60 -146q-53 -52 -145 -73q-87 -20 -172 -5q-94 18 -145 60q-57 45 -57 164v166h130v-166q0 -58 24 -79q60 -53 176 -33q121 19 121 112v335
h128v-121q5 -32 18 -48q18 -20 66 -23q9 -1 39 -1h31l1 208q0 142 143 142zM1299 297l-319 48q-52 0 -71 -12q-16 -10 -18 -56l-5 -147h402q96 0 96 83v15q0 56 -85 69z" />
    <glyph glyph-name="uni0636" unicode="&#x636;" horiz-adv-x="1529" 
d="M1175 590h-115v107h115v-107zM917 480q30 0 55 -4l365 -52q88 -12 119 -57q32 -45 32 -155q0 -112 -43 -161q-45 -51 -151 -51h-593q-44 0 -82 8v-20q0 -88 -60 -146q-53 -52 -145 -73q-87 -20 -172 -5q-94 18 -145 60q-57 45 -57 164v166h130v-166q0 -58 24 -79
q60 -53 176 -33q121 19 121 112v335h128v-121q5 -32 18 -48q18 -20 66 -23q9 -1 39 -1h31l1 208q0 142 143 142zM1299 297l-319 48q-52 0 -71 -12q-16 -10 -18 -56l-5 -147h402q96 0 96 83v15q0 56 -85 69z" />
    <glyph glyph-name="uni0637" unicode="&#x637;" horiz-adv-x="886" 
d="M243 741v-263q20 2 31 2q29 0 54 -4l365 -52q88 -12 119 -57q34 -46 34 -155q0 -110 -45 -161t-149 -51h-612v130h74v611h129zM656 297l-320 48q-51 0 -69 -12q-18 -11 -19 -56l-5 -147h403q95 0 95 83v15q0 56 -85 69z" />
    <glyph glyph-name="uni0638" unicode="&#x638;" horiz-adv-x="886" 
d="M243 741v-263q20 2 31 2q29 0 54 -4l365 -52q88 -12 119 -57q34 -46 34 -155q0 -110 -45 -161t-149 -51h-612v130h74v611h129zM551 590h-115v107h115v-107zM656 297l-320 48q-51 0 -69 -12q-18 -11 -19 -56l-5 -147h403q95 0 95 83v15q0 56 -85 69z" />
    <glyph glyph-name="uni0639" unicode="&#x639;" horiz-adv-x="691" 
d="M598 367h-181q-93 0 -93 -96v-50q0 -54 19 -73q20 -18 58 -18h250v-130h-449q-36 -4 -39 -25q-4 -31 6 -61q7 -19 18 -29q23 -22 72 -22h67v-113h-98q-95 0 -134 33q-41 35 -50 122l-4 40v38q0 142 158 147q-5 28 -5 54v106q0 95 45 143q44 47 121 47h239v-113z" />
    <glyph glyph-name="uni063A" unicode="&#x63a;" horiz-adv-x="691" 
d="M507 590h-115v107h115v-107zM598 367h-181q-93 0 -93 -96v-50q0 -54 19 -73q20 -18 58 -18h250v-130h-449q-36 -4 -39 -25q-4 -31 6 -61q7 -19 18 -29q23 -22 72 -22h67v-113h-98q-95 0 -134 33q-41 35 -50 122l-4 40v38q0 142 158 147q-5 28 -5 54v106q0 95 45 143
q44 47 121 47h239v-113z" />
    <glyph glyph-name="uni0640" unicode="&#x640;" horiz-adv-x="268" 
d="M308 0h-328v130h328v-130z" />
    <glyph glyph-name="uni0641" unicode="&#x641;" horiz-adv-x="1218" 
d="M991 590h-115v107h115v-107zM941 483q126 0 182 -47q55 -46 55 -163v-68q0 -113 -59 -161q-53 -44 -175 -44h-724q-104 0 -142 47t-38 182q0 160 52 209q38 37 148 37v-125q-48 0 -75 -28q-26 -26 -26 -85q0 -52 25 -78q23 -29 71 -29h482q-8 35 -8 75v68q0 115 56 162
q55 48 176 48zM944 376q-106 0 -106 -105v-64q0 -99 103 -99q52 0 76 18q31 24 31 81v64q0 59 -24 82t-80 23z" />
    <glyph glyph-name="uni0642" unicode="&#x642;" horiz-adv-x="663" 
d="M356 590h-115v107h115v-107zM518 590h-115v107h115v-107zM386 483q126 0 182 -47t56 -163v-287q0 -89 -61 -147q-56 -53 -145 -74q-87 -20 -174 -5q-91 17 -146 61q-58 48 -58 165v55h131v-55q0 -57 25 -79q62 -54 176 -35q123 21 123 114v25q-45 -12 -107 -12
q-121 0 -174 44q-61 49 -61 162v68q0 115 56 162q57 48 177 48zM388 376q-105 0 -105 -105v-64q0 -99 103 -99q52 0 76 18q31 24 31 81v64q0 58 -25 82q-26 23 -80 23z" />
    <glyph glyph-name="uni0643" unicode="&#x643;" horiz-adv-x="983" 
d="M943 0h-724q-103 0 -141 47t-38 182q0 159 52 208q38 37 148 37v-125q-50 0 -75 -27q-26 -28 -26 -86q0 -50 24 -78q22 -28 72 -28h578v589h130v-719zM621 533h-69q-23 0 -31 -7q-11 -8 -12 -21q-1 -8 4 -17q5 -8 14 -13l71 -44q18 -12 22 -16h1v-51h-180v51h83l-23 12
q-27 14 -40 31q-10 13 -10 38q0 48 18 67q18 20 53 20h99v-50z" />
    <glyph glyph-name="uni0644" unicode="&#x644;" horiz-adv-x="664" 
d="M624 741v-751q0 -91 -62 -151q-55 -53 -145 -74q-84 -19 -173 -4q-90 15 -145 61q-59 47 -59 163v148h130v-148q0 -55 26 -78q62 -53 176 -35q123 20 123 113v756h129z" />
    <glyph glyph-name="uni0645" unicode="&#x645;" horiz-adv-x="685" 
d="M408 485q120 0 176 -44q61 -49 61 -163v-68q0 -115 -57 -163t-178 -48q-86 0 -139 21q-101 -26 -101 -109v-158h-130v158q0 140 145 201q-13 39 -13 98v68q0 112 60 162q54 45 176 45zM410 376q-51 0 -76 -19q-31 -24 -31 -81v-64q0 -58 25 -82q26 -24 80 -24
q105 0 105 106v64q0 100 -103 100z" />
    <glyph glyph-name="uni0646" unicode="&#x646;" horiz-adv-x="661" 
d="M379 508h-134v107h134v-107zM621 486v-497q0 -88 -61 -146q-54 -54 -145 -75q-84 -19 -174 -4q-91 15 -146 60q-58 48 -58 165v346h130v-346q0 -56 26 -79q62 -53 176 -35q122 20 122 114v497h130z" />
    <glyph glyph-name="uni0647" unicode="&#x647;" horiz-adv-x="550" 
d="M274 484q120 0 176 -44q60 -48 60 -162v-69q0 -115 -56 -162t-177 -47q-126 0 -182 47q-55 46 -55 162v69q0 111 59 161q55 45 175 45zM277 375q-51 0 -76 -19q-31 -24 -31 -80v-64q0 -58 25 -82t79 -24q106 0 106 106v64q0 99 -103 99z" />
    <glyph glyph-name="uni0648" unicode="&#x648;" horiz-adv-x="558" 
d="M518 480v-542q0 -105 -46 -142q-24 -19 -106 -38.5t-148 -19.5l-59 119q40 0 115 7t87 17q28 24 28 72v46h-147q-95 0 -134 33q-36 30 -55 85t-14 116.5t28.5 117.5t77.5 92.5t127 36.5h246zM389 367h-111q-78 0 -110 -71q-26 -59 -5 -115q20 -51 66 -51h160v237z" />
    <glyph glyph-name="uni0649" unicode="&#x649;" horiz-adv-x="1042" 
d="M862 611h-181q-92 0 -92 -95v-51q0 -53 19 -72q14 -15 55 -19h171q168 0 168 -146v-38l-4 -35q-10 -88 -51 -122q-37 -33 -132 -33h-597q-102 0 -140 47t-38 182q0 159 52 208q39 36 146 36v-124q-48 0 -73 -27q-26 -28 -26 -86q0 -50 24 -78q22 -28 71 -28h549
q49 0 72 21q11 11 19 29q8 23 5 39q-3 25 -55 25h-179q-96 0 -142 44q-45 44 -45 140v106q0 94 45 142t120 48h239v-113z" />
    <glyph glyph-name="uni064A" unicode="&#x64a;" horiz-adv-x="1042" 
d="M859 612h-181q-92 0 -92 -95v-51q0 -53 19 -72q15 -14 55 -19h171q168 0 168 -146v-38l-4 -35q-10 -88 -51 -122q-38 -33 -132 -33h-597q-102 0 -140 47t-38 182q0 159 52 208q39 36 146 36v-124q-47 0 -73 -27q-26 -28 -26 -86q0 -49 24 -78q22 -28 71 -28h549
q50 0 72 21q11 11 19 29q8 23 5 39q-3 25 -55 25h-179q-96 0 -142 44q-45 43 -45 140v106q0 94 45 142t120 48h239v-113zM514 -217h-115v107h115v-107zM676 -217h-115v107h115v-107z" />
    <glyph glyph-name="uni064B" unicode="&#x64b;" 
d="M114 75h-228v53h228v-53zM114 0h-228v54h228v-54z" />
    <glyph glyph-name="uni064C" unicode="&#x64c;" 
d="M30 338l-129 -154q-11 -14 -11 -27q2 -9 9 -18l9 -9q1 -1 4 -3t8 -5t10 -7l-41 -30l-8 11l-7 6q-25 24 -30 47q-9 30 20 63l131 156zM15 238q53 31 88 -29l55 -94l-173 -102q-38 -21 -65 -8q-24 9 -54 60l39 20q17 -30 31 -35q13 -4 28 5l9 4l-23 38q-18 30 -13 56
q1 14 31 44l32 30q5 5 15 11zM52 199q-5 3 -16 -3l-7 -6l-30 -28q-14 -12 -14 -19q0 -14 8 -24l20 -35l83 48l-28 48q-8 16 -16 19z" />
    <glyph glyph-name="uni064D" unicode="&#x64d;" 
d="M114 -54h-228v54h228v-54zM114 -128h-228v53h228v-53z" />
    <glyph glyph-name="uni064E" unicode="&#x64e;" 
d="M114 0h-228v54h228v-54z" />
    <glyph glyph-name="uni064F" unicode="&#x64f;" 
d="M2 238q52 33 88 -28l55 -95l-174 -102q-38 -21 -64 -8q-23 8 -53 59l37 21q20 -30 32 -35q11 -4 27 5l9 4l-22 39q-18 31 -13 55q2 18 31 44l32 30q5 5 15 11zM38 199q-4 3 -14 -3l-8 -6l-30 -28q-12 -12 -14 -19q0 -12 8 -24l20 -35l84 48l-28 47q-9 17 -18 20z" />
    <glyph glyph-name="uni0650" unicode="&#x650;" 
d="M114 -54h-228v54h228v-54z" />
    <glyph glyph-name="uni0651" unicode="&#x651;" 
d="M125 190v-115q0 -37 -21 -56q-20 -17 -36 -18q-30 -5 -52 7q-15 9 -16 11q-2 -3 -13 -9q-22 -12 -53 -9q-15 2 -33 14q-11 7 -19 22t-8 38v115h48v-110q0 -20 9 -26q9 -9 24 -9q21 6 21 25v100h47v-100q0 -19 20 -25q19 0 25 9q9 5 9 26v110h48z" />
    <glyph glyph-name="uni0652" unicode="&#x652;" 
d="M-2 188q44 0 66 -18q25 -19 25 -61v-29q0 -42 -24 -62q-18 -18 -60 -18h-13q-43 0 -68 28q-13 19 -13 45v36q0 41 22 60q18 19 65 19zM-1 144q-23 0 -32 -9q-9 -7 -9 -29v-25q0 -17 9 -26q14 -10 35 -9q20 0 31 9q8 8 8 26v25q0 21 -8 29q-9 9 -34 9z" />
    <glyph glyph-name="uni0653" unicode="&#x653;" 
d="M-40 78q14 0 26 -6q10 -4 20 -17l13 -14q2 -4 7 -7q2 -1 15 -1q9 0 11 2q1 0 1 4v38h36v-42q0 -21 -15 -29q-12 -6 -38 -6q-15 0 -27 4q-7 3 -18 15l-21 23q-2 3 -7 3h-4q-11 0 -11 -7v-33h-37v38q0 21 19 30q13 5 30 5z" />
    <glyph glyph-name="uni0654" unicode="&#x654;" 
d="M76 45l-6 -30q-82 7 -129 -15l-16 38q24 23 24 24q0 6 -8 31q-10 31 4 56q16 29 40 40q29 14 73 2l-6 -43q-42 6 -59 -6q-13 -9 -11 -24q3 -20 19 -33q21 -19 49 -23l16 -3h-11z" />
    <glyph glyph-name="uni0656" unicode="&#x656;" 
d="M24 -163h-48v163h48v-163z" />
    <glyph glyph-name="uni0660" unicode="&#x660;" horiz-adv-x="638" 
d="M319 714q150 0 210 -81.5t60 -282.5t-60 -282t-210 -81t-209.5 81t-59.5 282t60 282.5t209 81.5zM318 591q-68 0 -92 -49.5t-24 -191.5t24 -191t92 -49q69 0 93.5 49t24.5 191q0 143 -24.5 192t-93.5 49z" />
    <glyph glyph-name="uni0661" unicode="&#x661;" horiz-adv-x="435" 
d="M341 0h-154v493q0 45 6 76l-164 -42l-18 103l176 70h154v-700z" />
    <glyph glyph-name="uni0662" unicode="&#x662;" horiz-adv-x="587" 
d="M287 713q118 0 176.5 -34.5t58.5 -128.5q0 -63 -23 -111.5t-91 -119.5l-180 -187q40 7 104 7h210v-139h-496v86q0 40 22 63l172 185q64 69 94.5 116.5t29.5 83.5q-1 30 -22 38.5t-73 8.5q-109 0 -211 -10l-6 117q122 25 235 25z" />
    <glyph glyph-name="uni0663" unicode="&#x663;" horiz-adv-x="574" 
d="M275 714q124 0 176 -35.5t52 -127.5q0 -78 -23 -122t-83 -54v-5q68 -11 96 -53t29 -122q2 -111 -53 -159.5t-187 -48.5q-103 0 -240 18l6 116q113 -7 193 -7q73 0 100.5 20.5t27.5 80.5q0 52 -22 74.5t-85 22.5h-131v105h131q60 0 77.5 22.5t17.5 71.5q-1 49 -22 63
t-86 14q-87 0 -187 -4l-7 111q119 19 220 19z" />
    <glyph glyph-name="uni0664" unicode="&#x664;" horiz-adv-x="646" 
d="M360 700l-166 -403q-6 -17 -0.5 -25t20.5 -8h170v189l25 111h118v-300h87v-96l-85 -14h-2v-154h-143v154h-277q-46 0 -69 35.5t-6 78.5l182 432h146z" />
    <glyph glyph-name="uni0665" unicode="&#x665;" horiz-adv-x="559" 
d="M490 581h-287l-8 -127l100 -12q122 -15 172 -71.5t50 -156.5q0 -226 -245 -226q-101 0 -233 22l14 120q113 -12 180 -12q76 0 102 22t28 77q1 27 -5 44.5t-14.5 28.5t-33 18t-44.5 10t-66 8l-85 10q-23 2 -36.5 18t-12.5 39l17 307h412z" />
    <glyph glyph-name="uni0666" unicode="&#x666;" horiz-adv-x="597" 
d="M344 713q100 0 166 -19l-9 -101q-52 2 -157 2q-79 0 -108 -35t-34 -149q32 29 67 40t87 11q114 0 157 -50t43 -172q0 -65 -10 -108.5t-36 -78t-75 -50t-124 -15.5q-106 0 -160 31t-76.5 105.5t-22.5 218.5q0 118 17 192.5t57 113t89 51.5t129 13zM312 349q-55 0 -111 -36
q1 -132 19 -169t92 -37q63 0 80.5 27.5t17.5 101.5q0 66 -19.5 89.5t-78.5 23.5z" />
    <glyph glyph-name="uni0667" unicode="&#x667;" horiz-adv-x="534" 
d="M27 700h421q38 0 56 -23.5t6 -58.5l-213 -618h-152l178 507q15 44 29 66h-319z" />
    <glyph glyph-name="uni0668" unicode="&#x668;" horiz-adv-x="628" 
d="M315 713q98 0 151.5 -20.5t72.5 -59t19 -107.5q0 -65 -25.5 -110t-77.5 -51v-4q66 -6 92.5 -54.5t26.5 -131.5q0 -69 -21 -107.5t-77.5 -59t-160.5 -21.5q-151 -1 -206 42.5t-55 145.5q0 175 121 186v4q-53 6 -78.5 50.5t-25.5 110.5q0 102 50.5 144.5t193.5 42.5z
M316 602q-65 0 -85.5 -19t-20.5 -76q0 -54 21 -72t86 -18q63 0 82 18t19 72q0 57 -20 76t-82 19zM317 310q-72 0 -95 -21t-23 -83q0 -59 23 -79t94 -20q68 0 90 20t22 79q0 63 -21.5 83.5t-89.5 20.5z" />
    <glyph glyph-name="uni0669" unicode="&#x669;" horiz-adv-x="597" 
d="M289 713q82 0 130.5 -15.5t76.5 -59t37.5 -107.5t9.5 -174q0 -118 -15 -190t-52.5 -112t-88.5 -53.5t-135 -13.5q-106 0 -180 18l9 103q57 -2 170 -2q79 0 109 38t34 146q-57 -52 -155 -52q-107 0 -151.5 59t-44.5 163q-1 134 53.5 193t192.5 59zM288 595q-62 0 -81 -29
t-19 -102q0 -62 20 -88t76 -26q53 0 111 39q0 131 -18 168.5t-89 37.5z" />
    <glyph glyph-name="uni066A" unicode="&#x66a;" horiz-adv-x="921" 
d="M208 714q98 0 136.5 -46t38.5 -163q0 -116 -39 -162t-136 -46t-135 46t-38 162q0 117 38 163t135 46zM297 0h-96l420 700h96zM207 630q-37 0 -49.5 -24.5t-12.5 -100.5t12.5 -100t49.5 -24q39 0 51.5 24t12.5 100t-12.5 100.5t-51.5 24.5zM712 405q97 0 135.5 -46
t38.5 -162t-38.5 -162.5t-135.5 -46.5t-135 46.5t-38 162.5t38 162t135 46zM712 321q-38 0 -50 -24t-12 -100q0 -77 12 -101t50 -24q37 0 49.5 24.5t12.5 100.5q0 75 -12.5 99.5t-49.5 24.5z" />
    <glyph glyph-name="uni0670" unicode="&#x670;" 
d="M24 0h-48v163h48v-163z" />
    <glyph glyph-name="uni06D4" unicode="&#x6d4;" horiz-adv-x="252" 
d="M106 154h40q30 0 41.5 -11.5t11.5 -41.5v-48q0 -30 -11.5 -41.5t-41.5 -11.5h-40q-30 0 -41.5 11.5t-11.5 41.5v48q0 30 11.5 41.5t41.5 11.5z" />
    <glyph glyph-name="endash" unicode="&#x2013;" horiz-adv-x="569" 
d="M511 209h-452v99h452v-99z" />
    <glyph glyph-name="emdash" unicode="&#x2014;" horiz-adv-x="870" 
d="M811 209h-752v99h752v-99z" />
    <glyph glyph-name="quoteleft" unicode="&#x2018;" horiz-adv-x="226" 
d="M97 732l59 -16q-14 -56 -14 -119q20 0 31 -11t10 -32l-1 -50q-1 -26 -12.5 -36.5t-38.5 -10.5h-34q-28 0 -38.5 10.5t-10.5 36.5v60q0 94 49 168z" />
    <glyph glyph-name="quoteright" unicode="&#x2019;" horiz-adv-x="223" 
d="M94 725h34q28 0 39 -10.5t11 -38.5v-59q0 -90 -50 -168l-59 17q12 48 14 119q-20 0 -30.5 11t-9.5 30l1 50q1 28 12 38.5t38 10.5z" />
    <glyph glyph-name="quotesinglbase" unicode="&#x201a;" horiz-adv-x="238" 
d="M103 146h34q28 0 38.5 -11t10.5 -39v-61q0 -95 -49 -175l-60 17q14 57 14 124q-20 0 -30.5 11.5t-9.5 32.5l1 51q1 28 12 39t39 11z" />
    <glyph glyph-name="quotedblleft" unicode="&#x201c;" horiz-adv-x="408" 
d="M97 732l59 -16q-14 -56 -14 -119q20 0 31 -11t10 -32l-1 -50q-1 -26 -12.5 -36.5t-38.5 -10.5h-34q-28 0 -38.5 10.5t-10.5 36.5v60q0 94 49 168zM279 732l60 -16q-14 -51 -14 -119q42 0 40 -43l-2 -50q-1 -26 -12 -36.5t-38 -10.5h-34q-27 0 -38.5 10.5t-11.5 36.5v60
q0 90 50 168z" />
    <glyph glyph-name="quotedblright" unicode="&#x201d;" horiz-adv-x="405" 
d="M94 725h34q28 0 39 -10.5t11 -38.5v-59q0 -90 -50 -168l-59 17q12 48 14 119q-20 0 -30.5 11t-9.5 30l1 50q1 28 12 38.5t38 10.5zM276 725h35q27 0 37.5 -10.5t10.5 -38.5v-59q0 -93 -48 -168l-60 17q14 55 14 119q-20 0 -31 11t-10 30l1 50q1 27 12.5 38t38.5 11z" />
    <glyph glyph-name="quotedblbase" unicode="&#x201e;" horiz-adv-x="419" 
d="M103 134h33q29 0 39.5 -10t10.5 -38v-59q0 -88 -50 -168l-59 17q12 50 14 119q-42 0 -40 42l1 49q1 27 12 37.5t39 10.5zM284 134h35q27 0 37.5 -10t10.5 -38v-59q0 -91 -48 -168l-60 17q14 56 14 119q-20 0 -31 11t-10 31l1 49q1 27 12.5 37.5t38.5 10.5z" />
    <glyph glyph-name="dagger" unicode="&#x2020;" horiz-adv-x="478" 
d="M294 492v-75l7 -529h-124l7 529v75l-7 209h124zM163 403l-131 -16v113h131v-97zM446 387l-131 16v97h131v-113z" />
    <glyph glyph-name="daggerdbl" unicode="&#x2021;" horiz-adv-x="516" 
d="M318 576l-4 -321v-284l-54 -83l-62 125l5 327l-4 285l57 76zM182 403l-131 -16v113h131v-97zM465 387l-131 16v97h131v-113zM182 187v-98h-131v114zM465 89h-131v98l131 16v-114z" />
    <glyph glyph-name="bullet" unicode="&#x2022;" horiz-adv-x="378" 
d="M185 386h14q58 0 81 -23t23 -81v-15q0 -62 -22.5 -86t-81.5 -24h-14q-63 0 -86.5 24t-23.5 86v15q0 58 24 81t86 23z" />
    <glyph glyph-name="ellipsis" unicode="&#x2026;" horiz-adv-x="906" 
d="M98 153h41q30 0 41.5 -11t11.5 -41v-48q0 -30 -11.5 -41.5t-41.5 -11.5h-41q-29 0 -40 11.5t-11 41.5v48q0 30 11 41t40 11zM427 153h41q30 0 41.5 -11t11.5 -41v-48q0 -30 -12 -41.5t-41 -11.5h-41q-29 0 -40.5 11.5t-11.5 41.5v48q0 30 11.5 41t40.5 11zM756 153h41
q30 0 41.5 -11t11.5 -41v-48q0 -30 -12 -41.5t-41 -11.5h-41q-29 0 -41 11.5t-12 41.5v48q0 30 11.5 41t41.5 11z" />
    <glyph glyph-name="perthousand" unicode="&#x2030;" horiz-adv-x="1314" 
d="M208 714q98 0 136.5 -46t38.5 -163q0 -116 -39 -162t-136 -46t-135 46t-38 162q0 117 38 163t135 46zM297 0h-96l420 700h96zM207 630q-37 0 -49.5 -24.5t-12.5 -100.5t12.5 -100t49.5 -24q39 0 51.5 24t12.5 100q0 77 -12.5 101t-51.5 24zM712 405q97 0 135.5 -46
t38.5 -162t-38.5 -162.5t-135.5 -46.5t-135 46.5t-38 162.5t38 162t135 46zM1104 405q97 0 135.5 -46t38.5 -162t-38.5 -162.5t-135.5 -46.5t-135 46.5t-38 162.5t38 162t135 46zM712 321q-38 0 -50 -24t-12 -100q0 -77 12 -101t50 -24q37 0 49.5 24.5t12.5 100.5
q0 75 -12.5 99.5t-49.5 24.5zM1103 321q-36 0 -49 -24.5t-13 -99.5q0 -76 13 -100.5t49 -24.5q39 0 51.5 24t12.5 101q0 76 -12.5 100t-51.5 24z" />
    <glyph glyph-name="guilsinglleft" unicode="&#x2039;" horiz-adv-x="316" 
d="M274 421l-107 -166l108 -172l-79 -50l-161 206v32l160 201z" />
    <glyph glyph-name="guilsinglright" unicode="&#x203a;" horiz-adv-x="317" 
d="M282 271v-32l-162 -206l-79 50l108 172l-107 166l78 51z" />
    <glyph glyph-name="fraction" unicode="&#x2044;" horiz-adv-x="517" 
d="M97 0h-97l421 700h96z" />
    <glyph glyph-name="Euro" unicode="&#x20ac;" horiz-adv-x="649" 
d="M417 713q90 0 177 -24l-13 -112q-102 13 -175 5q-52 -7 -81 -33t-42 -79h227l-11 -96h-458v96h77q19 125 89.5 184t209.5 59zM472 240h-191q10 -60 40 -88.5t85 -32.5q96 -7 191 9l12 -112q-84 -28 -192 -28q-140 0 -210.5 61t-88.5 191h-78v95h441z" />
    <glyph glyph-name="trademark" unicode="&#x2122;" horiz-adv-x="995" 
d="M402 625h-121v-304h-103v304h-121v81h345v-81zM785 706h99q36 0 38 -37l13 -348h-96l-13 307h-10l-57 -219q-7 -31 -40 -31h-64q-33 0 -41 31l-57 219h-10l-12 -307h-96l15 348q2 37 36 37h98q31 0 39 -32l46 -175q2 -9 5 -27.5t5 -27.5h7q1 7 4.5 26.5t6.5 29.5l44 174
q8 32 40 32z" />
    <glyph glyph-name="partialdiff" unicode="&#x2202;" horiz-adv-x="598" 
d="M119 609v105q125 3 204.5 -11t135.5 -55t77.5 -115t16.5 -190q-8 -188 -74.5 -271.5t-203.5 -83.5q-70 0 -119.5 22.5t-74 60.5t-34 80t-6.5 90q6 94 60 157.5t160 62.5q86 0 142 -52q1 79 -21.5 120t-83.5 60.5t-179 19.5zM297 347q-100 0 -107 -109q-8 -129 91 -129
q62 0 86 51.5t32 162.5q-52 24 -102 24z" />
    <glyph glyph-name="emptyset" unicode="&#x2205;" horiz-adv-x="695" 
d="M348 642q123 0 210 -86.5t87 -209.5t-87 -210t-210 -87t-210 87t-87 210t87 209.5t210 86.5zM348 553q-51 0 -124 -11l3 -46q61 9 121 9q67 0 67 -46q0 -21 -15.5 -45t-33.5 -43t-33.5 -53t-15.5 -73h54q0 35 15 65t33 47t33 44t15 58q0 94 -119 94zM364 174h-39
q-7 0 -7 -9v-37q0 -7 7 -7h39q9 0 9 7v37q0 9 -9 9z" />
    <glyph glyph-name="product" unicode="&#x220f;" horiz-adv-x="726" 
d="M693 587h-88v-685h-149v685h-186v-685h-149v685h-89v113h661v-113z" />
    <glyph glyph-name="summation" unicode="&#x2211;" horiz-adv-x="605" 
d="M554 589h-332l144 -250l-158 -365h356v-112h-522v112l158 365l-146 250v111h500v-111z" />
    <glyph glyph-name="minus" unicode="&#x2212;" horiz-adv-x="588" 
d="M527 245h-466v106h466v-106z" />
    <glyph glyph-name="radical" unicode="&#x221a;" horiz-adv-x="587" 
d="M577 889l-228 -881q-3 -8 -13 -8h-177q-11 0 -13 8l-127 492h121l101 -404h13l201 793h122z" />
    <glyph glyph-name="infinity" unicode="&#x221e;" horiz-adv-x="780" 
d="M586 460q63 0 106 -37.5t43 -108.5q0 -74 -46.5 -115.5t-117.5 -41.5q-97 0 -180 83q-92 -83 -187 -83q-67 0 -113 41.5t-46 115.5q0 72 44 109t113 37q98 0 189 -87q98 87 195 87zM224 362q-64 0 -64 -52q0 -56 67 -56q52 0 103 54q-24 28 -46.5 41t-59.5 13zM557 362
q-37 0 -59 -14.5t-47 -44.5q43 -49 103 -49q65 0 65 56q0 52 -62 52z" />
    <glyph glyph-name="integral" unicode="&#x222b;" horiz-adv-x="365" 
d="M215 725q85 0 123 -4l-9 -108h-63q-25 0 -35 -11t-8 -41l50 -651q5 -71 -24.5 -103t-106.5 -32q-87 0 -115 4l10 107h59q26 0 36 13t8 44l-48 647q-4 65 29.5 100t93.5 35z" />
    <glyph glyph-name="approxequal" unicode="&#x2248;" horiz-adv-x="590" 
d="M182 471q28 -2 106.5 -25.5t107.5 -25.5q22 -1 27.5 8t5.5 38h95q15 -75 -15 -113.5t-102 -36.5q-31 1 -109 24.5t-105 25.5q-23 1 -29 -8.5t-6 -37.5h-93q-15 78 18 116.5t99 34.5zM182 272q28 -2 107 -26t107 -26q22 -1 27.5 8t5.5 38h95q15 -75 -15 -113t-102 -36
q-30 1 -108 25t-106 25q-23 2 -29 -7.5t-6 -39.5h-93q-15 79 18 117.5t99 34.5z" />
    <glyph glyph-name="notequal" unicode="&#x2260;" horiz-adv-x="624" 
d="M447 566l-36 -103h134v-107h-466v107h229l48 136zM545 140h-251l-48 -137l-94 32l39 105h-112v107h466v-107z" />
    <glyph glyph-name="lessequal" unicode="&#x2264;" horiz-adv-x="565" 
d="M497 454l-304 -71l304 -67v-117l-432 126v116l432 129v-116zM500 52h-446v111h446v-111z" />
    <glyph glyph-name="greaterequal" unicode="&#x2265;" horiz-adv-x="565" 
d="M500 441v-116l-432 -126v117l305 67l-305 71v116zM512 52h-447v111h447v-111z" />
    <glyph glyph-name="lozenge" unicode="&#x25ca;" horiz-adv-x="579" 
d="M299 700l252 -339q5 -10 0 -20l-252 -341q-9 -13 -19 0l-253 341q-5 10 0 20l253 339q10 13 19 0zM145 351l145 -205l143 205l-143 203z" />
    <glyph glyph-name="fi" unicode="&#xfb01;" horiz-adv-x="677" 
d="M271 731q83 0 134 -10v-100h-81q-38 0 -52.5 -16t-14.5 -57v-48h354v-500h-150v400h-204v-400h-150v400h-88v95l88 5v67q0 79 38 121.5t126 42.5zM502 726h66q45 0 45 -44v-55q0 -43 -45 -43h-66q-43 0 -43 43v55q0 44 43 44z" />
    <glyph glyph-name="fl" unicode="&#xfb02;" horiz-adv-x="732" 
d="M269 731q252 0 349 -18v-558q0 -51 54 -51h37l18 -96q-38 -20 -117 -20q-66 0 -103.5 34.5t-37.5 95.5v505h-147q-37 0 -51.5 -16.5t-14.5 -58.5v-48h126v-100h-126v-400h-150v400h-88v95l88 5v67q0 80 38 122.5t125 41.5z" />
    <glyph glyph-name="uni00630074" horiz-adv-x="873" 
d="M713 500h139v-100h-139v-237q0 -28 12 -39t42 -11h64l17 -105q-58 -20 -142 -20q-68 0 -105.5 38t-37.5 106v268h-244q-69 0 -95 -31.5t-26 -117.5q0 -82 26 -111.5t95 -29.5q79 0 135 9l13 -98q-70 -33 -176 -33q-137 0 -193.5 59t-56.5 204q0 136 59 192.5t193 56.5
h269v140h151v-140z" />
    <glyph glyph-name="f_f" horiz-adv-x="769" 
d="M630 731q106 0 162 -10l-13 -100h-97q-38 0 -53 -14.5t-15 -50.5v-56h140v-100h-140v-400h-147v400h-212v-400h-148v400h-88v95l88 5v66q0 73 40 114t123 41q96 0 142 -11l-14 -99h-76q-39 0 -53 -13.5t-14 -51.5v-46h212v77q0 154 163 154z" />
    <glyph glyph-name="f_f_i" horiz-adv-x="1028" 
d="M625 731q82 0 132 -10v-100h-78q-40 0 -55.5 -16t-15.5 -57v-48h355v-500h-150v400h-205v-400h-146v400h-214v-400h-148v400h-81v95l81 5v66q0 73 40.5 114t123.5 41q95 0 141 -11l-13 -99h-76q-39 0 -53.5 -13.5t-14.5 -51.5v-46h214v67q0 79 38 121.5t125 42.5z
M855 726h66q43 0 43 -44v-55q0 -43 -43 -43h-66q-44 0 -44 43v55q0 44 44 44z" />
    <glyph glyph-name="f_f_l" horiz-adv-x="1093" 
d="M630 731q252 0 350 -18v-558q0 -51 53 -51h39l16 -96q-37 -20 -117 -20q-65 0 -103 34.5t-38 95.5v505h-149q-36 0 -51.5 -16.5t-15.5 -58.5v-48h130v-100h-130v-400h-147v400h-212v-400h-148v400h-88v95l88 5v66q0 73 40 114t123 41q96 0 142 -11l-14 -99h-76
q-39 0 -53 -13.5t-14 -51.5v-46h212v67q0 79 38.5 122t124.5 42z" />
    <glyph glyph-name="uni006600660079" horiz-adv-x="1295" 
d="M632 731q103 0 159 -10l-14 -100h-95q-38 0 -52.5 -14.5t-14.5 -50.5v-56h158q60 0 96.5 -27.5t53.5 -84.5l63 -211q7 -26 15 -76h13q1 3 20 76l93 323h160l-178 -507q-14 -41 -35 -75.5t-53.5 -66.5t-81 -47t-107.5 -8l-11 88q59 16 93.5 42.5t55.5 69.5l2 4h-28
q-36 0 -49 37l-115 325q-15 38 -51 38h-114v-400h-148v400h-212v-400h-148v400h-88v95l88 5v66q0 73 40 114t123 41q96 0 142 -11l-14 -99h-76q-39 0 -53 -13.5t-14 -51.5v-46h212v77q0 154 165 154z" />
    <glyph glyph-name="uni00660074" horiz-adv-x="774" 
d="M271 731q95 0 144 -10l-13 -100h-77q-38 0 -52.5 -14.5t-14.5 -50.5v-56h206v140h150v-140h139v-100h-139v-237q0 -28 12 -39t43 -11h64l16 -105q-57 -20 -141 -20q-68 0 -105.5 38t-37.5 106v268h-207v-400h-151v400h-88v95l88 5v77q0 154 164 154z" />
    <glyph glyph-name="uni00660079" horiz-adv-x="935" 
d="M271 731q107 0 162 -10l-14 -100h-94q-38 0 -52.5 -14.5t-14.5 -50.5v-56h155q117 0 149 -112l63 -211q7 -26 15 -76h14l20 76l92 323h161l-178 -507q-14 -41 -35 -75.5t-53.5 -66.5t-81 -47t-107.5 -8l-11 88q59 16 93.5 42.5t55.5 69.5l2 4h-28q-36 0 -49 37l-116 325
q-13 38 -51 38h-110v-400h-151v400h-88v95l88 5v77q0 154 164 154z" />
    <glyph glyph-name="s_t" horiz-adv-x="903" 
d="M743 500h139v-100h-139v-237q0 -28 12 -39t43 -11h64l16 -105q-58 -20 -141 -20q-68 0 -105.5 38t-37.5 106v267h-315q-63 0 -79.5 -4.5t-16.5 -26.5q0 -5 0.5 -9t2.5 -7.5t3.5 -5.5t5.5 -4.5t6.5 -3.5t9 -3.5t10.5 -3.5t13.5 -3.5t14.5 -3.5l128 -36q64 -18 91.5 -50.5
t27.5 -95.5q0 -90 -50.5 -121.5t-174.5 -31.5q-122 0 -224 17l9 98q36 -3 173 -3q73 0 97.5 7t24.5 31q0 20 -12.5 28t-46.5 17q-5 1 -8 2l-125 33q-69 19 -95 54.5t-26 97.5q0 71 48 100t165 29h343v140h149v-140z" />
    <glyph glyph-name="uni00740074" horiz-adv-x="792" 
d="M631 500h139v-100h-139v-237q0 -28 12.5 -39t42.5 -11h64l16 -105q-57 -20 -141 -20q-68 0 -106 38t-38 106v268h-224v-237q0 -28 12 -39t43 -11h64l16 -105q-58 -20 -141 -20q-68 0 -105.5 38t-37.5 106v268h-89v95l89 5v140h149v-140h224v140h150v-140z" />
    <glyph glyph-name="uni00740079" horiz-adv-x="957" 
d="M257 500h178q60 0 96.5 -27.5t53.5 -84.5l63 -211q7 -26 15 -76h12q13 43 21 76l93 323h160l-178 -507q-14 -41 -35 -75.5t-53.5 -66.5t-81 -47t-107.5 -8l-11 88q60 16 94 42t55 70l2 4h-28q-36 0 -49 37l-115 325q-15 38 -51 38h-134v-237q0 -28 12 -39t43 -11h64
l16 -105q-58 -20 -141 -20q-68 0 -105.5 38t-37.5 106v268h-89v95l89 5v140h149v-140z" />
    <glyph glyph-name="behar.init.ordn" horiz-adv-x="375" 
d="M335 483v-278q0 -101 -70 -155q-67 -50 -175 -50h-110v130h110q72 0 93 8q34 13 34 67v278h118zM208 -217h-115v107h115v-107z" />
    <glyph glyph-name="yehar.init.ordn" horiz-adv-x="375" 
d="M335 483v-278q0 -101 -70 -155q-67 -50 -175 -50h-110v130h110q72 0 93 8q34 13 34 67v278h118zM162 -217h-115v107h115v-107zM324 -217h-115v107h115v-107z" />
    <glyph glyph-name="yehar.medi.ordn" horiz-adv-x="462" 
d="M344 483v-278q0 -53 35 -67q19 -8 93 -8h10v-130h-10q-124 0 -191 64q-67 -64 -191 -64h-110v130h110q72 0 93 8q35 14 35 67v278h126zM231 -217h-115v107h115v-107zM393 -217h-115v107h115v-107z" />
    <glyph glyph-name="uni064B0651" 
d="M114 296h-228v54h228v-54zM114 222h-228v53h228v-53zM125 190v-115q0 -37 -21 -56q-20 -17 -36 -18q-30 -5 -52 7q-15 9 -16 11q-2 -3 -13 -9q-22 -12 -53 -9q-15 2 -33 14q-11 7 -19 22t-8 38v115h48v-110q0 -20 9 -26q9 -9 24 -9q21 6 21 25v100h47v-100q0 -19 20 -25
q19 0 25 9q9 5 9 26v110h48z" />
    <glyph glyph-name="uni064C0651" 
d="M17 545l-129 -155q-12 -16 -11 -26q1 -8 9 -19l9 -9q2 -1 22 -14l-41 -30l-8 11l-7 6q-24 24 -30 47q-8 27 20 62l131 157zM2 445q52 33 88 -28l55 -95l-174 -102q-36 -20 -64 -8q-23 8 -53 59l37 22q19 -31 32 -36q13 -3 27 5l9 4l-22 39q-18 32 -13 55q2 17 31 45
l32 30q10 8 15 10zM38 406q-3 3 -14 -2l-8 -7l-30 -28q-13 -13 -14 -19q0 -12 8 -24l20 -35l84 48l-28 47q-10 19 -18 20zM125 190v-115q0 -37 -21 -56q-20 -17 -36 -18q-30 -5 -52 7q-15 9 -16 11q-2 -3 -13 -9q-22 -12 -53 -9q-15 2 -33 14q-11 7 -19 22t-8 38v115h48
v-110q0 -20 9 -26q9 -9 24 -9q21 6 21 25v100h47v-100q0 -19 20 -25q19 0 25 9q9 5 9 26v110h48z" />
    <glyph glyph-name="uni064D0651" 
d="M152 439v-138q0 -47 -27 -68q-21 -19 -42 -23q-37 -6 -63 9q-18 9 -20 13q-4 -5 -15 -11q-29 -14 -65 -11q-19 2 -40 17q-12 8 -23 28q-10 17 -10 46v138h58v-134q0 -22 11 -31q13 -10 29 -10q26 6 26 30v121h56v-121q0 -24 25 -30q21 -2 31 10q11 9 11 31v134h58z
M137 91h-274v64h274v-64zM137 0h-274v65h274v-65z" />
    <glyph glyph-name="uni064E0651" 
d="M114 222h-228v53h228v-53zM125 190v-115q0 -37 -21 -56q-20 -17 -36 -18q-30 -5 -52 7q-15 9 -16 11q-2 -3 -13 -9q-22 -12 -53 -9q-15 2 -33 14q-11 7 -19 22t-8 38v115h48v-110q0 -20 9 -26q9 -9 24 -9q21 6 21 25v100h47v-100q0 -19 20 -25q19 0 25 9q9 5 9 26v110h48
z" />
    <glyph glyph-name="uni064F0651" 
d="M2 445q52 33 88 -28l55 -95l-174 -102q-36 -20 -64 -8q-23 8 -53 59l37 22q19 -31 32 -36q13 -3 27 5l9 4l-22 39q-18 32 -13 55q2 17 31 45l32 30q10 8 15 10zM38 406q-3 3 -14 -2l-8 -7l-30 -28q-13 -13 -14 -19q0 -12 8 -24l20 -35l84 48l-28 47q-10 19 -18 20z
M125 190v-115q0 -37 -21 -56q-20 -17 -36 -18q-30 -5 -52 7q-15 9 -16 11q-2 -3 -13 -9q-22 -12 -53 -9q-15 2 -33 14q-11 7 -19 22t-8 38v115h48v-110q0 -20 9 -26q9 -9 24 -9q21 6 21 25v100h47v-100q0 -19 20 -25q19 0 25 9q9 5 9 26v110h48z" />
    <glyph glyph-name="uni06500651" 
d="M125 288v-114q0 -39 -21 -57q-19 -16 -36 -19q-31 -5 -52 8q-12 6 -16 10q-1 0 -5 -3.5t-8 -5.5q-22 -10 -53 -9q-14 2 -33 15q-10 5 -19 22q-8 13 -8 39v114h48v-111q0 -19 9 -26q8 -8 24 -8q21 5 21 24v100h47v-100q0 -20 20 -24q17 -1 25 8q9 6 9 26v111h48zM114 0
h-228v54h228v-54z" />
  </font>
</defs>
</svg>
