<svg xmlns="http://www.w3.org/2000/svg">
<defs>
<font id="AraHamahKilania-Regular" horiz-adv-x="0" >
  <font-face 
    font-family="Ara Hamah Kilania"
    font-weight="400"
    font-stretch="normal"
    units-per-em="2000"
    panose-1="0 0 5 0 0 0 0 0 0 0"
    ascent="1600"
    descent="-400"
    x-height="720"
    cap-height="1014"
    bbox="-219.167 -752 2103 1306.12"
    underline-thickness="50"
    underline-position="-50"
    unicode-range="U+000D-FEFC"
  />
<missing-glyph horiz-adv-x="897" 
d="M448 997h9q7 -1 12 -1h1q154 0 274 -126q113 -119 113 -282v-3q0 -11 -1 -16v-11q-1 -5 -1 -8q-1 -2 -1.5 -6.5t-0.5 -6.5v-5l-2 -15q0 -1 -1 -2q-20 -106 -88 -188l-39 40q79 97 79 222q0 147 -104 251t-251 104t-251 -104t-104 -251q0 -126 80 -224l-38 -38
q-67 82 -87 187q0 2 -1 3l-2 15q0 2 -1 5q-1 5 -1 13q0 5 -1 8q0 9 -1 11v19q0 169 120 289t288 120zM447 936q143 0 245 -102q101 -101 101 -245q0 -122 -76 -216l-42 42q59 77 59 174q0 119 -84 203q-84 85 -203 85t-203 -85q-84 -84 -84 -203q0 -98 60 -176l-41 -42
q-78 96 -78 218q0 144 101 245q102 102 245 102zM447 868q115 0 197 -82q82 -81 82 -197q0 -95 -57 -168l-45 45q40 55 40 125q0 90 -64 154q-64 63 -154 63t-153 -63q-64 -64 -64 -154q0 -71 42 -128l-45 -44q-58 74 -58 170q0 116 82 197q82 82 197 82zM446 692
q40 0 68 -28t28 -68q0 -38 -27 -67l245 -263h-623l242 260q-30 28 -30 70q0 39 29 68q28 28 68 28zM187 164h22v3q0 17 12 29t29 12t29 -12t12 -29v-3h68l-42 23q1 2 4.5 8.5t6.5 11.5v-1l18 -10l17 -9l22 -13h1v-32h-104q-12 -16 -32 -16t-33 16h-52v82h22v-60zM460 224
v-20q7 4 18 4h61v-66h-112v22h11v60h22zM654 224v-20q8 4 18 4h62v-44h70q-7 5 -21 11l-21 12q1 4 6 10l5 9l25 -12q5 -4 10 -7l11 -7l12 -6v-1v-31h-227q-12 -23 -38 -23h-3v22h3q6 0 11 3q-13 4 -20 17q-5 8 -3 17q3 26 30 30h26v-44h22v60h22zM810 207h-16v17h16v-17z
M111 207q18 0 30 -12q13 -13 13 -31q0 -13 -8 -24h-70q-8 11 -8 24q0 18 13 31q12 12 30 12zM111 185q-20 0 -20 -21v-1h40l1 1q0 21 -21 21zM250 185q-18 0 -18 -18t18 -18t18 18t-18 18zM517 185h-38q-18 0 -18 -18v-3h56v21zM589 164v21q-14 -2 -14 -10q0 -9 14 -11z

<glyph glyph-name="fi" unicode="fi" horiz-adv-x="942" 
d="M388 1057q110 0 182 -13v-127h-119q-61 0 -84.5 -26.5t-23.5 -92.5v-78h493v-720h-177v591h-316v-591h-180v591h-128v122l128 7v100q0 116 52.5 176.5t172.5 60.5zM706 1035h82q51 0 51 -52v-79q0 -51 -51 -51h-82q-52 0 -52 51v79q0 52 52 52z" />
    <glyph glyph-name="fl" unicode="fl" horiz-adv-x="1028" 
d="M385 1057q337 0 466 -24v-827q0 -83 84 -83h62l20 -114q-24 -11 -71.5 -18t-81.5 -7q-89 0 -140.5 47.5t-51.5 131.5v756h-224q-60 0 -83.5 -26.5t-23.5 -94.5v-78h194v-129h-194v-591h-179v591h-128v122l128 7v100q0 116 52.5 177t170.5 60z" />
    <glyph glyph-name="lam_alefMaddaar" unicode="&#xfedf;&#xfe82;" horiz-adv-x="859" arabic-form="isolated" 
d="M817 1012l2 -37v-717q0 -68 -14 -108q-43 -118 -169 -143q-38 -7 -79 -7h-517v147h256l-76 498h180q5 -31 18 -113.5t21 -133.5l39 -251h100q50 17 57 67q5 35 5 63v735q60 3 177 0zM274 890h4q14 -36 30 -48q15 -12 41 -12h66v-60h-49q-29 0 -41 1t-31.5 12t-35.5 35
l-62 -53v69z" />
    <glyph glyph-name="lam_alefMaddaar.fina" unicode="&#xfee0;&#xfe82;" horiz-adv-x="981" arabic-form="final" 
d="M817 1012l2 -37v-828h182v-147h-961v147h256l-76 498h180q5 -31 18 -113.5t21 -133.5l39 -251h162v865q60 3 177 0zM274 890h4q14 -36 30 -48q15 -12 41 -12h66v-60h-49q-29 0 -41 1t-31.5 12t-35.5 35l-62 -53v69z" />
    <glyph glyph-name="lam_alefHamzaabovear" unicode="&#xfedf;&#xfe84;" horiz-adv-x="859" arabic-form="isolated" 
d="M817 1012l2 -37v-717q0 -68 -14 -108q-43 -118 -169 -143q-38 -7 -79 -7h-517v147h256l-76 498h180q5 -31 18 -113.5t21 -133.5l39 -251h100q50 17 57 67q5 35 5 63v735q60 3 177 0zM301 930q35 9 72 -7v-50l-12 1q-34 3 -38 1q-29 -3 -34 -33l-1 -20q3 -26 29 -26l82 -1
v-62h-199v64h33l-3 16q-23 95 71 117z" />
    <glyph glyph-name="lam_alefHamzaabovear.fina" unicode="&#xfee0;&#xfe84;" horiz-adv-x="981" arabic-form="final" 
d="M817 1012l2 -37v-828h182v-147h-961v147h256l-76 498h180q5 -31 18 -113.5t21 -133.5l39 -251h162v865q60 3 177 0zM301 930q35 9 72 -7v-50l-12 1q-34 3 -38 1q-29 -3 -34 -33l-1 -20q3 -26 29 -26l82 -1v-62h-199v64h33l-3 16q-23 95 71 117z" />
    <glyph glyph-name="lam_alefHamzabelowar" unicode="&#xfedf;&#xfe88;" horiz-adv-x="859" arabic-form="isolated" 
d="M817 1012l2 -37v-717q0 -68 -14 -108q-43 -118 -169 -143q-38 -7 -79 -7h-517v147h256l-76 498h180q5 -31 18 -113.5t21 -133.5l39 -251h100q50 17 57 67q5 35 5 63v735q60 3 177 0zM384 -93q35 9 72 -7v-50l-12 1q-34 3 -38 1q-29 -3 -34 -33l-1 -20q3 -26 29 -26l82 -1
v-62h-199v64h33l-3 16q-23 95 71 117z" />
    <glyph glyph-name="lam_alefHamzabelowar.fina" unicode="&#xfee0;&#xfe88;" horiz-adv-x="981" arabic-form="final" 
d="M817 1012l2 -37v-828h182v-147h-961v147h256l-76 498h180q5 -31 18 -113.5t21 -133.5l39 -251h162v865q60 3 177 0zM384 -93q35 9 72 -7v-50l-12 1q-34 3 -38 1q-29 -3 -34 -33l-1 -20q3 -26 29 -26l82 -1v-62h-199v64h33l-3 16q-23 95 71 117z" />
    <glyph glyph-name="lam_alefar" unicode="&#xfedf;&#xfe8e;" horiz-adv-x="859" arabic-form="isolated" 
d="M817 1012l2 -37v-717q0 -68 -14 -108q-43 -118 -169 -143q-38 -7 -79 -7h-517v147h256l-76 498h180q5 -31 18 -113.5t21 -133.5l39 -251h100q50 17 57 67q5 35 5 63v735q60 3 177 0z" />
    <glyph glyph-name="lam_alefar.fina" unicode="&#xfee0;&#xfe8e;" horiz-adv-x="981" arabic-form="final" 
d="M817 1012l2 -37v-828h182v-147h-961v147h256l-76 498h180q5 -31 18 -113.5t21 -133.5l39 -251h162v865q60 3 177 0z" />
    <glyph glyph-name="f_f" unicode="ff" horiz-adv-x="1088" 
d="M895 1057q140 0 219 -13l-16 -127h-141q-60 0 -84.5 -23t-24.5 -78v-96h212v-129h-212v-591h-178v591h-329v-591h-178v591h-128v122l128 7v105q0 102 56.5 159.5t167.5 57.5q122 0 191 -13l-16 -126h-112q-62 0 -85.5 -21t-23.5 -81v-81h329v119q0 106 52.5 162t172.5 56
z" />
    <glyph glyph-name="f_f_i" unicode="ffi" horiz-adv-x="1435" 
d="M882 1057q110 0 181 -13v-127h-118q-61 0 -85.5 -26.5t-24.5 -92.5v-78h495v-720h-178v591h-317v-591h-176v591h-331v-591h-178v591h-115v122l115 7v105q0 103 56.5 160t168.5 57q123 0 189 -13l-14 -126h-113q-62 0 -85.5 -21t-23.5 -81v-81h331v100q0 116 52 176.5
t171 60.5zM1200 1035h82q51 0 51 -52v-79q0 -51 -51 -51h-82q-52 0 -52 51v79q0 52 52 52z" />
    <glyph glyph-name="f_f_l" unicode="ffl" horiz-adv-x="1538" 
d="M895 1057q337 0 465 -24v-827q0 -83 85 -83h60l21 -114q-22 -11 -70 -18t-83 -7q-90 0 -141.5 47.5t-51.5 131.5v756h-223q-60 0 -84.5 -27t-24.5 -94v-78h196v-129h-196v-591h-178v591h-329v-591h-178v591h-128v122l128 7v105q0 102 56.5 159.5t167.5 57.5
q122 0 191 -13l-16 -126h-112q-62 0 -85.5 -21t-23.5 -81v-81h329v100q0 116 52.5 177t172.5 60z" />
    <glyph glyph-name="uniFBE8" unicode="&#x649;" horiz-adv-x="385" arabic-form="initial" 
d="M345 643v-396q0 -247 -249 -247h-116v147h101q38 0 60 21.5t22 60.5v414h182z" />
    <glyph glyph-name="uniFBE9" unicode="&#x649;" horiz-adv-x="507" arabic-form="medial" 
d="M345 147h182v-147h-547v147h184v500h181v-500z" />
    <glyph glyph-name="uniFC63" unicode="&#xfc63;" arabic-form="isolated" 
d="M27 200h-54v186h54v-186zM73 195h54q2 -87 0 -122q0 -13 -3 -25q-10 -38 -51 -45q-11 -3 -24 -3h-177v179h55v-134h42l1 134h54v-134q23 0 30 1q14 2 17 16q2 10 2 15v118z" />
    <glyph glyph-name="alefMaddaar.fina" unicode="&#x622;" horiz-adv-x="383" arabic-form="final" 
d="M98 1226h4q14 -36 30 -48q15 -12 41 -12h66v-60h-49q-29 0 -41 1t-31.5 12t-35.5 35l-62 -53v69zM221 147h182v-147h-363v1011h181v-864z" />
    <glyph glyph-name="alefHamzaabovear.fina" unicode="&#x623;" horiz-adv-x="383" arabic-form="final" 
d="M131 1303q35 9 73 -8v-50l-13 1q-23 2 -38 2q-30 -3 -34 -33q-2 -11 0 -20q3 -26 29 -26h62q7 0 19 -1v-62h-199v64h17l16 -1l-3 17q-16 96 71 117zM221 147h182v-147h-363v1011h181v-864z" />
    <glyph glyph-name="wawHamzaabovear.fina" unicode="&#x624;" horiz-adv-x="827" arabic-form="final" 
d="M417 966q35 9 72 -7v-50l-12 1q-34 3 -38 1q-29 -3 -34 -33l-1 -20q3 -26 29 -26l82 -1v-62h-199v64h33l-3 16q-23 95 71 117zM668 148h179v-148h-179v-80q0 -249 -219 -326q-49 -17 -96 -19q-21 -1 -169 7q-4 0 -31 7v132l72 -6q69 -5 124 10q139 38 140 181l1 94h-206
q-244 61 -244 314q0 141 92 239q92 96 222 96h314v-501zM422 497v-1h-68q-158 0 -158 -173q0 -88 39.5 -132.5t118.5 -43.5l158 1v185l-1 164h-89z" />
    <glyph glyph-name="alefHamzabelowar.fina" unicode="&#x625;" horiz-adv-x="383" arabic-form="final" 
d="M221 147h182v-147h-363v1011h181v-864zM131 -93q35 9 72 -7v-50l-12 1q-34 3 -38 1q-29 -3 -34 -33l-1 -20q3 -26 29 -26l82 -1v-62h-199v64h33l-3 16q-23 95 71 117z" />
    <glyph glyph-name="yehHamzaabovear.fina" unicode="&#x626;" horiz-adv-x="1090" arabic-form="final" 
d="M131 454q35 9 73 -8v-50l-13 1q-23 2 -38 2q-30 -3 -34 -33q-2 -11 0 -20q3 -26 29 -26h62q7 0 19 -1v-62h-199v64h17l16 -1l-3 17q-16 96 71 117zM1110 147v-147h-104v-432h-585q-97 0 -173 27q-187 66 -208 255v297h174v-206q0 -33 9 -69q32 -119 162 -149q30 -7 38 -7
h404q0 112 -15 225.5t-30 171.5l-16 58l235 -24h109z" />
    <glyph glyph-name="yehHamzaabovear.init" unicode="&#x626;" horiz-adv-x="392" arabic-form="initial" 
d="M259 966q35 9 72 -7v-50l-12 1q-34 3 -38 1q-29 -3 -34 -33l-1 -20q3 -26 29 -26l82 -1v-62h-199v64h33l-3 16q-23 95 71 117zM345 643v-396q0 -247 -249 -247h-116v147h101q38 0 60 21.5t22 60.5v414h182z" />
    <glyph glyph-name="yehHamzaabovear.medi" unicode="&#x626;" horiz-adv-x="507" arabic-form="medial" 
d="M259 966q35 9 72 -7v-50l-12 1q-34 3 -38 1q-29 -3 -34 -33l-1 -20q3 -26 29 -26l82 -1v-62h-199v64h33l-3 16q-23 95 71 117zM345 147h182v-147h-547v147h184v500h181v-500z" />
    <glyph glyph-name="uniFE8E" unicode="&#x627;" horiz-adv-x="383" arabic-form="final" 
d="M221 147h182v-147h-363v1011h181v-864z" />
    <glyph glyph-name="behar.fina" unicode="&#x628;" horiz-adv-x="1148" arabic-form="final" 
d="M986 147h182v-147h-748q-93 0 -172 28q-178 64 -208 251v267h177v-173q0 -43 10 -76q31 -109 150 -139q42 -11 73 -11h359v494h177v-494zM549 -129q97 1 98 -96t-96 -97q-94 0 -94 96q1 96 92 97z" />
    <glyph glyph-name="behar.init" unicode="&#x628;" horiz-adv-x="385" arabic-form="initial" 
d="M345 643v-396q0 -247 -249 -247h-116v147h101q38 0 60 21.5t22 60.5v414h182zM205 -129q97 1 98 -96t-96 -97q-94 0 -94 96q1 96 92 97z" />
    <glyph glyph-name="behar.medi" unicode="&#x628;" horiz-adv-x="507" arabic-form="medial" 
d="M345 147h182v-147h-547v147h184v500h181v-500zM251 -129q97 1 98 -96t-96 -97q-94 0 -94 96q1 96 92 97z" />
    <glyph glyph-name="tehMarbutaar.fina" unicode="&#x629;" horiz-adv-x="808" arabic-form="final" 
d="M273 977q97 1 98 -96t-96 -97q-94 0 -94 96q1 96 92 97zM521 977q97 1 98 -96t-96 -97q-94 0 -94 96q1 96 92 97zM668 647v-500h180v-147h-494q-313 0 -314 319q-1 137 93 235q93 96 221 95zM420 497l-66 -1q-158 -3 -158 -173v-8q0 -168 156 -168h160l-1 350h-91z" />
    <glyph glyph-name="tehar.fina" unicode="&#x62a;" horiz-adv-x="1148" arabic-form="final" 
d="M386 897q97 1 98 -96t-96 -97q-94 0 -94 96q1 96 92 97zM634 897q97 1 98 -96t-96 -97q-94 0 -94 96q1 96 92 97zM986 147h182v-147h-748q-93 0 -172 28q-178 64 -208 251v267h177v-173q0 -43 10 -76q31 -109 150 -139q42 -11 73 -11h359v494h177v-494z" />
    <glyph glyph-name="tehar.init" unicode="&#x62a;" horiz-adv-x="560" arabic-form="initial" 
d="M174 977q97 1 98 -96t-96 -97q-94 0 -94 96q1 96 92 97zM422 977q97 1 98 -96t-96 -97q-94 0 -94 96q1 96 92 97zM511 643v-396q0 -247 -249 -247h-282v147h267q38 0 60 21.5t22 60.5v414h182z" />
    <glyph glyph-name="tehar.medi" unicode="&#x62a;" horiz-adv-x="629" arabic-form="medial" 
d="M256 977q97 1 98 -96t-96 -97q-94 0 -94 96q1 96 92 97zM504 977q97 1 98 -96t-96 -97q-94 0 -94 96q1 96 92 97zM467 147h182v-147h-669v147h306v500h181v-500z" />
    <glyph glyph-name="thehar.fina" unicode="&#x62b;" horiz-adv-x="1148" arabic-form="final" 
d="M513 1127q97 1 98 -96t-96 -97q-94 0 -94 96q1 96 92 97zM386 897q97 1 98 -96t-96 -97q-94 0 -94 96q1 96 92 97zM634 897q97 1 98 -96t-96 -97q-94 0 -94 96q1 96 92 97zM986 147h182v-147h-748q-93 0 -172 28q-178 64 -208 251v267h177v-173q0 -43 10 -76
q31 -109 150 -139q42 -11 73 -11h359v494h177v-494z" />
    <glyph glyph-name="thehar.init" unicode="&#x62b;" horiz-adv-x="560" arabic-form="initial" 
d="M301 1207q97 1 98 -96t-96 -97q-94 0 -94 96q1 96 92 97zM174 977q97 1 98 -96t-96 -97q-94 0 -94 96q1 96 92 97zM422 977q97 1 98 -96t-96 -97q-94 0 -94 96q1 96 92 97zM511 643v-396q0 -247 -249 -247h-282v147h267q38 0 60 21.5t22 60.5v414h182z" />
    <glyph glyph-name="thehar.medi" unicode="&#x62b;" horiz-adv-x="629" arabic-form="medial" 
d="M383 1207q97 1 98 -96t-96 -97q-94 0 -94 96q1 96 92 97zM256 977q97 1 98 -96t-96 -97q-94 0 -94 96q1 96 92 97zM504 977q97 1 98 -96t-96 -97q-94 0 -94 96q1 96 92 97zM467 147h182v-147h-669v147h306v500h181v-500z" />
    <glyph glyph-name="jeemar.fina" unicode="&#x62c;" horiz-adv-x="945" arabic-form="final" 
d="M239 647h108q107 0 159 -7q187 -28 251 -205q27 -77 27 -256v-32h181v-147h-772q2 -90 4 -101q35 -137 140 -167q32 -10 75 -11q14 -1 60.5 -1h78.5q10 0 21.5 -0.5t12.5 -0.5v-163l-108 1q-129 1 -159 7q-187 28 -251 205q-27 77 -27 173v205h594q0 146 -7 174
q-30 121 -140 151q-28 8 -75 10q-13 0 -32.5 0.5t-50.5 1t-56 0.5q-29 0 -34 1v162zM453 -39q96 1 97 -96q2 -98 -96 -98q-94 0 -94 96q0 97 93 98z" />
    <glyph glyph-name="jeemar.init" unicode="&#x62c;" horiz-adv-x="749" arabic-form="initial" 
d="M164 646h108q103 0 159 -7q187 -28 251 -205q27 -76 27 -256v-178h-729v147h578q2 143 -6 173q-30 121 -140 151q-28 8 -75 10q-13 0 -32.5 0.5t-51 1t-56.5 0.5q-28 0 -33 1v162zM368 -129q97 1 98 -96t-96 -97q-94 0 -94 96q1 96 92 97z" />
    <glyph glyph-name="jeemar.medi" unicode="&#x62c;" horiz-adv-x="870" arabic-form="medial" 
d="M164 646h108q103 0 159 -7q187 -28 251 -205q27 -76 27 -256v-31h181v-147h-910v147h578q2 143 -6 173q-30 121 -140 151q-28 8 -75 10q-13 0 -32.5 0.5t-51 1t-56.5 0.5q-28 0 -33 1v162zM368 -129q97 1 98 -96t-96 -97q-94 0 -94 96q1 96 92 97z" />
    <glyph glyph-name="hahar.fina" unicode="&#x62d;" horiz-adv-x="945" arabic-form="final" 
d="M239 647h108q107 0 159 -7q187 -28 251 -205q27 -77 27 -256v-32h181v-147h-772q2 -90 4 -101q35 -137 140 -167q32 -10 75 -11q14 -1 60.5 -1h78.5q10 0 21.5 -0.5t12.5 -0.5v-163l-108 1q-129 1 -159 7q-187 28 -251 205q-27 77 -27 173v205h594q0 146 -7 174
q-30 121 -140 151q-28 8 -75 10q-13 0 -32.5 0.5t-50.5 1t-56 0.5q-29 0 -34 1v162z" />
    <glyph glyph-name="hahar.init" unicode="&#x62d;" horiz-adv-x="749" arabic-form="initial" 
d="M164 646h108q103 0 159 -7q187 -28 251 -205q27 -76 27 -256v-178h-729v147h578q2 143 -6 173q-30 121 -140 151q-28 8 -75 10q-13 0 -32.5 0.5t-51 1t-56.5 0.5q-28 0 -33 1v162z" />
    <glyph glyph-name="hahar.medi" unicode="&#x62d;" horiz-adv-x="870" arabic-form="medial" 
d="M164 646h108q103 0 159 -7q187 -28 251 -205q27 -76 27 -256v-31h181v-147h-910v147h578q2 143 -6 173q-30 121 -140 151q-28 8 -75 10q-13 0 -32.5 0.5t-51 1t-56.5 0.5q-28 0 -33 1v162z" />
    <glyph glyph-name="khahar.fina" unicode="&#x62e;" horiz-adv-x="945" arabic-form="final" 
d="M392 977q97 1 98 -96t-96 -97q-94 0 -94 96q1 96 92 97zM239 647h108q107 0 159 -7q187 -28 251 -205q27 -77 27 -256v-32h181v-147h-772q2 -90 4 -101q35 -137 140 -167q32 -10 75 -11q14 -1 60.5 -1h78.5q10 0 21.5 -0.5t12.5 -0.5v-163l-108 1q-129 1 -159 7
q-187 28 -251 205q-27 77 -27 173v205h594q0 146 -7 174q-30 121 -140 151q-28 8 -75 10q-13 0 -32.5 0.5t-50.5 1t-56 0.5q-29 0 -34 1v162z" />
    <glyph glyph-name="khahar.init" unicode="&#x62e;" horiz-adv-x="749" arabic-form="initial" 
d="M327 977q97 1 98 -96t-96 -97q-94 0 -94 96q1 96 92 97zM164 646h108q103 0 159 -7q187 -28 251 -205q27 -76 27 -256v-178h-729v147h578q2 143 -6 173q-30 121 -140 151q-28 8 -75 10q-13 0 -32.5 0.5t-51 1t-56.5 0.5q-28 0 -33 1v162z" />
    <glyph glyph-name="khahar.medi" unicode="&#x62e;" horiz-adv-x="870" arabic-form="medial" 
d="M327 977q97 1 98 -96t-96 -97q-94 0 -94 96q1 96 92 97zM164 646h108q103 0 159 -7q187 -28 251 -205q27 -76 27 -256v-31h181v-147h-910v147h578q2 143 -6 173q-30 121 -140 151q-28 8 -75 10q-13 0 -32.5 0.5t-51 1t-56.5 0.5q-28 0 -33 1v162z" />
    <glyph glyph-name="dalar.fina" unicode="&#x62f;" horiz-adv-x="747" arabic-form="final" 
d="M403 644q130 -12 175 -146q19 -59 19 -132v-219h170v-147h-727v147h375v250q0 50 -25.5 77t-74.5 27h-132v143q203 2 220 0z" />
    <glyph glyph-name="thalar.fina" unicode="&#x630;" horiz-adv-x="747" arabic-form="final" 
d="M327 977q97 1 98 -96t-96 -97q-94 0 -94 96q1 96 92 97zM403 644q130 -12 175 -146q19 -59 19 -132v-219h170v-147h-727v147h375v250q0 50 -25.5 77t-74.5 27h-132v143q203 2 220 0z" />
    <glyph glyph-name="rehar.fina" unicode="&#x631;" horiz-adv-x="570" arabic-form="final" 
d="M590 0h-181v-97q0 -248 -219 -325q-49 -17 -96 -19l-89 128q79 23 152 80t73 122v755h179v-497h181v-147z" />
    <glyph glyph-name="zainar.fina" unicode="&#x632;" horiz-adv-x="570" arabic-form="final" 
d="M329 784q-94 0 -94 96q1 96 92 97q97 1 98 -96t-96 -97zM590 0h-181v-97q0 -248 -219 -325q-49 -17 -96 -19l-89 128q79 23 152 80t73 122v755h179v-497h181v-147z" />
    <glyph glyph-name="seenar.fina" unicode="&#x633;" horiz-adv-x="1677" arabic-form="final" 
d="M1336 644h182q0 -329 -1 -404q0 -36 -12 -82l-3 -11h195v-147h-912v-128q0 -109 -58.5 -184t-166.5 -113q-44 -15 -96 -19q-39 -2 -109 1q-47 2 -96 19q-219 76 -219 325v478h178l1 -492q0 -143 139 -180q51 -14 102 0q140 39 140 180l1 706h181v-446h176l1 446h181v-446
h122q2 0 4.5 0.5t4 1t2.5 0.5q45 7 57 53q6 24 6 50v392z" />
    <glyph glyph-name="seenar.init" unicode="&#x633;" horiz-adv-x="1119" arabic-form="initial" 
d="M898 647h181q1 -234 -1 -405q0 -42 -12 -82q-36 -124 -170 -153q-29 -7 -79 -7h-837v147h182v449h181v-449h176l1 449h182v-449q107 0 132 4q46 6 57 54q6 24 6 49z" />
    <glyph glyph-name="seenar.medi" unicode="&#x633;" horiz-adv-x="1195" arabic-form="medial" 
d="M850 647h182q0 -328 -1 -405q0 -42 -12 -82l-4 -13h200v-147h-1235v147h135v449h181v-449h176l1 449h181v-449h95q16 0 38 4q47 7 57 54q6 24 6 49v393z" />
    <glyph glyph-name="sheenar.fina" unicode="&#x634;" horiz-adv-x="1677" arabic-form="final" 
d="M1059 1207q97 1 98 -96t-96 -97q-94 0 -94 96q1 96 92 97zM932 977q97 1 98 -96t-96 -97q-94 0 -94 96q1 96 92 97zM1180 977q97 1 98 -96t-96 -97q-94 0 -94 96q1 96 92 97zM1336 644h182q0 -329 -1 -404q0 -36 -12 -82l-3 -11h195v-147h-912v-128q0 -109 -58.5 -184
t-166.5 -113q-44 -15 -96 -19q-39 -2 -109 1q-47 2 -96 19q-219 76 -219 325v478h178l1 -492q0 -143 139 -180q51 -14 102 0q140 39 140 180l1 706h181v-446h176l1 446h181v-446h122q2 0 4.5 0.5t4 1t2.5 0.5q45 7 57 53q6 24 6 50v392z" />
    <glyph glyph-name="sheenar.init" unicode="&#x634;" horiz-adv-x="1119" arabic-form="initial" 
d="M622 1207q97 1 98 -96t-96 -97q-94 0 -94 96q1 96 92 97zM495 977q97 1 98 -96t-96 -97q-94 0 -94 96q1 96 92 97zM743 977q97 1 98 -96t-96 -97q-94 0 -94 96q1 96 92 97zM898 647h181q1 -234 -1 -405q0 -42 -12 -82q-36 -124 -170 -153q-29 -7 -79 -7h-837v147h182v449
h181v-449h176l1 449h182v-449q107 0 132 4q46 6 57 54q6 24 6 49z" />
    <glyph glyph-name="sheenar.medi" unicode="&#x634;" horiz-adv-x="1195" arabic-form="medial" 
d="M581 1207q97 1 98 -96t-96 -97q-94 0 -94 96q1 96 92 97zM454 977q97 1 98 -96t-96 -97q-94 0 -94 96q1 96 92 97zM702 977q97 1 98 -96t-96 -97q-94 0 -94 96q1 96 92 97zM850 647h182q0 -328 -1 -405q0 -42 -12 -82l-4 -13h200v-147h-1235v147h135v449h181v-449h176
l1 449h181v-449h95q16 0 38 4q47 7 57 54q6 24 6 49v393z" />
    <glyph glyph-name="sadar.fina" unicode="&#x635;" horiz-adv-x="2083" arabic-form="final" 
d="M1331 646h149q99 0 159 -8q187 -30 251 -205q27 -77 27 -256v-30h186v-147h-1318v-128q0 -109 -58.5 -184t-165.5 -113q-45 -15 -97 -19q-33 -3 -109 0q-47 2 -96 19q-219 77 -219 326v441l3 36h175v-451q0 -34 1 -40q9 -146 140 -181q51 -14 102 0q139 38 139 181l1 602
h181v-342h112v30q0 179 27 256q64 175 251 205q60 8 159 8zM1405 482q-81 0 -139 -2q-48 -2 -76 -10q-109 -31 -139 -150q-7 -30 -9 -173h727q-2 143 -9 173q-30 119 -139 150q-30 8 -76 10q-58 2 -140 2z" />
    <glyph glyph-name="sadar.init" unicode="&#x635;" horiz-adv-x="1523" arabic-form="initial" 
d="M896 646h150q99 0 159 -8q187 -30 251 -205q27 -77 27 -256v-177h-1503v147h181v342h181v-342h117v30q0 181 28 256q64 175 251 205q60 8 158 8zM972 482h-1q-82 0 -140 -2q-47 -2 -75 -10q-109 -31 -139 -150q-7 -30 -9 -173h727q-2 143 -9 173q-30 118 -140 150
q-28 8 -75 10q-58 2 -139 2z" />
    <glyph glyph-name="sadar.medi" unicode="&#x635;" horiz-adv-x="1644" arabic-form="medial" 
d="M896 646h150q99 0 159 -8q187 -30 251 -205q27 -77 27 -256v-30h181v-147h-1684v147h180l1 342h181v-342h118v30q0 184 27 256q64 175 251 205q60 8 158 8zM972 482h-1q-82 0 -140 -2q-47 -2 -75 -10q-109 -31 -139 -150q-7 -30 -9 -173h727q-2 143 -9 173
q-30 119 -139 150q-30 8 -76 10q-58 2 -139 2z" />
    <glyph glyph-name="dadar.fina" unicode="&#x636;" horiz-adv-x="2083" arabic-form="final" 
d="M1408 977q97 1 98 -96t-96 -97q-94 0 -94 96q1 96 92 97zM1331 646h149q99 0 159 -8q187 -30 251 -205q27 -77 27 -256v-30h186v-147h-1318v-128q0 -109 -58.5 -184t-165.5 -113q-45 -15 -97 -19q-33 -3 -109 0q-47 2 -96 19q-219 77 -219 326v441l3 36h175v-451
q0 -34 1 -40q9 -146 140 -181q51 -14 102 0q139 38 139 181l1 602h181v-342h112v30q0 179 27 256q64 175 251 205q60 8 159 8zM1405 482q-81 0 -139 -2q-48 -2 -76 -10q-109 -31 -139 -150q-7 -30 -9 -173h727q-2 143 -9 173q-30 119 -139 150q-30 8 -76 10q-58 2 -140 2z
" />
    <glyph glyph-name="dadar.init" unicode="&#x636;" horiz-adv-x="1523" arabic-form="initial" 
d="M981 977q97 1 98 -96t-96 -97q-94 0 -94 96q1 96 92 97zM896 646h150q99 0 159 -8q187 -30 251 -205q27 -77 27 -256v-177h-1503v147h181v342h181v-342h117v30q0 181 28 256q64 175 251 205q60 8 158 8zM972 482h-1q-82 0 -140 -2q-47 -2 -75 -10q-109 -31 -139 -150
q-7 -30 -9 -173h727q-2 143 -9 173q-30 118 -140 150q-28 8 -75 10q-58 2 -139 2z" />
    <glyph glyph-name="dadar.medi" unicode="&#x636;" horiz-adv-x="1644" arabic-form="medial" 
d="M981 977q97 1 98 -96t-96 -97q-94 0 -94 96q1 96 92 97zM896 646h150q99 0 159 -8q187 -30 251 -205q27 -77 27 -256v-30h181v-147h-1684v147h180l1 342h181v-342h118v30q0 184 27 256q64 175 251 205q60 8 158 8zM972 482h-1q-82 0 -140 -2q-47 -2 -75 -10
q-109 -31 -139 -150q-7 -30 -9 -173h727q-2 143 -9 173q-30 119 -139 150q-30 8 -76 10q-58 2 -139 2z" />
    <glyph glyph-name="tahar.fina" unicode="&#x637;" horiz-adv-x="1444" arabic-form="final" 
d="M402 1015v-428q56 39 136 51q64 8 159 8h150q116 0 159 -8q186 -28 250 -205q28 -79 28 -256v-30h180v-147h-1424v147h181v868h181zM772 482q-82 0 -140 -2q-47 -2 -75 -10q-110 -32 -140 -150q-7 -30 -9 -173h727q-2 143 -9 173q-28 118 -139 150q-28 8 -75 10
q-58 2 -140 2z" />
    <glyph glyph-name="tahar.init" unicode="&#x637;" horiz-adv-x="1206" arabic-form="initial" 
d="M284 1015v-428q56 39 136 51q64 8 159 8h150q116 0 159 -8q186 -28 250 -205q28 -79 28 -256v-177h-1186v147h123v868h181zM654 482q-82 0 -140 -2q-47 -2 -75 -10q-110 -32 -140 -150q-6 -26 -8 -173h726q-2 147 -8 173q-30 118 -140 150q-28 8 -75 10q-58 2 -140 2z
" />
    <glyph glyph-name="tahar.medi" unicode="&#x637;" horiz-adv-x="1384" arabic-form="medial" 
d="M342 1015v-428q56 39 136 51q64 8 159 8h150q116 0 159 -8q186 -28 250 -205q28 -79 28 -256v-30h180v-147h-1424v147h181v868h181zM712 482q-82 0 -140 -2q-47 -2 -75 -10q-110 -32 -140 -150q-7 -30 -9 -173h727q-2 143 -9 173q-28 118 -139 150q-28 8 -75 10
q-58 2 -140 2z" />
    <glyph glyph-name="zahar.fina" unicode="&#x638;" horiz-adv-x="1444" arabic-form="final" 
d="M402 1015v-428q56 39 136 51q64 8 159 8h150q116 0 159 -8q186 -28 250 -205q28 -79 28 -256v-30h180v-147h-1424v147h181v868h181zM773 977q97 1 98 -96t-96 -97q-94 0 -94 96q1 96 92 97zM772 482q-82 0 -140 -2q-47 -2 -75 -10q-110 -32 -140 -150q-7 -30 -9 -173h727
q-2 143 -9 173q-28 118 -139 150q-28 8 -75 10q-58 2 -140 2z" />
    <glyph glyph-name="zahar.init" unicode="&#x638;" horiz-adv-x="1206" arabic-form="initial" 
d="M284 1015v-428q56 39 136 51q64 8 159 8h150q116 0 159 -8q186 -28 250 -205q28 -79 28 -256v-177h-1186v147h123v868h181zM646 977q97 1 98 -96t-96 -97q-94 0 -94 96q1 96 92 97zM654 482q-82 0 -140 -2q-47 -2 -75 -10q-110 -32 -140 -150q-6 -26 -8 -173h726
q-2 147 -8 173q-30 118 -140 150q-28 8 -75 10q-58 2 -140 2z" />
    <glyph glyph-name="zahar.medi" unicode="&#x638;" horiz-adv-x="1384" arabic-form="medial" 
d="M342 1015v-428q56 39 136 51q64 8 159 8h150q116 0 159 -8q186 -28 250 -205q28 -79 28 -256v-30h180v-147h-1424v147h181v868h181zM711 977q97 1 98 -96t-96 -97q-94 0 -94 96q1 96 92 97zM712 482q-82 0 -140 -2q-47 -2 -75 -10q-110 -32 -140 -150q-7 -30 -9 -173h727
q-2 143 -9 173q-28 118 -139 150q-28 8 -75 10q-58 2 -140 2z" />
    <glyph glyph-name="ainar.fina" unicode="&#x639;" horiz-adv-x="973" arabic-form="final" 
d="M717 646v-150h-148l-66 -1q-158 -3 -158 -173v-8q0 -167 156 -167h492v-147h-585l-66 -1q-135 -2 -147 -145q5 -108 147 -138q46 -10 99 -10h176v-147h-209l-64 2q-48 2 -97 19q-209 77 -207 272q2 115 81 205q50 55 127 80l-12 10q-47 77 -47 171q0 139 93 235
q91 94 221 94z" />
    <glyph glyph-name="ainar.init" unicode="&#x639;" horiz-adv-x="829" arabic-form="initial" 
d="M689 646v-150h-148l-66 -1q-158 -3 -158 -173v-8q0 -167 156 -167h316v-147h-809v147h228q-47 77 -47 171q0 139 93 235q91 94 221 94z" />
    <glyph glyph-name="ainar.medi" unicode="&#x639;" horiz-adv-x="946" arabic-form="medial" 
d="M685 647v-151h-148l-66 -1q-158 -3 -158 -173v-7q0 -168 156 -168h496v-147h-985v147h224q-47 77 -47 171q0 139 93 235q92 95 221 95z" />
    <glyph glyph-name="ghainar.fina" unicode="&#x63a;" horiz-adv-x="973" arabic-form="final" 
d="M502 977q97 1 98 -96t-96 -97q-94 0 -94 96q1 96 92 97zM717 646v-150h-148l-66 -1q-158 -3 -158 -173v-8q0 -167 156 -167h492v-147h-585l-66 -1q-135 -2 -147 -145q5 -108 147 -138q46 -10 99 -10h176v-147h-209l-64 2q-48 2 -97 19q-209 77 -207 272q2 115 81 205
q50 55 127 80l-12 10q-47 77 -47 171q0 139 93 235q91 94 221 94z" />
    <glyph glyph-name="ghainar.init" unicode="&#x63a;" horiz-adv-x="829" arabic-form="initial" 
d="M474 977q97 1 98 -96t-96 -97q-94 0 -94 96q1 96 92 97zM689 646v-150h-148l-66 -1q-158 -3 -158 -173v-8q0 -167 156 -167h316v-147h-809v147h228q-47 77 -47 171q0 139 93 235q91 94 221 94z" />
    <glyph glyph-name="ghainar.medi" unicode="&#x63a;" horiz-adv-x="946" arabic-form="medial" 
d="M474 977q97 1 98 -96t-96 -97q-94 0 -94 96q1 96 92 97zM685 647v-151h-148l-66 -1q-158 -3 -158 -173v-7q0 -168 156 -168h496v-147h-985v147h224q-47 77 -47 171q0 139 93 235q92 95 221 95z" />
    <glyph glyph-name="fehar.fina" unicode="&#x641;" horiz-adv-x="1556" arabic-form="final" 
d="M1105 977q97 1 98 -96t-96 -97q-94 0 -94 96q1 96 92 97zM1396 647v-500h180v-147h-1151q-97 0 -173 27q-177 64 -205 251q-7 37 -7 159v108h179q1 -6 1 -34q0 -81 2 -139q2 -47 10 -75q32 -112 150 -140q34 -9 72 -9h361q-47 77 -47 171q0 139 93 235q91 94 221 94z
M1148 497l-66 -1q-158 -3 -158 -173v-8q0 -167 156 -167h159v349h-91z" />
    <glyph glyph-name="fehar.init" unicode="&#x641;" horiz-adv-x="829" arabic-form="initial" 
d="M518 977q97 1 98 -96t-96 -97q-94 0 -94 96q1 96 92 97zM789 646v-646h-809v147h228q-47 77 -47 171q0 139 93 235q91 94 221 94zM541 496l-66 -1q-158 -3 -158 -173v-8q0 -167 156 -167h159l1 330l-1 19h-91z" />
    <glyph glyph-name="fehar.medi" unicode="&#x641;" horiz-adv-x="946" arabic-form="medial" 
d="M518 977q97 1 98 -96t-96 -97q-94 0 -94 96q1 96 92 97zM785 647v-500h180v-147h-985v147h224q-47 77 -47 171q0 139 93 235q92 95 221 95zM537 496l-66 -1q-158 -3 -158 -173v-7q0 -168 156 -168h160v331l-1 18h-91z" />
    <glyph glyph-name="qafar.fina" unicode="&#x642;" horiz-adv-x="1105" arabic-form="final" 
d="M551 977q97 1 98 -96t-96 -97q-94 0 -94 96q1 96 92 97zM799 977q97 1 98 -96t-96 -97q-94 0 -94 96q1 96 92 97zM945 147h180v-147h-180v-128q0 -109 -58.5 -184t-166.5 -113q-57 -19 -97 -19h-267q-43 0 -97 19q-219 77 -219 326v246h179v-260q0 -142 140 -181h261
q131 36 140 181q0 12 1 19v94l-163 -1q-155 -1 -234 79t-80 240q-1 137 93 235q91 94 221 94h347v-500zM664 496l-66 -1q-158 -3 -158 -173v-8q0 -167 156 -167h160v330l-1 19h-91z" />
    <glyph glyph-name="qafar.init" unicode="&#x642;" horiz-adv-x="829" arabic-form="initial" 
d="M402 977q97 1 98 -96t-96 -97q-94 0 -94 96q1 96 92 97zM650 977q97 1 98 -96t-96 -97q-94 0 -94 96q1 96 92 97zM789 646v-646h-809v147h228q-47 77 -47 171q0 139 93 235q91 94 221 94zM541 496l-66 -1q-158 -3 -158 -173v-8q0 -167 156 -167h159l1 330l-1 19h-91z" />
    <glyph glyph-name="qafar.medi" unicode="&#x642;" horiz-adv-x="946" arabic-form="medial" 
d="M402 977q97 1 98 -96t-96 -97q-94 0 -94 96q1 96 92 97zM650 977q97 1 98 -96t-96 -97q-94 0 -94 96q1 96 92 97zM785 647v-500h180v-147h-985v147h224q-47 77 -47 171q0 139 93 235q92 95 221 95zM537 496l-66 -1q-158 -3 -158 -173v-7q0 -168 156 -168h160v331l-1 18
h-91z" />
    <glyph glyph-name="kafar.fina" unicode="&#x643;" horiz-adv-x="1155" arabic-form="final" 
d="M1175 147v-147h-750q-95 0 -172 27q-178 64 -206 251q-7 52 -7 159v107h179l2 -34l1 -139q0 -42 10 -75q32 -112 150 -140q34 -9 73 -9h359v859q64 19 178 3l2 -41v-821h181zM654 508h-289q-9 39 2 79l53 3q-27 118 55 169q58 36 145 3v-70q-45 9 -48 9q-42 7 -65 -22
q-21 -29 -6 -73q6 -18 29 -18h89q13 0 35 -1v-79zM367 587z" />
    <glyph glyph-name="kafar.init" unicode="&#x643;" horiz-adv-x="1245" arabic-form="initial" 
d="M827 1014l33 -2v-177h-384q-25 0 -53 -5q-49 -10 -57 -58q-5 -35 -5 -126h500v-1q11 -1 28 -2.5t21 -1.5q204 -19 270 -216q25 -73 25 -157v-268h-1225v147h1075l2 34v47q0 39 -8 69q-30 131 -154 161q-25 6 -72 8h-1h-1h-1h-2h-1h-1h-1h-1h-1h-1h-2h-1h-1h-1h-1h-1h-1
h-2h-1l-1 1h-1h-1h-1h-1h-1h-1h-2h-1h-1h-1h-1h-1h-1h-1h-1h-1h-2h-1h-1h-1h-1h-1h-1h-1h-1h-1h-1h-1h-1h-1h-1h-2h-1h-1h-1h-1h-1h-1h-1h-1h-1l-1 1h-1h-1h-1h-1h-1h-1h-1h-1h-2l-81 2h-11q-127 0 -218 1q-111 1 -221 1l1 287q0 40 7 75q31 138 161 172q34 8 72 8h372z" />
    <glyph glyph-name="kafar.medi" unicode="&#x643;" horiz-adv-x="1367" arabic-form="medial" 
d="M827 1014l33 -2v-177h-384q-25 0 -53 -5q-49 -10 -57 -58q-5 -35 -5 -126h500v-1q11 -1 28 -2.5t21 -1.5q204 -19 270 -216q25 -73 25 -157v-121h182v-147h-1407v147h1075l2 34v47q0 39 -8 69q-30 131 -154 161q-25 6 -72 8h-1h-1h-1h-2h-1h-1h-1h-1h-1h-1h-2h-1h-1h-1
h-1h-1h-1h-2h-1l-1 1h-1h-1h-1h-1h-1h-1h-2h-1h-1h-1h-1h-1h-1h-1h-1h-1h-2h-1h-1h-1h-1h-1h-1h-1h-1h-1h-1h-1h-1h-1h-1h-2h-1h-1h-1h-1h-1h-1h-1h-1h-1l-1 1h-1h-1h-1h-1h-1h-1h-1h-1h-2l-81 2h-11q-127 0 -218 1q-111 1 -221 1l1 287q0 40 7 75q31 138 161 172q34 8 72 8
h372z" />
    <glyph glyph-name="lamar.fina" unicode="&#x644;" horiz-adv-x="944" arabic-form="final" 
d="M785 147h179v-147h-178v-127q0 -109 -58.5 -184t-166.5 -113q-45 -15 -97 -19q-33 -3 -108 0q-48 2 -97 19q-219 77 -219 326v477h179v-491q0 -71 36.5 -117t103.5 -64q51 -14 102 0q140 40 140 181v1128h184v-869z" />
    <glyph glyph-name="lamar.init" unicode="&#x644;" horiz-adv-x="385" arabic-form="initial" 
d="M345 1011v-764q0 -247 -249 -247h-116v147h101q38 0 60 21.5t22 60.5v782h182z" />
    <glyph glyph-name="lamar.medi" unicode="&#x644;" horiz-adv-x="507" arabic-form="medial" 
d="M345 147h182v-147h-547v147h184v864h181v-864z" />
    <glyph glyph-name="meemar.fina" unicode="&#x645;" horiz-adv-x="1019" arabic-form="final" 
d="M581 644q130 0 222 -98t92 -236q0 -56 -17 -110q16 -40 62 -53h99v-147h-74q-94 0 -152 64q-4 4 -12 8q-91 -96 -220 -96q-73 0 -137 34q-8 -1 -59 -11q-166 -35 -166 -181v-263h-179v249q0 126 59 207t186 119q2 0 27 8q-45 80 -45 172q0 138 92 236t222 98zM581 503
q-120 0 -120 -193t120 -193t120 193t-120 193z" />
    <glyph glyph-name="meemar.init" unicode="&#x645;" horiz-adv-x="781" arabic-form="initial" 
d="M427 644q130 0 222 -98t92 -236t-92 -236t-222 -98q-137 0 -230 107l6 -8l-16 -11q-59 -64 -152 -64h-75v147q63 0 99 3q55 12 67 64q-13 45 -13 96q0 138 92 236t222 98zM427 503q-120 0 -120 -193t120 -193t120 193t-120 193z" />
    <glyph glyph-name="meemar.medi" unicode="&#x645;" horiz-adv-x="892" arabic-form="medial" 
d="M447 644q130 0 222 -98t92 -236q0 -49 -14 -100q13 -50 66 -60q37 -3 99 -3v-147h-75q-93 0 -152 64l-15 11q-92 -99 -223 -99q-137 0 -230 107l6 -8l-16 -11q-59 -64 -152 -64h-75v147q96 0 99 3q55 12 67 64q-13 45 -13 96q0 138 92 236t222 98zM447 503
q-120 0 -120 -193t120 -193t120 193t-120 193z" />
    <glyph glyph-name="noonar.fina" unicode="&#x646;" horiz-adv-x="943" arabic-form="final" 
d="M429 701q96 1 97 -96t-96 -97q-94 0 -94 96t93 97zM783 147h180v-147h-177v-127q0 -109 -58.5 -184t-166.5 -113q-45 -15 -97 -19q-33 -3 -108 0q-48 2 -97 19q-219 77 -219 326v477h179v-491q0 -71 36.5 -117t103.5 -64q51 -14 102 0q140 40 140 181v602h181z" />
    <glyph glyph-name="noonar.init" unicode="&#x646;" horiz-adv-x="398" arabic-form="initial" 
d="M260 977q97 1 98 -96t-96 -97q-94 0 -94 96q1 96 92 97zM345 643v-396q0 -247 -249 -247h-116v147h101q38 0 60 21.5t22 60.5v414h182z" />
    <glyph glyph-name="noonar.medi" unicode="&#x646;" horiz-adv-x="507" arabic-form="medial" 
d="M260 977q97 1 98 -96t-96 -97q-94 0 -94 96q1 96 92 97zM345 147h182v-147h-547v147h184v500h181v-500z" />
    <glyph glyph-name="hehar.fina" unicode="&#x647;" horiz-adv-x="808" arabic-form="final" 
d="M668 647v-500h180v-147h-494q-313 0 -314 319q-1 137 93 235q93 96 221 95zM420 497l-66 -1q-158 -3 -158 -173v-8q0 -168 156 -168h160l-1 350h-91z" />
    <glyph glyph-name="hehar.init" unicode="&#x647;" horiz-adv-x="906" arabic-form="initial" 
d="M321 647h108q107 0 159 -7q187 -28 251 -206q27 -76 27 -256v-178h-886v147h197q-17 43 -17 89q0 198 195 231l-34 1v179zM440 466q190 -37 190 -230q0 -45 -17 -88h105q-2 126 -9 156q-30 120 -139 151q-28 8 -76 10q-12 1 -54 1zM395 331q-95 0 -95 -95q0 -62 57 -88
h76q57 26 57 88q0 95 -95 95z" />
    <glyph glyph-name="hehar.medi" unicode="&#x647;" horiz-adv-x="1028" arabic-form="medial" 
d="M321 647h108q107 0 159 -7q187 -28 251 -206q27 -76 27 -256v-32l182 1v-147h-1068v147h197q-17 43 -17 89q0 198 195 231l-34 1v179zM440 466q190 -37 190 -230q0 -45 -17 -88h105q-2 126 -9 156q-30 120 -139 151q-28 8 -76 10q-12 1 -54 1zM395 331q-95 0 -95 -95
q0 -62 57 -88h76q57 26 57 88q0 95 -95 95z" />
    <glyph glyph-name="wawar.fina" unicode="&#x648;" horiz-adv-x="827" arabic-form="final" 
d="M668 148h179v-148h-179v-80q0 -249 -219 -326q-49 -17 -96 -19q-21 -1 -169 7q-4 0 -31 7v132l72 -6q69 -5 124 10q139 38 140 181l1 94h-206q-244 61 -244 314q0 141 92 239q92 96 222 96h314v-501zM422 497v-1h-68q-158 0 -158 -173q0 -88 39.5 -132.5t118.5 -43.5
l158 1v185l-1 164h-89z" />
    <glyph glyph-name="alefMaksuraar.fina" unicode="&#x649;" horiz-adv-x="1090" arabic-form="final" 
d="M1110 147v-147h-104v-432h-585q-97 0 -173 27q-187 66 -208 255v297h174v-206q0 -33 9 -69q32 -119 162 -149q30 -7 38 -7h404q0 112 -15 225.5t-30 171.5l-16 58l235 -24h109z" />
    <glyph glyph-name="yehar.fina" unicode="&#x64a;" horiz-adv-x="1090" arabic-form="final" 
d="M1001 147h109v-147h-104v-432h-585q-97 0 -173 27q-187 66 -208 255v297h174v-206q0 -33 9 -69q32 -119 162 -149q30 -7 38 -7h404q0 112 -15 225.5t-30 171.5l-16 58zM454 -559q97 1 98 -96t-96 -97q-94 0 -94 96q1 96 92 97zM702 -559q97 1 98 -96t-96 -97
q-94 0 -94 96q1 96 92 97z" />
    <glyph glyph-name="yehar.init" unicode="&#x64a;" horiz-adv-x="551" arabic-form="initial" 
d="M511 643v-396q0 -247 -249 -247h-282v147h267q38 0 60 21.5t22 60.5v414h182zM120 -129q97 1 98 -96t-96 -97q-94 0 -94 96q1 96 92 97zM368 -129q97 1 98 -96t-96 -97q-94 0 -94 96q1 96 92 97z" />
    <glyph glyph-name="yehar.medi" unicode="&#x64a;" horiz-adv-x="629" arabic-form="medial" 
d="M467 147h182v-147h-669v147h306v500h181v-500zM242 -129q97 1 98 -96t-96 -97q-94 0 -94 96q1 96 92 97zM490 -129q97 1 98 -96t-96 -97q-94 0 -94 96q1 96 92 97z" />
    <glyph glyph-name=".notdef" horiz-adv-x="897" 
d="M448 997h9q7 -1 12 -1h1q154 0 274 -126q113 -119 113 -282v-3q0 -11 -1 -16v-11q-1 -5 -1 -8q-1 -2 -1.5 -6.5t-0.5 -6.5v-5l-2 -15q0 -1 -1 -2q-20 -106 -88 -188l-39 40q79 97 79 222q0 147 -104 251t-251 104t-251 -104t-104 -251q0 -126 80 -224l-38 -38
q-67 82 -87 187q0 2 -1 3l-2 15q0 2 -1 5q-1 5 -1 13q0 5 -1 8q0 9 -1 11v19q0 169 120 289t288 120zM447 936q143 0 245 -102q101 -101 101 -245q0 -122 -76 -216l-42 42q59 77 59 174q0 119 -84 203q-84 85 -203 85t-203 -85q-84 -84 -84 -203q0 -98 60 -176l-41 -42
q-78 96 -78 218q0 144 101 245q102 102 245 102zM447 868q115 0 197 -82q82 -81 82 -197q0 -95 -57 -168l-45 45q40 55 40 125q0 90 -64 154q-64 63 -154 63t-153 -63q-64 -64 -64 -154q0 -71 42 -128l-45 -44q-58 74 -58 170q0 116 82 197q82 82 197 82zM446 692
q40 0 68 -28t28 -68q0 -38 -27 -67l245 -263h-623l242 260q-30 28 -30 70q0 39 29 68q28 28 68 28zM187 164h22v3q0 17 12 29t29 12t29 -12t12 -29v-3h68l-42 23q1 2 4.5 8.5t6.5 11.5v-1l18 -10l17 -9l22 -13h1v-32h-104q-12 -16 -32 -16t-33 16h-52v82h22v-60zM460 224
v-20q7 4 18 4h61v-66h-112v22h11v60h22zM654 224v-20q8 4 18 4h62v-44h70q-7 5 -21 11l-21 12q1 4 6 10l5 9l25 -12q5 -4 10 -7l11 -7l12 -6v-1v-31h-227q-12 -23 -38 -23h-3v22h3q6 0 11 3q-13 4 -20 17q-5 8 -3 17q3 26 30 30h26v-44h22v60h22zM810 207h-16v17h16v-17z
M111 207q18 0 30 -12q13 -13 13 -31q0 -13 -8 -24h-70q-8 11 -8 24q0 18 13 31q12 12 30 12zM111 185q-20 0 -20 -21v-1h40l1 1q0 21 -21 21zM250 185q-18 0 -18 -18t18 -18t18 18t-18 18zM517 185h-38q-18 0 -18 -18v-3h56v21zM589 164v21q-14 -2 -14 -10q0 -9 14 -11z
M711 185h-38q-18 0 -18 -18q0 -2 1 -3h55v21zM566 109v-16q-6 0 -6 -4v-16h6v-15h-6v-40h6v-15h-27v55h-6v15h6v26q0 17 27 10zM87 110q10 -3 10 -11v-34q7 9 22 9q25 0 25 -25v-31h7v-15h-27v43q0 12 -13 12q-14 -2 -14 -12v-28h7v-15h-27v86q0 5 -7 4v16q7 3 17 1z
M444 110q10 -3 10 -11v-34q8 9 22 9q25 0 25 -25v-31h7v-15h-27v43q0 12 -14 12q-13 -1 -13 -12v-28h7v-15h-27v86q0 5 -7 4v16q7 3 17 1zM749 73h13v-15h-13v-36q0 -5 7 -4v-15q-6 -4 -17 -2q-10 3 -10 11v71h-7v15h27v-25zM321 74q26 0 26 -25v-31h6v-15h-26v43
q0 12 -14 12q-13 -1 -13 -11v-29h7v-15h-27v43q0 14 -14 12q-13 -1 -13 -12v-28h6v-15h-27v51q0 4 -6 4v15q25 7 25 -10q6 11 23 11q15 0 23 -11q8 12 24 11zM690 74q25 0 25 -25v-31h7v-15h-27v43q0 12 -13 12q-13 -1 -13 -12v-28h6v-15h-27v50q0 5 -6 5v15q25 7 25 -10
q6 11 23 11zM177 74q14 0 22 -8v7h25v-15h-6v-36q0 -5 6 -5v-14q-6 -4 -15 -2q-10 3 -10 11q0 -11 -22 -11q-26 2 -26 26v22q0 25 26 25zM379 74q14 0 22 -8v7h25v-15h-6v-36q0 -5 6 -5v-14q-6 -4 -15 -2q-10 3 -10 11q0 -11 -22 -11q-26 2 -26 26v22q0 25 26 25zM605 74
q37 0 37 -36q-1 -36 -37 -37q-19 -1 -28 8.5t-9 28.5q0 36 37 36zM794 74q27 0 27 -15v-8h-17q0 8 -9 8q-5 0 -7.5 -1.5t-1.5 -3.5q0 -5 19 -12t19 -20q0 -21 -31 -21q-28 0 -30 17v7h17q0 -10 13 -10q11 0 11 7q0 5 -19 12t-19 20q0 20 28 20zM186 58q-14 0 -14 -13v-15
q0 -13 13 -12q14 0 14 12v15q0 12 -13 13zM388 58q-14 0 -14 -13v-15q0 -14 14 -12q13 0 13 12v15q0 12 -13 13zM605 58q-17 0 -17 -20q0 -21 17 -21t17 21q0 20 -17 20z" />
    <glyph glyph-name=".null" 
 />
    <glyph glyph-name="nonmarkingreturn" horiz-adv-x="666" 
 />
    <glyph glyph-name="CR" unicode="&#xd;" horiz-adv-x="500" 
 />
    <glyph glyph-name="space" unicode=" " horiz-adv-x="226" 
 />
    <glyph glyph-name="exclam" unicode="!" horiz-adv-x="422" 
d="M300 603l-19 -285h-140l-19 285v419h178v-419zM191 201h43q35 0 49 -14t14 -49v-75q0 -35 -14 -49t-49 -14h-43q-36 0 -50.5 14t-14.5 49v75q0 35 14.5 49t50.5 14z" />
    <glyph glyph-name="quotedbl" unicode="&#x22;" horiz-adv-x="539" 
d="M215 694h-117l-10 320h138zM441 694h-115l-11 320h138z" />
    <glyph glyph-name="numbersign" unicode="#" horiz-adv-x="1026" 
d="M809 750h163l-22 -111h-161l-41 -230h162l-22 -109h-157l-53 -300h-137l51 300h-230l-53 -300h-137l51 300h-170l21 109h169l39 230h-167l20 111h166l47 264h137l-45 -264h230l47 264h137zM420 639l-41 -230h233l39 230h-231z" />
    <glyph glyph-name="dollar" unicode="$" horiz-adv-x="838" 
d="M529 1170l-12 -140q123 -7 221 -32l-12 -131q-158 5 -223 5l-24 -284l87 -26q115 -35 161 -106.5t46 -189.5q0 -87 -18.5 -142t-63.5 -86.5t-109.5 -43.5t-166.5 -12h-3l-14 -161h-80l14 163q-117 5 -247 31l12 139l250 -4l25 287l-94 29q-110 34 -157 105.5t-47 188.5
q0 87 19 140.5t64.5 82.5t105 39t157.5 10h18l12 138h79zM400 613l23 260q-42 0 -64 -2t-45.5 -8t-33.5 -18.5t-16.5 -33.5t-6.5 -54q0 -63 25 -88.5t90 -46.5zM448 412l-22 -264q97 2 129.5 25t32.5 95q0 64 -23 89t-84 44z" />
    <glyph glyph-name="percent" unicode="%" horiz-adv-x="1324" 
d="M303 1033q136 0 190.5 -67.5t54.5 -233.5q0 -165 -54.5 -233t-190.5 -68t-191 68t-55 233q0 166 55 233.5t191 67.5zM406 0h-119l629 1014h117zM301 928q-64 0 -87 -41.5t-23 -154.5q0 -114 23 -154.5t87 -40.5q66 0 90 40.5t24 154.5q0 113 -24.5 154.5t-89.5 41.5z
M1020 588q136 0 191 -68t55 -233q0 -167 -55 -235t-191 -68q-135 0 -189.5 68t-54.5 235q0 165 54.5 233t189.5 68zM1020 481q-65 0 -87.5 -39.5t-22.5 -154.5q0 -116 22.5 -156.5t87.5 -40.5q64 0 88 41t24 156q0 114 -23.5 154t-88.5 40z" />
    <glyph glyph-name="ampersand" unicode="&#x26;" horiz-adv-x="1127" 
d="M504 1030q143 0 237 -16l-22 -133q-92 4 -221 4q-117 0 -156 -27t-39 -120q0 -86 34 -116.5t126 -30.5h244l13 168h150v-168h169v-134h-169v-238q0 -47 17.5 -65.5t62.5 -18.5h98l19 -126q-73 -25 -173 -25q-72 0 -119 29.5t-64 84.5q-61 -62 -135.5 -88t-188.5 -26
q-163 0 -232.5 61t-69.5 212q0 122 46.5 189.5t153.5 76.5v6q-90 9 -129.5 66.5t-39.5 170.5q0 51 7.5 89t21 66t38 47.5t52.5 31.5t71.5 18.5t88.5 9t109 2.5zM703 457h-250q-99 0 -136.5 -35t-37.5 -131q0 -89 33.5 -121.5t124.5 -31.5q159 0 266 85v234z" />
    <glyph glyph-name="quotesingle" unicode="'" horiz-adv-x="313" 
d="M215 694h-117l-10 320h138z" />
    <glyph glyph-name="parenleft" unicode="(" horiz-adv-x="532" 
d="M476 1161l21 -79q-135 -64 -196 -218t-61 -404q0 -245 61.5 -400.5t195.5 -222.5l-21 -80q-211 74 -310.5 244.5t-99.5 457.5q0 289 99.5 459t310.5 243z" />
    <glyph glyph-name="parenright" unicode=")" horiz-adv-x="532" 
d="M35 1082l22 79q212 -73 311 -243t99 -459q0 -288 -99 -458t-311 -244l-22 80q135 67 196.5 222.5t61.5 400.5q0 249 -61.5 403.5t-196.5 218.5z" />
    <glyph glyph-name="asterisk" unicode="*" horiz-adv-x="662" 
d="M366 775l153 -190l-81 -60l-107 179l-108 -178l-82 59l153 188l-15 243h103zM268 823v-44l-21 -28l-182 46l32 95zM597 795l-181 -44l-24 28v44l172 69z" />
    <glyph glyph-name="plus" unicode="+" horiz-adv-x="803" 
d="M467 507h264v-132h-264v-252h-133v252h-262v132h262v252h133v-252z" />
    <glyph glyph-name="comma" unicode="," horiz-adv-x="350" 
d="M151 201h49q35 0 48.5 -14t13.5 -49v-94q0 -135 -65 -250l-81 22q19 91 19 184q-50 0 -50 56v82q0 34 15.5 48.5t50.5 14.5z" />
    <glyph glyph-name="hyphen" unicode="-" horiz-adv-x="629" 
d="M535 310h-441v127h441v-127z" />
    <glyph glyph-name="period" unicode="." horiz-adv-x="353" 
d="M150 201h53q36 0 50.5 -14t14.5 -49v-75q0 -35 -14.5 -49t-50.5 -14h-53q-37 0 -51 14t-14 49v75q0 35 14 49t51 14z" />
    <glyph glyph-name="slash" unicode="/" horiz-adv-x="785" 
d="M175 -101h-143l578 1115h143z" />
    <glyph glyph-name="zero" unicode="0" horiz-adv-x="907" 
d="M453 1033q205 0 288.5 -120t83.5 -406t-83.5 -406t-288.5 -120q-206 0 -288.5 119.5t-82.5 406.5t82.5 406.5t288.5 119.5zM451 879q-108 0 -148.5 -79.5t-40.5 -292.5t40.5 -292.5t148.5 -79.5q112 0 153 79.5t41 292.5t-41 292.5t-153 79.5z" />
    <glyph glyph-name="one" unicode="1" horiz-adv-x="609" 
d="M459 0h-184v748q0 60 7 100l-238 -67l-22 130l253 103h184v-1014z" />
    <glyph glyph-name="two" unicode="2" horiz-adv-x="836" 
d="M407 1032q80 0 136 -9.5t101 -34t66.5 -70.5t21.5 -115q0 -93 -35 -167.5t-134 -181.5l-269 -289q57 8 157 8h313v-173h-690v110q0 50 26 77l265 292q96 107 140 179t42 130q-1 52 -37.5 68t-121.5 16q-141 0 -297 -18l-10 141q168 37 326 37z" />
    <glyph glyph-name="three" unicode="3" horiz-adv-x="825" 
d="M390 1033q174 0 247.5 -51.5t73.5 -183.5q0 -111 -32.5 -176t-115.5 -80v-5q95 -16 134 -78.5t41 -176.5q2 -159 -74 -230t-260 -71q-137 0 -336 26l8 144q174 -11 280 -11q113 0 156.5 34.5t43.5 129.5q0 83 -35.5 120.5t-136.5 37.5h-188v136h188q50 0 82 11t47 34
t19.5 47.5t4.5 62.5q-1 79 -36 101t-141 22q-159 0 -264 -9l-9 140q150 26 303 26z" />
    <glyph glyph-name="four" unicode="4" horiz-adv-x="922" 
d="M506 1014l-258 -589q-10 -28 -1 -40.5t34 -12.5h282v282l31 165h142v-447h131v-124l-128 -19h-3v-229h-173v229h-398q-68 0 -101.5 54.5t-6.5 116.5l271 614h178z" />
    <glyph glyph-name="five" unicode="5" horiz-adv-x="800" 
d="M692 863h-417l-12 -216l128 -15q186 -21 262 -97t75 -228q0 -68 -14.5 -121.5t-50 -102t-105.5 -75t-170 -26.5q-144 0 -323 34l19 149q135 -22 259 -22q119 0 160.5 38t43.5 128q3 107 -48.5 135t-226.5 46q-4 1 -6 1l-97 10q-30 4 -47 24t-16 50l23 439h569z" />
    <glyph glyph-name="six" unicode="6" horiz-adv-x="851" 
d="M494 1032q134 0 223 -25l-11 -128q-71 3 -212 3q-64 0 -102 -10.5t-67.5 -42.5t-42.5 -91t-16 -156q48 48 101.5 66.5t132.5 18.5q161 0 222.5 -73t61.5 -254q0 -70 -8 -121.5t-30 -98.5t-59 -75.5t-97.5 -45.5t-144.5 -17q-91 0 -151 15.5t-102.5 49t-65 95.5t-32 144.5
t-9.5 208.5q0 138 17 234.5t47.5 155.5t83.5 92t112.5 44t148.5 11zM448 525q-51 0 -91.5 -15t-91.5 -53q0 -71 2 -114.5t8.5 -84t18 -61.5t32.5 -37.5t49.5 -22t71.5 -5.5q53 0 86 12t49.5 41t21.5 63t5 90q0 106 -33.5 146.5t-127.5 40.5z" />
    <glyph glyph-name="seven" unicode="7" horiz-adv-x="763" 
d="M47 1014h591q51 0 73.5 -29.5t7.5 -76.5l-310 -908h-183l268 773q18 54 38 87h-476z" />
    <glyph glyph-name="eight" unicode="8" horiz-adv-x="897" 
d="M448 1030q135 0 209.5 -29.5t101.5 -85t27 -154.5q0 -98 -36 -160.5t-111 -71.5v-6q94 -9 132.5 -78.5t38.5 -191.5q0 -98 -29 -153.5t-108.5 -86t-224.5 -31.5q-141 0 -220.5 30t-109.5 87t-30 154q0 122 38 191.5t131 78.5v6q-74 9 -109.5 71.5t-35.5 160.5t27.5 154
t101 85.5t207.5 29.5zM450 891q-103 0 -137.5 -31t-34.5 -118t34.5 -117t138.5 -30q105 0 136.5 29.5t31.5 117.5q0 87 -33.5 118t-135.5 31zM451 457q-114 -1 -151.5 -34.5t-37.5 -129.5q0 -93 37.5 -126t150.5 -33q111 0 148 33t37 126q0 98 -36 131t-148 33z" />
    <glyph glyph-name="nine" unicode="9" horiz-adv-x="851" 
d="M412 1032q66 0 115 -8t87 -24t63.5 -46t43 -67t26.5 -94t13 -120.5t4 -153.5q0 -136 -15 -229t-43.5 -154.5t-79.5 -94.5t-113.5 -46t-155.5 -13q-142 0 -242 25l13 130q76 -5 228 -5q126 0 174.5 63t56.5 242q-49 -50 -103.5 -70t-135.5 -20q-277 0 -277 328
q-2 187 76 272t265 85zM410 882q-101 0 -133.5 -47.5t-32.5 -158.5q0 -99 33.5 -143.5t123.5 -44.5q51 0 92 15.5t95 55.5q0 71 -2 113.5t-8.5 83.5t-17.5 61.5t-31.5 37t-48.5 22t-70 5.5z" />
    <glyph glyph-name="colon" unicode=":" horiz-adv-x="369" 
d="M151 656h53q36 0 50.5 -14t14.5 -50v-75q0 -35 -14 -49t-51 -14h-53q-36 0 -50 14t-14 49v75q0 35 14 49.5t50 14.5zM151 201h53q37 0 51 -13.5t14 -49.5v-73q0 -37 -14 -51t-51 -14h-53q-36 0 -50 14t-14 51v73q0 36 14 49.5t50 13.5z" />
    <glyph glyph-name="semicolon" unicode=";" horiz-adv-x="370" 
d="M160 656h55q35 0 49 -14.5t14 -49.5v-75q0 -35 -14 -49t-49 -14h-55q-35 0 -49 14t-14 49v75q0 35 14 49.5t49 14.5zM163 201h47q35 0 49 -14t14 -49v-94q0 -133 -66 -250l-79 22q18 84 19 184q-50 0 -50 56v82q0 35 15 49t51 14z" />
    <glyph glyph-name="less" unicode="&#x3c;" horiz-adv-x="769" 
d="M676 617l-457 -176l457 -176v-140l-608 245v140l608 249v-142z" />
    <glyph glyph-name="equal" unicode="=" horiz-adv-x="856" 
d="M759 525h-662v129h662v-129zM759 213h-662v130h662v-130z" />
    <glyph glyph-name="greater" unicode="&#x3e;" horiz-adv-x="769" 
d="M701 510v-140l-608 -245v140l457 176l-457 176v142z" />
    <glyph glyph-name="question" unicode="?" horiz-adv-x="747" 
d="M390 1047q154 0 229.5 -56t75.5 -172q0 -60 -25.5 -110.5t-63 -89.5t-75 -78.5t-66.5 -97t-33 -125.5h-148q-2 73 19.5 135.5t54 105t65.5 78.5t57.5 74t26.5 74q4 59 -33.5 86t-123.5 27q-126 0 -293 -10l-7 125q14 3 48.5 9t48 8.5t44 6.5t55 5.5t62 3t82.5 1.5z
M337 201h42q37 0 51 -14t14 -49v-75q0 -35 -14 -49t-51 -14h-42q-37 0 -51 14t-14 49v75q0 35 14 49t51 14z" />
    <glyph glyph-name="at" unicode="@" horiz-adv-x="1083" 
d="M534 873h216q120 0 179.5 -53t59.5 -176v-447h-132l-16 104q-44 -47 -116.5 -83t-152.5 -36q-90 0 -145 47.5t-55 136.5v72q0 74 44.5 115.5t130.5 41.5h275v44q0 55 -22.5 74t-85.5 19h-180q-52 0 -81 -1t-62.5 -6.5t-49 -13.5t-33.5 -26.5t-24 -40.5t-12.5 -60.5
t-8 -82.5t-1.5 -109q0 -91 2.5 -144t19 -95.5t31 -60.5t62 -29.5t86 -12.5t128.5 -1h397v-127q-210 -16 -397 -16q-89 -1 -150 2t-115.5 13t-88.5 24t-62 42.5t-42 61t-24 86.5t-12.5 112t-2.5 145q0 114 4.5 183t22.5 128.5t44 88t79.5 49.5t119 26.5t170.5 5.5zM822 495
l-209 -5q-44 -1 -61 -17t-17 -53v-23q0 -44 19.5 -62.5t58.5 -18.5q53 0 111 20.5t98 58.5v100z" />
    <glyph glyph-name="A" unicode="A" horiz-adv-x="935" 
d="M378 1014h179q51 0 66 -48l305 -966h-189l-83 287h-377l-83 -287h-189l305 966q15 48 66 48zM488 875h-40l-23 -87l-102 -350h289l-102 350q-2 9 -7.5 27t-9 33t-5.5 27z" />
    <glyph glyph-name="B" unicode="B" horiz-adv-x="923" 
d="M472 1026q196 0 271.5 -55.5t75.5 -209.5q0 -110 -41 -166.5t-133 -65.5v-6q111 -9 158 -76t47 -194q0 -153 -75 -209t-258 -56q-258 0 -404 12v1014q119 12 359 12zM294 878v-286h184q94 0 129 30t35 116q0 83 -38 111.5t-141 28.5h-169zM294 459v-321l193 -1
q103 -2 141 29t38 121q0 100 -39.5 136t-145.5 36h-187z" />
    <glyph glyph-name="C" unicode="C" horiz-adv-x="850" 
d="M491 1032q169 0 291 -32l-18 -140q-130 10 -273 10q-126 0 -172.5 -77t-46.5 -286t46.5 -286t172.5 -77q187 0 295 15l17 -138q-125 -39 -312 -39q-228 0 -320.5 117.5t-92.5 407.5t92.5 407.5t320.5 117.5z" />
    <glyph glyph-name="D" unicode="D" horiz-adv-x="986" 
d="M492 1028q156 0 244.5 -48t129.5 -160.5t41 -312.5t-41 -312.5t-129.5 -160t-244.5 -47.5q-171 0 -379 13v1014q196 14 379 14zM492 875q-40 0 -104 -1t-91 -1v-729q171 -3 195 -3q126 0 173.5 78.5t47.5 287.5t-47.5 288.5t-173.5 79.5z" />
    <glyph glyph-name="E" unicode="E" horiz-adv-x="835" 
d="M322 1017q313 0 447 -12l-9 -141h-397q-40 0 -56.5 -19t-16.5 -66v-178h416v-141h-416v-226q0 -47 16.5 -66.5t56.5 -19.5h397l9 -139q-134 -12 -447 -12q-101 0 -159.5 52t-58.5 141v635q0 89 59 140.5t159 51.5z" />
    <glyph glyph-name="F" unicode="F" horiz-adv-x="803" 
d="M328 1017q303 0 432 -13l-10 -140h-368q-48 0 -67.5 -19t-19.5 -66v-195h400v-143h-400v-441h-185v817q0 95 59 147.5t159 52.5z" />
    <glyph glyph-name="G" unicode="G" horiz-adv-x="933" 
d="M523 1033q174 0 291 -33l-14 -137q-144 9 -268 9q-52 0 -86 -4.5t-66 -18.5t-50.5 -38.5t-32.5 -66t-19.5 -101t-5.5 -142.5q0 -204 40 -282.5t142 -78.5q101 0 213 70v375h180v-585h-137l-16 100q-128 -119 -297 -119q-168 0 -243 127.5t-75 403.5q0 204 44 316.5
t138 158.5t262 46z" />
    <glyph glyph-name="H" unicode="H" horiz-adv-x="997" 
d="M882 0h-184v465h-401v-465h-184v1014h184v-398h401v398h184v-1014z" />
    <glyph glyph-name="I" unicode="I" horiz-adv-x="410" 
d="M297 0h-184v1014h184v-1014z" />
    <glyph glyph-name="J" unicode="J" horiz-adv-x="520" 
d="M410 1014v-791q0 -115 -55 -177t-157 -62q-36 0 -85.5 7t-75.5 18l19 128h69q103 0 103 91v786h182z" />
    <glyph glyph-name="K" unicode="K" horiz-adv-x="900" 
d="M864 1014l-273 -408q-29 -43 -68 -77v-4q54 -44 80 -87l280 -438h-205l-291 457h-100q10 -49 10 -100v-357h-184v1014h184v-298q0 -62 -10 -118h100l277 416h200z" />
    <glyph glyph-name="L" unicode="L" horiz-adv-x="766" 
d="M294 1014v-777q0 -47 19 -65.5t68 -18.5h353l7 -143q-151 -13 -403 -13q-228 0 -228 210v807h184z" />
    <glyph glyph-name="M" unicode="M" horiz-adv-x="1314" 
d="M919 1014h189q70 0 72 -72l42 -942h-181l-34 866h-28l-175 -675q-16 -62 -76 -62h-141q-63 0 -78 62l-178 675h-25l-33 -866h-179l38 942q3 72 72 72h191q60 0 75 -61l144 -550q10 -39 31 -138h22q16 84 31 139l144 549q16 61 77 61z" />
    <glyph glyph-name="N" unicode="N" horiz-adv-x="1051" 
d="M938 1014v-946q0 -68 -68 -68h-145q-29 0 -46 13t-31 43l-285 622q-52 111 -60 151h-18q9 -57 9 -153v-676h-181v947q0 67 69 67h143q29 0 46 -13t30 -43l277 -604q46 -102 70 -160h18q-7 78 -7 165v655h179z" />
    <glyph glyph-name="O" unicode="O" horiz-adv-x="992" 
d="M495 1033q159 0 248 -48t130 -161t41 -317t-41 -317t-130 -161t-248 -48q-158 0 -246.5 48t-129.5 161.5t-41 316.5t41 316.5t129.5 161.5t246.5 48zM495 876q-128 0 -175.5 -79t-47.5 -290t47.5 -290t175.5 -79q129 0 177 78.5t48 290.5t-48 290.5t-177 78.5z" />
    <glyph glyph-name="P" unicode="P" horiz-adv-x="883" 
d="M481 1028q199 0 273.5 -68.5t74.5 -258.5q0 -97 -16.5 -159.5t-56.5 -100t-99.5 -52t-152.5 -14.5q-114 0 -207 12v-387h-184v1014q135 14 368 14zM297 876v-351h179q97 0 132.5 36.5t35.5 139.5q0 104 -35.5 139.5t-132.5 35.5h-179z" />
    <glyph glyph-name="Q" unicode="Q" horiz-adv-x="995" 
d="M497 1033q119 0 196.5 -25t128.5 -87t72.5 -161.5t21.5 -252.5t-21.5 -252.5t-72.5 -161.5t-128.5 -87t-196.5 -25q-158 0 -247 48t-130 161.5t-41 316.5t41 316.5t130 161.5t247 48zM497 876q-128 0 -176.5 -79t-48.5 -290t48.5 -290t176.5 -79q129 0 177 78.5t48 290.5
t-48 290.5t-177 78.5zM384 -163l45 107q184 -65 424 -97l-58 -176q-196 46 -411 166z" />
    <glyph glyph-name="R" unicode="R" horiz-adv-x="925" 
d="M482 1028q192 0 272.5 -64t80.5 -233q0 -118 -44 -181t-146 -75v-8q42 -9 79 -46t57 -103l91 -318h-196l-81 315q-23 91 -117 91l-183 1v-407h-182v1014q135 14 369 14zM295 876v-319h183q97 0 133.5 34.5t36.5 127.5t-36 125t-134 32h-183z" />
    <glyph glyph-name="S" unicode="S" horiz-adv-x="838" 
d="M419 1032q187 0 319 -34l-12 -131q-168 6 -301 6q-42 0 -65.5 -1.5t-46.5 -7.5t-33.5 -19t-17 -34t-6.5 -54q0 -64 24 -89.5t89 -45.5l195 -60q116 -36 162.5 -107t46.5 -189q0 -87 -19 -142t-64.5 -86.5t-110 -43.5t-166.5 -12q-167 0 -329 33l12 135q288 -6 321 -6
q102 0 136 23.5t34 100.5q0 64 -23 89t-85 44l-204 65q-110 34 -157 105.5t-47 188.5q0 86 19 140t65 83t106 39t158 10z" />
    <glyph glyph-name="T" unicode="T" horiz-adv-x="870" 
d="M839 857h-313v-857h-185v857h-310v157h808v-157z" />
    <glyph glyph-name="U" unicode="U" horiz-adv-x="986" 
d="M881 1014v-617q0 -228 -86 -322t-294 -94q-216 0 -305.5 94t-89.5 322v617h184v-617q0 -147 44.5 -203t159.5 -56q113 0 157 56.5t44 202.5v617h186z" />
    <glyph glyph-name="V" unicode="V" horiz-adv-x="914" 
d="M898 1014l-286 -963q-7 -23 -25.5 -37t-42.5 -14h-174q-24 0 -41.5 14t-24.5 37l-288 963h190l207 -761q6 -21 15 -60.5t12 -52.5h36q12 53 28 113l205 761h189z" />
    <glyph glyph-name="W" unicode="W" horiz-adv-x="1413" 
d="M1370 1014l-175 -963q-5 -23 -24 -37t-44 -14h-192q-26 0 -45 14.5t-23 38.5l-128 707q-8 46 -19 119h-29q-13 -85 -19 -119l-127 -707q-4 -24 -23.5 -38.5t-45.5 -14.5h-191q-26 0 -44.5 14.5t-22.5 36.5l-175 963h191l120 -739q9 -48 16 -138h31q19 112 24 138l125 681
q5 27 22.5 42.5t44.5 15.5h180q25 0 43 -16t23 -42l125 -683q14 -70 20 -136h33q2 18 7 64.5t9 70.5l122 742h191z" />
    <glyph glyph-name="X" unicode="X" horiz-adv-x="920" 
d="M625 522l270 -522h-195l-227 459h-28l-226 -459h-194l269 522l-250 492h193l207 -423h31l207 423h194z" />
    <glyph glyph-name="Y" unicode="Y" horiz-adv-x="866" 
d="M525 343v-343h-184v345l-334 669h194l186 -394q11 -25 41 -122h12q25 88 41 122l185 394h191z" />
    <glyph glyph-name="Z" unicode="Z" horiz-adv-x="844" 
d="M769 864l-500 -714h510v-150h-713v150l500 714h-491v150h694v-150z" />
    <glyph glyph-name="bracketleft" unicode="[" horiz-adv-x="498" 
d="M445 1016h-132q-10 0 -17.5 -7.5t-7.5 -19.5v-1092q0 -12 7.5 -19t17.5 -7h132v-114h-224q-99 0 -99 99v1174q0 44 28 71.5t71 27.5h224v-113z" />
    <glyph glyph-name="backslash" unicode="\" horiz-adv-x="786" 
d="M754 -101h-144l-578 1115h144z" />
    <glyph glyph-name="bracketright" unicode="]" horiz-adv-x="498" 
d="M53 1129h223q44 0 72 -27.5t28 -71.5v-1174q0 -43 -28 -71t-72 -28h-223v114h131q11 0 18 7t7 19v1092q0 12 -7 19.5t-18 7.5h-131v113z" />
    <glyph glyph-name="asciicircum" unicode="^" horiz-adv-x="657" 
d="M613 584l-71 -42l-207 249h-12l-208 -249l-71 42l221 322h129z" />
    <glyph glyph-name="underscore" unicode="_" horiz-adv-x="835" 
d="M742 -126h-649v126h649v-126z" />
    <glyph glyph-name="a" unicode="a" horiz-adv-x="820" 
d="M456 741q139 0 204.5 -56t65.5 -195v-490h-141l-19 110q-46 -52 -116.5 -89t-158.5 -37q-102 0 -165 55t-63 154v73q0 86 56 133.5t157 47.5h271v44q0 61 -27.5 82t-104.5 21q-114 0 -302 -15l-17 127q188 35 360 35zM547 325h-229q-77 0 -77 -81v-28q0 -46 22.5 -67
t71.5 -21q46 0 103 21.5t109 63.5v112z" />
    <glyph glyph-name="b" unicode="b" horiz-adv-x="854" 
d="M276 1029v-243q0 -103 -17 -167q116 122 264 122q137 0 200 -88t63 -288q0 -92 -15.5 -158.5t-52.5 -119t-104.5 -79t-165.5 -26.5q-84 0 -185 14.5t-166 40.5v992h179zM456 591q-44 0 -82.5 -19t-97.5 -62v-367q85 -21 168 -18q88 1 123.5 53t35.5 187q0 131 -29 178.5
t-118 47.5z" />
    <glyph glyph-name="c" unicode="c" horiz-adv-x="732" 
d="M420 741q153 0 252 -41l-21 -112q-72 3 -200 3q-112 0 -154.5 -48t-42.5 -181q0 -134 43 -183.5t154 -49.5q117 0 216 15l17 -118q-110 -44 -265 -44q-193 0 -272 85t-79 295q0 208 79.5 293.5t272.5 85.5z" />
    <glyph glyph-name="d" unicode="d" horiz-adv-x="857" 
d="M757 0h-141l-15 98q-124 -116 -279 -116q-133 0 -193 97t-60 286q0 141 32 224.5t91 117.5t153 34q140 0 240 -63q-7 55 -7 144v207h179v-1029zM398 595q-56 0 -85 -16.5t-44.5 -66.5t-15.5 -146q0 -137 30 -184.5t105 -47.5q51 0 87.5 15.5t102.5 59.5v357
q-118 29 -180 29z" />
    <glyph glyph-name="e" unicode="e" horiz-adv-x="806" 
d="M416 741q172 0 250 -62.5t78 -187.5q0 -206 -193 -206h-294q11 -94 53 -125.5t140 -31.5q117 0 259 18l16 -115q-102 -49 -297 -49q-196 0 -278 87t-82 293q0 210 80.5 294.5t267.5 84.5zM423 600q-94 0 -129.5 -39t-39.5 -151h247q65 0 65 84q0 58 -30.5 82t-112.5 24z
" />
    <glyph glyph-name="f" unicode="f" horiz-adv-x="581" 
d="M388 1057q141 0 219 -13l-15 -127h-141q-60 0 -84 -23t-24 -78v-96h210v-129h-210v-591h-180v591h-128v122l128 7v119q0 106 52.5 162t172.5 56z" />
    <glyph glyph-name="g" unicode="g" horiz-adv-x="835" 
d="M403 741q111 0 181 -21h227l-10 -86l-94 -11q19 -47 19 -114q0 -125 -72 -179t-253 -54q-80 0 -132 11q-10 -19 -10.5 -39.5t13 -37.5t40.5 -20l263 -37q106 -16 152 -65.5t46 -144.5q0 -133 -78.5 -182t-284.5 -49q-208 0 -286 48t-78 172q0 57 26 92t87 67
q-48 45 -40.5 116.5t59.5 105.5q-102 48 -102 194q0 128 72 181t255 53zM401 614q-92 0 -126.5 -22.5t-34.5 -82.5t35 -84t126 -24t126 24t35 84t-34.5 82.5t-126.5 22.5zM479 28l-206 25q-55 -50 -55 -102q0 -63 35.5 -80t155.5 -17q118 0 155 18t37 78q0 44 -22 56
t-100 22z" />
    <glyph glyph-name="h" unicode="h" horiz-adv-x="867" 
d="M281 1029v-265q0 -75 -12 -145q161 122 304 122q96 0 147.5 -51.5t51.5 -148.5v-541h-180v487q0 59 -16.5 80.5t-59.5 21.5q-51 0 -104.5 -21t-132.5 -67v-501h-179v1029h181z" />
    <glyph glyph-name="i" unicode="i" horiz-adv-x="390" 
d="M153 1033h82q52 0 52 -51v-81q0 -51 -52 -51h-82q-52 0 -52 51v81q0 51 52 51zM284 0h-178v720h178v-720z" />
    <glyph glyph-name="j" unicode="j" horiz-adv-x="392" 
d="M156 1035h82q52 0 52 -52v-79q0 -51 -52 -51h-82q-52 0 -52 51v79q0 52 52 52zM287 720v-707q0 -94 -44.5 -177t-120.5 -130l-100 78q45 54 65 107.5t20 121.5v707h180z" />
    <glyph glyph-name="k" unicode="k" horiz-adv-x="785" 
d="M281 1029v-438q0 -70 -11 -126h78l197 255h203l-201 -255q-23 -35 -60 -61v-3q19 -12 60 -69l225 -332h-203l-219 344h-80q9 -68 9 -110v-234h-179v1029h181z" />
    <glyph glyph-name="l" unicode="l" horiz-adv-x="462" 
d="M281 1029v-804q0 -84 85 -84h62l20 -132q-22 -11 -69.5 -18t-83.5 -7q-90 0 -142 51.5t-52 145.5v848h180z" />
    <glyph glyph-name="m" unicode="m" horiz-adv-x="1286" 
d="M995 741q96 0 146 -51.5t50 -148.5v-541h-175v487q0 56 -20 79t-70 23q-43 0 -80.5 -17.5t-113.5 -68.5v-503h-172v487q0 56 -21 79t-69 23q-42 0 -80.5 -17.5t-111.5 -67.5v-504h-178v720h145l11 -106q144 127 282 127q146 0 184 -121q136 121 273 121z" />
    <glyph glyph-name="n" unicode="n" horiz-adv-x="867" 
d="M573 741q96 0 147.5 -51.5t51.5 -148.5v-541h-180v487q0 59 -16.5 80.5t-59.5 21.5q-50 0 -102 -20.5t-135 -67.5v-501h-179v720h150l12 -106q168 127 311 127z" />
    <glyph glyph-name="o" unicode="o" horiz-adv-x="847" 
d="M425 741q194 0 274 -86.5t80 -294.5q0 -207 -80 -293t-274 -86q-195 0 -276 86t-81 293q0 208 81 294.5t276 86.5zM425 598q-99 0 -135 -49t-36 -189q0 -138 36 -187.5t135 -49.5q97 0 133 49.5t36 187.5q0 139 -35.5 188.5t-133.5 49.5z" />
    <glyph glyph-name="p" unicode="p" horiz-adv-x="869" 
d="M554 739q246 0 246 -385q0 -205 -67 -288.5t-210 -83.5q-145 0 -250 71q5 -50 5 -150v-190h-178v1007h147l12 -107q50 56 132.5 91t162.5 35zM488 592q-48 0 -94 -21t-116 -68v-344q11 -2 39.5 -9t40.5 -9.5t34 -6t40 -5t38 -1.5q56 0 86 17t45 66.5t15 144.5
q0 134 -28.5 185t-99.5 51z" />
    <glyph glyph-name="q" unicode="q" horiz-adv-x="853" 
d="M410 741q79 0 180 -14.5t166 -40.5v-973h-180v222q0 93 15 156q-129 -110 -271 -110q-128 0 -190 91.5t-62 284.5q0 95 15 161.5t52.5 119t105.5 78t169 25.5zM407 598q-89 -3 -122.5 -54t-33.5 -196q0 -116 27.5 -165t105.5 -49q50 0 92.5 17.5t101.5 54.5v373
q-84 23 -171 19z" />
    <glyph glyph-name="r" unicode="r" horiz-adv-x="607" 
d="M569 573h-52q-48 0 -100 -15t-138 -49v-509h-179v720h140l16 -106q154 127 297 127h35z" />
    <glyph glyph-name="s" unicode="s" horiz-adv-x="760" 
d="M357 741q161 0 319 -27l-13 -123q-182 6 -275 6q-97 0 -125 -9.5t-28 -52.5q0 -9 1 -16.5t4 -14t5 -11t9 -8.5t10.5 -6.5t14 -6t15.5 -4.5t19 -5l21 -6l194 -53q93 -25 132.5 -70t39.5 -137q0 -127 -72.5 -170t-249.5 -43q-165 0 -302 23l12 125q87 -6 246 -6
q116 0 155 13.5t39 56.5q0 9 -1 16t-4.5 13t-6.5 10.5t-10 8.5t-11.5 6.5t-15 6t-16 5t-20 5.5t-21.5 6l-190 52q-94 26 -131.5 75t-37.5 137q0 116 66.5 160.5t227.5 43.5z" />
    <glyph glyph-name="t" unicode="t" horiz-adv-x="588" 
d="M340 720h211v-129h-211v-366q0 -47 19 -65.5t67 -18.5h99l19 -132q-78 -25 -185 -25q-95 0 -145.5 54.5t-50.5 155.5v397h-131v122l130 7v208h178v-208z" />
    <glyph glyph-name="u" unicode="u" horiz-adv-x="851" 
d="M751 0h-141l-13 97q-153 -116 -302 -116q-98 0 -148.5 50.5t-50.5 149.5v539h179v-486q0 -58 18.5 -80t69.5 -22q44 0 91.5 19t118.5 61v508h178v-720z" />
    <glyph glyph-name="v" unicode="v" horiz-adv-x="803" 
d="M786 720l-247 -677q-16 -43 -60 -43h-156q-45 0 -58 43l-247 677h188l150 -475q21 -65 35 -124h19l38 124l149 475h189z" />
    <glyph glyph-name="w" unicode="w" horiz-adv-x="1226" 
d="M1198 720l-190 -671q-13 -49 -63 -49h-151q-26 0 -44 15.5t-22 40.5l-87 442q-2 13 -8 54t-11 64h-18l-20 -118l-84 -442q-4 -25 -23 -40.5t-45 -15.5h-148q-25 0 -43 13t-22 36l-191 671h182l119 -495q15 -63 19 -115h20q15 84 22 115l88 442q10 53 63 53h145
q55 0 65 -54l85 -441q11 -53 22 -115h20q9 74 19 115l119 495h182z" />
    <glyph glyph-name="x" unicode="x" horiz-adv-x="803" 
d="M553 370l228 -370h-189l-180 309h-21l-181 -309h-188l228 370l-210 350h186l164 -282h23l163 282h187z" />
    <glyph glyph-name="y" unicode="y" horiz-adv-x="803" 
d="M784 720l-268 -742q-20 -56 -48.5 -102.5t-71 -89.5t-105 -65.5t-138.5 -18.5l-15 113q84 23 133 64t79 105l7 16h-35q-49 0 -60 44l-244 676h189l158 -495q13 -42 23 -96h21q2 5 13 42t16 54l154 495h192z" />
    <glyph glyph-name="z" unicode="z" horiz-adv-x="761" 
d="M689 584l-423 -447h429v-137h-629v137l424 447h-418v136h617v-136z" />
    <glyph glyph-name="braceleft" unicode="{" horiz-adv-x="487" 
d="M429 1129v-110q-70 0 -95 -22.5t-25 -83.5v-240q0 -93 -30 -134.5t-113 -56.5q86 -25 117.5 -65.5t31.5 -119.5v-325q0 -61 25 -82.5t95 -21.5v-111q-291 -31 -291 200v363q0 27 -3.5 42.5t-18.5 27t-24 16t-41 16.5v120l42 14t22 15t15 29t2 50v279q0 231 291 200z" />
    <glyph glyph-name="bar" unicode="|" horiz-adv-x="373" 
d="M250 -248h-127v1396h127v-1396z" />
    <glyph glyph-name="braceright" unicode="}" horiz-adv-x="488" 
d="M59 1019v110q291 31 291 -200v-279q0 -61 13 -76t68 -32v-120q-32 -12 -41 -16.5t-24 -16t-18.5 -27t-3.5 -42.5v-363q0 -231 -291 -200v111q70 0 95 21.5t25 82.5v325q0 79 31.5 119.5t117.5 65.5q-83 15 -113 56.5t-30 134.5v240q0 61 -25 83.5t-95 22.5z" />
    <glyph glyph-name="asciitilde" unicode="~" horiz-adv-x="763" 
d="M218 525q50 -3 160 -38.5t141 -39.5q35 -4 46 11.5t11 58.5h87q14 -97 -19 -148t-97 -49q-55 3 -164 39t-139 39q-34 4 -45 -12t-11 -61h-87q-14 100 20.5 151t96.5 49z" />
    <glyph glyph-name="uni00A0" unicode="&#xa0;" horiz-adv-x="218" 
 />
    <glyph glyph-name="exclamdown" unicode="&#xa1;" horiz-adv-x="398" 
d="M179 736h43q35 0 49 -14t14 -49v-76q0 -35 -14 -48.5t-49 -13.5h-43q-36 0 -50 13.5t-14 48.5v76q0 35 14 49t50 14zM288 134v-413h-178v413l19 285h140z" />
    <glyph glyph-name="cent" unicode="&#xa2;" horiz-adv-x="754" 
d="M532 1014l-12 -128q88 -8 152 -35l-21 -115q-25 2 -147 8l-44 -465q114 0 206 14l18 -115q-97 -39 -240 -44l-13 -134h-80l14 135q-163 10 -231 96.5t-68 281.5q0 211 82 302t272 77l20 -1l13 123h79zM382 284l41 460q-102 -5 -141 -54.5t-39 -176.5q0 -115 31 -167
t108 -62z" />
    <glyph glyph-name="sterling" unicode="&#xa3;" horiz-adv-x="848" 
d="M463 1032q131 0 285 -15l-10 -144q-115 5 -260 5q-75 0 -103 -25.5t-22 -96.5l12 -172h282l-6 -99h-271l6 -81q8 -96 -17 -151t-87 -107q35 8 104 8h405v-154h-700v154q71 32 94.5 94t18.5 156l-4 81h-114l-1 99h109l-12 177q-4 67 6.5 115.5t32.5 78.5t61 47.5
t83.5 23.5t107.5 6z" />
    <glyph glyph-name="currency" unicode="&#xa4;" horiz-adv-x="866" 
d="M781 786l-106 -104q50 -73 50 -166q0 -92 -52 -166l108 -105l-77 -76l-106 106q-76 -52 -166 -52t-166 52l-103 -104l-81 80l105 105q-49 71 -49 160q0 94 52 168l-103 102l76 77l102 -104q77 51 167 51q95 0 168 -53l106 106zM432 707q-78 0 -133.5 -55.5t-55.5 -134.5
t55.5 -134t133.5 -55q77 0 132 55.5t55 133.5q0 79 -55 134.5t-132 55.5z" />
    <glyph glyph-name="yen" unicode="&#xa5;" horiz-adv-x="933" 
d="M623 490h184v-100h-235l-12 -24v-47h247v-98h-247v-221h-184v221h-241l-1 98h242v46l-13 25h-228l-3 100h180l-271 524h191l187 -380q11 -22 26.5 -70t16.5 -52h13q29 96 42 123l186 379h189z" />
    <glyph glyph-name="brokenbar" unicode="&#xa6;" horiz-adv-x="376" 
d="M251 560h-126v588h126v-588zM251 -248h-126v588h126v-588z" />
    <glyph glyph-name="section" unicode="&#xa7;" horiz-adv-x="806" 
d="M391 1033q156 0 323 -17l-11 -135q-67 4 -262 7q-48 0 -72 -1.5t-50 -7.5t-36.5 -19.5t-12.5 -36.5q-1 -40 20.5 -64t66.5 -49l215 -118q109 -59 136.5 -146t-8.5 -209h-127q6 90 -15.5 137t-91.5 88l-238 136q-35 20 -57.5 37t-45 44t-33.5 64t-11 86q0 120 74 163
t236 41zM107 547h127q-7 -93 14 -139t92 -86l238 -135q73 -42 110.5 -91.5t37.5 -142.5q0 -64 -20.5 -106t-63.5 -63.5t-95 -29t-130 -7.5q-165 0 -326 18l13 135q87 -6 264 -9q90 0 127.5 12.5t39.5 56.5q2 40 -19.5 64t-64.5 48l-214 119q-109 61 -137 146.5t7 209.5z" />
    <glyph glyph-name="copyright" unicode="&#xa9;" horiz-adv-x="1208" 
d="M604 1033q224 0 376.5 -149.5t152.5 -376.5t-152.5 -376.5t-376.5 -149.5q-146 0 -267.5 67t-192 188t-70.5 271t70.5 271t192 188t267.5 67zM604 945q-182 0 -310 -125.5t-128 -312.5t128 -312.5t310 -125.5q183 0 310 125t127 313t-127 313t-310 125zM612 823
q114 0 198 -20l-12 -100q-84 4 -188 4q-86 0 -117 -41.5t-31 -155.5q0 -115 31 -156t117 -41q114 0 204 6l11 -98q-86 -24 -213 -24q-158 0 -222.5 70t-64.5 243q0 172 64.5 242.5t222.5 70.5z" />
    <glyph glyph-name="ordfeminine" unicode="&#xaa;" horiz-adv-x="645" 
d="M369 900q92 0 138 -40t46 -134v-323h-106l-15 84q-81 -96 -200 -96q-68 0 -110.5 34.5t-42.5 97.5v55q0 56 39 88t107 32h195v30q0 32 -18 48t-62 16q-64 0 -224 -8l-12 92q142 24 265 24zM420 629l-150 -13q-35 -3 -49 -15t-14 -35v-15q0 -30 17 -41.5t52 -11.5
q70 0 144 58v73z" />
    <glyph glyph-name="guillemotleft" unicode="&#xab;" horiz-adv-x="741" 
d="M385 619l-167 -250l169 -256l-94 -60l-236 297v38l234 291zM673 619l-167 -250l169 -256l-94 -60l-236 297v38l234 291z" />
    <glyph glyph-name="logicalnot" unicode="&#xac;" horiz-adv-x="863" 
d="M759 197h-134v178h-529v131h663v-309z" />
    <glyph glyph-name="softhyphen" unicode="&#xad;" horiz-adv-x="629" 
d="M535 310h-441v127h441v-127z" />
    <glyph glyph-name="registered" unicode="&#xae;" horiz-adv-x="788" 
d="M395 1032q136 0 231.5 -95.5t95.5 -230.5q0 -137 -95.5 -232.5t-231.5 -95.5q-137 0 -232 95.5t-95 232.5q0 135 95.5 230.5t231.5 95.5zM395 978q-112 0 -191 -79.5t-79 -192.5t79 -192.5t191 -79.5q110 0 189.5 80t79.5 192q0 113 -79 192.5t-190 79.5zM406 892
q82 0 116.5 -22.5t34.5 -81.5q0 -39 -18.5 -61t-63.5 -27v-3q40 -5 59 -56l38 -112h-82l-34 109q-15 34 -52 34h-78v-143h-78v359q50 4 158 4zM326 833v-107h78q43 0 58.5 11.5t15.5 43.5t-15 42t-59 10h-78z" />
    <glyph glyph-name="degree" unicode="&#xb0;" horiz-adv-x="517" 
d="M259 1033q80 0 137.5 -55t57.5 -134q0 -80 -57.5 -137t-137.5 -57q-81 0 -138.5 57t-57.5 137q0 78 57 133.5t139 55.5zM259 935q-40 0 -66.5 -25.5t-26.5 -65.5q0 -41 26.5 -67.5t66.5 -26.5q38 0 64.5 26.5t26.5 67.5q0 40 -26 65.5t-65 25.5z" />
    <glyph glyph-name="plusminus" unicode="&#xb1;" horiz-adv-x="854" 
d="M494 604h263v-132h-265v-184h-132v184h-263v132h263v185h134v-185zM757 81h-660v132h660v-132z" />
    <glyph glyph-name="twosuperior" unicode="&#xb2;" horiz-adv-x="637" 
d="M300 1148q125 0 179.5 -30.5t54.5 -119.5q0 -85 -112 -194l-168 -159q28 5 94 5h208v-121h-477v75q0 36 22 58l165 155q111 103 118 166q2 30 -21 39.5t-75 9.5q-75 0 -197 -7l-6 102q112 21 215 21z" />
    <glyph glyph-name="threesuperior" unicode="&#xb3;" horiz-adv-x="609" 
d="M297 1150q125 0 173.5 -30.5t48.5 -111.5q0 -68 -24.5 -106.5t-88.5 -47.5v-3q71 -9 99.5 -46t29.5 -107q2 -97 -50.5 -139t-180.5 -42q-92 0 -228 17l6 101q116 -6 187 -6q73 0 99.5 19t26.5 69q0 38 -22.5 58t-85.5 20h-125v99h125q60 0 79 21t19 58q0 39 -22.5 52
t-87.5 13q-34 0 -181 -3l-6 98q110 17 209 17z" />
    <glyph glyph-name="paragraph" unicode="&#xb6;" horiz-adv-x="876" 
d="M507 1032q142 0 238 -25v-1007h-128v917q-16 1 -52.5 2.5t-54.5 2.5v-1231h-125v604q-180 17 -258 102t-78 265q0 202 105 286t353 84z" />
    <glyph glyph-name="periodcentered" unicode="&#xb7;" horiz-adv-x="366" 
d="M156 481h54q35 0 49 -14t14 -51v-73q0 -37 -14 -51t-49 -14h-54q-35 0 -49 14t-14 51v73q0 37 14 51t49 14z" />
    <glyph glyph-name="onesuperior" unicode="&#xb9;" horiz-adv-x="441" 
d="M343 529h-139v424q0 44 6 66l-156 -36l-16 93l166 62h139v-609z" />
    <glyph glyph-name="ordmasculine" unicode="&#xba;" horiz-adv-x="648" 
d="M325 900q138 0 194.5 -57.5t56.5 -198.5q0 -139 -56.5 -196t-194.5 -57q-140 0 -195.5 57t-55.5 196q0 141 55.5 198.5t195.5 57.5zM325 795q-67 0 -91 -31t-24 -120q0 -88 24 -119t91 -31q66 0 89.5 31t23.5 119q0 89 -23.5 120t-89.5 31z" />
    <glyph glyph-name="guillemotright" unicode="&#xbb;" horiz-adv-x="741" 
d="M395 388v-38l-235 -297l-94 60l169 256l-167 250l94 60zM684 388v-38l-236 -297l-94 60l169 256l-167 250l94 60z" />
    <glyph glyph-name="onequarter" unicode="&#xbc;" horiz-adv-x="1295" 
d="M347 406h-137v423q0 33 6 66l-156 -35l-16 93l166 61h137v-608zM334 0h-121l629 1014h121zM1013 609l-159 -349q-5 -11 1.5 -18.5t22.5 -7.5h164v160l22 97h106v-257h72v-91l-72 -11v-132h-128v131h-267q-42 0 -63.5 28.5t-0.5 74.5l172 375h130z" />
    <glyph glyph-name="onehalf" unicode="&#xbd;" horiz-adv-x="1323" 
d="M347 406h-137v423q0 33 6 66l-156 -35l-16 93l166 61h137v-608zM322 0h-121l631 1014h119zM1001 619q126 0 180.5 -30.5t54.5 -119.5t-111 -194l-168 -159q28 5 94 5h206v-121h-475v75q0 37 21 57l164 156q114 106 119 166q2 30 -20.5 39.5t-74.5 9.5q-81 0 -197 -8
l-6 103q110 21 213 21z" />
    <glyph glyph-name="threequarters" unicode="&#xbe;" horiz-adv-x="1426" 
d="M293 1022q125 0 172.5 -30.5t47.5 -109.5q0 -69 -24 -107t-88 -47v-3q72 -10 100 -46t30 -107q1 -97 -52 -139t-179 -42q-100 0 -228 16l6 102q91 -6 185 -6q73 0 100 18.5t27 67.5q0 39 -22.5 59t-85.5 21l-125 3v91l125 4q61 2 79 22t18 56q0 40 -22 53t-88 13
q-115 0 -179 -4l-6 100q108 15 209 15zM475 0h-119l629 1014h120zM1145 609l-159 -349q-5 -11 1.5 -18.5t20.5 -7.5h167v160l22 97h105v-257h71v-91l-71 -11v-132h-127v131h-268q-42 0 -63 28.5t0 74.5l172 375h129z" />
    <glyph glyph-name="questiondown" unicode="&#xbf;" horiz-adv-x="739" 
d="M368 742h41q36 0 50 -14t14 -49v-76q0 -35 -14 -49.5t-50 -14.5h-41q-36 0 -50.5 14.5t-14.5 49.5v76q0 35 14 49t51 14zM313 425h147q2 -62 -13 -117t-39 -92t-53.5 -73.5t-55 -63t-43 -59.5t-19.5 -64q-4 -58 33.5 -85t124.5 -27q93 0 291 10l8 -124q-6 -1 -30 -6
t-29.5 -6t-26 -4.5t-28 -4.5t-27 -3.5t-32 -3.5t-33 -2.5t-39.5 -2t-43.5 -1t-51.5 -0.5q-154 0 -229.5 56t-75.5 172q0 51 18.5 95.5t46.5 75.5t61.5 67.5t62.5 70t50.5 84t24.5 108.5z" />
    <glyph glyph-name="multiply" unicode="&#xd7;" horiz-adv-x="714" 
d="M667 241l-85 -103l-529 475l87 103z" />
    <glyph glyph-name="divide" unicode="&#xf7;" horiz-adv-x="823" 
d="M388 792h44q37 0 51 -14t14 -50v-61q0 -36 -14 -49.5t-51 -13.5h-44q-36 0 -50.5 13.5t-14.5 49.5v61q0 36 14.5 50t50.5 14zM742 368h-661v129h661v-129zM388 259h44q37 0 51 -14t14 -51v-59q0 -36 -14 -50t-51 -14h-44q-36 0 -50.5 14t-14.5 50v59q0 37 14.5 51
t50.5 14z" />
    <glyph glyph-name="uni060C" unicode="&#x60c;" horiz-adv-x="350" 
d="M150 407l81 -22q-19 -91 -19 -184q50 0 50 -56v-82q0 -34 -15.5 -48.5t-50.5 -14.5h-49q-35 0 -48.5 14t-13.5 49v94q0 135 65 250z" />
    <glyph glyph-name="uni061B" unicode="&#x61b;" horiz-adv-x="370" 
d="M168 862l79 -22q-18 -84 -19 -184q50 0 50 -56v-82q0 -35 -15 -49t-51 -14h-47q-35 0 -49 14t-14 49v94q0 133 66 250zM160 202h55q35 0 49 -14t14 -49v-75q0 -35 -14 -49.5t-49 -14.5h-55q-35 0 -49 14.5t-14 49.5v75q0 35 14 49t49 14z" />
    <glyph glyph-name="uni061F" unicode="&#x61f;" horiz-adv-x="747" 
d="M355 1047q45 0 82.5 -1.5t62 -3t55 -5.5t44 -6.5t48 -8.5t48.5 -9l-7 -125q-167 10 -293 10q-86 0 -123.5 -27t-33.5 -86q2 -36 26.5 -74t57.5 -74t65.5 -78.5t54 -105t19.5 -135.5h-148q-4 68 -33 125.5t-66.5 97t-75 78.5t-63 89.5t-25.5 110.5q0 116 75.5 172
t229.5 56zM366 201h42q37 0 51 -14t14 -49v-75q0 -35 -14 -49t-51 -14h-42q-37 0 -51 14t-14 49v75q0 35 14 49t51 14z" />
    <glyph glyph-name="uni0621" unicode="&#x621;" horiz-adv-x="538" 
d="M272 454q82 19 167 -18v-115q-8 0 -15 0.5t-10 0.5l-4 1q-72 4 -88 4q-65 -7 -77 -77q-4 -27 -1 -46q6 -57 66 -57h188v-147h-458v147h77l-8 37q-52 217 163 270z" />
    <glyph glyph-name="uni0622" unicode="&#x622;" horiz-adv-x="259" 
d="M98 1226h4q14 -36 30 -48q15 -12 41 -12h66v-60h-49q-29 0 -41 1t-31.5 12t-35.5 35l-62 -53v69zM219 0h-179v1014h179v-1014z" />
    <glyph glyph-name="uni0623" unicode="&#x623;" horiz-adv-x="259" 
d="M131 1303q35 9 73 -8v-50l-13 1q-23 2 -38 2q-30 -3 -34 -33q-2 -11 0 -20q3 -26 29 -26h62q7 0 19 -1v-62h-199v64h17l16 -1l-3 17q-16 96 71 117zM219 1014v-1014h-179v1014h179z" />
    <glyph glyph-name="uni0624" unicode="&#x624;" horiz-adv-x="708" 
d="M417 966q35 9 72 -7v-50l-12 1q-34 3 -38 1q-29 -3 -34 -33l-1 -20q3 -26 29 -26l82 -1v-62h-199v64h33l-3 16q-23 95 71 117zM668 649v-729q0 -249 -219 -326q-49 -17 -96 -19q-21 -1 -169 7q-4 0 -31 7v132l72 -6q69 -5 124 10q139 38 140 181l1 94h-206
q-244 61 -244 314q0 141 92 239q92 96 222 96h314zM422 497v-1h-68q-158 0 -158 -173q0 -88 39.5 -132.5t118.5 -43.5l158 1v185l-1 164h-89z" />
    <glyph glyph-name="uni0625" unicode="&#x625;" horiz-adv-x="259" 
d="M219 0h-179v1014h179v-1014zM131 -93q35 9 72 -7v-50l-12 1q-34 3 -38 1q-29 -3 -34 -33l-1 -20q3 -26 29 -26l82 -1v-62h-199v64h33l-3 16q-23 95 71 117z" />
    <glyph glyph-name="uni0626" unicode="&#x626;" horiz-adv-x="1205" 
d="M131 880q35 9 73 -8v-50l-13 1q-23 2 -38 2q-30 -3 -34 -33q-2 -11 0 -20q3 -26 29 -26h62q7 0 19 -1v-62h-199v64h17l16 -1l-3 17q-16 96 71 117zM1165 364h-182v284h-48q-56 0 -87 -9q-42 -14 -49 -54q-6 -31 -6 -63v-525h-372q-97 0 -173 27q-187 66 -208 255v297h174
v-206q0 -33 9 -69q32 -119 162 -149q30 -7 38 -7h191q1 376 0 425q-3 184 185 220q42 7 69 7h297v-433z" />
    <glyph glyph-name="uni0627" unicode="&#x627;" horiz-adv-x="259" 
d="M219 0h-179v1014h179v-1014z" />
    <glyph glyph-name="uni0628" unicode="&#x628;" horiz-adv-x="1026" 
d="M986 0h-566q-93 0 -172 28q-178 64 -208 251v267h177v-173q0 -43 10 -76q31 -109 150 -139q42 -11 73 -11h359v494h177v-641zM549 -129q97 1 98 -96t-96 -97q-94 0 -94 96q1 96 92 97z" />
    <glyph glyph-name="uni0629" unicode="&#x629;" horiz-adv-x="708" 
d="M273 977q97 1 98 -96t-96 -97q-94 0 -94 96q1 96 92 97zM521 977q97 1 98 -96t-96 -97q-94 0 -94 96q1 96 92 97zM668 647v-647h-314q-313 0 -314 319q-1 137 93 235q93 96 221 95zM420 497l-66 -1q-158 -3 -158 -173v-8q0 -168 156 -168h160l-1 350h-91z" />
    <glyph glyph-name="uni062A" unicode="&#x62a;" horiz-adv-x="1026" 
d="M386 897q97 1 98 -96t-96 -97q-94 0 -94 96q1 96 92 97zM634 897q97 1 98 -96t-96 -97q-94 0 -94 96q1 96 92 97zM986 0h-566q-93 0 -172 28q-178 64 -208 251v267h177v-173q0 -43 10 -76q31 -109 150 -139q42 -11 73 -11h359v494h177v-641z" />
    <glyph glyph-name="uni062B" unicode="&#x62b;" horiz-adv-x="1026" 
d="M513 1127q97 1 98 -96t-96 -97q-94 0 -94 96q1 96 92 97zM386 897q97 1 98 -96t-96 -97q-94 0 -94 96q1 96 92 97zM634 897q97 1 98 -96t-96 -97q-94 0 -94 96q1 96 92 97zM986 0h-566q-93 0 -172 28q-178 64 -208 251v267h177v-173q0 -43 10 -76q31 -109 150 -139
q42 -11 73 -11h359v494h177v-641z" />
    <glyph glyph-name="uni062C" unicode="&#x62c;" horiz-adv-x="824" 
d="M239 647h108q107 0 159 -7q187 -28 251 -205q27 -77 27 -256v-179h-591q2 -90 4 -101q35 -137 140 -167q32 -10 75 -11q14 -1 60.5 -1h78.5q10 0 21.5 -0.5t12.5 -0.5v-163l-108 1q-129 1 -159 7q-187 28 -251 205q-27 77 -27 173v205h594q0 146 -7 174q-30 121 -140 151
q-28 8 -75 10q-13 0 -32.5 0.5t-50.5 1t-56 0.5q-29 0 -34 1v162zM433 -38q96 1 97 -96q2 -98 -96 -98q-94 0 -94 96t93 98z" />
    <glyph glyph-name="uni062D" unicode="&#x62d;" horiz-adv-x="824" 
d="M239 647h108q107 0 159 -7q187 -28 251 -205q27 -77 27 -256v-179h-591q2 -90 4 -101q35 -137 140 -167q32 -10 75 -11q14 -1 60.5 -1h78.5q10 0 21.5 -0.5t12.5 -0.5v-163l-108 1q-129 1 -159 7q-187 28 -251 205q-27 77 -27 173v205h594q0 146 -7 174q-30 121 -140 151
q-28 8 -75 10q-13 0 -32.5 0.5t-50.5 1t-56 0.5q-29 0 -34 1v162z" />
    <glyph glyph-name="uni062E" unicode="&#x62e;" horiz-adv-x="824" 
d="M392 977q97 1 98 -96t-96 -97q-94 0 -94 96q1 96 92 97zM239 647h108q107 0 159 -7q187 -28 251 -205q27 -77 27 -256v-179h-591q2 -90 4 -101q35 -137 140 -167q32 -10 75 -11q14 -1 60.5 -1h78.5q10 0 21.5 -0.5t12.5 -0.5v-163l-108 1q-129 1 -159 7q-187 28 -251 205
q-27 77 -27 173v205h594q0 146 -7 174q-30 121 -140 151q-28 8 -75 10q-13 0 -32.5 0.5t-50.5 1t-56 0.5q-29 0 -34 1v162z" />
    <glyph glyph-name="uni062F" unicode="&#x62f;" horiz-adv-x="637" 
d="M403 644q130 -12 175 -146q19 -59 19 -132v-366h-557v147h375v250q0 50 -25.5 77t-74.5 27h-132v143q203 2 220 0z" />
    <glyph glyph-name="uni0630" unicode="&#x630;" horiz-adv-x="637" 
d="M327 977q97 1 98 -96t-96 -97q-94 0 -94 96q1 96 92 97zM403 644q130 -12 175 -146q19 -59 19 -132v-366h-557v147h375v250q0 50 -25.5 77t-74.5 27h-132v143q203 2 220 0z" />
    <glyph glyph-name="uni0631" unicode="&#x631;" horiz-adv-x="449" 
d="M409 644v-741q0 -248 -219 -325q-49 -17 -96 -19l-89 128q79 23 152 80t73 122v755h179z" />
    <glyph glyph-name="uni0632" unicode="&#x632;" horiz-adv-x="449" 
d="M327 977q97 1 98 -96t-96 -97q-94 0 -94 96q1 96 92 97zM409 644v-741q0 -248 -219 -325q-49 -17 -96 -19l-89 128q79 23 152 80t73 122v755h179z" />
    <glyph glyph-name="uni0633" unicode="&#x633;" horiz-adv-x="1558" 
d="M1518 644l-1 -404q0 -42 -12 -82q-36 -124 -170 -153q-29 -7 -80 -7h-470v-126q0 -109 -58.5 -184t-165.5 -113q-39 -14 -97 -19q-39 -2 -109 1q-47 2 -96 19q-219 76 -219 325v478h178l1 -492q0 -141 140 -180q53 -13 102 0q130 36 139 180q1 5 1 19v687h181v-446h176
q1 69 1 113v333h182v-446q92 -4 132 2q46 7 57 53q6 24 6 50l1 392h181z" />
    <glyph glyph-name="uni0634" unicode="&#x634;" horiz-adv-x="1558" 
d="M1059 1207q97 1 98 -96t-96 -97q-94 0 -94 96q1 96 92 97zM932 977q97 1 98 -96t-96 -97q-94 0 -94 96q1 96 92 97zM1180 977q97 1 98 -96t-96 -97q-94 0 -94 96q1 96 92 97zM1518 644l-1 -404q0 -42 -12 -82q-36 -124 -170 -153q-29 -7 -80 -7h-470v-126
q0 -109 -58.5 -184t-165.5 -113q-39 -14 -97 -19q-39 -2 -109 1q-47 2 -96 19q-219 76 -219 325v478h178l1 -492q0 -141 140 -180q53 -13 102 0q130 36 139 180q1 5 1 19v687h181v-446h176q1 69 1 113v333h182v-446q92 -4 132 2q46 7 57 53q6 24 6 50l1 392h181z" />
    <glyph glyph-name="uni0635" unicode="&#x635;" horiz-adv-x="1957" 
d="M1331 646h149q99 0 159 -8q187 -30 251 -205q27 -77 27 -256v-177h-1132v-128q0 -109 -58.5 -184t-165.5 -113q-45 -15 -97 -19q-33 -3 -109 0q-47 2 -96 19q-219 77 -219 326v441l3 36h175v-451q0 -34 1 -40q9 -146 140 -181q51 -14 102 0q139 38 139 181l1 602h181
v-342h112v30q0 179 27 256q64 175 251 205q60 8 159 8zM1405 482q-81 0 -139 -2q-48 -2 -76 -10q-109 -31 -139 -150q-7 -30 -9 -173h727q-2 143 -9 173q-30 119 -139 150q-30 8 -76 10q-58 2 -140 2z" />
    <glyph glyph-name="uni0636" unicode="&#x636;" horiz-adv-x="1957" 
d="M1418 977q97 1 98 -96t-96 -97q-94 0 -94 96q1 96 92 97zM1331 646h149q99 0 159 -8q187 -30 251 -205q27 -77 27 -256v-177h-1132v-128q0 -109 -58.5 -184t-165.5 -113q-45 -15 -97 -19q-33 -3 -109 0q-47 2 -96 19q-219 77 -219 326v441l3 36h175v-451q0 -34 1 -40
q9 -146 140 -181q51 -14 102 0q139 38 139 181l1 602h181v-342h112v30q0 179 27 256q64 175 251 205q60 8 159 8zM1405 482q-81 0 -139 -2q-48 -2 -76 -10q-109 -31 -139 -150q-7 -30 -9 -173h727q-2 143 -9 173q-30 119 -139 150q-30 8 -76 10q-58 2 -140 2z" />
    <glyph glyph-name="uni0637" unicode="&#x637;" horiz-adv-x="1266" 
d="M344 1015v-428q56 39 136 51q64 8 159 8h150q116 0 159 -8q186 -28 250 -205q28 -79 28 -256v-177h-1186v147h123v868h181zM714 482q-82 0 -140 -2q-47 -2 -75 -10q-110 -32 -140 -150q-6 -26 -8 -173h726q-2 147 -8 173q-30 118 -140 150q-28 8 -75 10q-58 2 -140 2z
" />
    <glyph glyph-name="uni0638" unicode="&#x638;" horiz-adv-x="1266" 
d="M344 1015v-428q56 39 136 51q64 8 159 8h150q116 0 159 -8q186 -28 250 -205q28 -79 28 -256v-177h-1186v147h123v868h181zM711 977q97 1 98 -96t-96 -97q-94 0 -94 96q1 96 92 97zM714 482q-82 0 -140 -2q-47 -2 -75 -10q-110 -32 -140 -150q-6 -26 -8 -173h726
q-2 147 -8 173q-30 118 -140 150q-28 8 -75 10q-58 2 -140 2z" />
    <glyph glyph-name="uni0639" unicode="&#x639;" horiz-adv-x="857" 
d="M717 646v-150h-148l-66 -1q-158 -3 -158 -173v-8q0 -167 156 -167h316v-147h-409l-66 -1q-135 -2 -147 -145q5 -108 147 -138q46 -10 99 -10h176v-147h-209l-64 2q-48 2 -97 19q-209 77 -207 272q2 115 81 205q50 55 127 80l-12 10q-47 77 -47 171q0 139 93 235
q91 94 221 94z" />
    <glyph glyph-name="uni063A" unicode="&#x63a;" horiz-adv-x="857" 
d="M502 977q97 1 98 -96t-96 -97q-94 0 -94 96q1 96 92 97zM717 646v-150h-148l-66 -1q-158 -3 -158 -173v-8q0 -167 156 -167h316v-147h-409l-66 -1q-135 -2 -147 -145q5 -108 147 -138q46 -10 99 -10h176v-147h-209l-64 2q-48 2 -97 19q-209 77 -207 272q2 115 81 205
q50 55 127 80l-12 10q-47 77 -47 171q0 139 93 235q91 94 221 94z" />
    <glyph glyph-name="uni0640" unicode="&#x640;" horiz-adv-x="246" 
d="M266 0h-286v147h286v-147z" />
    <glyph glyph-name="uni0641" unicode="&#x641;" horiz-adv-x="1436" 
d="M1105 977q97 1 98 -96t-96 -97q-94 0 -94 96q1 96 92 97zM1396 647v-647h-970q-96 0 -173 27q-177 64 -205 251q-8 43 -8 159v108h180v-34q0 -81 2 -139q2 -47 10 -75q30 -111 151 -140q35 -9 72 -9h361q-48 79 -48 171q0 138 94 235q91 94 220 94zM1148 497l-66 -1
q-158 -3 -158 -173v-8q0 -167 157 -167h159l-1 349h-91z" />
    <glyph glyph-name="uni0642" unicode="&#x642;" horiz-adv-x="984" 
d="M551 977q97 1 98 -96t-96 -97q-94 0 -94 96q1 96 92 97zM799 977q97 1 98 -96t-96 -97q-94 0 -94 96q1 96 92 97zM945 647v-775q0 -109 -58.5 -184t-166.5 -113q-57 -19 -96 -19h-268q-43 0 -97 19q-219 77 -219 326v246h180l-1 -260q0 -142 140 -181h261q131 36 140 181
q1 5 1 19v94l-163 -1q-155 -1 -234 79t-80 240q-1 137 93 235q91 94 221 94h347zM664 496l-66 -1q-158 -3 -158 -173v-8q0 -167 156 -167h160v330l-1 19h-91z" />
    <glyph glyph-name="uni0643" unicode="&#x643;" horiz-adv-x="1034" 
d="M992 1009l2 -41v-968h-569q-95 0 -172 27q-178 64 -206 251q-7 52 -7 159v107h179l2 -34l1 -139q0 -42 10 -75q32 -112 150 -140q34 -9 73 -9h359v859q64 19 178 3zM654 508h-289q-9 39 2 79l53 3q-27 118 55 169q58 36 145 3v-70q-45 9 -48 9q-42 7 -65 -22
q-21 -29 -6 -73q6 -18 29 -18h89q13 0 35 -1v-79zM367 587z" />
    <glyph glyph-name="uni0644" unicode="&#x644;" horiz-adv-x="825" 
d="M785 1016l1 -1143q0 -109 -58.5 -184t-166.5 -113q-45 -15 -97 -19q-33 -3 -108 0q-48 2 -97 19q-219 77 -219 326v477h179v-491q0 -71 36.5 -117t103.5 -64q51 -14 102 0q140 40 140 181v1128h184z" />
    <glyph glyph-name="uni0645" unicode="&#x645;" horiz-adv-x="974" 
d="M619 644q130 0 222 -98t92 -236t-92 -236t-222 -98q-73 0 -137 34q-10 -1 -30.5 -5.5t-28.5 -5.5q-123 -17 -173.5 -61t-50.5 -120v-263h-178l-1 249q-1 130 67.5 209t235.5 117q2 0 27 8q-45 80 -45 172q0 138 92 236t222 98zM619 503q-120 0 -120 -193t120 -193
t120 193t-120 193z" />
    <glyph glyph-name="uni0646" unicode="&#x646;" horiz-adv-x="826" 
d="M429 701q96 1 97 -96t-96 -97q-94 0 -94 96t93 97zM786 490v-617q0 -109 -58.5 -184t-166.5 -113q-45 -15 -97 -19q-33 -3 -108 0q-48 2 -97 19q-219 77 -219 326v477h179v-491q0 -71 36.5 -117t103.5 -64q51 -14 102 0q140 40 140 181v602h185z" />
    <glyph glyph-name="uni0647" unicode="&#x647;" horiz-adv-x="708" 
d="M668 647v-647h-314q-313 0 -314 319q-1 137 93 235q93 96 221 95zM420 497l-66 -1q-158 -3 -158 -173v-8q0 -168 156 -168h160l-1 350h-91z" />
    <glyph glyph-name="uni0648" unicode="&#x648;" horiz-adv-x="708" 
d="M668 649v-729q0 -249 -219 -326q-49 -17 -96 -19q-21 -1 -169 7q-4 0 -31 7v132l72 -6q69 -5 124 10q139 38 140 181l1 94h-206q-244 61 -244 314q0 141 92 239q92 96 222 96h314zM422 497v-1h-68q-158 0 -158 -173q0 -88 39.5 -132.5t118.5 -43.5l158 1v185l-1 164h-89z
" />
    <glyph glyph-name="uni0649" unicode="&#x649;" horiz-adv-x="1205" 
d="M1165 177h-182v284h-48q-56 0 -87 -9q-42 -14 -49 -54q-6 -32 -6 -63v-525h-372q-97 0 -173 27q-187 66 -208 255v297h174v-206q0 -33 9 -69q32 -119 162 -149q30 -7 38 -7h191q1 376 0 425q-3 184 185 220q42 7 69 7h297v-433z" />
    <glyph glyph-name="uni064A" unicode="&#x64a;" horiz-adv-x="1205" 
d="M1165 369h-182v284h-48q-56 0 -87 -9q-42 -14 -49 -54q-6 -32 -6 -63v-525h-372q-97 0 -173 27q-187 66 -208 255v297h174v-206q0 -33 9 -69q32 -119 162 -149q30 -7 38 -7h191q1 376 0 425q-3 184 185 220q42 7 69 7h297v-433zM339 -115q97 1 98 -96t-96 -97
q-94 0 -94 96q1 96 92 97zM587 -115q97 1 98 -96t-96 -97q-94 0 -94 96q1 96 92 97z" />
    <glyph glyph-name="uni064B" unicode="&#x64b;" 
d="M113 100h-227v54h226zM113 0h-227v54h226z" />
    <glyph glyph-name="uni064C" unicode="&#x64c;" 
d="M54 281l-196 -113q-37 -21 -26 -63q4 -15 16 -34l12 -18l-34 -20l-6 7l-28 43q-6 12 -9 28q-13 68 52 106l192 111zM115 253q39 -9 58 -43l47 -82l-190 -109q-65 -38 -117 8q-14 12 -19 22l-24 45l-3 9l35 20q7 -18 9 -20q8 -18 21 -31q30 -30 68 -9l25 14l-31 53
q-21 74 45 111q37 21 76 12zM64 202q-46 -28 -22 -68l24 -41l43 25l3 2q1 0 2 1l43 25l-13 23h-1l-10 18q-23 41 -69 15z" />
    <glyph glyph-name="uni064D" unicode="&#x64d;" 
d="M113 -54h-227v54h226zM113 -154h-227v54h226z" />
    <glyph glyph-name="uni064E" unicode="&#x64e;" 
d="M113 0h-227v54h226z" />
    <glyph glyph-name="uni064F" unicode="&#x64f;" 
d="M74 253q40 -9 59 -43l47 -82l-190 -109q-65 -38 -117 8q-12 9 -20 22q-7 12 -23 45l-3 9l34 20l10 -20q7 -18 21 -31q31 -31 68 -9l24 14l-31 53q-19 74 45 111q37 21 76 12zM24 202q-46 -27 -22 -68l24 -41l42 25h1l3 2q1 0 2 1l43 25l-14 23l-10 18q-23 41 -69 15z" />
    <glyph glyph-name="uni0650" unicode="&#x650;" 
d="M113 -54h-227v54h226z" />
    <glyph glyph-name="uni0651" unicode="&#x651;" 
d="M73 195h54q2 -87 0 -122q0 -13 -3 -25q-10 -38 -51 -45q-11 -3 -24 -3h-177v179h55v-134h42l1 134h54v-134q23 0 30 1q14 2 17 16q2 10 2 15v118z" />
    <glyph glyph-name="uni0652" unicode="&#x652;" 
d="M0 200q38 0 67 -29q27 -29 27 -71q0 -43 -27 -71q-27 -29 -67 -29q-39 0 -66 29q-28 29 -28 71q0 43 28 71q27 29 66 29zM0 158q-36 0 -36 -58t36 -58t36 58t-36 58z" />
    <glyph glyph-name="uni0653" unicode="&#x653;" 
d="M115 190h51q0 -53 -13 -102q-25 -88 -88 -88q-41 0 -80 45q-37 45 -50 45q-50 0 -50 -100h-51q0 60 13 103q24 87 88 87q39 0 78 -45t52 -45q50 0 50 100z" />
    <glyph glyph-name="uni0654" unicode="&#x654;" 
d="M1 197q35 9 73 -8v-50l-13 1q-23 2 -38 2q-30 -3 -34 -33q-2 -11 0 -20q3 -26 29 -26h62q7 0 19 -1v-62h-199v64h17l16 -1l-3 17q-16 96 71 117z" />
    <glyph glyph-name="uni0656" unicode="&#x656;" 
d="M27 -186h-54v186h54v-186z" />
    <glyph glyph-name="uni0660" unicode="&#x660;" horiz-adv-x="907" 
d="M453 1033q205 0 288.5 -120t83.5 -406t-83.5 -406t-288.5 -120q-206 0 -288.5 119.5t-82.5 406.5t82.5 406.5t288.5 119.5zM451 879q-108 0 -148.5 -79.5t-40.5 -292.5t40.5 -292.5t148.5 -79.5q112 0 153 79.5t41 292.5t-41 292.5t-153 79.5z" />
    <glyph glyph-name="uni0661" unicode="&#x661;" horiz-adv-x="609" 
d="M459 0h-184v748q0 60 7 100l-238 -67l-22 130l253 103h184v-1014z" />
    <glyph glyph-name="uni0662" unicode="&#x662;" horiz-adv-x="836" 
d="M407 1032q80 0 136 -9.5t101 -34t66.5 -70.5t21.5 -115q0 -93 -35 -167.5t-134 -181.5l-269 -289q57 8 157 8h313v-173h-690v110q0 50 26 77l265 292q96 107 140 179t42 130q-1 52 -37.5 68t-121.5 16q-141 0 -297 -18l-10 141q168 37 326 37z" />
    <glyph glyph-name="uni0663" unicode="&#x663;" horiz-adv-x="825" 
d="M390 1033q174 0 247.5 -51.5t73.5 -183.5q0 -111 -32.5 -176t-115.5 -80v-5q95 -16 134 -78.5t41 -176.5q2 -159 -74 -230t-260 -71q-137 0 -336 26l8 144q174 -11 280 -11q113 0 156.5 34.5t43.5 129.5q0 83 -35.5 120.5t-136.5 37.5h-188v136h188q50 0 82 11t47 34
t19.5 47.5t4.5 62.5q-1 79 -36 101t-141 22q-159 0 -264 -9l-9 140q150 26 303 26z" />
    <glyph glyph-name="uni0664" unicode="&#x664;" horiz-adv-x="922" 
d="M506 1014l-258 -589q-10 -28 -1 -40.5t34 -12.5h282v282l31 165h142v-447h131v-124l-128 -19h-3v-229h-173v229h-398q-68 0 -101.5 54.5t-6.5 116.5l271 614h178z" />
    <glyph glyph-name="uni0665" unicode="&#x665;" horiz-adv-x="800" 
d="M692 863h-417l-12 -216l128 -15q186 -21 262 -97t75 -228q0 -68 -14.5 -121.5t-50 -102t-105.5 -75t-170 -26.5q-144 0 -323 34l19 149q135 -22 259 -22q119 0 160.5 38t43.5 128q3 107 -48.5 135t-226.5 46q-4 1 -6 1l-97 10q-30 4 -47 24t-16 50l23 439h569z" />
    <glyph glyph-name="uni0666" unicode="&#x666;" horiz-adv-x="851" 
d="M494 1032q134 0 223 -25l-11 -128q-71 3 -212 3q-64 0 -102 -10.5t-67.5 -42.5t-42.5 -91t-16 -156q48 48 101.5 66.5t132.5 18.5q161 0 222.5 -73t61.5 -254q0 -70 -8 -121.5t-30 -98.5t-59 -75.5t-97.5 -45.5t-144.5 -17q-91 0 -151 15.5t-102.5 49t-65 95.5t-32 144.5
t-9.5 208.5q0 138 17 234.5t47.5 155.5t83.5 92t112.5 44t148.5 11zM448 525q-51 0 -91.5 -15t-91.5 -53q0 -71 2 -114.5t8.5 -84t18 -61.5t32.5 -37.5t49.5 -22t71.5 -5.5q53 0 86 12t49.5 41t21.5 63t5 90q0 106 -33.5 146.5t-127.5 40.5z" />
    <glyph glyph-name="uni0667" unicode="&#x667;" horiz-adv-x="763" 
d="M47 1014h591q51 0 73.5 -29.5t7.5 -76.5l-310 -908h-183l268 773q18 54 38 87h-476z" />
    <glyph glyph-name="uni0668" unicode="&#x668;" horiz-adv-x="897" 
d="M448 1030q135 0 209.5 -29.5t101.5 -85t27 -154.5q0 -98 -36 -160.5t-111 -71.5v-6q94 -9 132.5 -78.5t38.5 -191.5q0 -98 -29 -153.5t-108.5 -86t-224.5 -31.5q-141 0 -220.5 30t-109.5 87t-30 154q0 122 38 191.5t131 78.5v6q-74 9 -109.5 71.5t-35.5 160.5t27.5 154
t101 85.5t207.5 29.5zM450 891q-103 0 -137.5 -31t-34.5 -118t34.5 -117t138.5 -30q105 0 136.5 29.5t31.5 117.5q0 87 -33.5 118t-135.5 31zM451 457q-114 -1 -151.5 -34.5t-37.5 -129.5q0 -93 37.5 -126t150.5 -33q111 0 148 33t37 126q0 98 -36 131t-148 33z" />
    <glyph glyph-name="uni0669" unicode="&#x669;" horiz-adv-x="851" 
d="M412 1032q66 0 115 -8t87 -24t63.5 -46t43 -67t26.5 -94t13 -120.5t4 -153.5q0 -136 -15 -229t-43.5 -154.5t-79.5 -94.5t-113.5 -46t-155.5 -13q-142 0 -242 25l13 130q76 -5 228 -5q126 0 174.5 63t56.5 242q-49 -50 -103.5 -70t-135.5 -20q-277 0 -277 328
q-2 187 76 272t265 85zM410 882q-101 0 -133.5 -47.5t-32.5 -158.5q0 -99 33.5 -143.5t123.5 -44.5q51 0 92 15.5t95 55.5q0 71 -2 113.5t-8.5 83.5t-17.5 61.5t-31.5 37t-48.5 22t-70 5.5z" />
    <glyph glyph-name="uni066A" unicode="&#x66a;" horiz-adv-x="828" 
d="M218 0h-143l535 1014h143zM191 826h55q35 0 49 -14t14 -49v-75q0 -35 -14 -49.5t-49 -14.5h-55q-35 0 -49 14.5t-14 49.5v75q0 35 14 49t49 14zM560 358h55q35 0 49 -14t14 -49v-75q0 -35 -14 -49.5t-49 -14.5h-55q-35 0 -49 14.5t-14 49.5v75q0 35 14 49t49 14z" />
    <glyph glyph-name="uni0670" unicode="&#x670;" 
d="M27 0h-54v186h54v-186z" />
    <glyph glyph-name="endash" unicode="&#x2013;" horiz-adv-x="844" 
d="M750 310h-656v127h656v-127z" />
    <glyph glyph-name="emdash" unicode="&#x2014;" horiz-adv-x="1285" 
d="M1191 310h-1097v127h1097v-127z" />
    <glyph glyph-name="quoteleft" unicode="&#x2018;" horiz-adv-x="329" 
d="M144 1067l79 -20q-19 -82 -19 -166q49 0 49 -52v-75q0 -32 -15 -44.5t-50 -12.5h-47q-35 0 -48.5 12.5t-13.5 44.5v85q0 124 65 228z" />
    <glyph glyph-name="quoteright" unicode="&#x2019;" horiz-adv-x="325" 
d="M140 1057h47q34 0 47.5 -12.5t13.5 -44.5v-86q0 -121 -64 -228l-80 21q17 70 19 166q-49 0 -49 52v75q0 31 15.5 44t50.5 13z" />
    <glyph glyph-name="quotesinglbase" unicode="&#x201a;" horiz-adv-x="345" 
d="M151 187h47q35 0 48.5 -13t13.5 -46v-87q0 -122 -64 -229l-80 20q19 82 19 169q-24 0 -37 14t-13 38v75q0 32 15.5 45.5t50.5 13.5z" />
    <glyph glyph-name="quotedblleft" unicode="&#x201c;" horiz-adv-x="581" 
d="M144 1067l79 -20q-19 -82 -19 -166q49 0 49 -52v-75q0 -32 -15 -44.5t-50 -12.5h-47q-35 0 -48.5 12.5t-13.5 44.5v85q0 124 65 228zM395 1067l80 -20q-19 -82 -19 -166q24 0 37 -14t13 -38v-75q0 -31 -15.5 -44t-50.5 -13h-48q-34 0 -47.5 12.5t-13.5 44.5v85
q0 123 64 228z" />
    <glyph glyph-name="quotedblright" unicode="&#x201d;" horiz-adv-x="576" 
d="M140 1057h47q34 0 47.5 -12.5t13.5 -44.5v-86q0 -121 -64 -228l-80 21q17 70 19 166q-49 0 -49 52v75q0 31 15.5 44t50.5 13zM391 1057h47q35 0 48.5 -12.5t13.5 -44.5v-86q0 -122 -65 -228l-79 21q19 82 19 166q-49 0 -49 52v75q0 31 15 44t50 13z" />
    <glyph glyph-name="quotedblbase" unicode="&#x201e;" horiz-adv-x="597" 
d="M151 182h47q35 0 48.5 -12.5t13.5 -46.5v-85q0 -121 -64 -228l-80 21q18 76 19 168q-24 0 -37 13.5t-13 36.5v74q0 33 15.5 46t50.5 13zM403 182h47q35 0 48.5 -12.5t13.5 -46.5v-85q0 -122 -65 -228l-79 21q19 82 19 168q-49 0 -49 50v74q0 33 15 46t50 13z" />
    <glyph glyph-name="dagger" unicode="&#x2020;" horiz-adv-x="682" 
d="M410 713v-97l9 -778h-156l9 778v97l-9 303h156zM243 594l-190 -18v144h190v-126zM629 576l-189 18v126h189v-144z" />
    <glyph glyph-name="daggerdbl" unicode="&#x2021;" horiz-adv-x="738" 
d="M438 756v-541l7 -336l-122 -41l-23 256v545l-7 340l122 37zM270 594l-189 -18v144h189v-126zM657 576l-190 18v126h190v-144zM270 260v-126h-189v144zM657 134h-190v126l190 18v-144z" />
    <glyph glyph-name="bullet" unicode="&#x2022;" horiz-adv-x="542" 
d="M265 304h19q78 0 108.5 -30.5t30.5 -107.5v-20q0 -83 -30.5 -114.5t-108.5 -31.5h-19q-83 0 -114.5 31.5t-31.5 114.5v20q0 78 31.5 108t114.5 30z" />
    <glyph glyph-name="ellipsis" unicode="&#x2026;" horiz-adv-x="1294" 
d="M143 201h54q35 0 49 -14t14 -49v-75q0 -35 -14 -49t-49 -14h-54q-35 0 -49.5 14t-14.5 49v75q0 35 14.5 49t49.5 14zM613 201h54q35 0 49.5 -14t14.5 -49v-75q0 -35 -14.5 -49t-49.5 -14h-54q-35 0 -49 14t-14 49v75q0 35 14 49t49 14zM1083 201h55q35 0 49 -14t14 -49
v-75q0 -35 -14 -49t-49 -14h-55q-35 0 -49 14t-14 49v75q0 35 14 49t49 14z" />
    <glyph glyph-name="perthousand" unicode="&#x2030;" horiz-adv-x="1886" 
d="M303 1033q136 0 190.5 -67.5t54.5 -233.5q0 -165 -54.5 -233t-190.5 -68t-191 68t-55 233q0 166 55 233.5t191 67.5zM406 0h-119l629 1014h117zM301 928q-64 0 -87 -40.5t-23 -155.5q0 -116 23 -155.5t87 -39.5q66 0 90 39.5t24 155.5q0 115 -24 155.5t-90 40.5z
M1020 588q136 0 191 -68t55 -233q0 -167 -55 -235t-191 -68q-135 0 -189.5 68t-54.5 235q0 165 54.5 233t189.5 68zM1580 588q136 0 190 -67.5t54 -233.5q0 -168 -54 -235.5t-190 -67.5t-190 68t-54 235q0 165 54 233t190 68zM1020 481q-65 0 -87.5 -39.5t-22.5 -154.5
q0 -116 22.5 -156.5t87.5 -40.5q64 0 88 41t24 156q0 114 -23.5 154t-88.5 40zM1579 481q-64 0 -87 -39.5t-23 -154.5q0 -116 23 -156.5t87 -40.5q66 0 89.5 40.5t23.5 156.5q0 115 -23.5 154.5t-89.5 39.5z" />
    <glyph glyph-name="guilsinglleft" unicode="&#x2039;" horiz-adv-x="453" 
d="M385 619l-167 -250l169 -256l-94 -60l-236 297v38l234 291z" />
    <glyph glyph-name="guilsinglright" unicode="&#x203a;" horiz-adv-x="456" 
d="M397 388v-38l-237 -297l-94 60l169 256l-167 250l94 60z" />
    <glyph glyph-name="fraction" unicode="&#x2044;" horiz-adv-x="749" 
d="M120 0h-120l629 1014h120z" />
    <glyph glyph-name="Euro" unicode="&#x20ac;" horiz-adv-x="935" 
d="M600 1032q135 0 250 -32l-17 -140q-121 21 -245 10q-92 -7 -142.5 -56.5t-67.5 -151.5h348l-12 -103h-346v-55v-32h310l-11 -102h-292q15 -113 65.5 -167t147.5 -59q148 -7 266 15l16 -138q-122 -39 -270 -39q-200 0 -299 94.5t-120 293.5h-116v102h110v35v52h-109v103
h118q24 188 122 279t294 91z" />
    <glyph glyph-name="trademark" unicode="&#x2122;" horiz-adv-x="1430" 
d="M579 922h-182v-457h-125v457h-184v101h491v-101zM1144 1023h123q45 0 47 -47l21 -511h-115l-22 463h-15l-104 -349q-11 -40 -50 -40h-84q-37 0 -50 40l-104 349h-15l-20 -463h-115l22 511q2 47 46 47h120q39 0 50 -40l84 -282q4 -13 9 -40.5t8 -40.5h14q3 10 8.5 39
t10.5 44l81 280q10 40 50 40z" />
    <glyph glyph-name="partialdiff" unicode="&#x2202;" horiz-adv-x="851" 
d="M179 903v130q116 2 199 -5.5t155 -29t117.5 -60t77 -99.5t42.5 -145.5t6 -198.5q-12 -262 -102 -387.5t-280 -125.5q-78 0 -137.5 21t-96 55.5t-58.5 82t-29.5 96.5t-4.5 104q3 67 23 124.5t56.5 103.5t96 71.5t135.5 25.5q136 -3 218 -91q1 66 -5.5 112.5t-24.5 85
t-47.5 62t-77.5 39.5t-111.5 22.5t-151.5 6.5zM422 522q-167 0 -177 -182q-5 -95 32.5 -150t120.5 -55q54 0 90 23t57 70.5t31 102.5t16 138q-81 53 -170 53z" />
    <glyph glyph-name="emptyset" unicode="&#x2205;" horiz-adv-x="1007" 
d="M504 931q178 0 303.5 -126t125.5 -304t-125.5 -304t-303.5 -126t-304 125.5t-126 304.5q0 178 126 304t304 126zM504 801q-78 0 -179 -16l4 -66q85 13 175 13q46 0 71.5 -18t25.5 -50q0 -26 -14.5 -52t-35.5 -50.5t-42 -52t-35.5 -68t-14.5 -87.5h79q0 43 14 78.5
t34.5 60t41 48.5t34.5 55.5t14 67.5q0 137 -172 137zM528 251h-58q-10 0 -10 -11v-55q0 -10 10 -10h58q11 0 11 10v55q0 11 -11 11z" />
    <glyph glyph-name="product" unicode="&#x220f;" horiz-adv-x="1055" 
d="M1004 870h-138v-1017h-178v1017h-320v-1017h-178v1017h-139v144h953v-144z" />
    <glyph glyph-name="summation" unicode="&#x2211;" horiz-adv-x="875" 
d="M792 872h-508l225 -372l-246 -541h544v-143h-741v143l244 541l-226 372v142h708v-142z" />
    <glyph glyph-name="minus" unicode="&#x2212;" horiz-adv-x="856" 
d="M759 368h-662v129h662v-129z" />
    <glyph glyph-name="radical" unicode="&#x221a;" horiz-adv-x="844" 
d="M819 1288l-349 -1276q-4 -12 -19 -12h-210q-17 0 -19 12l-184 708h146l153 -604h19l316 1172h147z" />
    <glyph glyph-name="infinity" unicode="&#x221e;" horiz-adv-x="1136" 
d="M851 662q90 0 150 -52.5t60 -153.5q0 -106 -65 -165t-164 -59q-135 0 -262 125q-131 -125 -270 -125q-94 0 -159.5 59.5t-65.5 164.5q0 102 62.5 154t159.5 52q146 0 273 -131q135 131 281 131zM323 538q-101 0 -101 -88q0 -94 107 -94q49 0 86.5 22t78.5 67
q-41 49 -76.5 71t-94.5 22zM816 538q-57 0 -93.5 -25t-75.5 -73q69 -84 162 -84q51 0 79 24t28 70q0 88 -100 88z" />
    <glyph glyph-name="integral" unicode="&#x222b;" horiz-adv-x="534" 
d="M328 1050q103 0 163 -6l-10 -128h-94q-43 0 -61 -20.5t-14 -73.5l67 -953q7 -101 -34 -148t-147 -47q-118 0 -155 6l11 127h90q45 0 63.5 22.5t14.5 77.5l-68 947q-6 95 40 145.5t134 50.5z" />
    <glyph glyph-name="approxequal" unicode="&#x2248;" horiz-adv-x="858" 
d="M260 670q45 -2 162 -39t163 -39q34 -2 44 12.5t10 58.5h117q17 -100 -24 -151t-137 -49q-48 2 -163.5 39.5t-159.5 39.5q-33 1 -43.5 -14t-10.5 -59h-115q-19 105 25.5 155.5t131.5 45.5zM260 387q45 -2 161.5 -39.5t163.5 -40.5q33 -2 43.5 13t10.5 59h117
q17 -100 -24 -151t-137 -49q-48 1 -163.5 38.5t-159.5 39.5q-34 2 -44 -12.5t-10 -60.5h-115q-19 106 25 156.5t132 46.5z" />
    <glyph glyph-name="notequal" unicode="&#x2260;" horiz-adv-x="906" 
d="M681 791l-83 -137h186v-129h-265l-110 -182h375v-130h-453l-110 -181l-46 24l95 157h-149v130h227l111 182h-338v129h417l96 160z" />
    <glyph glyph-name="lessequal" unicode="&#x2264;" horiz-adv-x="820" 
d="M719 669l-463 -125l463 -116v-140l-616 187v139l616 196v-141zM726 93h-639v132h639v-132z" />
    <glyph glyph-name="greaterequal" unicode="&#x2265;" horiz-adv-x="820" 
d="M717 614v-139l-614 -187v140l461 116l-461 125v141zM735 93h-641v132h641v-132z" />
    <glyph glyph-name="lozenge" unicode="&#x25ca;" horiz-adv-x="838" 
d="M432 1016l362 -494q8 -13 0 -27l-362 -496q-12 -18 -25 0l-363 496q-8 14 0 27l363 494q13 17 25 0zM185 509l235 -336l233 336l-233 332z" />
    <glyph glyph-name="uni00630074" horiz-adv-x="1251" 
d="M1003 720h211v-129h-211v-366q0 -47 19 -65.5t67 -18.5h99l19 -132q-78 -25 -185 -25q-95 0 -146 54.5t-51 155.5v397h-374q-112 0 -154.5 -48t-42.5 -181q0 -134 43 -183.5t154 -49.5q109 0 197 15l16 -118q-101 -44 -245 -44q-193 0 -272 85t-79 295q0 193 84.5 275.5
t267.5 82.5h405v208h178v-208z" />
    <glyph glyph-name="uni006600660079" horiz-adv-x="1835" 
d="M897 1057q139 0 217 -13l-16 -127h-140q-61 0 -84.5 -23t-23.5 -78v-96h230q159 0 206 -150l111 -345q13 -42 23 -96h22q1 4 28 96l154 495h191l-266 -742q-20 -56 -48.5 -102.5t-71 -89.5t-105.5 -65.5t-139 -18.5l-15 113q84 23 133 64t79 105l7 16h-35q-44 0 -60 44
l-178 491q-19 56 -78 56h-188v-591h-178v591h-331v-591h-178v591h-128v122l128 7v105q0 102 56.5 159.5t167.5 57.5q122 0 191 -13l-16 -126h-112q-62 0 -85.5 -21t-23.5 -81v-81h331v119q0 106 52.5 162t172.5 56z" />
    <glyph glyph-name="uni00660074" horiz-adv-x="1092" 
d="M388 1057q130 0 200 -13l-15 -127h-122q-60 0 -84 -23t-24 -78v-96h324v208h178v-208h210v-129h-210v-366q0 -47 18.5 -65.5t67.5 -18.5h98l21 -132q-81 -25 -186 -25q-96 0 -146.5 54.5t-50.5 155.5v397h-324v-591h-180v591h-128v122l128 7v119q0 106 52.5 162t172.5 56
z" />
    <glyph glyph-name="uni00660079" horiz-adv-x="1326" 
d="M388 1057q141 0 219 -13l-15 -127h-141q-60 0 -84 -23t-24 -78v-96h229q81 0 131 -36.5t75 -113.5l110 -345q18 -58 25 -96h19q28 91 29 96l155 495h191l-266 -742q-20 -56 -48.5 -102.5t-71.5 -89.5t-105.5 -65.5t-137.5 -18.5l-16 113q84 23 132.5 63.5t78.5 105.5
l8 16h-36q-44 0 -60 44l-178 491q-19 56 -78 56h-186v-591h-180v591h-128v122l128 7v119q0 106 52.5 162t172.5 56z" />
    <glyph glyph-name="s_t" horiz-adv-x="1288" 
d="M1039 720h212v-129h-212v-366q0 -47 19 -65.5t68 -18.5h99l19 -132q-78 -25 -186 -25q-94 0 -145.5 54.5t-51.5 155.5v397h-473q-97 0 -125 -9t-28 -47q0 -8 1 -15t2.5 -12.5t5.5 -10.5t6 -8t9 -7t10.5 -5.5t13.5 -5t14.5 -4.5t17.5 -4.5t19 -5.5l194 -53q91 -25 130 -70
t39 -137q0 -127 -71.5 -170t-247.5 -43q-165 0 -302 23l12 125q87 -6 246 -6q113 0 152 13.5t39 56.5q0 24 -12.5 39t-27 20t-52.5 15q-7 2 -11 3l-190 52q-94 26 -131.5 75t-37.5 137q0 104 66 143.5t228 39.5h504v208h178v-208z" />
    <glyph glyph-name="uni00740074" horiz-adv-x="1119" 
d="M870 720h212v-129h-212v-366q0 -47 19 -65.5t68 -18.5h98l20 -132q-78 -25 -186 -25q-94 0 -144.5 54.5t-50.5 155.5v397h-354v-366q0 -47 19 -65.5t67 -18.5h99l19 -132q-78 -25 -185 -25q-95 0 -145.5 54.5t-50.5 155.5v397h-131v122l130 7v208h178v-208h352v208h178
v-208z" />
    <glyph glyph-name="uni00740079" horiz-adv-x="1357" 
d="M340 720h263q81 0 131 -36.5t75 -113.5l110 -345q13 -42 23 -96h19q17 49 31 96l155 495h191l-268 -742q-20 -56 -48 -102.5t-71 -89.5t-105.5 -65.5t-138.5 -18.5l-15 113q85 23 133.5 63.5t78.5 105.5l7 16h-35q-49 0 -60 44l-178 491q-19 56 -78 56h-220v-366
q0 -47 19 -65.5t67 -18.5h99l19 -132q-78 -25 -185 -25q-95 0 -145.5 54.5t-50.5 155.5v397h-131v122l130 7v208h178v-208z" />
    <glyph glyph-name="behar.init.ordn" horiz-adv-x="385" 
d="M345 643v-396q0 -247 -249 -247h-116v147h101q38 0 60 21.5t22 60.5v414h182zM205 -129q97 1 98 -96t-96 -97q-94 0 -94 96q1 96 92 97z" />
    <glyph glyph-name="yehar.init.ordn" horiz-adv-x="551" 
d="M511 643v-396q0 -247 -249 -247h-282v147h267q38 0 60 21.5t22 60.5v414h182zM120 -129q97 1 98 -96t-96 -97q-94 0 -94 96q1 96 92 97zM368 -129q97 1 98 -96t-96 -97q-94 0 -94 96q1 96 92 97z" />
    <glyph glyph-name="yehar.medi.ordn" horiz-adv-x="629" 
d="M467 147h182v-147h-669v147h306v500h181v-500zM242 -129q97 1 98 -96t-96 -97q-94 0 -94 96q1 96 92 97zM490 -129q97 1 98 -96t-96 -97q-94 0 -94 96q1 96 92 97z" />
    <glyph glyph-name="uni064B0651" 
d="M113 330h-227v54h226zM113 230h-227v54h226zM73 195h54q2 -87 0 -122q0 -13 -3 -25q-10 -38 -51 -45q-11 -3 -24 -3h-177v179h55v-134h42l1 134h54v-134q23 0 30 1q14 2 17 16q2 10 2 15v118z" />
    <glyph glyph-name="uni064C0651" 
d="M74 511l-196 -113q-37 -21 -26 -63q4 -15 16 -34l12 -18l-34 -20l-6 7l-28 43q-6 12 -9 28q-13 68 52 106l192 111zM135 483q39 -9 58 -43l47 -82l-190 -109q-65 -38 -117 8q-14 12 -19 22l-24 45l-3 9l35 20q7 -18 9 -20q8 -18 21 -31q30 -30 68 -9l25 14l-31 53
q-21 74 45 111q37 21 76 12zM84 432q-46 -28 -22 -68l24 -41l43 25l3 2q1 0 2 1l43 25l-13 23h-1l-10 18q-23 41 -69 15zM73 195h54q2 -87 0 -122q0 -13 -3 -25q-10 -38 -51 -45q-11 -3 -24 -3h-177v179h55v-134h42l1 134h54v-134q23 0 30 1q14 2 17 16q2 10 2 15v118z" />
    <glyph glyph-name="uni064D0651" 
d="M73 395h54q2 -87 0 -122q0 -13 -3 -25q-10 -38 -51 -45q-11 -3 -24 -3h-177v179h55v-134h42l1 134h54v-134q23 0 30 1q14 2 17 16q2 10 2 15v118zM113 100h-227v54h226zM113 0h-227v54h226z" />
    <glyph glyph-name="uni064E0651" 
d="M113 230h-227v54h226zM73 195h54q2 -87 0 -122q0 -13 -3 -25q-10 -38 -51 -45q-11 -3 -24 -3h-177v179h55v-134h42l1 134h54v-134q23 0 30 1q14 2 17 16q2 10 2 15v118z" />
    <glyph glyph-name="uni064F0651" 
d="M94 483q40 -9 59 -43l47 -82l-190 -109q-65 -38 -117 8q-12 9 -20 22q-7 12 -23 45l-3 9l34 20l10 -20q7 -18 21 -31q31 -31 68 -9l24 14l-31 53q-19 74 45 111q37 21 76 12zM44 432q-46 -27 -22 -68l24 -41l42 25h1l3 2q1 0 2 1l43 25l-14 23l-10 18q-23 41 -69 15z
M73 195h54q2 -87 0 -122q0 -13 -3 -25q-10 -38 -51 -45q-11 -3 -24 -3h-177v179h55v-134h42l1 134h54v-134q23 0 30 1q14 2 17 16q2 10 2 15v118z" />
    <glyph glyph-name="uni06500651" 
d="M73 295h54q2 -87 0 -122q0 -13 -3 -25q-10 -38 -51 -45q-11 -3 -24 -3h-177v179h55v-134h42l1 134h54v-134q23 0 30 1q14 2 17 16q2 10 2 15v118zM113 0h-227v54h226z" />
  </font>
</defs>
</svg>
