<?xml version="1.0" standalone="no"?>
<!DOCTYPE svg PUBLIC "-//W3C//DTD SVG 1.1//EN" "http://www.w3.org/Graphics/SVG/1.1/DTD/svg11.dtd" >
<svg xmlns="http://www.w3.org/2000/svg">
<metadata></metadata>
<defs>
<font id="bauserifregular" horiz-adv-x="1114" >
<font-face units-per-em="2048" ascent="1556" descent="-492" />
<missing-glyph horiz-adv-x="557" />
<glyph horiz-adv-x="2048" />
<glyph horiz-adv-x="2048" />
<glyph unicode="&#xd;" horiz-adv-x="557" />
<glyph unicode=" "  horiz-adv-x="557" />
<glyph unicode="&#x09;" horiz-adv-x="557" />
<glyph unicode="&#xa0;" horiz-adv-x="557" />
<glyph unicode="!" horiz-adv-x="557" d="M189 723v135.5v153.5v412q46 -3 84 -24q16 -9 31.5 -22.5t28 -33.5t20.5 -47t10 -63v-890q-47 -5 -85 17q-16 9 -31.5 25.5t-28 42.5t-20 63t-8.5 88q0 5 -0.5 44t-0.5 99zM193 117v9v153q41 -6 75 -23q29 -14 56.5 -39.5t36.5 -67.5v-162q-40 -2 -74 11 q-29 10 -56.5 37.5t-37.5 81.5z" />
<glyph unicode="&#x22;" horiz-adv-x="614" d="M78 1443q32 11 64 5q27 -5 57.5 -27.5t55.5 -75.5l87 -219q-30 -17 -62 -10q-14 3 -29 11.5t-31.5 25.5t-33.5 43t-33 65q-2 4 -6 14t-10 23.5t-12.5 29.5t-12.5 32q-16 38 -34 83zM266 1443q32 11 64 5q27 -5 57.5 -27.5t54.5 -75.5l88 -219q-30 -17 -62 -10 q-14 3 -29 11.5t-31.5 25.5t-33.5 43t-33 65q-2 4 -6 14t-10 23.5t-12.5 29.5t-12.5 32q-16 38 -34 83z" />
<glyph unicode="#" horiz-adv-x="1575" d="M77 460q2 40 20 73q14 27 45.5 50t87.5 23h210l92 263h-331q0 40 18 73q8 13 21 26.5t33 23.5t47.5 16.5t65.5 6.5h198l162 454q42 -13 70 -35q12 -9 22.5 -21.5t16.5 -28.5t6.5 -35.5t-7.5 -42.5q-16 -45 -34 -96t-34 -95q-18 -51 -36 -100h256l165 454q42 -11 71 -33 q25 -19 39 -52t-4 -83q-14 -38 -31.5 -87.5t-33.5 -93.5q-18 -52 -38 -105h301q-5 -41 -25 -73q-17 -28 -51.5 -50.5t-94.5 -22.5h-182l-94 -263h322q-5 -41 -25 -73q-18 -28 -54.5 -50.5t-101.5 -22.5h-191q-25 -74 -50 -144q-11 -30 -22 -61.5t-22 -62.5t-21 -58.5 l-18 -49.5q-9 -22 -21.5 -37t-28 -24.5t-32 -14.5t-32.5 -7q-38 -4 -81 5l161 454h-257q-26 -72 -50 -141q-11 -29 -22 -60.5t-21.5 -62t-20.5 -58.5t-18 -50q-8 -23 -21 -38.5t-28 -25.5t-32 -15t-33 -7q-38 -4 -81 4l158 454h-308zM604 604h262l92 265h-260z" />
<glyph unicode="$" d="M171 161q-2 48 11 86q6 16 15.5 31.5t24 27.5t35 19.5t48.5 7.5h148h37v379q-87 45 -147.5 87.5t-96.5 83.5q-72 81 -72 184q0 122 87 200q89 79 229 80q1 39 16 71q6 13 16.5 26t25.5 23.5t36 16.5t49 6v-143h281q-1 -46 -13 -81q-6 -15 -14.5 -29.5t-21.5 -25.5 t-31.5 -18t-42.5 -7h-158v-344q94 -52 160 -99t103 -91q75 -87 75 -196q0 -137 -88 -216t-240 -79h-10v-160h-143v160h-319zM339 1067q0 -45 34 -83t117 -78v280h-14q-59 0 -99 -34q-38 -32 -38 -85zM633 333h10q67 0 105 34q38 35 38 94q0 55 -36 97q-35 41 -117 79v-304z " />
<glyph unicode="%" horiz-adv-x="1683" d="M233 1056q0 109 77 186q76 76 185 76q108 0 186 -76q77 -77 77 -186q0 -108 -77 -187q-76 -76 -186 -76t-185 76q-77 79 -77 187zM278 15q222 340 404 620q52 79 103.5 158.5t99.5 153.5t91 140t77 118.5t58 89t34 51.5q35 52 76 72.5t76 23.5q40 4 81 -10 q-212 -328 -387 -600q-50 -77 -100 -155t-96.5 -150.5t-89 -138.5t-76.5 -119.5t-59 -92t-37 -56.5q-20 -32 -42 -53t-43.5 -34t-42.5 -19.5t-40 -8.5q-44 -4 -87 10zM362 1056q0 -55 39 -94q38 -39 94 -39t95 39q40 39 40 94q0 56 -39 95q-38 38 -96 38q-57 0 -95 -38 q-38 -40 -38 -95zM936 353q0 111 76 186q76 76 186 76t186 -76q77 -75 77 -186q0 -109 -77 -186t-186 -77t-186 77q-76 76 -76 186zM1064 353q0 -54 40 -94q37 -39 94 -39q55 0 95 40t40 93q0 56 -40 95q-38 38 -95 38t-95 -38q-19 -20 -29 -43t-10 -52z" />
<glyph unicode="&#x26;" horiz-adv-x="1421" />
<glyph unicode="'" horiz-adv-x="317" d="M76 1261q1 31 8.5 54.5t19.5 40t26.5 27.5t29.5 18q35 16 80 15q-1 -88 -1 -160v-61v-55v-42v-21q1 -31 -5.5 -54t-18 -39.5t-26 -27t-29.5 -17.5q-36 -16 -83 -15z" />
<glyph unicode="(" horiz-adv-x="786" d="M167 550q0 253 108 474q108 220 336 433q30 -37 41 -79q4 -18 5 -39t-5 -43.5t-20 -47.5t-39 -50q-101 -114 -158 -235q-90 -188 -90 -416q0 -231 91 -420q24 -51 56 -99.5t69 -96.5q32 -39 51.5 -73t29 -62t10.5 -51t-2 -41q-8 -42 -39 -70q-226 211 -335 436 q-109 224 -109 480z" />
<glyph unicode=")" horiz-adv-x="786" d="M175.5 1339q0.5 21 5.5 39q11 42 41 79q228 -213 336 -433q108 -221 108 -474q0 -128 -27 -247.5t-83 -232.5q-107 -224 -334 -436q-31 28 -39 70q-3 18 -2 41t10.5 51t29 62t51.5 73q36 48 68 96.5t57 99.5q91 189 91 420q0 228 -90 416q-58 122 -159 235q-25 25 -39 50 t-19.5 47.5t-5 43.5z" />
<glyph unicode="*" horiz-adv-x="1010" d="M127 1195q17 40 45 61q12 9 27.5 14.5t34.5 4.5t42 -10t50 -29q27 -21 50.5 -38.5t40.5 -31.5q20 -16 36 -29l-40 314q46 2 79 -11q14 -6 27 -15.5t22 -24t13 -35.5t0 -49q-6 -44 -11 -78t-9 -57q-4 -27 -8 -48l248 198q28 -39 34 -75q3 -15 1 -31.5t-11 -32.5t-27 -30 t-48 -25q-42 -15 -71.5 -27.5t-49.5 -21.5l-39 -18l296 -114q-21 -39 -47 -62q-23 -20 -56.5 -26t-76.5 23q-30 20 -58 42t-49 39q-25 20 -46 39l41 -312q-47 -2 -80 10q-14 5 -27.5 14.5t-22.5 24t-13 35t1 49.5q13 85 21 132q4 26 7 47l-249 -191q-23 38 -29 73 q-3 15 -2.5 30.5t6.5 30t18.5 27.5t33.5 22q37 15 70.5 28t59.5 23q30 11 56 20z" />
<glyph unicode="+" horiz-adv-x="1706" d="M246 540q-3 39 8 69q10 26 37 47t85 22q28 0 60 0.5t65 0.5h65.5h62.5q70 0 139 -1v535q39 -1 70 -14q26 -11 48 -37.5t23 -77.5v-245v-161h523q1 -38 -9 -68q-8 -26 -28.5 -47.5t-60.5 -22.5h-49h-63h-70h-71h-172v-535q-38 1 -69 12q-13 5 -25.5 12.5t-22.5 19 t-16.5 27.5t-7.5 37v427h-522z" />
<glyph unicode="," horiz-adv-x="557" d="M126 -194l57 265q7 30 19.5 51.5t27.5 35t32 21.5t33 11q38 8 81 -3q-16 -69 -28 -124q-5 -24 -10.5 -47.5t-9.5 -43t-7 -33.5t-4 -18q-6 -30 -17 -51.5t-25.5 -35t-31.5 -21t-33 -10.5q-39 -8 -84 3z" />
<glyph unicode="-" horiz-adv-x="676" d="M80 562q88 -1 160 -1h60h55h41.5h21.5q31 1 54 -5.5t39.5 -17.5t27.5 -26t18 -30q16 -36 15 -83l-337 -1q-32 1 -55 8.5t-39.5 19.5t-27.5 26.5t-18 29.5q-16 35 -15 80z" />
<glyph unicode="." horiz-adv-x="557" d="M185 109v132q46 1 83 -10q32 -9 58 -31t27 -65v-7v-125q-46 0 -83 11q-32 10 -58 31.5t-27 63.5z" />
<glyph unicode="/" horiz-adv-x="555" d="M-80 -216q114 390 208 710q27 91 53.5 181.5t51.5 175t47 160t39.5 135.5t30 102t17.5 59q9 30 23 52.5t30 39t33 27t33 16.5q38 15 80 14q-108 -374 -198 -685q-26 -88 -51.5 -177t-49.5 -172t-45.5 -158t-39 -136t-30 -105t-18.5 -65q-10 -36 -24.5 -62.5t-31.5 -45.5 t-35 -31.5t-36 -19.5q-41 -18 -87 -15z" />
<glyph unicode="0" d="M71 441v531q0 204 139 339q137 136 344 136q191 0 325 -117l-100 -168q-4 5 -7.5 9.5t-7.5 9.5q-13 14 -26.5 25.5t-27.5 22.5q-67 46 -156 46q-125 0 -208 -95q-85 -95 -85 -239v-459q0 -78 24 -141l-116 -195q-98 124 -98 295zM234 78l104 172q5 -5 7 -8 q84 -96 209 -96q126 0 210 95q84 96 84 241v459q0 35 -5 66t-14 60l115 194q94 -122 94 -289v-531q0 -205 -138 -340q-136 -136 -346 -136q-189 0 -320 113z" />
<glyph unicode="1" d="M235 1106v63q0 19 9 34q7 13 22.5 24.5t44.5 14.5q46 7 89.5 21t77.5 37.5t55.5 56t23.5 76.5h88q17 -2 30 -10q11 -7 20.5 -22t9.5 -41v-607q0 -248 1 -554q-1 -49 9.5 -76t25.5 -41t33 -19t32.5 -11t24 -17t7.5 -36h-460q-2 25 7 36t23.5 17t31.5 11t32.5 19t26 41 t11.5 76v848q0 24 -8 36.5t-18 17.5q-11 6 -25 5h-224z" />
<glyph unicode="2" d="M87 148q0 39 27 81q25 41 74 81l513 413q78 62 117 134q37 71 37 154q0 115 -78 190q-77 76 -197 76t-198 -78q-79 -79 -79 -200q0 -61 17 -110.5t53 -86.5q41 -41 50 -81t4 -72q-6 -38 -28 -72q-143 58 -219 165t-76 253q0 204 137 334q136 130 348 130q206 0 337 -125 q132 -125 132 -319q0 -132 -65 -245q-65 -112 -210 -223q-55 -42 -112 -87q-49 -38 -108 -84.5t-116 -91.5q-26 -20 -38.5 -34t-15.5 -24.5t2 -17t14 -10.5q21 -9 66 -7h489q16 3 22.5 18t12.5 32.5t16 31.5t33 15q4 0 4 -4v-284l-792 1q-81 0 -127 38q-46 40 -46 109z" />
<glyph unicode="3" d="M94 -1v284q0 4 3 4q23 -1 33 -15t16 -31.5t12.5 -32.5t22.5 -18h334q153 0 235 67q81 67 81 192q0 117 -76 184q-77 68 -209 68h-254v131l393 369q16 15 20 26q4 10 -2 18t-35 8h-227q-80 0 -172 1q-23 0 -41.5 7.5t-32.5 20.5t-24.5 29t-17.5 33q-17 40 -22 91h599v-1 q103 0 155 -38q53 -38 53 -112q0 -41 -18 -78q-17 -38 -50 -67l-291 -274q217 -3 336 -113q117 -111 117 -313q0 -196 -127 -317q-125 -122 -330 -122h-207z" />
<glyph unicode="4" d="M38 462q0 27 9 59q5 16 11.5 33t16.5 35q86 157 162 297q32 60 65.5 121.5t64 117.5t56 103t42.5 78q17 32 38.5 55t44.5 38t47 23.5t46 12.5q52 9 107 -1q29 -11 52 -30q20 -17 36.5 -44t16.5 -69v-52v-109t-0.5 -143.5t-0.5 -155.5v-145v-112q-52 -2 -92 10 q-17 5 -33.5 13.5t-29.5 21.5t-21 31.5t-8 43.5v594l-419 -765h347h352h8q25 0 43 -8t30.5 -21.5t20.5 -30t13 -34.5q11 -41 8 -93h-219v-149q1 -45 11 -70t24 -37.5t30 -17.5t29.5 -10.5t22 -16.5t6.5 -36h-430q-2 25 6 36t21 16.5t29 10.5t30.5 18t24.5 38t12 72v146h-493 q-71 0 -104 30t-33 96z" />
<glyph unicode="5" d="M104 4v281q0 4 4 4q22 -1 32 -15t16 -31t12.5 -32t22.5 -18h356q137 0 209 66q73 64 73 189q0 117 -72 185q-71 67 -198 67h-396v190h184v-1h204q234 0 362 -115q128 -114 128 -322q0 -205 -132 -326q-134 -123 -354 -123h-450v1h-1zM163 960v477h745q-3 -52 -21 -92 q-8 -17 -19 -33.5t-27.5 -29.5t-38.5 -21.5t-50 -8.5q-26 0 -57 -0.5t-64 -0.5h-67.5h-65.5q-74 0 -151 1v-157q0 -31 -8 -53.5t-21 -37.5t-29.5 -24t-33.5 -14q-40 -11 -92 -6z" />
<glyph unicode="6" d="M50 467q0 118 47 233q23 59 70 136.5t118 176.5l300 420q43 -32 67 -71q10 -17 16.5 -36.5t6 -42.5t-9.5 -48t-30 -52q-13 -17 -30 -39.5t-35.5 -48t-38 -52t-37.5 -51.5q-43 -59 -88 -122q-101 -140 -135 -220q-33 -80 -33 -156q0 -144 90 -238q89 -95 222 -95 q130 0 221 100q91 98 91 243q0 141 -90 230q-8 8 -19 17q-9 8 -21 16t-25 14q-40 15 -66.5 31.5t-42.5 34.5t-23 35.5t-8 33.5q-3 38 20 76q217 -8 345 -138q127 -132 127 -346q0 -230 -142 -380q-143 -147 -363 -147q-107 0 -196 34q-88 34 -161 105q-71 69 -109 161 q-38 88 -38 186z" />
<glyph unicode="7" d="M72 1434h749q103 0 152 -37q49 -38 49 -115q0 -29 -9 -62q-5 -17 -13.5 -40t-21.5 -52l-168 -388l-254 -584q-10 -34 -5 -52t19 -27t33 -12.5t35.5 -9.5t27.5 -18t9 -37h-516q0 27 10.5 41.5t28 22.5t39 13.5t44 15t43.5 26.5t37 49l14 30l450 1055h-597q-31 0 -54 7.5 t-39.5 20.5t-27.5 29t-18 33q-17 40 -17 91z" />
<glyph unicode="8" d="M62 431q0 136 66 237q67 101 192 153q-42 28 -73.5 60t-51.5 67q-43 71 -43 157q0 149 114 250q112 100 286 100t287 -100q113 -101 113 -250q0 -44 -11 -83t-31 -74q-42 -70 -127 -127q126 -53 193 -153q67 -102 67 -237q0 -203 -137 -331q-135 -128 -354 -128t-354 128 q-136 127 -136 331zM259 433q0 -116 83 -194q85 -78 210 -78t209 78t84 194t-85 195q-75 72 -184 80v187q33 3 61 17t52 37q56 56 56 136q0 84 -55 138q-56 56 -138 56t-138 -56q-55 -55 -55 -138q0 -79 56 -137q41 -41 100 -52v-189q-100 -11 -171 -79q-85 -81 -85 -195z " />
<glyph unicode="9" d="M52 935q0 233 142 379q141 148 363 148q108 0 196 -35q91 -35 161 -104q69 -69 109 -161q38 -93 38 -186q0 -116 -47 -233q-48 -116 -189 -313l-299 -420q-43 32 -67 71q-10 16 -16.5 36t-6.5 42.5t9.5 48t30.5 52.5q13 17 30 39.5t35.5 47.5t37.5 51.5t37 51.5 q42 59 88 122q51 72 85 127t51 94q32 77 32 156q0 145 -89 238q-90 95 -222 95q-130 0 -221 -100q-91 -98 -91 -243q0 -143 90 -230q8 -9 19 -18q9 -8 20.5 -15.5t25.5 -13.5q40 -15 66 -32t41.5 -34.5t22.5 -35t9 -33.5q3 -38 -19 -76q-217 7 -345 138q-127 132 -127 346z " />
<glyph unicode=":" horiz-adv-x="606" d="M227 86v132q48 1 86 -10q16 -5 31 -12.5t27 -19t18.5 -27.5t6.5 -37v-7v-125q-48 5 -85 18q-16 6 -31.5 13.5t-27 18.5t-18.5 24.5t-7 31.5zM227 676v133q46 2 83 -9q32 -9 58 -31t28 -66v-7v-1v-124q-48 4 -85 16q-16 5 -31 13t-27 18.5t-19 25t-7 32.5z" />
<glyph unicode=";" horiz-adv-x="606" d="M153 -203l58 265q7 30 19.5 51.5t27.5 35.5t31.5 22t32.5 11q38 8 81 -3q-16 -69 -28 -125q-5 -24 -10.5 -47.5t-9.5 -43t-7 -33.5t-4 -18q-6 -30 -17 -51t-25 -35t-31 -21.5t-33 -10.5q-39 -8 -85 3zM264 567l21 123l2 7q3 21 13 35.5t23.5 23.5t29.5 14t33 7 q39 4 85 -4l-23 -131q-7 -34 -36 -49.5t-62 -21.5q-39 -7 -86 -4z" />
<glyph unicode="&#x3c;" horiz-adv-x="1706" d="M274 610q-1 23 8 38t20 25q12 11 28 18l1109 455q11 -38 2 -75q-4 -16 -12.5 -33t-23.5 -33.5t-37.5 -32.5t-55.5 -29q-32 -14 -84.5 -35.5t-117 -48t-136.5 -56t-142 -57.5q-165 -67 -353 -143q197 -79 363 -147q71 -29 142.5 -58t133 -54t109 -44t70.5 -28 q39 -16 66.5 -33.5t44.5 -35t26.5 -35t12.5 -33.5q8 -37 -8 -73l-1108 456q-16 10 -28 23q-11 11 -20 28.5t-9 40.5z" />
<glyph unicode="=" horiz-adv-x="1706" d="M223 472q275 0 502 1h193t177 0.5t139.5 0.5h81.5q26 -1 47 -7.5t37.5 -16.5t29 -23t21.5 -26q21 -31 30 -70q-260 1 -479 1h-187h-174t-141 -0.5t-88 -0.5q-62 -1 -99 21.5t-57 48.5q-24 31 -33 71zM223 880h502h193t177 0.5t139.5 0.5h81.5q53 -1 85 -23.5t50 -48.5 q21 -32 30 -71q-260 1 -479 1h-590q-62 -1 -99 21.5t-57 48.5q-24 31 -33 71z" />
<glyph unicode="&#x3e;" horiz-adv-x="1706" d="M263 129q3 16 12 33.5t26.5 35t44.5 35t67 33.5q23 9 70.5 28t109 44t133 54t142.5 58q166 68 363 147q-188 76 -353 143q-70 28 -142 57.5t-136.5 56t-117.5 48t-84 35.5q-65 27 -93 61.5t-35 66.5q-9 37 1 75l1110 -455q16 -7 28 -18q11 -10 19 -25t8 -38t-8.5 -40.5 t-19.5 -28.5q-12 -13 -28 -23l-1109 -456q-16 36 -8 73z" />
<glyph unicode="?" horiz-adv-x="1024" d="M76 1015q1 100 33 180q9 29 24 54.5t33 48.5q8 10 16 19t17 17q121 122 315 122q189 0 310 -121q8 -7 15 -15l14 -16q93 -113 93 -275q0 -170 -103 -272q-104 -101 -290 -113v-154v-3v-2q0 -32 -8 -55t-20.5 -39t-28 -26.5t-31.5 -16.5q-38 -14 -86 -11v454v1 q10 0 23 -0.5t38 -0.5q148 0 228 63.5t80 178.5q0 86 -44 148q-6 7 -11.5 13.5t-12.5 12.5q-68 68 -176 68q-24 0 -46.5 -3.5t-42.5 -9.5q-42 -16 -71 -40q-5 -4 -9 -8t-8 -9h-1q-32 -34 -49 -81.5t-19 -108.5h-182zM382 -13v164q9 42 37 67.5t58 39.5q35 17 76 24v-155v-9 q-11 -55 -39 -82.5t-57 -37.5q-34 -13 -75 -11z" />
<glyph unicode="@" horiz-adv-x="2048" d="M200 588q0 118 31 227t88 204t136.5 173t176.5 133.5t208.5 86t232.5 30.5q120 0 230 -31t203 -87t166.5 -134.5t120 -173.5t63 -203.5t-3.5 -224.5q-13 -76 -43.5 -140.5t-73 -114.5t-95 -84.5t-109.5 -51.5q-3 -1 -15.5 -4.5t-30.5 -7.5t-39 -7.5t-42 -4.5h-1h-18h-77 h-46v140v250q0 123 -70 199t-180 76t-180 -75q-71 -77 -71 -195q0 -121 73 -198q71 -77 185 -77q50 0 99 17q47 18 97 54v-150q-49 -28 -101 -41q-26 -6 -54 -9.5t-57 -3.5q-54 0 -111 17q-27 9 -52 21t-47 27q-85 58 -129 146q-23 44 -34 92t-11 102q0 176 111 290 q109 114 281 114q111 0 206 -56q46 -29 82 -67.5t61 -88.5q11 -22 19.5 -46.5t13.5 -50.5q5 -27 7.5 -66t2.5 -93v-232q60 7 118 30.5t104 63t77 95.5t37 130q13 154 -30.5 289.5t-132.5 236.5t-217.5 159.5t-285.5 58.5q-105 0 -202 -26.5t-181.5 -75t-154 -116.5 t-119 -150.5t-76.5 -177.5t-27 -198q0 -102 27 -197t76.5 -177.5t119 -150.5t154 -116.5t181.5 -75t202 -26.5q315 0 523 202l106 -50q-60 -61 -131 -109.5t-150.5 -82.5t-167 -52.5t-180.5 -18.5q-120 0 -232 30.5t-209 86t-176.5 133.5t-136.5 173t-88 204t-31 227z" />
<glyph unicode="A" horiz-adv-x="1229" d="M-2 1v10q0 19 6 29q8 12 22 18t30.5 11.5t31 20.5t24.5 43.5t11 81.5v361v328q0 258 134 407q133 151 356 151q222 0 356 -151q134 -149 134 -407l1 -689q1 -52 9.5 -81t21.5 -43.5t27.5 -20.5t27 -12t20.5 -17q7 -10 7 -31v-5q0 -1 -0.5 -3t-5.5 -2q-90 0 -150.5 0.5 t-103 0.5h-72h-56.5q-4 0 -5 2t-1 4q0 24 8 35t20 16.5t27 11.5t27.5 21t21 43.5t9.5 80.5v458q-114 -1 -215 -1h-303q-20 0 -26 4t-6 9t3 9.5t2 4.5q43 65 101 97t118 44q58 12 114 12h5q59 0 105 -2h13q38 0 63 6q29 6 30 32q1 15 -0.5 51.5t-7.5 80.5t-18.5 88.5 t-34.5 75.5q-18 25 -44 48t-57 40t-66 27t-71 10q-37 0 -73.5 -10t-70 -27t-62 -39t-47.5 -47q-78 -99 -78 -286v-229.5v-170.5v-121.5v-82v-51.5v-30q1 -53 11 -81.5t24.5 -43.5t31 -20.5t30 -12t22 -18.5t6.5 -39q-103 0 -172.5 0.5t-118 0.5h-82h-64.5z" />
<glyph unicode="B" horiz-adv-x="1155" d="M8 3q1 20 9.5 30t21 14.5t26.5 7.5t25.5 10t18.5 20t6 39v786q0 257 123 403q121 145 338 145q190 0 320 -115q129 -116 129 -281q0 -91 -40 -165q-41 -74 -122 -128q109 -48 170 -139q60 -93 60 -210q0 -187 -132 -304q-132 -116 -351 -116l-234 1q1 47 36 87 q15 17 38.5 34t59 31t84.5 25t114 16q36 2 62.5 13.5t52.5 35.5q36 35 52.5 79.5t16.5 101.5q0 55 -20.5 97.5t-58.5 74.5t-97 53.5t-124 21.5l-216 1q-1 8 -1 17q0 34 17 64q9 16 24.5 31.5t40.5 29t60 23.5t83 14q7 1 22.5 2.5t35.5 6.5t42.5 14t44.5 24q40 29 61 65.5 t21 86.5q0 51 -14.5 93.5t-49.5 75.5q-35 32 -80.5 56t-100.5 24q-33 0 -64.5 -8t-60 -21.5t-52.5 -32.5t-43 -40q-37 -42 -48 -100.5t-11 -134.5v-962q-82 -1 -145 -1h-146q-4 0 -4 4z" />
<glyph unicode="C" horiz-adv-x="1020" d="M65 718q0 196 90 352q90 157 262 262q81 49 203 75t280 26l55 -1v-152v-56t0.5 -48.5t0.5 -35.5v-13q0 -7 -3 -8t-8 -2q-16 3 -26 15t-16.5 28t-11.5 34.5t-11.5 33.5t-15.5 25t-24 10q-258 -10 -413 -146q-168 -147 -168 -399q0 -253 168 -400q152 -134 407 -146 q27 2 38.5 23.5t19 47.5t17.5 48.5t35 27.5q5 -1 8 -2t3 -8v-309h-55q-158 0 -280 26q-122 24 -203 75q-172 105 -262 262t-90 355z" />
<glyph unicode="D" horiz-adv-x="1282" d="M27 1q0 20 7.5 30t18.5 15.5t24 8.5t24.5 7.5t20 14t11.5 28.5v140t-0.5 177.5t-0.5 198v201.5t-0.5 188.5t-0.5 159.5t0.5 113.5t0.5 50.5q1 36 35 58.5t85.5 34.5t114.5 15q32 1 62.5 1t60.5 -1q60 -2 111 -8.5t78 -13.5q46 -14 107 -40t124.5 -68t123 -100.5 t101.5 -136.5q45 -78 59.5 -171t14.5 -191q0 -194 -94 -354q-93 -159 -266 -261q-81 -47 -193 -71q-29 -6 -65 -11t-69.5 -8.5t-59 -5.5t-33.5 -2q-14 0 -28 0.5t-14 14.5q0 9 9 30t28.5 45t50 46t74.5 33q56 20 94.5 32t70.5 26t62.5 35t70.5 58q81 75 125 174t44 221 q0 62 -6.5 121.5t-22 113t-42.5 100t-68 83.5q-34 34 -89 62.5t-117 48t-125 30.5q-64 12 -114 12h-4q-48 0 -78 -12q-32 -12 -32 -36l1 -1010h1v-227h-293z" />
<glyph unicode="E" horiz-adv-x="1040" d="M65 705v12q0 196 90 354q89 156 263 262q81 49 204 76q119 25 281 25h55v-152v-56t0.5 -49t0.5 -35v-14q0 -7 -3 -8.5t-8 -1.5q-16 3 -26 15t-17 28t-12 34.5t-11.5 33.5t-15.5 25t-24 10q-259 -10 -414 -146q-128 -113 -159 -286h95h102t99 -0.5t86.5 -1t64 -1.5 t32.5 -2q21 -3 46.5 -13t50 -26.5t45 -39t29.5 -50.5q1 -3 1.5 -7.5t-3 -9t-13.5 -7t-30 -2.5h-486v1h-179h-142q-1 10 -1.5 18t-0.5 14zM69 610h196q14 -93 54.5 -162t108.5 -129q153 -135 409 -147q27 2 38.5 23.5t19 47.5t17.5 49t35 28q5 -1 8 -2t3 -8v-310h-55 q-81 0 -150.5 6.5t-130.5 18.5q-123 26 -204 76q-173 105 -263 263q-33 59 -55.5 118t-30.5 128z" />
<glyph unicode="F" horiz-adv-x="920" d="M20 6v5q0 17 6 27q8 10 19.5 16t24.5 11t25 16t20.5 31.5t10.5 57.5v756q0 63 7.5 120.5t22.5 107.5t37 91t51 71q35 37 72 61.5t75.5 40t77.5 23t78 10.5h310q24 0 42.5 -17t18.5 -41v-78t0.5 -85t0.5 -68v-29q-1 -8 -3.5 -9t-7.5 -2q-15 3 -24 15t-15.5 28t-12.5 34.5 t-15.5 34t-24.5 26.5t-39 13h-230q-51 -6 -92 -23t-70.5 -53t-46.5 -95t-19 -147v-754q1 -48 9 -75t19 -40.5t24 -19t23.5 -11.5t17 -16.5t6.5 -34.5q0 -1 -0.5 -2.5t-6.5 -1.5h-173h-212q-5 0 -5.5 2t-0.5 4zM363 654v163h58.5h69h71.5h66h52.5h31.5q20 0 46 -11 t51.5 -29.5t46.5 -43.5t31 -53l1 -9q0 -4 -4 -8t-14 -6.5t-30 -2.5h-477z" />
<glyph unicode="G" horiz-adv-x="1583" d="M114 715q0 75 11 144t37 136q26 68 60 130t84 116q48 52 100 91.5t122 74.5q45 23 93 35.5t95 17.5q42 6 82 6h8q43 -1 79 -4q73 -7 140 -34.5t124 -65.5q62 -41 114.5 -98t98.5 -129l-110 -110q-19 -21 -34 -37q-7 -7 -13 -13.5t-11 -11.5q-6 -6 -11 -12q-2 -4 -6 0 q-14 14 -15 27t4 25t12.5 24t10.5 25t-2 27t-25 31q-15 17 -31 34q-14 14 -29 28.5t-28 23.5q-25 18 -47.5 31t-45 23.5t-47 18.5t-52.5 14q-31 7 -63 8t-61.5 -2t-54.5 -8t-42 -10q-34 -10 -67 -27.5t-62 -37.5q-58 -39 -99.5 -93.5t-73.5 -117.5t-47.5 -133t-15.5 -145 q0 -57 9 -110.5t29 -104.5q37 -100 109 -183q71 -79 161 -120q46 -21 93 -32t97 -11q192 0 326 131q33 33 57.5 64t43.5 66t33.5 77t28.5 96l193 144q0 -20 -1.5 -60.5t-10.5 -93.5t-28.5 -116t-56.5 -129t-94 -132t-140 -124q-78 -54 -166 -78.5t-185 -24.5q-135 0 -259 56 q-121 55 -220 161q-49 54 -86 113t-63 127q-52 136 -52 282zM714 641q10 28 30.5 53t46 43.5t51.5 29.5t46 11h44h84.5h108.5h116.5h107h81.5l-218 -163h-56h-77t-87.5 0.5t-89 0.5h-80.5h-62q-20 -1 -30 1.5t-14 6.5t-4 8t2 9z" />
<glyph unicode="H" horiz-adv-x="1255" d="M-2 1v10q0 20 6 29q8 12 23 18.5t32 12t32.5 20.5t26 44t11.5 82h1v1029h-1q-3 45 -14 70t-25.5 37.5t-31 18t-30 11.5t-22 17t-7.5 35v3.5t7 1.5h444q5 0 5.5 -2t0.5 -4q0 -23 -8 -34t-21.5 -17t-29 -11t-30 -17t-26 -35.5t-14.5 -65.5h-1v-1075q4 -40 16 -62t27 -33 t30.5 -16t28.5 -11.5t20.5 -18.5t6.5 -37h-457zM374 689q0 12 13 29q14 19 40.5 41t62 41.5t78 32t86.5 12.5h77.5h48.5t30.5 0.5l23 1t26.5 1t41 1.5q20 1 27 11.5t8 17.5l-1 382q-5 40 -16.5 62t-26.5 33.5t-31 16t-28.5 11t-20.5 18t-6 37.5l458 -1v-9q0 -20 -7 -30 q-9 -12 -23.5 -18t-31.5 -11.5t-32.5 -20t-26 -43.5t-11.5 -82v-1028q3 -45 14 -70t25.5 -37.5t31 -18t30 -11.5t22 -17.5t8.5 -35.5q0 -1 -0.5 -3t-7.5 -2h-213t-231 1q-5 0 -5.5 2t-1.5 4q0 23 8.5 34t21.5 17t29 11t30.5 17t26 35.5t15.5 65.5v487h-537q-24 0 -24 15z " />
<glyph unicode="I" horiz-adv-x="465" d="M10 0v10q0 18 6 28q8 12 22.5 18.5t31 12t31 20.5t24.5 43.5t11 81.5h2v1025h-2q-3 45 -13.5 69.5t-24.5 37.5t-29.5 18t-28.5 11t-21.5 17t-7.5 35q0 2 0.5 3.5t6.5 1.5h426q5 0 6 -2t1 -4q0 -23 -8 -34t-21 -16.5t-28 -10.5t-29 -17.5t-24.5 -35.5t-13.5 -65h-1v-1070 q4 -40 15.5 -62t25.5 -33t29.5 -16t27.5 -11.5t19.5 -18.5t5.5 -37z" />
<glyph unicode="J" horiz-adv-x="948" d="M6 22q0 5 5 13q7 17 23 39.5t45.5 44t75 40t111.5 26.5q4 0 24 0.5t48.5 2.5t62 5.5t65 9.5t57 15t38.5 22q75 76 75 221v793q-4 42 -15 65.5t-25 36t-29.5 17.5t-28 11t-20.5 17t-8 35q0 2 1 4t6 3h243h189q7 0 7 -2v-3v-5q0 -21 -8 -31q-8 -12 -20.5 -18t-28.5 -11.5 t-30 -18.5t-25 -38t-14 -70v-754q0 -258 -129 -382q-32 -32 -84.5 -52t-116.5 -31.5t-133 -16t-134 -4.5h-101h-37.5h-33h-23.5h-10q-4 0 -9 1.5t-9 4.5t-4 10z" />
<glyph unicode="K" horiz-adv-x="1165" d="M15 0v10q1 20 7 29q8 12 21.5 18t30 11t31.5 19.5t25 43.5t11 82h1v1028h-1q-3 45 -13.5 69.5t-25 37.5t-30 18.5t-28.5 11.5q-14 6 -22 17q-8 10 -7 30l1 8q0 2 7 2h186q57 -1 105 -1h136q5 0 5.5 -2t0.5 -4q0 -24 -8 -34.5t-20.5 -16.5t-27.5 -11t-29.5 -17t-25 -35 t-14.5 -65v-426v-178v-470q4 -40 15 -61.5t25 -32.5t29 -15.5t27 -10.5t19 -18t6 -37h-437zM378 645v178h115q105 0 167 48q62 49 127 201q14 33 31 71q14 32 33 73.5t39 87.5q10 23 26 39.5t35.5 27.5t40.5 18t41 11q33 6 69 6q16 0 33 -1l-178 -408q-23 -51 -44 -88 t-41 -60q-43 -48 -100 -71q147 -24 222 -120q75 -95 75 -257v-222v-1q4 -40 15 -62t25 -33t29 -16t27 -11t19 -18q6 -10 6 -31v-6h-189h-239q-2 26 5.5 37.5t19.5 18t27 11.5t29 16.5t24.5 34.5t14.5 65v145q0 171 -63 243q-64 73 -210 73h-231z" />
<glyph unicode="L" horiz-adv-x="956" d="M-2 1433q0 1 0.5 3t7.5 2h432q5 -1 5.5 -3t0.5 -4q0 -24 -8 -35t-20.5 -17t-28 -11t-29.5 -17.5t-25 -36t-15 -65.5v-793q0 -144 76 -220q12 -13 38 -22t57 -15t64.5 -9.5t62 -5.5t48.5 -2t24 -1q66 -8 111.5 -26.5t75 -40t45.5 -44t24 -39.5q4 -8 4 -13q0 -6 -4 -10 t-9 -5t-9 -1h-10.5h-24h-32.5h-37h-100q-65 0 -134.5 4.5t-133 15.5t-116.5 31t-85 52q-128 126 -128 383v753q-3 45 -14 70t-25 38t-30 18.5t-29 11.5q-13 5 -21 17q-8 10 -8 32v5z" />
<glyph unicode="M" horiz-adv-x="1869" d="M14 -1v9q0 20 7 30q9 12 23.5 17.5t33 10t36 18.5t31.5 42.5t21 80.5l152 1069q13 86 51 130t102 44q21 0 41 -6l-164 -1244q-5 -33 -5 -57q0 -15 2 -25q5 -28 17 -41.5t28.5 -17t31 -8.5t24 -15t7.5 -37h-193h-246zM528 1050l45 364q16 -21 29.5 -50t21.5 -57l320 -1021 l317 1021q22 70 61 107q39 36 93 36q64 0 101 -44q39 -44 51 -130l159 -1101q9 -41 23.5 -63t31.5 -33t34 -15.5t31 -9.5q12 -6 20 -18q7 -11 7 -31v-6h-440q-2 27 7.5 37.5t24 15t31 8t28.5 16.5q14 14 18 42q2 10 1 24q0 24 -5 59l-134 969h1l-2 10l-328 -1052 q-24 -76 -55 -110q-32 -35 -76 -35q-47 0 -78 33q-15 17 -29 44.5t-26 67.5q-65 211 -121 394q-24 78 -48.5 157.5t-46.5 150.5t-39.5 128.5t-27.5 91.5z" />
<glyph unicode="N" horiz-adv-x="1290" d="M16 1v10q0 20 6 29q8 12 22 18t30 11.5t30 20.5t23.5 44t10.5 82v1026q0 100 41 155q40 54 115 54q52 0 96 -35q41 -34 79 -108l454 -957v-341q-17 18 -42 49.5t-44 64.5l-519 1081v-989q1 -53 10.5 -82t24 -44t30.5 -20.5t29.5 -11.5t21.5 -18t7 -39h-187h-238z M861 1435h429v-10q0 -19 -6 -29q-8 -12 -21.5 -18t-29.5 -11.5t-30.5 -20.5t-24 -44.5t-10.5 -82.5v-1030q0 -97 -41 -153q-39 -55 -111 -55q-9 0 -15.5 1t-14.5 3v393h-1v842q-1 53 -11 82t-24 44t-30.5 20.5t-30 11.5t-21.5 18q-7 10 -7 29v10z" />
<glyph unicode="O" horiz-adv-x="1583" d="M72 722q0 148 54 282q54 133 159 239q103 105 234 159q129 55 276 55q142 0 275 -56q66 -28 124.5 -67.5t110.5 -92.5q105 -108 158 -238q54 -134 54 -281q0 -152 -55 -284q-54 -133 -157 -238q-52 -54 -110.5 -93.5t-124.5 -68.5q-131 -55 -275 -55q-147 0 -276 55 q-131 55 -234 159q-105 108 -159 241t-54 284zM265 723q0 -57 10 -111t30 -105q40 -100 117 -182q38 -39 81 -69.5t91 -50.5q97 -42 201 -42q106 0 201 42q48 20 90 50.5t80 69.5q38 42 67 87.5t49 96.5q41 102 41 214q0 57 -10 110t-30 104q-39 98 -117 181q-38 41 -80 71 t-90 51q-95 42 -201 42q-105 0 -202 -41q-96 -42 -171 -120q-77 -82 -118 -183q-39 -101 -39 -215z" />
<glyph unicode="P" horiz-adv-x="1110" d="M13 -1v10q1 20 7 29q8 12 22 18t30.5 11.5t31 20.5t24.5 44t11 82h1v704q0 253 124 396q125 143 343 143q192 0 323 -116q129 -117 129 -288q0 -102 -49 -181q-24 -41 -58.5 -76t-76.5 -64q-47 -32 -98 -50t-93 -28q-50 -11 -97 -15h-126q-36 -2 -54 7q-8 4 -13 10 t-4 15.5t9.5 23.5t26.5 33q28 31 65.5 44t77.5 18.5t81 9.5t77 17q25 5 50 30t44.5 58.5t31.5 70t12 65.5q0 106 -73 173q-71 67 -187 67q-126 0 -203 -86q-74 -88 -74 -233v-766q2 -47 13 -72.5t25.5 -38.5t30.5 -18.5t29 -11.5t21 -18t6 -38h-193h-247z" />
<glyph unicode="Q" horiz-adv-x="1583" d="M66 716q0 150 54 285q53 133 161 241q103 106 237 163q12 5 51 18.5t98 24t135 11.5h7q72 0 153 -19q85 -20 175 -66.5t179 -131.5q54 -52 92.5 -113t66.5 -129q56 -136 56 -284q0 -272 -165 -473q-163 -200 -439 -262l-2 -255q-49 7 -88 40q-17 14 -32.5 34.5t-28 49.5 t-19.5 68t-7 89q0 76 -0.5 156t-0.5 145.5v106.5t0 40q39 -8 68 -24.5t49 -38.5t32 -46.5t19 -49.5q12 -42 12 -90q0 -18 -2 -37q186 50 296 200q111 150 111 349q0 116 -41 217q-20 51 -49 97t-68 86q-70 67 -138.5 102.5t-131.5 49.5q-54 13 -103 13h-13 q-55 -2 -96.5 -10.5t-67.5 -19t-32 -12.5q-49 -22 -92 -52t-81 -71q-78 -81 -119 -184t-41 -216q0 -196 110 -348q26 -36 61.5 -69t76.5 -60.5t86 -48t91 -30.5v-182q-72 11 -138 36t-124 59.5t-108 78t-89 91.5q-161 200 -161 471z" />
<glyph unicode="R" horiz-adv-x="1143" d="M-5 2v10q1 20 7 29q8 12 21.5 18t30 11.5t31 20.5t24.5 44t11 82v707q0 251 124 396q124 144 341 144q192 0 321 -117t129 -288q0 -102 -48 -183q-50 -80 -143 -132q110 -30 161 -114t51 -237v-198q3 -45 14 -70t25 -38t30 -18t29 -11q12 -7 20 -19q7 -11 7 -32v-6h-193 h-114h-44t-40 0.5t-30.5 0.5h-16.5q-1 26 7 38t21 18t29 11.5t30.5 18.5t25 39t12.5 74v119q0 182 -58 246q-15 16 -40.5 30.5t-58 25t-70 16.5t-75.5 6h-125q-36 -3 -54 6q-8 3 -13 9.5t-4.5 16.5t9 24t26.5 33q29 31 66 44t77 18.5t80.5 9.5t76.5 17q27 9 52 34.5t44 58 t30 67.5t11 64q0 106 -72 174q-71 67 -186 67q-127 0 -202 -86q-74 -88 -74 -234v-768q3 -47 13.5 -72.5t25 -39t30 -18.5t28.5 -11.5t21 -18.5t6 -38h-192h-114h-43.5t-39.5 0.5t-31 0.5h-17z" />
<glyph unicode="S" horiz-adv-x="1075" d="M83 1v292q0 4 4 5q28 -2 36.5 -17t13 -34t13 -35.5t35.5 -20.5h386q117 0 178 46q60 46 60 135q0 70 -46 120q-47 52 -174 116l-240 123q-131 67 -196 155q-64 88 -64 199q0 159 117 254q59 47 137.5 71.5t180.5 24.5h417q0 -3 -1.5 -17t-11 -34.5t-29.5 -44t-57.5 -44 t-95.5 -35.5t-142 -18l-140 1q-82 0 -131 -42q-48 -41 -48 -109q0 -62 42 -108q22 -23 72.5 -54.5t130.5 -73.5l209 -105q138 -71 203 -160q65 -91 65 -209q0 -181 -124 -281t-348 -100h-311h-141z" />
<glyph unicode="T" horiz-adv-x="991" d="M-144 1285q4 13 23.5 31t45.5 41q45 38 97 59q47 19 89 19h8h69h122h156.5h172.5h450q39 0 53 -7q10 -5 10 -14q0 -3 -1 -6q-4 -13 -23 -31.5t-44 -40.5q-45 -38 -96 -59q-47 -19 -90 -19h-8h1h-296v-1051q2 -50 12.5 -77t25 -41t31 -19.5t30 -12t22 -18t6.5 -38.5h-196 h-116h-45t-40.5 0.5t-31.5 0.5h-17q-2 27 6.5 38.5t22 17.5t29.5 11.5t31 19t26 39.5t13 75v1055h-156h-327q-41 0 -55 7q-11 5 -11 14q0 3 1 6z" />
<glyph unicode="U" horiz-adv-x="1229" d="M-6 1430h440q2 -27 -6 -38.5t-21.5 -18t-29.5 -12t-30.5 -19t-25 -40.5t-12.5 -76v-683q0 -186 78 -285q80 -98 227 -98q148 0 228 98q79 100 79 285v692q-3 46 -13.5 71t-25 38t-30.5 18t-29.5 11.5t-21.5 18t-6 37.5h441v-10q0 -19 -6 -29q-8 -12 -22 -18t-30.5 -11 t-31 -19t-25 -42t-11.5 -78v-688q0 -254 -135 -404t-361 -150t-359 150q-136 149 -136 404v700q-2 46 -13 71.5t-25.5 38.5t-30.5 18.5t-29 11.5t-21 18q-6 10 -6 28v10z" />
<glyph unicode="V" horiz-adv-x="1049" d="M-124 1424h131q51 0 114 1h192q2 -27 -8 -38t-25.5 -16.5t-31.5 -10t-27.5 -17.5t-13.5 -40v-7q0 -26 12 -70l285 -929l-83 -271q-34 43 -62 132l-352 1139q-11 24 -25.5 37t-29.5 19.5t-29.5 10t-25.5 9.5t-17 17q-4 8 -4 23v11zM459 -8l94 308l285 923q7 40 7 66 q-1 9 -1 16q-4 28 -14.5 41.5t-26 17t-29 8t-22.5 15t-7 37.5h193h78h73h93v-7q0 -19 -5 -29q-6 -12 -17.5 -17.5t-27 -9.5t-31.5 -12.5t-31 -25t-27 -47.5l-345 -1118q-17 -51 -34 -86.5t-37 -56.5q-39 -41 -99 -41q-39 0 -69 18z" />
<glyph unicode="W" horiz-adv-x="1835" d="M-10 1428h440q2 -27 -7.5 -37.5t-24 -15t-31 -8t-28.5 -17.5t-17 -42q-2 -11 -2 -25q0 -24 5 -57l134 -969l1 -10l328 1052q24 74 55 110q32 35 76 35q48 0 78 -34q30 -32 56 -111q81 -264 145 -473q27 -89 53.5 -175t47 -154.5t33.5 -111.5t14 -47l-40 -344 q-20 19 -37.5 55t-28.5 71l-321 1020l-317 -1020q-21 -70 -61 -107t-93 -37q-64 0 -101 45q-38 44 -51 130l-159 1101q-9 41 -23.5 62.5t-31.5 32.5t-34 15.5t-30 10.5q-14 5 -22 17q-6 9 -6 28v10zM1351 -17l30 264l134 979q5 35 5 59q0 13 -2 23q-4 28 -16.5 42t-29 17.5 t-31 8t-24 15t-7.5 37.5h440v-9q0 -19 -7 -29q-9 -12 -24 -18t-33.5 -11t-36 -19t-32 -42t-20.5 -80l-152 -1069q-13 -86 -51 -130q-38 -45 -101 -45q-24 0 -42 7z" />
<glyph unicode="X" horiz-adv-x="1483" d="M12 3v10q0 25 8 33q10 10 30.5 15t50 17t66.5 51q195 265 366 496q72 99 146.5 200t140.5 191.5t119 164.5t84 119t60.5 74t57.5 46t53 24t46 8h3q48 0 91 -27l-487 -651l471 -657q36 -32 64.5 -42t48 -15t29.5 -15q8 -8 7 -32v-10h-18.5t-33 -0.5t-42.5 -0.5h-47h-123 h-208q-2 28 9 38.5t27 15t34 8.5t31 19q2 3 2 7l-37 56q-5 8 -10 14.5t-9 13.5l-312 464l-310 -460q-10 -16 -24 -37.5t-25 -36.5q-2 -4 -5.5 -9.5t0.5 -11.5q12 -15 29 -19t32.5 -8t26 -15t8.5 -39h-198h-117h-45t-41 0.5t-32 0.5h-17zM119 1425q42 33 89 41q12 2 25 2 q9 0 17 -1q22 -2 47.5 -13t51.5 -32.5t52 -57.5l283 -410l-109 -149z" />
<glyph unicode="Y" horiz-adv-x="1110" d="M117 1088v101v198q0 28 13.5 35.5t33 0.5t43 -25t44 -40t34 -44.5t14.5 -38.5q3 -87 3 -138v-51q0 -152 64 -232q64 -81 186 -81q121 0 186 81q65 80 65 232v55t2 139q0 16 14 38.5t34 44.5t43.5 40t43.5 25q10 3 19 3q8 0 15 -3q13 -8 13 -36v-6v1v-299q0 -193 -86 -312 q-87 -119 -258 -163v-425q3 -45 13.5 -69t24.5 -36.5t29 -17.5t27.5 -11.5t20 -18t6.5 -36.5h-424q-2 27 6.5 38t21.5 17.5t29 11.5t30 19.5t23.5 42.5t10.5 79h1v406q-171 44 -258 163q-87 118 -87 312z" />
<glyph unicode="Z" horiz-adv-x="1020" d="M51 156q0 61 99 202l9 13l618 857l145 204q34 -15 49 -48t16 -72v-6q-1 -36 -11 -72q-12 -40 -30 -69q-11 -23 -32.5 -56t-53.5 -78l-617 -855h643q25 5 32 20t12 31.5t14.5 30t39.5 13.5v-95v-177v-1h-230l1 1h-499q-111 0 -157 37q-48 37 -48 120zM116 1265q1 34 12 60 t27.5 44t37.5 30t42 19q42 14 94 14h19h517l-119 -167h-630z" />
<glyph unicode="[" horiz-adv-x="668" d="M199 -358v1786h377q-4 -39 -17 -70q-12 -26 -35.5 -48t-64.5 -22h-96v-1503h89q26 -1 45 -7.5t32.5 -16.5t22.5 -23t14 -26q11 -31 10 -70h-377z" />
<glyph unicode="\" horiz-adv-x="555" d="M4 1448q42 1 80 -14q16 -6 33 -16.5t33 -27t29.5 -39t23.5 -52.5q5 -17 17 -59t30 -102t40 -135.5t47 -160t51.5 -175t53.5 -181.5q94 -320 208 -710q-46 -3 -87 15q-18 7 -36 19.5t-35 31.5t-31.5 45.5t-24.5 62.5q-6 21 -19 65t-30.5 105t-39 136t-45 158t-49.5 172 t-51 177q-90 311 -198 685z" />
<glyph unicode="]" horiz-adv-x="668" d="M93 -349q-3 39 9 70q5 13 13.5 26t22.5 23t33.5 16.5t45.5 7.5h89v1503h-96q-42 0 -65.5 22t-34.5 48q-14 31 -17 70h377v-1786h-377z" />
<glyph unicode="^" horiz-adv-x="2048" />
<glyph unicode="_" horiz-adv-x="1024" d="M-115 140q275 0 502 1h193t177 0.5t139.5 0.5h81.5q26 -1 47 -7.5t37.5 -16.5t29 -23t21.5 -26q21 -31 30 -70q-260 1 -479 1h-187h-174t-141 -0.5t-88 -0.5q-62 -1 -99 21.5t-57 48.5q-24 31 -33 71z" />
<glyph unicode="`" horiz-adv-x="1024" d="M351 1435q32 11 64 5q27 -5 57.5 -27.5t55.5 -75.5l87 -219q-30 -17 -62 -10q-14 3 -29 11.5t-31.5 25.5t-33.5 43t-33 65q-2 4 -6 14t-10 23.5t-12.5 29.5t-12.5 32q-16 38 -34 83z" />
<glyph unicode="a" horiz-adv-x="1185" d="M64 490q0 218 138 361q138 142 351 142q141 0 257 -70q58 -35 103.5 -86t74.5 -108q14 -28 25 -58.5t17 -62.5q12 -68 12 -198v-317q3 -16 11 -24t18.5 -12t22 -6.5t21.5 -7t16.5 -13t7.5 -25.5q0 -4 -4 -4h-268h-1v486q0 151 -86 248q-87 95 -225 95q-136 0 -225 -94 q-88 -96 -88 -242q0 -151 91 -248q90 -96 230 -96q65 0 124 22q30 11 60 27.5t61 39.5v-188q-62 -34 -126 -50q-33 -8 -68 -12t-71 -4q-69 0 -138 21q-68 22 -124 60q-105 73 -161 181q-56 110 -56 243z" />
<glyph unicode="b" horiz-adv-x="1151" d="M110 563v727v131h268q4 0 4 -4q-1 -25 -14.5 -33.5t-30 -12.5t-31.5 -11t-20 -29v-845q0 -153 86 -248q87 -94 225 -94q140 0 227 94q88 95 88 250q0 147 -90 242q-23 23 -49.5 42t-55.5 31.5t-61 18.5q-19 3 -37 3q-14 0 -28 -2q-32 -6 -59 -6q-32 0 -58 8 q-48 14 -76 35q-34 25 -54 61q60 34 126 51q64 16 139 16q69 0 138 -21q69 -23 124 -60q107 -76 162 -182q56 -106 56 -239q0 -222 -138 -363q-140 -144 -350 -144q-141 0 -259 72q-116 70 -179 195q-14 27 -24 57t-17 63q-12 66 -12 197z" />
<glyph unicode="c" horiz-adv-x="786" d="M64 488q0 120 55 223q57 103 158 173q72 48 152 69q48 13 98.5 16t108.5 5h87v-167v-102q0 -4 -3 -4q-17 1 -26 8t-13 18t-6.5 23.5t-6.5 24t-12 20.5t-23 12q-12 1 -24 1q-75 0 -134 -22q-68 -25 -120 -67q-110 -89 -110 -234q0 -144 110 -233q1 0 3 -2l-4 4 q25 -20 50 -35q84 -46 196 -53h32q16 3 23.5 11.5t11.5 20t6.5 24.5t7 23.5t13 18t25.5 8.5q5 0 5 -4l-1 -269h-87h-12l-32 1q-231 11 -373 133q-155 134 -155 355z" />
<glyph unicode="d" horiz-adv-x="1151" d="M75 481q0 130 56 239q56 107 163 182q55 37 124 60q69 21 139 21q74 0 138 -16q66 -17 126 -51q-21 -36 -55 -61q-29 -21 -76 -35q-25 -8 -57 -8q-27 0 -59 6q-14 2 -28 2q-19 0 -37 -4q-32 -6 -61 -18t-56 -31t-49 -42q-89 -93 -89 -242q0 -154 87 -250q87 -94 228 -94 q137 0 224 94q86 95 86 248v845q-5 22 -20 29t-31.5 11t-30 12.5t-14.5 33.5q0 4 4 4h269v-131v-727q0 -66 -3.5 -115t-9.5 -82q-12 -65 -41 -120q-63 -125 -179 -195q-117 -72 -259 -72q-212 0 -350 144q-139 144 -139 363z" />
<glyph unicode="e" horiz-adv-x="1110" d="M67 484q0 51 9.5 99t27.5 94q37 91 108 165q71 72 160 110q93 38 190 38q148 0 265 -78q117 -79 189 -227l-639 -354q-5 21 -5 42q0 23 6 46q9 38 39.5 81t99.5 80q5 3 18.5 11t33 19t42.5 24l46 26q55 31 120 68q-43 48 -98 73q-53 25 -119 25q-131 0 -221 -98t-90 -242 t90 -241q90 -99 221 -99q125 0 208 82q28 24 44.5 46.5t39.5 43.5q46 42 81.5 60.5t59.5 24.5q28 7 49 3q-9 -52 -23 -95.5t-33.5 -81t-45 -70.5t-58.5 -63q-133 -121 -322 -121q-65 0 -128 18q-64 17 -119 51q-115 70 -181 187q-65 116 -65 253z" />
<glyph unicode="f" horiz-adv-x="792" d="M4 0v5q0 20 6 30q8 11 20 16.5t27 10.5t28 18t22.5 38t11.5 71v871q0 181 103 272q101 91 309 91h86h26q11 0 20.5 -0.5t14.5 0.5q53 -1 85.5 -27t49.5 -57q20 -37 28 -83h-205h-101q-126 0 -184 -55q-59 -54 -59 -172v-844q2 -44 12 -68.5t23 -37t28 -17.5t27.5 -10.5 t19.5 -16.5t6 -35h-404zM351 810v164h285q53 -1 85.5 -26.5t50.5 -56.5q20 -36 29 -81h-450z" />
<glyph unicode="g" horiz-adv-x="1151" d="M71 487q0 222 135 368q137 146 345 146q138 0 252 -72q114 -71 176 -198q29 -59 41 -124q12 -68 12 -201v-360q0 -242 -131 -382q-66 -70 -152.5 -110t-200.5 -40h-37.5h-57.5q-16 -1 -32.5 -1t-34.5 1q-34 0 -62.5 0.5t-47.5 2t-21 4.5q5 56 21 90.5t40.5 53t56 26 t67.5 10t76 4t80.5 9t81 25t78.5 51.5q42 44 72.5 102.5t30.5 136.5v455q0 156 -85 253q-86 97 -221 97q-134 0 -221 -96q-75 -83 -75 -211q0 -17 1 -36q3 -37 15.5 -69.5t31 -60t40.5 -50t45 -38.5q33 -24 86 -36t109 -17.5t106.5 -6.5t79.5 -2l-8 -185q-10 -6 -49 -9 q-16 -1 -36 -1q-26 0 -58 2q-55 4 -121.5 17t-132 39.5t-124.5 67.5t-98 102q-34 52 -53.5 113t-19.5 130z" />
<glyph unicode="h" horiz-adv-x="1139" d="M4 2v10q0 16 5 24q7 11 18.5 16.5t25.5 10t27.5 15t23.5 31t14 58.5v1257q7 1 13 1q41 0 75 -23q16 -11 32 -30t28 -48.5t19.5 -71t7.5 -97.5v-975q3 -42 13 -64.5t23 -34.5t27.5 -16.5t26.5 -10.5t19 -17t6 -35h-404zM353 683v202q81 36 186 36q190 0 301 -116 q113 -113 113 -312v-321h1q2 -41 11.5 -63.5t23 -34t28 -16t27 -10t19.5 -15.5q6 -9 6 -27v-6h-178h-226q-2 22 5.5 32.5t19.5 16t26.5 9.5t28 15.5t23 32.5t12.5 61v356q0 107 -67 174q-34 33 -77 50t-97 17q-104 0 -173 -67q-3 -4 -6.5 -7t-6.5 -7z" />
<glyph unicode="i" horiz-adv-x="536" d="M76 -1v9q0 18 6 27q8 11 21 16.5t28.5 11t29 19t23 40t10.5 75.5v777q52 -1 92 -35q17 -15 33 -38t28 -58t18 -83q5 -36 5 -80q0 -15 -1 -31v-451q1 -49 10.5 -75.5t23 -40.5t29 -19t28.5 -11t21 -17q6 -9 6 -27v-9h-411zM196 1199v163h6q37 0 69 -11q15 -5 29.5 -14.5 t27.5 -23.5t23 -34t15 -47v-10v-154q-42 7 -76 24q-30 14 -57.5 39.5t-36.5 67.5z" />
<glyph unicode="j" horiz-adv-x="418" d="M-360 -442q7 59 26.5 92t50 49.5t71.5 21.5t90 8q41 3 78 10q31 6 62 15.5t46 24.5q31 30 45 72.5t14 102.5v1013q52 -1 92 -35q17 -15 33 -38t28 -58t18 -83q4 -36 4 -80v-31v-126v-524q-2 -73 -13 -139q-5 -28 -12.5 -57.5t-18.5 -56.5t-26 -51t-34 -40 q-54 -44 -124.5 -67t-173.5 -23h-256zM123 1181v163h6q38 0 69 -11q29 -11 56.5 -38t37.5 -82v-8v-155q-42 7 -76 24q-29 14 -57 39.5t-36 67.5z" />
<glyph unicode="k" horiz-adv-x="1041" d="M7 0v10q0 16 5 24q7 11 18.5 17t25.5 10t27 15t23.5 31t14.5 58v1257q7 1 13 1q41 0 75 -23q16 -11 32 -30t28 -48.5t19.5 -71t7.5 -97.5v-49.5v-114v-157v-177.5v-478q3 -42 12.5 -64.5t23 -34t28 -16t26.5 -10.5t19 -17t5 -35h-403zM355 623l1 177q27 0 54.5 3t53.5 9 t48.5 15t37.5 21q10 8 25.5 29t34 50.5t39 65t40 72.5t37 73t31.5 66q10 22 26 38.5t35 27.5t40 18t42 11q33 6 69 6q16 0 33 -1l-156 -330q-46 -102 -85 -147q-41 -47 -100 -71q55 -9 94 -28.5t71 -49.5q5 -5 14 -18t19 -34t18.5 -50t12.5 -65q4 -42 7 -89.5t4.5 -94 t2.5 -87.5t1 -69q3 -40 13.5 -61.5t23.5 -32.5t27 -16t26 -11q13 -5 19 -16q6 -10 5 -29v-6h-403q-1 25 6.5 36t20 16.5t27.5 10.5t28.5 18.5t22.5 40t10 75.5h1v52t-1 69.5t-2.5 76t-4.5 71.5t-7 56t-9 30q-16 18 -40 31.5t-64.5 22.5t-100.5 13.5t-148 4.5z" />
<glyph unicode="l" horiz-adv-x="490" d="M40 0v10q0 16 5 24q7 11 18.5 16.5t25.5 10t27.5 15t23.5 30.5t14 58v1257q7 1 13 1q41 0 75 -23q16 -11 32 -30t28 -48.5t19.5 -71t7.5 -97.5v-975q3 -42 13 -65t23 -34.5t27.5 -16.5t26.5 -10.5t19 -16.5q6 -10 6 -29v-6h-198h-74t-64.5 0.5t-47 0.5h-20.5z" />
<glyph unicode="m" horiz-adv-x="1591" d="M-9 0v9q0 17 6 26q8 11 20 16.5t27.5 10.5t28.5 18t22.5 38t11.5 71v342q0 212 113 337q114 125 302 125q152 0 257 -82q-20 -24 -37 -50q-14 -23 -27.5 -52t-18.5 -58q-9 11 -27 24t-41.5 24t-51 18t-54.5 7q-106 0 -173 -73q-68 -73 -68 -188v-397q4 -38 14 -58.5 t23.5 -31t27.5 -15t25.5 -10.5t18 -17t5.5 -34h-404zM716 -8v539q0 213 103 337q104 125 277 125t277 -125q105 -125 105 -337v-342q1 -46 10 -71t21 -38t26 -18t25.5 -10.5t18.5 -16.5q5 -9 5 -25v-10h-371q-2 23 4.5 34t17 17t23.5 10.5t25 15t21.5 31t12.5 58.5v397 q0 117 -62 188q-61 73 -159 73q-97 0 -160 -73q-61 -71 -61 -188v-351q-1 -62 -18 -110q-7 -21 -18.5 -40.5t-28.5 -35t-40 -25t-54 -9.5z" />
<glyph unicode="n" horiz-adv-x="1049" d="M-12 -1v9q0 18 6 26q8 10 20 16.5t27.5 11.5t28.5 17.5t22.5 37.5t11.5 71v343q0 212 114 337q113 124 302 124q188 0 301 -124q112 -124 112 -337v-347q2 -44 12 -68t23 -36.5t28 -17.5t27.5 -11t19.5 -17q6 -10 6 -29v-6h-178h-226q-2 24 5.5 35t19.5 17t26.5 10.5 t28 16.5t23 35t12.5 66v384q0 115 -67 188q-68 72 -173 72t-174 -72q-68 -74 -68 -188v-397q4 -38 14 -59t23.5 -31.5t27.5 -15t25.5 -10.5t18 -17t5.5 -34h-404z" />
<glyph unicode="o" d="M65 489q0 100 38 193q37 91 110 165q70 72 158 109q87 37 187 37q102 0 189 -37q91 -38 159 -109q71 -73 108 -164q37 -90 37 -194t-37 -196q-38 -94 -108 -164q-68 -71 -159 -109q-90 -38 -189 -38q-97 0 -187 38q-88 37 -158 109q-73 73 -110 165q-38 93 -38 195z M247 491q0 -141 91 -240q92 -100 220 -100q129 0 220 100q92 98 92 240q0 140 -91 240q-92 98 -221 98q-128 0 -220 -98q-91 -100 -91 -240z" />
<glyph unicode="p" horiz-adv-x="1151" d="M-9 -451v10q0 16 5 25q8 11 19.5 16.5t26 10t27.5 15.5t23 32.5t13 61.5v690q0 66 3.5 115t9.5 82q12 64 41 119q61 123 179 196q118 71 258 71q211 0 351 -143q138 -143 138 -364q0 -132 -56 -238q-56 -109 -162 -182q-55 -38 -124 -60q-35 -11 -69 -16t-69 -5 q-75 0 -139 16t-126 50q20 36 54 61q29 21 76 34q27 8 59 8q27 0 58 -5q14 -1 27 -1q51 0 99 21q60 27 105 74q90 93 90 241q0 156 -88 250q-86 95 -228 95q-139 0 -224 -95q-86 -93 -86 -248v-776q4 -36 14.5 -55.5t23.5 -29.5t27 -14.5t25 -10.5t17.5 -17t5.5 -34h-404z " />
<glyph unicode="q" horiz-adv-x="1151" d="M64 486q0 221 138 364q140 143 351 143q140 0 258 -71q118 -73 179 -196q29 -55 41 -119q13 -64 13 -197v-744q3 -40 13 -61.5t23 -33t27.5 -16t26 -10.5t18.5 -17q6 -9 6 -28v-6h-404q-1 23 5.5 34t18 17t25.5 10.5t27 14.5t23.5 30t14.5 56v830q0 153 -86 248t-225 95 q-142 0 -228 -95q-87 -95 -87 -250q0 -147 89 -241q45 -47 105 -74q48 -21 99 -21q13 0 27 1q31 5 58 5q32 0 58 -8q47 -13 76 -34q34 -25 55 -61q-62 -34 -126 -50t-138 -16q-35 0 -69.5 5t-68.5 16q-67 20 -125 60q-107 75 -162 182q-56 109 -56 238z" />
<glyph unicode="r" horiz-adv-x="744" d="M3 1v10q-1 17 5 25q8 11 20 17t26.5 10.5t28 16.5t23 35t12.5 66v794h161v-144q46 87 123 124q76 30 138 32h15q53 -1 97 -13q48 -14 81.5 -39t50.5 -49q18 -25 18 -44q0 -17 -18 -17q-25 -1 -46.5 -1h-37.5h-35q-45 0 -88 -4t-81.5 -13.5t-70 -26t-52.5 -41.5 q-38 -45 -59 -113t-21 -165v-294q4 -38 14 -58.5t23.5 -31t27.5 -15t25.5 -10.5t18 -17t5.5 -34h-404z" />
<glyph unicode="s" horiz-adv-x="887" d="M74 -1v232q0 3 3 3q20 -1 26.5 -11.5t10 -23t9 -23.5t25.5 -14h312q42 0 76 2t56 17q22 16 31.5 29t9.5 39q1 23 -8.5 40t-26.5 34q-8 9 -25.5 18.5t-39 19.5t-46.5 20.5t-48 21.5l-173 84q-95 45 -141 105q-46 59 -46 136q0 110 84 173q43 32 99.5 49t130.5 17l375 4 q0 -2 -0.5 -13.5t-6 -28t-18.5 -35.5t-39 -35.5t-66.5 -28t-101.5 -13.5l-154 -3q-59 0 -94 -29q-17 -14 -23.5 -25t-6.5 -34q0 -21 5 -32.5t20 -27.5q8 -8 19.5 -13.5t27.5 -12t38 -15t51 -22.5l131 -51q50 -24 97 -50.5t79 -49.5q22 -16 39.5 -41.5t29.5 -54t18 -56.5 t6 -48q0 -62 -27.5 -106t-72.5 -79q-22 -17 -59.5 -30t-81.5 -21.5t-90.5 -12.5t-87.5 -4h-224h-102z" />
<glyph unicode="t" horiz-adv-x="645" d="M109 363v679v4v39q1 56 28 89.5t60 51.5q38 21 87 29v-238v-43v-580q0 -118 57 -172q54 -51 169 -54q16 4 21.5 15t8.5 22.5t9.5 21t26.5 10.5q3 -1 3 -3v-232v-1h-58h-21t-21 1h-2q-174 9 -265 89q-103 90 -103 272zM331 813l1 167h21q19 -1 37 -1h47q53 -1 85 -27 t49 -57q20 -36 28 -82h-227h-41z" />
<glyph unicode="u" horiz-adv-x="1049" d="M107 443v534h4q46 0 83 -23q16 -10 31.5 -27t28 -42.5t19.5 -60.5t7 -83v-330h1q0 -116 68 -187q67 -73 173 -73q107 0 174 73h-1q11 11 19 22.5t15 24.5q34 62 34 140h1v330q0 48 7 83t19 60.5t27.5 42.5t32.5 27q36 23 83 23h4v-534q0 -152 -58 -258v1q-23 -44 -55 -80 q-114 -124 -302 -124t-302 124v1l-1 -1q-16 18 -30 37.5t-25 41.5q-57 106 -57 258z" />
<glyph unicode="v" horiz-adv-x="920" d="M-4 970q2 2 5 2h9q43 0 85 -17q19 -8 40 -21.5t40.5 -34.5t37.5 -50t32 -68l212 -550l203 554q13 39 30.5 68.5t37.5 50.5t41 35t41 23q45 19 91 19h5t5 -2t2 -5.5t-2 -7.5q-5 -14 -17 -44t-33 -86l-241 -673q-32 -99 -69 -139q-39 -41 -97 -41t-96 40q-19 20 -30.5 54.5 t-27.5 84.5l-1 -1l-251 667q-21 56 -33.5 85.5t-17.5 43.5q-3 5 -3 8t2 5z" />
<glyph unicode="w" horiz-adv-x="1591" d="M10 965q2 2 6 2h9q43 0 85 -17q19 -8 40 -21.5t40.5 -34.5t37.5 -50t32 -68l211 -550l203 554q8 23 17 41.5t19 35.5q33 40 67 50q15 4 31 1.5t33 -16t34.5 -40t34.5 -70.5l212 -551l202 554q13 39 31 68.5t37.5 50.5t40.5 35t41 23q45 19 92 19h5t5 -2t2 -5.5t-2 -7.5 q-6 -14 -18 -43.5t-32 -86.5l-241 -672q-32 -101 -70 -140q-38 -41 -96 -41q-59 0 -97 41q-18 20 -30 54t-28 84h-1l-168 446l-160 -450q-32 -100 -70 -139q-38 -41 -97 -41q-58 0 -96 40q-19 20 -30.5 54.5t-27.5 84.5l-1 -1l-250 667q-22 56 -34 85.5t-18 43.5q-3 5 -3 8 t2 5z" />
<glyph unicode="x" horiz-adv-x="977" d="M4 1q3 30 10.5 38.5t21.5 13t35 14.5t52 43q9 13 21.5 30t27.5 37q33 45 76 104.5t91 125.5q11 15 22.5 30.5t23.5 31.5l-330 456l17 15q1 1 7.5 6.5t18.5 11.5q12 7 28.5 12t36.5 5q15 0 31.5 -3.5t33.5 -13.5q36 -20 66 -63l185 -272l8 -11q28 39 54 76.5t48 71 t40 60.5l30 45q22 32 43.5 53.5t43.5 34.5q21 14 41 19t37 5t30.5 -3t23.5 -8q18 -9 21 -12l20 -16l-323 -449l251 -354q24 -30 42 -45.5t32 -23t23.5 -11t16 -8t10.5 -15t6 -31.5h-205h-75.5h-65.5t-47 1h-17q1 25 11 36t22.5 15.5t25 6.5t18 10.5t1.5 27.5t-25 56 l-132 199l-127 -192q-23 -40 -28.5 -60t-0.5 -29t17 -12t24.5 -7.5t22.5 -15t11 -36.5h-403z" />
<glyph unicode="y" horiz-adv-x="1049" d="M33 958q2 2 5 2h5q46 0 91 -19q20 -9 41 -23t40.5 -35.5t37 -51t31.5 -68.5l205 -561l206 542q11 42 11 68v8q-2 26 -12.5 39t-27 17t-31 9.5t-24.5 16t-8 37.5h188h241v-8q0 -26 -12 -35q-13 -11 -33.5 -17t-43.5 -17.5t-40 -47.5l-234 -609l1 -1l-263 -664 q-22 -56 -33 -86t-16 -44q-4 -10 -9 -10q-3 0 -5 2q-38 32 -58 77q-9 19 -15 43t-6.5 53t6 62.5t23.5 71.5l112 281q-3 3 -6.5 6t-6.5 7q-39 42 -69 139l-242 673q-20 56 -32 86t-17 44q-3 4 -3 7t3 6z" />
<glyph unicode="z" horiz-adv-x="854" d="M42 106q0 10 0.5 23.5t5 31t14.5 37.5t30 44l7 9l500 579q28 35 52 62q20 23 39 41.5t27 16.5q22 -8 40 -27t27 -42.5t8 -48t-16 -43.5q-8 -15 -27.5 -42.5t-45.5 -57.5l-463 -526h476q20 3 26 13.5t10 21.5t11.5 20t31.5 9v-64v-163v-1h-185v1h-403q-88 0 -127 24 q-38 25 -38 82zM61 804q0 30 10 53t26.5 40.5t38 29.5t43.5 20q52 18 119 22h180l141 -1q11 0 19 -2q7 -2 10 -6q1 -1 1 -2q0 -3 -3 -7q-8 -12 -27.5 -36.5t-43 -49t-48.5 -43.5t-44 -20q-63 0 -135.5 0.5t-135.5 0.5h-105.5t-45.5 1z" />
<glyph unicode="{" horiz-adv-x="1024" />
<glyph unicode="|" horiz-adv-x="1024" d="M435 340v949q1 64 24.5 102.5t52.5 60.5q33 25 75 36v-814v-209.5v-202v-185v-158v-120v-71.5q0 -75 -23 -120t-52 -69q-33 -28 -76 -39q-1 462 -1 840z" />
<glyph unicode="}" horiz-adv-x="1024" />
<glyph unicode="~" horiz-adv-x="1706" />
<glyph unicode="&#xa0;" />
<glyph unicode="&#xa1;" horiz-adv-x="557" d="M200 197v891q47 5 85 -17q16 -9 31.5 -25.5t28 -43t20.5 -63.5t9 -87v-844q-46 3 -84 24q-16 9 -31.5 22.5t-28.5 33.5t-21 46.5t-9 62.5zM202 1282v163q40 1 74 -11q29 -11 56.5 -38t37.5 -81v-9v-153q-41 6 -75 23q-29 14 -57 39t-36 67z" />
<glyph unicode="&#xa2;" />
<glyph unicode="&#xa3;" />
<glyph unicode="&#xa4;" />
<glyph unicode="&#xa5;" horiz-adv-x="1139" />
<glyph unicode="&#xa6;" horiz-adv-x="1024" />
<glyph unicode="&#xa7;" horiz-adv-x="1024" />
<glyph unicode="&#xa8;" horiz-adv-x="1024" d="M238 1253q0 41 29 71t69 30t70 -30.5t30 -70.5q0 -42 -29 -71t-71 -29t-70 29t-28 71zM588 1253q0 40 30 70.5t70 30.5t69 -30t29 -71q0 -42 -28 -71t-70 -29t-71 29t-29 71z" />
<glyph unicode="&#xa9;" horiz-adv-x="1706" d="M117 727q0 147 56 281.5t163 242.5q104 104 236 158.5t280 54.5q152 0 285.5 -54.5t238.5 -160.5q104 -103 159.5 -238.5t55.5 -283.5q0 -149 -54.5 -281.5t-158.5 -234.5q-110 -107 -245.5 -164t-280.5 -57t-278.5 56t-239.5 163q-106 105 -161.5 238.5t-55.5 279.5z M213 727q0 -126 49 -242t141 -209q92 -91 207.5 -139.5t243.5 -48.5q125 0 242 49t213 142q90 88 137 202.5t47 245.5q0 130 -47.5 246.5t-136.5 206.5q-93 92 -209 140t-246 48q-129 0 -243.5 -47t-204.5 -137q-93 -93 -143 -211.5t-50 -245.5zM463 733q0 200 109 322.5 t286 122.5q142 0 236.5 -75t105.5 -196h-147q-13 77 -66 118.5t-139 41.5q-105 0 -165 -90.5t-60 -249.5q0 -157 62 -244.5t173 -87.5q82 0 136.5 47t68.5 129h145q-9 -130 -107.5 -211t-248.5 -81q-182 0 -285.5 120t-103.5 334z" />
<glyph unicode="&#xaa;" horiz-adv-x="864" d="M40 1098q0 161 102 266q101 105 259 105q103 0 190 -51q43 -26 76.5 -64t55.5 -80q11 -20 18.5 -43t11.5 -46q10 -49 10 -147v-234q3 -18 14 -23.5t23.5 -8.5t22.5 -9t11 -24q0 -3 -3 -3h-198h-1v359q0 112 -63 183q-64 70 -167 70q-100 0 -166 -69q-65 -70 -65 -179 q0 -112 67 -183q68 -71 170 -71q48 0 92 16q23 8 45 20.5t45 29.5v-139q-23 -12 -46 -21.5t-48 -15.5q-48 -12 -102 -12q-26 0 -51.5 4t-50.5 12q-50 14 -92 44q-78 53 -119 134q-41 82 -41 180z" />
<glyph unicode="&#xab;" horiz-adv-x="1042" />
<glyph unicode="&#xac;" horiz-adv-x="1706" />
<glyph unicode="&#xad;" horiz-adv-x="676" d="M91 566q88 -1 160 -1h60h55h41.5h21.5q31 1 54 -5.5t39.5 -17.5t27.5 -26t18 -30q16 -36 15 -83l-337 -1q-32 1 -55 8.5t-40 19.5t-28 26.5t-18 29.5q-16 35 -14 80z" />
<glyph unicode="&#xae;" horiz-adv-x="1706" d="M117 727q0 146 57.5 282.5t165.5 245.5q101 103 231.5 156t280.5 53q151 0 286 -56t240 -163q103 -104 158 -238t55 -280q0 -151 -55 -283.5t-160 -234.5q-109 -106 -244.5 -162.5t-279.5 -56.5q-147 0 -280.5 56.5t-239.5 164.5q-105 106 -160 238.5t-55 277.5zM213 727 q0 -125 48.5 -240.5t139.5 -207.5q90 -92 206.5 -141.5t240.5 -49.5q130 0 246.5 48t212.5 140q90 88 138 202.5t48 242.5q0 134 -46.5 251t-135.5 206q-92 93 -208.5 141.5t-248.5 48.5q-130 0 -245 -47t-201 -135q-94 -95 -144.5 -214t-50.5 -245zM557 324v835h315 q174 0 261.5 -57.5t87.5 -171.5q0 -89 -50 -148t-141 -77l187 -381h-177l-170 356h-155v-356h-158zM715 780h133q113 0 162 31.5t49 101.5q0 76 -51 110t-164 34h-129v-277z" />
<glyph unicode="&#xaf;" horiz-adv-x="1024" d="M203 1314q99 -1 180 -1h67.5h61h46h23.5q31 1 54 -4t39.5 -13.5t27.5 -20t18 -23.5q16 -28 15 -65l-377 -1q-63 2 -95.5 22.5t-45.5 43.5q-16 27 -14 62z" />
<glyph unicode="&#xb0;" horiz-adv-x="674" d="M49 1167q0 120 84.5 204.5t204.5 84.5q118 0 202.5 -84.5t84.5 -204.5q0 -119 -84 -202.5t-205 -83.5t-204 83t-83 203zM143 1169q0 -81 57 -138.5t138 -57.5t136.5 57.5t55.5 138.5t-55.5 137t-136.5 56t-138 -56t-57 -137z" />
<glyph unicode="&#xb1;" horiz-adv-x="1706" />
<glyph unicode="&#xb2;" horiz-adv-x="735" d="M53 662q0 22 17.5 47.5t50.5 50.5l338 246q52 39 76 80.5t24 91.5q0 69 -51 114t-129 45q-80 0 -131 -46.5t-51 -119.5q0 -72 46 -117t129 -55l-112 -79q-94 33 -144 97.5t-50 151.5q0 121 89.5 200t227.5 79q136 0 223.5 -75.5t87.5 -192.5q0 -79 -43 -145.5 t-139 -133.5l-299 -213h477v-115h-522q-55 0 -85 23.5t-30 65.5z" />
<glyph unicode="&#xb3;" horiz-adv-x="735" d="M63 573v115h277q102 0 155.5 39.5t53.5 114.5q0 70 -50.5 110.5t-138.5 40.5h-167v80l296 252h-403v107h395q68 0 102.5 -22.5t34.5 -66.5q0 -24 -11 -47t-32 -41l-192 -163q143 -2 221 -68.5t78 -187.5q0 -117 -84 -190t-219 -73h-316z" />
<glyph unicode="&#xb4;" horiz-adv-x="1024" d="M386 1044l151 253q17 27 36.5 45t40.5 29.5t42 17t41 7.5q46 4 92 -8l-198 -243q-40 -51 -76.5 -73t-65.5 -28q-33 -8 -63 0z" />
<glyph unicode="&#xb5;" horiz-adv-x="1151" />
<glyph unicode="&#xb6;" horiz-adv-x="1024" d="M66 1130q0 157 107.5 253t285.5 96h499v-86h-120v-1393h-111v1393h-176v-1393h-113v782q-170 8 -271 102.5t-101 245.5z" />
<glyph unicode="&#xb7;" horiz-adv-x="557" d="M160 729q0 50 34 84.5t85 34.5q50 0 84 -34.5t34 -84.5q0 -49 -34.5 -83t-83.5 -34q-50 0 -84.5 34t-34.5 83z" />
<glyph unicode="&#xb8;" horiz-adv-x="1024" />
<glyph unicode="&#xb9;" horiz-adv-x="735" d="M168 1325l39 107h260v-859h-129v752h-170z" />
<glyph unicode="&#xba;" horiz-adv-x="836" d="M47 1090q0 73 28 137.5t83 113.5q52 52 118.5 78.5t141.5 26.5t142.5 -27t119.5 -78q54 -50 82.5 -115t28.5 -136q0 -73 -29 -138.5t-82 -115.5q-52 -50 -119 -76.5t-143 -26.5t-142 26t-118 77q-55 51 -83 115.5t-28 138.5zM182 1092q0 -101 69 -170.5t167 -69.5 t166.5 69.5t68.5 170.5q0 99 -68.5 168t-166.5 69t-167 -69t-69 -168z" />
<glyph unicode="&#xbb;" horiz-adv-x="1042" d="M115 184l250 322l-250 317h161l252 -317l-252 -322h-161zM489 184l250 322l-250 317h162l252 -317l-252 -322h-162z" />
<glyph unicode="&#xbc;" horiz-adv-x="1745" d="M158 1329l39 101h245v-801h-123v700h-161zM360 0l887 1432h137l-876 -1432h-148zM1075 258q0 16 5.5 33t17.5 39l291 471h133l-314 -508h265v340l114 184v-524h139v-105h-139v-188h-114v188h-312q-45 0 -65.5 17t-20.5 53z" />
<glyph unicode="&#xbd;" horiz-adv-x="1745" d="M158 1329l39 101h245v-801h-123v700h-161zM360 0l887 1432h137l-876 -1432h-148zM1096 82q0 21 16 45t47 47l324 229q49 36 72.5 75.5t23.5 86.5q0 64 -49 106t-125 42q-75 0 -124.5 -44t-49.5 -110q0 -68 44.5 -111t123.5 -51l-107 -75q-90 32 -138 92.5t-48 142.5 q0 112 86.5 185t218.5 73q129 0 212 -69.5t83 -178.5q0 -74 -41 -136.5t-131 -125.5l-287 -199h455v-106h-498q-51 0 -79.5 21.5t-28.5 60.5z" />
<glyph unicode="&#xbe;" horiz-adv-x="1745" d="M61 629v106h265q95 0 146.5 38t51.5 108q0 65 -48 103t-132 38h-160v72l283 235h-385v101h377q65 0 99 -21t34 -61q0 -23 -11.5 -44.5t-31.5 -37.5l-184 -154q138 -2 212 -63.5t74 -174.5q0 -109 -80 -177t-209 -68h-301zM360 0l887 1432h137l-876 -1432h-148zM1075 258 q0 16 5.5 33t17.5 39l291 471h133l-314 -508h265v340l114 184v-524h139v-105h-139v-188h-114v188h-312q-45 0 -65.5 17t-20.5 53z" />
<glyph unicode="&#xbf;" horiz-adv-x="1024" d="M73 412q0 170 104 272q104 103 289 113v154v4v1q0 31 8 54.5t20.5 39.5t28 26.5t31.5 16.5q38 14 86 12v-455q-10 0 -23 0.5t-38 0.5q-148 0 -228 -64t-80 -179q0 -87 45 -148q10 -14 23 -26q70 -68 176 -68q48 0 90 14q20 6 38 16t33 23q5 4 8.5 8t8.5 9h1 q31 34 48 81.5t19 108.5h182q-1 -99 -32 -180q-10 -29 -24.5 -54.5t-33.5 -48.5q-15 -20 -33 -36q-121 -121 -315 -121q-189 0 -310 120q-8 8 -15 15.5t-13 15.5q-94 112 -94 275zM467 1160v154v9q10 55 38 82t57 38q34 12 75 11v-163q-9 -42 -37 -68t-57 -40 q-35 -17 -76 -23z" />
<glyph unicode="&#xc0;" horiz-adv-x="1229" d="M-2 1q-2 27 6.5 38.5t22 18t30 12t31 20.5t24.5 43.5t11 81.5v361v328q0 258 134 407q133 151 356 151q222 0 356 -151q134 -149 134 -407l1 -689q1 -52 9.5 -81t21.5 -43.5t27.5 -20.5t27 -12t20.5 -17t7 -36q0 -1 -0.5 -3t-5.5 -2q-90 0 -150.5 0.5t-103 0.5h-72h-56.5 q-4 0 -5 2t-1 4q0 24 8 35t20 16.5t27 11.5t27.5 21t21 43.5t9.5 80.5v458q-114 -1 -215 -1h-303q-20 0 -26 4t-6 9t3 9.5t2 4.5q43 65 100.5 97t118 44t119.5 11.5t105.5 -1.5t75.5 5.5t30 32.5q1 15 -0.5 51.5t-7.5 80.5t-18.5 88.5t-34.5 75.5q-18 25 -44 48t-57 40 t-66 27t-71 10q-37 0 -73.5 -10t-70 -27t-62 -39t-47.5 -47q-78 -99 -78 -286v-229.5v-170.5v-121.5v-82v-51.5v-30q1 -53 11 -81.5t24.5 -43.5t31 -20.5t30 -12t22 -18.5t6.5 -39q-103 0 -172.5 0.5t-118 0.5h-82h-64.5zM453 1906q32 11 64 5q27 -5 57.5 -27.5t55.5 -75.5 l87 -219q-30 -17 -62 -10q-14 3 -29 11.5t-31.5 25.5t-33.5 43t-33 65q-2 4 -6 14t-10 23.5t-12.5 29.5t-12.5 32q-16 38 -34 83z" />
<glyph unicode="&#xc1;" horiz-adv-x="1229" d="M-2 1q-2 27 6.5 38.5t22 18t30 12t31 20.5t24.5 43.5t11 81.5v361v328q0 258 134 407q133 151 356 151q222 0 356 -151q134 -149 134 -407l1 -689q1 -52 9.5 -81t21.5 -43.5t27.5 -20.5t27 -12t20.5 -17t7 -36q0 -1 -0.5 -3t-5.5 -2q-90 0 -150.5 0.5t-103 0.5h-72h-56.5 q-4 0 -5 2t-1 4q0 24 8 35t20 16.5t27 11.5t27.5 21t21 43.5t9.5 80.5v458q-114 -1 -215 -1h-303q-20 0 -26 4t-6 9t3 9.5t2 4.5q43 65 100.5 97t118 44t119.5 11.5t105.5 -1.5t75.5 5.5t30 32.5q1 15 -0.5 51.5t-7.5 80.5t-18.5 88.5t-34.5 75.5q-18 25 -44 48t-57 40 t-66 27t-71 10q-37 0 -73.5 -10t-70 -27t-62 -39t-47.5 -47q-78 -99 -78 -286v-229.5v-170.5v-121.5v-82v-51.5v-30q1 -53 11 -81.5t24.5 -43.5t31 -20.5t30 -12t22 -18.5t6.5 -39q-103 0 -172.5 0.5t-118 0.5h-82h-64.5zM615 1525l151 253q17 27 36.5 45t40.5 29.5t42 17 t41 7.5q46 4 92 -8l-198 -243q-40 -51 -76.5 -73t-65.5 -28q-33 -8 -63 0z" />
<glyph unicode="&#xc2;" horiz-adv-x="1229" />
<glyph unicode="&#xc3;" horiz-adv-x="1229" d="M-2 1q-2 27 6.5 38.5t22 18t30 12t31 20.5t24.5 43.5t11 81.5v361v328q0 258 134 407q133 151 356 151q222 0 356 -151q134 -149 134 -407l1 -689q1 -52 9.5 -81t21.5 -43.5t27.5 -20.5t27 -12t20.5 -17t7 -36q0 -1 -0.5 -3t-5.5 -2q-90 0 -150.5 0.5t-103 0.5h-72h-56.5 q-4 0 -5 2t-1 4q0 24 8 35t20 16.5t27 11.5t27.5 21t21 43.5t9.5 80.5v458q-114 -1 -215 -1h-303q-20 0 -26 4t-6 9t3 9.5t2 4.5q43 65 100.5 97t118 44t119.5 11.5t105.5 -1.5t75.5 5.5t30 32.5q1 15 -0.5 51.5t-7.5 80.5t-18.5 88.5t-34.5 75.5q-18 25 -44 48t-57 40 t-66 27t-71 10q-37 0 -73.5 -10t-70 -27t-62 -39t-47.5 -47q-78 -99 -78 -286v-229.5v-170.5v-121.5v-82v-51.5v-30q1 -53 11 -81.5t24.5 -43.5t31 -20.5t30 -12t22 -18.5t6.5 -39q-103 0 -172.5 0.5t-118 0.5h-82h-64.5z" />
<glyph unicode="&#xc4;" horiz-adv-x="1229" d="M-2 1q-2 27 6.5 38.5t22 18t30 12t31 20.5t24.5 43.5t11 81.5v361v328q0 258 134 407q133 151 356 151q222 0 356 -151q134 -149 134 -407l1 -689q1 -52 9.5 -81t21.5 -43.5t27.5 -20.5t27 -12t20.5 -17t7 -36q0 -1 -0.5 -3t-5.5 -2q-90 0 -150.5 0.5t-103 0.5h-72h-56.5 q-4 0 -5 2t-1 4q0 24 8 35t20 16.5t27 11.5t27.5 21t21 43.5t9.5 80.5v458q-114 -1 -215 -1h-303q-20 0 -26 4t-6 9t3 9.5t2 4.5q43 65 100.5 97t118 44t119.5 11.5t105.5 -1.5t75.5 5.5t30 32.5q1 15 -0.5 51.5t-7.5 80.5t-18.5 88.5t-34.5 75.5q-18 25 -44 48t-57 40 t-66 27t-71 10q-37 0 -73.5 -10t-70 -27t-62 -39t-47.5 -47q-78 -99 -78 -286v-229.5v-170.5v-121.5v-82v-51.5v-30q1 -53 11 -81.5t24.5 -43.5t31 -20.5t30 -12t22 -18.5t6.5 -39q-103 0 -172.5 0.5t-118 0.5h-82h-64.5zM340 1724q0 41 29 71t69 30t70 -30.5t30 -70.5 q0 -42 -29 -71t-71 -29t-70 29t-28 71zM690 1724q0 40 30 70.5t70 30.5t69 -30t29 -71q0 -42 -28 -71t-70 -29t-71 29t-29 71z" />
<glyph unicode="&#xc5;" horiz-adv-x="1229" d="M117 0v899q0 256 135.5 406.5t361.5 150.5t362 -150.5t136 -406.5v-899h-190v657h-557v181h557v57q0 187 -79.5 286t-228.5 99t-228 -99t-79 -286v-895h-190zM381 1741q0 98 67.5 164.5t165.5 66.5q99 0 165.5 -66.5t66.5 -164.5q0 -99 -67 -166.5t-165 -67.5 t-165.5 67.5t-67.5 166.5zM479 1739q0 -56 39.5 -94.5t95.5 -38.5t95 38.5t39 94.5t-39 95.5t-95 39.5t-95.5 -39.5t-39.5 -95.5z" />
<glyph unicode="&#xc6;" horiz-adv-x="1892" />
<glyph unicode="&#xc7;" horiz-adv-x="1020" d="M46 718q0 196 90 352q90 157 262 262q81 49 203 75t280 26l55 -1v-152v-56t0.5 -48.5t0.5 -35v-13.5q0 -7 -3 -8t-8 -2q-16 3 -26 15t-16.5 28t-11.5 34.5t-11.5 33.5t-15.5 25t-24 10q-258 -10 -413 -146q-168 -147 -168 -399q0 -253 168 -400q152 -134 407 -146 q27 2 38.5 23.5t19 47.5t17.5 48.5t35 27.5q5 -1 8 -2t3 -8v-309h-55q-158 0 -280 26q-122 24 -203 75q-172 105 -262 262t-90 355z" />
<glyph unicode="&#xc8;" horiz-adv-x="1040" d="M65 705v12q0 196 90 354q89 156 263 262q81 49 204 76q119 25 281 25h55v-152v-56t0.5 -49t0.5 -35.5v-13.5q0 -7 -3 -8.5t-8 -1.5q-16 3 -26 15t-17 28t-12 34.5t-11.5 33.5t-15.5 25t-24 10q-259 -10 -414 -146q-128 -113 -159 -286h95t102 -0.5t99 -0.5t86.5 -0.5 t64 -1.5t32.5 -2q21 -3 46.5 -13t50 -26.5t45 -39t29.5 -50.5q1 -3 1.5 -7.5t-3 -9t-13.5 -7t-30 -2.5h-486v1h-179h-142q-1 10 -1.5 18t-0.5 14zM69 610h196q14 -93 54.5 -162t108.5 -129q153 -135 409 -147q27 2 38.5 23.5t19 47.5t17.5 49t35 28q5 -1 8 -2t3 -8v-310h-55 q-81 0 -150.5 6.5t-130.5 18.5q-123 26 -204 76q-173 105 -263 263q-33 59 -55.5 118t-30.5 128zM521 1906q32 11 64 5q27 -5 57.5 -27.5t55.5 -75.5l87 -219q-30 -17 -62 -10q-14 3 -29 11.5t-31.5 25.5t-33.5 43t-33 65q-2 4 -6 14t-10 23.5t-12.5 29.5t-12.5 32 q-16 38 -34 83z" />
<glyph unicode="&#xc9;" horiz-adv-x="1040" d="M65 705v12q0 196 90 354q89 156 263 262q81 49 204 76q119 25 281 25h55v-152v-56t0.5 -49t0.5 -35.5v-13.5q0 -7 -3 -8.5t-8 -1.5q-16 3 -26 15t-17 28t-12 34.5t-11.5 33.5t-15.5 25t-24 10q-259 -10 -414 -146q-128 -113 -159 -286h95t102 -0.5t99 -0.5t86.5 -0.5 t64 -1.5t32.5 -2q21 -3 46.5 -13t50 -26.5t45 -39t29.5 -50.5q1 -3 1.5 -7.5t-3 -9t-13.5 -7t-30 -2.5h-486v1h-179h-142q-1 10 -1.5 18t-0.5 14zM69 610h196q14 -93 54.5 -162t108.5 -129q153 -135 409 -147q27 2 38.5 23.5t19 47.5t17.5 49t35 28q5 -1 8 -2t3 -8v-310h-55 q-81 0 -150.5 6.5t-130.5 18.5q-123 26 -204 76q-173 105 -263 263q-33 59 -55.5 118t-30.5 128zM556 1515l151 253q17 27 36.5 45t40.5 29.5t42 17t41 7.5q46 4 92 -8l-198 -243q-40 -51 -76.5 -73t-65.5 -28q-33 -8 -63 0z" />
<glyph unicode="&#xca;" horiz-adv-x="1040" />
<glyph unicode="&#xcb;" horiz-adv-x="1040" d="M65 705v12q0 196 90 354q89 156 263 262q81 49 204 76q119 25 281 25h55v-152v-56t0.5 -49t0.5 -35.5v-13.5q0 -7 -3 -8.5t-8 -1.5q-16 3 -26 15t-17 28t-12 34.5t-11.5 33.5t-15.5 25t-24 10q-259 -10 -414 -146q-128 -113 -159 -286h95t102 -0.5t99 -0.5t86.5 -0.5 t64 -1.5t32.5 -2q21 -3 46.5 -13t50 -26.5t45 -39t29.5 -50.5q1 -3 1.5 -7.5t-3 -9t-13.5 -7t-30 -2.5h-486v1h-179h-142q-1 10 -1.5 18t-0.5 14zM69 610h196q14 -93 54.5 -162t108.5 -129q153 -135 409 -147q27 2 38.5 23.5t19 47.5t17.5 49t35 28q5 -1 8 -2t3 -8v-310h-55 q-81 0 -150.5 6.5t-130.5 18.5q-123 26 -204 76q-173 105 -263 263q-33 59 -55.5 118t-30.5 128zM408 1724q0 41 29 71t69 30t70 -30.5t30 -70.5q0 -42 -29 -71t-71 -29t-70 29t-28 71zM758 1724q0 40 30 70.5t70 30.5t69 -30t29 -71q0 -42 -28 -71t-70 -29t-71 29t-29 71z " />
<glyph unicode="&#xcc;" horiz-adv-x="465" d="M10 0q-2 27 6.5 38.5t22.5 18t30.5 12t31 20.5t24.5 43.5t11 81.5h2v1025h-2q-3 45 -13.5 69.5t-24.5 37.5t-29.5 18t-28.5 11t-21.5 17t-7.5 35q0 2 0.5 3.5t6.5 1.5h426q5 0 6 -2t1 -4q0 -23 -8 -34t-21 -16.5t-28 -10.5t-29 -17.5t-24.5 -35.5t-13.5 -65h-1v-1070 q4 -40 15.5 -62t25.5 -33t29.5 -16t27.5 -11.5t19.5 -18.5t5.5 -37zM74 1906q32 11 64 5q27 -5 57.5 -27.5t55.5 -75.5l87 -219q-30 -17 -62 -10q-14 3 -29 11.5t-31.5 25.5t-33.5 43t-33 65q-2 4 -6 14t-10 23.5t-12.5 29.5t-12.5 32q-16 38 -34 83z" />
<glyph unicode="&#xcd;" horiz-adv-x="465" d="M10 0q-2 27 6.5 38.5t22.5 18t30.5 12t31 20.5t24.5 43.5t11 81.5h2v1025h-2q-3 45 -13.5 69.5t-24.5 37.5t-29.5 18t-28.5 11t-21.5 17t-7.5 35q0 2 0.5 3.5t6.5 1.5h426q5 0 6 -2t1 -4q0 -23 -8 -34t-21 -16.5t-28 -10.5t-29 -17.5t-24.5 -35.5t-13.5 -65h-1v-1070 q4 -40 15.5 -62t25.5 -33t29.5 -16t27.5 -11.5t19.5 -18.5t5.5 -37zM204 1510l151 253q17 27 36.5 45t40.5 29.5t42 17t41 7.5q46 4 92 -8l-198 -243q-40 -51 -76.5 -73t-65.5 -28q-33 -8 -63 0z" />
<glyph unicode="&#xce;" horiz-adv-x="465" />
<glyph unicode="&#xcf;" horiz-adv-x="465" d="M-39 1724q0 41 29 71t69 30t70 -30.5t30 -70.5q0 -42 -29 -71t-71 -29t-70 29t-28 71zM10 0q-2 27 6.5 38.5t22.5 18t30.5 12t31 20.5t24.5 43.5t11 81.5h2v1025h-2q-3 45 -13.5 69.5t-24.5 37.5t-29.5 18t-28.5 11t-21.5 17t-7.5 35q0 2 0.5 3.5t6.5 1.5h426q5 0 6 -2 t1 -4q0 -23 -8 -34t-21 -16.5t-28 -10.5t-29 -17.5t-24.5 -35.5t-13.5 -65h-1v-1070q4 -40 15.5 -62t25.5 -33t29.5 -16t27.5 -11.5t19.5 -18.5t5.5 -37zM311 1724q0 40 30 70.5t70 30.5t69 -30t29 -71q0 -42 -28 -71t-70 -29t-71 29t-29 71z" />
<glyph unicode="&#xd0;" horiz-adv-x="1292" />
<glyph unicode="&#xd1;" horiz-adv-x="1290" d="M19 1q-2 27 6.5 39t21.5 18t29 11.5t30.5 20.5t24 44t10.5 82v1027q0 102 40 155q40 54 116 54q52 0 96 -35q42 -36 78 -108l454 -954v-344q-17 18 -42 49t-43 64l-519 1081v-989q1 -53 10.5 -82t24 -44t30.5 -20.5t29 -11.5t21.5 -18t6.5 -39h-186h-238zM362 1609 q4 30 16.5 52.5t30.5 38.5t39.5 27t43.5 17q51 15 114 14h161l218 -2q-8 -42 -35 -75q-12 -14 -29.5 -28t-42.5 -24.5t-57.5 -16.5t-75.5 -6h-132t-121.5 0.5t-90.5 1t-39 1.5zM864 1436h240h189q2 -27 -6.5 -39t-21.5 -18.5t-29 -12t-30.5 -20.5t-24 -44t-10.5 -82v-1031 q0 -96 -40 -153q-40 -55 -112 -55q-9 0 -15.5 1t-14.5 3l-1 1235q-1 53 -11 82.5t-24 44t-30.5 20.5t-30 12t-22 18t-6.5 39z" />
<glyph unicode="&#xd2;" horiz-adv-x="1583" d="M72 722q0 148 54 282q54 133 159 239q103 105 234 159q129 55 276 55q142 0 275 -56q66 -28 124.5 -67.5t110.5 -92.5q105 -108 158 -238q54 -134 54 -281q0 -152 -55 -284q-54 -133 -157 -238q-52 -54 -110.5 -93.5t-124.5 -68.5q-131 -55 -275 -55q-147 0 -276 55 q-131 55 -234 159q-105 108 -159 241t-54 284zM265 723q0 -57 10 -111t30 -105q40 -100 117 -182q38 -39 81 -69.5t91 -50.5q97 -42 201 -42q106 0 201 42q48 20 90 50.5t80 69.5q38 42 67 87.5t49 96.5q41 102 41 214q0 57 -10 110t-30 104q-39 98 -117 181q-38 41 -80 71 t-90 51q-95 42 -201 42q-105 0 -202 -41q-96 -42 -171 -120q-77 -82 -118 -183q-39 -101 -39 -215zM632 1906q32 11 64 5q27 -5 57.5 -27.5t55.5 -75.5l87 -219q-30 -17 -62 -10q-14 3 -29 11.5t-31.5 25.5t-33.5 43t-33 65q-2 4 -6 14t-10 23.5t-12.5 29.5t-12.5 32 q-16 38 -34 83z" />
<glyph unicode="&#xd3;" horiz-adv-x="1583" d="M72 722q0 148 54 282q54 133 159 239q103 105 234 159q129 55 276 55q142 0 275 -56q66 -28 124.5 -67.5t110.5 -92.5q105 -108 158 -238q54 -134 54 -281q0 -152 -55 -284q-54 -133 -157 -238q-52 -54 -110.5 -93.5t-124.5 -68.5q-131 -55 -275 -55q-147 0 -276 55 q-131 55 -234 159q-105 108 -159 241t-54 284zM265 723q0 -57 10 -111t30 -105q40 -100 117 -182q38 -39 81 -69.5t91 -50.5q97 -42 201 -42q106 0 201 42q48 20 90 50.5t80 69.5q38 42 67 87.5t49 96.5q41 102 41 214q0 57 -10 110t-30 104q-39 98 -117 181q-38 41 -80 71 t-90 51q-95 42 -201 42q-105 0 -202 -41q-96 -42 -171 -120q-77 -82 -118 -183q-39 -101 -39 -215zM676 1515l151 253q17 27 36.5 45t40.5 29.5t42 17t41 7.5q46 4 92 -8l-198 -243q-40 -51 -76.5 -73t-65.5 -28q-33 -8 -63 0z" />
<glyph unicode="&#xd4;" horiz-adv-x="1583" />
<glyph unicode="&#xd5;" horiz-adv-x="1583" d="M72 722q0 148 54 282q54 133 159 239q103 105 234 159q129 55 276 55q142 0 275 -56q66 -28 124.5 -67.5t110.5 -92.5q105 -108 158 -238q54 -134 54 -281q0 -152 -55 -284q-54 -133 -157 -238q-52 -54 -110.5 -93.5t-124.5 -68.5q-131 -55 -275 -55q-147 0 -276 55 q-131 55 -234 159q-105 108 -159 241t-54 284zM265 723q0 -57 10 -111t30 -105q40 -100 117 -182q38 -39 81 -69.5t91 -50.5q97 -42 201 -42q106 0 201 42q48 20 90 50.5t80 69.5q38 42 67 87.5t49 96.5q41 102 41 214q0 57 -10 110t-30 104q-39 98 -117 181q-38 41 -80 71 t-90 51q-95 42 -201 42q-105 0 -202 -41q-96 -42 -171 -120q-77 -82 -118 -183q-39 -101 -39 -215z" />
<glyph unicode="&#xd6;" horiz-adv-x="1583" d="M72 722q0 148 54 282q54 133 159 239q103 105 234 159q129 55 276 55q142 0 275 -56q66 -28 124.5 -67.5t110.5 -92.5q105 -108 158 -238q54 -134 54 -281q0 -152 -55 -284q-54 -133 -157 -238q-52 -54 -110.5 -93.5t-124.5 -68.5q-131 -55 -275 -55q-147 0 -276 55 q-131 55 -234 159q-105 108 -159 241t-54 284zM265 723q0 -57 10 -111t30 -105q40 -100 117 -182q38 -39 81 -69.5t91 -50.5q97 -42 201 -42q106 0 201 42q48 20 90 50.5t80 69.5q38 42 67 87.5t49 96.5q41 102 41 214q0 57 -10 110t-30 104q-39 98 -117 181q-38 41 -80 71 t-90 51q-95 42 -201 42q-105 0 -202 -41q-96 -42 -171 -120q-77 -82 -118 -183q-39 -101 -39 -215zM519 1724q0 41 29 71t69 30t70 -30.5t30 -70.5q0 -42 -29 -71t-71 -29t-70 29t-28 71zM869 1724q0 40 30 70.5t70 30.5t69 -30t29 -71q0 -42 -28 -71t-70 -29t-71 29t-29 71 z" />
<glyph unicode="&#xd7;" horiz-adv-x="1706" d="M312 1060q34 31 72 44q16 6 34.5 8t38.5 -2.5t41 -16.5t42 -34q17 -18 40 -43.5t49 -54t53.5 -58.5t54.5 -59q62 -68 130 -142l460 421q31 -33 47 -67q7 -15 10.5 -31t2 -33.5t-9.5 -35t-25 -33.5q-18 -17 -43 -40t-54.5 -50t-61.5 -56.5t-63 -57.5q-72 -66 -152 -138 l431 -472q-34 -30 -70 -45q-15 -6 -32.5 -9.5t-35.5 -1.5t-36.5 11t-36.5 27q-12 13 -33 36t-47.5 52t-56.5 61.5t-59 64.5q-69 75 -148 162l-460 -421q-35 30 -49 66q-6 15 -8 33.5t3 38.5t18.5 42.5t38.5 45.5t53 49t57 52.5l58 53t55 50.5q62 56 123 112z" />
<glyph unicode="&#xd8;" horiz-adv-x="1583" />
<glyph unicode="&#xd9;" horiz-adv-x="1229" d="M-1 1430h440q2 -27 -6 -38.5t-21.5 -18t-29.5 -12t-30.5 -19t-25 -40.5t-12.5 -76v-683q0 -186 78 -285q80 -98 227 -98q148 0 228 98q79 100 79 285v692q-3 46 -13.5 71t-25 38t-30.5 18t-29.5 11.5t-21.5 18t-6 37.5h441q2 -27 -6.5 -38.5t-22 -18t-30 -11.5t-31 -19 t-25 -42t-11.5 -78v-688q0 -254 -135 -404t-361 -150t-359 150q-136 149 -136 404v700q-2 46 -13 71.5t-25.5 38.5t-30.5 18.5t-29 11.5t-21 18t-6 38zM453 1906q32 11 64 5q27 -5 57.5 -27.5t55.5 -75.5l87 -219q-30 -17 -62 -10q-14 3 -29 11.5t-31.5 25.5t-33.5 43 t-33 65q-2 4 -6 14t-10 23.5t-12.5 29.5t-12.5 32q-16 38 -34 83z" />
<glyph unicode="&#xda;" horiz-adv-x="1229" d="M-1 1430h440q2 -27 -6 -38.5t-21.5 -18t-29.5 -12t-30.5 -19t-25 -40.5t-12.5 -76v-683q0 -186 78 -285q80 -98 227 -98q148 0 228 98q79 100 79 285v692q-3 46 -13.5 71t-25 38t-30.5 18t-29.5 11.5t-21.5 18t-6 37.5h441q2 -27 -6.5 -38.5t-22 -18t-30 -11.5t-31 -19 t-25 -42t-11.5 -78v-688q0 -254 -135 -404t-361 -150t-359 150q-136 149 -136 404v700q-2 46 -13 71.5t-25.5 38.5t-30.5 18.5t-29 11.5t-21 18t-6 38zM606 1515l151 253q17 27 36.5 45t40.5 29.5t42 17t41 7.5q46 4 92 -8l-198 -243q-40 -51 -76.5 -73t-65.5 -28 q-33 -8 -63 0z" />
<glyph unicode="&#xdb;" horiz-adv-x="1229" />
<glyph unicode="&#xdc;" horiz-adv-x="1229" d="M-18 1430h440q2 -27 -6 -38.5t-21.5 -18t-29.5 -12t-30.5 -19t-25 -40.5t-12.5 -76v-683q0 -186 78 -285q80 -98 227 -98q148 0 228 98q79 100 79 285v692q-3 46 -13.5 71t-25 38t-30.5 18t-29.5 11.5t-21.5 18t-6 37.5h441q2 -27 -6.5 -38.5t-22 -18t-30 -11.5t-31 -19 t-25 -42t-11.5 -78v-688q0 -254 -135 -404t-361 -150t-359 150q-136 149 -136 404v700q-2 46 -13 71.5t-25.5 38.5t-30.5 18.5t-29 11.5t-21 18t-6 38zM340 1724q0 41 29 71t69 30t70 -30.5t30 -70.5q0 -42 -29 -71t-71 -29t-70 29t-28 71zM690 1724q0 40 30 70.5t70 30.5 t69 -30t29 -71q0 -42 -28 -71t-70 -29t-71 29t-29 71z" />
<glyph unicode="&#xdd;" horiz-adv-x="1110" d="M117 1088v101v198q0 28 13.5 35.5t33 0.5t43 -25t44 -40t34 -44.5t14.5 -38.5q3 -87 3 -138v-51q0 -152 64 -232q64 -81 186 -81q121 0 186 81q65 80 65 232v55t2 139q0 16 14 38.5t34 44.5t43.5 40t44 25t33.5 -0.5t13 -35.5v-6v1v-299q0 -193 -86 -312 q-87 -119 -258 -163v-425q3 -45 13.5 -69t24.5 -36.5t29 -17.5t27.5 -11.5t20 -18t6.5 -36.5h-424q-2 27 6.5 38t21.5 17.5t29 11.5t30 19.5t23.5 42.5t10.5 79h1v406q-171 44 -258 163q-87 118 -87 312zM434 1515l151 253q17 27 36.5 45t40.5 29.5t42 17t41 7.5q46 4 92 -8 l-198 -243q-40 -51 -76.5 -73t-65.5 -28q-33 -8 -63 0z" />
<glyph unicode="&#xde;" horiz-adv-x="1110" />
<glyph unicode="&#xdf;" horiz-adv-x="1147" d="M6 776v166h117v115q0 186 100.5 290.5t278.5 104.5q152 0 251 -83t99 -208q0 -96 -55 -164t-183 -129l148 -63q151 -64 235 -174.5t84 -243.5q0 -182 -127.5 -284.5t-357.5 -102.5h-227v170h239q134 0 212.5 62.5t78.5 168.5q0 86 -56 149t-194 128q-16 8 -48 22 q-183 83 -183 162q0 73 153 154l11 6q44 24 66 55t22 70q0 57 -47 96t-117 39q-104 0 -155.5 -64t-51.5 -194v-1024h-176v776h-117z" />
<glyph unicode="&#xe0;" horiz-adv-x="1151" d="M64 490q0 218 138 361q138 142 351 142q141 0 257 -70q58 -35 103.5 -86t74.5 -108q14 -28 25 -58.5t17 -62.5q12 -68 12 -198v-317q3 -16 11 -24t18.5 -12t22 -6.5t21.5 -7t16.5 -13t7.5 -25.5q0 -4 -4 -4h-268h-1v486q0 151 -86 248q-87 95 -225 95q-136 0 -225 -94 q-88 -96 -88 -242q0 -151 91 -248q90 -96 230 -96q65 0 124 22q30 11 60 27.5t61 39.5v-188q-62 -34 -126 -50q-33 -8 -68 -12t-71 -4q-69 0 -138 21q-68 22 -124 60q-105 73 -161 181q-56 110 -56 243zM414 1435q32 11 64 5q27 -5 57.5 -27.5t55.5 -75.5l87 -219 q-30 -17 -62 -10q-14 3 -29 11.5t-31.5 25.5t-33.5 43t-33 65q-2 4 -6 14t-10 23.5t-12.5 29.5t-12.5 32q-16 38 -34 83z" />
<glyph unicode="&#xe1;" horiz-adv-x="1151" d="M64 490q0 -133 56 -243q56 -108 161 -181q56 -38 124 -60q69 -21 138 -21q36 0 71 4t68 12q64 16 126 50v188q-31 -23 -61 -39.5t-60 -27.5q-59 -22 -124 -22q-140 0 -230 96q-91 97 -91 248q0 146 88 242q89 94 225 94q138 0 225 -95q86 -97 86 -248v-486h1h268q4 0 4 4 q-1 17 -7.5 25.5t-16.5 13t-21.5 7t-22 6.5t-18.5 12t-11 24v317q0 130 -12 198q-6 32 -17 62.5t-25 58.5q-29 57 -74.5 108t-103.5 86q-116 70 -257 70q-213 0 -351 -142q-138 -143 -138 -361zM434 1044l151 253q17 27 36.5 45t40.5 29.5t42 17t41 7.5q46 4 92 -8 l-198 -243q-40 -51 -76.5 -73t-65.5 -28q-33 -8 -63 0z" />
<glyph unicode="&#xe2;" horiz-adv-x="1151" />
<glyph unicode="&#xe3;" horiz-adv-x="1151" d="M64 490q0 218 138 361q138 142 351 142q141 0 257 -70q58 -35 103.5 -86t74.5 -108q14 -28 25 -58.5t17 -62.5q12 -68 12 -198v-317q3 -16 11 -24t18.5 -12t22 -6.5t21.5 -7t16.5 -13t7.5 -25.5q0 -4 -4 -4h-268h-1v486q0 151 -86 248q-87 95 -225 95q-136 0 -225 -94 q-88 -96 -88 -242q0 -151 91 -248q90 -96 230 -96q65 0 124 22q30 11 60 27.5t61 39.5v-188q-62 -34 -126 -50q-33 -8 -68 -12t-71 -4q-69 0 -138 21q-68 22 -124 60q-105 73 -161 181q-56 110 -56 243z" />
<glyph unicode="&#xe4;" horiz-adv-x="1151" d="M64 490q0 218 138 361q138 142 351 142q141 0 257 -70q58 -35 103.5 -86t74.5 -108q14 -28 25 -58.5t17 -62.5q12 -68 12 -198v-317q3 -16 11 -24t18.5 -12t22 -6.5t21.5 -7t16.5 -13t7.5 -25.5q0 -4 -4 -4h-268h-1v486q0 151 -86 248q-87 95 -225 95q-136 0 -225 -94 q-88 -96 -88 -242q0 -151 91 -248q90 -96 230 -96q65 0 124 22q30 11 60 27.5t61 39.5v-188q-62 -34 -126 -50q-33 -8 -68 -12t-71 -4q-69 0 -138 21q-68 22 -124 60q-105 73 -161 181q-56 110 -56 243zM301 1253q0 41 29 71t69 30t70 -30.5t30 -70.5q0 -42 -29 -71t-71 -29 t-70 29t-28 71zM651 1253q0 40 30 70.5t70 30.5t69 -30t29 -71q0 -42 -28 -71t-70 -29t-71 29t-29 71z" />
<glyph unicode="&#xe5;" horiz-adv-x="1151" d="M63 492q0 220 139 363.5t353 143.5q141 0 258 -71t180 -195q29 -56 41.5 -122.5t12.5 -198.5v-412h-177v489q0 154 -87 249.5t-226 95.5q-138 0 -226.5 -94.5t-88.5 -243.5q0 -152 91 -249t232 -97q64 0 124.5 22t121.5 68v-189q-60 -34 -126.5 -50.5t-139.5 -16.5 q-70 0 -139 21.5t-125 60.5q-106 73 -162 182.5t-56 243.5zM350 1315q0 104 72 176t176 72t176 -72t72 -176q0 -105 -72 -176.5t-176 -71.5t-176 71.5t-72 176.5zM455 1315q0 -60 41.5 -102t101.5 -42t100.5 42t40.5 102t-40.5 100.5t-100.5 40.5q-61 0 -102 -40.5 t-41 -100.5z" />
<glyph unicode="&#xe6;" horiz-adv-x="1804" />
<glyph unicode="&#xe7;" horiz-adv-x="786" d="M64 488q0 120 55 223q57 103 158 173q72 48 152 69q48 13 98.5 16t108.5 5h87v-167v-102q0 -4 -3 -4q-17 1 -26 8t-13 18t-6.5 23.5t-6.5 24t-12 20.5t-23 12q-90 4 -158 -21t-120 -67q-110 -89 -110 -234q0 -144 110 -233q1 0 3 -2l-4 4q25 -20 50 -35q84 -46 196 -53 h32q16 3 23.5 11.5t11.5 20t6.5 24.5t7 23.5t13 18t25.5 8.5q5 0 5 -4l-1 -269h-87h-12l-32 1q-231 11 -373 133q-155 134 -155 355z" />
<glyph unicode="&#xe8;" horiz-adv-x="1110" d="M67 484q0 51 9.5 99t27.5 94q37 91 108 165q71 72 160 110q93 38 190 38q148 0 265 -78q117 -79 189 -227l-639 -354q-10 44 1 88q9 38 39.5 81t99.5 80q5 3 18.5 11t33 19t42.5 24l46 26q55 31 120 68q-43 48 -98 73q-53 25 -119 25q-131 0 -221 -98t-90 -242t90 -241 q90 -99 221 -99q125 0 208 82q28 24 44.5 46.5t39.5 43.5q46 42 81.5 60.5t59.5 24.5q28 7 49 3q-9 -52 -23 -95.5t-33.5 -81t-45 -70.5t-58.5 -63q-133 -121 -322 -121q-65 0 -128 18q-64 17 -119 51q-115 70 -181 187q-65 116 -65 253zM394 1435q32 11 64 5 q27 -5 57.5 -27.5t55.5 -75.5l87 -219q-30 -17 -62 -10q-14 3 -29 11.5t-31.5 25.5t-33.5 43t-33 65q-2 4 -6 14t-10 23.5t-12.5 29.5t-12.5 32q-16 38 -34 83z" />
<glyph unicode="&#xe9;" horiz-adv-x="1110" d="M67 484q0 51 9.5 99t27.5 94q37 91 108 165q71 72 160 110q93 38 190 38q148 0 265 -78q117 -79 189 -227l-639 -354q-10 44 1 88q9 38 39.5 81t99.5 80q5 3 18.5 11t33 19t42.5 24l46 26q55 31 120 68q-43 48 -98 73q-53 25 -119 25q-131 0 -221 -98t-90 -242t90 -241 q90 -99 221 -99q125 0 208 82q28 24 44.5 46.5t39.5 43.5q46 42 81.5 60.5t59.5 24.5q28 7 49 3q-9 -52 -23 -95.5t-33.5 -81t-45 -70.5t-58.5 -63q-133 -121 -322 -121q-65 0 -128 18q-64 17 -119 51q-115 70 -181 187q-65 116 -65 253zM389 1044l151 253q17 27 36.5 45 t40.5 29.5t42 17t41 7.5q46 4 92 -8l-198 -243q-40 -51 -76.5 -73t-65.5 -28q-33 -8 -63 0z" />
<glyph unicode="&#xea;" horiz-adv-x="1110" />
<glyph unicode="&#xeb;" horiz-adv-x="1110" d="M67 484q0 51 9.5 99t27.5 94q37 91 108 165q71 72 160 110q93 38 190 38q148 0 265 -78q117 -79 189 -227l-639 -354q-10 44 1 88q9 38 39.5 81t99.5 80q5 3 18.5 11t33 19t42.5 24l46 26q55 31 120 68q-43 48 -98 73q-53 25 -119 25q-131 0 -221 -98t-90 -242t90 -241 q90 -99 221 -99q125 0 208 82q28 24 44.5 46.5t39.5 43.5q46 42 81.5 60.5t59.5 24.5q28 7 49 3q-9 -52 -23 -95.5t-33.5 -81t-45 -70.5t-58.5 -63q-133 -121 -322 -121q-65 0 -128 18q-64 17 -119 51q-115 70 -181 187q-65 116 -65 253zM281 1253q0 41 29 71t69 30 t70 -30.5t30 -70.5q0 -42 -29 -71t-71 -29t-70 29t-28 71zM631 1253q0 40 30 70.5t70 30.5t69 -30t29 -71q0 -42 -28 -71t-70 -29t-71 29t-29 71z" />
<glyph unicode="&#xec;" horiz-adv-x="418" d="M0 -1q-2 25 6 36t21 16.5t28.5 11t29 19t23 40t10.5 75.5v777q52 -1 92 -35q17 -15 33 -38t28 -58t18 -82.5t4 -111.5v-451q1 -49 10.5 -75.5t23 -40.5t29 -19t28.5 -11t21 -17t6 -36h-411zM48 1454q32 11 64 5q27 -5 57.5 -27.5t55.5 -75.5l87 -219q-30 -17 -62 -10 q-14 3 -29 11.5t-31.5 25.5t-33.5 43t-33 65q-2 4 -6 14t-10 23.5t-12.5 29.5t-12.5 32q-16 38 -34 83z" />
<glyph unicode="&#xed;" horiz-adv-x="418" d="M8 -1h411q2 25 -6 36t-21 17t-28.5 11t-29 19t-23 40.5t-10.5 75.5v451q2 64 -4 111.5t-18 82.5t-28 58t-33 38q-40 34 -92 35v-777q-1 -49 -10.5 -75.5t-23 -40t-29 -19t-28.5 -11t-21 -16.5t-6 -36zM127 1044l151 253q17 27 36.5 45t40.5 29.5t42 17t41 7.5q46 4 92 -8 l-198 -243q-40 -51 -76.5 -73t-65.5 -28q-33 -8 -63 0z" />
<glyph unicode="&#xee;" horiz-adv-x="418" />
<glyph unicode="&#xef;" horiz-adv-x="418" d="M-63 1253q0 41 29 71t69 30t70 -30.5t30 -70.5q0 -42 -29 -71t-71 -29t-70 29t-28 71zM121 0v981h176v-981h-176zM287 1253q0 40 30 70.5t70 30.5t69 -30t29 -71q0 -42 -28 -71t-70 -29t-71 29t-29 71z" />
<glyph unicode="&#xf0;" />
<glyph unicode="&#xf1;" horiz-adv-x="1049" d="M-8 1q-2 25 5.5 35.5t20 16.5t27.5 11t28 17.5t22.5 37.5t11.5 71v343q0 212 113 337q115 124 303 124t301 -124q112 -126 112 -337v-347q2 -44 12 -68t23 -36.5t28 -17.5t27 -11t19.5 -17t5.5 -35h-177h-226q-2 24 5.5 35t19.5 17t26.5 10.5t28 16.5t23 35t12.5 66v384 q0 115 -67 188q-68 72 -173 72t-174 -72q-68 -74 -68 -188v-397q4 -38 14 -59t23.5 -31.5t27.5 -15t25.5 -10.5t18 -17t5.5 -34h-178h-225zM259 1119q3 30 14 52t26 38t33.5 26.5t36.5 16.5q43 15 96 14h135l184 -2q-6 -41 -30 -74q-10 -14 -25 -27t-36 -23.5t-48.5 -16.5 t-63.5 -6q-54 0 -110 -0.5t-102 0t-76.5 1t-33.5 1.5z" />
<glyph unicode="&#xf2;" d="M65 489q0 100 38 193q37 91 110 165q70 72 158 109q87 37 187 37q102 0 189 -37q91 -38 159 -109q71 -73 108 -164q37 -90 37 -194t-37 -196q-38 -94 -108 -164q-68 -71 -159 -109q-90 -38 -189 -38q-97 0 -187 38q-88 37 -158 109q-73 73 -110 165q-38 93 -38 195z M247 491q0 -141 91 -240q92 -100 220 -100q129 0 220 100q92 98 92 240q0 140 -91 240q-92 98 -221 98q-128 0 -220 -98q-91 -100 -91 -240zM396 1435q32 11 64 5q27 -5 57.5 -27.5t55.5 -75.5l87 -219q-30 -17 -62 -10q-14 3 -29 11.5t-31.5 25.5t-33.5 43t-33 65 q-2 4 -6 14t-10 23.5t-12.5 29.5t-12.5 32q-16 38 -34 83z" />
<glyph unicode="&#xf3;" d="M65 489q0 100 38 193q37 91 110 165q70 72 158 109q87 37 187 37q102 0 189 -37q91 -38 159 -109q71 -73 108 -164q37 -90 37 -194t-37 -196q-38 -94 -108 -164q-68 -71 -159 -109q-90 -38 -189 -38q-97 0 -187 38q-88 37 -158 109q-73 73 -110 165q-38 93 -38 195z M247 491q0 -141 91 -240q92 -100 220 -100q129 0 220 100q92 98 92 240q0 140 -91 240q-92 98 -221 98q-128 0 -220 -98q-91 -100 -91 -240zM492 1044l151 253q17 27 36.5 45t40.5 29.5t42 17t41 7.5q46 4 92 -8l-198 -243q-40 -51 -76.5 -73t-65.5 -28q-33 -8 -63 0z" />
<glyph unicode="&#xf4;" />
<glyph unicode="&#xf5;" d="M65 489q0 100 38 193q37 91 110 165q70 72 158 109q87 37 187 37q102 0 189 -37q91 -38 159 -109q71 -73 108 -164q37 -90 37 -194t-37 -196q-38 -94 -108 -164q-68 -71 -159 -109q-90 -38 -189 -38q-97 0 -187 38q-88 37 -158 109q-73 73 -110 165q-38 93 -38 195z M247 491q0 -141 91 -240q92 -100 220 -100q129 0 220 100q92 98 92 240q0 140 -91 240q-92 98 -221 98q-128 0 -220 -98q-91 -100 -91 -240z" />
<glyph unicode="&#xf6;" d="M65 489q0 100 38 193q37 91 110 165q70 72 158 109q87 37 187 37q102 0 189 -37q91 -38 159 -109q71 -73 108 -164q37 -90 37 -194t-37 -196q-38 -94 -108 -164q-68 -71 -159 -109q-90 -38 -189 -38q-97 0 -187 38q-88 37 -158 109q-73 73 -110 165q-38 93 -38 195z M247 491q0 -141 91 -240q92 -100 220 -100q129 0 220 100q92 98 92 240q0 140 -91 240q-92 98 -221 98q-128 0 -220 -98q-91 -100 -91 -240zM283 1253q0 41 29 71t69 30t70 -30.5t30 -70.5q0 -42 -29 -71t-71 -29t-70 29t-28 71zM633 1253q0 40 30 70.5t70 30.5t69 -30 t29 -71q0 -42 -28 -71t-70 -29t-71 29t-29 71z" />
<glyph unicode="&#xf7;" horiz-adv-x="1706" d="M255 680h1042q53 -2 85 -23.5t50 -47.5q21 -31 30 -69q-246 1 -454 1h-177.5h-165.5t-135.5 -0.5t-85.5 -0.5q-62 -1 -99 21.5t-57 48.5q-24 31 -33 70zM764 219v132q46 1 83 -10q32 -9 58 -31t27 -65v-7v-125q-46 0 -83 11q-32 10 -58 31.5t-27 63.5zM769 958v132 q46 1 83 -10q32 -9 58 -31t27 -65v-7v-125q-46 0 -83 11q-32 10 -58 31.5t-27 63.5z" />
<glyph unicode="&#xf8;" d="M23 20l145 154q-53 70 -80 148.5t-27 166.5q0 102 36.5 193.5t105.5 163.5q72 75 163.5 115t190.5 40q82 0 157 -26.5t140 -79.5l139 145l88 -84l-139 -145q56 -73 83.5 -152t27.5 -167q0 -220 -146.5 -365t-369.5 -145q-74 0 -144.5 26t-138.5 78l-143 -149zM244 496 q0 -56 12.5 -102.5t38.5 -86.5l442 467q-43 31 -87 46.5t-91 15.5q-129 0 -222 -100t-93 -240zM375 215q38 -30 83.5 -45.5t96.5 -15.5q136 0 225.5 96.5t89.5 243.5q0 51 -12.5 97.5t-38.5 90.5z" />
<glyph unicode="&#xf9;" horiz-adv-x="1049" d="M107 443v534q48 1 87 -23q16 -10 31.5 -27t28 -42.5t19.5 -60.5t7 -83v-330h1q0 -116 68 -187q67 -73 173 -73q107 0 174 73h-1q11 11 19 22.5t15 24.5q34 62 34 140h1v330q0 48 7 83t19 60.5t27.5 42.5t32.5 27q38 24 87 23v-534q0 -152 -58 -258v1q-23 -44 -55 -80 q-114 -124 -302 -124t-302 124v1l-1 -1q-16 18 -30 37.5t-25 41.5q-57 106 -57 258zM363 1435q32 11 64 5q27 -5 57.5 -27.5t55.5 -75.5l87 -219q-30 -17 -62 -10q-14 3 -29 11.5t-31.5 25.5t-33.5 43t-33 65q-2 4 -6 14t-10 23.5t-12.5 29.5t-12.5 32q-16 38 -34 83z" />
<glyph unicode="&#xfa;" horiz-adv-x="1049" d="M109 443q0 -152 57 -258q11 -22 25 -41.5t30 -37.5l1 1v-1q114 -124 302 -124t302 124q32 36 55 80v-1q58 106 58 258v534q-49 1 -87 -23q-17 -10 -32.5 -27t-27.5 -42.5t-19 -60.5t-7 -83v-330h-1q0 -78 -34 -140q-7 -13 -15 -24.5t-19 -22.5h1q-67 -73 -174 -73 q-106 0 -173 73q-68 71 -68 187h-1v330q0 48 -7 83t-19.5 60.5t-28 42.5t-31.5 27q-39 24 -87 23v-534zM429 1044l151 253q17 27 36.5 45t40.5 29.5t42 17t41 7.5q46 4 92 -8l-198 -243q-40 -51 -76.5 -73t-65.5 -28q-33 -8 -63 0z" />
<glyph unicode="&#xfb;" horiz-adv-x="1049" />
<glyph unicode="&#xfc;" horiz-adv-x="1049" d="M107 443v534q48 1 87 -23q16 -10 31.5 -27t28 -42.5t19.5 -60.5t7 -83v-330h1q0 -116 68 -187q67 -73 173 -73q107 0 174 73h-1q11 11 19 22.5t15 24.5q34 62 34 140h1v330q0 48 7 83t19 60.5t27.5 42.5t32.5 27q38 24 87 23v-534q0 -152 -58 -258v1q-23 -44 -55 -80 q-114 -124 -302 -124t-302 124v1l-1 -1q-16 18 -30 37.5t-25 41.5q-57 106 -57 258zM264 1230v132q46 1 83 -10q32 -9 58 -31t27 -65v-7v-125q-46 0 -83 11q-32 10 -58 31.5t-27 63.5zM616 1234v132q46 1 83 -10q32 -9 58 -31t27 -65v-7v-125q-46 0 -83 11q-32 10 -58 31.5 t-27 63.5z" />
<glyph unicode="&#xfd;" horiz-adv-x="1049" d="M30.5 953q0.5 3 2.5 5t5 2q49 1 96 -19q20 -9 41 -23t40.5 -35.5t37 -51t31.5 -68.5l205 -561l206 542q13 49 11 75.5t-12.5 39.5t-27 17t-31 9.5t-24.5 16t-8 37.5h188h241q2 -33 -11.5 -43.5t-34 -16.5t-43.5 -17.5t-40 -47.5l-234 -609l1 -1l-263 -664 q-22 -56 -33 -86t-16 -44q-4 -10 -9 -10q-3 0 -5 2q-38 32 -58 77q-9 19 -15 43t-6.5 53t6 62.5t23.5 71.5l112 281q-3 3 -6.5 6t-6.5 7q-39 42 -69 139l-242 673q-20 56 -32 86t-17 44q-3 5 -2.5 8zM398 1044l151 253q17 27 36.5 45t40.5 29.5t42 17t41 7.5q46 4 92 -8 l-198 -243q-40 -51 -76.5 -73t-65.5 -28q-33 -8 -63 0z" />
<glyph unicode="&#xfe;" horiz-adv-x="1151" />
<glyph unicode="&#xff;" horiz-adv-x="1049" d="M30.5 953q0.5 3 2.5 5t5 2q49 1 96 -19q20 -9 41 -23t40.5 -35.5t37 -51t31.5 -68.5l205 -561l206 542q13 49 11 75.5t-12.5 39.5t-27 17t-31 9.5t-24.5 16t-8 37.5h188h241q2 -33 -11.5 -43.5t-34 -16.5t-43.5 -17.5t-40 -47.5l-234 -609l1 -1l-263 -664 q-22 -56 -33 -86t-16 -44q-4 -10 -9 -10q-3 0 -5 2q-38 32 -58 77q-9 19 -15 43t-6.5 53t6 62.5t23.5 71.5l112 281q-3 3 -6.5 6t-6.5 7q-39 42 -69 139l-242 673q-20 56 -32 86t-17 44q-3 5 -2.5 8zM250 1253q0 41 29 71t69 30t70 -30.5t30 -70.5q0 -42 -29 -71t-71 -29 t-70 29t-28 71zM600 1253q0 40 30 70.5t70 30.5t69 -30t29 -71q0 -42 -28 -71t-70 -29t-71 29t-29 71z" />
<glyph unicode="&#x152;" horiz-adv-x="2290" />
<glyph unicode="&#x153;" horiz-adv-x="1911" />
<glyph unicode="&#x178;" horiz-adv-x="1110" d="M117 1088v101v198q0 28 13.5 35.5t33 0.5t43 -25t44 -40t34 -44.5t14.5 -38.5q3 -87 3 -138v-51q0 -152 64 -232q64 -81 186 -81q121 0 186 81q65 80 65 232v55t2 139q0 16 14 38.5t34 44.5t43.5 40t44 25t33.5 -0.5t13 -35.5v-6v1v-299q0 -193 -86 -312 q-87 -119 -258 -163v-425q3 -45 13.5 -69t24.5 -36.5t29 -17.5t27.5 -11.5t20 -18t6.5 -36.5h-424q-2 27 6.5 38t21.5 17.5t29 11.5t30 19.5t23.5 42.5t10.5 79h1v406q-171 44 -258 163q-87 118 -87 312zM281 1724q0 41 29 71t69 30t70 -30.5t30 -70.5q0 -42 -29 -71 t-71 -29t-70 29t-28 71zM631 1724q0 40 30 70.5t70 30.5t69 -30t29 -71q0 -42 -28 -71t-70 -29t-71 29t-29 71z" />
<glyph unicode="&#x2c6;" horiz-adv-x="1662" d="M37 476q0 217 136 357q77 80 180 115q76 27 168 27q139 0 254 -70q114 -68 176 -192q28 -53 40 -118q6 -32 9.5 -80t3.5 -113v-46q10 -78 62 -134q68 -71 171 -71q104 0 170 71q20 23 34 47q32 59 32 138h1v324q0 46 7 81t18.5 60t27 41.5t31.5 26.5q38 24 86 23v-525 q0 -147 -56 -253h-1q-23 -42 -54 -78q-111 -122 -296 -122q-136 0 -233 67v-318q2 -43 12 -66t23.5 -34.5t28.5 -16.5t27.5 -10.5t19.5 -16t6 -34.5h-16t-29 -0.5t-37 -0.5h-41h-108h-181q-2 24 5.5 34.5t20 16.5t27.5 11t28.5 17t23.5 36t12 68h1v738q0 149 -85 243 q-86 93 -221 93q-59 0 -107 -16q-62 -22 -112 -75q-86 -93 -86 -246q0 -146 88 -237q23 -24 50.5 -43.5t58.5 -31.5q48 -17 103 -18h11t21 1l24 2t20 3q30 5 58 15q62 23 119 67l-1 -186q-23 -13 -43.5 -21.5t-44.5 -16.5q-8 -3 -17 -5.5t-17 -4.5q-64 -16 -137 -16 q-68 0 -135 21q-34 11 -64.5 25t-57.5 34q-105 72 -160 178t-55 235z" />
<glyph unicode="&#x2dc;" horiz-adv-x="1024" />
<glyph unicode="&#x2000;" horiz-adv-x="986" />
<glyph unicode="&#x2001;" horiz-adv-x="1972" />
<glyph unicode="&#x2002;" horiz-adv-x="986" />
<glyph unicode="&#x2003;" horiz-adv-x="1972" />
<glyph unicode="&#x2004;" horiz-adv-x="657" />
<glyph unicode="&#x2005;" horiz-adv-x="493" />
<glyph unicode="&#x2006;" horiz-adv-x="328" />
<glyph unicode="&#x2007;" horiz-adv-x="328" />
<glyph unicode="&#x2008;" horiz-adv-x="246" />
<glyph unicode="&#x2009;" horiz-adv-x="394" />
<glyph unicode="&#x200a;" horiz-adv-x="109" />
<glyph unicode="&#x2010;" horiz-adv-x="676" d="M80 562q88 -1 160 -1h60h55h41.5h21.5q31 1 54 -5.5t39.5 -17.5t27.5 -26t18 -30q16 -36 15 -83l-337 -1q-32 1 -55 8.5t-39.5 19.5t-27.5 26.5t-18 29.5q-16 35 -15 80z" />
<glyph unicode="&#x2011;" horiz-adv-x="676" d="M80 562q88 -1 160 -1h60h55h41.5h21.5q31 1 54 -5.5t39.5 -17.5t27.5 -26t18 -30q16 -36 15 -83l-337 -1q-32 1 -55 8.5t-39.5 19.5t-27.5 26.5t-18 29.5q-16 35 -15 80z" />
<glyph unicode="&#x2012;" horiz-adv-x="676" d="M80 562q88 -1 160 -1h60h55h41.5h21.5q31 1 54 -5.5t39.5 -17.5t27.5 -26t18 -30q16 -36 15 -83l-337 -1q-32 1 -55 8.5t-39.5 19.5t-27.5 26.5t-18 29.5q-16 35 -15 80z" />
<glyph unicode="&#x2013;" horiz-adv-x="1024" d="M-21 574h408h158t147 0.5t118.5 0.5h73.5q53 -1 85 -23.5t50 -48.5q21 -32 30 -71q-207 1 -385 1h-496q-62 -1 -99 21.5t-57 48.5q-24 31 -33 71z" />
<glyph unicode="&#x2014;" horiz-adv-x="2048" d="M14 582q495 0 895 1h227h217.5t196.5 0.5t163.5 0.5h118.5h62q26 -1 47 -7.5t37.5 -16.5t29 -23t21.5 -26q21 -31 30 -70q-481 1 -873 1h-223h-214h-194.5h-163.5t-121 -0.5t-67 -0.5q-62 -1 -99 21.5t-57 48.5q-24 31 -33 71z" />
<glyph unicode="&#x2018;" horiz-adv-x="557" d="M164 1017l57 265q7 30 19.5 51.5t27.5 35t32 21.5t33 11q38 8 81 -3q-16 -69 -28 -124q-5 -24 -10.5 -47.5t-9.5 -43t-7 -33.5t-4 -18q-6 -30 -17 -51.5t-25.5 -35t-31.5 -21t-33 -10.5q-39 -8 -84 3z" />
<glyph unicode="&#x2019;" horiz-adv-x="557" d="M170 1032l57 265q7 30 19.5 51.5t27.5 35t32 21.5t33 11q38 8 81 -3q-16 -69 -28 -124q-5 -24 -10.5 -47.5t-9.5 -43t-7 -33.5t-4 -18q-6 -30 -17 -51.5t-25.5 -35t-31.5 -21t-33 -10.5q-39 -8 -84 3z" />
<glyph unicode="&#x201a;" horiz-adv-x="557" d="M133 -192l57 265q7 30 19.5 51.5t27.5 35t32 21.5t33 11q38 8 81 -3q-16 -69 -28 -124q-5 -24 -10.5 -47.5t-9.5 -43t-7 -33.5t-4 -18q-6 -30 -17 -51.5t-25.5 -35t-31.5 -21t-33 -10.5q-39 -8 -84 3z" />
<glyph unicode="&#x201c;" horiz-adv-x="862" d="M282 1077l87 218q24 54 55 76t58 27q32 6 64 -4q-19 -46 -34 -84q-7 -16 -13.5 -32t-12 -29.5t-9.5 -23.5t-6 -14q-17 -39 -33.5 -65t-33 -42.5t-32 -25t-28.5 -11.5q-32 -7 -62 10zM470 1077l87 218q24 54 54.5 76t57.5 27q32 6 64 -4q-19 -46 -34 -84q-6 -16 -12.5 -32 t-12 -29.5t-10 -23.5t-5.5 -14q-17 -39 -33.5 -65t-33 -42.5t-32 -25t-28.5 -11.5q-32 -7 -62 10z" />
<glyph unicode="&#x201d;" horiz-adv-x="862" d="M237 1061l87 218q24 54 55 76t58 27q32 6 64 -4q-19 -46 -34 -84q-7 -16 -13.5 -32t-12 -29.5t-9.5 -23.5t-6 -14q-17 -39 -33.5 -65t-33 -42.5t-32 -25t-28.5 -11.5q-32 -7 -62 10zM425 1061l87 218q24 54 54.5 76t57.5 27q32 6 64 -4q-19 -46 -34 -84q-6 -16 -12.5 -32 t-12 -29.5t-10 -23.5t-5.5 -14q-17 -39 -33.5 -65t-33 -42.5t-32 -25t-28.5 -11.5q-32 -7 -62 10z" />
<glyph unicode="&#x201e;" horiz-adv-x="862" d="M187 -156l87 218q24 54 55 76t58 27q32 6 64 -4q-19 -46 -34 -84q-7 -16 -13.5 -32t-12 -29.5t-9.5 -23.5t-6 -14q-17 -39 -33.5 -65t-33 -42.5t-32 -25t-28.5 -11.5q-32 -7 -62 10zM375 -156l87 218q24 54 54.5 76t57.5 27q32 6 64 -4q-19 -46 -34 -84q-6 -16 -12.5 -32 t-12 -29.5t-10 -23.5t-5.5 -14q-17 -39 -33.5 -65t-33 -42.5t-32 -25t-28.5 -11.5q-32 -7 -62 10z" />
<glyph unicode="&#x2022;" horiz-adv-x="1208" d="M387 606v299q105 2 189 -23q36 -11 70 -28t61 -43t43.5 -62t17.5 -84v-16v-283q-105 -1 -189 25q-36 10 -70 27.5t-61 43.5t-43.5 61.5t-17.5 82.5z" />
<glyph unicode="&#x2026;" horiz-adv-x="2048" d="M-72 109v132q46 1 83 -10q32 -9 58 -31t27 -65v-7v-125q-46 0 -83 11q-32 10 -58 31.5t-27 63.5zM608 109v132q46 1 83 -10q32 -9 58 -31t27 -65v-7v-125q-46 0 -83 11q-32 10 -58 31.5t-27 63.5zM1293 109v132q46 1 83 -10q32 -9 58 -31t27 -65v-7v-125q-46 0 -83 11 q-32 10 -58 31.5t-27 63.5z" />
<glyph unicode="&#x202f;" horiz-adv-x="394" />
<glyph unicode="&#x2039;" horiz-adv-x="668" />
<glyph unicode="&#x203a;" horiz-adv-x="668" />
<glyph unicode="&#x205f;" horiz-adv-x="493" />
<glyph unicode="&#x20ac;" />
<glyph unicode="&#x2122;" horiz-adv-x="1706" d="M296 1393q2 5 9.5 12t17.5 16q17 16 37.5 24t38.5 7h380q15 0 20.5 -2.5t4 -7.5t-9 -12t-17.5 -16q-17 -16 -37.5 -24t-38.5 -7h-116v-412q1 -29 9.5 -39.5t18 -14.5t16.5 -7.5t6 -19.5h-77h-46q-17 0 -33 0.5t-19 0.5q-1 15 6.5 18.5t16.5 7.5t17.5 14t9.5 39v413h-189 q-16 0 -21.5 2.5t-3.5 7.5zM689 892q-1 16 6.5 19.5t18 7t20.5 14t14 40.5l60 420q6 33 20 50q16 18 40 18q8 0 16 -3l-11 -103l-53 -384q-3 -21 -1 -32.5t6.5 -16.5t11 -6.5t12 -3t9.5 -5.5t3 -15h-76h-96zM886 1319q0 14 2.5 36t5.5 44q4 26 8 54q8 -7 14.5 -21t11.5 -28 l126 -400l123 400q5 14 11 24.5t14 17.5q15 15 36 15q25 0 40 -18q14 -15 20 -50l62 -432q5 -24 15 -32t20 -11.5t16.5 -7t5.5 -18.5h-172q-1 16 7 18.5t17 5.5t15.5 13t1.5 42h1l-53 380l-1 4l-128 -413q-9 -28 -22 -43q-12 -13 -29 -13q-19 0 -31 13q-11 11 -22 43 q-32 103 -57 185q-11 35 -21 68.5t-18.5 60.5t-13.5 44t-5 19z" />
<glyph unicode="&#xe000;" horiz-adv-x="975" d="M0 0v975h975v-975h-975z" />
</font>
</defs>
</svg>
