<svg xmlns="http://www.w3.org/2000/svg">
<defs>
<font id="AraHamahZanki-Regular" horiz-adv-x="0" >
  <font-face 
    font-family="Ara Hamah Zanki"
    font-weight="400"
    font-stretch="normal"
    units-per-em="1500"
    panose-1="0 0 5 0 0 0 0 0 0 0"
    ascent="1200"
    descent="-300"
    x-height="655"
    cap-height="923"
    bbox="-219.167 -505 1659 1188"
    underline-thickness="50"
    underline-position="-50"
    unicode-range="U+000D-FEFC"
  />
<missing-glyph horiz-adv-x="897" 
d="M448 997h9q7 -1 12 -1h1q154 0 274 -126q113 -119 113 -282v-3q0 -11 -1 -16v-11q-1 -5 -1 -8q-1 -2 -1.5 -6.5t-0.5 -6.5v-5l-2 -15q0 -1 -1 -2q-20 -106 -88 -188l-39 40q79 97 79 222q0 147 -104 251t-251 104t-251 -104t-104 -251q0 -126 80 -224l-38 -38
q-67 82 -87 187q0 2 -1 3l-2 15q0 2 -1 5q-1 5 -1 13q0 5 -1 8q0 9 -1 11v19q0 169 120 289t288 120zM447 936q143 0 245 -102q101 -101 101 -245q0 -122 -76 -216l-42 42q59 77 59 174q0 119 -84 203q-84 85 -203 85t-203 -85q-84 -84 -84 -203q0 -98 60 -176l-41 -42
q-78 96 -78 218q0 144 101 245q102 102 245 102zM447 868q115 0 197 -82q82 -81 82 -197q0 -95 -57 -168l-45 45q40 55 40 125q0 90 -64 154q-64 63 -154 63t-153 -63q-64 -64 -64 -154q0 -71 42 -128l-45 -44q-58 74 -58 170q0 116 82 197q82 82 197 82zM446 692
q40 0 68 -28t28 -68q0 -38 -27 -67l245 -263h-623l242 260q-30 28 -30 70q0 39 29 68q28 28 68 28zM187 164h22v3q0 17 12 29t29 12t29 -12t12 -29v-3h68l-42 23q1 2 4.5 8.5t6.5 11.5v-1l18 -10l17 -9l22 -13h1v-32h-104q-12 -16 -32 -16t-33 16h-52v82h22v-60zM460 224
v-20q7 4 18 4h61v-66h-112v22h11v60h22zM654 224v-20q8 4 18 4h62v-44h70q-7 5 -21 11l-21 12q1 4 6 10l5 9l25 -12q5 -4 10 -7l11 -7l12 -6v-1v-31h-227q-12 -23 -38 -23h-3v22h3q6 0 11 3q-13 4 -20 17q-5 8 -3 17q3 26 30 30h26v-44h22v60h22zM810 207h-16v17h16v-17z
M111 207q18 0 30 -12q13 -13 13 -31q0 -13 -8 -24h-70q-8 11 -8 24q0 18 13 31q12 12 30 12zM111 185q-20 0 -20 -21v-1h40l1 1q0 21 -21 21zM250 185q-18 0 -18 -18t18 -18t18 18t-18 18zM517 185h-38q-18 0 -18 -18v-3h56v21zM589 164v21q-14 -2 -14 -10q0 -9 14 -11z

<glyph glyph-name="fi" unicode="fi" horiz-adv-x="857" 
d="M353 961q105 0 166 -12v-115h-109q-55 0 -76.5 -24t-21.5 -84v-71h449v-655h-162v537h-287v-537h-164v537h-116v111l116 7v91q0 105 48 160t157 55zM642 941h75q46 0 46 -47v-72q0 -47 -46 -47h-75q-47 0 -47 47v72q0 47 47 47z" />
    <glyph glyph-name="fl" unicode="fl" horiz-adv-x="935" 
d="M350 961q306 0 424 -21v-753q0 -75 76 -75h56l19 -104q-21 -10 -64.5 -16.5t-74.5 -6.5q-81 0 -128 43.5t-47 119.5v688h-203q-55 0 -76.5 -24t-21.5 -86v-71h177v-118h-177v-537h-163v537h-116v111l116 7v91q0 218 203 215z" />
    <glyph glyph-name="lam_alefMaddaar" unicode="&#xfedf;&#xfe82;" horiz-adv-x="532" arabic-form="isolated" 
d="M277 1074l-25 -75q-1 -4 -22 -13q-10 -6 -25 -6q-17 0 -27 6q-24 10 -26 12q-31 20 -52.5 15t-86.5 -57l13 64l48 43q15 12 37 12q15 0 27 -6l59 -30q5 0 9 2zM225 216h-174v710h174v-710zM492 924v-599q0 -196 -73 -266q-62 -59 -213 -59h-122l-44 147h105
q173 0 173 150v627h174z" />
    <glyph glyph-name="lam_alefMaddaar.fina" unicode="&#xfee0;&#xfe82;" horiz-adv-x="635" arabic-form="final" 
d="M277 1074l-25 -75q-1 -4 -22 -13q-10 -6 -25 -6q-17 0 -27 6q-24 10 -26 12q-31 20 -52.5 15t-86.5 -57l13 64l48 43q15 12 37 12q15 0 27 -6l59 -30q5 0 9 2zM225 216h-174v710h174v-710zM492 924v-626q0 -151 136 -151h27v-147h-50q-140 0 -201 46q-61 -46 -198 -46
h-122l-44 147h105q173 0 173 150v627h174z" />
    <glyph glyph-name="lam_alefHamzaabovear" unicode="&#xfedf;&#xfe84;" horiz-adv-x="532" arabic-form="isolated" 
d="M173 1188q6 0 22 -2l19 -2q9 -4 17 -5l-12 -49q-7 4 -15 6q-8 3 -19 3q-13 0 -20 -4q-11 -3 -15 -7q-3 -5 -5 -15t-2 -16q0 -12 5 -24q1 -8 14 -13q10 -6 27 -6q5 0 15 2l23 3l13 3l-12 -48l-53 -7h-128v56l36 4q-3 13 -3 32q0 15 4 30t16 30q12 13 29 20q17 9 44 9z
M225 216h-174v710h174v-710zM492 924v-599q0 -196 -73 -266q-62 -59 -213 -59h-122l-44 147h105q173 0 173 150v627h174z" />
    <glyph glyph-name="lam_alefHamzaabovear.fina" unicode="&#xfee0;&#xfe84;" horiz-adv-x="635" arabic-form="final" 
d="M173 1188q6 0 22 -2l19 -2q9 -4 17 -5l-12 -49q-7 4 -15 6q-8 3 -19 3q-13 0 -20 -4q-11 -3 -15 -7q-3 -5 -5 -15t-2 -16q0 -12 5 -24q1 -8 14 -13q10 -6 27 -6q5 0 15 2l23 3l13 3l-12 -48l-53 -7h-128v56l36 4q-3 13 -3 32q0 15 4 30t16 30q12 13 29 20q17 9 44 9z
M225 216h-174v710h174v-710zM492 924v-626q0 -151 136 -151h27v-147h-50q-140 0 -201 46q-61 -46 -198 -46h-122l-44 147h105q173 0 173 150v627h174z" />
    <glyph glyph-name="lam_alefHamzabelowar" unicode="&#xfedf;&#xfe88;" horiz-adv-x="532" arabic-form="isolated" 
d="M225 216h-174v710h174v-710zM492 924v-599q0 -196 -73 -266q-62 -59 -213 -59h-122l-44 147h105q173 0 173 150v627h174zM173 -84q6 0 22 -2l19 -2q9 -4 17 -5l-12 -49q-7 4 -15 6q-8 3 -19 3q-13 0 -20 -4q-11 -3 -15 -7q-3 -5 -5 -15t-2 -16q0 -12 5 -24q1 -8 14 -13
q10 -6 27 -6q5 0 15 2l23 3l13 3l-12 -48l-53 -7h-128v56l36 4q-3 13 -3 32q0 15 4 30t16 30q12 13 29 20q17 9 44 9z" />
    <glyph glyph-name="lam_alefHamzabelowar.fina" unicode="&#xfee0;&#xfe88;" horiz-adv-x="635" arabic-form="final" 
d="M225 216h-174v710h174v-710zM492 924v-626q0 -151 136 -151h27v-147h-50q-140 0 -201 46q-61 -46 -198 -46h-122l-44 147h105q173 0 173 150v627h174zM173 -84q6 0 22 -2l19 -2q9 -4 17 -5l-12 -49q-7 4 -15 6q-8 3 -19 3q-13 0 -20 -4q-11 -3 -15 -7q-3 -5 -5 -15
t-2 -16q0 -12 5 -24q1 -8 14 -13q10 -6 27 -6q5 0 15 2l23 3l13 3l-12 -48l-53 -7h-128v56l36 4q-3 13 -3 32q0 15 4 30t16 30q12 13 29 20q17 9 44 9z" />
    <glyph glyph-name="lam_alefar" unicode="&#xfedf;&#xfe8e;" horiz-adv-x="532" arabic-form="isolated" 
d="M225 216h-174v710h174v-710zM492 924v-599q0 -196 -73 -266q-62 -59 -213 -59h-122l-44 147h105q173 0 173 150v627h174z" />
    <glyph glyph-name="lam_alefar.fina" unicode="&#xfee0;&#xfe8e;" horiz-adv-x="635" arabic-form="final" 
d="M225 216h-174v710h174v-710zM492 924v-626q0 -151 136 -151h27v-147h-50q-140 0 -201 46q-61 -46 -198 -46h-122l-44 147h105q173 0 173 150v627h174z" />
    <glyph glyph-name="f_f" unicode="ff" horiz-adv-x="989" 
d="M814 961q132 0 199 -12l-14 -115h-129q-55 0 -77 -21t-22 -71v-87h193v-118h-193v-537h-161v537h-300v-537h-162v537h-116v111l116 7v95q0 94 51.5 146t152.5 52q109 0 173 -12l-14 -115h-102q-56 0 -77.5 -18.5t-21.5 -73.5v-74h300v108q0 96 47.5 147t156.5 51z" />
    <glyph glyph-name="f_f_i" unicode="ffi" horiz-adv-x="1305" 
d="M802 961q105 0 165 -12v-115h-107q-56 0 -78.5 -24t-22.5 -84v-71h451v-655h-162v537h-289v-537h-160v537h-301v-537h-162v537h-104v111l104 7v95q0 94 51.5 146t153.5 52q111 0 172 -12l-13 -115h-103q-56 0 -77.5 -18.5t-21.5 -73.5v-74h301v91q0 105 47.5 160
t155.5 55zM1091 941h75q47 0 47 -47v-72q0 -47 -47 -47h-75q-47 0 -47 47v72q0 47 47 47z" />
    <glyph glyph-name="f_f_l" unicode="ffl" horiz-adv-x="1399" 
d="M814 961q306 0 423 -21v-753q0 -75 77 -75h55l19 -104q-21 -10 -64 -16.5t-75 -6.5q-82 0 -128.5 43.5t-46.5 119.5v688h-204q-54 0 -76.5 -24.5t-22.5 -85.5v-71h178v-118h-178v-537h-161v537h-300v-537h-162v537h-116v111l116 7v95q0 94 51.5 146t152.5 52
q109 0 173 -12l-14 -115h-102q-56 0 -77.5 -18.5t-21.5 -73.5v-74h300v91q0 106 47.5 161t156.5 54z" />
    <glyph glyph-name="uniFBE8" unicode="&#x649;" horiz-adv-x="372" arabic-form="initial" 
d="M320 487v-264q0 -151 -100 -196q-59 -27 -240 -27v147q66 0 88 2q64 3 75 48q5 23 5 205v85h172z" />
    <glyph glyph-name="uniFBE9" unicode="&#x649;" horiz-adv-x="468" arabic-form="medial" 
d="M321 487v-85q0 -6 -0.5 -34t-0.5 -50v-67q0 -51 11 -71q10 -22 39 -28q28 -5 41 -5h77v-147q-197 0 -254 33q-56 -33 -254 -33v147h77q16 0 41 5q29 6 39 28q11 20 11 71v236h173z" />
    <glyph glyph-name="uniFC63" unicode="&#xfc63;" arabic-form="isolated" 
d="M27 200h-54v186h54v-186zM73 195h54q2 -87 0 -122q0 -13 -3 -25q-10 -38 -51 -45q-11 -3 -24 -3h-177v179h55v-134h42l1 134h54v-134q23 0 30 1q14 2 17 16q2 10 2 15v118z" />
    <glyph glyph-name="alefMaddaar.fina" unicode="&#x622;" horiz-adv-x="368" arabic-form="final" 
d="M277 1074l-25 -75q-1 -4 -22 -13q-10 -6 -25 -6q-17 0 -27 6q-24 10 -26 12q-31 20 -52.5 15t-86.5 -57l13 64l48 43q15 12 37 12q15 0 27 -6l59 -30q5 0 9 2zM214 883v-585q0 -151 136 -151h38v-147h-61q-155 0 -214 57q-73 69 -73 268v558h174z" />
    <glyph glyph-name="alefHamzaabovear.fina" unicode="&#x623;" horiz-adv-x="368" arabic-form="final" 
d="M163 1175q6 0 22 -2l19 -2q9 -4 17 -5l-12 -49q-7 5 -15 6q-8 3 -19 3q-13 0 -20 -4q-11 -3 -15 -7q-3 -5 -5 -15t-2 -16q0 -12 5 -24q1 -8 14 -13q10 -6 27 -6q5 0 15 2l23 3l13 3l-12 -48l-53 -7h-128v56l36 4q-3 14 -3 32q0 15 4 30t16 30q12 12 29 20q17 9 44 9z
M214 877v-579q0 -151 136 -151h38v-147h-61q-155 0 -214 57q-73 69 -73 268v552h174z" />
    <glyph glyph-name="wawHamzaabovear.fina" unicode="&#x624;" horiz-adv-x="601" arabic-form="final" 
d="M317 789q6 0 22 -2l19 -2q9 -4 17 -5l-12 -49q-7 5 -15 6q-8 3 -19 3q-13 0 -20 -4q-11 -3 -15 -7q-3 -5 -5 -15t-2 -16q0 -12 5 -24q1 -8 14 -13q10 -6 27 -6q5 0 15 2l23 3l13 3l-12 -48l-53 -7h-128v56l36 4q-3 14 -3 32q0 15 4 30t16 30q12 12 29 20q17 9 44 9z
M283 487q54 0 98 -4q35 -2 91 -8q36 -4 76 -12v-316h73v-147h-73q-5 -33 -16 -67q-18 -52 -45 -79q-30 -30 -68 -42q-37 -12 -81 -15q-45 -3 -91 -3q-54 1 -107 11q-64 12 -96 25l25 126q12 -5 48 -16q22 -6 58 -13q42 -6 69 -6q39 -1 76 8q31 8 43 26q13 19 13 52v32
q-21 -16 -36 -22q-16 -8 -45 -13q-23 -4 -64 -4q-40 0 -72 13q-33 13 -61 44q-29 30 -43 75q-15 44 -15 117q0 77 28 129t83 81q53 28 132 28zM303 369q-28 1 -48 -8q-17 -9 -28 -35q-10 -24 -10 -75q0 -47 8 -77t21 -43q16 -12 39 -12q15 0 31 3q15 3 28 13q15 12 22 32
q9 19 9 56v136q-24 6 -36 8q-22 2 -36 2z" />
    <glyph glyph-name="alefHamzabelowar.fina" unicode="&#x625;" horiz-adv-x="368" arabic-form="final" 
d="M214 923v-625q0 -151 136 -151h38v-147h-61q-155 0 -214 57q-73 69 -73 268v598h174zM200 -97q6 0 22 -2l19 -2q9 -4 17 -5l-12 -49q-8 5 -15 6q-7 3 -19 3q-13 0 -20 -4q-11 -3 -15 -7q-3 -5 -5 -15t-2 -16q0 -12 5 -24q1 -8 14 -13q11 -6 27 -6q5 0 15 2l23 3l13 3
l-12 -48l-53 -7h-128v56l36 4q-3 14 -3 32q0 15 4 30t16 30q13 12 29 20q16 9 44 9z" />
    <glyph glyph-name="yehHamzaabovear.fina" unicode="&#x626;" horiz-adv-x="1095" arabic-form="final" 
d="M184 537q6 0 22 -2l19 -2q9 -4 17 -5l-12 -49q-8 5 -15 6q-7 3 -19 3q-13 0 -20 -4q-11 -3 -15 -7q-3 -5 -5 -15t-2 -16q0 -12 5 -24q1 -8 14 -13q11 -6 27 -6q5 0 15 2l23 3l13 3l-12 -48l-53 -7h-128v56l36 4q-3 14 -3 32q0 15 4 30t16 30q13 12 29 20q16 9 44 9z
M75 263l125 -26q-12 -31 -16 -45q-7 -23 -13 -59q-5 -28 -7 -68q0 -35 11 -70q6 -28 26 -42t175 -14h457q-1 61 -120 61h-173q-114 0 -102 147h676v-147h-126q10 -27 10 -61v-3q2 -3 -6 -138h-683q-83 0 -131 14q-51 16 -80 45q-27 29 -41 67q-12 37 -15 82q-2 52 -2 56
q2 59 10 107q9 54 25 94z" />
    <glyph glyph-name="yehHamzaabovear.init" unicode="&#x626;" horiz-adv-x="371" arabic-form="initial" 
d="M264 789q6 0 22 -2l19 -2q9 -4 17 -5l-12 -49q-8 5 -15 6q-7 3 -19 3q-13 0 -20 -4q-11 -3 -15 -7q-3 -5 -5 -15t-2 -16q0 -12 5 -24q1 -8 14 -13q11 -6 27 -6q5 0 15 2l23 3l13 3l-12 -48l-53 -7h-128v56l36 4q-3 14 -3 32q0 15 4 30t16 30q13 12 29 20q16 9 44 9z
M320 487v-264q0 -151 -100 -196q-59 -27 -240 -27v147q66 0 88 2q64 3 75 48q5 23 5 205v85h172z" />
    <glyph glyph-name="yehHamzaabovear.medi" unicode="&#x626;" horiz-adv-x="468" arabic-form="medial" 
d="M264 789q6 0 22 -2l19 -2q9 -4 17 -5l-12 -49q-8 5 -15 6q-7 3 -19 3q-13 0 -20 -4q-11 -3 -15 -7q-3 -5 -5 -15t-2 -16q0 -12 5 -24q1 -8 14 -13q11 -6 27 -6q5 0 15 2l23 3l13 3l-12 -48l-53 -7h-128v56l36 4q-3 14 -3 32q0 15 4 30t16 30q13 12 29 20q16 9 44 9z
M321 487v-85q0 -6 -0.5 -34t-0.5 -50v-67q0 -51 11 -71q10 -22 39 -28q28 -5 41 -5h77v-147q-197 0 -254 33q-56 -33 -254 -33v147h77q16 0 41 5q29 6 39 28q11 20 11 71v236h173z" />
    <glyph glyph-name="uniFE8E" unicode="&#x627;" horiz-adv-x="368" arabic-form="final" 
d="M214 923v-625q0 -151 136 -151h38v-147h-61q-155 0 -214 57q-73 69 -73 268v598h174z" />
    <glyph glyph-name="behar.fina" unicode="&#x628;" horiz-adv-x="1208" arabic-form="final" 
d="M1061 487v-250q0 -75 50 -85q21 -5 58 -5h59v-147q-198 0 -253 33l-2 -2h-1q-55 -31 -252 -31h-396q-154 0 -213 58q-71 68 -71 265v60h173v-85q0 -151 172 -151h381q75 0 95 14q27 17 27 90v236h173zM540 -108q28 -2 47 -15q21 -11 33 -33q12 -25 13 -49q-1 -25 -13 -50
q-10 -19 -33 -34q-22 -14 -47 -15q-27 2 -49 15q-20 12 -33 34t-13 50q0 27 13 49q14 22 33 33q22 13 49 15z" />
    <glyph glyph-name="behar.init" unicode="&#x628;" horiz-adv-x="360" arabic-form="initial" 
d="M320 487v-264q0 -151 -100 -196q-59 -27 -240 -27v147q66 0 88 2q64 3 75 48q5 23 5 205v85h172zM174 -108q28 -2 47 -15q21 -11 33 -33q12 -25 13 -49q-1 -25 -13 -50q-10 -19 -33 -34q-22 -14 -47 -15q-27 2 -49 15q-20 12 -33 34t-13 50q0 27 13 49q14 22 33 33
q22 13 49 15z" />
    <glyph glyph-name="behar.medi" unicode="&#x628;" horiz-adv-x="468" arabic-form="medial" 
d="M321 487v-85q0 -6 -0.5 -34t-0.5 -50v-67q0 -51 11 -71q10 -22 39 -28q28 -5 41 -5h77v-147q-197 0 -254 33q-56 -33 -254 -33v147h77q16 0 41 5q29 6 39 28q11 20 11 71v236h173zM230 -108q28 -2 47 -15q21 -11 33 -33q12 -25 13 -49q-1 -25 -13 -50q-10 -19 -33 -34
q-22 -14 -47 -15q-27 2 -49 15q-20 12 -33 34t-13 50q0 27 13 49q14 22 33 33q22 13 49 15z" />
    <glyph glyph-name="tehMarbutaar.fina" unicode="&#x629;" horiz-adv-x="654" arabic-form="final" 
d="M202 785q28 -2 47 -15q21 -10 33 -33q12 -25 13 -49q-1 -25 -13 -50q-10 -19 -33 -34q-22 -14 -47 -15q-27 2 -49 15q-20 12 -33 34t-13 50q0 27 13 49q14 23 33 33q22 13 49 15zM441 785q28 -2 47 -15q21 -10 33 -33q12 -25 13 -49q-1 -25 -13 -50q-10 -19 -33 -34
q-22 -14 -47 -15q-27 2 -49 15q-20 12 -33 34t-13 50q0 27 13 49q13 23 33 33q22 13 49 15zM583 147h91v-147h-240v38q-19 -33 -101 -40q-88 -9 -161 22q-96 41 -123 157q-25 109 24 204q27 52 84 81q113 57 426 5v-320zM432 225v137q-224 46 -230 -109q-3 -69 34 -109
q31 -34 81 -34q47 0 81 30t34 85z" />
    <glyph glyph-name="tehar.fina" unicode="&#x62a;" horiz-adv-x="1208" arabic-form="final" 
d="M440 704q28 -2 47 -15q21 -11 33 -33q12 -25 13 -49q-1 -25 -13 -50q-10 -19 -33 -34q-22 -14 -47 -15q-27 2 -49 15q-20 12 -33 34t-13 50q0 27 13 49q14 22 33 33q22 13 49 15zM679 704q28 -2 47 -15q21 -11 33 -33q12 -25 13 -49q-1 -25 -13 -50q-10 -19 -33 -34
q-22 -14 -47 -15q-27 2 -49 15q-20 12 -33 34t-13 50q0 27 13 49t33 33q22 13 49 15zM1061 487v-250q0 -75 50 -85q21 -5 58 -5h59v-147q-198 0 -253 33l-2 -2h-1q-55 -31 -252 -31h-396q-154 0 -213 58q-71 68 -71 265v60h173v-85q0 -151 172 -151h381q75 0 95 14
q27 17 27 90v236h173z" />
    <glyph glyph-name="tehar.init" unicode="&#x62a;" horiz-adv-x="555" arabic-form="initial" 
d="M183 836q28 -2 47 -15q21 -11 33 -33q12 -25 13 -49q-1 -25 -13 -50q-10 -19 -33 -34q-22 -14 -47 -15q-27 2 -49 15q-20 12 -33 34t-13 50q0 27 13 49t33 33q22 13 49 15zM422 836q28 -2 47 -15q21 -11 33 -33q12 -25 13 -49q-1 -25 -13 -50q-10 -19 -33 -34
q-22 -14 -47 -15q-27 2 -49 15q-20 12 -33 34t-13 50q0 27 13 49q14 22 33 33q22 13 49 15zM507 487v-264q0 -159 -82.5 -191t-411.5 -32h-33v147q253 0 275 2q65 3 75 48q5 23 5 205v85h172z" />
    <glyph glyph-name="tehar.medi" unicode="&#x62a;" horiz-adv-x="603" arabic-form="medial" 
d="M183 836q28 -2 47 -15q21 -11 33 -33q12 -25 13 -49q-1 -25 -13 -50q-10 -19 -33 -34q-22 -14 -47 -15q-27 2 -49 15q-20 12 -33 34t-13 50q0 27 13 49t33 33q22 13 49 15zM422 836q28 -2 47 -15q21 -11 33 -33q12 -25 13 -49q-1 -25 -13 -50q-10 -19 -33 -34
q-22 -14 -47 -15q-27 2 -49 15q-20 12 -33 34t-13 50q0 27 13 49q14 22 33 33q22 13 49 15zM456 487v-85q0 -6 -0.5 -34t-0.5 -50v-67q0 -51 11 -71q10 -22 39 -28q27 -5 41 -5h77v-147q-197 0 -254 33q-25 -15 -149 -24t-240 -9v147h212q16 0 41 5q29 6 39 28q11 20 11 71
v236h173z" />
    <glyph glyph-name="thehar.fina" unicode="&#x62b;" horiz-adv-x="1208" arabic-form="final" 
d="M559 915q28 -2 47 -15q21 -10 33 -33q12 -25 13 -49q-1 -25 -13 -50q-10 -19 -33 -34q-22 -14 -47 -15q-27 2 -49 15q-20 12 -33 34t-13 50q0 27 13 49q13 23 33 33q22 13 49 15zM440 704q28 -2 47 -15q21 -11 33 -33q12 -25 13 -49q-1 -25 -13 -50q-10 -19 -33 -34
q-22 -14 -47 -15q-27 2 -49 15q-20 12 -33 34t-13 50q0 27 13 49q14 22 33 33q22 13 49 15zM679 704q28 -2 47 -15q21 -11 33 -33q12 -25 13 -49q-1 -25 -13 -50q-10 -19 -33 -34q-22 -14 -47 -15q-27 2 -49 15q-20 12 -33 34t-13 50q0 27 13 49t33 33q22 13 49 15z
M1061 487v-250q0 -75 50 -85q21 -5 58 -5h59v-147q-198 0 -253 33l-2 -2h-1q-55 -31 -252 -31h-396q-154 0 -213 58q-71 68 -71 265v60h173v-85q0 -151 172 -151h381q75 0 95 14q27 17 27 90v236h173z" />
    <glyph glyph-name="thehar.init" unicode="&#x62b;" horiz-adv-x="555" arabic-form="initial" 
d="M302 1047q28 -2 47 -15q21 -10 33 -33q12 -25 13 -49q-1 -25 -13 -50q-10 -19 -33 -34q-22 -14 -47 -15q-27 2 -49 15q-20 12 -33 34t-13 50q0 27 13 49q14 23 33 33q22 13 49 15zM183 836q28 -2 47 -15q21 -11 33 -33q12 -25 13 -49q-1 -25 -13 -50q-10 -19 -33 -34
q-22 -14 -47 -15q-27 2 -49 15q-20 12 -33 34t-13 50q0 27 13 49t33 33q22 13 49 15zM422 836q28 -2 47 -15q21 -11 33 -33q12 -25 13 -49q-1 -25 -13 -50q-10 -19 -33 -34q-22 -14 -47 -15q-27 2 -49 15q-20 12 -33 34t-13 50q0 27 13 49q14 22 33 33q22 13 49 15zM507 487
v-264q0 -159 -82.5 -191t-411.5 -32h-33v147q253 0 275 2q65 3 75 48q5 23 5 205v85h172z" />
    <glyph glyph-name="thehar.medi" unicode="&#x62b;" horiz-adv-x="603" arabic-form="medial" 
d="M302 1047q28 -2 47 -15q21 -10 33 -33q12 -25 13 -49q-1 -25 -13 -50q-10 -19 -33 -34q-22 -14 -47 -15q-27 2 -49 15q-20 12 -33 34t-13 50q0 27 13 49q14 23 33 33q22 13 49 15zM183 836q28 -2 47 -15q21 -11 33 -33q12 -25 13 -49q-1 -25 -13 -50q-10 -19 -33 -34
q-22 -14 -47 -15q-27 2 -49 15q-20 12 -33 34t-13 50q0 27 13 49t33 33q22 13 49 15zM422 836q28 -2 47 -15q21 -11 33 -33q12 -25 13 -49q-1 -25 -13 -50q-10 -19 -33 -34q-22 -14 -47 -15q-27 2 -49 15q-20 12 -33 34t-13 50q0 27 13 49q14 22 33 33q22 13 49 15zM456 487
v-85q0 -6 -0.5 -34t-0.5 -50v-67q0 -51 11 -71q10 -22 39 -28q27 -5 41 -5h77v-147q-197 0 -254 33q-25 -15 -149 -24t-240 -9v147h212q16 0 41 5q29 6 39 28q11 20 11 71v236h173z" />
    <glyph glyph-name="jeemar.fina" unicode="&#x62c;" horiz-adv-x="744" arabic-form="final" 
d="M765 147v-147h-558q1 -43 18.5 -63.5t52.5 -19.5q34 1 128 41l25 -127q-157 -57 -265 -22q-37 12 -68 41q-51 51 -58 141v156h475l-2 97v31q0 32 -14 52q-13 18 -43 28q-29 8 -76 6q-49 0 -70 -4q-30 -5 -58 -14q-24 -6 -47 -17l-25 127q37 15 94 26q49 8 109 10
q62 0 92 -2q40 -1 82 -16q37 -12 67 -42t46 -80q17 -54 17 -133q0 -1 -0.5 -12.5t-0.5 -22.5v-34h79zM643 -123q21 -11 33 -33q12 -25 13 -49q-1 -25 -13 -50q-10 -19 -33 -34q-22 -14 -47 -15q-27 2 -49 15q-20 12 -33 34t-13 50q0 27 13 49q14 22 33 33q22 13 49 15
q28 -2 47 -15z" />
    <glyph glyph-name="jeemar.init" unicode="&#x62c;" horiz-adv-x="706" arabic-form="initial" 
d="M617 61q43 -57 49 -61h-686v147h440l-2 97v31q0 32 -14 52q-13 19 -43 28q-29 7 -75 6q-42 0 -71 -4q-50 -11 -59 -14q-26 -7 -47 -17l-24 127q31 12 95 25q54 10 108 11q32 0 90 -2q45 -3 84 -16q39 -14 67 -42q30 -30 46 -80q17 -54 17 -133q0 -123 25 -155zM367 -123
q21 -11 33 -33q12 -25 13 -49q-1 -25 -13 -50q-10 -19 -33 -34q-22 -14 -47 -15q-27 2 -49 15q-20 12 -33 34t-13 50q0 27 13 49q14 22 33 33q22 13 49 15q28 -2 47 -15z" />
    <glyph glyph-name="jeemar.medi" unicode="&#x62c;" horiz-adv-x="645" arabic-form="medial" 
d="M288 489q33 0 91 -2q45 -3 82 -16q38 -14 68 -42q30 -29 45 -80q17 -54 17 -133q0 -1 -0.5 -12.5t-0.5 -22.5v-34h75v-147h-685v147h440l-2 97v31q0 32 -14 52q-13 18 -43 28q-28 7 -76 6q-39 0 -70 -4q-7 -2 -19.5 -4.5t-22 -5t-17.5 -4.5q-26 -7 -47 -17l-25 127
q32 13 96 25q53 10 108 11zM320 -108q28 -2 47 -15q21 -11 33 -33q12 -25 13 -49q-1 -25 -13 -50q-10 -19 -33 -34q-22 -14 -47 -15q-27 2 -49 15q-20 12 -33 34t-13 50q0 27 13 49q14 22 33 33q22 13 49 15z" />
    <glyph glyph-name="hahar.fina" unicode="&#x62d;" horiz-adv-x="744" arabic-form="final" 
d="M765 0h-558q1 -43 18.5 -63.5t52.5 -19.5q34 1 128 41l25 -127q-157 -57 -265 -22q-37 12 -68 41q-51 51 -58 141v156h475l-2 97v31q0 32 -14 52q-13 18 -43 28q-29 8 -76 6q-49 0 -70 -4q-30 -5 -58 -14q-24 -6 -47 -17l-25 127q37 15 94 26q49 8 109 10q62 0 92 -2
q40 -1 82 -16q37 -12 67 -42t46 -80q17 -54 17 -133q0 -1 -0.5 -12.5t-0.5 -22.5v-34h79v-147z" />
    <glyph glyph-name="hahar.init" unicode="&#x62d;" horiz-adv-x="706" arabic-form="initial" 
d="M617 61q43 -57 49 -61h-686v147h440l-2 97v31q0 32 -14 52q-13 19 -43 28q-29 7 -75 6q-42 0 -71 -4q-50 -11 -59 -14q-26 -7 -47 -17l-24 127q31 12 95 25q54 10 108 11q32 0 90 -2q45 -3 84 -16q39 -14 67 -42q30 -30 46 -80q17 -54 17 -133q0 -123 25 -155z" />
    <glyph glyph-name="hahar.medi" unicode="&#x62d;" horiz-adv-x="645" arabic-form="medial" 
d="M288 489q33 0 91 -2q45 -3 82 -16q38 -14 68 -42q30 -29 45 -80q17 -54 17 -133q0 -1 -0.5 -12.5t-0.5 -22.5v-34h75v-147h-685v147h440l-2 97v31q0 32 -14 52q-13 18 -43 28q-28 7 -76 6q-39 0 -70 -4q-7 -2 -19.5 -4.5t-22 -5t-17.5 -4.5q-26 -7 -47 -17l-25 127
q32 13 96 25q53 10 108 11z" />
    <glyph glyph-name="khahar.fina" unicode="&#x62e;" horiz-adv-x="744" arabic-form="final" 
d="M332 607q-20 12 -33 34t-13 50q0 27 13 49t33 33q22 13 49 15q28 -2 47 -15q21 -11 33 -33q12 -25 13 -49q-1 -25 -13 -50q-10 -19 -33 -34q-22 -14 -47 -15q-27 2 -49 15zM765 0h-558q1 -43 18.5 -63.5t52.5 -19.5q34 1 128 41l25 -127q-157 -57 -265 -22q-37 12 -68 41
q-51 51 -58 141v156h475l-2 97v31q0 32 -14 52q-13 18 -43 28q-29 8 -76 6q-49 0 -70 -4q-30 -5 -58 -14q-24 -6 -47 -17l-25 127q37 15 94 26q49 8 109 10q62 0 92 -2q40 -1 82 -16q37 -12 67 -42t46 -80q17 -54 17 -133q0 -1 -0.5 -12.5t-0.5 -22.5v-34h79v-147z" />
    <glyph glyph-name="khahar.init" unicode="&#x62e;" horiz-adv-x="706" arabic-form="initial" 
d="M231 607q-20 12 -33 34t-13 50q0 27 13 49q14 22 33 33q22 13 49 15q28 -2 47 -15q21 -11 33 -33q12 -25 13 -49q-1 -25 -13 -50q-10 -19 -33 -34q-22 -14 -47 -15q-27 2 -49 15zM617 61q43 -57 49 -61h-686v147h440l-2 97v31q0 32 -14 52q-13 19 -43 28q-29 7 -75 6
q-42 0 -71 -4q-50 -11 -59 -14q-26 -7 -47 -17l-24 127q31 12 95 25q54 10 108 11q32 0 90 -2q45 -3 84 -16q39 -14 67 -42q30 -30 46 -80q17 -54 17 -133q0 -123 25 -155z" />
    <glyph glyph-name="khahar.medi" unicode="&#x62e;" horiz-adv-x="645" arabic-form="medial" 
d="M280 788q28 -2 47 -15q21 -11 33 -33q12 -25 13 -49q-1 -25 -13 -50q-10 -19 -33 -34q-22 -14 -47 -15q-27 2 -49 15q-20 12 -33 34t-13 50q0 27 13 49q14 22 33 33q22 13 49 15zM288 489q33 0 91 -2q45 -3 82 -16q38 -14 68 -42q30 -29 45 -80q17 -54 17 -133
q0 -1 -0.5 -12.5t-0.5 -22.5v-34h75v-147h-685v147h440l-2 97v31q0 32 -14 52q-13 18 -43 28q-28 7 -76 6q-39 0 -70 -4q-7 -2 -19.5 -4.5t-22 -5t-17.5 -4.5q-26 -7 -47 -17l-25 127q32 13 96 25q53 10 108 11z" />
    <glyph glyph-name="dalar.fina" unicode="&#x62f;" horiz-adv-x="616" arabic-form="final" 
d="M111 482l128 6q195 9 261 -86q50 -70 51 -255h85v-147h-596v147h340q11 144 -23 183q-52 59 -244 37z" />
    <glyph glyph-name="thalar.fina" unicode="&#x630;" horiz-adv-x="616" arabic-form="final" 
d="M280 788q28 -2 47 -15q21 -11 33 -33q12 -25 13 -49q-1 -25 -13 -50q-10 -19 -33 -34q-22 -14 -47 -15q-27 2 -49 15q-20 12 -33 34t-13 50q0 27 13 49q14 22 33 33q22 13 49 15zM111 482l128 6q195 9 261 -86q50 -70 51 -255h85v-147h-596v147h340q11 144 -23 183
q-52 59 -244 37z" />
    <glyph glyph-name="rehar.fina" unicode="&#x631;" horiz-adv-x="383" arabic-form="final" 
d="M329 147h74v-147h-74v-30q0 -60 -20 -100q-19 -39 -63 -57t-115 -18q-18 0 -42 2q-10 1 -41 7q-26 5 -48 13l25 115l20 -6q9 -3 26 -5q8 -1 23 -1q21 -1 35 5q13 4 19 17q7 13 7 36v510h174v-341z" />
    <glyph glyph-name="zainar.fina" unicode="&#x632;" horiz-adv-x="383" arabic-form="final" 
d="M239 788q28 -2 47 -15q21 -11 33 -33q12 -25 13 -49q-1 -25 -13 -50q-10 -19 -33 -34q-22 -14 -47 -15q-27 2 -49 15q-20 12 -33 34t-13 50q0 27 13 49t33 33q22 13 49 15zM329 147h74v-147h-74v-30q0 -60 -20 -100q-19 -39 -63 -57t-115 -18q-18 0 -42 2q-10 1 -41 7
q-26 5 -48 13l25 115l20 -6q9 -3 26 -5q8 -1 23 -1q21 -1 35 5q13 4 19 17q7 13 7 36v510h174v-341z" />
    <glyph glyph-name="seenar.fina" unicode="&#x633;" horiz-adv-x="1348" arabic-form="final" 
d="M1200 488v-253q0 -72 50 -84q22 -4 42 -4h76v-147q-170 0 -222 18q-8 -4 -13 -5q-34 -13 -80 -13q-41 0 -82 15q-39 14 -75 43q-17 -32 -50 -45q-30 -13 -80 -13q-42 0 -82 15q-31 11 -64 35v-84q0 -126 -174 -162q-161 -34 -302 36q-104 52 -104 168v260h173v-193
q0 -58 5 -80q11 -42 48 -63q65 -37 135 5q46 28 46 79v363h173v-198l9 -9q19 -11 33 -16q17 -8 37 -10q19 0 27 6q11 8 12 19q3 11 3 31v228h174v-255l2 -3q17 -11 31 -16q18 -8 39 -10q18 0 27 6q10 8 11 19q3 11 3 31v286h172z" />
    <glyph glyph-name="seenar.init" unicode="&#x633;" horiz-adv-x="885" arabic-form="initial" 
d="M845 489v-336q0 -60 -18 -93q-15 -34 -49 -47q-33 -13 -82 -13q-40 0 -81 15q-39 14 -76 43q-15 -32 -49 -45q-30 -13 -80 -13q-42 0 -82 15q-31 10 -64 34q-14 -23 -44 -36q-34 -13 -80 -13h-160v147h110q6 4 11 6q6 5 11 19q2 18 2 31v191h173v-229q12 -6 18 -8
q18 -8 39 -10q18 0 26 6q11 8 12 19q2 14 2 31v228h174v-255l3 -3q22 -12 31 -16q18 -8 38 -10q20 0 28 6q8 8 11 19q2 14 2 31v286h174z" />
    <glyph glyph-name="seenar.medi" unicode="&#x633;" horiz-adv-x="991" arabic-form="medial" 
d="M844 489v-253q0 -73 49 -83q11 -3 40 -5q8 -1 19 -1h59v-147q-168 0 -222 18q-2 0 -6 -1.5t-7 -2.5q-34 -14 -80 -14q-40 0 -82 16q-43 17 -75 43q-18 -31 -50 -45q-36 -14 -81 -14t-81 16q-30 9 -64 34q-15 -25 -44 -36q-34 -14 -82 -14h-157v147h109l10 6q10 6 11 19
q3 14 3 31v191h174v-229q10 -6 17 -9q18 -8 37 -9q19 0 28 6q9 8 12 19q2 14 2 31v228h173v-255l4 -3q8 -6 32 -17q18 -8 37 -9q18 0 27 6q9 7 13 19q1 7 1 31v286h174z" />
    <glyph glyph-name="sheenar.fina" unicode="&#x634;" horiz-adv-x="1348" arabic-form="final" 
d="M814 994q28 -2 47 -15q21 -11 33 -33q12 -25 13 -49q-1 -25 -13 -50q-10 -19 -33 -34q-22 -14 -47 -15q-27 2 -49 15q-20 12 -33 34t-13 50q0 27 13 49q14 22 33 33q22 13 49 15zM695 783q28 -2 47 -15q21 -10 33 -33q12 -25 13 -49q-1 -25 -13 -50q-10 -19 -33 -34
q-22 -14 -47 -15q-27 2 -49 15q-20 12 -33 34t-13 50q0 27 13 49q13 23 33 33q22 13 49 15zM934 783q28 -2 47 -15q21 -10 33 -33q12 -25 13 -49q-1 -25 -13 -50q-10 -19 -33 -34q-22 -14 -47 -15q-27 2 -49 15q-20 12 -33 34t-13 50q0 27 13 49q14 23 33 33q22 13 49 15z
M1200 488v-253q0 -72 50 -84q22 -4 42 -4h76v-147q-170 0 -222 18q-8 -4 -13 -5q-34 -13 -80 -13q-41 0 -82 15q-39 14 -75 43q-17 -32 -50 -45q-30 -13 -80 -13q-42 0 -82 15q-31 11 -64 35v-84q0 -126 -174 -162q-161 -34 -302 36q-104 52 -104 168v260h173v-193
q0 -58 5 -80q11 -42 48 -63q65 -37 135 5q46 28 46 79v363h173v-198l9 -9q19 -11 33 -16q17 -8 37 -10q19 0 27 6q11 8 12 19q3 11 3 31v228h174v-255l2 -3q17 -11 31 -16q18 -8 39 -10q18 0 27 6q10 8 11 19q3 11 3 31v286h172z" />
    <glyph glyph-name="sheenar.init" unicode="&#x634;" horiz-adv-x="885" arabic-form="initial" 
d="M466 994q28 -2 47 -15q21 -11 33 -33q12 -25 13 -49q-1 -25 -13 -50q-10 -19 -33 -34q-22 -14 -47 -15q-27 2 -49 15q-20 12 -33 34t-13 50q0 27 13 49q14 22 33 33q22 13 49 15zM347 783q28 -2 47 -15q21 -10 33 -33q12 -25 13 -49q-1 -25 -13 -50q-10 -19 -33 -34
q-22 -14 -47 -15q-27 2 -49 15q-20 12 -33 34t-13 50q0 27 13 49q13 23 33 33q22 13 49 15zM586 783q28 -2 47 -15q21 -10 33 -33q12 -25 13 -49q-1 -25 -13 -50q-10 -19 -33 -34q-22 -14 -47 -15q-27 2 -49 15q-20 12 -33 34t-13 50q0 27 13 49q14 23 33 33q22 13 49 15z
M845 489v-336q0 -60 -18 -93q-15 -34 -49 -47q-33 -13 -82 -13q-40 0 -81 15q-39 14 -76 43q-15 -32 -49 -45q-30 -13 -80 -13q-42 0 -82 15q-31 10 -64 34q-14 -23 -44 -36q-34 -13 -80 -13h-160v147h110q6 4 11 6q6 5 11 19q2 18 2 31v191h173v-229q12 -6 18 -8
q18 -8 39 -10q18 0 26 6q11 8 12 19q2 14 2 31v228h174v-255l3 -3q22 -12 31 -16q18 -8 38 -10q20 0 28 6q8 8 11 19q2 14 2 31v286h174z" />
    <glyph glyph-name="sheenar.medi" unicode="&#x634;" horiz-adv-x="991" arabic-form="medial" 
d="M466 994q28 -2 47 -15q21 -11 33 -33q12 -25 13 -49q-1 -25 -13 -50q-10 -19 -33 -34q-22 -14 -47 -15q-27 2 -49 15q-20 12 -33 34t-13 50q0 27 13 49q14 22 33 33q22 13 49 15zM347 783q28 -2 47 -15q21 -10 33 -33q12 -25 13 -49q-1 -25 -13 -50q-10 -19 -33 -34
q-22 -14 -47 -15q-27 2 -49 15q-20 12 -33 34t-13 50q0 27 13 49q13 23 33 33q22 13 49 15zM586 783q28 -2 47 -15q21 -10 33 -33q12 -25 13 -49q-1 -25 -13 -50q-10 -19 -33 -34q-22 -14 -47 -15q-27 2 -49 15q-20 12 -33 34t-13 50q0 27 13 49q14 23 33 33q22 13 49 15z
M844 489v-253q0 -73 49 -83q11 -3 40 -5q8 -1 19 -1h59v-147q-168 0 -222 18q-2 0 -6 -1.5t-7 -2.5q-34 -14 -80 -14q-40 0 -82 16q-43 17 -75 43q-18 -31 -50 -45q-36 -14 -81 -14t-81 16q-30 9 -64 34q-15 -25 -44 -36q-34 -14 -82 -14h-157v147h109l10 6q10 6 11 19
q3 14 3 31v191h174v-229q10 -6 17 -9q18 -8 37 -9q19 0 28 6q9 8 12 19q2 14 2 31v228h173v-255l4 -3q8 -6 32 -17q18 -8 37 -9q18 0 27 6q9 7 13 19q1 7 1 31v286h174z" />
    <glyph glyph-name="sadar.fina" unicode="&#x635;" horiz-adv-x="1385" arabic-form="final" 
d="M1108 484q99 -22 163 -100q78 -96 69 -237h65v-147h-722q-45 0 -63 22v-57q0 -126 -174 -162q-165 -33 -301 35q-105 52 -105 169v261h174v-194q0 -62 4 -79q10 -41 48 -63q65 -37 136 5q45 25 45 78v364h173v-199q6 -36 52 -33q9 121 79 209q64 80 165 115q99 35 192 13
zM957 343q-68 -15 -105 -64q-37 -46 -47 -89q-12 -43 10 -43h384q17 72 -20 124q-34 49 -97 68q-62 19 -125 4z" />
    <glyph glyph-name="sadar.init" unicode="&#x635;" horiz-adv-x="961" arabic-form="initial" 
d="M688 484q100 -22 164 -100q81 -100 66 -261q-4 -46 -7 -68l-9 -55h-645q-34 0 -52 16l-5 6v-22h-220v147h47v232h173v-199q6 -29 37 -33h16q7 119 79 209q64 81 164 115q99 35 192 13zM536 343q-67 -15 -104 -64q-35 -46 -47 -89t9 -43h386q17 71 -20 124q-35 49 -98 68
q-62 19 -126 4z" />
    <glyph glyph-name="sadar.medi" unicode="&#x635;" horiz-adv-x="964" arabic-form="medial" 
d="M690 484q99 -22 163 -100q77 -96 69 -237h62v-147h-727q-32 0 -50 15l-5 7v-22h-222v147h48v232h174v-199q5 -29 35 -33h16q9 121 79 209q64 80 165 115q99 35 193 13zM538 343q-63 -14 -104 -64q-39 -50 -48 -89q-12 -43 9 -43h386q16 70 -21 124q-34 49 -97 68
q-61 19 -125 4z" />
    <glyph glyph-name="dadar.fina" unicode="&#x636;" horiz-adv-x="1385" arabic-form="final" 
d="M1010 788q28 -2 47 -15q21 -11 33 -33q12 -25 13 -49q-1 -25 -13 -50q-10 -19 -33 -34q-22 -14 -47 -15q-27 2 -49 15q-20 12 -33 34t-13 50q0 27 13 49q14 22 33 33q22 13 49 15zM1108 484q99 -22 163 -100q78 -96 69 -237h65v-147h-722q-45 0 -63 22v-57
q0 -126 -174 -162q-165 -33 -301 35q-105 52 -105 169v261h174v-194q0 -62 4 -79q10 -41 48 -63q65 -37 136 5q45 25 45 78v364h173v-199q6 -36 52 -33q9 121 79 209q64 80 165 115q99 35 192 13zM957 343q-68 -15 -105 -64q-37 -46 -47 -89q-12 -43 10 -43h384
q17 72 -20 124q-34 49 -97 68q-62 19 -125 4z" />
    <glyph glyph-name="dadar.init" unicode="&#x636;" horiz-adv-x="961" arabic-form="initial" 
d="M585 788q28 -2 47 -15q21 -11 33 -33q12 -25 13 -49q-1 -25 -13 -50q-10 -19 -33 -34q-22 -14 -47 -15q-27 2 -49 15q-20 12 -33 34t-13 50q0 27 13 49t33 33q22 13 49 15zM688 484q100 -22 164 -100q81 -100 66 -261q-4 -46 -7 -68l-9 -55h-645q-34 0 -52 16l-5 6v-22
h-220v147h47v232h173v-199q6 -29 37 -33h16q7 119 79 209q64 81 164 115q99 35 192 13zM536 343q-67 -15 -104 -64q-35 -46 -47 -89t9 -43h386q17 71 -20 124q-35 49 -98 68q-62 19 -126 4z" />
    <glyph glyph-name="dadar.medi" unicode="&#x636;" horiz-adv-x="964" arabic-form="medial" 
d="M590 788q28 -2 47 -15q21 -11 33 -33q12 -25 13 -49q-1 -25 -13 -50q-10 -19 -33 -34q-22 -14 -47 -15q-27 2 -49 15q-20 12 -33 34t-13 50q0 27 13 49q14 22 33 33q22 13 49 15zM690 484q99 -22 163 -100q77 -96 69 -237h62v-147h-727q-32 0 -50 15l-5 7v-22h-222v147
h48v232h174v-199q5 -29 35 -33h16q9 121 79 209q64 80 165 115q99 35 193 13zM538 343q-63 -14 -104 -64q-39 -50 -48 -89q-12 -43 9 -43h386q16 70 -21 124q-34 49 -97 68q-61 19 -125 4z" />
    <glyph glyph-name="tahar.fina" unicode="&#x637;" horiz-adv-x="959" arabic-form="final" 
d="M295 772v-481q83 166 265 194q184 30 292 -103q77 -95 68 -235h59v-147h-939v147h83v625h172zM539 342q-67 -17 -104 -64q-35 -46 -47 -89q-10 -42 10 -42h382q17 72 -20 123q-32 48 -96 67q-63 20 -125 5z" />
    <glyph glyph-name="tahar.init" unicode="&#x637;" horiz-adv-x="901" arabic-form="initial" 
d="M236 772v-481q81 166 264 194q186 30 292 -103q80 -99 66 -259q-5 -59 -6 -67l-9 -56h-863v147h83v625h173zM479 342q-67 -17 -104 -64q-35 -46 -47 -89q-10 -42 10 -42h383q16 70 -20 123q-34 48 -97 67q-63 20 -125 5z" />
    <glyph glyph-name="tahar.medi" unicode="&#x637;" horiz-adv-x="899" arabic-form="medial" 
d="M235 772v-481q83 166 265 194q184 30 292 -103q77 -95 68 -235h59v-147h-939v147h83v625h172zM479 342q-67 -17 -104 -64q-35 -46 -47 -89q-10 -42 10 -42h382q17 72 -20 123q-32 48 -96 67q-63 20 -125 5z" />
    <glyph glyph-name="zahar.fina" unicode="&#x638;" horiz-adv-x="959" arabic-form="final" 
d="M582 788q28 -2 47 -15q21 -11 33 -33q12 -25 13 -49q-1 -25 -13 -50q-10 -19 -33 -34q-22 -14 -47 -15q-27 2 -49 15q-20 12 -33 34t-13 50q0 27 13 49q14 22 33 33q22 13 49 15zM295 772v-481q83 166 265 194q184 30 292 -103q77 -95 68 -235h59v-147h-939v147h83v625
h172zM539 342q-67 -17 -104 -64q-35 -46 -47 -89q-10 -42 10 -42h382q17 72 -20 123q-32 48 -96 67q-63 20 -125 5z" />
    <glyph glyph-name="zahar.init" unicode="&#x638;" horiz-adv-x="901" arabic-form="initial" 
d="M505 788q28 -2 47 -15q21 -11 33 -33q12 -25 13 -49q-1 -25 -13 -50q-10 -19 -33 -34q-22 -14 -47 -15q-27 2 -49 15q-20 12 -33 34t-13 50q0 27 13 49t33 33q22 13 49 15zM236 772v-481q81 166 264 194q186 30 292 -103q80 -99 66 -259q-5 -59 -6 -67l-9 -56h-863v147
h83v625h173zM479 342q-67 -17 -104 -64q-35 -46 -47 -89q-10 -42 10 -42h383q16 70 -20 123q-34 48 -97 67q-63 20 -125 5z" />
    <glyph glyph-name="zahar.medi" unicode="&#x638;" horiz-adv-x="899" arabic-form="medial" 
d="M501 788q28 -2 47 -15q21 -11 33 -33q12 -25 13 -49q-1 -25 -13 -50q-10 -19 -33 -34q-22 -14 -47 -15q-27 2 -49 15q-20 12 -33 34t-13 50q0 27 13 49t33 33q22 13 49 15zM235 772v-481q83 166 265 194q184 30 292 -103q77 -95 68 -235h59v-147h-939v147h83v625h172z
M479 342q-67 -17 -104 -64q-35 -46 -47 -89q-10 -42 10 -42h382q17 72 -20 123q-32 48 -96 67q-63 20 -125 5z" />
    <glyph glyph-name="ainar.fina" unicode="&#x639;" horiz-adv-x="560" arabic-form="final" 
d="M362 488q30 0 55 -4q30 -3 55 -9q30 -6 45 -11l-28 -132q-25 12 -44 15q-22 7 -52 7q-37 0 -60 -9q-24 -11 -35 -26q-10 -13 -16 -37q-18 -96 41 -124h1q24 -11 63 -11h193v-147h-374q2 -84 72 -81q30 1 127 40l25 -126q-157 -58 -265 -23q-38 12 -68 42q-49 47 -58 140
l1 155h74q-14 41 -15 93q0 45 13 88t44 80q29 34 80 57q51 22 126 23z" />
    <glyph glyph-name="ainar.init" unicode="&#x639;" horiz-adv-x="555" arabic-form="initial" 
d="M309 488q27 0 55 -4q28 -3 54 -9q30 -6 44 -11l-27 -132q-25 12 -44 15q-22 7 -52 7q-37 0 -60 -9q-24 -11 -35 -26q-12 -14 -17 -37q-4 -19 -4 -45q0 -28 10 -52q12 -26 40 -39q26 -13 130 -13q19 0 39 4q28 4 40 7l33 9l-28 -131q-18 -7 -41 -12q-18 -3 -49 -7
q-16 -2 -24 -2v-1h-393v147h81q-14 39 -16 93q0 45 13 88q13 42 43 80q30 36 81 57q49 21 127 23z" />
    <glyph glyph-name="ainar.medi" unicode="&#x639;" horiz-adv-x="501" arabic-form="medial" 
d="M303 488q30 0 55 -4q24 -3 55 -8q24 -5 44 -12l-28 -132q-18 9 -44 16q-24 6 -52 6q-37 0 -60 -9q-24 -11 -35 -26q-10 -13 -16 -37q-18 -95 41 -123h1q26 -12 63 -12h194v-147h-541v147h75q-14 39 -16 94q0 41 14 88q14 44 43 79q28 34 81 57q51 22 126 23z" />
    <glyph glyph-name="ghainar.fina" unicode="&#x63a;" horiz-adv-x="560" arabic-form="final" 
d="M325 788q28 -2 47 -15q21 -11 33 -33q12 -25 13 -49q-1 -25 -13 -50q-10 -19 -33 -34q-22 -14 -47 -15q-27 2 -49 15q-20 12 -33 34t-13 50q0 27 13 49t33 33q22 13 49 15zM362 488q30 0 55 -4q30 -3 55 -9q30 -6 45 -11l-28 -132q-25 12 -44 15q-22 7 -52 7
q-37 0 -60 -9q-24 -11 -35 -26q-10 -13 -16 -37q-18 -96 41 -124h1q24 -11 63 -11h193v-147h-374q2 -84 72 -81q30 1 127 40l25 -126q-157 -58 -265 -23q-38 12 -68 42q-49 47 -58 140l1 155h74q-14 41 -15 93q0 45 13 88t44 80q29 34 80 57q51 22 126 23z" />
    <glyph glyph-name="ghainar.init" unicode="&#x63a;" horiz-adv-x="555" arabic-form="initial" 
d="M258 788q28 -2 47 -15q21 -11 33 -33q12 -25 13 -49q-1 -25 -13 -50q-10 -19 -33 -34q-22 -14 -47 -15q-27 2 -49 15q-20 12 -33 34t-13 50q0 27 13 49q14 22 33 33q22 13 49 15zM309 488q27 0 55 -4q28 -3 54 -9q30 -6 44 -11l-27 -132q-25 12 -44 15q-22 7 -52 7
q-37 0 -60 -9q-24 -11 -35 -26q-12 -14 -17 -37q-4 -19 -4 -45q0 -28 10 -52q12 -26 40 -39q26 -13 130 -13q19 0 39 4q28 4 40 7l33 9l-28 -131q-18 -7 -41 -12q-18 -3 -49 -7q-16 -2 -24 -2v-1h-393v147h81q-14 39 -16 93q0 45 13 88q13 42 43 80q30 36 81 57
q49 21 127 23z" />
    <glyph glyph-name="ghainar.medi" unicode="&#x63a;" horiz-adv-x="501" arabic-form="medial" 
d="M258 788q28 -2 47 -15q21 -11 33 -33q12 -25 13 -49q-1 -25 -13 -50q-10 -19 -33 -34q-22 -14 -47 -15q-27 2 -49 15q-20 12 -33 34t-13 50q0 27 13 49q14 22 33 33q22 13 49 15zM303 488q30 0 55 -4q24 -3 55 -8q24 -5 44 -12l-28 -132q-18 9 -44 16q-24 6 -52 6
q-37 0 -60 -9q-24 -11 -35 -26q-10 -13 -16 -37q-18 -95 41 -123h1q26 -12 63 -12h194v-147h-541v147h75q-14 39 -16 94q0 41 14 88q14 44 43 79q28 34 81 57q51 22 126 23z" />
    <glyph glyph-name="fehar.fina" unicode="&#x641;" horiz-adv-x="1062" arabic-form="final" 
d="M674 603q-20 12 -33 34t-13 50q0 27 13 49t33 33q22 13 49 15q28 -2 47 -15q21 -11 33 -33q12 -25 13 -49q-1 -25 -13 -50q-10 -19 -33 -34q-22 -14 -47 -15q-27 2 -49 15zM1082 147v-147h-771q-82 0 -133 16q-50 16 -80 46q-28 28 -42 68q-12 39 -15 82q-5 74 7 136
q7 43 26 95l126 -25q-5 -12 -16 -48q-9 -32 -13 -58q-9 -51 2 -83q13 -39 65 -61t139 -22h160q7 0 17.5 0.5t13.5 0.5h1q-28 38 -37 94q-5 28 -5 65q0 40 13 72t43 61q30 27 78 42q88 29 160 8q79 -24 120 -102q28 -55 28 -132q0 -49 -3 -100q-1 -3 -1 -8h117zM845 149
q21 85 -2 133q-21 46 -109 38q-88 -7 -88 -68q0 -28 14 -55q15 -31 38 -40q22 -8 147 -8z" />
    <glyph glyph-name="fehar.init" unicode="&#x641;" horiz-adv-x="612" arabic-form="initial" 
d="M330 784q28 -2 47 -15q21 -11 33 -33q12 -25 13 -49q-1 -25 -13 -50q-10 -19 -33 -34q-22 -14 -47 -15q-27 2 -49 15q-20 12 -33 34t-13 50q0 27 13 49q14 22 33 33q22 13 49 15zM423 489q79 -24 120 -102q29 -56 29 -132q0 -55 -4 -100q-2 -34 -8 -90l-12 -65h-568v147
h192v1q-30 41 -37 93q-5 28 -5 65q0 40 13 72t43 61q28 27 78 42q88 29 159 8zM336 320q-87 -7 -87 -68q0 -29 14 -56q15 -30 38 -39q22 -8 147 -8q21 83 -2 132q-23 47 -110 39z" />
    <glyph glyph-name="fehar.medi" unicode="&#x641;" horiz-adv-x="549" arabic-form="medial" 
d="M265 784q28 -2 47 -15q21 -11 33 -33q12 -25 13 -49q-1 -25 -13 -50q-10 -19 -33 -34q-22 -14 -47 -15q-27 2 -49 15q-20 12 -33 34t-13 50q0 27 13 49t33 33q22 13 49 15zM351 489q81 -24 121 -102q28 -55 28 -132q0 -75 -3 -100l-1 -8h73v-147h-589v147h119
q-2 8 -18 41q-15 28 -19 53q-5 28 -5 65q0 38 14 72q13 34 43 61q28 27 77 42q88 29 160 8zM265 320q-88 -7 -88 -68q0 -29 13 -56q15 -30 38 -39q22 -8 147 -8q21 83 -2 132q-23 47 -108 39z" />
    <glyph glyph-name="qafar.fina" unicode="&#x642;" horiz-adv-x="781" arabic-form="final" 
d="M375 783q28 -2 47 -15q21 -10 33 -33q12 -25 13 -49q-1 -25 -13 -50q-10 -19 -33 -34q-22 -14 -47 -15q-27 2 -49 15q-20 12 -33 34t-13 50q0 27 13 49q13 23 33 33q22 13 49 15zM614 783q28 -2 47 -15q21 -10 33 -33q12 -25 13 -49q-1 -25 -13 -50q-10 -19 -33 -34
q-22 -14 -47 -15q-27 2 -49 15q-20 12 -33 34t-13 50q0 27 13 49q14 23 33 33q22 13 49 15zM471 488q66 0 100 -3l90 -9q53 -6 78 -11v-318h62v-147h-71q-30 -110 -152 -166q-111 -52 -246 -35q-139 18 -220 102q-90 96 -68 246h104q-13 -106 54 -164q55 -49 152 -54
q88 -5 153 28q68 33 59 82q-18 -13 -36 -21t-45 -13q-23 -4 -65 -4q-38 0 -72 12q-34 13 -61 43t-42 77q-16 50 -16 117q0 76 28 129q26 51 83 81q53 28 131 28zM492 370q-26 1 -47 -8q-17 -9 -28 -36q-11 -25 -11 -74q0 -47 8 -77t22 -43t38 -13q16 0 31 3q16 3 29 13
t21 32q9 21 9 56v138q-16 4 -35 6q-18 3 -37 3z" />
    <glyph glyph-name="qafar.init" unicode="&#x642;" horiz-adv-x="612" arabic-form="initial" 
d="M211 784q28 -2 47 -15q21 -11 33 -33q12 -25 13 -49q-1 -25 -13 -50q-10 -19 -33 -34q-22 -14 -47 -15q-27 2 -49 15q-20 12 -33 34t-13 50q0 27 13 49t33 33q22 13 49 15zM450 784q28 -2 47 -15q21 -11 33 -33q12 -25 13 -49q-1 -25 -13 -50q-10 -19 -33 -34
q-22 -14 -47 -15q-27 2 -49 15q-20 12 -33 34t-13 50q0 27 13 49q14 22 33 33q22 13 49 15zM423 489q79 -24 120 -102q29 -56 29 -132q0 -55 -4 -100q-2 -34 -8 -90l-12 -65h-568v147h192v1q-30 41 -37 93q-5 28 -5 65q0 40 13 72t43 61q28 27 78 42q88 29 159 8zM336 320
q-87 -7 -87 -68q0 -29 14 -56q15 -30 38 -39q22 -8 147 -8q21 83 -2 132q-23 47 -110 39z" />
    <glyph glyph-name="qafar.medi" unicode="&#x642;" horiz-adv-x="549" arabic-form="medial" 
d="M119 784q28 -2 47 -15q21 -11 33 -33q12 -25 13 -49q-1 -25 -13 -50q-10 -19 -33 -34q-22 -14 -47 -15q-27 2 -49 15q-20 12 -33 34t-13 50q0 27 13 49t33 33q22 13 49 15zM358 784q28 -2 47 -15q21 -11 33 -33q12 -25 13 -49q-1 -25 -13 -50q-10 -19 -33 -34
q-22 -14 -47 -15q-27 2 -49 15q-20 12 -33 34t-13 50q0 27 13 49q14 22 33 33q22 13 49 15zM351 489q81 -24 121 -102q28 -55 28 -132q0 -75 -3 -100l-1 -8h73v-147h-589v147h119q-2 8 -18 41q-15 28 -19 53q-5 28 -5 65q0 38 14 72q13 34 43 61q28 27 77 42q88 29 160 8z
M265 320q-88 -7 -88 -68q0 -29 13 -56q15 -30 38 -39q22 -8 147 -8q21 83 -2 132q-23 47 -108 39z" />
    <glyph glyph-name="kafar.fina" unicode="&#x643;" horiz-adv-x="1220" arabic-form="final" 
d="M1062 223l-3 -42q38 -34 160 -34h22v-147h-84q-108 0 -167 41q-59 -41 -269 -41h-397q-153 0 -213 57q-71 68 -71 265v62h174v-86q0 -151 171 -151h382q80 0 100 17q23 20 23 95l-1 662h173v-698zM618 698q16 0 36 -3q18 -1 36 -6q25 -5 28 -6l-18 -87q-12 7 -28 10
q-15 4 -34 4q-24 0 -39 -6q-15 -5 -23 -17q-8 -10 -10 -24q-5 -11 -3 -29q-3 -24 6 -43q8 -18 26 -26q19 -8 51 -8q6 0 26 2q9 1 25 5l21 6l-18 -86q-9 -3 -27 -7q-12 -5 -31 -6q-8 -1 -22 -1q-82 -4 -210 0v114l43 -5q-5 22 -7 58q0 27 9 57q7 28 28 52q21 25 53 37
q31 13 82 15z" />
    <glyph glyph-name="kafar.init" unicode="&#x643;" horiz-adv-x="838" arabic-form="initial" 
d="M586 775h-169q-73 0 -124 -69q-47 -63 -47 -150v-23h552v-165q-1 -6 -1 -12q-9 -209 -86 -283q-74 -73 -283 -73h-448v147h396q143 0 201 41q70 50 47 180h-552v165q0 202 73 298q70 90 211 90h230v-146z" />
    <glyph glyph-name="kafar.medi" unicode="&#x643;" horiz-adv-x="982" arabic-form="medial" 
d="M585 775h-168q-74 0 -125 -69q-47 -63 -47 -149v-24h552v-164h-1v-13q0 -20 -8 -92q3 -72 56 -98q39 -19 136 -19h22v-147h-83q-144 0 -206 77q-74 -77 -287 -77h-446v147h394q144 0 203 41q70 50 47 181h-552v164q0 204 71 298q71 90 213 90h229v-146z" />
    <glyph glyph-name="lamar.fina" unicode="&#x644;" horiz-adv-x="754" arabic-form="final" 
d="M701 147h72v-147h-88q-33 -116 -139 -171q-100 -51 -218 -33q-116 16 -198 95q-90 87 -90 213v165h174v-194q0 -62 50 -106q43 -38 108 -43q63 -3 105 36q48 45 48 136v828h176v-779z" />
    <glyph glyph-name="lamar.init" unicode="&#x644;" horiz-adv-x="474" arabic-form="initial" 
d="M434 929v-604q0 -199 -73 -268q-59 -57 -214 -57h-167v147h105q175 0 175 151v631h174z" />
    <glyph glyph-name="lamar.medi" unicode="&#x644;" horiz-adv-x="526" arabic-form="medial" 
d="M350 929v-631q0 -151 173 -151h23v-147h-83q-141 0 -200 44q-59 -44 -200 -44h-83v147h22q174 0 174 151v631h174z" />
    <glyph glyph-name="meemar.fina" unicode="&#x645;" horiz-adv-x="899" arabic-form="final" 
d="M919 147v-147h-242v64q-17 -20 -33 -31q-39 -28 -84 -38q-44 -10 -93 -10q-50 0 -94 10q-6 1 -18 5h-180l21 -265l-156 -68v326q0 53 40.5 99t133.5 55q-10 37 -10 91q0 77 23 128q26 53 61 77q38 26 85 37q47 9 94 9q48 0 93 -9q47 -11 85 -37q36 -25 60 -77
q23 -51 23 -128q0 -54 -10 -91h201zM540 153q11 31 11 85q0 53 -11 84q-11 30 -28 42q-20 12 -45 11q-26 1 -46 -11q-18 -11 -29 -42q-10 -29 -10 -84q0 -56 10 -85q11 -32 29 -43q20 -11 46 -11q25 0 45 11q18 12 28 43z" />
    <glyph glyph-name="meemar.init" unicode="&#x645;" horiz-adv-x="613" arabic-form="initial" 
d="M312 489q54 0 94 -9q40 -8 83 -37q38 -26 61 -77t23 -128q0 -76 -24 -129q-23 -51 -60 -76q-39 -28 -84 -38q-43 -10 -93 -10q-56 0 -94 10q-9 1 -18 5h-220v147h79q-10 37 -10 91q2 77 24 128q23 51 61 77q40 27 84 37q45 9 94 9zM312 375q-26 2 -46 -11
q-18 -11 -29 -42q-10 -29 -10 -84q0 -56 10 -85q11 -32 29 -43q20 -11 46 -11q25 0 45 11q19 13 29 43q10 29 10 85q0 55 -10 84q-10 30 -29 42t-45 11z" />
    <glyph glyph-name="meemar.medi" unicode="&#x645;" horiz-adv-x="638" arabic-form="medial" 
d="M312 489q48 0 93 -9q43 -10 83 -37q39 -28 61 -77q22 -48 22 -128q0 -52 -9 -91h95v-147h-234q-15 -4 -19 -5q-43 -10 -92 -10q-51 0 -94 10q-11 1 -20 5h-218v147h78q-10 39 -10 91q2 83 23 128q24 53 61 77q38 26 86 37q45 9 94 9zM312 375q-26 1 -46 -11t-30 -42
q-10 -29 -10 -84q0 -56 10 -85q10 -31 30 -43q20 -11 46 -11q24 0 44 11q19 13 29 43q10 29 10 85q0 55 -10 84q-10 30 -29 42q-20 12 -44 11z" />
    <glyph glyph-name="noonar.fina" unicode="&#x646;" horiz-adv-x="733" arabic-form="final" 
d="M362 703q27 -2 47 -13q21 -13 33 -35q12 -23 12 -49t-12 -49t-33 -36q-20 -13 -47 -13t-49 13q-21 13 -33 36q-14 23 -14 49t14 49q14 22 33 35q22 11 49 13zM694 147h59v-147h-73q-34 -114 -139 -169q-95 -49 -214 -31q-122 17 -198 93q-89 86 -89 210v277h174v-305
q0 -61 49 -105q43 -39 106 -42q60 -4 104 37q49 46 49 133v387h172v-338z" />
    <glyph glyph-name="noonar.init" unicode="&#x646;" horiz-adv-x="372" arabic-form="initial" 
d="M224 794q28 -2 47 -15q21 -11 33 -33q12 -25 13 -49q-1 -25 -13 -50q-10 -19 -33 -34q-22 -14 -47 -15q-27 2 -49 15q-20 12 -33 34t-13 50q0 27 13 49q14 22 33 33q22 13 49 15zM320 487v-264q0 -151 -100 -196q-59 -27 -240 -27v147q66 0 88 2q64 3 75 48q5 23 5 205
v85h172z" />
    <glyph glyph-name="noonar.medi" unicode="&#x646;" horiz-adv-x="468" arabic-form="medial" 
d="M232 794q28 -2 47 -15q21 -11 33 -33q12 -25 13 -49q-1 -25 -13 -50q-10 -19 -33 -34q-22 -14 -47 -15q-27 2 -49 15q-20 12 -33 34t-13 50q0 27 13 49q14 22 33 33q22 13 49 15zM321 487v-85q0 -6 -0.5 -34t-0.5 -50v-67q0 -51 11 -71q10 -22 39 -28q28 -5 41 -5h77
v-147q-197 0 -254 33q-56 -33 -254 -33v147h77q16 0 41 5q29 6 39 28q11 20 11 71v236h173z" />
    <glyph glyph-name="hehar.fina" unicode="&#x647;" horiz-adv-x="654" arabic-form="final" 
d="M583 147h91v-147h-240v38q-19 -33 -101 -40q-88 -9 -161 22q-96 41 -123 157q-25 109 24 204q27 52 84 81q113 57 426 5v-320zM432 225v137q-224 46 -230 -109q-3 -69 34 -109q31 -34 81 -34q47 0 81 30t34 85z" />
    <glyph glyph-name="hehar.init" unicode="&#x647;" horiz-adv-x="670" arabic-form="initial" 
d="M366 505q77 -2 127 -23q49 -21 80 -58q33 -39 45 -79q13 -45 12 -88q-2 -71 -19 -118q-19 -52 -72 -94q-54 -45 -105 -45h-454v147h58q-2 42 -2 62q2 56 20 91q19 36 55 56q35 19 89 19q21 0 33 -1l-23 107q21 7 45 12q33 6 54 8q27 4 57 4zM335 371q-31 0 -52 -7h-1h-1
q35 -12 51 -28q28 -30 37 -85q9 -50 -4 -104h37q7 0 20 13q12 11 19 26q11 27 11 66q0 22 -5 45t-17 38q-13 18 -35 25q-24 11 -60 11zM198 254q-36 0 -51 -7q-18 -6 -24 -19q-6 -14 -6 -33q0 -16 1 -23l6 -25h99q17 0 33 6q13 4 21 14q7 9 9 20q2 14 2 21q0 16 -9 26
q-9 11 -28 15q-22 5 -53 5z" />
    <glyph glyph-name="hehar.medi" unicode="&#x647;" horiz-adv-x="658" arabic-form="medial" 
d="M366 505q77 -2 127 -23q51 -21 82 -58q29 -35 43 -79q13 -45 12 -88q-2 -67 -16 -110h64v-147h-698v147h58v62q0 53 18 91q19 36 55 56q35 19 89 19q23 0 34 -1l-23 107q19 7 45 12q33 6 54 8q27 4 56 4zM335 371q-30 0 -52 -7h-2q34 -12 51 -28q28 -28 37 -85
q8 -53 -3 -104h36q6 0 22 13q11 13 17 26q11 27 11 66q0 26 -4 45q-4 21 -17 38q-15 18 -35 25q-24 11 -61 11zM199 254q-37 0 -52 -7q-18 -6 -24 -19q-6 -14 -6 -33q0 -13 3 -23q2 -16 4 -25h102q15 0 31 6q14 5 20 14q9 10 10 20q2 14 2 21q0 16 -10 26q-7 10 -28 15
q-22 5 -52 5z" />
    <glyph glyph-name="wawar.fina" unicode="&#x648;" horiz-adv-x="601" arabic-form="final" 
d="M283 487q54 0 98 -4q35 -2 91 -8q36 -4 76 -12v-316h73v-147h-73q-5 -33 -16 -67q-18 -52 -45 -79q-30 -30 -68 -42q-37 -12 -81 -15q-45 -3 -91 -3q-54 1 -107 11q-64 12 -96 25l25 126q12 -5 48 -16q22 -6 58 -13q42 -6 69 -6q39 -1 76 8q31 8 43 26q13 19 13 52v32
q-21 -16 -36 -22q-16 -8 -45 -13q-23 -4 -64 -4q-40 0 -72 13q-33 13 -61 44q-29 30 -43 75q-15 44 -15 117q0 77 28 129t83 81q53 28 132 28zM303 369q-28 1 -48 -8q-17 -9 -28 -35q-10 -24 -10 -75q0 -47 8 -77t21 -43q16 -12 39 -12q15 0 31 3q15 3 28 13q15 12 22 32
q9 19 9 56v136q-24 6 -36 8q-22 2 -36 2z" />
    <glyph glyph-name="alefMaksuraar.fina" unicode="&#x649;" horiz-adv-x="1095" arabic-form="final" 
d="M75 263l125 -26q-12 -31 -16 -45q-7 -23 -13 -59q-5 -28 -7 -68q0 -35 11 -70q6 -28 26 -42t175 -14h457q-1 61 -120 61h-173q-114 0 -102 147h676v-147h-126q10 -27 10 -61v-3q2 -3 -6 -138h-683q-83 0 -131 14q-51 16 -80 45q-27 29 -41 67q-12 37 -15 82q-2 52 -2 56
q2 59 10 107q9 54 25 94z" />
    <glyph glyph-name="yehar.fina" unicode="&#x64a;" horiz-adv-x="1095" arabic-form="final" 
d="M75 263l125 -26q-12 -30 -16 -46q-7 -21 -13 -58q-5 -28 -7 -68q0 -35 11 -70q6 -28 26 -42q19 -15 175 -15h457q-2 62 -120 62h-173q-114 0 -102 147h676v-147h-126q10 -27 10 -62v-3q2 -2 -6 -137h-683q-83 0 -131 14q-51 16 -80 45q-26 26 -41 67q-12 37 -15 82
q-2 52 -2 56q2 59 10 107q9 54 25 94zM414 -309q28 -2 47 -15q21 -10 33 -33q12 -25 13 -49q-1 -25 -13 -50q-10 -19 -33 -34q-22 -14 -47 -15q-27 2 -49 15q-20 12 -33 34t-13 50q0 27 13 49q14 23 33 33q22 13 49 15zM653 -309q28 -2 47 -15q21 -10 33 -33q12 -25 13 -49
q-1 -25 -13 -50q-10 -19 -33 -34q-22 -14 -47 -15q-27 2 -49 15q-20 12 -33 34t-13 50q0 27 13 49q13 23 33 33q22 13 49 15z" />
    <glyph glyph-name="yehar.init" unicode="&#x64a;" horiz-adv-x="547" arabic-form="initial" 
d="M507 487v-264q0 -159 -82.5 -191t-411.5 -32h-33v147q253 0 275 2q65 3 75 48q5 23 5 205v85h172zM137 -108q28 -2 47 -15q21 -11 33 -33q12 -25 13 -49q-1 -25 -13 -50q-10 -19 -33 -34q-22 -14 -47 -15q-27 2 -49 15q-20 12 -33 34t-13 50q0 27 13 49t33 33
q22 13 49 15zM376 -108q28 -2 47 -15q21 -11 33 -33q12 -25 13 -49q-1 -25 -13 -50q-10 -19 -33 -34q-22 -14 -47 -15q-27 2 -49 15q-20 12 -33 34t-13 50q0 27 13 49q14 22 33 33q22 13 49 15z" />
    <glyph glyph-name="yehar.medi" unicode="&#x64a;" horiz-adv-x="603" arabic-form="medial" 
d="M456 487v-85q0 -6 -0.5 -34t-0.5 -50v-67q0 -51 11 -71q10 -22 39 -28q27 -5 41 -5h77v-147q-197 0 -254 33q-25 -15 -149 -24t-240 -9v147h212q16 0 41 5q29 6 39 28q11 20 11 71v236h173zM227 -108q28 -2 47 -15q21 -11 33 -33q12 -25 13 -49q-1 -25 -13 -50
q-10 -19 -33 -34q-22 -14 -47 -15q-27 2 -49 15q-20 12 -33 34t-13 50q0 27 13 49t33 33q22 13 49 15zM466 -108q28 -2 47 -15q21 -11 33 -33q12 -25 13 -49q-1 -25 -13 -50q-10 -19 -33 -34q-22 -14 -47 -15q-27 2 -49 15q-20 12 -33 34t-13 50q0 27 13 49q14 22 33 33
q22 13 49 15z" />
    <glyph glyph-name=".notdef" horiz-adv-x="897" 
d="M448 997h9q7 -1 12 -1h1q154 0 274 -126q113 -119 113 -282v-3q0 -11 -1 -16v-11q-1 -5 -1 -8q-1 -2 -1.5 -6.5t-0.5 -6.5v-5l-2 -15q0 -1 -1 -2q-20 -106 -88 -188l-39 40q79 97 79 222q0 147 -104 251t-251 104t-251 -104t-104 -251q0 -126 80 -224l-38 -38
q-67 82 -87 187q0 2 -1 3l-2 15q0 2 -1 5q-1 5 -1 13q0 5 -1 8q0 9 -1 11v19q0 169 120 289t288 120zM447 936q143 0 245 -102q101 -101 101 -245q0 -122 -76 -216l-42 42q59 77 59 174q0 119 -84 203q-84 85 -203 85t-203 -85q-84 -84 -84 -203q0 -98 60 -176l-41 -42
q-78 96 -78 218q0 144 101 245q102 102 245 102zM447 868q115 0 197 -82q82 -81 82 -197q0 -95 -57 -168l-45 45q40 55 40 125q0 90 -64 154q-64 63 -154 63t-153 -63q-64 -64 -64 -154q0 -71 42 -128l-45 -44q-58 74 -58 170q0 116 82 197q82 82 197 82zM446 692
q40 0 68 -28t28 -68q0 -38 -27 -67l245 -263h-623l242 260q-30 28 -30 70q0 39 29 68q28 28 68 28zM187 164h22v3q0 17 12 29t29 12t29 -12t12 -29v-3h68l-42 23q1 2 4.5 8.5t6.5 11.5v-1l18 -10l17 -9l22 -13h1v-32h-104q-12 -16 -32 -16t-33 16h-52v82h22v-60zM460 224
v-20q7 4 18 4h61v-66h-112v22h11v60h22zM654 224v-20q8 4 18 4h62v-44h70q-7 5 -21 11l-21 12q1 4 6 10l5 9l25 -12q5 -4 10 -7l11 -7l12 -6v-1v-31h-227q-12 -23 -38 -23h-3v22h3q6 0 11 3q-13 4 -20 17q-5 8 -3 17q3 26 30 30h26v-44h22v60h22zM810 207h-16v17h16v-17z
M111 207q18 0 30 -12q13 -13 13 -31q0 -13 -8 -24h-70q-8 11 -8 24q0 18 13 31q12 12 30 12zM111 185q-20 0 -20 -21v-1h40l1 1q0 21 -21 21zM250 185q-18 0 -18 -18t18 -18t18 18t-18 18zM517 185h-38q-18 0 -18 -18v-3h56v21zM589 164v21q-14 -2 -14 -10q0 -9 14 -11z
M711 185h-38q-18 0 -18 -18q0 -2 1 -3h55v21zM566 109v-16q-6 0 -6 -4v-16h6v-15h-6v-40h6v-15h-27v55h-6v15h6v26q0 17 27 10zM87 110q10 -3 10 -11v-34q7 9 22 9q25 0 25 -25v-31h7v-15h-27v43q0 12 -13 12q-14 -2 -14 -12v-28h7v-15h-27v86q0 5 -7 4v16q7 3 17 1z
M444 110q10 -3 10 -11v-34q8 9 22 9q25 0 25 -25v-31h7v-15h-27v43q0 12 -14 12q-13 -1 -13 -12v-28h7v-15h-27v86q0 5 -7 4v16q7 3 17 1zM749 73h13v-15h-13v-36q0 -5 7 -4v-15q-6 -4 -17 -2q-10 3 -10 11v71h-7v15h27v-25zM321 74q26 0 26 -25v-31h6v-15h-26v43
q0 12 -14 12q-13 -1 -13 -11v-29h7v-15h-27v43q0 14 -14 12q-13 -1 -13 -12v-28h6v-15h-27v51q0 4 -6 4v15q25 7 25 -10q6 11 23 11q15 0 23 -11q8 12 24 11zM690 74q25 0 25 -25v-31h7v-15h-27v43q0 12 -13 12q-13 -1 -13 -12v-28h6v-15h-27v50q0 5 -6 5v15q25 7 25 -10
q6 11 23 11zM177 74q14 0 22 -8v7h25v-15h-6v-36q0 -5 6 -5v-14q-6 -4 -15 -2q-10 3 -10 11q0 -11 -22 -11q-26 2 -26 26v22q0 25 26 25zM379 74q14 0 22 -8v7h25v-15h-6v-36q0 -5 6 -5v-14q-6 -4 -15 -2q-10 3 -10 11q0 -11 -22 -11q-26 2 -26 26v22q0 25 26 25zM605 74
q37 0 37 -36q-1 -36 -37 -37q-19 -1 -28 8.5t-9 28.5q0 36 37 36zM794 74q27 0 27 -15v-8h-17q0 8 -9 8q-5 0 -7.5 -1.5t-1.5 -3.5q0 -5 19 -12t19 -20q0 -21 -31 -21q-28 0 -30 17v7h17q0 -10 13 -10q11 0 11 7q0 5 -19 12t-19 20q0 20 28 20zM186 58q-14 0 -14 -13v-15
q0 -13 13 -12q14 0 14 12v15q0 12 -13 13zM388 58q-14 0 -14 -13v-15q0 -14 14 -12q13 0 13 12v15q0 12 -13 13zM605 58q-17 0 -17 -20q0 -21 17 -21t17 21q0 20 -17 20z" />
    <glyph glyph-name=".null" 
 />
    <glyph glyph-name="nonmarkingreturn" horiz-adv-x="500" 
 />
    <glyph glyph-name="CR" unicode="&#xd;" horiz-adv-x="500" 
 />
    <glyph glyph-name="space" unicode=" " horiz-adv-x="226" 
 />
    <glyph glyph-name="exclam" unicode="!" horiz-adv-x="384" 
d="M273 548l-18 -259h-127l-17 259v381h162v-381zM174 183h39q31 0 44 -12.5t13 -44.5v-69q0 -31 -13 -44t-44 -13h-39q-33 0 -46 12.5t-13 44.5v69q0 32 13 44.5t46 12.5z" />
    <glyph glyph-name="quotedbl" unicode="&#x22;" horiz-adv-x="491" 
d="M195 631h-105l-10 292h126zM401 631h-104l-11 292h126z" />
    <glyph glyph-name="numbersign" unicode="#" horiz-adv-x="933" 
d="M735 682h149l-20 -100h-146l-37 -210h147l-20 -99h-144l-48 -273h-124l47 273h-210l-48 -273h-125l47 273h-155l19 99h154l36 210h-153l19 100h151l43 241h124l-41 -241h210l42 241h125zM382 582l-37 -210h211l36 210h-210z" />
    <glyph glyph-name="dollar" unicode="$" horiz-adv-x="762" 
d="M481 1064l-10 -127q114 -7 200 -29l-11 -119q-6 0 -83 2t-120 2l-21 -258l79 -24q104 -32 146 -97t42 -172q0 -153 -71 -205.5t-255 -52.5h-3l-12 -147h-73l13 148q-107 5 -224 28l10 127l228 -4l22 261l-85 27q-100 31 -143 96t-43 171q0 79 17.5 128t58.5 75.5
t95.5 35.5t143.5 9h16l11 125h72zM364 558l21 236q-38 0 -58.5 -2t-41.5 -7.5t-30 -16.5t-15 -30.5t-6 -48.5q0 -58 22.5 -81.5t81.5 -41.5zM408 374l-20 -239q88 1 117.5 22t29.5 86q0 59 -21 81.5t-77 40.5z" />
    <glyph glyph-name="percent" unicode="%" horiz-adv-x="1205" 
d="M275 940q124 0 174 -61.5t50 -212.5q0 -150 -50 -212t-174 -62q-123 0 -173 62t-50 212q0 151 50 212.5t173 61.5zM369 0h-108l572 923h107zM274 844q-58 0 -79 -37.5t-21 -140.5q0 -104 21 -141t79 -37q60 0 81.5 37t21.5 141q0 103 -22 140.5t-81 37.5zM928 535
q124 0 173.5 -62t49.5 -212q0 -152 -49.5 -214t-173.5 -62q-123 0 -172.5 62t-49.5 214q0 150 49.5 212t172.5 62zM928 437q-59 0 -79.5 -35.5t-20.5 -140.5q0 -106 20.5 -142.5t79.5 -36.5q58 0 79.5 37t21.5 142q0 104 -21.5 140t-79.5 36z" />
    <glyph glyph-name="ampersand" unicode="&#x26;" horiz-adv-x="1025" 
d="M459 937q129 0 215 -14l-20 -122q-56 4 -201 4q-106 0 -142 -25t-36 -109q0 -78 31 -106t115 -28h222l12 153h137v-153h153v-121h-153v-217q0 -42 15.5 -59t56.5 -17h89l18 -115q-66 -23 -158 -23q-65 0 -108 27.5t-58 77.5q-56 -57 -123.5 -81t-171.5 -24
q-149 0 -211.5 55.5t-62.5 193.5q0 111 42 172t139 70v5q-82 8 -117.5 60.5t-35.5 155.5q0 64 13.5 107t37.5 69.5t70 40.5t97.5 18.5t134.5 4.5zM639 416h-227q-90 0 -124 -32t-34 -119q0 -82 30 -111t113 -28q147 0 242 77v213z" />
    <glyph glyph-name="quotesingle" unicode="'" horiz-adv-x="285" 
d="M195 631h-105l-10 292h126z" />
    <glyph glyph-name="parenleft" unicode="(" horiz-adv-x="484" 
d="M433 1056l19 -72q-122 -58 -178 -198.5t-56 -367.5q0 -222 56 -363.5t178 -202.5l-19 -73q-192 67 -282.5 222t-90.5 416q0 263 90.5 418t282.5 221z" />
    <glyph glyph-name="parenright" unicode=")" horiz-adv-x="484" 
d="M32 984l20 72q192 -66 282.5 -221t90.5 -418q0 -261 -90.5 -416t-282.5 -222l-20 73q122 61 178 202.5t56 363.5q0 227 -56 367.5t-178 198.5z" />
    <glyph glyph-name="asterisk" unicode="*" horiz-adv-x="602" 
d="M333 705l139 -173l-74 -55l-97 163l-98 -161l-75 53l139 171l-13 221h94zM243 749v-40l-18 -26l-166 42l29 87zM543 723l-165 -40l-21 26v40l156 63z" />
    <glyph glyph-name="plus" unicode="+" horiz-adv-x="730" 
d="M425 461h239v-120h-239v-229h-122v229h-237v120h237v229h122v-229z" />
    <glyph glyph-name="comma" unicode="," horiz-adv-x="318" 
d="M138 183h44q32 0 44 -12.5t12 -44.5v-86q0 -122 -59 -227l-73 20q17 79 17 167q-45 0 -45 51v75q0 31 14 44t46 13z" />
    <glyph glyph-name="hyphen" unicode="-" horiz-adv-x="572" 
d="M487 282h-401v115h401v-115z" />
    <glyph glyph-name="period" unicode="." horiz-adv-x="321" 
d="M136 183h49q33 0 45.5 -12.5t12.5 -44.5v-69q0 -32 -12.5 -44.5t-45.5 -12.5h-49q-33 0 -45.5 12.5t-12.5 44.5v69q0 32 12.5 44.5t45.5 12.5z" />
    <glyph glyph-name="slash" unicode="/" horiz-adv-x="714" 
d="M159 -92h-130l526 1015h130z" />
    <glyph glyph-name="zero" unicode="0" horiz-adv-x="825" 
d="M412 940q187 0 262.5 -109t75.5 -370t-75.5 -369.5t-262.5 -108.5t-262 108.5t-75 369.5t75 370t262 109zM410 800q-98 0 -135 -72.5t-37 -266.5q0 -193 37 -265.5t135 -72.5q101 0 139 72.5t38 265.5q0 194 -38 266.5t-139 72.5z" />
    <glyph glyph-name="one" unicode="1" horiz-adv-x="554" 
d="M417 0h-167v681q0 55 7 90l-217 -61l-20 119l230 94h167v-923z" />
    <glyph glyph-name="two" unicode="2" horiz-adv-x="761" 
d="M370 939q150 0 223 -44t73 -165q0 -85 -32 -152.5t-122 -164.5l-245 -263q61 8 143 8h285v-158h-628v100q0 45 24 70l241 266q87 96 127 162t38 119q-1 47 -34 61.5t-110 14.5q-125 0 -270 -16l-9 128q155 34 296 34z" />
    <glyph glyph-name="three" unicode="3" horiz-adv-x="750" 
d="M354 940q158 0 225.5 -47t67.5 -167q0 -101 -30 -160t-105 -73v-5q86 -14 121.5 -70.5t37.5 -160.5q2 -145 -67 -209.5t-236 -64.5q-140 0 -306 24l8 131q157 -11 254 -11q103 0 142 31.5t39 118.5q0 75 -32 109t-124 34h-171v124h171q87 0 113 34.5t26 106.5
q-1 72 -33 92t-127 20q-139 0 -241 -8l-8 127q143 24 275 24z" />
    <glyph glyph-name="four" unicode="4" horiz-adv-x="838" 
d="M460 923l-234 -537q-10 -25 -1.5 -36.5t30.5 -11.5h257v257l28 150h130v-407h119v-112l-116 -17h-3v-209h-158v209h-362q-62 0 -92.5 49t-5.5 106l246 559h162z" />
    <glyph glyph-name="five" unicode="5" horiz-adv-x="727" 
d="M630 785h-380l-11 -197l117 -13q169 -20 238 -89t68 -207q0 -62 -13 -110.5t-45.5 -92.5t-96 -68t-154.5 -24q-131 0 -294 31l17 135q120 -20 236 -20q75 0 115.5 17t54.5 48t15 86q1 27 -1 46.5t-10.5 35.5t-15.5 26.5t-27.5 19.5t-33 13.5t-46 9.5t-54 7.5t-67.5 7.5
l-88 9q-27 3 -43 21.5t-15 45.5l22 400h517z" />
    <glyph glyph-name="six" unicode="6" horiz-adv-x="774" 
d="M449 939q122 0 203 -23l-10 -116q-64 2 -193 2q-58 0 -92.5 -9.5t-61 -38.5t-38.5 -82.5t-15 -142.5q43 43 92 60.5t121 17.5q146 0 202 -67t56 -231q0 -81 -12 -136t-44.5 -100t-95 -67t-156.5 -22q-83 0 -138 14t-93 44.5t-58.5 87.5t-29 132t-8.5 189
q0 125 15.5 212.5t43 141.5t75.5 84t102.5 40t134.5 10zM408 477q-47 0 -84 -13t-83 -48q0 -65 1.5 -104.5t7.5 -76.5t16.5 -56t29.5 -34t45 -20t65 -5q93 0 120.5 42.5t27.5 145.5q0 96 -30.5 132.5t-115.5 36.5z" />
    <glyph glyph-name="seven" unicode="7" horiz-adv-x="694" 
d="M43 923h537q46 0 67 -27.5t7 -69.5l-282 -826h-166l243 703q21 58 35 79h-433z" />
    <glyph glyph-name="eight" unicode="8" horiz-adv-x="816" 
d="M408 937q123 0 190.5 -27t92 -77.5t24.5 -139.5q0 -90 -32.5 -147t-100.5 -65v-5q85 -8 120 -71.5t35 -174.5q0 -66 -14 -109.5t-50.5 -75t-101 -46t-163.5 -15.5q-129 0 -201.5 27.5t-99.5 79t-27 139.5q0 111 34.5 174.5t119.5 71.5v5q-68 8 -100 65t-32 147
q0 89 25 139.5t92 77.5t189 27zM409 810q-94 0 -125 -28t-31 -107t31.5 -106.5t125.5 -27.5q95 0 124 27t29 107q0 79 -30.5 107t-123.5 28zM410 416q-104 -1 -138 -31.5t-34 -118.5q0 -85 34 -114.5t137 -29.5q102 0 135.5 29.5t33.5 114.5q0 90 -33 120t-135 30z" />
    <glyph glyph-name="nine" unicode="9" horiz-adv-x="774" 
d="M374 939q70 0 119.5 -9t86 -32.5t58.5 -56.5t35 -88.5t17.5 -120t4.5 -160.5q0 -124 -13.5 -208.5t-39.5 -140t-72.5 -86t-103 -42t-141.5 -11.5q-130 0 -221 23l12 117q70 -4 208 -4q115 0 158.5 57t50.5 220q-44 -46 -93 -63.5t-123 -17.5q-253 0 -253 298
q-1 170 69.5 247.5t240.5 77.5zM373 802q-92 0 -121.5 -43t-29.5 -144q0 -90 30.5 -130.5t112.5 -40.5q47 0 83.5 14t86.5 50q-1 79 -4 122t-11.5 81.5t-26.5 55.5t-46.5 26t-73.5 9z" />
    <glyph glyph-name="colon" unicode=":" horiz-adv-x="336" 
d="M138 596h48q33 0 46 -12.5t13 -44.5v-68q0 -32 -13 -45t-46 -13h-48q-33 0 -46 13t-13 45v68q0 32 13 44.5t46 12.5zM138 183h48q33 0 46 -12t13 -45v-67q0 -33 -13 -46t-46 -13h-48q-33 0 -46 13t-13 46v67q0 33 13 45t46 12z" />
    <glyph glyph-name="semicolon" unicode=";" horiz-adv-x="337" 
d="M146 596h49q32 0 45 -12.5t13 -44.5v-68q0 -32 -13 -45t-45 -13h-49q-32 0 -45 13t-13 45v68q0 32 13 44.5t45 12.5zM148 183h43q32 0 45 -12.5t13 -44.5v-86q0 -120 -60 -227l-73 20q15 70 18 167q-46 0 -46 51v75q0 31 14 44t46 13z" />
    <glyph glyph-name="less" unicode="&#x3c;" horiz-adv-x="699" 
d="M615 562l-416 -161l416 -160v-127l-553 223v127l553 226v-128z" />
    <glyph glyph-name="equal" unicode="=" horiz-adv-x="778" 
d="M690 477h-602v118h602v-118zM690 194h-602v118h602v-118z" />
    <glyph glyph-name="greater" unicode="&#x3e;" horiz-adv-x="699" 
d="M638 464v-127l-554 -223v127l416 160l-416 161v128z" />
    <glyph glyph-name="question" unicode="?" horiz-adv-x="679" 
d="M354 952q141 0 209.5 -51t68.5 -156q0 -54 -23.5 -100.5t-57.5 -81.5t-68 -71.5t-60 -88.5t-30 -114h-135q-2 66 17.5 123t49.5 95.5t60 71.5t52 67.5t24 67.5q3 53 -31 78t-112 25q-102 0 -266 -9l-7 113l38.5 7t37.5 7t34 5.5t40 5t42 3.5t54 2.5t63 0.5zM306 183h39
q33 0 46 -12.5t13 -44.5v-69q0 -32 -13 -44.5t-46 -12.5h-39q-33 0 -46 12.5t-13 44.5v69q0 32 13 44.5t46 12.5z" />
    <glyph glyph-name="at" unicode="@" horiz-adv-x="985" 
d="M485 794h197q109 0 163.5 -48t54.5 -160v-407h-121l-14 95q-40 -43 -106 -75.5t-139 -32.5q-81 0 -131.5 43t-50.5 124v65q0 68 40.5 105.5t118.5 37.5h250v41q0 49 -20.5 66.5t-76.5 17.5h-165q-48 0 -74 -1t-56.5 -6t-44.5 -12t-30 -24t-22 -37t-12 -55t-7 -75t-1 -99
q0 -49 0.5 -84t5.5 -67.5t8 -53t15 -39.5t20 -29t30 -19t37 -12.5t50 -6t59.5 -2.5h73.5h361v-115q-198 -15 -361 -15q-108 -1 -175 4t-121.5 24t-81.5 45.5t-45.5 81.5t-23 118.5t-4.5 169.5q0 104 4 166.5t20 116.5t40 80t72.5 45t107.5 24t155 5zM747 451l-189 -6
q-41 -1 -56 -15t-15 -48v-21q0 -40 17.5 -57t53.5 -17q49 0 101.5 19t87.5 54v91z" />
    <glyph glyph-name="A" unicode="A" horiz-adv-x="850" 
d="M344 923h163q46 0 60 -45l277 -878h-171l-77 261h-342l-76 -261h-171l276 878q16 45 61 45zM408 796l-22 -79l-92 -319h262l-92 319q-17 62 -20 79h-36z" />
    <glyph glyph-name="B" unicode="B" horiz-adv-x="840" 
d="M429 933q178 0 247 -50.5t69 -189.5q0 -101 -37.5 -152.5t-120.5 -59.5v-5q101 -9 143.5 -70t42.5 -176q0 -139 -68 -190t-234 -51q-232 0 -368 11v923q110 10 326 10zM267 798v-259h168q85 0 117 27t32 105q0 76 -34.5 101.5t-128.5 25.5h-154zM267 417v-291l176 -2
q94 -1 128.5 27t34.5 110q0 91 -36 123.5t-133 32.5h-170z" />
    <glyph glyph-name="C" unicode="C" horiz-adv-x="773" 
d="M447 939q155 0 264 -30l-16 -127q-119 10 -248 10q-115 0 -157.5 -70.5t-42.5 -260.5q0 -189 42.5 -259.5t157.5 -70.5q165 0 268 13l15 -125q-110 -35 -283 -35q-208 0 -292 107t-84 370q0 264 84 371t292 107z" />
    <glyph glyph-name="D" unicode="D" horiz-adv-x="897" 
d="M448 935q142 0 222 -43.5t117.5 -146t37.5 -284.5t-37.5 -284t-117.5 -145.5t-222 -43.5q-170 0 -345 12v923q204 12 345 12zM448 796q-36 0 -94.5 -1t-83.5 -1v-663q156 -3 178 -3q114 0 157 71.5t43 261.5q0 191 -43 263t-157 72z" />
    <glyph glyph-name="E" unicode="E" horiz-adv-x="759" 
d="M293 925q285 0 406 -10l-8 -129h-361q-36 0 -51.5 -17.5t-15.5 -59.5v-162h379v-129h-379v-205q0 -43 15.5 -60.5t51.5 -17.5h361l8 -127q-121 -11 -406 -11q-92 0 -145 47t-53 128v578q0 81 53.5 128t144.5 47z" />
    <glyph glyph-name="F" unicode="F" horiz-adv-x="730" 
d="M298 925q276 0 393 -12l-9 -127h-334q-44 0 -61.5 -17t-17.5 -60v-178h363v-130h-363v-401h-169v743q0 87 53.5 134.5t144.5 47.5z" />
    <glyph glyph-name="G" unicode="G" horiz-adv-x="849" 
d="M476 940q154 0 265 -31l-14 -124q-139 8 -243 8q-57 0 -92.5 -6.5t-66 -25.5t-46 -56.5t-24 -97.5t-8.5 -151q0 -185 36.5 -257t129.5 -72q92 0 194 64v341h163v-532h-124l-15 91q-113 -108 -270 -108q-153 0 -221 115.5t-68 366.5q0 186 40 288.5t125.5 144.5t238.5 42z
" />
    <glyph glyph-name="H" unicode="H" horiz-adv-x="906" 
d="M802 0h-167v422h-365v-422h-167v923h167v-363h365v363h167v-923z" />
    <glyph glyph-name="I" unicode="I" horiz-adv-x="373" 
d="M270 0h-167v923h167v-923z" />
    <glyph glyph-name="J" unicode="J" horiz-adv-x="473" 
d="M373 923v-720q0 -105 -50.5 -161.5t-142.5 -56.5q-32 0 -77 7t-70 16l18 116h63q93 0 93 83v716h166z" />
    <glyph glyph-name="K" unicode="K" horiz-adv-x="818" 
d="M786 923l-249 -372q-25 -39 -61 -70v-4q50 -41 72 -79l256 -398h-188l-264 416h-91q9 -46 9 -91v-325h-167v923h167v-272q0 -55 -9 -107h91l252 379h182z" />
    <glyph glyph-name="L" unicode="L" horiz-adv-x="697" 
d="M267 923v-708q0 -42 17.5 -59t61.5 -17h321l7 -130q-139 -12 -366 -12q-208 0 -208 192v734h167z" />
    <glyph glyph-name="M" unicode="M" horiz-adv-x="1195" 
d="M836 923h172q63 0 66 -66l37 -857h-164l-31 787h-26l-159 -613q-14 -56 -69 -56h-129q-56 0 -70 56l-162 613h-23l-29 -787h-163l34 857q3 66 66 66h174q53 0 68 -57l131 -500q7 -26 28 -125h20q15 81 28 127l131 498q14 57 70 57z" />
    <glyph glyph-name="N" unicode="N" horiz-adv-x="956" 
d="M853 923v-861q0 -62 -61 -62h-133q-26 0 -41.5 12t-27.5 39l-260 565q-48 107 -55 138h-16q8 -54 8 -139v-615h-164v861q0 62 63 62h129q27 0 42 -12t28 -39l251 -550q32 -67 65 -146h16q-7 89 -7 150v597h163z" />
    <glyph glyph-name="O" unicode="O" horiz-adv-x="902" 
d="M451 940q144 0 225 -43.5t118.5 -147t37.5 -288.5t-37.5 -288t-118.5 -146.5t-225 -43.5t-224.5 43.5t-118 146.5t-37.5 288t37.5 288.5t118 147t224.5 43.5zM451 797q-117 0 -160.5 -71.5t-43.5 -264.5q0 -192 43.5 -263.5t160.5 -71.5t160.5 71.5t43.5 263.5
q0 193 -43.5 264.5t-160.5 71.5z" />
    <glyph glyph-name="P" unicode="P" horiz-adv-x="804" 
d="M437 935q182 0 249.5 -62t67.5 -235t-64.5 -235t-230.5 -62q-101 0 -189 11v-352h-167v923q127 12 334 12zM270 797v-320h163q89 0 121 33.5t32 127.5t-32 126.5t-121 32.5h-163z" />
    <glyph glyph-name="Q" unicode="Q" horiz-adv-x="905" 
d="M452 940q144 0 225 -43.5t118.5 -147t37.5 -288.5t-37.5 -288t-118.5 -146.5t-225 -43.5t-224.5 43.5t-118 146.5t-37.5 288t37.5 288.5t118 147t224.5 43.5zM452 797q-117 0 -161 -72t-44 -264q0 -191 44 -263t161 -72t160.5 71.5t43.5 263.5q0 193 -43.5 264.5
t-160.5 71.5zM349 -148l41 97q167 -59 385 -88l-52 -160q-181 43 -374 151z" />
    <glyph glyph-name="R" unicode="R" horiz-adv-x="841" 
d="M439 935q175 0 247.5 -58.5t72.5 -212.5q0 -106 -40 -163t-132 -69v-7q39 -9 72.5 -42.5t50.5 -93.5l83 -289h-178l-74 286q-12 45 -37.5 64t-68.5 19l-166 1v-370h-166v923q127 12 336 12zM269 797v-290h166q88 0 121.5 31t33.5 116q0 84 -33 113.5t-122 29.5h-166z" />
    <glyph glyph-name="S" unicode="S" horiz-adv-x="762" 
d="M381 939q167 0 290 -31l-11 -119q-127 5 -274 5q-91 0 -122 -18t-31 -87q0 -58 22 -81.5t81 -41.5l177 -55q105 -33 147.5 -98t42.5 -171q0 -79 -17 -129t-58.5 -79t-100 -39.5t-151.5 -10.5q-151 0 -300 29l11 123q219 -5 293 -5q92 0 122.5 21t30.5 91q0 60 -20.5 82.5
t-76.5 39.5l-186 59q-99 31 -142.5 96t-43.5 171q0 79 17.5 128t59 75.5t96.5 35.5t144 9z" />
    <glyph glyph-name="T" unicode="T" horiz-adv-x="792" 
d="M763 779h-284v-779h-169v779h-282v144h735v-144z" />
    <glyph glyph-name="U" unicode="U" horiz-adv-x="897" 
d="M801 923v-562q0 -207 -78 -292.5t-267 -85.5q-197 0 -278.5 86t-81.5 292v562h167v-562q0 -133 40.5 -184t145.5 -51q103 0 143 51t40 184v562h169z" />
    <glyph glyph-name="V" unicode="V" horiz-adv-x="832" 
d="M817 923l-261 -876q-6 -21 -22.5 -34t-38.5 -13h-158q-22 0 -38 13t-22 34l-262 876h172l189 -693q5 -19 13 -55.5t11 -47.5h33q12 57 26 103l185 693h173z" />
    <glyph glyph-name="W" unicode="W" horiz-adv-x="1285" 
d="M1246 923l-159 -876q-4 -21 -21.5 -34t-40.5 -13h-175q-23 0 -40 13.5t-21 34.5l-116 643q-11 55 -18 109h-27q-10 -74 -17 -109l-115 -643q-4 -21 -21.5 -34.5t-41.5 -13.5h-174q-23 0 -40 13t-21 34l-159 876h174l109 -673q8 -45 15 -126h28q16 103 21 126l114 619
q4 24 20.5 39t41.5 15h163q22 0 38.5 -15t21.5 -39l113 -620q14 -72 19 -125h30q2 14 6.5 57.5t7.5 65.5l111 676h174z" />
    <glyph glyph-name="X" unicode="X" horiz-adv-x="837" 
d="M568 475l246 -475h-178l-205 417h-26l-206 -417h-176l244 475l-227 448h175l189 -386h28l188 386h177z" />
    <glyph glyph-name="Y" unicode="Y" horiz-adv-x="787" 
d="M477 312v-312h-167v314l-303 609h176l169 -359q7 -15 37 -111h11q23 80 37 111l169 359h173z" />
    <glyph glyph-name="Z" unicode="Z" horiz-adv-x="767" 
d="M699 786l-454 -650h464v-136h-649v136l455 650h-447v137h631v-137z" />
    <glyph glyph-name="bracketleft" unicode="[" horiz-adv-x="453" 
d="M405 924h-120q-9 0 -16 -6.5t-7 -17.5v-994q0 -10 7 -17t16 -7h120v-103h-204q-90 0 -90 90v1068q0 39 25 64.5t65 25.5h204v-103z" />
    <glyph glyph-name="backslash" unicode="\" horiz-adv-x="715" 
d="M686 -92h-131l-526 1015h131z" />
    <glyph glyph-name="bracketright" unicode="]" horiz-adv-x="453" 
d="M48 1027h203q40 0 65.5 -25.5t25.5 -64.5v-1068q0 -39 -25.5 -64.5t-65.5 -25.5h-203v103h119q10 0 16.5 7t6.5 17v994q0 24 -23 24h-119v103z" />
    <glyph glyph-name="asciicircum" unicode="^" horiz-adv-x="598" 
d="M558 531l-65 -38l-188 226h-11l-190 -226l-64 38l201 293h117z" />
    <glyph glyph-name="underscore" unicode="_" horiz-adv-x="759" 
d="M675 -115h-591v115h591v-115z" />
    <glyph glyph-name="a" unicode="a" horiz-adv-x="746" 
d="M414 674q127 0 186.5 -51t59.5 -178v-445h-128l-17 100q-104 -115 -250 -115q-93 0 -150.5 50t-57.5 140v67q0 78 51 121t143 43h246v41q0 55 -24.5 74t-95.5 19q-107 0 -274 -13l-16 115q175 32 327 32zM497 295h-208q-70 0 -70 -73v-25q0 -42 20.5 -61.5t65.5 -19.5
q98 0 192 78v101z" />
    <glyph glyph-name="b" unicode="b" horiz-adv-x="777" 
d="M251 936v-221q0 -97 -16 -152q105 111 241 111q124 0 181.5 -80.5t57.5 -261.5q0 -83 -14 -143.5t-47.5 -108.5t-95 -72t-150.5 -24q-76 0 -168.5 13t-151.5 36v903h163zM414 537q-40 0 -75.5 -17.5t-87.5 -55.5v-334q82 -19 153 -16q79 1 111.5 48t32.5 170
q0 119 -26.5 162t-107.5 43z" />
    <glyph glyph-name="c" unicode="c" horiz-adv-x="666" 
d="M382 674q137 0 229 -38l-19 -101q-65 2 -182 2q-101 0 -140 -43.5t-39 -164.5q0 -122 39 -166.5t140 -44.5q112 0 197 13l15 -107q-97 -40 -241 -40q-176 0 -247.5 77.5t-71.5 267.5t72 267.5t248 77.5z" />
    <glyph glyph-name="d" unicode="d" horiz-adv-x="779" 
d="M689 0h-129l-13 90q-114 -106 -254 -106q-121 0 -175.5 88t-54.5 260q0 189 60.5 265.5t190.5 76.5q125 0 218 -58q-7 60 -7 131v189h164v-936zM362 541q-51 0 -77.5 -15t-40.5 -60.5t-14 -132.5q0 -125 27.5 -168t95.5 -43q46 0 79.5 14t92.5 54v325q-108 26 -163 26z
" />
    <glyph glyph-name="e" unicode="e" horiz-adv-x="733" 
d="M378 674q156 0 227.5 -56.5t71.5 -170.5q0 -188 -176 -188h-267q9 -86 48 -114.5t127 -28.5q96 0 235 16l15 -104q-92 -44 -270 -44t-252.5 79t-74.5 266q0 191 73 268t243 77zM385 545q-86 0 -118.5 -35t-35.5 -137h225q59 0 59 76q0 53 -28 74.5t-102 21.5z" />
    <glyph glyph-name="f" unicode="f" horiz-adv-x="528" 
d="M353 961q133 0 199 -12l-13 -115h-129q-54 0 -76 -20.5t-22 -71.5v-87h191v-118h-191v-537h-164v537h-116v111l116 7v108q0 96 48 147t157 51z" />
    <glyph glyph-name="g" unicode="g" horiz-adv-x="759" 
d="M366 674q97 0 165 -19h207l-9 -79l-86 -9q17 -43 17 -104q0 -114 -65.5 -163t-229.5 -49q-71 0 -120 10q-16 -24 -7 -54t45 -35l240 -33q96 -14 138 -59.5t42 -131.5q0 -121 -71.5 -165.5t-258.5 -44.5q-189 0 -260.5 43.5t-71.5 156.5q0 51 24 83t79 62
q-44 40 -37 105.5t55 96.5q-92 44 -92 176q0 117 65.5 165t230.5 48zM365 559q-83 0 -115 -20.5t-32 -75.5t32 -76.5t115 -21.5t114.5 21.5t31.5 76.5t-31.5 75.5t-114.5 20.5zM436 25l-187 23q-51 -46 -51 -92q0 -57 32.5 -72.5t141.5 -15.5q107 0 141 16t34 71
q0 40 -20 51t-91 19z" />
    <glyph glyph-name="h" unicode="h" horiz-adv-x="789" 
d="M255 936v-241q0 -70 -10 -132q146 111 276 111q88 0 134.5 -47t46.5 -135v-492h-163v443q0 54 -15 73.5t-55 19.5q-45 0 -93.5 -19t-121.5 -61v-456h-163v936h164z" />
    <glyph glyph-name="i" unicode="i" horiz-adv-x="354" 
d="M139 940h75q47 0 47 -47v-73q0 -47 -47 -47h-75q-47 0 -47 47v73q0 47 47 47zM258 0h-162v655h162v-655z" />
    <glyph glyph-name="j" unicode="j" horiz-adv-x="357" 
d="M142 941h75q46 0 46 -47v-72q0 -47 -46 -47h-75q-47 0 -47 47v72q0 47 47 47zM261 655v-643q0 -86 -40.5 -161t-109.5 -118l-91 70q41 50 59.5 98.5t18.5 110.5v643h163z" />
    <glyph glyph-name="k" unicode="k" horiz-adv-x="714" 
d="M255 936v-399q0 -66 -9 -115h71l179 233h185l-184 -233q-21 -33 -54 -54v-3q18 -12 54 -63l205 -302h-185l-199 313h-72q8 -70 8 -100v-213h-163v936h164z" />
    <glyph glyph-name="l" unicode="l" horiz-adv-x="420" 
d="M255 936v-731q0 -77 78 -77h56l19 -120q-21 -10 -64 -16.5t-75 -6.5q-83 0 -130 47t-47 132v772h163z" />
    <glyph glyph-name="m" unicode="m" horiz-adv-x="1170" 
d="M905 674q87 0 132.5 -46.5t45.5 -135.5v-492h-159v443q0 50 -18 71.5t-64 21.5q-39 0 -73 -16t-103 -63v-457h-157v443q0 51 -19 72t-62 21q-38 0 -72.5 -15.5t-102.5 -61.5v-459h-162v655h132l10 -96q130 115 256 115q133 0 167 -110q123 110 249 110z" />
    <glyph glyph-name="n" unicode="n" horiz-adv-x="789" 
d="M521 674q88 0 134.5 -47t46.5 -135v-492h-163v443q0 54 -15 73.5t-55 19.5q-45 0 -92.5 -18.5t-122.5 -61.5v-456h-163v655h136l11 -96q152 115 283 115z" />
    <glyph glyph-name="o" unicode="o" horiz-adv-x="770" 
d="M386 674q177 0 250 -78.5t73 -267.5t-73 -267t-250 -78t-250.5 78t-73.5 267q0 188 73.5 267t250.5 79zM386 544q-90 0 -122.5 -45t-32.5 -171t32.5 -171t122.5 -45q89 0 121.5 45t32.5 171t-32.5 171t-121.5 45z" />
    <glyph glyph-name="p" unicode="p" horiz-adv-x="790" 
d="M504 673q223 0 223 -351q0 -186 -61 -262t-190 -76q-132 0 -227 64q4 -45 4 -136v-173h-162v916h134l10 -97q46 51 121.5 83t147.5 32zM444 539q-44 0 -85.5 -19t-105.5 -63v-313q12 -3 36 -8.5t36.5 -8t31.5 -5.5t36 -4.5t35 -1.5q51 0 78 15.5t40.5 60.5t13.5 132
q0 122 -26 168.5t-90 46.5z" />
    <glyph glyph-name="q" unicode="q" horiz-adv-x="775" 
d="M373 674q73 0 164.5 -13t149.5 -37v-885h-163v202q0 82 13 142q-117 -100 -246 -100q-117 0 -173 83t-56 259q0 86 14 146.5t47.5 108t95.5 71t154 23.5zM370 544q-81 -3 -111 -49.5t-30 -177.5q0 -106 24.5 -150.5t95.5 -44.5q46 0 84.5 15.5t91.5 49.5v340
q-73 19 -155 17z" />
    <glyph glyph-name="r" unicode="r" horiz-adv-x="552" 
d="M517 521h-46q-70 0 -217 -58v-463h-163v655h127l15 -96q140 115 270 115h32z" />
    <glyph glyph-name="s" unicode="s" horiz-adv-x="691" 
d="M325 674q142 0 290 -24l-12 -113q-166 6 -250 6q-88 0 -113.5 -9t-25.5 -47q0 -9 1 -15.5t3.5 -12.5t4.5 -10t8.5 -7.5t9 -5.5t12.5 -5.5t14 -4.5t17 -4.5t19 -5.5l177 -48q84 -23 120 -64t36 -125q0 -115 -65.5 -154.5t-226.5 -39.5q-143 0 -274 22l10 113q65 -5 223 -5
q106 0 141.5 12t35.5 51q0 9 -2 16.5t-4 12.5t-8.5 10t-10 8t-14.5 7t-16 5.5t-20 5.5t-21 6l-173 46q-85 24 -119.5 68.5t-34.5 124.5q0 106 60.5 146.5t207.5 39.5z" />
    <glyph glyph-name="t" unicode="t" horiz-adv-x="535" 
d="M309 655h192v-118h-192v-332q0 -43 17.5 -60t61.5 -17h89l18 -120q-71 -23 -169 -23q-86 0 -132 50t-46 141v361h-119v111l118 7v189h162v-189z" />
    <glyph glyph-name="u" unicode="u" horiz-adv-x="774" 
d="M683 0h-128l-12 88q-139 -105 -274 -105q-182 0 -182 181v491h163v-442q0 -53 17 -73t63 -20q67 0 191 73v462h162v-655z" />
    <glyph glyph-name="v" unicode="v" horiz-adv-x="730" 
d="M715 655l-224 -616q-16 -39 -55 -39h-142q-40 0 -53 39l-225 616h171l137 -432q9 -27 32 -113h17l35 113l135 432h172z" />
    <glyph glyph-name="w" unicode="w" horiz-adv-x="1115" 
d="M1090 655l-173 -611q-13 -44 -57 -44h-138q-23 0 -39.5 14t-20.5 37l-79 402q-3 16 -8 52t-9 55h-16l-19 -107l-76 -402q-4 -23 -21.5 -37t-40.5 -14h-135q-22 0 -38.5 11.5t-20.5 32.5l-174 611h166l108 -450q13 -53 18 -105h17q14 70 20 105l81 402q4 22 19 35t38 13
h132q23 0 39 -13.5t20 -35.5l78 -401q3 -18 20 -105h17q16 97 18 105l108 450h166z" />
    <glyph glyph-name="x" unicode="x" horiz-adv-x="730" 
d="M503 337l207 -337h-171l-165 281h-18l-165 -281h-171l207 337l-191 318h170l148 -257h22l148 257h170z" />
    <glyph glyph-name="y" unicode="y" horiz-adv-x="730" 
d="M713 655l-244 -675q-18 -51 -43.5 -93t-64.5 -81.5t-96 -60t-126 -16.5l-13 103q76 21 120.5 57.5t71.5 95.5l7 15h-32q-44 0 -55 40l-222 615h173l143 -450q14 -47 21 -87h19q5 15 13.5 45t12.5 42l141 450h174z" />
    <glyph glyph-name="z" unicode="z" horiz-adv-x="693" 
d="M627 531l-385 -407h390v-124h-572v124l385 407h-379v124h561v-124z" />
    <glyph glyph-name="braceleft" unicode="{" horiz-adv-x="443" 
d="M390 1027v-100q-63 0 -86 -20.5t-23 -76.5v-218q0 -85 -27 -122.5t-103 -50.5q78 -23 106.5 -60t28.5 -109v-295q0 -56 23 -75.5t87 -19.5v-101q-265 -28 -265 182v330q0 24 -3 38.5t-17 25t-21.5 14t-37.5 15.5v109q30 10 38 12.5t20 13.5t14 26.5t2 45.5v254
q0 210 264 182z" />
    <glyph glyph-name="bar" unicode="|" horiz-adv-x="340" 
d="M227 -226h-115v1270h115v-1270z" />
    <glyph glyph-name="braceright" unicode="}" horiz-adv-x="444" 
d="M53 927v100q265 28 265 -182v-254q0 -30 2 -45.5t14 -26.5t20 -13.5t38 -12.5v-109q-51 -20 -62 -31q-17 -18 -17 -62v-330q0 -210 -265 -182v101q64 0 87 19.5t23 75.5v295q0 72 28.5 109t106.5 60q-76 13 -103 50.5t-27 122.5v218q0 56 -23 76.5t-87 20.5z" />
    <glyph glyph-name="asciitilde" unicode="~" horiz-adv-x="694" 
d="M198 477q46 -2 146 -35t128 -36q32 -4 42 10.5t10 54.5h79q12 -89 -18 -135.5t-88 -44.5q-51 2 -150 35t-125 36q-32 4 -41.5 -10.5t-9.5 -56.5h-79q-12 91 19 137.5t87 44.5z" />
    <glyph glyph-name="uni00A0" unicode="&#xa0;" horiz-adv-x="218" 
 />
    <glyph glyph-name="exclamdown" unicode="&#xa1;" horiz-adv-x="362" 
d="M163 670h39q32 0 44.5 -13t12.5 -45v-69q0 -32 -12.5 -44t-44.5 -12h-39q-33 0 -46 12t-13 44v69q0 32 13 45t46 13zM262 122v-376h-162v376l18 259h127z" />
    <glyph glyph-name="cent" unicode="&#xa2;" horiz-adv-x="686" 
d="M484 923l-11 -117q86 -9 138 -32l-19 -104q-10 1 -133 7l-41 -423q100 0 188 12l16 -104q-89 -37 -218 -40l-12 -122h-72l12 123q-148 9 -210 88t-62 256q0 192 74.5 275t247.5 70l18 -2l12 113h72zM348 258l37 419q-93 -5 -128.5 -49.5t-35.5 -160.5q0 -105 28.5 -152
t98.5 -57z" />
    <glyph glyph-name="sterling" unicode="&#xa3;" horiz-adv-x="771" 
d="M421 939q116 0 260 -14l-10 -131q-84 4 -236 4q-69 0 -94 -22.5t-20 -88.5l11 -156h256l-5 -90h-246l5 -73q7 -88 -15.5 -138t-79.5 -98q32 8 95 8h368v-140h-636v140q65 29 86 86t16 142l-4 73h-102l-2 90h99l-11 162q-5 76 10 125.5t51.5 75.5t84 35.5t119.5 9.5z" />
    <glyph glyph-name="currency" unicode="&#xa4;" horiz-adv-x="787" 
d="M710 715l-96 -95q45 -65 45 -151q0 -84 -47 -151l98 -95l-70 -69l-96 96q-70 -47 -151 -47t-151 47l-94 -95l-73 74l95 95q-44 64 -44 145q0 85 46 153l-93 93l69 70l93 -95q71 47 152 47q85 0 152 -48l97 96zM393 643q-71 0 -121.5 -50t-50.5 -122q0 -73 50.5 -123
t121.5 -50q70 0 120 50.5t50 122.5q0 71 -50.5 121.5t-119.5 50.5z" />
    <glyph glyph-name="yen" unicode="&#xa5;" horiz-adv-x="849" 
d="M567 445h167v-91h-214l-11 -21v-43h225v-89h-225v-201h-167v201h-219l-1 89h220v42l-12 22h-207l-3 91h163l-246 478h174l170 -347q6 -13 39 -111h12q26 86 39 113l168 345h173z" />
    <glyph glyph-name="brokenbar" unicode="&#xa6;" horiz-adv-x="342" 
d="M229 509h-115v535h115v-535zM229 -226h-115v535h115v-535z" />
    <glyph glyph-name="section" unicode="&#xa7;" horiz-adv-x="733" 
d="M356 940q134 0 294 -16l-11 -123q-60 4 -238 7q-35 0 -53.5 -0.5t-40.5 -3.5t-33 -9.5t-19 -17.5t-9 -28q-2 -37 17.5 -59t61.5 -44l195 -107q99 -54 124 -133.5t-8 -190.5h-115q5 83 -14.5 125.5t-82.5 79.5l-217 124q-43 25 -68 46t-45 63.5t-20 100.5q0 110 67 148.5
t215 37.5zM98 497h115q-6 -85 13 -126.5t83 -77.5l216 -123q67 -38 101 -83t34 -130q0 -112 -68 -150t-212 -37q-156 0 -297 16l12 123q108 -7 239 -8q83 0 117 11t36 52q1 36 -18 57.5t-59 44.5l-195 108q-99 55 -124.5 133t7.5 190z" />
    <glyph glyph-name="copyright" unicode="&#xa9;" horiz-adv-x="1099" 
d="M550 940q133 0 243 -61t174 -171.5t64 -246.5q0 -206 -139 -342t-342 -136q-204 0 -343.5 136t-139.5 342q0 136 64.5 246.5t175 171.5t243.5 61zM550 860q-166 0 -282.5 -114.5t-116.5 -284.5t116.5 -284t282.5 -114t281.5 113.5t115.5 284.5t-115.5 285t-281.5 114z
M556 749q102 0 181 -19l-11 -91q-77 4 -171 4q-78 0 -106.5 -38t-28.5 -141q0 -104 28.5 -141.5t106.5 -37.5q117 0 186 5l9 -89q-81 -22 -194 -22q-144 0 -202.5 64t-58.5 221t59 221t202 64z" />
    <glyph glyph-name="ordfeminine" unicode="&#xaa;" horiz-adv-x="587" 
d="M336 818q83 0 125 -36t42 -122v-294h-97l-13 77q-74 -87 -182 -87q-62 0 -100.5 31t-38.5 89v49q0 52 35.5 81t97.5 29h177v27q0 29 -16.5 44t-56.5 15q-59 0 -203 -8l-11 84q122 21 241 21zM382 572l-136 -12q-32 -3 -44.5 -14t-12.5 -31v-14q0 -27 15 -37.5t47 -10.5
q63 0 131 52v67z" />
    <glyph glyph-name="guillemotleft" unicode="&#xab;" horiz-adv-x="674" 
d="M350 563l-152 -227l154 -233l-86 -55l-214 270v35l213 265zM612 563l-152 -227l154 -233l-86 -55l-214 270v35l213 265z" />
    <glyph glyph-name="logicalnot" unicode="&#xac;" horiz-adv-x="785" 
d="M690 179h-122v162h-481v119h603v-281z" />
    <glyph glyph-name="softhyphen" unicode="&#xad;" horiz-adv-x="572" 
d="M487 282h-401v115h401v-115z" />
    <glyph glyph-name="registered" unicode="&#xae;" horiz-adv-x="717" 
d="M360 939q123 0 209.5 -87t86.5 -210q0 -124 -86.5 -211t-209.5 -87q-124 0 -211 87t-87 211q0 123 87 210t211 87zM360 889q-103 0 -174.5 -72t-71.5 -175t71.5 -175.5t174.5 -72.5q100 0 172 73t72 175t-72 174.5t-172 72.5zM369 812q75 0 106.5 -20.5t31.5 -74.5
q0 -72 -75 -81v-2q37 -5 53 -51l35 -102h-75l-31 99q-12 31 -46 31h-71v-130h-71v327q45 4 143 4zM297 758v-98h71q39 0 53 11t14 39q0 29 -13.5 38.5t-53.5 9.5h-71z" />
    <glyph glyph-name="degree" unicode="&#xb0;" horiz-adv-x="471" 
d="M235 940q73 0 125.5 -50.5t52.5 -122.5t-52.5 -124t-125.5 -52t-125.5 52t-52.5 124q0 71 52 122t126 51zM235 850q-35 0 -59.5 -23t-24.5 -60t24.5 -61t59.5 -24t59 24t24 61t-23.5 60t-59.5 23z" />
    <glyph glyph-name="plusminus" unicode="&#xb1;" horiz-adv-x="777" 
d="M449 550h240v-121h-241v-167h-120v167h-240v121h240v168h121v-168zM689 74h-601v120h601v-120z" />
    <glyph glyph-name="twosuperior" unicode="&#xb2;" horiz-adv-x="579" 
d="M273 1044q113 0 162.5 -27.5t49.5 -108.5q0 -79 -101 -177l-153 -144q25 4 86 4h188v-110h-433v69q0 33 20 52l150 141q101 95 107 151q2 27 -19 36t-68 9q-68 0 -179 -7l-5 93q96 19 195 19z" />
    <glyph glyph-name="threesuperior" unicode="&#xb3;" horiz-adv-x="554" 
d="M270 1046q114 0 158 -28t44 -101q0 -62 -22 -97t-81 -43v-3q65 -9 90.5 -41.5t27.5 -97.5q2 -88 -46 -126t-164 -38q-93 0 -207 14l5 93q103 -6 170 -6q66 0 90.5 17t24.5 63q0 35 -20.5 53t-78.5 18h-114v90h114q55 0 72 19t17 53q0 35 -20.5 47t-79.5 12q-98 0 -164 -3
l-6 90q107 15 190 15z" />
    <glyph glyph-name="paragraph" unicode="&#xb6;" horiz-adv-x="797" 
d="M461 939q126 0 217 -23v-916h-116v834q-27 2 -98 4v-1119h-114v550q-164 15 -235 92.5t-71 240.5q0 184 95.5 260.5t321.5 76.5z" />
    <glyph glyph-name="periodcentered" unicode="&#xb7;" horiz-adv-x="333" 
d="M142 437h49q32 0 45 -13t13 -46v-66q0 -34 -12.5 -46.5t-45.5 -12.5h-49q-32 0 -45 12.5t-13 46.5v66q0 33 13 46t45 13z" />
    <glyph glyph-name="onesuperior" unicode="&#xb9;" horiz-adv-x="401" 
d="M312 481h-126v385q0 40 5 61l-142 -33l-14 85l151 56h126v-554z" />
    <glyph glyph-name="ordmasculine" unicode="&#xba;" horiz-adv-x="590" 
d="M295 818q126 0 177.5 -52.5t51.5 -179.5t-51 -178.5t-178 -51.5q-126 0 -177 51.5t-51 178.5t51 179.5t177 52.5zM295 723q-61 0 -82.5 -28t-21.5 -109q0 -80 22 -108.5t82 -28.5t81.5 28.5t21.5 108.5q0 81 -21.5 109t-81.5 28z" />
    <glyph glyph-name="guillemotright" unicode="&#xbb;" horiz-adv-x="674" 
d="M360 353v-35l-214 -270l-86 55l154 233l-152 227l85 55zM622 353v-35l-214 -270l-86 55l154 233l-152 227l85 55z" />
    <glyph glyph-name="onequarter" unicode="&#xbc;" horiz-adv-x="1178" 
d="M316 369h-125v385q0 30 6 60l-142 -32l-15 84l151 57h125v-554zM303 0h-109l572 923h110zM921 554l-144 -317q-5 -11 1 -17.5t20 -6.5h150v145l20 89h96v-234h66v-83l-66 -10v-120h-116v119h-243q-38 0 -57.5 26t-0.5 68l157 341h117z" />
    <glyph glyph-name="onehalf" unicode="&#xbd;" horiz-adv-x="1203" 
d="M316 369h-125v385q0 30 6 60l-142 -32l-15 84l151 57h125v-554zM293 0h-110l574 923h108zM910 563q114 0 164 -28t50 -108t-101 -177l-153 -144q25 4 86 4h187v-110h-432v68q0 34 19 52l150 142q103 96 108 151q2 27 -19 35.5t-68 8.5q-84 0 -179 -6l-5 93q101 19 193 19
z" />
    <glyph glyph-name="threequarters" unicode="&#xbe;" horiz-adv-x="1297" 
d="M266 929q113 0 157 -27.5t44 -99.5q0 -63 -21.5 -97.5t-80.5 -42.5v-3q65 -9 90.5 -41.5t27.5 -97.5q1 -88 -47 -126t-163 -38q-93 0 -207 14l5 93q103 -6 168 -6q66 0 90.5 17t24.5 62q0 36 -19.5 53.5t-77.5 18.5l-114 3v83l114 4q55 2 71.5 20t16.5 51q0 36 -20.5 48
t-79.5 12q-104 0 -163 -4l-6 91q95 13 190 13zM432 0h-108l572 923h109zM1042 554l-145 -317q-5 -10 1 -17t19 -7h151v145l20 89h97v-234h64v-83l-64 -10v-120h-117v119h-243q-38 0 -57 26t-1 68l157 341h118z" />
    <glyph glyph-name="questiondown" unicode="&#xbf;" horiz-adv-x="673" 
d="M334 675h38q33 0 46 -12.5t13 -44.5v-70q0 -32 -13 -44.5t-46 -12.5h-38q-33 0 -46 12.5t-13 44.5v70q0 32 13 44.5t46 12.5zM285 386h133q3 -67 -16.5 -123.5t-49 -95.5t-60 -72t-53 -67.5t-24.5 -67.5q-3 -53 31.5 -77.5t113.5 -24.5q112 0 264 10l7 -114
q-7 -1 -30.5 -6t-29.5 -6t-26 -4.5t-29 -4.5t-28.5 -3.5t-34 -3t-36 -1.5t-45 -1.5t-50.5 -0.5q-140 0 -209 51t-69 156q0 54 23.5 100.5t57.5 81.5t68.5 71.5t61 88.5t30.5 114z" />
    <glyph glyph-name="multiply" unicode="&#xd7;" horiz-adv-x="650" 
d="M607 219l-78 -93l-481 432l79 93z" />
    <glyph glyph-name="divide" unicode="&#xf7;" horiz-adv-x="749" 
d="M353 721h40q33 0 46 -13t13 -46v-55q0 -33 -13 -45t-46 -12h-40q-33 0 -46 12t-13 45v55q0 33 13 46t46 13zM675 334h-601v118h601v-118zM353 235h40q33 0 46 -12.5t13 -46.5v-53q0 -33 -13 -46t-46 -13h-40q-33 0 -46 13t-13 46v53q0 34 13 46.5t46 12.5z" />
    <glyph glyph-name="uni060C" unicode="&#x60c;" horiz-adv-x="318" 
d="M137 370l73 -20q-17 -79 -17 -167q45 0 45 -51v-75q0 -31 -14 -44t-46 -13h-44q-32 0 -44 12.5t-12 44.5v86q0 122 59 227z" />
    <glyph glyph-name="uni061B" unicode="&#x61b;" horiz-adv-x="337" 
d="M152 783l73 -20q-15 -70 -18 -167q46 0 46 -51v-75q0 -31 -14 -44t-46 -13h-43q-32 0 -45 12.5t-13 44.5v86q0 120 60 227zM146 183h49q32 0 45 -13t13 -45v-68q0 -32 -13 -44.5t-45 -12.5h-49q-32 0 -45 12.5t-13 44.5v68q0 32 13 45t45 13z" />
    <glyph glyph-name="uni061F" unicode="&#x61f;" horiz-adv-x="679" 
d="M323 952q35 0 63 -0.5t54 -2.5t42 -3.5t40 -5t34 -5.5t37.5 -7l38.5 -7l-7 -113q-164 9 -266 9q-78 0 -112 -25t-31 -78q2 -33 24 -67.5t52 -67.5t60 -71.5t49.5 -95.5t17.5 -123h-135q-4 62 -30 114t-60 88.5t-68 71.5t-57.5 81.5t-23.5 100.5q0 105 68.5 156t209.5 51z
M332 183h39q33 0 46 -12.5t13 -44.5v-69q0 -32 -13 -44.5t-46 -12.5h-39q-33 0 -46 12.5t-13 44.5v69q0 32 13 44.5t46 12.5z" />
    <glyph glyph-name="uni0621" unicode="&#x621;" horiz-adv-x="580" 
d="M377 535q23 0 60 -5q40 -4 58 -9q15 -3 45 -13l-28 -138q-28 15 -49 16q-21 7 -55 7q-35 0 -65 -8q-20 -10 -35 -29q-14 -16 -16 -38q-6 -21 -4 -48q-2 -45 9 -72q12 -27 45 -42q25 -11 81 -11q17 0 40 3q33 4 40 7l37 10l-28 -137q-21 -10 -44 -15q-17 -3 -53 -7
q-12 -1 -33 -1q-146 -11 -342 -4v190l70 -10q-12 41 -13 94q0 45 15 90q17 53 45 86q29 36 86 60q56 24 134 24z" />
    <glyph glyph-name="uni0622" unicode="&#x622;" horiz-adv-x="255" 
d="M277 1074l-25 -75q-1 -4 -22 -13q-10 -6 -25 -6q-17 0 -27 6q-24 10 -26 12q-31 20 -52.5 15t-86.5 -57l13 64l48 43q15 12 37 12q15 0 27 -6l59 -30q5 0 9 2zM215 0h-175v879h175v-879z" />
    <glyph glyph-name="uni0623" unicode="&#x623;" horiz-adv-x="254" 
d="M163 1175q6 0 22 -2l19 -2q9 -4 17 -5l-12 -49q-7 5 -15 6q-8 3 -19 3q-13 0 -20 -4q-11 -3 -15 -7q-3 -5 -5 -15t-2 -16q0 -12 5 -24q1 -8 14 -13q10 -6 27 -6q5 0 15 2l23 3l13 3l-12 -48l-53 -7h-128v56l36 4q-3 14 -3 32q0 15 4 30t16 30q12 12 29 20q17 9 44 9z
M214 0h-174v874h174v-874z" />
    <glyph glyph-name="uni0624" unicode="&#x624;" horiz-adv-x="588" 
d="M317 789q6 0 22 -2l19 -2q9 -4 17 -5l-12 -49q-7 5 -15 6q-8 3 -19 3q-13 0 -20 -4q-11 -3 -15 -7q-3 -5 -5 -15t-2 -16q0 -12 5 -24q1 -8 14 -13q10 -6 27 -6q5 0 15 2l23 3l13 3l-12 -48l-53 -7h-128v56l36 4q-3 14 -3 32q0 15 4 30t16 30q12 12 29 20q17 9 44 9z
M283 487q54 0 98 -4q35 -2 91 -8q36 -4 76 -12v-463q-5 -33 -16 -67q-18 -52 -45 -79q-30 -30 -68 -42q-37 -12 -81 -15q-45 -3 -91 -3q-54 1 -107 11q-64 12 -96 25l25 126q12 -5 48 -16q22 -6 58 -13q42 -6 69 -6q39 -1 76 8q31 8 43 26q13 19 13 52v32q-21 -16 -36 -22
q-16 -8 -45 -13q-23 -4 -64 -4q-40 0 -72 13q-33 13 -61 44q-29 30 -43 75q-15 44 -15 117q0 77 28 129t83 81q53 28 132 28zM303 369q-28 1 -48 -8q-17 -9 -28 -35q-10 -24 -10 -75q0 -47 8 -77t21 -43q16 -12 39 -12q15 0 31 3q15 3 28 13q15 12 22 32q9 19 9 56v136
q-24 6 -36 8q-22 2 -36 2z" />
    <glyph glyph-name="uni0625" unicode="&#x625;" horiz-adv-x="254" 
d="M214 0h-174v923h174v-923zM163 -70q6 0 22 -2l19 -2q9 -4 17 -5l-12 -49q-7 4 -15 6q-8 3 -19 3q-13 0 -20 -4q-11 -3 -15 -7q-3 -5 -5 -15t-2 -16q0 -12 5 -24q1 -8 14 -13q10 -6 27 -6q5 0 15 2l23 3l13 3l-12 -48l-53 -7h-128v56l36 4q-3 13 -3 32q0 15 4 30t16 30
q12 13 29 20q17 9 44 9z" />
    <glyph glyph-name="uni0626" unicode="&#x626;" horiz-adv-x="1038" 
d="M214 747q6 0 22 -2l19 -2q9 -4 17 -5l-12 -49q-8 5 -15 6q-7 3 -19 3q-13 0 -20 -4q-11 -3 -15 -7q-3 -5 -5 -15t-2 -16q0 -12 5 -24q1 -8 14 -13q11 -6 27 -6q5 0 15 2l23 3l13 3l-12 -48l-53 -7h-128v56l36 4q-3 14 -3 32q0 15 4 30t16 30q13 12 29 20q16 9 44 9z
M617 685q35 0 54 -3l54 -8q19 -2 44 -12l-27 -131q-19 10 -43 16q-25 6 -52 6q-35 0 -59 -8q-23 -11 -35 -26q-11 -17 -16 -38q-19 -93 41 -121l1 -1q23 -10 62 -10h107q246 -27 250 -208h1l-1 -3l-6 -138h-683q-86 0 -131 14q-49 14 -80 45q-27 29 -41 67q-12 37 -15 82
q-2 52 -2 56q0 50 10 107q11 57 26 94l124 -26q-8 -19 -15 -45q-9 -31 -14 -59t-7 -68q0 -30 11 -70q10 -31 26 -42q20 -14 176 -14h457q-3 61 -121 61h-108q-166 19 -232 147q-14 35 -16 91q0 48 12 87q13 43 43 80q28 32 80 56q48 20 125 22z" />
    <glyph glyph-name="uni0627" unicode="&#x627;" horiz-adv-x="254" 
d="M214 0h-174v923h174v-923z" />
    <glyph glyph-name="uni0628" unicode="&#x628;" horiz-adv-x="1101" 
d="M1061 487v-264q0 -150 -100 -196q-59 -27 -240 -27h-397q-151 0 -212 58q-72 70 -72 265v60h173v-85q0 -151 172 -151h380q99 0 114 38q8 22 8 217v85h174zM540 -108q28 -2 47 -15q21 -11 33 -33q12 -25 13 -49q-1 -25 -13 -50q-10 -19 -33 -34q-22 -14 -47 -15
q-27 2 -49 15q-20 12 -33 34t-13 50q0 27 13 49q14 22 33 33q22 13 49 15z" />
    <glyph glyph-name="uni0629" unicode="&#x629;" horiz-adv-x="582" 
d="M184 784q28 -2 47 -15q21 -11 33 -33q12 -25 13 -49q-1 -25 -13 -50q-10 -19 -33 -34q-22 -14 -47 -15q-27 2 -49 15q-20 12 -33 34t-13 50q0 27 13 49q14 22 33 33q22 13 49 15zM423 784q28 -2 47 -15q21 -11 33 -33q12 -25 13 -49q-1 -25 -13 -50q-10 -19 -33 -34
q-22 -14 -47 -15q-27 2 -49 15q-20 12 -33 34t-13 50q0 27 13 49t33 33q22 13 49 15zM283 495q144 1 250 -17l-5 -207q-3 -130 -37 -188q-43 -75 -186 -83q-141 -6 -207 60q-23 23 -42 78q-16 50 -16 118q0 77 28 129q28 54 83 81q56 29 132 29zM305 377q-29 1 -48 -9
q-17 -8 -28 -36q-10 -28 -10 -75q0 -50 7 -77q7 -30 22 -43q14 -13 38 -13q14 0 31 3t30 13q12 9 21 32q9 25 9 57v137q-24 6 -36 8q-17 3 -36 3z" />
    <glyph glyph-name="uni062A" unicode="&#x62a;" horiz-adv-x="1101" 
d="M440 704q28 -2 47 -15q21 -11 33 -33q12 -25 13 -49q-1 -25 -13 -50q-10 -19 -33 -34q-22 -14 -47 -15q-27 2 -49 15q-20 12 -33 34t-13 50q0 27 13 49q14 22 33 33q22 13 49 15zM679 704q28 -2 47 -15q21 -11 33 -33q12 -25 13 -49q-1 -25 -13 -50q-10 -19 -33 -34
q-22 -14 -47 -15q-27 2 -49 15q-20 12 -33 34t-13 50q0 27 13 49t33 33q22 13 49 15zM1061 487v-264q0 -150 -100 -196q-59 -27 -240 -27h-397q-151 0 -212 58q-72 70 -72 265v60h173v-85q0 -151 172 -151h380q99 0 114 38q8 22 8 217v85h174z" />
    <glyph glyph-name="uni062B" unicode="&#x62b;" horiz-adv-x="1101" 
d="M559 915q28 -2 47 -15q21 -10 33 -33q12 -25 13 -49q-1 -25 -13 -50q-10 -19 -33 -34q-22 -14 -47 -15q-27 2 -49 15q-20 12 -33 34t-13 50q0 27 13 49q13 23 33 33q22 13 49 15zM440 704q28 -2 47 -15q21 -11 33 -33q12 -25 13 -49q-1 -25 -13 -50q-10 -19 -33 -34
q-22 -14 -47 -15q-27 2 -49 15q-20 12 -33 34t-13 50q0 27 13 49q14 22 33 33q22 13 49 15zM679 704q28 -2 47 -15q21 -11 33 -33q12 -25 13 -49q-1 -25 -13 -50q-10 -19 -33 -34q-22 -14 -47 -15q-27 2 -49 15q-20 12 -33 34t-13 50q0 27 13 49t33 33q22 13 49 15z
M1061 487v-264q0 -150 -100 -196q-59 -27 -240 -27h-397q-151 0 -212 58q-72 70 -72 265v60h173v-85q0 -151 172 -151h380q99 0 114 38q8 22 8 217v85h174z" />
    <glyph glyph-name="uni062C" unicode="&#x62c;" horiz-adv-x="798" 
d="M710 61q39 -53 47 -61h-550q1 -43 18.5 -63.5t52.5 -19.5q33 1 127 41l26 -127q-157 -57 -266 -22q-40 13 -67 40q-50 49 -58 142v156h471l-2 97v31q0 33 -13 52q-14 21 -42 28q-25 8 -78 6q-47 0 -68 -4q-28 -5 -59 -14q-26 -7 -48 -17l-26 127q32 12 96 25
q54 10 108 11q62 0 92 -2q40 -1 84 -16q37 -13 66 -42q30 -30 46 -80q17 -54 17 -133q0 -121 26 -155zM643 -123q21 -11 33 -33q12 -25 13 -49q-1 -25 -13 -50q-10 -19 -33 -34q-22 -14 -47 -15q-27 2 -49 15q-20 12 -33 34t-13 50q0 27 13 49q14 22 33 33q22 13 49 15
q28 -2 47 -15z" />
    <glyph glyph-name="uni062D" unicode="&#x62d;" horiz-adv-x="798" 
d="M710 61q39 -53 47 -61h-550q1 -43 18.5 -63.5t52.5 -19.5q33 1 127 41l26 -127q-157 -57 -266 -22q-40 13 -67 40q-50 49 -58 142v156h471l-2 97v31q0 33 -13 52q-14 21 -42 28q-25 8 -78 6q-47 0 -68 -4q-28 -5 -59 -14q-26 -7 -48 -17l-26 127q32 12 96 25
q54 10 108 11q62 0 92 -2q40 -1 84 -16q37 -13 66 -42q30 -30 46 -80q17 -54 17 -133q0 -121 26 -155z" />
    <glyph glyph-name="uni062E" unicode="&#x62e;" horiz-adv-x="798" 
d="M332 607q-20 12 -33 34t-13 50q0 27 13 49t33 33q22 13 49 15q28 -2 47 -15q21 -11 33 -33q12 -25 13 -49q-1 -25 -13 -50q-10 -19 -33 -34q-22 -14 -47 -15q-27 2 -49 15zM710 61q39 -53 47 -61h-550q1 -43 18.5 -63.5t52.5 -19.5q33 1 127 41l26 -127
q-157 -57 -266 -22q-40 13 -67 40q-50 49 -58 142v156h471l-2 97v31q0 33 -13 52q-14 21 -42 28q-25 8 -78 6q-47 0 -68 -4q-28 -5 -59 -14q-26 -7 -48 -17l-26 127q32 12 96 25q54 10 108 11q62 0 92 -2q40 -1 84 -16q37 -13 66 -42q30 -30 46 -80q17 -54 17 -133
q0 -121 26 -155z" />
    <glyph glyph-name="uni062F" unicode="&#x62f;" horiz-adv-x="590" 
d="M111 482l128 6q229 11 285 -130q27 -72 26 -358h-510v147h340q11 144 -23 183q-52 59 -244 37z" />
    <glyph glyph-name="uni0630" unicode="&#x630;" horiz-adv-x="590" 
d="M280 788q28 -2 47 -15q21 -11 33 -33q12 -25 13 -49q-1 -25 -13 -50q-10 -19 -33 -34q-22 -14 -47 -15q-27 2 -49 15q-20 12 -33 34t-13 50q0 27 13 49q14 22 33 33q22 13 49 15zM111 482l128 6q229 11 285 -130q27 -72 26 -358h-510v147h340q11 144 -23 183
q-52 59 -244 37z" />
    <glyph glyph-name="uni0631" unicode="&#x631;" horiz-adv-x="369" 
d="M329 488v-518q0 -60 -20 -100q-19 -39 -63 -57t-115 -18q-18 0 -42 2q-10 1 -41 7q-26 5 -48 13l25 115l20 -6q9 -3 26 -5q8 -1 23 -1q21 -1 35 5q13 4 19 17q7 13 7 36v510h174z" />
    <glyph glyph-name="uni0632" unicode="&#x632;" horiz-adv-x="369" 
d="M240 788q28 -2 47 -15q21 -11 33 -33q12 -25 13 -49q-1 -25 -13 -50q-10 -19 -33 -34q-22 -14 -47 -15q-27 2 -49 15q-20 12 -33 34t-13 50q0 27 13 49q14 22 33 33q22 13 49 15zM329 488v-518q0 -60 -20 -100q-19 -39 -63 -57t-115 -18q-18 0 -42 2q-10 1 -41 7
q-26 5 -48 13l25 115l20 -6q9 -3 26 -5q8 -1 23 -1q21 -1 35 5q13 4 19 17q7 13 7 36v510h174z" />
    <glyph glyph-name="uni0633" unicode="&#x633;" horiz-adv-x="1241" 
d="M1200 488v-335q0 -61 -16 -93q-16 -33 -51 -47q-32 -13 -80 -13q-43 0 -83 15q-37 13 -74 43q-16 -32 -51 -45q-32 -13 -80 -13q-41 0 -82 15q-30 11 -63 35v-84q0 -126 -174 -162q-162 -34 -302 36q-104 52 -104 168v260h173v-193q0 -58 5 -80q9 -41 48 -63
q66 -37 135 5q46 27 46 79v363h173v-198l9 -9q17 -11 31 -16q18 -8 39 -10q18 0 27 6q10 8 11 19q3 11 3 31v228h172v-255l4 -3q22 -12 32 -16q17 -8 39 -10q19 0 26 6q9 8 12 19t3 31v286h172z" />
    <glyph glyph-name="uni0634" unicode="&#x634;" horiz-adv-x="1241" 
d="M831 994q28 -2 47 -15q21 -11 33 -33q12 -25 13 -49q-1 -25 -13 -50q-10 -19 -33 -34q-22 -14 -47 -15q-27 2 -49 15q-20 12 -33 34t-13 50q0 27 13 49t33 33q22 13 49 15zM712 783q28 -2 47 -15q21 -10 33 -33q12 -25 13 -49q-1 -25 -13 -50q-10 -19 -33 -34
q-22 -14 -47 -15q-27 2 -49 15q-20 12 -33 34t-13 50q0 27 13 49q14 23 33 33q22 13 49 15zM951 783q28 -2 47 -15q21 -10 33 -33q12 -25 13 -49q-1 -25 -13 -50q-10 -19 -33 -34q-22 -14 -47 -15q-27 2 -49 15q-20 12 -33 34t-13 50q0 27 13 49q13 23 33 33q22 13 49 15z
M1200 488v-335q0 -61 -16 -93q-16 -33 -51 -47q-32 -13 -80 -13q-43 0 -83 15q-37 13 -74 43q-16 -32 -51 -45q-32 -13 -80 -13q-41 0 -82 15q-30 11 -63 35v-84q0 -126 -174 -162q-162 -34 -302 36q-104 52 -104 168v260h173v-193q0 -58 5 -80q9 -41 48 -63q66 -37 135 5
q46 27 46 79v363h173v-198l9 -9q17 -11 31 -16q18 -8 39 -10q18 0 27 6q10 8 11 19q3 11 3 31v228h172v-255l4 -3q22 -12 32 -16q17 -8 39 -10q19 0 26 6q9 8 12 19t3 31v286h172z" />
    <glyph glyph-name="uni0635" unicode="&#x635;" horiz-adv-x="1380" 
d="M1107 484q100 -22 164 -100q82 -101 67 -261q-3 -31 -8 -68l-9 -55h-639q-44 0 -63 22v-57q0 -126 -173 -162q-165 -33 -302 35q-104 53 -104 169v261h173v-194q0 -62 4 -79q10 -40 49 -63q64 -37 135 5q46 27 46 78v364h172v-199q7 -36 53 -33q7 119 79 209
q64 81 164 115q99 35 192 13zM956 343q-68 -15 -105 -64q-35 -46 -47 -89t9 -43h386q17 71 -20 124q-34 49 -97 68q-62 19 -126 4z" />
    <glyph glyph-name="uni0636" unicode="&#x636;" horiz-adv-x="1380" 
d="M1010 788q28 -2 47 -15q21 -11 33 -33q12 -25 13 -49q-1 -25 -13 -50q-10 -19 -33 -34q-22 -14 -47 -15q-27 2 -49 15q-20 12 -33 34t-13 50q0 27 13 49q14 22 33 33q22 13 49 15zM1107 484q100 -22 164 -100q82 -101 67 -261q-3 -31 -8 -68l-9 -55h-639q-44 0 -63 22
v-57q0 -126 -173 -162q-165 -33 -302 35q-104 53 -104 169v261h173v-194q0 -62 4 -79q10 -40 49 -63q64 -37 135 5q46 27 46 78v364h172v-199q7 -36 53 -33q7 119 79 209q64 81 164 115q99 35 192 13zM956 343q-68 -15 -105 -64q-35 -46 -47 -89t9 -43h386q17 71 -20 124
q-34 49 -97 68q-62 19 -126 4z" />
    <glyph glyph-name="uni0637" unicode="&#x637;" horiz-adv-x="960" 
d="M296 772v-481q81 166 264 194q186 30 292 -103q80 -99 66 -259q-5 -59 -6 -67l-9 -56h-863v147h83v625h173zM539 342q-67 -17 -104 -64q-35 -46 -47 -89q-10 -42 10 -42h383q16 70 -20 123q-34 48 -97 67q-63 20 -125 5z" />
    <glyph glyph-name="uni0638" unicode="&#x638;" horiz-adv-x="960" 
d="M582 788q28 -2 47 -15q21 -11 33 -33q12 -25 13 -49q-1 -25 -13 -50q-10 -19 -33 -34q-22 -14 -47 -15q-27 2 -49 15q-20 12 -33 34t-13 50q0 27 13 49q14 22 33 33q22 13 49 15zM296 772v-481q81 166 264 194q186 30 292 -103q80 -99 66 -259q-5 -59 -6 -67l-9 -56h-863
v147h83v625h173zM539 342q-67 -17 -104 -64q-35 -46 -47 -89q-10 -42 10 -42h383q16 70 -20 123q-34 48 -97 67q-63 20 -125 5z" />
    <glyph glyph-name="uni0639" unicode="&#x639;" horiz-adv-x="609" 
d="M569 153l-28 -131q-18 -7 -41 -12q-14 -3 -47 -7l-86 -3h-2h-158q2 -84 71 -81q30 1 127 40l25 -126q-156 -58 -265 -23q-37 12 -67 42q-51 49 -58 140v155h75q-13 36 -15 93q0 45 13 88q14 45 43 80q28 34 81 57q51 22 126 23q30 0 55 -4q30 -3 55 -9q30 -6 44 -11
l-28 -132q-25 12 -44 15q-22 7 -52 7q-37 0 -60 -9q-24 -11 -35 -26q-13 -16 -16 -37q-4 -19 -4 -45q0 -28 10 -52q11 -26 39 -38v-1q27 -13 130 -13q19 0 39 4q28 4 41 7z" />
    <glyph glyph-name="uni063A" unicode="&#x63a;" horiz-adv-x="609" 
d="M276 607q-20 12 -33 34t-13 50q0 27 13 49t33 33q22 13 49 15q28 -2 47 -15q21 -11 33 -33q12 -25 13 -49q-1 -25 -13 -50q-10 -19 -33 -34q-22 -14 -47 -15q-27 2 -49 15zM569 153l-28 -131q-18 -7 -41 -12q-14 -3 -47 -7l-86 -3h-2h-158q2 -84 71 -81q30 1 127 40
l25 -126q-156 -58 -265 -23q-37 12 -67 42q-51 49 -58 140v155h75q-13 36 -15 93q0 45 13 88q14 45 43 80q28 34 81 57q51 22 126 23q30 0 55 -4q30 -3 55 -9q30 -6 44 -11l-28 -132q-25 12 -44 15q-22 7 -52 7q-37 0 -60 -9q-24 -11 -35 -26q-13 -16 -16 -37q-4 -19 -4 -45
q0 -28 10 -52q11 -26 39 -38v-1q27 -13 130 -13q19 0 39 4q28 4 41 7z" />
    <glyph glyph-name="uni0640" unicode="&#x640;" horiz-adv-x="386" 
d="M406 0h-426v147h426v-147z" />
    <glyph glyph-name="uni0641" unicode="&#x641;" horiz-adv-x="1009" 
d="M723 784q28 -2 47 -15q21 -11 33 -33q12 -25 13 -49q-1 -25 -13 -50q-10 -19 -33 -34q-22 -14 -47 -15q-27 2 -49 15q-20 12 -33 34t-13 50q0 27 13 49t33 33q22 13 49 15zM821 489q79 -24 120 -102q28 -55 28 -132q0 -49 -3 -100q-1 -4 -1 -10q2 -2 -1 -11
q-4 -46 -7 -69q-1 -6 -4 -22t-4 -25l-3 -18h-635q-82 0 -133 16q-50 16 -80 46q-28 28 -42 68q-12 39 -15 82q-5 74 7 136q7 43 26 95l126 -25q-5 -12 -16 -48q-9 -32 -13 -58q-9 -51 2 -83q13 -39 65 -61t139 -22h160q7 0 17.5 0.5t13.5 0.5h1q-28 38 -37 94q-5 28 -5 65
q0 40 13 72t43 61q30 27 78 42q88 29 160 8zM734 320q-88 -7 -88 -68q0 -28 14 -55q15 -31 38 -40q22 -8 147 -8q21 85 -2 133q-21 46 -109 38z" />
    <glyph glyph-name="uni0642" unicode="&#x642;" horiz-adv-x="780" 
d="M375 783q28 -2 47 -15q21 -10 33 -33q12 -25 13 -49q-1 -25 -13 -50q-10 -19 -33 -34q-22 -14 -47 -15q-27 2 -49 15q-20 12 -33 34t-13 50q0 27 13 49q13 23 33 33q22 13 49 15zM614 783q28 -2 47 -15q21 -10 33 -33q12 -25 13 -49q-1 -25 -13 -50q-10 -19 -33 -34
q-22 -14 -47 -15q-27 2 -49 15q-20 12 -33 34t-13 50q0 27 13 49q14 23 33 33q22 13 49 15zM473 488q65 0 98 -3l92 -9q32 -3 77 -11v-398q0 -134 -118 -210q-106 -69 -254 -61q-150 7 -243 94q-103 97 -81 257h104q-10 -106 55 -164q55 -49 151 -54q88 -5 153 28
q69 33 59 82q-17 -13 -35 -21t-45 -13q-23 -4 -65 -4q-39 0 -72 12q-35 14 -60 43q-26 29 -43 77q-16 45 -16 117q0 74 29 129q29 53 82 81q55 28 132 28zM493 370q-27 1 -47 -8q-18 -8 -29 -36q-9 -24 -9 -74t7 -77q8 -30 22 -43t39 -13q14 0 30 3t29 13q12 10 22 32
q9 25 9 56v138q-20 5 -37 6q-17 3 -36 3z" />
    <glyph glyph-name="uni0643" unicode="&#x643;" horiz-adv-x="1102" 
d="M1062 920v-697q0 -153 -100 -198q-54 -25 -240 -25h-397q-155 0 -213 57q-72 67 -72 265v62h174v-86q0 -152 172 -152h380q60 0 80 7q24 7 35 31q8 24 8 218v518h173zM617 693q17 0 36 -3q18 -2 36 -6q25 -5 28 -6l-18 -87q-12 7 -28 10q-15 4 -34 4q-24 0 -39 -6
q-15 -5 -23 -17q-8 -10 -10 -24q-3 -14 -3 -29q0 -27 6 -43q8 -17 26 -26q19 -8 51 -8q6 0 26 2q9 1 25 5l21 6l-18 -86q-8 -3 -26 -7q-25 -5 -31 -6q-9 -1 -22 -1q-83 -5 -211 0v114l43 -5q-5 22 -7 58q0 28 9 57q7 26 28 52q21 25 53 37q33 14 82 15z" />
    <glyph glyph-name="uni0644" unicode="&#x644;" horiz-adv-x="741" 
d="M701 926v-822q0 -156 -103 -241q-91 -76 -225 -70t-227 84q-106 89 -106 227v165h174v-195q0 -61 50 -105q46 -40 108 -43q64 -4 106 36q47 46 47 135v829h176z" />
    <glyph glyph-name="uni0645" unicode="&#x645;" horiz-adv-x="768" 
d="M467 489q48 0 93 -9q47 -11 85 -37q36 -25 60 -77q23 -51 23 -128q0 -78 -23 -129q-25 -51 -61 -76q-39 -28 -84 -38q-44 -10 -93 -10q-50 0 -94 10q-6 1 -18 5h-180l21 -265l-156 -68v326q0 53 40.5 99t133.5 55q-10 37 -10 91q0 77 23 128q26 53 61 77q38 26 85 37
q47 9 94 9zM467 375q-26 1 -46 -11q-18 -11 -29 -42q-10 -29 -10 -84q0 -56 10 -85q11 -32 29 -43q20 -11 46 -11q25 0 45 11q18 12 28 43q11 31 11 85q0 53 -11 84q-11 30 -28 42q-20 12 -45 11z" />
    <glyph glyph-name="uni0646" unicode="&#x646;" horiz-adv-x="734" 
d="M365 703q28 -2 46 -13q21 -14 35 -35q11 -23 12 -49q-1 -26 -12 -49q-13 -22 -35 -36q-19 -13 -46 -13q-28 0 -48 13q-22 14 -35 36q-11 22 -13 49q2 30 13 49q11 20 35 35q20 11 48 13zM694 485v-382q0 -153 -101 -237q-91 -75 -224 -71q-131 5 -225 84
q-104 89 -104 224v277h173v-305q0 -62 49 -105q45 -39 106 -42q59 -4 105 37q48 45 48 133v387h173z" />
    <glyph glyph-name="uni0647" unicode="&#x647;" horiz-adv-x="582" 
d="M283 495q144 1 250 -17l-5 -207q-3 -130 -37 -188q-43 -75 -186 -83q-141 -6 -207 60q-23 23 -42 78q-16 50 -16 118q0 77 28 129q28 54 83 81q56 29 132 29zM305 377q-29 1 -48 -9q-17 -8 -28 -36q-10 -28 -10 -75q0 -50 7 -77q7 -30 22 -43q14 -13 38 -13q14 0 31 3
t30 13q12 9 21 32q9 25 9 57v137q-24 6 -36 8q-17 3 -36 3z" />
    <glyph glyph-name="uni0648" unicode="&#x648;" horiz-adv-x="588" 
d="M283 487q54 0 98 -4q35 -2 91 -8q36 -4 76 -12v-463q-5 -33 -16 -67q-18 -52 -45 -79q-30 -30 -68 -42q-37 -12 -81 -15q-45 -3 -91 -3q-54 1 -107 11q-64 12 -96 25l25 126q12 -5 48 -16q22 -6 58 -13q42 -6 69 -6q39 -1 76 8q31 8 43 26q13 19 13 52v32
q-21 -16 -36 -22q-16 -8 -45 -13q-23 -4 -64 -4q-40 0 -72 13q-33 13 -61 44q-29 30 -43 75q-15 44 -15 117q0 77 28 129t83 81q53 28 132 28zM303 369q-28 1 -48 -8q-17 -9 -28 -35q-10 -24 -10 -75q0 -47 8 -77t21 -43q16 -12 39 -12q15 0 31 3q15 3 28 13q15 12 22 32
q9 19 9 56v136q-24 6 -36 8q-22 2 -36 2z" />
    <glyph glyph-name="uni0649" unicode="&#x649;" horiz-adv-x="1038" 
d="M617 685q35 0 54 -3l54 -8q19 -2 44 -12l-27 -131q-19 10 -43 16q-25 6 -52 6q-35 0 -59 -8q-23 -11 -35 -26q-11 -17 -16 -38q-19 -93 41 -121l1 -1q23 -10 62 -10h107q246 -27 250 -208h1l-1 -3l-6 -138h-683q-86 0 -131 14q-49 14 -80 45q-27 29 -41 67q-12 37 -15 82
q-2 52 -2 56q0 50 10 107q11 57 26 94l124 -26q-8 -19 -15 -45q-9 -31 -14 -59t-7 -68q0 -30 11 -70q10 -31 26 -42q20 -14 176 -14h457q-3 61 -121 61h-108q-166 19 -232 147q-14 35 -16 91q0 48 12 87q13 43 43 80q28 32 80 56q48 20 125 22z" />
    <glyph glyph-name="uni064A" unicode="&#x64a;" horiz-adv-x="1038" 
d="M617 685q35 0 54 -3l54 -8q19 -2 44 -12l-27 -131q-21 11 -43 15q-25 6 -52 6q-35 0 -59 -8q-24 -11 -35 -25q-12 -19 -16 -38q-19 -93 41 -121l1 -1q22 -11 62 -11h107q245 -25 250 -208h1l-1 -3l-6 -137h-683q-86 0 -131 14q-49 14 -80 45q-26 26 -41 67q-12 37 -15 82
q-2 50 -2 56q0 50 10 107q11 57 26 94l124 -26q-8 -21 -15 -46q-9 -28 -14 -58q-7 -37 -7 -68q-1 -31 11 -71q7 -28 26 -41q19 -15 176 -15h457q-3 61 -121 61h-108q-166 19 -232 147q-14 35 -16 92q0 48 12 87q14 44 43 79q30 34 80 57q48 20 125 22zM414 -108
q28 -2 47 -15q21 -11 33 -33q12 -25 13 -49q-1 -25 -13 -50q-10 -19 -33 -34q-22 -14 -47 -15q-27 2 -49 15q-20 12 -33 34t-13 50q0 27 13 49q14 22 33 33q22 13 49 15zM653 -108q28 -2 47 -15q21 -11 33 -33q12 -25 13 -49q-1 -25 -13 -50q-10 -19 -33 -34
q-22 -14 -47 -15q-27 2 -49 15q-20 12 -33 34t-13 50q0 27 13 49t33 33q22 13 49 15z" />
    <glyph glyph-name="uni064B" unicode="&#x64b;" 
d="M113 100h-227v54h226zM113 0h-227v54h226z" />
    <glyph glyph-name="uni064C" unicode="&#x64c;" 
d="M54 281l-196 -113q-37 -21 -26 -63q4 -15 16 -34l12 -18l-34 -20l-6 7l-28 43q-6 12 -9 28q-13 68 52 106l192 111zM115 253q39 -9 58 -43l47 -82l-190 -109q-65 -38 -117 8q-14 12 -19 22l-24 45l-3 9l35 20q7 -18 9 -20q8 -18 21 -31q30 -30 68 -9l25 14l-31 53
q-21 74 45 111q37 21 76 12zM64 202q-46 -28 -22 -68l24 -41l43 25l3 2q1 0 2 1l43 25l-13 23h-1l-10 18q-23 41 -69 15z" />
    <glyph glyph-name="uni064D" unicode="&#x64d;" 
d="M113 -54h-227v54h226zM113 -154h-227v54h226z" />
    <glyph glyph-name="uni064E" unicode="&#x64e;" 
d="M113 0h-227v54h226z" />
    <glyph glyph-name="uni064F" unicode="&#x64f;" 
d="M74 253q40 -9 59 -43l47 -82l-190 -109q-65 -38 -117 8q-12 9 -20 22q-7 12 -23 45l-3 9l34 20l10 -20q7 -18 21 -31q31 -31 68 -9l24 14l-31 53q-19 74 45 111q37 21 76 12zM24 202q-46 -27 -22 -68l24 -41l42 25h1l3 2q1 0 2 1l43 25l-14 23l-10 18q-23 41 -69 15z" />
    <glyph glyph-name="uni0650" unicode="&#x650;" 
d="M113 -54h-227v54h226z" />
    <glyph glyph-name="uni0651" unicode="&#x651;" 
d="M73 195h54q2 -87 0 -122q0 -13 -3 -25q-10 -38 -51 -45q-11 -3 -24 -3h-177v179h55v-134h42l1 134h54v-134q23 0 30 1q14 2 17 16q2 10 2 15v118z" />
    <glyph glyph-name="uni0652" unicode="&#x652;" 
d="M0 200q38 0 67 -29q27 -29 27 -71q0 -43 -27 -71q-27 -29 -67 -29q-39 0 -66 29q-28 29 -28 71q0 43 28 71q27 29 66 29zM0 158q-36 0 -36 -58t36 -58t36 58t-36 58z" />
    <glyph glyph-name="uni0653" unicode="&#x653;" 
d="M115 190h51q0 -53 -13 -102q-25 -88 -88 -88q-41 0 -80 45q-37 45 -50 45q-50 0 -50 -100h-51q0 60 13 103q24 87 88 87q39 0 78 -45t52 -45q50 0 50 100z" />
    <glyph glyph-name="uni0654" unicode="&#x654;" 
d="M1 197q35 9 73 -8v-50l-13 1q-23 2 -38 2q-30 -3 -34 -33q-2 -11 0 -20q3 -26 29 -26h62q7 0 19 -1v-62h-199v64h17l16 -1l-3 17q-16 96 71 117z" />
    <glyph glyph-name="uni0656" unicode="&#x656;" 
d="M27 -186h-54v186h54v-186z" />
    <glyph glyph-name="uni0660" unicode="&#x660;" horiz-adv-x="825" 
d="M412 940q187 0 262.5 -109t75.5 -370t-75.5 -369.5t-262.5 -108.5t-262 108.5t-75 369.5t75 370t262 109zM410 800q-98 0 -135 -72.5t-37 -266.5q0 -193 37 -265.5t135 -72.5q101 0 139 72.5t38 265.5q0 194 -38 266.5t-139 72.5z" />
    <glyph glyph-name="uni0661" unicode="&#x661;" horiz-adv-x="554" 
d="M417 0h-167v681q0 55 7 90l-217 -61l-20 119l230 94h167v-923z" />
    <glyph glyph-name="uni0662" unicode="&#x662;" horiz-adv-x="761" 
d="M370 939q150 0 223 -44t73 -165q0 -85 -32 -152.5t-122 -164.5l-245 -263q61 8 143 8h285v-158h-628v100q0 45 24 70l241 266q87 96 127 162t38 119q-1 47 -34 61.5t-110 14.5q-125 0 -270 -16l-9 128q155 34 296 34z" />
    <glyph glyph-name="uni0663" unicode="&#x663;" horiz-adv-x="750" 
d="M354 940q158 0 225.5 -47t67.5 -167q0 -101 -30 -160t-105 -73v-5q86 -14 121.5 -70.5t37.5 -160.5q2 -145 -67 -209.5t-236 -64.5q-140 0 -306 24l8 131q157 -11 254 -11q103 0 142 31.5t39 118.5q0 75 -32 109t-124 34h-171v124h171q87 0 113 34.5t26 106.5
q-1 72 -33 92t-127 20q-139 0 -241 -8l-8 127q143 24 275 24z" />
    <glyph glyph-name="uni0664" unicode="&#x664;" horiz-adv-x="838" 
d="M460 923l-234 -537q-10 -25 -1.5 -36.5t30.5 -11.5h257v257l28 150h130v-407h119v-112l-116 -17h-3v-209h-158v209h-362q-62 0 -92.5 49t-5.5 106l246 559h162z" />
    <glyph glyph-name="uni0665" unicode="&#x665;" horiz-adv-x="727" 
d="M630 785h-380l-11 -197l117 -13q169 -20 238 -89t68 -207q0 -62 -13 -110.5t-45.5 -92.5t-96 -68t-154.5 -24q-131 0 -294 31l17 135q120 -20 236 -20q75 0 115.5 17t54.5 48t15 86q1 27 -1 46.5t-10.5 35.5t-15.5 26.5t-27.5 19.5t-33 13.5t-46 9.5t-54 7.5t-67.5 7.5
l-88 9q-27 3 -43 21.5t-15 45.5l22 400h517z" />
    <glyph glyph-name="uni0666" unicode="&#x666;" horiz-adv-x="774" 
d="M449 939q122 0 203 -23l-10 -116q-64 2 -193 2q-58 0 -92.5 -9.5t-61 -38.5t-38.5 -82.5t-15 -142.5q43 43 92 60.5t121 17.5q146 0 202 -67t56 -231q0 -81 -12 -136t-44.5 -100t-95 -67t-156.5 -22q-83 0 -138 14t-93 44.5t-58.5 87.5t-29 132t-8.5 189
q0 125 15.5 212.5t43 141.5t75.5 84t102.5 40t134.5 10zM408 477q-47 0 -84 -13t-83 -48q0 -65 1.5 -104.5t7.5 -76.5t16.5 -56t29.5 -34t45 -20t65 -5q93 0 120.5 42.5t27.5 145.5q0 96 -30.5 132.5t-115.5 36.5z" />
    <glyph glyph-name="uni0667" unicode="&#x667;" horiz-adv-x="694" 
d="M43 923h537q46 0 67 -27.5t7 -69.5l-282 -826h-166l243 703q21 58 35 79h-433z" />
    <glyph glyph-name="uni0668" unicode="&#x668;" horiz-adv-x="816" 
d="M408 937q123 0 190.5 -27t92 -77.5t24.5 -139.5q0 -90 -32.5 -147t-100.5 -65v-5q85 -8 120 -71.5t35 -174.5q0 -66 -14 -109.5t-50.5 -75t-101 -46t-163.5 -15.5q-129 0 -201.5 27.5t-99.5 79t-27 139.5q0 111 34.5 174.5t119.5 71.5v5q-68 8 -100 65t-32 147
q0 89 25 139.5t92 77.5t189 27zM409 810q-94 0 -125 -28t-31 -107t31.5 -106.5t125.5 -27.5q95 0 124 27t29 107q0 79 -30.5 107t-123.5 28zM410 416q-104 -1 -138 -31.5t-34 -118.5q0 -85 34 -114.5t137 -29.5q102 0 135.5 29.5t33.5 114.5q0 90 -33 120t-135 30z" />
    <glyph glyph-name="uni0669" unicode="&#x669;" horiz-adv-x="774" 
d="M374 939q70 0 119.5 -9t86 -32.5t58.5 -56.5t35 -88.5t17.5 -120t4.5 -160.5q0 -124 -13.5 -208.5t-39.5 -140t-72.5 -86t-103 -42t-141.5 -11.5q-130 0 -221 23l12 117q70 -4 208 -4q115 0 158.5 57t50.5 220q-44 -46 -93 -63.5t-123 -17.5q-253 0 -253 298
q-1 170 69.5 247.5t240.5 77.5zM373 802q-92 0 -121.5 -43t-29.5 -144q0 -90 30.5 -130.5t112.5 -40.5q47 0 83.5 14t86.5 50q-1 79 -4 122t-11.5 81.5t-26.5 55.5t-46.5 26t-73.5 9z" />
    <glyph glyph-name="uni066A" unicode="&#x66a;" horiz-adv-x="741" 
d="M186 0h-130l499 923h130zM173 794h49q32 0 45 -13t13 -45v-68q0 -32 -13 -44.5t-45 -12.5h-49q-32 0 -45 12.5t-13 44.5v68q0 32 13 45t45 13zM547 296h49q32 0 45 -13t13 -45v-68q0 -32 -13 -44.5t-45 -12.5h-49q-32 0 -45 12.5t-13 44.5v68q0 32 13 45t45 13z" />
    <glyph glyph-name="uni066D" unicode="&#x66d;" horiz-adv-x="602" 
d="M333 466l139 -173l-74 -55l-97 163l-98 -161l-75 53l139 171l-13 221h94zM243 510v-40l-18 -26l-166 42l29 87zM543 484l-165 -40l-21 26v40l156 63z" />
    <glyph glyph-name="uni0670" unicode="&#x670;" 
d="M27 0h-54v186h54v-186z" />
    <glyph glyph-name="endash" unicode="&#x2013;" horiz-adv-x="767" 
d="M682 282h-596v115h596v-115z" />
    <glyph glyph-name="emdash" unicode="&#x2014;" horiz-adv-x="1169" 
d="M1083 282h-997v115h997v-115z" />
    <glyph glyph-name="quoteleft" unicode="&#x2018;" horiz-adv-x="299" 
d="M131 971l72 -19q-17 -72 -17 -151q44 0 44 -47v-68q0 -29 -13.5 -40.5t-45.5 -11.5h-43q-32 0 -44 11.5t-12 40.5v77q0 111 59 208z" />
    <glyph glyph-name="quoteright" unicode="&#x2019;" horiz-adv-x="295" 
d="M127 961h43q31 0 43.5 -11.5t12.5 -40.5v-77q0 -111 -59 -208l-72 19q16 66 17 151q-45 0 -45 47v68q0 29 14 40.5t46 11.5z" />
    <glyph glyph-name="quotesinglbase" unicode="&#x201a;" horiz-adv-x="314" 
d="M138 170h42q32 0 44.5 -12t12.5 -42v-79q0 -111 -59 -208l-72 19q17 71 17 153q-45 0 -45 47v68q0 30 14 42t46 12z" />
    <glyph glyph-name="quotedblleft" unicode="&#x201c;" horiz-adv-x="528" 
d="M131 971l72 -19q-17 -72 -17 -151q44 0 44 -47v-68q0 -29 -13.5 -40.5t-45.5 -11.5h-43q-32 0 -44 11.5t-12 40.5v77q0 111 59 208zM360 971l72 -19q-18 -76 -18 -151q46 0 46 -47v-68q0 -29 -14 -40.5t-46 -11.5h-43q-31 0 -43.5 11.5t-12.5 40.5v77q0 111 59 208z" />
    <glyph glyph-name="quotedblright" unicode="&#x201d;" horiz-adv-x="524" 
d="M127 961h43q31 0 43.5 -11.5t12.5 -40.5v-77q0 -111 -59 -208l-72 19q16 66 17 151q-45 0 -45 47v68q0 29 14 40.5t46 11.5zM356 961h42q32 0 44.5 -11.5t12.5 -40.5v-77q0 -111 -59 -208l-72 19q17 72 17 151q-44 0 -44 47v68q0 29 13.5 40.5t45.5 11.5z" />
    <glyph glyph-name="quotedblbase" unicode="&#x201e;" horiz-adv-x="543" 
d="M138 166h42q32 0 44.5 -12t12.5 -42v-77q0 -112 -59 -207l-72 18q15 66 17 153q-45 0 -45 45v68q0 30 14 42t46 12zM366 166h43q32 0 44 -12t12 -42v-77q0 -115 -59 -207l-72 18q18 76 18 153q-44 0 -44 45v68q0 30 13.5 42t44.5 12z" />
    <glyph glyph-name="dagger" unicode="&#x2020;" horiz-adv-x="620" 
d="M373 648v-88l8 -707h-142l8 707v88l-8 276h142zM221 540l-173 -16v131h173v-115zM572 524l-172 16v115h172v-131z" />
    <glyph glyph-name="daggerdbl" unicode="&#x2021;" horiz-adv-x="671" 
d="M398 687v-492l7 -305l-111 -37l-21 233v496l-7 308l111 34zM246 540l-172 -16v131h172v-115zM598 524l-173 16v115h173v-131zM246 237v-115h-172v131zM598 122h-173v115l173 16v-131z" />
    <glyph glyph-name="bullet" unicode="&#x2022;" horiz-adv-x="493" 
d="M241 496h17q71 0 99 -27.5t28 -98.5v-18q0 -75 -27.5 -104t-99.5 -29h-17q-76 0 -104.5 28.5t-28.5 104.5v18q0 71 29 98.5t104 27.5z" />
    <glyph glyph-name="ellipsis" unicode="&#x2026;" horiz-adv-x="1177" 
d="M130 183h49q32 0 45 -12.5t13 -44.5v-69q0 -32 -13 -44.5t-45 -12.5h-49q-32 0 -45 12.5t-13 44.5v69q0 32 13 44.5t45 12.5zM558 183h49q32 0 44.5 -12.5t12.5 -44.5v-69q0 -32 -12.5 -44.5t-44.5 -12.5h-49q-32 0 -45 12.5t-13 44.5v69q0 32 13 44.5t45 12.5zM985 183
h50q32 0 44.5 -12.5t12.5 -44.5v-69q0 -32 -12.5 -44.5t-44.5 -12.5h-50q-31 0 -44 13t-13 44v69q0 32 13 44.5t44 12.5z" />
    <glyph glyph-name="perthousand" unicode="&#x2030;" horiz-adv-x="1715" 
d="M275 940q124 0 174 -61.5t50 -212.5q0 -150 -50 -212t-174 -62q-123 0 -173 62t-50 212q0 151 50 212.5t173 61.5zM369 0h-108l572 923h107zM274 844q-58 0 -79 -37t-21 -141q0 -105 21 -141.5t79 -36.5q60 0 81.5 36.5t21.5 141.5q0 104 -21.5 141t-81.5 37zM928 535
q124 0 173.5 -62t49.5 -212q0 -152 -49.5 -214t-173.5 -62q-123 0 -172.5 62t-49.5 214q0 150 49.5 212t172.5 62zM1437 535q124 0 173 -62t49 -212q0 -152 -49 -214t-173 -62t-173 62t-49 214q0 150 49 212t173 62zM928 437q-59 0 -79.5 -35.5t-20.5 -140.5
q0 -106 20.5 -142.5t79.5 -36.5q58 0 79.5 37t21.5 142q0 104 -21.5 140t-79.5 36zM1436 437q-59 0 -79.5 -36t-20.5 -140q0 -105 20.5 -142t79.5 -37q60 0 81.5 37t21.5 142q0 104 -21.5 140t-81.5 36z" />
    <glyph glyph-name="guilsinglleft" unicode="&#x2039;" horiz-adv-x="412" 
d="M350 563l-152 -227l154 -233l-86 -55l-214 270v35l213 265z" />
    <glyph glyph-name="guilsinglright" unicode="&#x203a;" horiz-adv-x="414" 
d="M361 353v-35l-215 -270l-86 55l154 233l-152 227l85 55z" />
    <glyph glyph-name="fraction" unicode="&#x2044;" horiz-adv-x="682" 
d="M110 0h-110l572 923h110z" />
    <glyph glyph-name="Euro" unicode="&#x20ac;" horiz-adv-x="850" 
d="M545 939q125 0 228 -30l-15 -127q-109 19 -223 10q-85 -7 -130 -52t-61 -138h316l-10 -94h-316v-49v-30h282l-9 -92h-266q14 -103 59.5 -152t134.5 -54q130 -7 242 13l15 -125q-110 -35 -247 -35q-182 0 -271.5 86t-109.5 267h-105v92h100v32v47h-99v94h107
q21 172 110.5 254.5t267.5 82.5z" />
    <glyph glyph-name="trademark" unicode="&#x2122;" horiz-adv-x="1301" 
d="M527 838h-166v-416h-114v416h-167v93h447v-93zM1040 931h112q41 0 43 -43l19 -466h-104l-20 422h-14l-95 -317q-9 -36 -45 -36h-76q-35 0 -46 36l-95 317h-13l-19 -422h-104l20 466q2 43 41 43h110q35 0 46 -37l76 -256q3 -11 7.5 -35.5t8.5 -38.5h12q2 8 8 34.5t9 40.5
l74 255q9 37 45 37z" />
    <glyph glyph-name="partialdiff" unicode="&#x2202;" horiz-adv-x="774" 
d="M163 821v119q105 2 181 -5t141.5 -27t107 -55t70 -90t38.5 -131.5t5 -180.5q-12 -239 -93 -353t-255 -114q-87 0 -149.5 28.5t-94 77t-44 103t-8.5 117.5q3 61 21 113.5t51.5 94t87.5 65t123 23.5q124 -3 198 -83q1 72 -8.5 120t-33 84.5t-68.5 56t-109.5 28.5t-160.5 9z
M384 475q-151 0 -161 -166q-5 -87 29.5 -136.5t109.5 -49.5q39 0 68.5 15t48 39t31 65t18.5 83t11 102q-74 48 -155 48z" />
    <glyph glyph-name="emptyset" unicode="&#x2205;" horiz-adv-x="916" 
d="M459 846q161 0 275.5 -114.5t114.5 -275.5q0 -163 -114.5 -277.5t-275.5 -114.5q-163 0 -277.5 114.5t-114.5 277.5q0 161 114.5 275.5t277.5 114.5zM459 729q-65 0 -164 -15l4 -60q81 12 160 12q42 0 65 -16.5t23 -45.5q0 -28 -20.5 -59t-44.5 -56.5t-44.5 -70
t-20.5 -96.5h72q0 39 13 71t31.5 55t37 44.5t31.5 50t13 61.5q0 125 -156 125zM480 229h-52q-10 0 -10 -11v-50q0 -9 10 -9h52q11 0 11 9v50q0 11 -11 11z" />
    <glyph glyph-name="product" unicode="&#x220f;" horiz-adv-x="960" 
d="M913 792h-126v-926h-161v926h-292v-926h-162v926h-125v131h866v-131z" />
    <glyph glyph-name="summation" unicode="&#x2211;" horiz-adv-x="796" 
d="M721 793h-463l205 -338l-224 -492h495v-130h-674v130l222 492l-206 338v130h645v-130z" />
    <glyph glyph-name="minus" unicode="&#x2212;" horiz-adv-x="778" 
d="M690 334h-602v118h602v-118z" />
    <glyph glyph-name="radical" unicode="&#x221a;" horiz-adv-x="767" 
d="M745 1171l-317 -1160q-5 -11 -18 -11h-191q-15 0 -17 11l-167 644h132l139 -549h18l287 1065h134z" />
    <glyph glyph-name="infinity" unicode="&#x221e;" horiz-adv-x="1034" 
d="M774 602q82 0 136.5 -48t54.5 -140q0 -96 -59 -149.5t-149 -53.5q-126 0 -238 114q-120 -114 -246 -114q-86 0 -145.5 54t-59.5 149q0 93 56.5 140.5t145.5 47.5q132 0 249 -119q123 119 255 119zM294 489q-92 0 -92 -80q0 -85 97 -85q45 0 79 20t71 61
q-38 45 -69.5 64.5t-85.5 19.5zM742 489q-52 0 -85 -22.5t-69 -66.5q65 -76 147 -76q98 0 98 85q0 80 -91 80z" />
    <glyph glyph-name="integral" unicode="&#x222b;" horiz-adv-x="485" 
d="M298 955q94 0 149 -6l-10 -116h-85q-39 0 -55.5 -19t-13.5 -67l62 -866q6 -92 -31.5 -135t-133.5 -43q-99 0 -141 6l10 116h82q41 0 58 20.5t13 70.5l-62 861q-6 86 36.5 132t121.5 46z" />
    <glyph glyph-name="approxequal" unicode="&#x2248;" horiz-adv-x="781" 
d="M237 610q40 -2 146.5 -35.5t148.5 -35.5q31 -2 40.5 11t9.5 53h105q16 -91 -21 -137.5t-125 -44.5q-43 2 -148.5 36t-145.5 36q-30 1 -39.5 -12.5t-9.5 -53.5h-104q-17 96 23 141.5t120 41.5zM237 352q40 -2 146.5 -36.5t148.5 -36.5q31 -1 40.5 12.5t9.5 53.5h105
q16 -91 -21 -137.5t-125 -44.5q-44 1 -149.5 35t-144.5 36q-30 2 -39.5 -11.5t-9.5 -55.5h-104q-17 97 23 143t120 42z" />
    <glyph glyph-name="notequal" unicode="&#x2260;" horiz-adv-x="824" 
d="M619 719l-75 -124h169v-118h-241l-100 -165h341v-118h-412l-100 -165l-42 22l87 143h-136v118h207l100 165h-307v118h379l87 146z" />
    <glyph glyph-name="lessequal" unicode="&#x2264;" horiz-adv-x="746" 
d="M654 608l-421 -113l421 -106v-127l-560 170v127l560 178v-129zM660 84h-581v121h581v-121z" />
    <glyph glyph-name="greaterequal" unicode="&#x2265;" horiz-adv-x="746" 
d="M652 559v-127l-558 -170v127l419 106l-419 113v129zM668 84h-582v121h582v-121z" />
    <glyph glyph-name="lozenge" unicode="&#x25ca;" horiz-adv-x="762" 
d="M393 924l329 -449q6 -13 0 -24l-329 -452q-11 -16 -23 0l-330 452q-6 11 0 24l330 449q12 15 23 0zM168 463l214 -305l212 305l-212 302z" />
    <glyph glyph-name="uni00630074" horiz-adv-x="1138" 
d="M912 655h192v-118h-192v-332q0 -43 17.5 -60t61.5 -17h89l18 -120q-71 -23 -169 -23q-86 0 -132.5 50t-46.5 141v361h-340q-101 0 -140 -43.5t-39 -164.5q0 -122 39 -166.5t140 -44.5q103 0 180 13l14 -107q-90 -40 -223 -40q-176 0 -247.5 77.5t-71.5 267.5
q0 176 76.5 251t243.5 75h368v189h162v-189z" />
    <glyph glyph-name="uni006600660079" horiz-adv-x="1669" 
d="M816 961q132 0 197 -12l-14 -115h-127q-56 0 -77.5 -20.5t-21.5 -71.5v-87h210q143 0 187 -136l100 -314q11 -32 22 -87h20q7 22 25 87l140 450h174l-242 -675q-18 -51 -44 -93t-65 -81.5t-96 -60t-126 -16.5l-14 103q77 21 121.5 57.5t71.5 95.5l6 15h-32q-40 0 -54 40
l-162 447q-18 50 -71 50h-171v-537h-162v537h-301v-537h-162v537h-116v111l116 7v95q0 94 51.5 146t152.5 52q109 0 173 -12l-14 -115h-102q-56 0 -77.5 -18.5t-21.5 -73.5v-74h301v108q0 96 48 147t157 51z" />
    <glyph glyph-name="uni00660074" horiz-adv-x="993" 
d="M353 961q122 0 182 -12l-14 -115h-111q-54 0 -76 -20.5t-22 -71.5v-87h295v189h162v-189h191v-118h-191v-332q0 -44 16.5 -60.5t60.5 -16.5h90l19 -120q-72 -23 -169 -23q-87 0 -133 50t-46 141v361h-295v-537h-164v537h-116v111l116 7v108q0 96 48 147t157 51z" />
    <glyph glyph-name="uni00660079" horiz-adv-x="1206" 
d="M353 961q133 0 199 -12l-13 -115h-129q-54 0 -76 -20.5t-22 -71.5v-87h208q144 0 187 -136l101 -314q16 -55 22 -87h18q5 15 13.5 45t12.5 42l141 450h174l-242 -675q-98 -264 -331 -251l-14 103q77 21 120.5 57.5t71.5 95.5l7 15h-32q-41 0 -55 40l-162 447
q-18 50 -71 50h-169v-537h-164v537h-116v111l116 7v108q0 96 48 147t157 51z" />
    <glyph glyph-name="s_t" horiz-adv-x="1171" 
d="M945 655h193v-118h-193v-332q0 -43 17.5 -60t61.5 -17h90l17 -120q-69 -23 -168 -23q-86 0 -133 50t-47 141v361h-430q-89 0 -114 -7.5t-25 -42.5q0 -8 1 -14t2 -11t5 -9.5t5.5 -7.5t8.5 -6.5t9.5 -5t12 -4.5t12.5 -4t16 -4.5t17 -4.5l177 -48q83 -23 118.5 -64
t35.5 -125q0 -115 -65 -154.5t-225 -39.5q-143 0 -274 22l10 113q65 -5 223 -5q104 0 139 12.5t35 50.5q0 32 -18.5 44.5t-65.5 24.5q-6 1 -9 2l-173 46q-85 24 -119.5 68.5t-34.5 124.5q0 96 60 131.5t208 35.5h458v189h162v-189z" />
    <glyph glyph-name="uni00740074" horiz-adv-x="1017" 
d="M792 655h192v-118h-192v-332q0 -43 17 -60t61 -17h90l17 -120q-69 -23 -168 -23q-86 0 -132 50t-46 141v361h-322v-332q0 -43 17.5 -60t61.5 -17h89l18 -120q-71 -23 -169 -23q-86 0 -132 50t-46 141v361h-119v111l118 7v189h162v-189h321v189h162v-189z" />
    <glyph glyph-name="uni00740079" horiz-adv-x="1234" 
d="M309 655h239q144 0 187 -136l101 -314q14 -47 21 -87h17q17 45 28 87l141 450h174l-244 -675q-18 -51 -43.5 -93t-64.5 -81.5t-96 -60t-126 -16.5l-13 103q76 21 120.5 57.5t71.5 95.5l7 15h-32q-44 0 -55 40l-162 447q-18 50 -71 50h-200v-332q0 -43 17.5 -60t61.5 -17
h89l18 -120q-71 -23 -169 -23q-86 0 -132 50t-46 141v361h-119v111l118 7v189h162v-189z" />
    <glyph glyph-name="behar.init.ordn" horiz-adv-x="510" 
d="M470 487v-264q0 -151 -100 -196q-59 -27 -390 -27v147q216 0 238 2q64 3 75 48q5 23 5 205v85h172zM239 -108q28 -2 47 -15q21 -11 33 -33q12 -25 13 -49q-1 -25 -13 -50q-10 -19 -33 -34q-22 -14 -47 -15q-27 2 -49 15q-20 12 -33 34t-13 50q0 27 13 49t33 33
q22 13 49 15z" />
    <glyph glyph-name="yehar.init.ordn" horiz-adv-x="562" 
d="M456 487v-85q0 -6 -0.5 -34t-0.5 -50v-67q0 -51 11 -71q10 -22 39 -28q27 -5 41 -5h77v-147q-197 0 -254 33q-25 -15 -149 -24t-240 -9v147h212q16 0 41 5q29 6 39 28q11 20 11 71v236h173zM227 -108q28 -2 47 -15q21 -11 33 -33q12 -25 13 -49q-1 -25 -13 -50
q-10 -19 -33 -34q-22 -14 -47 -15q-27 2 -49 15q-20 12 -33 34t-13 50q0 27 13 49t33 33q22 13 49 15zM466 -108q28 -2 47 -15q21 -11 33 -33q12 -25 13 -49q-1 -25 -13 -50q-10 -19 -33 -34q-22 -14 -47 -15q-27 2 -49 15q-20 12 -33 34t-13 50q0 27 13 49q14 22 33 33
q22 13 49 15z" />
    <glyph glyph-name="yehar.medi.ordn" horiz-adv-x="547" 
d="M507 487v-264q0 -159 -82.5 -191t-411.5 -32h-33v147q253 0 275 2q65 3 75 48q5 23 5 205v85h172zM137 -108q28 -2 47 -15q21 -11 33 -33q12 -25 13 -49q-1 -25 -13 -50q-10 -19 -33 -34q-22 -14 -47 -15q-27 2 -49 15q-20 12 -33 34t-13 50q0 27 13 49t33 33
q22 13 49 15zM376 -108q28 -2 47 -15q21 -11 33 -33q12 -25 13 -49q-1 -25 -13 -50q-10 -19 -33 -34q-22 -14 -47 -15q-27 2 -49 15q-20 12 -33 34t-13 50q0 27 13 49q14 22 33 33q22 13 49 15z" />
    <glyph glyph-name="uni064B0651" 
d="M113 330h-227v54h226zM113 230h-227v54h226zM73 195h54q2 -87 0 -122q0 -13 -3 -25q-10 -38 -51 -45q-11 -3 -24 -3h-177v179h55v-134h42l1 134h54v-134q23 0 30 1q14 2 17 16q2 10 2 15v118z" />
    <glyph glyph-name="uni064C0651" 
d="M74 511l-196 -113q-37 -21 -26 -63q4 -15 16 -34l12 -18l-34 -20l-6 7l-28 43q-6 12 -9 28q-13 68 52 106l192 111zM135 483q39 -9 58 -43l47 -82l-190 -109q-65 -38 -117 8q-14 12 -19 22l-24 45l-3 9l35 20q7 -18 9 -20q8 -18 21 -31q30 -30 68 -9l25 14l-31 53
q-21 74 45 111q37 21 76 12zM84 432q-46 -28 -22 -68l24 -41l43 25l3 2q1 0 2 1l43 25l-13 23h-1l-10 18q-23 41 -69 15zM73 195h54q2 -87 0 -122q0 -13 -3 -25q-10 -38 -51 -45q-11 -3 -24 -3h-177v179h55v-134h42l1 134h54v-134q23 0 30 1q14 2 17 16q2 10 2 15v118z" />
    <glyph glyph-name="uni064D0651" 
d="M73 395h54q2 -87 0 -122q0 -13 -3 -25q-10 -38 -51 -45q-11 -3 -24 -3h-177v179h55v-134h42l1 134h54v-134q23 0 30 1q14 2 17 16q2 10 2 15v118zM113 100h-227v54h226zM113 0h-227v54h226z" />
    <glyph glyph-name="uni064E0651" 
d="M113 230h-227v54h226zM73 195h54q2 -87 0 -122q0 -13 -3 -25q-10 -38 -51 -45q-11 -3 -24 -3h-177v179h55v-134h42l1 134h54v-134q23 0 30 1q14 2 17 16q2 10 2 15v118z" />
    <glyph glyph-name="uni064F0651" 
d="M94 483q40 -9 59 -43l47 -82l-190 -109q-65 -38 -117 8q-12 9 -20 22q-7 12 -23 45l-3 9l34 20l10 -20q7 -18 21 -31q31 -31 68 -9l24 14l-31 53q-19 74 45 111q37 21 76 12zM44 432q-46 -27 -22 -68l24 -41l42 25h1l3 2q1 0 2 1l43 25l-14 23l-10 18q-23 41 -69 15z
M73 195h54q2 -87 0 -122q0 -13 -3 -25q-10 -38 -51 -45q-11 -3 -24 -3h-177v179h55v-134h42l1 134h54v-134q23 0 30 1q14 2 17 16q2 10 2 15v118z" />
    <glyph glyph-name="uni06500651" 
d="M73 295h54q2 -87 0 -122q0 -13 -3 -25q-10 -38 -51 -45q-11 -3 -24 -3h-177v179h55v-134h42l1 134h54v-134q23 0 30 1q14 2 17 16q2 10 2 15v118zM113 0h-227v54h226z" />
  </font>
</defs>
</svg>
